<svg version="1.1" xmlns="http://www.w3.org/2000/svg" viewBox="0 0 637.3334655761719 197" width="637.3334655761719" height="197">
  <!-- svg-source:excalidraw -->
  
  <defs>
    <style class="style-fonts">
      @font-face {
        font-family: "Virgil";
        src: url("https://excalidraw.com/Virgil.woff2");
      }
      @font-face {
        font-family: "Cascadia";
        src: url("https://excalidraw.com/Cascadia.woff2");
      }
    </style>
  </defs>
  <rect x="0" y="0" width="637.3334655761719" height="197" fill="#ffffff"></rect><g stroke-linecap="round" transform="translate(287.3333435058594 24) rotate(0 34.5 78.5)"><path d="M17.25 0 M17.25 0 C27.35 1.07, 35.85 -0.64, 51.75 0 M17.25 0 C26.04 -0.3, 34.11 -0.11, 51.75 0 M51.75 0 C64.7 1.25, 70.29 7.02, 69 17.25 M51.75 0 C63.67 0.9, 69.07 7.32, 69 17.25 M69 17.25 C68.26 46.68, 71.05 77.62, 69 139.75 M69 17.25 C68.42 65.33, 68.68 111.41, 69 139.75 M69 139.75 C68.7 149.52, 65.04 155.22, 51.75 157 M69 139.75 C67.08 149.92, 65.05 154.75, 51.75 157 M51.75 157 C40.26 155.27, 25.18 157.57, 17.25 157 M51.75 157 C43.37 158.02, 34.48 157.76, 17.25 157 M17.25 157 C6.73 157.18, 0.87 149.47, 0 139.75 M17.25 157 C5.99 158.62, 1.12 150.2, 0 139.75 M0 139.75 C-0.17 107.87, -1.73 71.11, 0 17.25 M0 139.75 C1.99 112.86, 0.29 87.5, 0 17.25 M0 17.25 C0.86 4.49, 5.6 0.97, 17.25 0 M0 17.25 C0.82 3.98, 3.46 -0.97, 17.25 0" stroke="#000000" stroke-width="1" fill="none"></path></g><g transform="translate(293.37335205078125 90) rotate(0 28.459991455078125 12.5)"><text x="28.459991455078125" y="0" font-family="Virgil, Segoe UI Emoji" font-size="20px" fill="#000000" text-anchor="middle" style="white-space: pre;" direction="ltr" dominant-baseline="text-before-edge">WAMR</text></g><g stroke-linecap="round" transform="translate(551.3334655761719 10) rotate(0 38 88.5)"><path d="M19 0 M19 0 C29.04 0.99, 37.53 -0.62, 57 0 M19 0 C28.68 -0.89, 36.99 -0.07, 57 0 M57 0 C70.13 -1.24, 77.27 6.1, 76 19 M57 0 C69.45 -0.66, 75.8 6.97, 76 19 M76 19 C77.24 63.51, 76.29 107.84, 76 158 M76 19 C75.87 65.92, 75.9 113.68, 76 158 M76 158 C75.4 170.64, 68.09 177.91, 57 177 M76 158 C77.26 172.25, 70.2 175.43, 57 177 M57 177 C49.84 175.81, 39.67 175.87, 19 177 M57 177 C45.3 178.19, 32.92 177.31, 19 177 M19 177 C7.29 175.96, -0.73 171.44, 0 158 M19 177 C7.96 177.71, 1.03 171.95, 0 158 M0 158 C-0.23 107.02, 3.31 53.86, 0 19 M0 158 C1.01 120.49, 0.87 82.74, 0 19 M0 19 C1.85 5.92, 7.79 -0.42, 19 0 M0 19 C1.99 7.94, 6.05 -0.1, 19 0" stroke="#364fc7" stroke-width="1" fill="none"></path></g><g transform="translate(561.5734786987305 73.5) rotate(0 27.759986877441406 25)"><text x="27.759986877441406" y="0" font-family="Virgil, Segoe UI Emoji" font-size="20px" fill="#364fc7" text-anchor="middle" style="white-space: pre;" direction="ltr" dominant-baseline="text-before-edge">WASM</text><text x="27.759986877441406" y="25" font-family="Virgil, Segoe UI Emoji" font-size="20px" fill="#364fc7" text-anchor="middle" style="white-space: pre;" direction="ltr" dominant-baseline="text-before-edge">app</text></g><g stroke-linecap="round" transform="translate(10 14.6666259765625) rotate(0 32.5 82.5)"><path d="M16.25 0 M16.25 0 C24.15 0.99, 35.7 -0.62, 48.75 0 M16.25 0 C23.92 -0.4, 32.16 0.9, 48.75 0 M48.75 0 C61.16 1.08, 65.06 4.78, 65 16.25 M48.75 0 C58.28 -2.12, 63.61 7.54, 65 16.25 M65 16.25 C65.47 66.59, 62.84 118.77, 65 148.75 M65 16.25 C65.46 58.24, 65.53 99.43, 65 148.75 M65 148.75 C63.53 158.74, 58.43 165.15, 48.75 165 M65 148.75 C63.38 160.58, 61.6 165.36, 48.75 165 M48.75 165 C38.9 162.93, 31.51 163.68, 16.25 165 M48.75 165 C35.5 165.73, 22.93 164.83, 16.25 165 M16.25 165 C6.3 165.43, 0.35 157.6, 0 148.75 M16.25 165 C6.84 166.81, 2.17 159.13, 0 148.75 M0 148.75 C-0.02 106.28, 1.41 61.61, 0 16.25 M0 148.75 C-1.29 106.18, -0.6 63.65, 0 16.25 M0 16.25 C-1.72 4.33, 3.43 -1.52, 16.25 0 M0 16.25 C-1.8 6.5, 4.66 -0.98, 16.25 0" stroke="#c92a2a" stroke-width="1" fill="none"></path></g><g transform="translate(20.370025634765625 84.6666259765625) rotate(0 22.129974365234375 12.5)"><text x="22.129974365234375" y="0" font-family="Virgil, Segoe UI Emoji" font-size="20px" fill="#c92a2a" text-anchor="middle" style="white-space: pre;" direction="ltr" dominant-baseline="text-before-edge">Host</text></g><g stroke-linecap="round"><g transform="translate(80 69.88072379392355) rotate(0 102.18026166926603 2.8510925669193625)"><path d="M-0.12 1.03 C34.26 1.65, 171.59 3.13, 206.01 3.87 M-1.65 0.53 C32.58 1.29, 170.35 4.64, 204.89 5.17" stroke="#c92a2a" stroke-width="1" fill="none"></path></g><g transform="translate(80 69.88072379392355) rotate(0 102.18026166926603 2.8510925669193625)"><path d="M178.21 14.31 C183.54 12.26, 194.04 8.45, 205.44 4.26 M176.18 15.14 C184.14 13.32, 192.04 9.44, 205.64 6.08" stroke="#c92a2a" stroke-width="1" fill="none"></path></g><g transform="translate(80 69.88072379392355) rotate(0 102.18026166926603 2.8510925669193625)"><path d="M178.63 -6.2 C183.88 -2.61, 194.26 -0.77, 205.44 4.26 M176.6 -5.38 C184.36 -1.31, 192.14 0.7, 205.64 6.08" stroke="#c92a2a" stroke-width="1" fill="none"></path></g></g><mask></mask><g stroke-linecap="round"><g transform="translate(360.0000305175781 75.3346008753058) rotate(0 92.09481450657825 -0.19861507348360874)"><path d="M-0.22 0.69 C30.63 0.74, 154.83 0.78, 185.98 0.67 M-1.79 0.01 C28.82 -0.32, 153.67 -1.33, 185.02 -1.1" stroke="#c92a2a" stroke-width="1" fill="none"></path></g><g transform="translate(360.0000305175781 75.3346008753058) rotate(0 92.09481450657825 -0.19861507348360874)"><path d="M158 9.17 C168.52 6.56, 178.08 2.92, 186.8 -1.03 M157.02 9.49 C162.81 7.34, 168.02 5.1, 184.48 -1.63" stroke="#c92a2a" stroke-width="1" fill="none"></path></g><g transform="translate(360.0000305175781 75.3346008753058) rotate(0 92.09481450657825 -0.19861507348360874)"><path d="M157.96 -11.35 C168.56 -6.25, 178.13 -2.19, 186.8 -1.03 M156.99 -11.03 C162.77 -8.95, 167.99 -6.96, 184.48 -1.63" stroke="#c92a2a" stroke-width="1" fill="none"></path></g></g><mask></mask><g stroke-linecap="round"><g transform="translate(545.0000915527344 144.77834501318438) rotate(0 -92.29541711274999 0.6037303251194146)"><path d="M0.82 -0.28 C-29.91 0.35, -153.55 2.33, -184.65 2.68 M-0.2 -1.48 C-31.04 -1.06, -154.9 0.34, -185.41 1.13" stroke="#364fc7" stroke-width="1" fill="none"></path></g><g transform="translate(545.0000915527344 144.77834501318438) rotate(0 -92.29541711274999 0.6037303251194146)"><path d="M-157.88 -9.04 C-163.45 -7.74, -172.65 -2, -183.47 1.79 M-156.87 -9.09 C-166.27 -5.37, -176.8 -1.66, -185.1 0.74" stroke="#364fc7" stroke-width="1" fill="none"></path></g><g transform="translate(545.0000915527344 144.77834501318438) rotate(0 -92.29541711274999 0.6037303251194146)"><path d="M-157.52 11.48 C-163 7.09, -172.3 7.15, -183.47 1.79 M-156.51 11.43 C-166.04 8.25, -176.68 5.07, -185.1 0.74" stroke="#364fc7" stroke-width="1" fill="none"></path></g></g><mask></mask><g stroke-linecap="round"><g transform="translate(284.0000305175781 142.8520942205795) rotate(0 -104.51715663895013 0.2672928188956689)"><path d="M-0.07 -0.78 C-35.07 -1.02, -174.26 -0.8, -208.96 -0.85 M-1.57 1.43 C-36.3 1.31, -172.16 0.78, -206.76 0.54" stroke="#364fc7" stroke-width="1" fill="none"></path></g><g transform="translate(284.0000305175781 142.8520942205795) rotate(0 -104.51715663895013 0.2672928188956689)"><path d="M-179.81 -11.18 C-189.91 -6.11, -201.26 -1.38, -204.86 1.2 M-179.33 -10.54 C-185.68 -7, -190.89 -5.19, -207.3 -0.17" stroke="#364fc7" stroke-width="1" fill="none"></path></g><g transform="translate(284.0000305175781 142.8520942205795) rotate(0 -104.51715663895013 0.2672928188956689)"><path d="M-179.92 9.34 C-190.08 6.44, -201.39 3.19, -204.86 1.2 M-179.44 9.98 C-185.69 8.7, -190.88 5.7, -207.3 -0.17" stroke="#364fc7" stroke-width="1" fill="none"></path></g></g><mask></mask><g transform="translate(404.0000915527344 146.49996948242188) rotate(0 56.4959716796875 10)"><text x="0" y="0" font-family="Virgil, Segoe UI Emoji" font-size="16px" fill="#364fc7" text-anchor="start" style="white-space: pre;" direction="ltr" dominant-baseline="text-before-edge">call native api</text></g><g transform="translate(394.6667785644531 116.66668701171875) rotate(0 66.1439437866211 10)"><text x="0" y="0" font-family="Virgil, Segoe UI Emoji" font-size="16px" fill="#364fc7" text-anchor="start" style="white-space: pre;" direction="ltr" dominant-baseline="text-before-edge">pass parameters</text></g><g transform="translate(92.00003051757812 101.66659545898438) rotate(0 91.20793151855469 10)"><text x="0" y="0" font-family="Virgil, Segoe UI Emoji" font-size="16px" fill="#364fc7" text-anchor="start" style="white-space: pre;" direction="ltr" dominant-baseline="text-before-edge">parameters from WASM</text></g><g transform="translate(112.00003051757812 45.999969482421875) rotate(0 66.1439437866211 10)"><text x="0" y="0" font-family="Virgil, Segoe UI Emoji" font-size="16px" fill="#c92a2a" text-anchor="start" style="white-space: pre;" direction="ltr" dominant-baseline="text-before-edge">pass parameters</text></g><g transform="translate(92.83737182617188 74.33331298828125) rotate(0 71.79995727539062 10)"><text x="0" y="0" font-family="Virgil, Segoe UI Emoji" font-size="16px" fill="#c92a2a" text-anchor="start" style="white-space: pre;" direction="ltr" dominant-baseline="text-before-edge">call wasm function</text></g><g transform="translate(360.79209899902344 38.6666259765625) rotate(0 94.31993103027344 10)"><text x="0" y="0" font-family="Virgil, Segoe UI Emoji" font-size="16px" fill="#c92a2a" text-anchor="start" style="white-space: pre;" direction="ltr" dominant-baseline="text-before-edge">parameters from Native</text></g></svg>