<svg version="1.1" xmlns="http://www.w3.org/2000/svg" viewBox="0 0 789.3015669565352 280.3566093717222" width="789.3015669565352" height="280.3566093717222">
  <!-- svg-source:excalidraw -->
  
  <defs>
    <style class="style-fonts">
      @font-face {
        font-family: "Virgil";
        src: url("https://excalidraw.com/Virgil.woff2");
      }
      @font-face {
        font-family: "Cascadia";
        src: url("https://excalidraw.com/Cascadia.woff2");
      }
    </style>
  </defs>
  <rect x="0" y="0" width="789.3015669565352" height="280.3566093717222" fill="#ffffff"></rect><g stroke-linecap="round" transform="translate(10 50.61056745316415) rotate(0 105 35)"><path d="M17.5 0 M17.5 0 C69.6 -2.98, 120.52 -0.25, 192.5 0 M17.5 0 C59.9 -0.51, 100.98 -0.6, 192.5 0 M192.5 0 C205.15 -0.3, 210.19 6.77, 210 17.5 M192.5 0 C205.84 -1.46, 212.18 4.17, 210 17.5 M210 17.5 C209.4 24.18, 209.05 33.32, 210 52.5 M210 17.5 C210.55 31.89, 210.6 44.1, 210 52.5 M210 52.5 C210.46 62.68, 203.34 70.58, 192.5 70 M210 52.5 C209.31 63.33, 203.81 71.87, 192.5 70 M192.5 70 C133.05 71.34, 73.13 69.66, 17.5 70 M192.5 70 C134.96 70.02, 76.12 69.48, 17.5 70 M17.5 70 C7.54 70.37, -1 64.2, 0 52.5 M17.5 70 C4.76 69.52, -0.11 66.04, 0 52.5 M0 52.5 C0.81 41.94, -1.17 31.84, 0 17.5 M0 52.5 C0.08 39.79, 0.18 28.79, 0 17.5 M0 17.5 C0.18 4.95, 6.88 -1.79, 17.5 0 M0 17.5 C2.04 7.73, 7.88 1.84, 17.5 0" stroke="#000000" stroke-width="1" fill="none"></path></g><g transform="translate(21.25 61.61056745316415) rotate(0 93.75 24)"><text x="93.75" y="0" font-family="Cascadia, Segoe UI Emoji" font-size="20px" fill="#000000" text-anchor="middle" style="white-space: pre;" direction="ltr" dominant-baseline="text-before-edge">Host</text><text x="93.75" y="24" font-family="Cascadia, Segoe UI Emoji" font-size="20px" fill="#000000" text-anchor="middle" style="white-space: pre;" direction="ltr" dominant-baseline="text-before-edge">(Native Context)</text></g><g stroke-linecap="round" transform="translate(301.8571428571429 51.46771031030704) rotate(0 97 31)"><path d="M15.5 0 M15.5 0 C71.23 0.55, 123.71 2.11, 178.5 0 M15.5 0 C49.79 0.71, 86.87 0.87, 178.5 0 M178.5 0 C188 0.52, 194.16 6.63, 194 15.5 M178.5 0 C187.8 -0.77, 194.69 5.25, 194 15.5 M194 15.5 C193.34 26.57, 195.51 40.48, 194 46.5 M194 15.5 C194.91 26.61, 194.36 39.45, 194 46.5 M194 46.5 C195.75 55.22, 190.38 61.61, 178.5 62 M194 46.5 C195.44 56.05, 187.57 63.21, 178.5 62 M178.5 62 C139.03 62.29, 97.27 64.53, 15.5 62 M178.5 62 C136.4 61.69, 93.75 62.11, 15.5 62 M15.5 62 C5.05 61.77, 1.06 55.38, 0 46.5 M15.5 62 C7.34 62.66, -0.13 57.93, 0 46.5 M0 46.5 C-1.29 36.31, 1.64 23.48, 0 15.5 M0 46.5 C-0.69 40.62, 0.35 32.95, 0 15.5 M0 15.5 C-0.5 5.2, 3.71 -1.31, 15.5 0 M0 15.5 C0.96 3.51, 6.67 0.34, 15.5 0" stroke="#000000" stroke-width="1" fill="none"></path></g><g transform="translate(316.8258928571429 58.46771031030704) rotate(0 82.03125 24)"><text x="82.03125" y="0" font-family="Cascadia, Segoe UI Emoji" font-size="20px" fill="#000000" text-anchor="middle" style="white-space: pre;" direction="ltr" dominant-baseline="text-before-edge">WASM app</text><text x="82.03125" y="24" font-family="Cascadia, Segoe UI Emoji" font-size="20px" fill="#000000" text-anchor="middle" style="white-space: pre;" direction="ltr" dominant-baseline="text-before-edge">(WASM Context)</text></g><g stroke-linecap="round" transform="translate(315.8571428571429 152.46771031030704) rotate(0 92.5 26)"><path d="M13 0 M13 0 C61.86 -2.55, 111.68 -2.77, 172 0 M13 0 C52.96 0.24, 92.6 0.45, 172 0 M172 0 C181.05 1.49, 183.25 5.92, 185 13 M172 0 C180.3 0.2, 187.18 5.03, 185 13 M185 13 C186.73 17.18, 185.7 25.01, 185 39 M185 13 C185.08 23.53, 185.45 34.36, 185 39 M185 39 C185.07 47.51, 181.45 53.24, 172 52 M185 39 C187.16 49.78, 178.4 50.32, 172 52 M172 52 C137.75 50.13, 103.53 53.54, 13 52 M172 52 C117.99 51.39, 63.12 51.83, 13 52 M13 52 C6.15 52.91, -0.44 46.92, 0 39 M13 52 C4.71 52.79, -2.03 49.6, 0 39 M0 39 C1.78 32.21, 1.21 24.66, 0 13 M0 39 C-0.39 29.95, -0.72 21.52, 0 13 M0 13 C-0.57 2.47, 2.67 -1.85, 13 0 M0 13 C-1.48 2.4, 4.48 0.8, 13 0" stroke="#000000" stroke-width="1" fill="none"></path></g><g transform="translate(332.1852678571429 166.46771031030704) rotate(0 76.171875 12)"><text x="76.171875" y="0" font-family="Cascadia, Segoe UI Emoji" font-size="20px" fill="#000000" text-anchor="middle" style="white-space: pre;" direction="ltr" dominant-baseline="text-before-edge">Linear Memory</text></g><g stroke-linecap="round"><g transform="translate(399.8571428571429 115.46771031030704) rotate(0 1.048316776752472 18.89992793600541)"><path d="M-0.67 0.85 C-0.35 6.94, 2.41 31.67, 2.77 37.55 M1.18 0.25 C1.34 6.5, 2.34 29.6, 2.22 35.71" stroke="#000000" stroke-width="1" fill="none"></path></g><g transform="translate(399.8571428571429 115.46771031030704) rotate(0 1.048316776752472 18.89992793600541)"><path d="M-3.07 19.59 C-0.96 24.05, -0.78 31.07, 1.04 36.9 M-4.47 17.67 C-2.9 22.24, -1.37 26.13, 2.84 34.99" stroke="#000000" stroke-width="1" fill="none"></path></g><g transform="translate(399.8571428571429 115.46771031030704) rotate(0 1.048316776752472 18.89992793600541)"><path d="M9.6 19.39 C7.04 23.86, 2.54 30.94, 1.04 36.9 M8.2 17.47 C6.87 22.17, 5.5 26.1, 2.84 34.99" stroke="#000000" stroke-width="1" fill="none"></path></g></g><mask></mask><g stroke-linecap="round" transform="translate(553.3571428571429 54.30104364364041) rotate(0 97 31)"><path d="M15.5 0 M15.5 0 C53.6 2.28, 95.24 -0.24, 178.5 0 M15.5 0 C71.29 -0.61, 126.69 -0.63, 178.5 0 M178.5 0 C186.95 -0.04, 192.52 3.2, 194 15.5 M178.5 0 C189.06 -0.31, 195.45 5.01, 194 15.5 M194 15.5 C194.11 25.7, 195.47 35.18, 194 46.5 M194 15.5 C193.45 24.28, 194.16 34, 194 46.5 M194 46.5 C192.96 56.66, 187.42 63.51, 178.5 62 M194 46.5 C192.22 55.5, 186.78 59.76, 178.5 62 M178.5 62 C126.36 63.5, 75.01 63.27, 15.5 62 M178.5 62 C132.97 61.8, 87.88 60.49, 15.5 62 M15.5 62 C4.65 61.58, -1.26 56.96, 0 46.5 M15.5 62 C5.6 62.18, -0.44 56.07, 0 46.5 M0 46.5 C-0.52 38.15, -0.69 25.96, 0 15.5 M0 46.5 C-0.12 38.06, -0.82 27.87, 0 15.5 M0 15.5 C1.4 3.9, 6.92 1.34, 15.5 0 M0 15.5 C-0.22 6.4, 5.58 1.2, 15.5 0" stroke="#000000" stroke-width="1" fill="none"></path></g><g transform="translate(568.3258928571429 61.30104364364041) rotate(0 82.03125 24)"><text x="82.03125" y="0" font-family="Cascadia, Segoe UI Emoji" font-size="20px" fill="#000000" text-anchor="middle" style="white-space: pre;" direction="ltr" dominant-baseline="text-before-edge">WASM app</text><text x="82.03125" y="24" font-family="Cascadia, Segoe UI Emoji" font-size="20px" fill="#000000" text-anchor="middle" style="white-space: pre;" direction="ltr" dominant-baseline="text-before-edge">(WASM Context)</text></g><g stroke-linecap="round" transform="translate(567.3571428571429 155.3010436436404) rotate(0 92.5 26)"><path d="M13 0 M13 0 C56.34 -2.14, 100.93 -1.58, 172 0 M13 0 C61.87 0.27, 110.22 0.73, 172 0 M172 0 C179.18 -1.96, 185.2 4.07, 185 13 M172 0 C182.12 -0.16, 185.58 3.8, 185 13 M185 13 C186.57 19.54, 184.69 26.17, 185 39 M185 13 C185.19 22.93, 184.37 30.92, 185 39 M185 39 C183.59 49.17, 179.12 50.84, 172 52 M185 39 C182.95 45.43, 180.93 53.96, 172 52 M172 52 C126.04 55.13, 83.4 53.44, 13 52 M172 52 C133.82 52.96, 97.33 53.18, 13 52 M13 52 C3.08 52.13, 0.38 47.83, 0 39 M13 52 C3.89 51.24, 0.42 47.28, 0 39 M0 39 C-0.67 28.78, 0.15 21.1, 0 13 M0 39 C-0.69 29.95, 0.69 19.84, 0 13 M0 13 C1.76 5.68, 4.15 1.08, 13 0 M0 13 C0.41 5.53, 3.03 0.77, 13 0" stroke="#000000" stroke-width="1" fill="none"></path></g><g transform="translate(583.6852678571429 169.3010436436404) rotate(0 76.171875 12)"><text x="76.171875" y="0" font-family="Cascadia, Segoe UI Emoji" font-size="20px" fill="#000000" text-anchor="middle" style="white-space: pre;" direction="ltr" dominant-baseline="text-before-edge">Linear Memory</text></g><g stroke-linecap="round"><g transform="translate(651.3571428571429 118.30104364364041) rotate(0 0.7691347241401445 19.206870832210413)"><path d="M-0.4 0.5 C-0.26 6.7, 1.52 31.12, 1.94 37.1 M1.59 -0.28 C1.47 6.15, 0.98 32.41, 0.95 38.7" stroke="#000000" stroke-width="1" fill="none"></path></g><g transform="translate(651.3571428571429 118.30104364364041) rotate(0 0.7691347241401445 19.206870832210413)"><path d="M-4.39 21.11 C-2.61 28.28, -1.25 34.59, 0.06 36.95 M-5.07 21.08 C-2.88 26.42, -1.41 31.48, 0.68 38.78" stroke="#000000" stroke-width="1" fill="none"></path></g><g transform="translate(651.3571428571429 118.30104364364041) rotate(0 0.7691347241401445 19.206870832210413)"><path d="M8.29 21.27 C5.08 28.33, 1.47 34.58, 0.06 36.95 M7.61 21.25 C6.01 26.41, 3.71 31.42, 0.68 38.78" stroke="#000000" stroke-width="1" fill="none"></path></g></g><mask></mask><g stroke-linecap="round" transform="translate(304.8571225120909 129.245498260611) rotate(0 237.22222222222217 70.5555555555556)"><path d="M32 0 M32 0 C151.96 -1.77, 271.71 -1.77, 442.44 0 M32 0 C157.72 -1.63, 284.09 -1.58, 442.44 0 M442.44 0 C463.22 0.53, 474.78 10.19, 474.44 32 M442.44 0 C464.96 -1.8, 473.29 9.16, 474.44 32 M474.44 32 C472.99 58.42, 474.98 80.78, 474.44 109.11 M474.44 32 C473.98 57.79, 475.02 83.59, 474.44 109.11 M474.44 109.11 C475.59 130.2, 462.38 143.06, 442.44 141.11 M474.44 109.11 C474.38 131.56, 464.01 143.02, 442.44 141.11 M442.44 141.11 C296.08 142.99, 150.23 141.94, 32 141.11 M442.44 141.11 C330.45 139.61, 218.35 139.32, 32 141.11 M32 141.11 C9.8 139.68, 1.94 131.31, 0 109.11 M32 141.11 C10.54 141.89, -0.47 130.8, 0 109.11 M0 109.11 C1.66 86.24, -0.3 62.33, 0 32 M0 109.11 C-0.39 92.89, 0.89 77.9, 0 32 M0 32 C-0.74 9.02, 11.92 1.56, 32 0 M0 32 C-1.33 11.59, 10.88 2.09, 32 0" stroke="#000000" stroke-width="1" fill="none"></path></g><g transform="translate(483.48559473431305 241.3566093717222) rotate(0 58.59375 12)"><text x="58.59375" y="0" font-family="Cascadia, Segoe UI Emoji" font-size="20px" fill="#000000" text-anchor="middle" style="white-space: pre;" direction="ltr" dominant-baseline="text-before-edge">WASM world</text></g><g stroke-linecap="round" transform="translate(14.285714285714107 155.97564681824377) rotate(0 106.5 56.5)"><path d="M28.25 0 M28.25 0 C59.49 -1.27, 93.24 -0.33, 184.75 0 M28.25 0 C69.08 -1.09, 109.14 -1.49, 184.75 0 M184.75 0 C201.88 -1.78, 214.85 8.86, 213 28.25 M184.75 0 C202.4 1.91, 211.08 9.19, 213 28.25 M213 28.25 C211.82 41.56, 212.1 54.87, 213 84.75 M213 28.25 C212.07 51.32, 212.23 74.4, 213 84.75 M213 84.75 C211.57 102.56, 201.8 112.08, 184.75 113 M213 84.75 C213.08 101.37, 203.87 111.22, 184.75 113 M184.75 113 C142.84 113.29, 102.49 112.18, 28.25 113 M184.75 113 C127.47 112.33, 71.15 112.9, 28.25 113 M28.25 113 C7.82 112.2, 0.27 104.49, 0 84.75 M28.25 113 C10.34 113.68, 1.79 101.61, 0 84.75 M0 84.75 C-0.9 71.68, -0.05 60.68, 0 28.25 M0 84.75 C0.27 73.09, 0.27 60.97, 0 28.25 M0 28.25 C0.91 9.48, 8.49 1.15, 28.25 0 M0 28.25 C-2.11 7.66, 8.48 -0.42, 28.25 0" stroke="#000000" stroke-width="1" fill="none"></path></g><g transform="translate(27.035714285714107 200.47564681824377) rotate(0 93.75 12)"><text x="93.75" y="0" font-family="Cascadia, Segoe UI Emoji" font-size="20px" fill="#000000" text-anchor="middle" style="white-space: pre;" direction="ltr" dominant-baseline="text-before-edge">The Native World</text></g><g stroke-linecap="round"><g transform="translate(117.06349206349216 123.95183729443437) rotate(0 0.05009504661961728 15.93713383163724)"><path d="M0.98 -0.71 C0.89 4.62, 0.02 27.42, -0.45 32.58 M0.03 1.54 C-0.13 6.5, -0.41 26.16, -0.88 31.06" stroke="#000000" stroke-width="1" fill="none"></path></g><g transform="translate(117.06349206349216 123.95183729443437) rotate(0 0.05009504661961728 15.93713383163724)"><path d="M-6.45 17.32 C-2.52 20.1, -4.14 24.21, 0.05 29.77 M-6.25 16.54 C-4.02 22.03, -1.31 28.17, -1.13 30.36" stroke="#000000" stroke-width="1" fill="none"></path></g><g transform="translate(117.06349206349216 123.95183729443437) rotate(0 0.05009504661961728 15.93713383163724)"><path d="M4.29 17.85 C4.94 20.55, 0.02 24.5, 0.05 29.77 M4.5 17.07 C2.61 22.36, 1.22 28.3, -1.13 30.36" stroke="#000000" stroke-width="1" fill="none"></path></g></g><mask></mask><g stroke-linecap="round"><g transform="translate(222.77777777777783 95.38040872300581) rotate(0 39.823327679303475 55.79891045547092)"><path d="M0.96 0.54 C14.07 18.85, 66.49 91.76, 79.64 110.19 M0.01 -0.23 C12.84 18.29, 65.33 93.56, 78.51 111.83" stroke="#000000" stroke-width="1" fill="none"></path></g><g transform="translate(222.77777777777783 95.38040872300581) rotate(0 39.823327679303475 55.79891045547092)"><path d="M54.74 94.14 C63.6 100.87, 74.53 105.89, 79.42 110.92 M53.6 94.88 C60.87 99.37, 66.96 104.41, 77.88 111.27" stroke="#000000" stroke-width="1" fill="none"></path></g><g transform="translate(222.77777777777783 95.38040872300581) rotate(0 39.823327679303475 55.79891045547092)"><path d="M71.5 82.29 C74 93.67, 78.54 103.21, 79.42 110.92 M70.36 83.03 C73.28 90.55, 74.96 98.7, 77.88 111.27" stroke="#000000" stroke-width="1" fill="none"></path></g></g><mask></mask><g transform="translate(100.57182062053425 10) rotate(0 0.00004999999998744897 0.00005000000000165983)" stroke="none"><path fill="#2b8a3e" d="M 1.57,-1.57 Q 1.57,-1.57 1.77,-1.27 1.98,-0.98 2.09,-0.64 2.20,-0.29 2.19,0.05 2.18,0.41 2.05,0.75 1.93,1.09 1.70,1.37 1.48,1.65 1.18,1.84 0.87,2.04 0.52,2.12 0.18,2.21 -0.17,2.18 -0.53,2.15 -0.86,2.01 -1.19,1.87 -1.46,1.63 -1.73,1.39 -1.90,1.07 -2.08,0.76 -2.15,0.41 -2.21,0.05 -2.17,-0.29 -2.12,-0.65 -1.96,-0.97 -1.80,-1.29 -1.54,-1.54 -1.29,-1.80 -0.97,-1.96 -0.65,-2.12 -0.29,-2.17 0.06,-2.21 0.41,-2.15 0.76,-2.08 1.07,-1.90 1.39,-1.73 1.63,-1.46 1.87,-1.19 2.01,-0.86 2.15,-0.53 2.18,-0.17 2.21,0.18 2.12,0.52 2.03,0.87 1.84,1.18 1.65,1.48 1.37,1.70 1.09,1.93 0.75,2.05 0.41,2.18 0.05,2.19 -0.30,2.20 -0.64,2.09 -0.98,1.98 -1.27,1.77 -1.57,1.56 -1.57,1.57 -1.57,1.57 -1.73,1.35 -1.90,1.14 -2.01,0.90 -2.12,0.66 -2.16,0.39 -2.21,0.13 -2.20,-0.13 -2.18,-0.40 -2.10,-0.65 -2.02,-0.91 -1.88,-1.14 -1.74,-1.36 -1.55,-1.55 -1.36,-1.74 -1.14,-1.88 -0.91,-2.02 -0.65,-2.10 -0.40,-2.18 -0.13,-2.20 0.13,-2.21 0.39,-2.16 0.66,-2.12 0.90,-2.01 1.14,-1.90 1.35,-1.73 1.57,-1.57 1.57,-1.57 L 1.57,-1.57 Z"></path></g><g transform="translate(129.23847711467488 135.33334350585938) rotate(0 18.333343505859375 6)" stroke="none"><path fill="#2b8a3e" d="M 2.39,-1.02 Q 2.39,-1.02 2.95,0.31 3.51,1.66 3.99,2.85 4.46,4.04 5.12,6.32 5.78,8.60 6.52,10.23 7.25,11.87 8.54,10.61 9.82,9.35 11.12,8.76 12.41,8.18 13.77,7.32 15.13,6.47 16.06,5.81 17.00,5.16 19.02,4.49 21.04,3.83 22.52,2.95 24.00,2.08 25.53,1.24 27.07,0.39 28.10,-0.10 29.13,-0.61 29.91,-1.43 30.69,-2.25 32.54,-3.77 34.38,-5.29 34.86,-5.58 35.34,-5.88 35.89,-6.00 36.44,-6.13 37.00,-6.08 37.56,-6.02 38.07,-5.79 38.58,-5.56 39.00,-5.18 39.41,-4.79 39.68,-4.30 39.94,-3.81 40.04,-3.25 40.14,-2.70 40.05,-2.14 39.97,-1.59 39.71,-1.09 39.45,-0.59 39.05,-0.19 38.64,0.19 38.13,0.43 37.63,0.67 37.07,0.74 36.51,0.80 35.96,0.69 35.41,0.57 34.92,0.29 34.44,0.00 34.07,-0.41 33.70,-0.84 33.49,-1.36 33.27,-1.88 33.24,-2.44 33.20,-3.00 33.35,-3.55 33.49,-4.09 33.80,-4.56 34.11,-5.03 34.56,-5.37 35.00,-5.72 35.53,-5.90 36.06,-6.09 36.63,-6.09 37.19,-6.10 37.72,-5.92 38.26,-5.75 38.71,-5.41 39.16,-5.08 39.48,-4.62 39.80,-4.15 39.96,-3.61 40.11,-3.07 40.09,-2.51 40.06,-1.95 39.86,-1.42 39.66,-0.90 39.30,-0.47 38.94,-0.03 38.94,-0.03 38.94,-0.04 37.79,0.41 36.64,0.86 35.57,1.91 34.50,2.96 33.52,4.11 32.53,5.26 30.66,5.94 28.79,6.61 27.64,7.20 26.50,7.78 25.65,8.43 24.79,9.08 22.91,9.43 21.03,9.78 19.83,10.48 18.63,11.18 16.72,12.29 14.82,13.39 13.79,13.88 12.77,14.36 11.40,15.25 10.04,16.15 8.30,16.85 6.57,17.56 4.59,16.71 2.61,15.86 2.15,14.69 1.69,13.52 1.32,12.52 0.96,11.52 0.68,10.44 0.41,9.37 -0.00,7.63 -0.41,5.90 -0.81,4.80 -1.21,3.69 -1.80,2.36 -2.39,1.02 -2.48,0.72 -2.57,0.42 -2.58,0.10 -2.60,-0.20 -2.54,-0.51 -2.47,-0.82 -2.34,-1.10 -2.20,-1.39 -2.01,-1.63 -1.81,-1.87 -1.56,-2.06 -1.30,-2.25 -1.02,-2.38 -0.73,-2.50 -0.42,-2.55 -0.11,-2.60 0.20,-2.58 0.51,-2.55 0.81,-2.45 1.11,-2.36 1.38,-2.19 1.64,-2.02 1.86,-1.79 2.08,-1.57 2.24,-1.30 2.39,-1.02 2.39,-1.02 L 2.39,-1.02 Z"></path></g><g transform="translate(235.238507632253 98.00003051757812) rotate(0 15 1.3333282470703125)" stroke="none"><path fill="#2b8a3e" d="M 1.14,-2.29 Q 1.14,-2.29 1.95,-1.93 2.75,-1.57 4.00,-0.39 5.24,0.78 5.95,1.67 6.67,2.57 7.40,4.08 8.14,5.59 8.74,6.62 9.35,7.66 10.02,8.96 10.69,10.26 11.10,11.39 11.51,12.52 11.75,13.88 11.99,15.24 12.28,15.64 12.58,16.03 12.56,16.38 12.55,16.73 12.45,17.07 12.35,17.41 12.18,17.71 12.00,18.01 11.76,18.26 11.52,18.52 11.22,18.70 10.92,18.89 10.59,19.00 10.26,19.11 9.91,19.14 9.56,19.17 9.22,19.11 8.87,19.06 8.55,18.92 8.23,18.78 7.95,18.57 7.67,18.36 7.45,18.09 7.22,17.82 7.07,17.50 6.92,17.18 6.85,16.84 6.78,16.50 7.68,14.90 8.57,13.29 9.29,11.77 10.01,10.26 11.14,8.89 12.26,7.52 13.21,6.60 14.16,5.68 15.04,4.00 15.91,2.32 16.76,1.33 17.60,0.34 18.22,-0.75 18.83,-1.85 19.57,-3.12 20.31,-4.40 20.83,-5.48 21.35,-6.56 22.30,-7.51 23.24,-8.46 23.66,-9.71 24.08,-10.96 24.62,-11.93 25.16,-12.90 26.24,-14.44 27.33,-15.98 27.72,-16.36 28.10,-16.73 28.59,-16.96 29.08,-17.19 29.61,-17.25 30.15,-17.32 30.67,-17.21 31.20,-17.10 31.66,-16.82 32.12,-16.55 32.48,-16.14 32.83,-15.73 33.03,-15.24 33.24,-14.74 33.27,-14.20 33.30,-13.67 33.16,-13.15 33.03,-12.63 32.73,-12.18 32.43,-11.73 32.00,-11.40 31.58,-11.07 31.07,-10.89 30.56,-10.72 30.02,-10.71 29.49,-10.71 28.97,-10.88 28.46,-11.04 28.03,-11.36 27.60,-11.69 27.30,-12.13 26.99,-12.57 26.84,-13.09 26.69,-13.61 26.72,-14.14 26.74,-14.68 26.94,-15.18 27.13,-15.68 27.48,-16.10 27.82,-16.51 28.28,-16.79 28.74,-17.07 29.26,-17.19 29.79,-17.31 30.32,-17.26 30.86,-17.21 31.35,-16.99 31.84,-16.76 32.23,-16.40 32.62,-16.03 32.88,-15.56 33.14,-15.08 33.23,-14.55 33.32,-14.02 33.24,-13.49 33.16,-12.96 32.91,-12.48 32.66,-12.01 32.66,-12.01 32.66,-12.01 31.93,-11.11 31.20,-10.21 30.27,-8.69 29.34,-7.16 28.52,-5.53 27.71,-3.90 26.87,-3.11 26.04,-2.32 25.42,-1.28 24.81,-0.24 23.94,1.21 23.07,2.67 22.00,3.86 20.94,5.06 20.32,6.26 19.70,7.47 18.27,9.22 16.83,10.98 16.00,12.22 15.17,13.46 13.87,14.74 12.58,16.03 12.56,16.38 12.55,16.73 12.45,17.07 12.35,17.41 12.18,17.71 12.00,18.01 11.76,18.26 11.52,18.52 11.22,18.70 10.92,18.89 10.59,19.00 10.26,19.11 9.91,19.14 9.56,19.17 9.22,19.11 8.87,19.06 8.55,18.92 8.23,18.78 7.95,18.57 7.67,18.36 7.45,18.09 7.22,17.82 7.07,17.50 6.92,17.19 6.85,16.84 6.78,16.50 6.60,15.76 6.42,15.03 6.22,13.88 6.01,12.72 5.37,11.53 4.72,10.34 4.03,9.13 3.33,7.93 2.81,6.86 2.29,5.78 1.30,4.44 0.30,3.10 -0.41,2.70 -1.14,2.29 -1.40,2.12 -1.66,1.95 -1.87,1.72 -2.08,1.49 -2.23,1.22 -2.38,0.95 -2.45,0.65 -2.53,0.35 -2.54,0.05 -2.55,-0.25 -2.48,-0.56 -2.41,-0.86 -2.27,-1.13 -2.13,-1.41 -1.93,-1.65 -1.73,-1.88 -1.48,-2.06 -1.23,-2.24 -0.94,-2.36 -0.66,-2.47 -0.35,-2.52 -0.05,-2.56 0.25,-2.53 0.56,-2.50 0.85,-2.39 1.14,-2.29 1.14,-2.29 L 1.14,-2.29 Z"></path></g><g transform="translate(413.90516412639363 136) rotate(0 12 5.6666717529296875)" stroke="none"><path fill="#2b8a3e" d="M 1.65,-2.06 Q 1.65,-2.06 2.61,-1.31 3.58,-0.55 4.52,0.11 5.46,0.77 6.33,1.68 7.21,2.58 7.76,3.91 8.31,5.24 9.03,6.57 9.75,7.90 10.49,9.04 11.23,10.17 9.93,10.16 8.62,10.14 9.10,8.81 9.58,7.47 10.33,5.87 11.08,4.26 12.15,2.57 13.22,0.88 14.16,-0.31 15.11,-1.51 16.43,-2.34 17.75,-3.17 19.05,-3.52 20.35,-3.87 20.79,-3.88 21.23,-3.89 21.61,-4.28 21.98,-4.67 22.46,-4.92 22.94,-5.18 23.48,-5.26 24.01,-5.34 24.55,-5.25 25.08,-5.16 25.56,-4.91 26.04,-4.65 26.41,-4.25 26.78,-3.86 27.00,-3.37 27.23,-2.87 27.28,-2.33 27.34,-1.79 27.22,-1.27 27.10,-0.74 26.82,-0.27 26.54,0.18 26.12,0.53 25.70,0.88 25.20,1.07 24.70,1.27 24.15,1.30 23.61,1.32 23.09,1.17 22.57,1.03 22.12,0.72 21.68,0.41 21.35,-0.01 21.03,-0.44 20.86,-0.96 20.69,-1.47 20.69,-2.01 20.69,-2.56 20.87,-3.07 21.04,-3.58 21.38,-4.01 21.71,-4.44 22.16,-4.74 22.61,-5.04 23.13,-5.19 23.65,-5.33 24.19,-5.29 24.74,-5.26 25.24,-5.06 25.74,-4.85 26.15,-4.50 26.56,-4.15 26.84,-3.68 27.11,-3.22 27.23,-2.69 27.34,-2.16 27.28,-1.62 27.22,-1.08 26.99,-0.59 26.76,-0.10 26.76,-0.10 26.76,-0.10 23.71,1.26 20.66,2.63 19.55,3.47 18.44,4.31 17.55,5.65 16.66,6.99 16.17,8.07 15.67,9.15 15.11,10.25 14.56,11.35 13.72,12.47 12.89,13.60 11.91,14.42 10.93,15.23 9.64,15.19 8.35,15.15 7.35,14.39 6.35,13.63 5.54,12.20 4.73,10.78 4.14,9.70 3.55,8.62 2.92,6.87 2.29,5.12 1.27,4.37 0.24,3.61 -0.70,2.84 -1.65,2.06 -1.87,1.84 -2.10,1.61 -2.26,1.33 -2.42,1.06 -2.51,0.75 -2.61,0.45 -2.62,0.13 -2.64,-0.18 -2.58,-0.50 -2.52,-0.81 -2.38,-1.10 -2.25,-1.39 -2.05,-1.64 -1.85,-1.89 -1.60,-2.08 -1.34,-2.28 -1.05,-2.40 -0.76,-2.53 -0.44,-2.59 -0.13,-2.64 0.18,-2.62 0.50,-2.60 0.80,-2.50 1.11,-2.40 1.38,-2.23 1.65,-2.06 1.65,-2.06 L 1.65,-2.06 Z"></path></g><g transform="translate(668.5717901029561 138) rotate(0 13.333343505859375 2.3333282470703125)" stroke="none"><path fill="#2b8a3e" d="M 2.35,-1.17 Q 2.35,-1.17 2.93,-0.03 3.51,1.11 4.21,1.98 4.91,2.84 6.02,3.89 7.12,4.93 7.63,6.08 8.15,7.23 6.88,7.70 5.61,8.18 6.43,6.84 7.25,5.51 8.29,4.71 9.32,3.92 10.37,2.91 11.42,1.89 12.26,1.01 13.09,0.12 14.09,-0.88 15.09,-1.89 16.27,-2.74 17.45,-3.58 18.54,-4.73 19.63,-5.87 21.23,-6.79 22.84,-7.71 23.75,-8.29 24.66,-8.87 25.17,-9.11 25.68,-9.35 26.24,-9.42 26.81,-9.49 27.36,-9.38 27.91,-9.26 28.40,-8.98 28.89,-8.69 29.26,-8.26 29.64,-7.84 29.85,-7.31 30.07,-6.79 30.11,-6.23 30.14,-5.66 30.00,-5.11 29.86,-4.57 29.54,-4.09 29.23,-3.62 28.79,-3.27 28.34,-2.93 27.81,-2.74 27.27,-2.55 26.71,-2.54 26.14,-2.54 25.60,-2.71 25.06,-2.88 24.61,-3.22 24.15,-3.56 23.83,-4.02 23.51,-4.49 23.35,-5.03 23.19,-5.57 23.21,-6.14 23.24,-6.70 23.44,-7.23 23.64,-7.76 24.00,-8.20 24.36,-8.63 24.84,-8.93 25.33,-9.23 25.88,-9.36 26.43,-9.49 26.99,-9.43 27.56,-9.38 28.07,-9.15 28.59,-8.91 29.00,-8.53 29.42,-8.15 29.69,-7.65 29.96,-7.15 30.06,-6.60 30.16,-6.04 30.08,-5.48 29.99,-4.92 29.73,-4.42 29.47,-3.91 29.07,-3.52 28.66,-3.12 28.66,-3.12 28.66,-3.12 26.15,-1.61 23.63,-0.09 22.60,0.84 21.58,1.79 20.31,2.73 19.05,3.68 18.03,4.41 17.01,5.13 15.89,6.49 14.76,7.84 13.54,8.87 12.32,9.90 11.35,10.75 10.39,11.60 9.30,12.28 8.22,12.96 6.41,13.03 4.60,13.10 3.91,12.18 3.22,11.26 2.87,9.92 2.52,8.58 1.58,7.48 0.63,6.39 -0.28,4.93 -1.21,3.48 -1.78,2.33 -2.35,1.17 -2.46,0.87 -2.56,0.57 -2.59,0.26 -2.63,-0.05 -2.58,-0.36 -2.54,-0.68 -2.42,-0.97 -2.30,-1.26 -2.12,-1.52 -1.93,-1.78 -1.69,-1.98 -1.45,-2.19 -1.16,-2.33 -0.88,-2.47 -0.57,-2.54 -0.26,-2.61 0.05,-2.61 0.36,-2.60 0.67,-2.52 0.98,-2.44 1.25,-2.28 1.53,-2.13 1.77,-1.92 2.00,-1.70 2.17,-1.44 2.35,-1.17 2.35,-1.17 L 2.35,-1.17 Z"></path></g><g stroke-linecap="round"><g transform="translate(300.5718511381124 106) rotate(0 -34.69080755971373 39.50240220126696)"><path d="M-0.04 0.66 C-11.73 13.64, -57.94 65.96, -69.34 79.05 M-1.53 -0.04 C-12.88 13.14, -55.72 64.56, -66.98 77.48" stroke="#d9480f" stroke-width="1" fill="none"></path></g><g transform="translate(300.5718511381124 106) rotate(0 -34.69080755971373 39.50240220126696)"><path d="M-55.44 48.23 C-58.32 59.95, -61.93 68.52, -67.48 75.59 M-56.99 49.63 C-59.83 56.26, -61.29 63.4, -66.18 77.69" stroke="#d9480f" stroke-width="1" fill="none"></path></g><g transform="translate(300.5718511381124 106) rotate(0 -34.69080755971373 39.50240220126696)"><path d="M-39.81 61.52 C-48.49 68.4, -57.79 72.14, -67.48 75.59 M-41.35 62.92 C-48.33 65.91, -53.91 69.55, -66.18 77.69" stroke="#d9480f" stroke-width="1" fill="none"></path></g></g><mask></mask><g transform="translate(289.2384771146749 126.66668701171875) rotate(0 7 8)" stroke="none"><path fill="#d9480f" d="M 0.98,-2.46 Q 0.98,-2.46 1.95,-2.11 2.92,-1.75 4.59,-0.67 6.25,0.40 7.03,1.55 7.81,2.69 8.72,3.98 9.63,5.26 10.72,6.35 11.82,7.44 13.19,9.04 14.57,10.65 15.20,11.84 15.83,13.04 16.44,13.89 17.04,14.75 17.16,15.27 17.28,15.79 17.23,16.32 17.18,16.85 16.96,17.33 16.74,17.82 16.37,18.21 16.01,18.60 15.54,18.85 15.07,19.11 14.55,19.20 14.02,19.29 13.50,19.21 12.97,19.13 12.50,18.88 12.03,18.63 11.66,18.25 11.29,17.87 11.06,17.39 10.83,16.90 10.77,16.37 10.70,15.85 10.81,15.32 10.92,14.80 11.20,14.34 11.47,13.88 11.87,13.54 12.27,13.19 12.77,12.99 13.26,12.78 13.79,12.75 14.32,12.72 14.84,12.86 15.35,12.99 15.80,13.29 16.24,13.58 16.57,14.01 16.89,14.43 17.07,14.93 17.24,15.43 17.25,15.97 17.25,16.50 17.08,17.01 16.92,17.51 16.60,17.94 16.28,18.37 15.84,18.67 15.40,18.97 14.89,19.12 14.38,19.27 13.85,19.24 13.31,19.22 12.82,19.02 12.32,18.83 11.91,18.49 11.50,18.15 11.22,17.69 10.95,17.24 10.95,17.24 10.95,17.24 10.24,15.30 9.54,13.35 8.47,12.54 7.41,11.73 6.64,10.94 5.88,10.15 5.03,8.78 4.18,7.41 3.35,6.04 2.52,4.68 1.71,3.98 0.90,3.28 -0.04,2.87 -0.98,2.46 -1.26,2.31 -1.55,2.16 -1.78,1.94 -2.02,1.72 -2.19,1.46 -2.37,1.19 -2.48,0.89 -2.59,0.58 -2.62,0.27 -2.65,-0.04 -2.61,-0.36 -2.57,-0.68 -2.45,-0.98 -2.33,-1.27 -2.14,-1.53 -1.95,-1.79 -1.71,-2.00 -1.47,-2.21 -1.18,-2.35 -0.89,-2.50 -0.58,-2.57 -0.27,-2.64 0.04,-2.63 0.36,-2.63 0.67,-2.55 0.98,-2.46 0.98,-2.46 L 0.98,-2.46 Z"></path></g><g transform="translate(303.2384771146749 120.66668701171875) rotate(0 -6.33331298828125 11.333328247070312)" stroke="none"><path fill="#d9480f" d="M 1.66,1.99 Q 1.66,1.99 0.50,2.93 -0.66,3.87 -1.39,4.73 -2.12,5.59 -3.00,6.37 -3.88,7.15 -5.06,8.33 -6.23,9.51 -7.25,10.65 -8.28,11.80 -8.21,13.02 -8.14,14.24 -8.39,15.95 -8.64,17.67 -9.02,20.56 -9.39,23.45 -9.60,23.95 -9.81,24.45 -10.17,24.86 -10.53,25.27 -11.01,25.54 -11.48,25.81 -12.01,25.92 -12.55,26.02 -13.09,25.95 -13.63,25.88 -14.12,25.65 -14.60,25.41 -14.99,25.03 -15.38,24.64 -15.62,24.16 -15.87,23.67 -15.95,23.13 -16.03,22.59 -15.93,22.06 -15.83,21.52 -15.56,21.05 -15.30,20.57 -14.90,20.21 -14.49,19.84 -14.00,19.62 -13.50,19.40 -12.95,19.35 -12.41,19.31 -11.88,19.43 -11.35,19.56 -10.89,19.85 -10.43,20.14 -10.09,20.56 -9.75,20.99 -9.55,21.49 -9.36,22.00 -9.34,22.55 -9.33,23.09 -9.48,23.61 -9.64,24.13 -9.95,24.58 -10.27,25.02 -10.71,25.34 -11.15,25.66 -11.66,25.83 -12.18,25.99 -12.73,25.98 -13.27,25.97 -13.78,25.79 -14.30,25.60 -14.72,25.26 -15.15,24.93 -15.45,24.47 -15.74,24.01 -15.88,23.49 -16.01,22.96 -15.97,22.42 -15.93,21.87 -15.93,21.87 -15.93,21.87 -15.62,20.49 -15.32,19.11 -15.21,17.93 -15.11,16.75 -14.80,15.42 -14.49,14.10 -14.32,12.72 -14.14,11.33 -13.56,10.07 -12.98,8.80 -12.21,8.02 -11.45,7.23 -10.76,6.39 -10.08,5.55 -9.23,4.75 -8.37,3.95 -7.17,3.06 -5.96,2.16 -4.95,1.06 -3.93,-0.04 -2.80,-1.02 -1.66,-1.99 -1.40,-2.16 -1.13,-2.33 -0.84,-2.43 -0.54,-2.54 -0.23,-2.56 0.07,-2.59 0.38,-2.55 0.69,-2.50 0.98,-2.38 1.27,-2.26 1.52,-2.07 1.78,-1.89 1.98,-1.65 2.18,-1.41 2.32,-1.12 2.45,-0.84 2.52,-0.54 2.58,-0.23 2.57,0.07 2.56,0.39 2.48,0.69 2.40,0.99 2.24,1.26 2.09,1.54 1.87,1.76 1.66,1.99 1.66,1.99 L 1.66,1.99 Z"></path></g></svg>