<svg version="1.1" xmlns="http://www.w3.org/2000/svg" viewBox="0 0 827.625 277" width="827.625" height="277">
  <!-- svg-source:excalidraw -->
  
  <defs>
    <style class="style-fonts">
      @font-face {
        font-family: "Virgil";
        src: url("https://file%2B.vscode-resource.vscode-cdn.net/c%3A/Users/jiongqia/.vscode/extensions/pomdtr.excalidraw-editor-3.5.1/public//dist/excalidraw-assets/Virgil.woff2");
      }
      @font-face {
        font-family: "Cascadia";
        src: url("https://file%2B.vscode-resource.vscode-cdn.net/c%3A/Users/jiongqia/.vscode/extensions/pomdtr.excalidraw-editor-3.5.1/public//dist/excalidraw-assets/Cascadia.woff2");
      }
    </style>
  </defs>
  <rect x="0" y="0" width="827.625" height="277" fill="#ffffff"></rect><g stroke-linecap="round" transform="translate(10 30) rotate(0 13.5 17)"><path d="M3.22 4.13 C3.22 4.13, 3.22 4.13, 3.22 4.13 M3.22 4.13 C3.22 4.13, 3.22 4.13, 3.22 4.13 M-0.09 13.24 C1.99 10.1, 6.57 5.21, 13.02 -0.75 M0.47 12.96 C3.72 9.31, 5.62 6.86, 11.79 -0.43 M2.69 16.4 C6.39 10.97, 10.92 5.89, 14.14 3.79 M3.22 16.69 C6.15 13.37, 8.54 11.32, 15.8 1.16 M5.32 20.22 C8.25 15.34, 17.43 6.79, 20.05 5.27 M3.73 22.72 C9.82 15.12, 14.5 8.15, 19.47 3.26 M3.46 29.43 C9.18 19.23, 15.54 13.23, 23.15 6.09 M4.6 26.95 C10.12 20.23, 17.85 13.11, 23.82 4.23 M7.85 29.99 C13.77 21.99, 21.8 13.85, 27.57 8.93 M6.99 30.31 C11.15 24.11, 16.68 17.46, 25.6 7.78 M10.95 34.34 C15.51 27.26, 20.21 21.44, 28.01 11.94 M9.82 33.01 C14.3 26.9, 20.41 20.24, 27.19 12.36 M10.36 36.36 C15.24 32.85, 21.82 26.31, 31.22 14.82 M12.49 37.76 C19.48 28.55, 25.38 19.73, 30.46 16.37" stroke="#4c6ef5" stroke-width="0.5" fill="none"></path><path d="M12.8 -0.24 C15.61 -0.65, 19.53 0.81, 21.95 3.01 C24.37 5.22, 26.64 9.4, 27.32 13.02 C28 16.63, 27.36 21.56, 26.04 24.73 C24.72 27.89, 22.2 30.47, 19.41 32.03 C16.62 33.59, 12.15 35.1, 9.31 34.09 C6.47 33.07, 3.81 29.22, 2.36 25.95 C0.91 22.69, 0.42 18.21, 0.6 14.52 C0.79 10.83, 1.48 6.17, 3.49 3.81 C5.5 1.46, 10.89 0.88, 12.65 0.38 C14.41 -0.11, 13.93 0.49, 14.05 0.84 M8.47 0.48 C10.9 -0.79, 16.43 -0.09, 19.54 1.47 C22.65 3.04, 26.16 6.65, 27.13 9.87 C28.1 13.08, 26.12 17.42, 25.38 20.76 C24.64 24.09, 24.73 27.65, 22.7 29.87 C20.67 32.09, 16.09 34.06, 13.19 34.07 C10.3 34.08, 7.49 32.54, 5.31 29.93 C3.13 27.32, 0.8 22.35, 0.14 18.41 C-0.52 14.47, -0.22 9.05, 1.35 6.29 C2.93 3.53, 8.05 2.51, 9.59 1.84 C11.13 1.16, 10.29 1.94, 10.59 2.24" stroke="#364fc7" stroke-width="1" fill="none"></path></g><g stroke-linecap="round" transform="translate(261.5 19) rotate(0 13.5 17)"><path d="M3.22 4.13 C3.22 4.13, 3.22 4.13, 3.22 4.13 M3.22 4.13 C3.22 4.13, 3.22 4.13, 3.22 4.13 M-0.09 13.24 C1.99 10.1, 6.57 5.21, 13.02 -0.75 M0.47 12.96 C3.72 9.31, 5.62 6.86, 11.79 -0.43 M2.69 16.4 C6.39 10.97, 10.92 5.89, 14.14 3.79 M3.22 16.69 C6.15 13.37, 8.54 11.32, 15.8 1.16 M5.32 20.22 C8.25 15.34, 17.43 6.79, 20.05 5.27 M3.73 22.72 C9.82 15.12, 14.5 8.15, 19.47 3.26 M3.46 29.43 C9.18 19.23, 15.54 13.23, 23.15 6.09 M4.6 26.95 C10.12 20.23, 17.85 13.11, 23.82 4.23 M7.85 29.99 C13.77 21.99, 21.8 13.85, 27.57 8.93 M6.99 30.31 C11.15 24.11, 16.68 17.46, 25.6 7.78 M10.95 34.34 C15.51 27.26, 20.21 21.44, 28.01 11.94 M9.82 33.01 C14.3 26.9, 20.41 20.24, 27.19 12.36 M10.36 36.36 C15.24 32.85, 21.82 26.31, 31.22 14.82 M12.49 37.76 C19.48 28.55, 25.38 19.73, 30.46 16.37" stroke="#fd7e14" stroke-width="0.5" fill="none"></path><path d="M12.8 -0.24 C15.61 -0.65, 19.53 0.81, 21.95 3.01 C24.37 5.22, 26.64 9.4, 27.32 13.02 C28 16.63, 27.36 21.56, 26.04 24.73 C24.72 27.89, 22.2 30.47, 19.41 32.03 C16.62 33.59, 12.15 35.1, 9.31 34.09 C6.47 33.07, 3.81 29.22, 2.36 25.95 C0.91 22.69, 0.42 18.21, 0.6 14.52 C0.79 10.83, 1.48 6.17, 3.49 3.81 C5.5 1.46, 10.89 0.88, 12.65 0.38 C14.41 -0.11, 13.93 0.49, 14.05 0.84 M8.47 0.48 C10.9 -0.79, 16.43 -0.09, 19.54 1.47 C22.65 3.04, 26.16 6.65, 27.13 9.87 C28.1 13.08, 26.12 17.42, 25.38 20.76 C24.64 24.09, 24.73 27.65, 22.7 29.87 C20.67 32.09, 16.09 34.06, 13.19 34.07 C10.3 34.08, 7.49 32.54, 5.31 29.93 C3.13 27.32, 0.8 22.35, 0.14 18.41 C-0.52 14.47, -0.22 9.05, 1.35 6.29 C2.93 3.53, 8.05 2.51, 9.59 1.84 C11.13 1.16, 10.29 1.94, 10.59 2.24" stroke="#d9480f" stroke-width="1" fill="none"></path></g><g stroke-linecap="round" transform="translate(38 113) rotate(0 212.5 77)"><path d="M7.86 8.16 C7.86 8.16, 7.86 8.16, 7.86 8.16 M7.86 8.16 C7.86 8.16, 7.86 8.16, 7.86 8.16 M3.66 19.09 C8.58 15.58, 13.59 7.64, 18.1 2.48 M3.66 19.09 C8.74 13.33, 12.52 7.39, 18.1 2.48 M2.75 26.24 C11.25 18.69, 15.05 13.42, 24.4 1.33 M2.75 26.24 C8.42 18.92, 15.68 12.57, 24.4 1.33 M2.48 32.64 C7.91 23.81, 15.89 18.93, 30.7 0.18 M2.48 32.64 C12.98 21.5, 22.07 10.88, 30.7 0.18 M2.88 38.28 C11.83 28.66, 20.5 20.42, 34.37 2.05 M2.88 38.28 C12.12 27.96, 19.51 17.87, 34.37 2.05 M2.62 44.68 C10.51 34.28, 18.57 24.31, 39.36 2.41 M2.62 44.68 C15.5 29.5, 28.84 13.1, 39.36 2.41 M2.36 51.07 C13.9 38.31, 25.46 22.29, 45 2.02 M2.36 51.07 C12.78 38.73, 24.24 25.34, 45 2.02 M2.75 56.72 C18.44 39.09, 37.07 18.69, 49.99 2.38 M2.75 56.72 C20.39 36.95, 36.5 19.39, 49.99 2.38 M2.49 63.11 C20.55 41.03, 43.48 18.96, 55.63 1.98 M2.49 63.11 C22.06 38.6, 42.64 15.5, 55.63 1.98 M2.88 68.76 C21.06 49.56, 36.93 28.7, 60.62 2.34 M2.88 68.76 C19.61 48.67, 38.99 28.1, 60.62 2.34 M2.62 75.16 C26.41 46.73, 52.5 19.25, 66.26 1.95 M2.62 75.16 C16.49 59.67, 29.88 44.67, 66.26 1.95 M2.36 81.55 C19.62 62.47, 34.06 44.75, 71.25 2.31 M2.36 81.55 C17.81 64.86, 33.99 45.98, 71.25 2.31 M2.76 87.2 C32.02 57.66, 59.13 24.66, 76.89 1.91 M2.76 87.2 C19.37 67.75, 37.14 46.1, 76.89 1.91 M2.49 93.59 C30.73 63.7, 60.48 28.4, 81.88 2.27 M2.49 93.59 C31.66 60.13, 60.98 25.32, 81.88 2.27 M2.89 99.24 C33.1 64.1, 67.97 25.09, 87.52 1.88 M2.89 99.24 C33.06 65.42, 63.25 29.6, 87.52 1.88 M2.63 105.64 C31.91 69.58, 62.36 35.87, 92.51 2.24 M2.63 105.64 C36.19 68.77, 69.81 30.96, 92.51 2.24 M2.37 112.03 C24.52 83.09, 48.21 58.67, 98.15 1.85 M2.37 112.03 C40.42 67.8, 77.35 25.42, 98.15 1.85 M2.76 117.68 C31.13 83.36, 61.2 49.12, 103.14 2.21 M2.76 117.68 C31.27 83.71, 61.6 49.28, 103.14 2.21 M2.5 124.07 C32.56 87.95, 62.43 55.65, 108.78 1.81 M2.5 124.07 C44.05 77.45, 84.49 30.93, 108.78 1.81 M2.24 130.47 C29.27 100.12, 54.72 67.59, 113.77 2.17 M2.24 130.47 C28.77 100.47, 55.33 69.31, 113.77 2.17 M3.29 135.36 C41.2 92.2, 81.22 46.04, 119.41 1.78 M3.29 135.36 C36.85 97.45, 72 59.14, 119.41 1.78 M5 139.49 C29.18 111.06, 55.93 81.39, 124.4 2.14 M5 139.49 C40.3 99.01, 76.68 58.2, 124.4 2.14 M6.7 143.63 C41.48 100.75, 79.76 57.56, 130.04 1.74 M6.7 143.63 C40.45 104.08, 74.65 63.76, 130.04 1.74 M9.72 146.25 C45.32 104.11, 82.15 62.36, 135.03 2.1 M9.72 146.25 C57 91.97, 105.7 36.59, 135.03 2.1 M12.74 148.88 C46.78 108.34, 83.41 69.15, 140.67 1.71 M12.74 148.88 C44.56 114.34, 75.94 77.22, 140.67 1.71 M15.1 152.25 C44.93 116.47, 79.64 78.78, 145.66 2.07 M15.1 152.25 C49.01 115.79, 80.56 78.9, 145.66 2.07 M19.43 153.37 C66.67 99.41, 112.44 48.98, 150.65 2.43 M19.43 153.37 C57.84 110.91, 94.32 67.78, 150.65 2.43 M24.42 153.73 C66.14 107.43, 108.27 60.77, 156.29 2.03 M24.42 153.73 C53.09 121.42, 82.61 88.66, 156.29 2.03 M28.75 154.84 C61.08 120.13, 91.95 82.55, 161.28 2.39 M28.75 154.84 C60.46 119.97, 89.82 84.42, 161.28 2.39 M33.74 155.2 C80.36 104.52, 122.87 53.27, 166.92 2 M33.74 155.2 C74.77 109.84, 112.81 65.09, 166.92 2 M38.73 155.56 C72.99 116.11, 109.65 75.57, 171.91 2.36 M38.73 155.56 C80.96 106.86, 123.57 58.18, 171.91 2.36 M44.37 155.17 C79.26 114.08, 117.8 72.55, 177.55 1.96 M44.37 155.17 C76.48 120.27, 106.47 84.18, 177.55 1.96 M49.36 155.53 C94.18 103.67, 141.16 52.84, 182.54 2.32 M49.36 155.53 C90.88 106.82, 131.47 58.83, 182.54 2.32 M55 155.14 C96.04 107.91, 133.67 66.41, 188.18 1.93 M55 155.14 C92.18 114.04, 127.31 72.31, 188.18 1.93 M59.99 155.5 C89.72 125.63, 117.29 93.84, 193.17 2.29 M59.99 155.5 C111.47 96.87, 163.23 38.01, 193.17 2.29 M65.63 155.1 C102.62 116.5, 136.46 74.93, 198.81 1.9 M65.63 155.1 C117.66 94.5, 170.89 32.57, 198.81 1.9 M70.62 155.46 C121.62 93.58, 174.6 37.15, 203.8 2.26 M70.62 155.46 C100.76 121.43, 131.49 85.74, 203.8 2.26 M76.26 155.07 C112.65 113.49, 148.12 70.09, 209.44 1.86 M76.26 155.07 C112.94 111.92, 150.45 68.17, 209.44 1.86 M81.25 155.43 C116.08 114.72, 148.32 76.73, 214.43 2.22 M81.25 155.43 C127.65 100.56, 175.3 46.52, 214.43 2.22 M86.89 155.03 C128.45 107.56, 171.49 57.84, 220.07 1.83 M86.89 155.03 C133.88 101.82, 178.61 48.7, 220.07 1.83 M91.88 155.39 C134.72 103.1, 182.06 49.46, 225.06 2.19 M91.88 155.39 C142.35 94.28, 193.46 35.16, 225.06 2.19 M96.86 155.75 C147.2 98.35, 199.27 39.86, 230.7 1.79 M96.86 155.75 C136.87 110.21, 177.8 64.94, 230.7 1.79 M102.51 155.36 C133.56 119.86, 164.2 86.31, 235.69 2.15 M102.51 155.36 C152.57 98.96, 200.91 41.1, 235.69 2.15 M107.49 155.72 C156.83 98.91, 206.37 41.73, 241.33 1.76 M107.49 155.72 C134.8 124.56, 162.25 92.3, 241.33 1.76 M113.14 155.32 C150.51 113.37, 184.76 70.6, 246.32 2.12 M113.14 155.32 C151.15 113.45, 186.26 71.22, 246.32 2.12 M118.12 155.68 C170.64 94.2, 222.42 34.49, 251.96 1.72 M118.12 155.68 C169.13 95.7, 221.5 36.95, 251.96 1.72 M123.77 155.29 C159.84 113, 195.17 73.88, 256.95 2.08 M123.77 155.29 C158.19 115.51, 193.86 74.9, 256.95 2.08 M128.75 155.65 C165.9 114.31, 202.59 71.48, 262.59 1.69 M128.75 155.65 C176.73 101.4, 224.82 46.61, 262.59 1.69 M134.4 155.25 C186.74 95.47, 235.64 37.85, 267.58 2.05 M134.4 155.25 C165.86 119.03, 198.46 81.39, 267.58 2.05 M139.38 155.61 C174.02 118.43, 207.95 78.81, 272.56 2.41 M139.38 155.61 C175.67 114, 211.36 72.27, 272.56 2.41 M145.03 155.22 C173.8 118.49, 206.73 81.71, 278.21 2.01 M145.03 155.22 C186.36 105.45, 230.45 56.5, 278.21 2.01 M150.01 155.58 C182.44 117.97, 217.87 78.29, 283.19 2.37 M150.01 155.58 C186.62 115.48, 222.1 74.05, 283.19 2.37 M155.66 155.19 C208.97 96.39, 261.41 33.6, 288.84 1.98 M155.66 155.19 C199.41 105.45, 242.48 53.67, 288.84 1.98 M160.64 155.55 C189.63 122.51, 217.04 91.99, 293.82 2.34 M160.64 155.55 C206.76 101.87, 253.95 47.71, 293.82 2.34 M166.29 155.15 C205.07 109.26, 247.71 61.57, 299.47 1.94 M166.29 155.15 C209.4 107.16, 252.85 58.11, 299.47 1.94 M171.27 155.51 C223.53 94.96, 276.04 32.68, 304.45 2.3 M171.27 155.51 C207.96 112.76, 245.49 70.17, 304.45 2.3 M176.92 155.12 C224.68 102.15, 270.44 47.37, 310.1 1.91 M176.92 155.12 C210.12 116.7, 243.53 79.01, 310.1 1.91 M181.9 155.48 C216.23 117.2, 250.64 77.65, 315.08 2.27 M181.9 155.48 C221.07 107.3, 261.47 61.47, 315.08 2.27 M187.55 155.08 C243.38 95.15, 293.98 33.57, 320.73 1.88 M187.55 155.08 C228.37 107.17, 270.42 59.71, 320.73 1.88 M192.53 155.44 C242.81 98.49, 291.64 43.06, 325.71 2.24 M192.53 155.44 C221.11 122.69, 250.85 90, 325.71 2.24 M198.18 155.05 C231.66 116.96, 262.15 80.47, 331.36 1.84 M198.18 155.05 C249.2 96.13, 300.67 35.35, 331.36 1.84 M203.16 155.41 C243.18 109.66, 279.84 64.91, 336.34 2.2 M203.16 155.41 C242.07 111.54, 279.82 66.62, 336.34 2.2 M208.81 155.01 C255.33 103, 302.6 46.28, 341.99 1.81 M208.81 155.01 C237.24 122.84, 266.94 91.25, 341.99 1.81 M213.79 155.37 C257.98 104.24, 299.08 56.12, 346.97 2.17 M213.79 155.37 C263.04 100.88, 312.29 45.23, 346.97 2.17 M218.78 155.73 C267.31 102.45, 315.49 48.72, 352.62 1.77 M218.78 155.73 C244.49 124.4, 273.71 93.8, 352.62 1.77 M224.42 155.34 C271.53 103, 314.81 48.92, 357.6 2.13 M224.42 155.34 C269.66 102.82, 314.7 51.32, 357.6 2.13 M229.41 155.7 C273.18 106.35, 314.77 55.69, 363.25 1.74 M229.41 155.7 C258.09 120.83, 289.32 86.12, 363.25 1.74 M235.05 155.3 C281.77 100.13, 332.1 45.85, 368.23 2.1 M235.05 155.3 C272.59 111.38, 309.26 68.92, 368.23 2.1 M240.04 155.66 C284.26 108.64, 323.31 60.59, 373.88 1.7 M240.04 155.66 C272.52 120.18, 303.19 83.18, 373.88 1.7 M245.68 155.27 C297.08 97.02, 343.33 40.21, 378.86 2.06 M245.68 155.27 C290.09 103.24, 336.11 49.53, 378.86 2.06 M250.67 155.63 C279.72 125.11, 306.16 92.95, 383.85 2.42 M250.67 155.63 C277.89 122.91, 307.29 88.68, 383.85 2.42 M256.31 155.23 C295.81 109.81, 335.25 64.06, 389.49 2.03 M256.31 155.23 C286.26 121.19, 315.93 86.45, 389.49 2.03 M261.3 155.6 C299.76 116.82, 335.18 74.51, 395.14 1.63 M261.3 155.6 C298.44 111.29, 334.61 68.12, 395.14 1.63 M266.94 155.2 C298.64 117.09, 333.17 79.36, 399.47 2.75 M266.94 155.2 C306.2 110.86, 344.02 67.13, 399.47 2.75 M271.93 155.56 C299.42 123.92, 327.86 89.98, 404.46 3.11 M271.93 155.56 C316.56 104.07, 360.78 53.55, 404.46 3.11 M277.57 155.17 C312.57 115.46, 348.32 71.76, 409.44 3.47 M277.57 155.17 C316.48 110.69, 356.39 65.16, 409.44 3.47 M282.56 155.53 C324.44 110.65, 360.97 64.27, 412.46 6.09 M282.56 155.53 C311.8 120.84, 341.34 87.79, 412.46 6.09 M288.2 155.13 C340.2 97.47, 387.57 36.78, 416.14 7.96 M288.2 155.13 C319.82 120.39, 350.54 84.87, 416.14 7.96 M293.19 155.49 C328.33 118.1, 363.96 77.37, 419.81 9.83 M293.19 155.49 C320.34 125.34, 346.83 96.15, 419.81 9.83 M298.83 155.1 C343.2 100.81, 386.58 53.28, 421.52 13.97 M298.83 155.1 C334.84 114.63, 370.88 72.93, 421.52 13.97 M303.82 155.46 C328.79 128.03, 354.49 98.52, 423.22 18.1 M303.82 155.46 C334.96 121.7, 364.8 88.22, 423.22 18.1 M309.46 155.06 C349.88 112.52, 384.94 66.98, 424.93 22.23 M309.46 155.06 C345.69 114.57, 379.86 74.72, 424.93 22.23 M314.45 155.42 C341.18 126, 367.78 91.94, 426.64 26.37 M314.45 155.42 C352.29 111.14, 389.68 69.04, 426.64 26.37 M320.09 155.03 C356.24 113.52, 393.53 68.14, 426.38 32.77 M320.09 155.03 C350.23 120.59, 381.45 85.61, 426.38 32.77 M325.08 155.39 C355.08 118.86, 386.48 82.71, 426.77 38.41 M325.08 155.39 C364.1 111.62, 400.13 68.9, 426.77 38.41 M330.07 155.75 C359.78 120.49, 389.17 89.48, 426.51 44.81 M330.07 155.75 C359.19 122.39, 388.9 86.84, 426.51 44.81 M335.71 155.35 C368.51 119.68, 396.97 85.3, 426.9 50.45 M335.71 155.35 C360.96 126.42, 386.49 97.38, 426.9 50.45 M340.7 155.71 C374.19 119.43, 405.14 80.04, 426.64 56.85 M340.7 155.71 C359.41 134.73, 375.61 114.19, 426.64 56.85 M346.34 155.32 C363.98 130.09, 384.71 108.49, 427.04 62.49 M346.34 155.32 C371.01 127.25, 394.27 98.7, 427.04 62.49 M351.33 155.68 C373.76 128.99, 399.55 98.81, 426.78 68.89 M351.33 155.68 C374.99 128.87, 397.7 102.18, 426.78 68.89 M356.97 155.28 C371.62 135.83, 389.33 119.39, 427.17 74.53 M356.97 155.28 C376.96 131.08, 398.07 107.35, 427.17 74.53 M361.96 155.64 C378.59 136.29, 394.19 119.05, 426.91 80.93 M361.96 155.64 C379.82 135.9, 398.25 114.14, 426.91 80.93 M367.6 155.25 C378.38 140.03, 394.31 126.79, 426.65 87.33 M367.6 155.25 C381.32 140.02, 394.67 124.67, 426.65 87.33 M372.59 155.61 C385.23 139.3, 400.84 123.84, 427.04 92.97 M372.59 155.61 C386.54 139.35, 401.57 121.55, 427.04 92.97 M378.23 155.22 C398.14 133.86, 414.86 112.34, 426.78 99.37 M378.23 155.22 C392.11 137.47, 406.05 121.75, 426.78 99.37 M383.22 155.58 C399.03 137.27, 416.82 118.05, 427.18 105.01 M383.22 155.58 C400.6 135.54, 418.74 115.8, 427.18 105.01 M388.86 155.18 C398.67 142.3, 412.12 128.39, 426.91 111.41 M388.86 155.18 C396.27 145.42, 405.64 137.79, 426.91 111.41 M394.51 154.79 C406.34 141.04, 418.48 125.15, 427.31 117.05 M394.51 154.79 C401.57 147.28, 409.77 137.39, 427.31 117.05 M400.15 154.39 C409.02 141.59, 420.03 132.67, 427.05 123.45 M400.15 154.39 C408.49 145.97, 415.38 136.98, 427.05 123.45 M407.1 152.49 C410.17 146.72, 414.19 144.96, 426.13 130.6 M407.1 152.49 C412.42 145.75, 418.84 138.53, 426.13 130.6" stroke="#82c91e" stroke-width="0.5" fill="none"></path><path d="M32 0 M32 0 C153.38 -0.6, 272.94 -0.82, 393 0 M32 0 C168.4 -1.28, 304.87 -0.97, 393 0 M393 0 C416.28 1.56, 425.87 8.75, 425 32 M393 0 C412.37 1.7, 424.35 9.83, 425 32 M425 32 C425.76 54.7, 423.4 77.9, 425 122 M425 32 C425.71 53.33, 426.18 75.85, 425 122 M425 122 C423.37 143.97, 415.76 153.79, 393 154 M425 122 C425.38 143.26, 416.38 152.36, 393 154 M393 154 C306.18 151.03, 221.1 153.12, 32 154 M393 154 C292.95 153, 191.75 152.85, 32 154 M32 154 C10.95 155.07, 0.58 142.88, 0 122 M32 154 C9.85 155.2, 0.93 143.16, 0 122 M0 122 C0.98 100.96, -2.11 83.76, 0 32 M0 122 C-0.7 90.98, 0.1 58.46, 0 32 M0 32 C-0.94 12.31, 10.34 -0.15, 32 0 M0 32 C-1.62 10.61, 10.75 2.13, 32 0" stroke="#000000" stroke-width="1" fill="none"></path></g><g transform="translate(215.34375 118) rotate(0 35.15625 12)"><text x="35.15625" y="0" font-family="Cascadia, Segoe UI Emoji" font-size="20px" fill="#000000" text-anchor="middle" style="white-space: pre;" direction="ltr" dominant-baseline="text-before-edge">Memory</text></g><g stroke-linecap="round" transform="translate(131 156) rotate(0 28.5 8)"><path d="M1.06 0.93 C1.06 0.93, 1.06 0.93, 1.06 0.93 M1.06 0.93 C1.06 0.93, 1.06 0.93, 1.06 0.93 M2.12 5.81 C2.93 5.1, 3.75 4.39, 6.05 1.29 M2.12 5.81 C3.2 4.72, 3.84 3.81, 6.05 1.29 M0.54 13.72 C3.14 12.06, 6.76 7.47, 11.04 1.65 M0.54 13.72 C5.07 9.85, 8.87 4.76, 11.04 1.65 M3.56 16.35 C6.13 14.28, 10.15 7.25, 16.68 1.25 M3.56 16.35 C8.14 11.99, 13.71 5.05, 16.68 1.25 M8.55 16.71 C13.89 11.64, 18.8 3.84, 21.67 1.61 M8.55 16.71 C12.61 11.72, 19.16 4.75, 21.67 1.61 M13.53 17.07 C17.43 13.18, 22.63 5, 26.66 1.97 M13.53 17.07 C17.71 11.59, 22.22 7.05, 26.66 1.97 M19.18 16.67 C24.02 12.56, 30.6 6.71, 32.3 1.58 M19.18 16.67 C21.78 12.24, 25.08 9.86, 32.3 1.58 M24.16 17.03 C31.23 9.18, 35.2 4.81, 37.29 1.94 M24.16 17.03 C27.45 12.35, 31.39 7.98, 37.29 1.94 M29.81 16.64 C32.35 11.77, 36.66 7.71, 42.93 1.54 M29.81 16.64 C33.21 11.73, 36.92 8.49, 42.93 1.54 M34.79 17 C39.65 10.31, 43.54 5.82, 47.92 1.9 M34.79 17 C38.14 13.74, 40.25 9.67, 47.92 1.9 M40.44 16.6 C42.06 13.2, 45.47 8.05, 53.56 1.51 M40.44 16.6 C44.54 11.82, 49.74 5.77, 53.56 1.51 M45.42 16.96 C47.31 13.13, 53.41 10.15, 57.89 2.62 M45.42 16.96 C47.6 14.13, 51.27 10.44, 57.89 2.62 M51.07 16.57 C52.81 14.13, 55.35 12.23, 57.63 9.02 M51.07 16.57 C52.6 14.45, 54.82 12.1, 57.63 9.02" stroke="#4c6ef5" stroke-width="0.5" fill="none"></path><path d="M4 0 M4 0 C16.82 0.27, 29.75 -0.73, 53 0 M4 0 C17.69 -0.08, 32.12 0.11, 53 0 M53 0 C57.32 0.93, 55.26 1.33, 57 4 M53 0 C55.19 1.69, 56.05 0.61, 57 4 M57 4 C56.82 6.18, 56.95 7.18, 57 12 M57 4 C57.27 5.53, 56.73 7.1, 57 12 M57 12 C58.54 13.96, 54.42 16.83, 53 16 M57 12 C58.42 14.91, 54.43 13.76, 53 16 M53 16 C37.11 17.87, 23.48 16.79, 4 16 M53 16 C41.71 16.29, 29.29 15.3, 4 16 M4 16 C1.35 17.38, 1.25 14.01, 0 12 M4 16 C2.5 16.24, -1.74 13.94, 0 12 M0 12 C0.34 9.04, -0.11 6.66, 0 4 M0 12 C0.04 9.57, -0.09 7.35, 0 4 M0 4 C0.51 2.01, 1.17 -0.85, 4 0 M0 4 C-1.59 0.46, 1.42 1.56, 4 0" stroke="#364fc7" stroke-width="1" fill="none"></path></g><g stroke-linecap="round" transform="translate(129 183) rotate(0 29 6.5)"><path d="M3.25 0 M3.25 0 C16.92 -0.51, 36.35 -1.49, 54.75 0 M3.25 0 C23.14 0.35, 43.94 1.03, 54.75 0 M54.75 0 C55.13 -1.52, 59.62 0.91, 58 3.25 M54.75 0 C57.94 -0.21, 59.97 -0.35, 58 3.25 M58 3.25 C57.98 5.03, 58.35 6.89, 58 9.75 M58 3.25 C58.16 5.6, 57.78 7.54, 58 9.75 M58 9.75 C56.88 10.15, 58.42 14.2, 54.75 13 M58 9.75 C59.53 11.44, 55.38 14.29, 54.75 13 M54.75 13 C37.69 11.39, 20.54 11.96, 3.25 13 M54.75 13 C42.48 12.68, 29.22 13.89, 3.25 13 M3.25 13 C1.15 13.57, 0.51 12.55, 0 9.75 M3.25 13 C-0.9 14.68, -1.02 12.35, 0 9.75 M0 9.75 C-0.48 8.73, -0.5 7.13, 0 3.25 M0 9.75 C-0.27 8.19, 0.17 6.63, 0 3.25 M0 3.25 C-0.29 0.47, 0.98 0.48, 3.25 0 M0 3.25 C1.47 -0.89, 0.87 -0.08, 3.25 0" stroke="#000000" stroke-width="1" fill="none"></path></g><g stroke-linecap="round" transform="translate(130.5 207) rotate(0 29 6.5)"><path d="M3.25 0 M3.25 0 C16.92 -0.51, 36.35 -1.49, 54.75 0 M3.25 0 C23.14 0.35, 43.94 1.03, 54.75 0 M54.75 0 C55.13 -1.52, 59.62 0.91, 58 3.25 M54.75 0 C57.94 -0.21, 59.97 -0.35, 58 3.25 M58 3.25 C57.98 5.03, 58.35 6.89, 58 9.75 M58 3.25 C58.16 5.6, 57.78 7.54, 58 9.75 M58 9.75 C56.88 10.15, 58.42 14.2, 54.75 13 M58 9.75 C59.53 11.44, 55.38 14.29, 54.75 13 M54.75 13 C37.69 11.39, 20.54 11.96, 3.25 13 M54.75 13 C42.48 12.68, 29.22 13.89, 3.25 13 M3.25 13 C1.15 13.57, 0.51 12.55, 0 9.75 M3.25 13 C-0.9 14.68, -1.02 12.35, 0 9.75 M0 9.75 C-0.48 8.73, -0.5 7.13, 0 3.25 M0 9.75 C-0.27 8.19, 0.17 6.63, 0 3.25 M0 3.25 C-0.29 0.47, 0.98 0.48, 3.25 0 M0 3.25 C1.47 -0.89, 0.87 -0.08, 3.25 0" stroke="#000000" stroke-width="1" fill="none"></path></g><g stroke-linecap="round" transform="translate(131.5 231) rotate(0 28 7)"><path d="M3.5 0 M3.5 0 C16.42 -0.53, 35.09 -1.51, 52.5 0 M3.5 0 C22.41 0.33, 42.22 1.01, 52.5 0 M52.5 0 C53.04 -1.52, 57.62 0.99, 56 3.5 M52.5 0 C55.86 -0.21, 57.97 -0.27, 56 3.5 M56 3.5 C55.98 5.41, 56.37 7.42, 56 10.5 M56 3.5 C56.17 6.03, 55.76 8.12, 56 10.5 M56 10.5 C54.88 11.07, 56.34 15.2, 52.5 14 M56 10.5 C57.53 12.36, 53.3 15.29, 52.5 14 M52.5 14 C36.3 12.37, 20 12.94, 3.5 14 M52.5 14 C40.87 13.66, 28.25 14.87, 3.5 14 M3.5 14 C1.24 14.57, 0.51 13.47, 0 10.5 M3.5 14 C-0.81 15.68, -1.02 13.27, 0 10.5 M0 10.5 C-0.52 9.4, -0.54 7.68, 0 3.5 M0 10.5 C-0.29 8.82, 0.18 7.14, 0 3.5 M0 3.5 C-0.29 0.56, 1.07 0.48, 3.5 0 M0 3.5 C1.47 -0.8, 0.95 -0.08, 3.5 0" stroke="#000000" stroke-width="1" fill="none"></path></g><g transform="translate(43 10) rotate(0 82.03125 24)"><text x="0" y="0" font-family="Cascadia, Segoe UI Emoji" font-size="20px" fill="#000000" text-anchor="start" style="white-space: pre;" direction="ltr" dominant-baseline="text-before-edge">native pointer</text><text x="0" y="24" font-family="Cascadia, Segoe UI Emoji" font-size="20px" fill="#000000" text-anchor="start" style="white-space: pre;" direction="ltr" dominant-baseline="text-before-edge">value: 0xAB00</text></g><g stroke-linecap="round"><g transform="translate(47.249440924366695 65) rotate(0 47.499310398209616 41.20710452886297)"><path d="M0.54 -1.2 C16.05 12.43, 77.89 68.37, 93.44 82.47 M-0.63 0.79 C15.2 14.49, 80.06 69.61, 95.63 83.61" stroke="#364fc7" stroke-width="1" fill="none"></path></g><g transform="translate(47.249440924366695 65) rotate(0 47.499310398209616 41.20710452886297)"><path d="M65.63 71.17 C75.84 75.34, 86.75 80.82, 96.55 85.04 M66.9 72.75 C76.46 76.79, 84.11 78.51, 95.36 82.68" stroke="#364fc7" stroke-width="1" fill="none"></path></g><g transform="translate(47.249440924366695 65) rotate(0 47.499310398209616 41.20710452886297)"><path d="M79.11 55.69 C84.89 65.11, 91.28 75.79, 96.55 85.04 M80.38 57.27 C85.9 65.79, 89.57 72.1, 95.36 82.68" stroke="#364fc7" stroke-width="1" fill="none"></path></g></g><mask></mask><g transform="translate(57.48204292155509 77.27731220602897) rotate(43.033535431704195 32.41406250000003 8.30124264812008)"><text x="0" y="0" font-family="Cascadia, Segoe UI Emoji" font-size="13.83540441353346px" fill="#364fc7" text-anchor="start" style="white-space: pre;" direction="ltr" dominant-baseline="text-before-edge">point to</text></g><g transform="translate(47 154) rotate(0 35.15625 48)"><text x="0" y="0" font-family="Cascadia, Segoe UI Emoji" font-size="20px" fill="#000000" text-anchor="start" style="white-space: pre;" direction="ltr" dominant-baseline="text-before-edge">0xAB00</text><text x="0" y="24" font-family="Cascadia, Segoe UI Emoji" font-size="20px" fill="#000000" text-anchor="start" style="white-space: pre;" direction="ltr" dominant-baseline="text-before-edge">0xAB08</text><text x="0" y="48" font-family="Cascadia, Segoe UI Emoji" font-size="20px" fill="#000000" text-anchor="start" style="white-space: pre;" direction="ltr" dominant-baseline="text-before-edge">0xAB10</text><text x="0" y="72" font-family="Cascadia, Segoe UI Emoji" font-size="20px" fill="#000000" text-anchor="start" style="white-space: pre;" direction="ltr" dominant-baseline="text-before-edge">0xAB18</text></g><g stroke-linecap="round" transform="translate(314.5 182) rotate(0 29 6.5)"><path d="M3.25 0 M3.25 0 C16.92 -0.51, 36.35 -1.49, 54.75 0 M3.25 0 C23.14 0.35, 43.94 1.03, 54.75 0 M54.75 0 C55.13 -1.52, 59.62 0.91, 58 3.25 M54.75 0 C57.94 -0.21, 59.97 -0.35, 58 3.25 M58 3.25 C57.98 5.03, 58.35 6.89, 58 9.75 M58 3.25 C58.16 5.6, 57.78 7.54, 58 9.75 M58 9.75 C56.88 10.15, 58.42 14.2, 54.75 13 M58 9.75 C59.53 11.44, 55.38 14.29, 54.75 13 M54.75 13 C37.69 11.39, 20.54 11.96, 3.25 13 M54.75 13 C42.48 12.68, 29.22 13.89, 3.25 13 M3.25 13 C1.15 13.57, 0.51 12.55, 0 9.75 M3.25 13 C-0.9 14.68, -1.02 12.35, 0 9.75 M0 9.75 C-0.48 8.73, -0.5 7.13, 0 3.25 M0 9.75 C-0.27 8.19, 0.17 6.63, 0 3.25 M0 3.25 C-0.29 0.47, 0.98 0.48, 3.25 0 M0 3.25 C1.47 -0.89, 0.87 -0.08, 3.25 0" stroke="#000000" stroke-width="1" fill="none"></path></g><g stroke-linecap="round" transform="translate(316 206) rotate(0 29 6.5)"><path d="M3.25 0 M3.25 0 C16.92 -0.51, 36.35 -1.49, 54.75 0 M3.25 0 C23.14 0.35, 43.94 1.03, 54.75 0 M54.75 0 C55.13 -1.52, 59.62 0.91, 58 3.25 M54.75 0 C57.94 -0.21, 59.97 -0.35, 58 3.25 M58 3.25 C57.98 5.03, 58.35 6.89, 58 9.75 M58 3.25 C58.16 5.6, 57.78 7.54, 58 9.75 M58 9.75 C56.88 10.15, 58.42 14.2, 54.75 13 M58 9.75 C59.53 11.44, 55.38 14.29, 54.75 13 M54.75 13 C37.69 11.39, 20.54 11.96, 3.25 13 M54.75 13 C42.48 12.68, 29.22 13.89, 3.25 13 M3.25 13 C1.15 13.57, 0.51 12.55, 0 9.75 M3.25 13 C-0.9 14.68, -1.02 12.35, 0 9.75 M0 9.75 C-0.48 8.73, -0.5 7.13, 0 3.25 M0 9.75 C-0.27 8.19, 0.17 6.63, 0 3.25 M0 3.25 C-0.29 0.47, 0.98 0.48, 3.25 0 M0 3.25 C1.47 -0.89, 0.87 -0.08, 3.25 0" stroke="#000000" stroke-width="1" fill="none"></path></g><g stroke-linecap="round" transform="translate(319 230) rotate(0 28 7)"><path d="M0.93 0.81 C0.93 0.81, 0.93 0.81, 0.93 0.81 M0.93 0.81 C0.93 0.81, 0.93 0.81, 0.93 0.81 M1.98 5.7 C2.66 5.1, 3.35 4.51, 5.26 1.92 M1.98 5.7 C2.88 4.78, 3.42 4.03, 5.26 1.92 M1.06 12.85 C3.5 11.3, 6.9 6.99, 10.91 1.53 M1.06 12.85 C5.31 9.22, 8.87 4.45, 10.91 1.53 M4.08 15.47 C6.39 13.62, 10.02 7.29, 15.89 1.89 M4.08 15.47 C8.21 11.56, 13.22 5.31, 15.89 1.89 M9.07 15.84 C14.15 11.02, 18.81 3.61, 21.54 1.5 M9.07 15.84 C12.93 11.1, 19.15 4.47, 21.54 1.5 M14.71 15.44 C18.22 11.94, 22.9 4.58, 26.52 1.86 M14.71 15.44 C18.47 10.51, 22.53 6.43, 26.52 1.86 M19.7 15.8 C24.3 11.89, 30.55 6.34, 32.17 1.46 M19.7 15.8 C22.17 11.59, 25.31 9.33, 32.17 1.46 M25.34 15.41 C31.7 8.34, 35.28 4.41, 37.15 1.82 M25.34 15.41 C28.3 11.19, 31.85 7.26, 37.15 1.82 M30.33 15.77 C32.62 11.39, 36.5 7.73, 42.14 2.18 M30.33 15.77 C33.39 11.35, 36.74 8.43, 42.14 2.18 M35.97 15.37 C40.34 9.35, 43.85 5.32, 47.78 1.79 M35.97 15.37 C38.98 12.44, 40.88 8.78, 47.78 1.79 M40.96 15.73 C42.58 12.33, 46 7.18, 54.08 0.64 M40.96 15.73 C45.06 10.95, 50.26 4.9, 54.08 0.64 M45.95 16.09 C47.64 12.66, 53.09 9.99, 57.1 3.26 M45.95 16.09 C47.9 13.56, 51.18 10.26, 57.1 3.26 M52.9 14.19 C54.12 12.48, 55.9 11.15, 57.5 8.9 M52.9 14.19 C53.97 12.7, 55.53 11.06, 57.5 8.9" stroke="#fd7e14" stroke-width="0.5" fill="none"></path><path d="M3.5 0 M3.5 0 C16.32 0.27, 29.25 -0.73, 52.5 0 M3.5 0 C17.19 -0.08, 31.62 0.11, 52.5 0 M52.5 0 C56.49 0.93, 54.26 1.16, 56 3.5 M52.5 0 C54.36 1.69, 55.05 0.44, 56 3.5 M56 3.5 C55.84 5.4, 55.96 6.29, 56 10.5 M56 3.5 C56.24 4.84, 55.76 6.22, 56 10.5 M56 10.5 C57.54 12.12, 53.59 14.83, 52.5 14 M56 10.5 C57.42 13.08, 53.6 11.76, 52.5 14 M52.5 14 C36.61 15.87, 22.98 14.79, 3.5 14 M52.5 14 C41.21 14.29, 28.79 13.3, 3.5 14 M3.5 14 C1.18 15.38, 1.25 12.18, 0 10.5 M3.5 14 C2.33 14.24, -1.74 12.1, 0 10.5 M0 10.5 C0.29 7.91, -0.09 5.83, 0 3.5 M0 10.5 C0.03 8.38, -0.08 6.43, 0 3.5 M0 3.5 C0.51 1.84, 1.01 -0.85, 3.5 0 M0 3.5 C-1.59 0.3, 1.25 1.56, 3.5 0" stroke="#d9480f" stroke-width="1" fill="none"></path></g><g transform="translate(232.5 153) rotate(0 35.15625 48)"><text x="0" y="0" font-family="Cascadia, Segoe UI Emoji" font-size="20px" fill="#000000" text-anchor="start" style="white-space: pre;" direction="ltr" dominant-baseline="text-before-edge">0xAB04</text><text x="0" y="24" font-family="Cascadia, Segoe UI Emoji" font-size="20px" fill="#000000" text-anchor="start" style="white-space: pre;" direction="ltr" dominant-baseline="text-before-edge">0xAB1C</text><text x="0" y="48" font-family="Cascadia, Segoe UI Emoji" font-size="20px" fill="#000000" text-anchor="start" style="white-space: pre;" direction="ltr" dominant-baseline="text-before-edge">0xAB14</text><text x="0" y="72" font-family="Cascadia, Segoe UI Emoji" font-size="20px" fill="#000000" text-anchor="start" style="white-space: pre;" direction="ltr" dominant-baseline="text-before-edge">0xAB1C</text></g><g stroke-linecap="round" transform="translate(315 157.5) rotate(0 29 6.5)"><path d="M3.25 0 M3.25 0 C16.92 -0.51, 36.35 -1.49, 54.75 0 M3.25 0 C23.14 0.35, 43.94 1.03, 54.75 0 M54.75 0 C55.13 -1.52, 59.62 0.91, 58 3.25 M54.75 0 C57.94 -0.21, 59.97 -0.35, 58 3.25 M58 3.25 C57.98 5.03, 58.35 6.89, 58 9.75 M58 3.25 C58.16 5.6, 57.78 7.54, 58 9.75 M58 9.75 C56.88 10.15, 58.42 14.2, 54.75 13 M58 9.75 C59.53 11.44, 55.38 14.29, 54.75 13 M54.75 13 C37.69 11.39, 20.54 11.96, 3.25 13 M54.75 13 C42.48 12.68, 29.22 13.89, 3.25 13 M3.25 13 C1.15 13.57, 0.51 12.55, 0 9.75 M3.25 13 C-0.9 14.68, -1.02 12.35, 0 9.75 M0 9.75 C-0.48 8.73, -0.5 7.13, 0 3.25 M0 9.75 C-0.27 8.19, 0.17 6.63, 0 3.25 M0 3.25 C-0.29 0.47, 0.98 0.48, 3.25 0 M0 3.25 C1.47 -0.89, 0.87 -0.08, 3.25 0" stroke="#000000" stroke-width="1" fill="none"></path></g><g transform="translate(302 10) rotate(0 257.8125 24)"><text x="0" y="0" font-family="Cascadia, Segoe UI Emoji" font-size="20px" fill="#000000" text-anchor="start" style="white-space: pre;" direction="ltr" dominant-baseline="text-before-edge">wasm pointer (offset, basic address: 0xAB00)</text><text x="0" y="24" font-family="Cascadia, Segoe UI Emoji" font-size="20px" fill="#000000" text-anchor="start" style="white-space: pre;" direction="ltr" dominant-baseline="text-before-edge">value: 1C</text></g><g stroke-linecap="round"><g transform="translate(283 60) rotate(0 67.7780139218903 88.29403163551395)"><path d="M-0.45 -0.56 C21.84 11.09, 116.26 40.75, 132.53 70.19 C148.8 99.63, 102.98 158.48, 97.17 176.09 M1.52 1.76 C23.71 13.52, 114.98 42.07, 131.33 71.3 C147.68 100.53, 105.22 159.61, 99.63 177.15" stroke="#d9480f" stroke-width="1" fill="none"></path></g><g transform="translate(283 60) rotate(0 67.7780139218903 88.29403163551395)"><path d="M102 146.54 C100.99 151.92, 100.86 158.78, 98.39 177.93 M103.57 147.65 C101.95 156.87, 101.04 167.96, 99.48 176.9" stroke="#d9480f" stroke-width="1" fill="none"></path></g><g transform="translate(283 60) rotate(0 67.7780139218903 88.29403163551395)"><path d="M120.39 155.64 C115.67 159.13, 111.85 164.16, 98.39 177.93 M121.96 156.75 C113.94 162.82, 106.64 170.74, 99.48 176.9" stroke="#d9480f" stroke-width="1" fill="none"></path></g></g><mask></mask><g transform="translate(330.1801362782238 72.01388602912539) rotate(22.6794034116701 38.2587890625 8.706518197735903)"><text x="0" y="0" font-family="Cascadia, Segoe UI Emoji" font-size="14.51086366289317px" fill="#d9480f" text-anchor="start" style="white-space: pre;" direction="ltr" dominant-baseline="text-before-edge">refers to</text></g></svg>