<svg version="1.1" xmlns="http://www.w3.org/2000/svg" viewBox="0 0 540.7919464111328 393.25" width="540.7919464111328" height="393.25">
  <!-- svg-source:excalidraw -->
  
  <defs>
    <style class="style-fonts">
      @font-face {
        font-family: "Virgil";
        src: url("https://file%2B.vscode-resource.vscode-cdn.net/c%3A/Users/jiongqia/.vscode/extensions/pomdtr.excalidraw-editor-3.5.1/public//dist/excalidraw-assets/Virgil.woff2");
      }
      @font-face {
        font-family: "Cascadia";
        src: url("https://file%2B.vscode-resource.vscode-cdn.net/c%3A/Users/jiongqia/.vscode/extensions/pomdtr.excalidraw-editor-3.5.1/public//dist/excalidraw-assets/Cascadia.woff2");
      }
    </style>
  </defs>
  <rect x="0" y="0" width="540.7919464111328" height="393.25" fill="#ffffff"></rect><g stroke-linecap="round" transform="translate(13 144) rotate(0 156.5 81)"><path d="M7.86 8.16 C7.86 8.16, 7.86 8.16, 7.86 8.16 M7.86 8.16 C7.86 8.16, 7.86 8.16, 7.86 8.16 M3.66 19.09 C10.98 12.03, 13.29 7.14, 18.1 2.48 M3.66 19.09 C8.61 11.59, 15.82 6.73, 18.1 2.48 M2.75 26.24 C6.81 19.97, 13.98 13.39, 24.4 1.33 M2.75 26.24 C8.06 19.18, 15.53 11.63, 24.4 1.33 M2.48 32.64 C9.79 25.11, 13.65 17.36, 30.7 0.18 M2.48 32.64 C9.53 24.94, 15.11 18.23, 30.7 0.18 M2.88 38.28 C11.26 30.43, 14.7 25.59, 34.37 2.05 M2.88 38.28 C13.28 28.16, 21.15 17.09, 34.37 2.05 M2.62 44.68 C11.62 33.1, 22.44 22.54, 39.36 2.41 M2.62 44.68 C18.2 27.75, 31.08 12.1, 39.36 2.41 M2.36 51.07 C13.94 37.94, 21.32 26.87, 45 2.02 M2.36 51.07 C19.5 30.84, 36.24 13, 45 2.02 M2.75 56.72 C18.84 37.94, 34.63 20.55, 49.99 2.38 M2.75 56.72 C12.05 45.51, 22.49 35.32, 49.99 2.38 M2.49 63.11 C20.63 42.07, 37.9 22.91, 55.63 1.98 M2.49 63.11 C18.8 42.98, 36.08 23.47, 55.63 1.98 M2.88 68.76 C27.3 42.68, 46.8 18.46, 60.62 2.34 M2.88 68.76 C26.94 42.47, 50.19 16.3, 60.62 2.34 M2.62 75.16 C20.35 52.28, 38.09 32.66, 66.26 1.95 M2.62 75.16 C22.74 51.12, 43.59 27.72, 66.26 1.95 M2.36 81.55 C23.4 56, 46.11 29.86, 71.25 2.31 M2.36 81.55 C23.32 56.88, 45.77 32.78, 71.25 2.31 M2.76 87.2 C28.38 61.84, 50.97 34.27, 76.89 1.91 M2.76 87.2 C15.98 70.53, 31.16 53.02, 76.89 1.91 M2.49 93.59 C28.78 63.17, 57.49 27.32, 81.88 2.27 M2.49 93.59 C29.47 62.52, 54.14 32.59, 81.88 2.27 M2.89 99.24 C25.57 72.44, 51.2 45.56, 87.52 1.88 M2.89 99.24 C25.68 75.77, 45.86 50.47, 87.52 1.88 M2.63 105.64 C24.48 81.61, 42.64 59.06, 92.51 2.24 M2.63 105.64 C22.54 80.13, 44.65 56.35, 92.51 2.24 M2.37 112.03 C29.62 82.67, 52.08 53.11, 98.15 1.85 M2.37 112.03 C31.56 77.64, 61.93 41.69, 98.15 1.85 M2.76 117.68 C24.27 92.94, 44.07 67.15, 103.14 2.21 M2.76 117.68 C26.68 88.61, 50 61.43, 103.14 2.21 M2.5 124.07 C42.89 75.57, 83.59 27.04, 108.78 1.81 M2.5 124.07 C36.81 82.55, 73.13 43.08, 108.78 1.81 M2.89 129.72 C35.07 93.34, 68.65 55.79, 113.77 2.17 M2.89 129.72 C46.1 80.52, 89.24 30.21, 113.77 2.17 M1.32 137.62 C46.07 85.04, 90.27 33.74, 119.41 1.78 M1.32 137.62 C48.41 85.07, 93.24 32.97, 119.41 1.78 M2.37 142.51 C28.55 111.32, 57.2 81.28, 124.4 2.14 M2.37 142.51 C43.85 94.45, 85.13 46.82, 124.4 2.14 M4.08 146.65 C28.53 117.63, 55 88.27, 130.04 1.74 M4.08 146.65 C34.56 111.1, 67.39 74.15, 130.04 1.74 M5.78 150.78 C37.08 116.92, 66.2 77.87, 135.03 2.1 M5.78 150.78 C54.2 94.76, 102.43 40.54, 135.03 2.1 M8.8 153.4 C41.84 112.37, 76.88 74.79, 140.67 1.71 M8.8 153.4 C44.69 112.21, 80.9 70.25, 140.67 1.71 M11.82 156.03 C55.96 103.31, 101.67 48.73, 145.66 2.07 M11.82 156.03 C62.27 97.21, 113.66 37.26, 145.66 2.07 M14.19 159.41 C65.42 103.22, 115.33 43.89, 150.65 2.43 M14.19 159.41 C50.29 117.76, 86.09 76.36, 150.65 2.43 M18.52 160.52 C49.29 124.9, 81.87 87.66, 156.29 2.03 M18.52 160.52 C59.8 112.87, 100.23 65.41, 156.29 2.03 M22.85 161.64 C76.55 100.45, 131.5 36.19, 161.28 2.39 M22.85 161.64 C78.15 98.11, 133.94 35.06, 161.28 2.39 M26.52 163.51 C77.61 107.23, 125.97 50.05, 166.92 2 M26.52 163.51 C64.42 119.73, 101.41 76.26, 166.92 2 M32.82 162.36 C62.16 132.01, 91.33 96.51, 171.91 2.36 M32.82 162.36 C82.41 106.67, 131.46 51.46, 171.91 2.36 M37.81 162.72 C76.51 119.32, 113.26 74.24, 177.55 1.96 M37.81 162.72 C75.16 121.72, 111.23 79.21, 177.55 1.96 M43.45 162.32 C86.15 112.69, 127.39 64.27, 182.54 2.32 M43.45 162.32 C89.33 108.65, 135.81 57.18, 182.54 2.32 M48.44 162.68 C88.5 117.97, 131.11 69.73, 188.18 1.93 M48.44 162.68 C84.99 121.7, 121.02 80.34, 188.18 1.93 M54.08 162.29 C88.96 122.52, 122.48 83.75, 193.17 2.29 M54.08 162.29 C91.1 122.59, 125.57 80.38, 193.17 2.29 M59.07 162.65 C89.98 127.06, 124.7 88.76, 198.81 1.9 M59.07 162.65 C99.08 117.46, 138.71 72.48, 198.81 1.9 M64.71 162.25 C117.89 102.59, 168.84 43.9, 203.8 2.26 M64.71 162.25 C117 102.18, 170.62 41.06, 203.8 2.26 M69.7 162.61 C105.65 121.49, 138.82 83.35, 209.44 1.86 M69.7 162.61 C121.15 103.86, 171.39 46.22, 209.44 1.86 M75.34 162.22 C116.83 117.79, 156.77 68.68, 214.43 2.22 M75.34 162.22 C115.4 116.36, 154.13 71.59, 214.43 2.22 M80.33 162.58 C110.32 127.43, 142.71 91.68, 220.07 1.83 M80.33 162.58 C128.11 106.65, 177.06 50.77, 220.07 1.83 M85.97 162.18 C117.48 127.93, 146.42 92.28, 225.06 2.19 M85.97 162.18 C118.54 124.31, 151.52 86.95, 225.06 2.19 M90.96 162.54 C139.54 104.01, 189.35 47.97, 230.7 1.79 M90.96 162.54 C136.91 109.32, 182.14 56.56, 230.7 1.79 M95.95 162.9 C151.94 100.71, 207.84 36.17, 235.69 2.15 M95.95 162.9 C132.92 120.17, 169.5 78.77, 235.69 2.15 M101.59 162.51 C157.34 97.28, 213.59 33.42, 241.33 1.76 M101.59 162.51 C156.47 98.96, 210.71 36.73, 241.33 1.76 M106.58 162.87 C150.04 110.85, 191.79 62.07, 246.32 2.12 M106.58 162.87 C149.33 117.06, 190.39 69.82, 246.32 2.12 M112.22 162.48 C142.2 128.97, 170.35 93.07, 251.96 1.72 M112.22 162.48 C149.06 119.7, 184.73 77.85, 251.96 1.72 M117.21 162.84 C154.08 118.64, 189.91 74.97, 256.95 2.08 M117.21 162.84 C173.01 100.2, 227.55 37.54, 256.95 2.08 M122.85 162.44 C177.3 102.14, 229.73 38.02, 262.59 1.69 M122.85 162.44 C163.02 115.08, 201.76 68.57, 262.59 1.69 M127.84 162.8 C184.66 98.39, 239.21 37.43, 267.58 2.05 M127.84 162.8 C175.11 108.16, 222.08 54.97, 267.58 2.05 M133.48 162.41 C165.11 123.96, 201.56 86.34, 272.56 2.41 M133.48 162.41 C163.46 125.38, 194.33 88.24, 272.56 2.41 M138.47 162.77 C171.64 123.68, 207.78 83.92, 278.21 2.01 M138.47 162.77 C171.79 127.51, 202.43 92.28, 278.21 2.01 M144.11 162.37 C179.03 125.1, 212.33 85.42, 283.19 2.37 M144.11 162.37 C182.48 121.22, 220.43 77.43, 283.19 2.37 M149.1 162.73 C180.9 127.75, 210.35 91.09, 289.49 1.22 M149.1 162.73 C187.97 117.41, 227.46 73.3, 289.49 1.22 M154.74 162.34 C202.79 109.01, 251.77 51.26, 293.82 2.34 M154.74 162.34 C185.47 128.24, 215.55 91.97, 293.82 2.34 M159.73 162.7 C204.43 108.86, 250.33 56.54, 297.5 4.21 M159.73 162.7 C193.29 124.47, 226.54 86.7, 297.5 4.21 M165.37 162.3 C202.32 120.18, 241.2 76.14, 301.83 5.32 M165.37 162.3 C208.38 112.05, 251.68 61.77, 301.83 5.32 M170.36 162.66 C202.39 126.43, 233.72 91.05, 304.19 8.7 M170.36 162.66 C219.84 102.99, 271.31 43.19, 304.19 8.7 M176 162.27 C210.21 124.45, 244.65 86.44, 307.21 11.33 M176 162.27 C202.07 130.96, 229.08 100.95, 307.21 11.33 M180.99 162.63 C229.64 105.59, 279 46.67, 310.23 13.95 M180.99 162.63 C217.34 119.83, 256.22 76.73, 310.23 13.95 M186.63 162.23 C216.44 125.6, 247.49 91.93, 311.28 18.84 M186.63 162.23 C232.2 110.8, 275.86 57.5, 311.28 18.84 M191.62 162.59 C227.92 122, 262.66 78.66, 312.33 23.73 M191.62 162.59 C224.72 124.38, 258.06 86.74, 312.33 23.73 M197.26 162.2 C236.87 112.63, 278.01 63.73, 313.38 28.62 M197.26 162.2 C229.12 124.33, 263.93 85.69, 313.38 28.62 M202.25 162.56 C235.66 126.69, 266.8 88.35, 314.43 33.5 M202.25 162.56 C241.64 115.52, 283.65 68.14, 314.43 33.5 M207.23 162.92 C246.73 114.64, 290.36 63.97, 314.83 39.15 M207.23 162.92 C237.94 126.29, 270.53 89.9, 314.83 39.15 M212.88 162.53 C247.93 122.21, 280.72 81.62, 314.57 45.55 M212.88 162.53 C244.96 123.72, 277.94 87.41, 314.57 45.55 M217.86 162.89 C246.17 128.88, 275.08 96.61, 314.3 51.94 M217.86 162.89 C248.56 129.25, 277.14 94.2, 314.3 51.94 M223.51 162.49 C242.69 139.44, 261.54 117.78, 314.7 57.59 M223.51 162.49 C243.38 139.89, 261.42 117.65, 314.7 57.59 M228.49 162.85 C259.39 129.42, 289.78 94.49, 314.44 63.98 M228.49 162.85 C254.87 132.05, 284.12 99.18, 314.44 63.98 M234.14 162.46 C262.3 128.52, 291.85 97.41, 314.83 69.63 M234.14 162.46 C253.14 138.64, 273.21 117.63, 314.83 69.63 M239.12 162.82 C264.58 134.3, 291.41 104.35, 314.57 76.02 M239.12 162.82 C261.61 135.87, 283.75 110.34, 314.57 76.02 M244.77 162.42 C268.38 132.94, 295.71 107.03, 314.31 82.42 M244.77 162.42 C266.01 137.46, 288.95 112.23, 314.31 82.42 M249.75 162.78 C265.87 144.02, 277.71 126.01, 314.7 88.07 M249.75 162.78 C267.14 143.29, 283.28 124.95, 314.7 88.07 M255.4 162.39 C273.78 141.23, 291.71 116.71, 314.44 94.46 M255.4 162.39 C271.61 142.39, 290.51 122.65, 314.44 94.46 M260.38 162.75 C276.14 147.79, 289.93 130.15, 314.84 100.11 M260.38 162.75 C281.5 138.62, 302.48 113.32, 314.84 100.11 M266.03 162.35 C281.3 140.8, 300.04 124.09, 314.58 106.5 M266.03 162.35 C282.2 143.43, 297.16 125.94, 314.58 106.5 M271.01 162.71 C279.63 150.95, 290.87 142.12, 314.31 112.9 M271.01 162.71 C287.92 143.69, 306.08 122.84, 314.31 112.9 M276.66 162.32 C290.67 147.3, 305.36 129.06, 314.71 118.55 M276.66 162.32 C287.91 149.28, 299.78 134.73, 314.71 118.55 M281.64 162.68 C288.93 152.77, 298.05 147.84, 314.45 124.94 M281.64 162.68 C291.54 150.92, 303.41 138.33, 314.45 124.94 M287.94 161.53 C294.11 153.26, 302.28 142.45, 314.19 131.34 M287.94 161.53 C294.65 154.35, 299.91 147.34, 314.19 131.34 M293.59 161.13 C297.75 155.43, 304.28 147.08, 313.27 138.49 M293.59 161.13 C298.26 155.88, 303.55 149.37, 313.27 138.49" stroke="#228be6" stroke-width="0.5" fill="none"></path><path d="M32 0 M32 0 C128.86 1.37, 225.24 2.08, 281 0 M32 0 C95.13 1.15, 158.65 0.72, 281 0 M281 0 C301.54 0.3, 312.33 10.22, 313 32 M281 0 C302.55 -0.66, 310.83 10.7, 313 32 M313 32 C311.08 69.25, 314.02 109.69, 313 130 M313 32 C314.22 67.48, 312.85 102.26, 313 130 M313 130 C312.71 149.72, 300.86 160.68, 281 162 M313 130 C312.9 150.56, 304.01 163.01, 281 162 M281 162 C197.61 163.13, 113.35 162.78, 32 162 M281 162 C217.52 162.65, 155.42 163.39, 32 162 M32 162 C9.54 161.81, 0.02 152.95, 0 130 M32 162 C9.3 160.66, 2.28 149.68, 0 130 M0 130 C0 100.99, 0.75 74.44, 0 32 M0 130 C-0.87 103.12, 0.03 74.61, 0 32 M0 32 C0.92 9.14, 9.61 -0.45, 32 0 M0 32 C1.79 12.71, 11.28 1.06, 32 0" stroke="#000000" stroke-width="1" fill="none"></path></g><g transform="translate(108.60005187988281 149) rotate(0 60.89994812011719 12.5)"><text x="60.89994812011719" y="0" font-family="Virgil, Segoe UI Emoji" font-size="20px" fill="#000000" text-anchor="middle" style="white-space: pre;" direction="ltr" dominant-baseline="text-before-edge">Native world</text></g><g stroke-linecap="round" transform="translate(136 196) rotate(0 88 51)"><path d="M6.13 6.66 C6.13 6.66, 6.13 6.66, 6.13 6.66 M6.13 6.66 C6.13 6.66, 6.13 6.66, 6.13 6.66 M3.25 16.07 C6.01 14.85, 6.73 9.26, 15.05 2.49 M3.25 16.07 C5.78 12.46, 8.87 10.17, 15.05 2.49 M3.64 21.71 C8.02 16.72, 17.01 7.03, 21.35 1.34 M3.64 21.71 C9.27 15.92, 14.84 8.22, 21.35 1.34 M3.38 28.11 C12.7 18.29, 17.22 12.02, 27 0.94 M3.38 28.11 C10.92 21.13, 17.41 11.75, 27 0.94 M3.12 34.51 C13.32 21.53, 24.14 10.26, 31.98 1.3 M3.12 34.51 C11.36 26.88, 17.77 18.11, 31.98 1.3 M3.51 40.15 C11.16 32.13, 15.92 22.14, 37.63 0.91 M3.51 40.15 C14.18 28.05, 23.24 16.23, 37.63 0.91 M3.25 46.55 C11.68 35.29, 19.41 26.48, 42.61 1.27 M3.25 46.55 C16.63 29.91, 31.95 13.9, 42.61 1.27 M3.65 52.19 C17.77 36.37, 34.23 18.6, 48.26 0.87 M3.65 52.19 C18.11 35.82, 31.79 18.97, 48.26 0.87 M3.38 58.59 C15.17 48.08, 25.41 34.55, 53.24 1.23 M3.38 58.59 C19.56 40.38, 35.06 23.23, 53.24 1.23 M3.12 64.99 C25.05 40.73, 45.97 15.8, 58.89 0.84 M3.12 64.99 C24.17 41.07, 44.76 18.06, 58.89 0.84 M3.52 70.63 C19.73 48.5, 39.84 29.66, 63.87 1.2 M3.52 70.63 C25.96 44.71, 49.83 17.62, 63.87 1.2 M3.26 77.03 C19.25 59.32, 33.16 42.09, 69.52 0.81 M3.26 77.03 C25.59 51.38, 46.26 26.86, 69.52 0.81 M2.34 84.18 C26.95 57.37, 49.75 32.36, 74.5 1.17 M2.34 84.18 C20.42 63.12, 37.64 42.9, 74.5 1.17 M4.04 88.32 C23.08 66.52, 41.55 46.35, 80.15 0.77 M4.04 88.32 C20.79 67.47, 40.68 45.89, 80.15 0.77 M5.1 93.21 C32.04 61.61, 57.6 31.08, 85.13 1.13 M5.1 93.21 C25.25 70.59, 44.84 48.99, 85.13 1.13 M8.11 95.83 C36.5 63.3, 64.18 29.04, 90.12 1.49 M8.11 95.83 C27.74 70.99, 49.99 46.86, 90.12 1.49 M10.48 99.21 C34.23 72.22, 56.48 48.13, 95.76 1.1 M10.48 99.21 C36.07 70.7, 61.86 40.63, 95.76 1.1 M14.81 100.32 C44.24 67.32, 72.57 32.06, 100.75 1.46 M14.81 100.32 C37.21 75.61, 60.68 50.75, 100.75 1.46 M19.79 100.68 C38.77 79.8, 57.83 59.58, 106.39 1.06 M19.79 100.68 C53.55 62.29, 87.57 22.75, 106.39 1.06 M24.13 101.8 C44.23 79.16, 65.98 55.19, 111.38 1.42 M24.13 101.8 C45.19 78.2, 65.15 53.84, 111.38 1.42 M27.8 103.67 C61.71 64.79, 91.89 29.21, 117.02 1.03 M27.8 103.67 C52.93 73.69, 80.07 45.18, 117.02 1.03 M32.79 104.03 C55.78 75.27, 81.41 46.34, 122.01 1.39 M32.79 104.03 C61.21 72.89, 88.29 40.94, 122.01 1.39 M38.43 103.63 C61.34 78.77, 87.01 49.44, 127.65 0.99 M38.43 103.63 C57.58 81.86, 76.66 62.25, 127.65 0.99 M43.42 103.99 C72.29 71.25, 101.95 37.72, 132.64 1.35 M43.42 103.99 C71.62 71.37, 100.73 37.4, 132.64 1.35 M49.06 103.6 C78.51 66.59, 112.17 31.24, 138.29 0.96 M49.06 103.6 C82.13 67.15, 113.75 29.06, 138.29 0.96 M54.05 103.96 C80.06 73.56, 104.85 42.63, 143.27 1.32 M54.05 103.96 C75.23 79.42, 98.45 54.04, 143.27 1.32 M59.69 103.56 C81.77 82.07, 99.62 58.75, 148.92 0.92 M59.69 103.56 C80.43 81.07, 99.54 59.92, 148.92 0.92 M64.68 103.92 C91.33 71.56, 118.95 40.64, 153.25 2.04 M64.68 103.92 C95.65 68.95, 127.27 32.51, 153.25 2.04 M70.32 103.53 C89.24 81.7, 105.78 62.5, 157.58 3.15 M70.32 103.53 C90.01 79.45, 109.62 56.1, 157.58 3.15 M75.31 103.89 C103.12 72.56, 128.58 40.93, 161.91 4.27 M75.31 103.89 C95.32 78.85, 118.56 53.78, 161.91 4.27 M80.95 103.5 C110.64 71.18, 136.96 39.49, 166.9 4.63 M80.95 103.5 C106.74 73.39, 132.15 43.53, 166.9 4.63 M85.94 103.86 C109.75 76.79, 132.35 48.08, 169.91 7.25 M85.94 103.86 C109.95 76.73, 132.18 48.66, 169.91 7.25 M90.93 104.22 C119.24 72.02, 151.95 37.36, 172.93 9.88 M90.93 104.22 C121.33 71.63, 149.83 38.01, 172.93 9.88 M96.57 103.82 C117.09 81.2, 135.93 55.74, 173.98 14.77 M96.57 103.82 C118.98 78.84, 139.59 53.24, 173.98 14.77 M101.56 104.18 C115.42 85.92, 132.52 65.99, 175.69 18.9 M101.56 104.18 C123.22 78.85, 146.41 52.41, 175.69 18.9 M107.2 103.79 C127.52 83.94, 143.42 60.16, 178.05 22.28 M107.2 103.79 C122.72 86.65, 137.65 68.3, 178.05 22.28 M112.19 104.15 C133.48 79.88, 153.48 55.27, 178.45 27.92 M112.19 104.15 C132.93 78.55, 154.77 55.56, 178.45 27.92 M117.83 103.75 C141.29 78.5, 161.04 53.04, 178.19 34.32 M117.83 103.75 C130.17 88.34, 143.58 74.54, 178.19 34.32 M122.82 104.11 C135.56 91.99, 149.19 76.43, 178.58 39.96 M122.82 104.11 C144.33 80.26, 166.52 55.55, 178.58 39.96 M128.46 103.72 C138.18 90.85, 152.92 79.07, 178.32 46.36 M128.46 103.72 C141.09 89.22, 154.75 73.36, 178.32 46.36 M133.45 104.08 C143.95 92.58, 152.19 83.07, 178.71 52 M133.45 104.08 C146.1 88.38, 161.19 73.12, 178.71 52 M139.09 103.68 C147.46 93.6, 159.21 81.57, 178.45 58.4 M139.09 103.68 C151.25 89.26, 162.63 75.4, 178.45 58.4 M144.08 104.04 C154.42 90.97, 164.52 79.1, 178.85 64.04 M144.08 104.04 C154.43 92.13, 164.97 81.36, 178.85 64.04 M151.03 102.14 C159.13 91.33, 166.08 82.24, 178.59 70.44 M151.03 102.14 C156.37 96.06, 161.76 89.84, 178.59 70.44 M157.33 100.99 C163.13 94.56, 166.55 89.76, 177.67 77.59 M157.33 100.99 C162.08 96.38, 166.3 92.27, 177.67 77.59 M164.29 99.09 C167.95 94.29, 171.78 89.1, 175.44 86.26 M164.29 99.09 C168.72 94.41, 172.31 89.9, 175.44 86.26" stroke="#15aabf" stroke-width="0.5" fill="none"></path><path d="M25.5 0 M25.5 0 C57.87 -1.62, 91.64 1.03, 150.5 0 M25.5 0 C61.79 -1.15, 98.97 -1.36, 150.5 0 M150.5 0 C168.59 1.28, 177.05 7.93, 176 25.5 M150.5 0 C169.76 0.85, 174.39 6.73, 176 25.5 M176 25.5 C175.4 40.96, 174.45 53.77, 176 76.5 M176 25.5 C175.38 38.72, 175.58 53.2, 176 76.5 M176 76.5 C177.15 95.23, 169.31 101.26, 150.5 102 M176 76.5 C175.1 92.24, 165.26 101.66, 150.5 102 M150.5 102 C108.66 102.89, 65.3 100.96, 25.5 102 M150.5 102 C115.5 101.11, 79.54 102.72, 25.5 102 M25.5 102 C10.35 100.57, -1.01 92.37, 0 76.5 M25.5 102 C9.44 100.47, 2.03 94.57, 0 76.5 M0 76.5 C0.57 54.99, 0.22 36.49, 0 25.5 M0 76.5 C1.06 56.59, 0.87 38.97, 0 25.5 M0 25.5 C-0.7 10.02, 7.74 -0.38, 25.5 0 M0 25.5 C-1.65 8.96, 10.04 1.03, 25.5 0" stroke="#000000" stroke-width="1" fill="none"></path></g><g transform="translate(166.9900360107422 201) rotate(0 57.00996398925781 12.5)"><text x="57.00996398925781" y="0" font-family="Virgil, Segoe UI Emoji" font-size="20px" fill="#000000" text-anchor="middle" style="white-space: pre;" direction="ltr" dominant-baseline="text-before-edge">WASM world</text></g><g stroke-linecap="round" transform="translate(35 228) rotate(0 36.5 29.5)"><path d="M3.47 16.27 C3.47 16.27, 3.47 16.27, 3.47 16.27 M3.47 16.27 C3.47 16.27, 3.47 16.27, 3.47 16.27 M4.04 22.37 C9.2 15.95, 10.88 11.44, 21.47 2 M3.05 23.94 C8.49 16.12, 14.77 9.33, 20.78 2.21 M0.17 31.3 C6.58 21.5, 14.22 14.87, 24.04 1.61 M1.37 31.32 C7.65 22.59, 14.52 15.41, 26.17 2.07 M0.99 34.51 C15.5 23.88, 22.45 11.75, 33.21 2.47 M3.27 35.2 C12.16 24.62, 22.2 14.41, 31.62 2.06 M4.21 41.4 C13.11 30.17, 22.52 18.6, 38.31 0.67 M4.82 39.28 C13.79 27.9, 25.04 14.58, 36.96 2.06 M4.96 43.42 C20.64 29.6, 32.79 13.94, 42.04 0.72 M6.14 42.11 C17.59 29.81, 29.51 18.01, 43.12 1.13 M8.15 44.51 C18.98 34.21, 27.2 24.95, 48.21 2.24 M8.35 45.92 C20.36 33.22, 32.87 20.51, 46.36 2.57 M11.41 51.94 C17.91 41.89, 28.94 30.74, 50.56 4.54 M11.03 49.93 C24.78 34.89, 35.98 20.9, 51.74 4.94 M13.99 52.93 C21.41 39.87, 31.08 32.07, 52.55 5.81 M13.73 51.36 C23.85 42.16, 34.27 30.23, 55.39 5.7 M18.55 56.07 C28.18 40.4, 39.22 26.2, 58.21 9.42 M18.24 53.37 C33.88 37.05, 48.01 19.21, 57.95 7.98 M23.93 55.39 C36.46 41.14, 46.93 26.03, 63.11 11.34 M22.04 55.48 C32.75 44.25, 40.79 35.04, 62.16 10.37 M26.26 56.02 C34.76 45.69, 44.78 33.94, 64.68 11.76 M25.88 57.73 C37.59 44.67, 47.94 32.03, 65.65 11.04 M28.47 58.06 C39.1 48.57, 48.54 37.69, 66.52 16.96 M29.87 58.96 C43.73 41.35, 59.22 24.94, 67.86 16.02 M37.93 56.92 C48.21 42.76, 60.07 31.5, 71.95 19.18 M35.73 57.59 C49.33 43.07, 62.16 26.96, 70.14 19.49 M40.86 56.01 C49.95 45.34, 61.23 37.72, 73.03 22.25 M41.69 56.74 C53.45 43.41, 65.7 30.14, 71.37 21.87 M47.18 54.83 C54.88 47.66, 63.75 41.69, 76.15 25.46 M47.95 56.77 C55.11 48.01, 62.2 41.81, 74.05 26.15 M55.46 54.08 C60.81 51.03, 66.61 42, 71.76 32.98 M54.21 56.83 C59.51 48.71, 66.92 39.95, 72.66 33.7" stroke="#fd7e14" stroke-width="0.5" fill="none"></path><path d="M19.92 3.37 C25.55 0.53, 34.39 -0.83, 41.57 0.22 C48.74 1.27, 57.87 5.63, 63 9.68 C68.12 13.74, 71.39 19.18, 72.31 24.56 C73.24 29.95, 71.83 36.85, 68.53 41.99 C65.23 47.13, 58.95 52.62, 52.51 55.41 C46.06 58.2, 36.93 59.67, 29.85 58.72 C22.78 57.78, 14.92 53.84, 10.05 49.76 C5.18 45.68, 1.69 39.85, 0.61 34.24 C-0.46 28.63, 0.12 21.48, 3.62 16.1 C7.12 10.73, 18.26 4.37, 21.6 1.99 C24.95 -0.39, 23.23 1.21, 23.67 1.84 M29.93 0.74 C36.57 -0.22, 44.54 1.84, 51.15 4.37 C57.75 6.9, 66.04 11.09, 69.59 15.92 C73.13 20.75, 73.62 27.57, 72.42 33.37 C71.21 39.16, 67.32 46.3, 62.37 50.67 C57.42 55.04, 49.58 58.49, 42.7 59.58 C35.83 60.67, 27.7 59.9, 21.11 57.2 C14.52 54.5, 6.61 48.65, 3.17 43.37 C-0.28 38.09, -0.61 31.09, 0.43 25.52 C1.46 19.95, 4.25 13.97, 9.37 9.94 C14.5 5.92, 27.86 2.88, 31.16 1.37 C34.46 -0.15, 29.14 0.45, 29.16 0.86" stroke="#000000" stroke-width="1" fill="none"></path></g><g transform="translate(51.94661444958166 247.64034995499685) rotate(0 19.743988037109375 10)"><text x="19.743988037109375" y="0" font-family="Virgil, Segoe UI Emoji" font-size="16px" fill="#000000" text-anchor="middle" style="white-space: pre;" direction="ltr" dominant-baseline="text-before-edge">data</text></g><g stroke-linecap="round" transform="translate(251 37) rotate(0 36.5 47)"><path d="M4.86 4.22 C4.86 4.22, 4.86 4.22, 4.86 4.22 M4.86 4.22 C4.86 4.22, 4.86 4.22, 4.86 4.22 M1.32 14.39 C5.12 8.92, 8.91 4.92, 11.81 2.32 M1.32 14.39 C3.77 10.62, 7.38 7.65, 11.81 2.32 M1.05 20.79 C6.24 12, 15.56 5.28, 18.77 0.41 M1.05 20.79 C4.41 16.68, 9.22 11.89, 18.77 0.41 M0.79 27.19 C6.24 18.1, 14.49 11.47, 23.76 0.77 M0.79 27.19 C9.03 15.92, 19.87 5.39, 23.76 0.77 M1.19 32.83 C11.72 22.85, 20.23 11.41, 29.4 0.38 M1.19 32.83 C9.95 23.34, 17.76 14.2, 29.4 0.38 M0.93 39.23 C9.9 32.28, 13.62 24.98, 34.39 0.74 M0.93 39.23 C13.35 23.1, 26.87 9.21, 34.39 0.74 M0.66 45.63 C10.38 35.24, 15.1 25.58, 40.03 0.35 M0.66 45.63 C11.66 33.76, 21.57 20.06, 40.03 0.35 M1.06 51.27 C13.72 36.89, 22.47 23.83, 45.02 0.71 M1.06 51.27 C10.63 40.47, 17.91 30.76, 45.02 0.71 M0.8 57.67 C10.49 43.85, 21.34 32.83, 50.66 0.31 M0.8 57.67 C18.02 39.05, 34.19 20.4, 50.66 0.31 M0.54 64.07 C13.92 48.23, 23.28 35.99, 55.65 0.67 M0.54 64.07 C13.69 47.51, 28.75 31.68, 55.65 0.67 M0.93 69.71 C19.93 47.21, 39.65 23.01, 60.63 1.03 M0.93 69.71 C17.44 50.87, 34.14 31.8, 60.63 1.03 M0.67 76.11 C21.85 52.78, 40.81 29.49, 64.31 2.9 M0.67 76.11 C20.2 52.7, 40.1 30.43, 64.31 2.9 M1.72 81 C19 61.22, 36.02 45.67, 67.98 4.77 M1.72 81 C26.12 52.15, 49.98 24.65, 67.98 4.77 M2.77 85.88 C28.2 59.28, 49.64 31.15, 71 7.39 M2.77 85.88 C19.75 67.33, 37.45 47.58, 71 7.39 M5.13 89.26 C30.29 58.52, 56.76 30.46, 72.05 12.28 M5.13 89.26 C23.63 69.43, 39.64 50.19, 72.05 12.28 M8.15 91.89 C21.56 76.98, 38.33 60.48, 73.1 17.17 M8.15 91.89 C24.35 70.6, 42.63 50.45, 73.1 17.17 M11.83 93.76 C29.41 70.23, 48.83 49.99, 75.47 20.55 M11.83 93.76 C27.39 76.14, 43.71 59.48, 75.47 20.55 M15.5 95.63 C38.22 66.82, 62.58 42.43, 75.86 26.19 M15.5 95.63 C35.02 74.4, 52.13 53.77, 75.86 26.19 M21.15 95.23 C32.91 80.51, 49.84 65.09, 75.6 32.59 M21.15 95.23 C34.32 80.55, 47.25 67.36, 75.6 32.59 M26.13 95.59 C45.65 71.76, 64.2 51.11, 75.34 38.99 M26.13 95.59 C45.83 73.58, 64.22 53.84, 75.34 38.99 M31.78 95.2 C42.65 80.54, 55.07 69.93, 75.73 44.63 M31.78 95.2 C47.54 78.36, 61.83 59.77, 75.73 44.63 M36.76 95.56 C50.18 79.34, 64.15 65.95, 75.47 51.03 M36.76 95.56 C46.1 83.87, 56.63 71.11, 75.47 51.03 M42.41 95.16 C49.81 85.83, 58.66 74.06, 75.86 56.67 M42.41 95.16 C52.92 81.78, 65.71 68.08, 75.86 56.67 M47.39 95.52 C55.92 86.56, 62.02 80.97, 75.6 63.07 M47.39 95.52 C56.16 86.5, 63.36 76.77, 75.6 63.07 M52.38 95.88 C61.52 86.31, 66.01 77.36, 75.34 69.47 M52.38 95.88 C61.83 85.55, 71.46 74.47, 75.34 69.47 M57.37 96.24 C62.13 91.96, 67.81 83.71, 74.42 76.62 M57.37 96.24 C63.2 88.93, 71.2 80.94, 74.42 76.62" stroke="#15aabf" stroke-width="0.5" fill="none"></path><path d="M18.25 0 M18.25 0 C27.86 1.1, 34.83 1.04, 54.75 0 M18.25 0 C29.81 0.54, 40.17 0.51, 54.75 0 M54.75 0 C67.45 1.54, 71.78 4.36, 73 18.25 M54.75 0 C64.78 -1.18, 71.18 7.21, 73 18.25 M73 18.25 C71.94 39.74, 73.22 59.88, 73 75.75 M73 18.25 C72.44 33.64, 74.19 49.04, 73 75.75 M73 75.75 C71.92 87.83, 68.84 94.45, 54.75 94 M73 75.75 C72.08 86.69, 68.82 95.47, 54.75 94 M54.75 94 C42.52 95.8, 24.64 94.13, 18.25 94 M54.75 94 C43.32 94.77, 31.35 93.25, 18.25 94 M18.25 94 C4.5 94.2, 1.42 88.53, 0 75.75 M18.25 94 C8.04 95.88, 1.39 87.76, 0 75.75 M0 75.75 C-1.58 62.39, -1.54 46.04, 0 18.25 M0 75.75 C-0.83 56.59, -0.78 37.28, 0 18.25 M0 18.25 C1.27 5.43, 7.37 0.08, 18.25 0 M0 18.25 C-2.17 6.27, 6.75 1.13, 18.25 0" stroke="#000000" stroke-width="1" fill="none"></path></g><g transform="translate(259.7400131225586 59) rotate(0 27.759986877441406 25)"><text x="27.759986877441406" y="0" font-family="Virgil, Segoe UI Emoji" font-size="20px" fill="#000000" text-anchor="middle" style="white-space: pre;" direction="ltr" dominant-baseline="text-before-edge">WASM</text><text x="27.759986877441406" y="25" font-family="Virgil, Segoe UI Emoji" font-size="20px" fill="#000000" text-anchor="middle" style="white-space: pre;" direction="ltr" dominant-baseline="text-before-edge">apps</text></g><g stroke-linecap="round" transform="translate(10 10) rotate(0 32.5 51.5)"><path d="M2.48 6.13 C2.48 6.13, 2.48 6.13, 2.48 6.13 M2.48 6.13 C2.48 6.13, 2.48 6.13, 2.48 6.13 M1.56 13.28 C3.27 11.29, 4.94 9.61, 8.78 4.98 M1.56 13.28 C3.95 10.35, 6.26 7.1, 8.78 4.98 M1.3 19.68 C3.97 14.71, 9.03 10.19, 17.7 0.81 M1.3 19.68 C8.2 13.54, 12.59 6.24, 17.7 0.81 M1.69 25.32 C6.66 19.59, 13.93 12.92, 22.69 1.17 M1.69 25.32 C9.73 16.52, 16.44 7.69, 22.69 1.17 M1.43 31.72 C10.25 23.47, 17.62 13.18, 28.33 0.78 M1.43 31.72 C8.9 23.38, 14.83 15.71, 28.33 0.78 M1.83 37.36 C15.03 22.15, 25 8.55, 33.32 1.14 M1.83 37.36 C9.73 28.16, 17.77 20.09, 33.32 1.14 M1.56 43.76 C9.07 33.93, 18.52 24.72, 38.3 1.5 M1.56 43.76 C10.43 33.19, 19.06 22.88, 38.3 1.5 M1.96 49.4 C15.33 37.73, 24.38 21.9, 43.95 1.1 M1.96 49.4 C13.11 37.61, 22.26 26.01, 43.95 1.1 M1.7 55.8 C20.11 33.55, 38.99 14.93, 48.93 1.46 M1.7 55.8 C11.87 43.66, 20.1 32.7, 48.93 1.46 M2.09 61.44 C21.08 42.35, 36.1 21.04, 53.92 1.82 M2.09 61.44 C18.15 43.99, 33.56 24.9, 53.92 1.82 M1.83 67.84 C24.8 43.26, 44.88 19.57, 58.91 2.18 M1.83 67.84 C19 49.74, 34.69 29.93, 58.91 2.18 M2.22 73.48 C22.5 48.75, 45.86 20.95, 61.27 5.56 M2.22 73.48 C20.12 53.55, 37.56 35.24, 61.27 5.56 M1.96 79.88 C15.46 64.03, 28.13 48.57, 63.63 8.94 M1.96 79.88 C14.75 65.48, 28.75 49.58, 63.63 8.94 M2.36 85.53 C14.98 68.44, 30.75 53.7, 66.65 11.56 M2.36 85.53 C27.68 57.36, 50.34 30.87, 66.65 11.56 M2.1 91.92 C25.89 62.83, 52.73 31.12, 67.05 17.21 M2.1 91.92 C26.69 64.63, 51.57 33.93, 67.05 17.21 M3.8 96.06 C21.85 73.89, 40.76 53.53, 66.78 23.6 M3.8 96.06 C20.15 77.08, 37.3 56.1, 66.78 23.6 M6.17 99.44 C18.85 82.42, 31.13 67.19, 67.18 29.25 M6.17 99.44 C29.15 73.08, 51.1 47.19, 67.18 29.25 M8.53 102.81 C28.5 81.82, 47.68 58.15, 66.92 35.65 M8.53 102.81 C20.85 89.23, 34.79 73.78, 66.92 35.65 M13.52 103.17 C33.87 80.17, 52.27 58.82, 67.31 41.29 M13.52 103.17 C25.99 90.42, 35.53 77.78, 67.31 41.29 M18.5 103.53 C36.56 83.25, 58.14 61.22, 67.05 47.69 M18.5 103.53 C36.04 82.87, 52 64.71, 67.05 47.69 M24.15 103.14 C35.98 92.32, 43.06 78.05, 66.79 54.08 M24.15 103.14 C37.87 88.61, 50.85 72.51, 66.79 54.08 M29.13 103.5 C37.26 93.92, 46.88 81.03, 67.18 59.73 M29.13 103.5 C41.4 88.68, 54.47 74.06, 67.18 59.73 M34.78 103.11 C46.67 87.56, 58.44 76.58, 66.92 66.13 M34.78 103.11 C46.58 89.62, 57.09 77.59, 66.92 66.13 M40.42 102.71 C46.85 96.12, 54.58 85.36, 67.32 71.77 M40.42 102.71 C50.1 90.03, 60.87 78.02, 67.32 71.77 M45.41 103.07 C55.68 94.01, 61.06 84.48, 67.06 78.17 M45.41 103.07 C49.47 98.82, 54.43 93.41, 67.06 78.17 M51.05 102.68 C54.62 99.42, 56.13 95.87, 67.45 83.81 M51.05 102.68 C54.29 99.19, 58.29 94.58, 67.45 83.81 M56.69 102.28 C59.49 97.4, 63.52 94.76, 65.88 91.72 M56.69 102.28 C60 98.03, 63.52 94.54, 65.88 91.72" stroke="#228be6" stroke-width="0.5" fill="none"></path><path d="M16.25 0 M16.25 0 C27.74 -0.54, 38.2 0.31, 48.75 0 M16.25 0 C25.94 -0.87, 33.31 -0.54, 48.75 0 M48.75 0 C58.89 1.88, 66.78 6.49, 65 16.25 M48.75 0 C60.54 -0.25, 66.87 7.33, 65 16.25 M65 16.25 C64.06 31.96, 64.35 50.53, 65 86.75 M65 16.25 C65.86 34.54, 66.46 53.68, 65 86.75 M65 86.75 C64.03 96.06, 58.19 102.06, 48.75 103 M65 86.75 C63.3 98.83, 58.39 101.72, 48.75 103 M48.75 103 C36.72 102.84, 26.69 101.63, 16.25 103 M48.75 103 C40.8 103.48, 33.53 103.12, 16.25 103 M16.25 103 C4.9 104.45, 1.43 97.21, 0 86.75 M16.25 103 C5.4 104.42, -2.03 99.19, 0 86.75 M0 86.75 C-1.36 64.39, -0.28 45.72, 0 16.25 M0 86.75 C-0.8 59.66, 0.43 31.76, 0 16.25 M0 16.25 C1.77 4.34, 3.43 0.43, 16.25 0 M0 16.25 C-1.97 4.01, 5.9 0.03, 16.25 0" stroke="#000000" stroke-width="1" fill="none"></path></g><g transform="translate(20.370025634765625 49) rotate(0 22.129974365234375 12.5)"><text x="22.129974365234375" y="0" font-family="Virgil, Segoe UI Emoji" font-size="20px" fill="#000000" text-anchor="middle" style="white-space: pre;" direction="ltr" dominant-baseline="text-before-edge">Host</text></g><g stroke-linecap="round"><g transform="translate(88.4750795034455 55) rotate(0 79.55654965719458 4.170607424337163)"><path d="M0.38 1.15 C26.81 2.02, 131.42 5.53, 157.71 6.4 M-0.88 0.71 C26.01 2.24, 133.66 6.52, 159.99 7.63" stroke="#000000" stroke-width="1" fill="none"></path></g><g transform="translate(88.4750795034455 55) rotate(0 79.55654965719458 4.170607424337163)"><path d="M133.32 15.36 C136.81 13.87, 143.24 14.29, 161.01 8.38 M131.1 16.25 C140.05 13.91, 149.6 10.63, 159.05 6.88" stroke="#000000" stroke-width="1" fill="none"></path></g><g transform="translate(88.4750795034455 55) rotate(0 79.55654965719458 4.170607424337163)"><path d="M134.17 -5.14 C137.66 -1.99, 143.9 3.07, 161.01 8.38 M131.94 -4.26 C140.78 0.32, 150.04 3.94, 159.05 6.88" stroke="#000000" stroke-width="1" fill="none"></path></g></g><mask></mask><g transform="translate(88 20) rotate(0 64.00994873046875 12.5)"><text x="0" y="0" font-family="Virgil, Segoe UI Emoji" font-size="20px" fill="#000000" text-anchor="start" style="white-space: pre;" direction="ltr" dominant-baseline="text-before-edge">passing data</text></g><g stroke-linecap="round" transform="translate(90 65) rotate(0 8 9)"><path d="M4.29 -0.24 C4.29 -0.24, 4.29 -0.24, 4.29 -0.24 M4.29 -0.24 C4.29 -0.24, 4.29 -0.24, 4.29 -0.24 M1.17 10.63 C3.1 7.71, 6.68 4.08, 8.04 -0.76 M-0.6 10.25 C3.68 6.1, 6.48 2.47, 9.9 -0.45 M3.74 14.83 C3.81 12.86, 7.04 10.41, 12.45 2.98 M2.51 14.29 C5.54 10.02, 9.18 6.46, 13 2.45 M6.92 17.1 C8.5 14.98, 8.7 11.06, 15.2 6.03 M5.42 16.55 C8.97 12, 13.94 8.17, 16.65 5.27 M8 19.25 C12.83 15.47, 15.24 12.48, 16.43 8.56 M9.27 18.51 C11.54 16.36, 13.21 13.19, 16.93 9.75" stroke="#4c6ef5" stroke-width="0.5" fill="none"></path><path d="M4.11 -0.04 C5.4 -0.87, 7.65 -0.14, 9.49 0.42 C11.33 0.97, 13.93 1.89, 15.14 3.31 C16.34 4.73, 16.91 6.94, 16.72 8.93 C16.54 10.93, 15.37 13.62, 14.04 15.27 C12.72 16.92, 10.54 18.8, 8.78 18.84 C7.01 18.87, 4.95 16.86, 3.44 15.47 C1.94 14.08, 0.18 12.08, -0.25 10.49 C-0.69 8.9, 0.06 7.54, 0.85 5.92 C1.65 4.3, 3.63 1.65, 4.5 0.76 C5.37 -0.13, 6.07 0.4, 6.06 0.58 M12.46 -0.35 C14.14 0.37, 14.59 2.69, 15.06 4.45 C15.52 6.21, 15.48 7.99, 15.25 10.2 C15.01 12.41, 14.82 16.47, 13.67 17.71 C12.53 18.95, 10.26 18.14, 8.38 17.62 C6.51 17.1, 3.98 16.06, 2.43 14.59 C0.88 13.12, -1.02 10.65, -0.92 8.81 C-0.82 6.97, 1.65 5.01, 3.03 3.54 C4.41 2.07, 6.01 0.38, 7.36 0.02 C8.71 -0.35, 10.2 1.25, 11.13 1.34 C12.06 1.42, 12.94 0.65, 12.95 0.55" stroke="#000000" stroke-width="1" fill="none"></path></g><g stroke-linecap="round" transform="translate(186.5 227.75) rotate(0 36.5 29.5)"><path d="M3.47 16.27 C3.47 16.27, 3.47 16.27, 3.47 16.27 M3.47 16.27 C3.47 16.27, 3.47 16.27, 3.47 16.27 M4.04 22.37 C9.2 15.95, 10.88 11.44, 21.47 2 M3.05 23.94 C8.49 16.12, 14.77 9.33, 20.78 2.21 M0.17 31.3 C6.58 21.5, 14.22 14.87, 24.04 1.61 M1.37 31.32 C7.65 22.59, 14.52 15.41, 26.17 2.07 M0.99 34.51 C15.5 23.88, 22.45 11.75, 33.21 2.47 M3.27 35.2 C12.16 24.62, 22.2 14.41, 31.62 2.06 M4.21 41.4 C13.11 30.17, 22.52 18.6, 38.31 0.67 M4.82 39.28 C13.79 27.9, 25.04 14.58, 36.96 2.06 M4.96 43.42 C20.64 29.6, 32.79 13.94, 42.04 0.72 M6.14 42.11 C17.59 29.81, 29.51 18.01, 43.12 1.13 M8.15 44.51 C18.98 34.21, 27.2 24.95, 48.21 2.24 M8.35 45.92 C20.36 33.22, 32.87 20.51, 46.36 2.57 M11.41 51.94 C17.91 41.89, 28.94 30.74, 50.56 4.54 M11.03 49.93 C24.78 34.89, 35.98 20.9, 51.74 4.94 M13.99 52.93 C21.41 39.87, 31.08 32.07, 52.55 5.81 M13.73 51.36 C23.85 42.16, 34.27 30.23, 55.39 5.7 M18.55 56.07 C28.18 40.4, 39.22 26.2, 58.21 9.42 M18.24 53.37 C33.88 37.05, 48.01 19.21, 57.95 7.98 M23.93 55.39 C36.46 41.14, 46.93 26.03, 63.11 11.34 M22.04 55.48 C32.75 44.25, 40.79 35.04, 62.16 10.37 M26.26 56.02 C34.76 45.69, 44.78 33.94, 64.68 11.76 M25.88 57.73 C37.59 44.67, 47.94 32.03, 65.65 11.04 M28.47 58.06 C39.1 48.57, 48.54 37.69, 66.52 16.96 M29.87 58.96 C43.73 41.35, 59.22 24.94, 67.86 16.02 M37.93 56.92 C48.21 42.76, 60.07 31.5, 71.95 19.18 M35.73 57.59 C49.33 43.07, 62.16 26.96, 70.14 19.49 M40.86 56.01 C49.95 45.34, 61.23 37.72, 73.03 22.25 M41.69 56.74 C53.45 43.41, 65.7 30.14, 71.37 21.87 M47.18 54.83 C54.88 47.66, 63.75 41.69, 76.15 25.46 M47.95 56.77 C55.11 48.01, 62.2 41.81, 74.05 26.15 M55.46 54.08 C60.81 51.03, 66.61 42, 71.76 32.98 M54.21 56.83 C59.51 48.71, 66.92 39.95, 72.66 33.7" stroke="#7950f2" stroke-width="0.5" fill="none"></path><path d="M19.92 3.37 C25.55 0.53, 34.39 -0.83, 41.57 0.22 C48.74 1.27, 57.87 5.63, 63 9.68 C68.12 13.74, 71.39 19.18, 72.31 24.56 C73.24 29.95, 71.83 36.85, 68.53 41.99 C65.23 47.13, 58.95 52.62, 52.51 55.41 C46.06 58.2, 36.93 59.67, 29.85 58.72 C22.78 57.78, 14.92 53.84, 10.05 49.76 C5.18 45.68, 1.69 39.85, 0.61 34.24 C-0.46 28.63, 0.12 21.48, 3.62 16.1 C7.12 10.73, 18.26 4.37, 21.6 1.99 C24.95 -0.39, 23.23 1.21, 23.67 1.84 M29.93 0.74 C36.57 -0.22, 44.54 1.84, 51.15 4.37 C57.75 6.9, 66.04 11.09, 69.59 15.92 C73.13 20.75, 73.62 27.57, 72.42 33.37 C71.21 39.16, 67.32 46.3, 62.37 50.67 C57.42 55.04, 49.58 58.49, 42.7 59.58 C35.83 60.67, 27.7 59.9, 21.11 57.2 C14.52 54.5, 6.61 48.65, 3.17 43.37 C-0.28 38.09, -0.61 31.09, 0.43 25.52 C1.46 19.95, 4.25 13.97, 9.37 9.94 C14.5 5.92, 27.86 2.88, 31.16 1.37 C34.46 -0.15, 29.14 0.45, 29.16 0.86" stroke="#000000" stroke-width="1" fill="none"></path></g><g transform="translate(203.4466144495816 247.39034995499685) rotate(0 19.743988037109375 10)"><text x="19.743988037109375" y="0" font-family="Virgil, Segoe UI Emoji" font-size="16px" fill="#000000" text-anchor="middle" style="white-space: pre;" direction="ltr" dominant-baseline="text-before-edge">data</text></g><g stroke-linecap="round"><g transform="translate(85 287.25) rotate(0 61.03505031131209 22.008267990328534)"><path d="M-0.28 0.59 C8.67 7.76, 33.26 43.51, 53.7 44.15 C74.14 44.79, 110.85 10.78, 122.35 4.43 M1.77 -0.14 C10.63 7.24, 33.21 41.7, 53.12 42.63 C73.03 43.56, 109.64 11.88, 121.24 5.46" stroke="#000000" stroke-width="1" fill="none"></path></g><g transform="translate(85 287.25) rotate(0 61.03505031131209 22.008267990328534)"><path d="M104.8 31.04 C110.69 21.56, 113.03 14.84, 123.06 6.82 M103.62 30.41 C108.12 24.29, 112.44 18.91, 122.19 4.86" stroke="#000000" stroke-width="1" fill="none"></path></g><g transform="translate(85 287.25) rotate(0 61.03505031131209 22.008267990328534)"><path d="M93.18 14.13 C102.7 9.71, 108.49 8.03, 123.06 6.82 M92.01 13.5 C99.09 11.02, 105.99 9.4, 122.19 4.86" stroke="#000000" stroke-width="1" fill="none"></path></g></g><mask></mask><g transform="translate(45 333.25) rotate(0 117.84991455078125 25)"><text x="0" y="0" font-family="Virgil, Segoe UI Emoji" font-size="20px" fill="#000000" text-anchor="start" style="white-space: pre;" direction="ltr" dominant-baseline="text-before-edge">copy to wasm world</text><text x="0" y="25" font-family="Virgil, Segoe UI Emoji" font-size="20px" fill="#000000" text-anchor="start" style="white-space: pre;" direction="ltr" dominant-baseline="text-before-edge">and make them relevant</text></g><g stroke-linecap="round"><g transform="translate(102 96.25) rotate(0 28.064456390533707 77.29368158839642)"><path d="M-0.25 0.92 C-3.11 12.81, -31.3 46.43, -18.29 71.89 C-5.27 97.35, 61.9 140.09, 77.83 153.67" stroke="#000000" stroke-width="1.5" fill="none" stroke-dasharray="8 9"></path></g><g transform="translate(102 96.25) rotate(0 28.064456390533707 77.29368158839642)"><path d="M50.62 144.6 C56.64 146.65, 60.62 147.56, 76.8 151.93" stroke="#000000" stroke-width="1.5" fill="none"></path></g><g transform="translate(102 96.25) rotate(0 28.064456390533707 77.29368158839642)"><path d="M62.87 128.13 C66.39 133.61, 67.81 137.97, 76.8 151.93" stroke="#000000" stroke-width="1.5" fill="none"></path></g></g><mask></mask><g transform="translate(108 77.75) rotate(0 49.871971130371094 30)"><text x="0" y="0" font-family="Virgil, Segoe UI Emoji" font-size="16px" fill="#000000" text-anchor="start" style="white-space: pre;" direction="ltr" dominant-baseline="text-before-edge">a pointer</text><text x="0" y="20" font-family="Virgil, Segoe UI Emoji" font-size="16px" fill="#000000" text-anchor="start" style="white-space: pre;" direction="ltr" dominant-baseline="text-before-edge">point to</text><text x="0" y="40" font-family="Virgil, Segoe UI Emoji" font-size="16px" fill="#000000" text-anchor="start" style="white-space: pre;" direction="ltr" dominant-baseline="text-before-edge">data memory</text></g><g stroke-linecap="round"><g transform="translate(326 104.25) rotate(0 -12.762791884230467 82.22433967204762)"><path d="M-0.04 0.44 C6.31 21.93, 48.22 102.34, 37.55 129.74 C26.89 157.13, -46.9 159.18, -64.03 164.82 M-1.52 -0.37 C4.68 21.23, 46.92 103.92, 36.37 131.13 C25.82 158.35, -47.82 157.35, -64.81 162.91" stroke="#000000" stroke-width="1" fill="none"></path></g><g transform="translate(326 104.25) rotate(0 -12.762791884230467 82.22433967204762)"><path d="M-37.75 147.77 C-45.5 152.1, -50.36 153.81, -65.51 162.62 M-38.69 148.93 C-48.6 154.02, -59.95 160.39, -65.26 162.76" stroke="#000000" stroke-width="1" fill="none"></path></g><g transform="translate(326 104.25) rotate(0 -12.762791884230467 82.22433967204762)"><path d="M-34.66 168.06 C-43.32 167.25, -48.96 163.82, -65.51 162.62 M-35.6 169.21 C-46.8 166.33, -59.37 164.72, -65.26 162.76" stroke="#000000" stroke-width="1" fill="none"></path></g></g><mask></mask><g mask="url(#mask-L6VpNJEJu6Rxmvc6zmb0Y)" stroke-linecap="round"><g transform="translate(446 168.25) rotate(0 1.9463007962517054 -0.09121210835871807)"><path d="M0.19 -1.18 C0.92 -1.05, 4.24 0.9, 5.07 1 M-1.17 0.81 C-0.56 0.61, 3.65 -0.54, 4.68 -0.6" stroke="#000000" stroke-width="1" fill="none"></path></g><g transform="translate(446 168.25) rotate(0 1.9463007962517054 -0.09121210835871807)"><path d="M2.75 0.59 C3.73 0.24, 4.08 -0.45, 4.59 -0.52 M2.91 0.44 C3.7 -0.02, 4.38 -0.45, 4.6 -0.7" stroke="#000000" stroke-width="1" fill="none"></path></g><g transform="translate(446 168.25) rotate(0 1.9463007962517054 -0.09121210835871807)"><path d="M2.51 -0.76 C3.57 -0.63, 4.02 -0.83, 4.59 -0.52 M2.67 -0.9 C3.54 -0.85, 4.32 -0.75, 4.6 -0.7" stroke="#000000" stroke-width="1" fill="none"></path></g></g><mask id="mask-L6VpNJEJu6Rxmvc6zmb0Y"><rect x="0" y="0" fill="#fff" width="550" height="268.25"></rect><rect x="365.2080535888672" y="148.25" fill="#000" width="165.58389282226562" height="40" opacity="1"></rect></mask><g transform="translate(365.2080535888672 148.25) rotate(0 82.73824720738452 19.908787891641282)"><text x="82.79194641113281" y="0" font-family="Virgil, Segoe UI Emoji" font-size="16px" fill="#000000" text-anchor="middle" style="white-space: pre;" direction="ltr" dominant-baseline="text-before-edge">Successfully access</text><text x="82.79194641113281" y="20" font-family="Virgil, Segoe UI Emoji" font-size="16px" fill="#000000" text-anchor="middle" style="white-space: pre;" direction="ltr" dominant-baseline="text-before-edge">data through pointer</text></g></svg>