<svg version="1.1" xmlns="http://www.w3.org/2000/svg" viewBox="0 0 533.3332214355469 181" width="533.3332214355469" height="181">
  <!-- svg-source:excalidraw -->
  
  <defs>
    <style class="style-fonts">
      @font-face {
        font-family: "Virgil";
        src: url("https://file%2B.vscode-resource.vscode-cdn.net/c%3A/Users/jiongqia/.vscode/extensions/pomdtr.excalidraw-editor-3.5.1/public//dist/excalidraw-assets/Virgil.woff2");
      }
      @font-face {
        font-family: "Cascadia";
        src: url("https://file%2B.vscode-resource.vscode-cdn.net/c%3A/Users/jiongqia/.vscode/extensions/pomdtr.excalidraw-editor-3.5.1/public//dist/excalidraw-assets/Cascadia.woff2");
      }
    </style>
  </defs>
  <rect x="0" y="0" width="533.3332214355469" height="181" fill="#ffffff"></rect><g stroke-linecap="round" transform="translate(128.66668701171875 10) rotate(0 125 80.5)"><path d="M7.86 8.16 C7.86 8.16, 7.86 8.16, 7.86 8.16 M7.86 8.16 C7.86 8.16, 7.86 8.16, 7.86 8.16 M3.66 19.09 C7.71 14.43, 11.75 9.78, 18.1 2.48 M3.66 19.09 C8.16 13.91, 12.66 8.73, 18.1 2.48 M2.75 26.24 C8.35 19.79, 13.95 13.35, 25.05 0.58 M2.75 26.24 C8.03 20.15, 13.32 14.07, 25.05 0.58 M2.48 32.64 C10.14 23.83, 17.79 15.03, 30.7 0.18 M2.48 32.64 C13.27 20.23, 24.05 7.83, 30.7 0.18 M2.88 38.28 C11.35 28.54, 19.81 18.8, 34.37 2.05 M2.88 38.28 C12.75 26.92, 22.63 15.56, 34.37 2.05 M2.62 44.68 C13.29 32.4, 23.97 20.12, 39.36 2.41 M2.62 44.68 C15.07 30.36, 27.51 16.04, 39.36 2.41 M2.36 51.07 C12.26 39.69, 22.16 28.3, 45 2.02 M2.36 51.07 C14.11 37.55, 25.87 24.03, 45 2.02 M2.75 56.72 C20.25 36.59, 37.74 16.47, 49.99 2.38 M2.75 56.72 C13.16 44.74, 23.58 32.76, 49.99 2.38 M2.49 63.11 C18.09 45.16, 33.7 27.21, 55.63 1.98 M2.49 63.11 C19.34 43.74, 36.18 24.36, 55.63 1.98 M2.23 69.51 C15.87 53.82, 29.51 38.12, 60.62 2.34 M2.23 69.51 C21.22 47.66, 40.22 25.81, 60.62 2.34 M2.62 75.16 C27.86 46.13, 53.09 17.1, 66.26 1.95 M2.62 75.16 C27.47 46.58, 52.31 17.99, 66.26 1.95 M2.36 81.55 C22.61 58.26, 42.86 34.97, 71.25 2.31 M2.36 81.55 C16.89 64.84, 31.43 48.12, 71.25 2.31 M2.1 87.95 C22.64 64.33, 43.17 40.7, 76.89 1.91 M2.1 87.95 C17.67 70.04, 33.24 52.13, 76.89 1.91 M2.49 93.59 C22.76 70.28, 43.03 46.96, 81.88 2.27 M2.49 93.59 C25.86 66.71, 49.23 39.83, 81.88 2.27 M2.23 99.99 C23.76 75.23, 45.28 50.47, 87.52 1.88 M2.23 99.99 C22.86 76.26, 43.49 52.53, 87.52 1.88 M1.97 106.39 C30.28 73.83, 58.58 41.26, 92.51 2.24 M1.97 106.39 C24.77 80.17, 47.56 53.94, 92.51 2.24 M2.37 112.03 C25.83 85.04, 49.29 58.05, 98.15 1.85 M2.37 112.03 C33.27 76.49, 64.16 40.94, 98.15 1.85 M2.1 118.43 C37.6 77.6, 73.09 36.78, 103.14 2.21 M2.1 118.43 C24.23 92.98, 46.35 67.53, 103.14 2.21 M1.84 124.83 C40.13 80.79, 78.42 36.74, 108.78 1.81 M1.84 124.83 C27.58 95.23, 53.31 65.62, 108.78 1.81 M2.24 130.47 C40.97 85.92, 79.69 41.37, 113.77 2.17 M2.24 130.47 C45.84 80.31, 89.45 30.15, 113.77 2.17 M1.32 137.62 C35.32 98.51, 69.32 59.4, 119.41 1.78 M1.32 137.62 C42.16 90.65, 82.99 43.67, 119.41 1.78 M2.37 142.51 C47.18 90.97, 91.98 39.42, 124.4 2.14 M2.37 142.51 C29.49 111.32, 56.6 80.13, 124.4 2.14 M4.73 145.89 C45.03 99.53, 85.33 53.17, 130.04 1.74 M4.73 145.89 C48.24 95.84, 91.75 45.79, 130.04 1.74 M6.44 150.03 C53.81 95.53, 101.18 41.04, 135.03 2.1 M6.44 150.03 C35.57 116.52, 64.7 83.01, 135.03 2.1 M8.8 153.4 C53.2 102.33, 97.6 51.26, 140.67 1.71 M8.8 153.4 C50.13 105.87, 91.45 58.33, 140.67 1.71 M11.82 156.03 C65.19 94.64, 118.56 33.24, 145.66 2.07 M11.82 156.03 C62.3 97.97, 112.77 39.9, 145.66 2.07 M14.84 158.65 C42.18 127.2, 69.53 95.74, 150.65 2.43 M14.84 158.65 C51.8 116.13, 88.76 73.62, 150.65 2.43 M19.17 159.77 C73.58 97.18, 127.99 34.59, 156.29 2.03 M19.17 159.77 C61.2 111.41, 103.24 63.06, 156.29 2.03 M23.5 160.88 C75.09 101.54, 126.68 42.19, 161.28 2.39 M23.5 160.88 C52.55 127.47, 81.6 94.05, 161.28 2.39 M27.18 162.75 C81.91 99.79, 136.65 36.82, 166.92 2 M27.18 162.75 C70.04 113.44, 112.91 64.13, 166.92 2 M32.82 162.36 C75.3 113.49, 117.78 64.62, 171.91 2.36 M32.82 162.36 C71.21 118.19, 109.6 74.03, 171.91 2.36 M38.46 161.96 C80.63 113.45, 122.8 64.94, 177.55 1.96 M38.46 161.96 C84.23 109.32, 130 56.67, 177.55 1.96 M43.45 162.32 C76.05 124.82, 108.66 87.31, 182.54 2.32 M43.45 162.32 C95.43 102.53, 147.41 42.73, 182.54 2.32 M49.09 161.93 C96.62 107.26, 144.15 52.58, 188.18 1.93 M49.09 161.93 C102.52 100.47, 155.95 39.01, 188.18 1.93 M54.08 162.29 C108.61 99.55, 163.15 36.82, 193.17 2.29 M54.08 162.29 C105.45 103.19, 156.82 44.1, 193.17 2.29 M59.72 161.89 C88.69 128.57, 117.65 95.25, 198.81 1.9 M59.72 161.89 C107.3 107.16, 154.88 52.43, 198.81 1.9 M64.71 162.25 C120.32 98.29, 175.92 34.32, 203.8 2.26 M64.71 162.25 C104.71 116.24, 144.71 70.22, 203.8 2.26 M70.35 161.86 C111.31 114.74, 152.27 67.62, 209.44 1.86 M70.35 161.86 C116.58 108.69, 162.8 55.51, 209.44 1.86 M75.34 162.22 C112.82 119.1, 150.31 75.98, 214.43 2.22 M75.34 162.22 C118.83 112.19, 162.32 62.17, 214.43 2.22 M80.98 161.82 C120.3 116.6, 159.62 71.37, 220.07 1.83 M80.98 161.82 C128.79 106.83, 176.59 51.84, 220.07 1.83 M85.97 162.18 C114.58 129.27, 143.19 96.36, 226.37 0.68 M85.97 162.18 C140.45 99.52, 194.93 36.85, 226.37 0.68 M91.61 161.79 C139.7 106.47, 187.79 51.15, 230.7 1.79 M91.61 161.79 C122.82 125.89, 154.03 89.99, 230.7 1.79 M96.6 162.15 C151.14 99.41, 205.68 36.67, 234.37 3.66 M96.6 162.15 C126.44 127.83, 156.27 93.51, 234.37 3.66 M102.24 161.76 C149.4 107.52, 196.55 53.27, 238.05 5.53 M102.24 161.76 C140.54 117.71, 178.83 73.66, 238.05 5.53 M107.23 162.12 C138.11 126.59, 168.99 91.07, 241.72 7.4 M107.23 162.12 C142.27 121.81, 177.31 81.5, 241.72 7.4 M112.87 161.72 C144.68 125.13, 176.48 88.55, 244.74 10.02 M112.87 161.72 C150.24 118.74, 187.6 75.75, 244.74 10.02 M117.86 162.08 C153.98 120.54, 190.09 78.99, 247.11 13.4 M117.86 162.08 C162 111.3, 206.15 60.52, 247.11 13.4 M123.5 161.69 C157.47 122.61, 191.44 83.54, 248.16 18.29 M123.5 161.69 C155.28 125.14, 187.05 88.59, 248.16 18.29 M128.49 162.05 C165.97 118.94, 203.44 75.83, 249.21 23.18 M128.49 162.05 C157.54 128.63, 186.59 95.21, 249.21 23.18 M134.13 161.65 C178.35 110.79, 222.56 59.92, 251.57 26.56 M134.13 161.65 C167.28 123.52, 200.43 85.39, 251.57 26.56 M139.12 162.01 C170.35 126.09, 201.58 90.17, 251.31 32.96 M139.12 162.01 C172.57 123.53, 206.03 85.05, 251.31 32.96 M144.76 161.62 C185.07 115.25, 225.38 68.88, 251.05 39.35 M144.76 161.62 C177.77 123.65, 210.77 85.68, 251.05 39.35 M149.75 161.98 C183.26 123.43, 216.76 84.89, 251.44 45 M149.75 161.98 C171.51 136.95, 193.26 111.93, 251.44 45 M154.74 162.34 C193.07 118.25, 231.39 74.16, 251.18 51.4 M154.74 162.34 C187.93 124.16, 221.12 85.97, 251.18 51.4 M160.38 161.94 C178.57 141.03, 196.75 120.11, 250.92 57.79 M160.38 161.94 C182.75 136.22, 205.11 110.49, 250.92 57.79 M165.37 162.3 C185.84 138.75, 206.32 115.2, 251.31 63.44 M165.37 162.3 C186.59 137.89, 207.82 113.47, 251.31 63.44 M171.01 161.91 C188.62 141.65, 206.23 121.4, 251.05 69.83 M171.01 161.91 C188.3 142.03, 205.58 122.14, 251.05 69.83 M176 162.27 C206.15 127.59, 236.3 92.9, 251.45 75.48 M176 162.27 C201.81 132.58, 227.62 102.88, 251.45 75.48 M181.64 161.87 C202.86 137.47, 224.08 113.06, 251.18 81.87 M181.64 161.87 C202.41 137.99, 223.17 114.1, 251.18 81.87 M186.63 162.23 C203.99 142.26, 221.36 122.28, 250.92 88.27 M186.63 162.23 C200.27 146.54, 213.92 130.84, 250.92 88.27 M192.27 161.84 C213.83 137.04, 235.39 112.24, 251.32 93.92 M192.27 161.84 C205.98 146.07, 219.7 130.29, 251.32 93.92 M197.26 162.2 C214.95 141.85, 232.64 121.5, 251.06 100.31 M197.26 162.2 C213.35 143.69, 229.45 125.17, 251.06 100.31 M202.9 161.81 C217.44 145.09, 231.97 128.37, 251.45 105.96 M202.9 161.81 C218.12 144.3, 233.34 126.79, 251.45 105.96 M207.89 162.17 C222.85 144.95, 237.81 127.74, 251.19 112.35 M207.89 162.17 C221.07 147.01, 234.24 131.85, 251.19 112.35 M213.53 161.77 C228.42 144.65, 243.3 127.52, 250.93 118.75 M213.53 161.77 C228.43 144.64, 243.32 127.5, 250.93 118.75 M219.18 161.38 C231.41 147.3, 243.65 133.22, 251.32 124.4 M219.18 161.38 C231.66 147.02, 244.14 132.65, 251.32 124.4 M224.16 161.74 C233.58 150.9, 243 140.07, 251.72 130.04 M224.16 161.74 C232.49 152.16, 240.81 142.58, 251.72 130.04 M228.49 162.85 C237.09 152.96, 245.68 143.08, 250.8 137.19 M228.49 162.85 C236.78 153.32, 245.06 143.79, 250.8 137.19" stroke="#4c6ef5" stroke-width="0.5" fill="none"></path><path d="M32 0 M32 0 C69.58 0, 107.15 0, 218 0 M32 0 C106.36 0, 180.72 0, 218 0 M218 0 C239.33 0, 250 10.67, 250 32 M218 0 C239.33 0, 250 10.67, 250 32 M250 32 C250 68.89, 250 105.79, 250 129 M250 32 C250 62.85, 250 93.71, 250 129 M250 129 C250 150.33, 239.33 161, 218 161 M250 129 C250 150.33, 239.33 161, 218 161 M218 161 C155.98 161, 93.96 161, 32 161 M218 161 C157.97 161, 97.94 161, 32 161 M32 161 C10.67 161, 0 150.33, 0 129 M32 161 C10.67 161, 0 150.33, 0 129 M0 129 C0 105.2, 0 81.39, 0 32 M0 129 C0 92.56, 0 56.12, 0 32 M0 32 C0 10.67, 10.67 0, 32 0 M0 32 C0 10.67, 10.67 0, 32 0" stroke="#000000" stroke-width="1" fill="none"></path></g><g transform="translate(171.08675384521484 15) rotate(0 82.5799331665039 12.5)"><text x="82.5799331665039" y="0" font-family="Virgil, Segoe UI Emoji" font-size="20px" fill="#000000" text-anchor="middle" style="white-space: pre;" direction="ltr" dominant-baseline="text-before-edge">The native world</text></g><g stroke-linecap="round" transform="translate(172.33331298828125 73.00003051757812) rotate(0 86.5 40.5)"><path d="M5.39 4.69 C5.39 4.69, 5.39 4.69, 5.39 4.69 M5.39 4.69 C5.39 4.69, 5.39 4.69, 5.39 4.69 M1.19 15.61 C4.55 11.75, 7.91 7.89, 13 2.03 M1.19 15.61 C3.6 12.84, 6 10.08, 13 2.03 M0.93 22.01 C5.67 16.56, 10.4 11.11, 18.64 1.63 M0.93 22.01 C5.09 17.22, 9.26 12.43, 18.64 1.63 M0.67 28.41 C8.51 19.39, 16.35 10.37, 22.98 2.75 M0.67 28.41 C5.75 22.56, 10.84 16.71, 22.98 2.75 M1.06 34.05 C9.39 24.48, 17.71 14.9, 28.62 2.35 M1.06 34.05 C9.21 24.68, 17.36 15.3, 28.62 2.35 M0.8 40.45 C8.82 31.22, 16.84 21.99, 33.61 2.71 M0.8 40.45 C10.06 29.8, 19.31 19.15, 33.61 2.71 M0.54 46.85 C9.56 36.47, 18.58 26.09, 39.25 2.32 M0.54 46.85 C11.88 33.81, 23.21 20.77, 39.25 2.32 M0.94 52.49 C10.43 41.57, 19.92 30.64, 44.24 2.68 M0.94 52.49 C10.75 41.2, 20.56 29.91, 44.24 2.68 M0.67 58.89 C11.55 46.38, 22.43 33.86, 49.88 2.28 M0.67 58.89 C15.77 41.52, 30.87 24.15, 49.88 2.28 M1.07 64.53 C16.73 46.51, 32.39 28.49, 54.87 2.64 M1.07 64.53 C12.5 51.38, 23.92 38.24, 54.87 2.64 M3.43 67.91 C19.76 49.12, 36.09 30.34, 60.51 2.25 M3.43 67.91 C15.37 54.17, 27.31 40.44, 60.51 2.25 M3.83 73.55 C18.31 56.89, 32.8 40.22, 65.5 2.61 M3.83 73.55 C21.17 53.6, 38.51 33.65, 65.5 2.61 M6.19 76.93 C26.17 53.94, 46.16 30.95, 71.14 2.21 M6.19 76.93 C23.19 57.37, 40.2 37.81, 71.14 2.21 M9.21 79.55 C34.95 49.95, 60.69 20.34, 76.13 2.57 M9.21 79.55 C33.65 51.44, 58.09 23.33, 76.13 2.57 M13.54 80.67 C28.86 63.04, 44.19 45.41, 81.77 2.18 M13.54 80.67 C35.19 55.76, 56.84 30.86, 81.77 2.18 M17.21 82.54 C33.48 63.83, 49.75 45.11, 86.76 2.54 M17.21 82.54 C37.2 59.55, 57.18 36.56, 86.76 2.54 M22.2 82.9 C38.55 64.09, 54.9 45.29, 91.74 2.9 M22.2 82.9 C37.42 65.39, 52.65 47.88, 91.74 2.9 M27.84 82.5 C44.23 63.66, 60.61 44.81, 97.39 2.51 M27.84 82.5 C52.96 53.61, 78.08 24.72, 97.39 2.51 M32.83 82.86 C60.41 51.14, 88 19.41, 102.37 2.87 M32.83 82.86 C46.77 66.83, 60.7 50.8, 102.37 2.87 M38.47 82.47 C52.51 66.32, 66.55 50.17, 108.02 2.47 M38.47 82.47 C65.65 51.2, 92.83 19.94, 108.02 2.47 M43.46 82.83 C59.19 64.73, 74.93 46.63, 113 2.83 M43.46 82.83 C63.37 59.93, 83.27 37.03, 113 2.83 M49.1 82.44 C70.28 58.08, 91.45 33.72, 118.65 2.44 M49.1 82.44 C67.96 60.75, 86.81 39.06, 118.65 2.44 M54.09 82.8 C74.97 58.78, 95.84 34.77, 123.63 2.8 M54.09 82.8 C74.37 59.47, 94.65 36.14, 123.63 2.8 M59.08 83.16 C78.34 61, 97.6 38.84, 129.28 2.4 M59.08 83.16 C86.27 51.88, 113.46 20.6, 129.28 2.4 M64.72 82.76 C82.4 62.42, 100.08 42.09, 134.26 2.76 M64.72 82.76 C80.17 64.99, 95.61 47.22, 134.26 2.76 M69.71 83.12 C83.88 66.82, 98.06 50.51, 139.91 2.37 M69.71 83.12 C84.84 65.71, 99.97 48.31, 139.91 2.37 M75.35 82.73 C102.01 52.06, 128.67 21.39, 144.89 2.73 M75.35 82.73 C94.42 60.79, 113.48 38.86, 144.89 2.73 M80.34 83.09 C103.99 55.88, 127.64 28.68, 150.54 2.33 M80.34 83.09 C102.98 57.04, 125.62 31, 150.54 2.33 M85.98 82.69 C103.29 62.78, 120.6 42.86, 157.49 0.43 M85.98 82.69 C102.76 63.39, 119.54 44.08, 157.49 0.43 M90.97 83.05 C111.4 59.54, 131.84 36.03, 161.82 1.54 M90.97 83.05 C116.86 53.27, 142.75 23.49, 161.82 1.54 M96.61 82.66 C113.43 63.31, 130.25 43.96, 165.5 3.41 M96.61 82.66 C115.99 60.37, 135.36 38.08, 165.5 3.41 M101.6 83.02 C116.66 65.7, 131.71 48.37, 168.52 6.04 M101.6 83.02 C121.15 60.53, 140.69 38.04, 168.52 6.04 M107.24 82.62 C124.14 63.18, 141.04 43.74, 171.54 8.66 M107.24 82.62 C131.81 54.36, 156.38 26.1, 171.54 8.66 M112.23 82.98 C128.8 63.92, 145.37 44.86, 172.59 13.55 M112.23 82.98 C132.82 59.29, 153.42 35.6, 172.59 13.55 M117.87 82.59 C131.04 67.44, 144.2 52.3, 174.95 16.93 M117.87 82.59 C134.77 63.15, 151.68 43.7, 174.95 16.93 M122.86 82.95 C139.67 63.61, 156.47 44.28, 174.69 23.33 M122.86 82.95 C135.39 68.53, 147.93 54.11, 174.69 23.33 M128.5 82.55 C144.32 64.36, 160.14 46.16, 175.08 28.97 M128.5 82.55 C145.86 62.58, 163.22 42.61, 175.08 28.97 M133.49 82.91 C142.62 72.41, 151.74 61.91, 174.82 35.37 M133.49 82.91 C142.32 72.75, 151.16 62.59, 174.82 35.37 M139.13 82.52 C147.67 72.7, 156.2 62.88, 174.56 41.77 M139.13 82.52 C151.6 68.18, 164.07 53.83, 174.56 41.77 M144.12 82.88 C155.53 69.75, 166.95 56.61, 174.95 47.41 M144.12 82.88 C155.45 69.85, 166.77 56.82, 174.95 47.41 M149.76 82.49 C155.88 75.45, 162 68.41, 174.69 53.81 M149.76 82.49 C158.85 72.03, 167.94 61.57, 174.69 53.81 M154.75 82.85 C161.18 75.45, 167.6 68.06, 173.77 60.96 M154.75 82.85 C160.53 76.2, 166.31 69.55, 173.77 60.96 M162.36 80.19 C166.17 75.8, 169.99 71.41, 174.17 66.6 M162.36 80.19 C166.28 75.68, 170.2 71.17, 174.17 66.6" stroke="#82c91e" stroke-width="0.5" fill="none"></path><path d="M20.25 0 M20.25 0 C53.17 0, 86.08 0, 152.75 0 M20.25 0 C61.91 0, 103.58 0, 152.75 0 M152.75 0 C166.25 0, 173 6.75, 173 20.25 M152.75 0 C166.25 0, 173 6.75, 173 20.25 M173 20.25 C173 28.61, 173 36.98, 173 60.75 M173 20.25 C173 28.6, 173 36.95, 173 60.75 M173 60.75 C173 74.25, 166.25 81, 152.75 81 M173 60.75 C173 74.25, 166.25 81, 152.75 81 M152.75 81 C105.65 81, 58.54 81, 20.25 81 M152.75 81 C113.4 81, 74.05 81, 20.25 81 M20.25 81 C6.75 81, 0 74.25, 0 60.75 M20.25 81 C6.75 81, 0 74.25, 0 60.75 M0 60.75 C0 49.57, 0 38.4, 0 20.25 M0 60.75 C0 46.6, 0 32.46, 0 20.25 M0 20.25 C0 6.75, 6.75 0, 20.25 0 M0 20.25 C0 6.75, 6.75 0, 20.25 0" stroke="#000000" stroke-width="1" fill="none"></path></g><g transform="translate(181.61337280273438 78.00003051757812) rotate(0 77.21994018554688 12.5)"><text x="77.21994018554688" y="0" font-family="Virgil, Segoe UI Emoji" font-size="20px" fill="#000000" text-anchor="middle" style="white-space: pre;" direction="ltr" dominant-baseline="text-before-edge">The wasm world</text></g><g stroke-linecap="round" transform="translate(10 42.33338928222656) rotate(0 43.5 42.5)"><path d="M3.19 8.07 C3.19 8.07, 3.19 8.07, 3.19 8.07 M3.19 8.07 C3.19 8.07, 3.19 8.07, 3.19 8.07 M3.58 13.71 C5.28 11.76, 6.98 9.81, 10.8 5.41 M3.58 13.71 C5.58 11.42, 7.57 9.13, 10.8 5.41 M1.35 22.38 C5.94 17.1, 10.52 11.83, 18.41 2.75 M1.35 22.38 C5.52 17.58, 9.7 12.78, 18.41 2.75 M1.09 28.77 C6.77 22.24, 12.44 15.72, 24.05 2.36 M1.09 28.77 C10.13 18.37, 19.17 7.98, 24.05 2.36 M1.49 34.42 C9.92 24.72, 18.35 15.02, 29.04 2.72 M1.49 34.42 C10.23 24.36, 18.97 14.31, 29.04 2.72 M1.22 40.81 C10.6 30.03, 19.97 19.25, 34.68 2.32 M1.22 40.81 C10.21 30.48, 19.2 20.14, 34.68 2.32 M1.62 46.46 C10.57 36.16, 19.52 25.87, 39.67 2.68 M1.62 46.46 C14.19 32, 26.75 17.55, 39.67 2.68 M1.36 52.86 C18.89 32.69, 36.42 12.52, 45.31 2.29 M1.36 52.86 C18.14 33.55, 34.93 14.24, 45.31 2.29 M1.1 59.25 C15.46 42.73, 29.82 26.22, 50.3 2.65 M1.1 59.25 C14.35 44, 27.61 28.75, 50.3 2.65 M1.49 64.9 C15.61 48.66, 29.72 32.42, 55.94 2.26 M1.49 64.9 C21.85 41.47, 42.21 18.05, 55.94 2.26 M1.89 70.54 C13.81 56.83, 25.73 43.11, 60.93 2.62 M1.89 70.54 C24.32 44.74, 46.75 18.93, 60.93 2.62 M3.59 74.67 C22.76 52.62, 41.93 30.58, 65.92 2.98 M3.59 74.67 C18.83 57.15, 34.07 39.62, 65.92 2.98 M5.3 78.81 C30.86 49.4, 56.43 19.99, 72.22 1.83 M5.3 78.81 C29.79 50.63, 54.28 22.46, 72.22 1.83 M8.32 81.43 C34.29 51.55, 60.27 21.67, 76.55 2.94 M8.32 81.43 C32.38 53.75, 56.44 26.07, 76.55 2.94 M11.34 84.06 C34.73 57.15, 58.11 30.24, 80.22 4.81 M11.34 84.06 C38.31 53.03, 65.28 22, 80.22 4.81 M15.01 85.92 C35.91 61.88, 56.82 37.83, 83.24 7.44 M15.01 85.92 C29.82 68.89, 44.63 51.85, 83.24 7.44 M19.34 87.04 C37.56 66.08, 55.78 45.12, 86.26 10.06 M19.34 87.04 C38.07 65.5, 56.79 43.96, 86.26 10.06 M24.33 87.4 C43.59 65.24, 62.86 43.08, 87.97 14.19 M24.33 87.4 C44.4 64.31, 64.48 41.22, 87.97 14.19 M29.97 87.01 C45.31 69.36, 60.66 51.71, 87.05 21.35 M29.97 87.01 C47.85 66.43, 65.74 45.86, 87.05 21.35 M34.96 87.37 C54.58 64.79, 74.2 42.22, 86.79 27.74 M34.96 87.37 C49.74 70.37, 64.52 53.37, 86.79 27.74 M39.95 87.73 C54.51 70.98, 69.07 54.23, 87.18 33.39 M39.95 87.73 C51 75.01, 62.05 62.3, 87.18 33.39 M45.59 87.33 C59.37 71.48, 73.15 55.62, 86.92 39.78 M45.59 87.33 C58.93 71.99, 72.27 56.64, 86.92 39.78 M50.58 87.69 C59.97 76.88, 69.37 66.07, 86.66 46.18 M50.58 87.69 C59.35 77.6, 68.12 67.51, 86.66 46.18 M56.22 87.3 C67.24 74.62, 78.26 61.94, 87.05 51.83 M56.22 87.3 C68.07 73.67, 79.92 60.03, 87.05 51.83 M61.21 87.66 C68.52 79.25, 75.83 70.84, 86.79 58.22 M61.21 87.66 C66.36 81.73, 71.52 75.79, 86.79 58.22 M67.51 86.51 C71.9 81.45, 76.3 76.39, 86.53 64.62 M67.51 86.51 C74.83 78.08, 82.16 69.65, 86.53 64.62 M75.12 83.85 C78.05 80.48, 80.98 77.11, 87.58 69.51 M75.12 83.85 C77.97 80.56, 80.83 77.28, 87.58 69.51" stroke="#228be6" stroke-width="0.5" fill="none"></path><path d="M21.25 0 M21.25 0 C35.75 0, 50.26 0, 65.75 0 M21.25 0 C30.15 0, 39.05 0, 65.75 0 M65.75 0 C79.92 0, 87 7.08, 87 21.25 M65.75 0 C79.92 0, 87 7.08, 87 21.25 M87 21.25 C87 33.86, 87 46.47, 87 63.75 M87 21.25 C87 31.39, 87 41.54, 87 63.75 M87 63.75 C87 77.92, 79.92 85, 65.75 85 M87 63.75 C87 77.92, 79.92 85, 65.75 85 M65.75 85 C56.18 85, 46.6 85, 21.25 85 M65.75 85 C51.43 85, 37.1 85, 21.25 85 M21.25 85 C7.08 85, 0 77.92, 0 63.75 M21.25 85 C7.08 85, 0 77.92, 0 63.75 M0 63.75 C0 48.74, 0 33.74, 0 21.25 M0 63.75 C0 49.98, 0 36.21, 0 21.25 M0 21.25 C0 7.08, 7.08 0, 21.25 0 M0 21.25 C0 7.08, 7.08 0, 21.25 0" stroke="#000000" stroke-width="1" fill="none"></path></g><g transform="translate(16.42003631591797 59.83338928222656) rotate(0 37.07996368408203 25)"><text x="37.07996368408203" y="0" font-family="Virgil, Segoe UI Emoji" font-size="20px" fill="#000000" text-anchor="middle" style="white-space: pre;" direction="ltr" dominant-baseline="text-before-edge">Host</text><text x="37.07996368408203" y="25" font-family="Virgil, Segoe UI Emoji" font-size="20px" fill="#000000" text-anchor="middle" style="white-space: pre;" direction="ltr" dominant-baseline="text-before-edge">program</text></g><g stroke-linecap="round" transform="translate(437.3332214355469 55.833290100097656) rotate(0 43 42.5)"><path d="M3.19 8.07 C3.19 8.07, 3.19 8.07, 3.19 8.07 M3.19 8.07 C3.19 8.07, 3.19 8.07, 3.19 8.07 M3.58 13.71 C5.28 11.76, 6.98 9.81, 10.8 5.41 M3.58 13.71 C5.58 11.42, 7.57 9.13, 10.8 5.41 M1.35 22.38 C5.94 17.1, 10.52 11.83, 18.41 2.75 M1.35 22.38 C5.52 17.58, 9.7 12.78, 18.41 2.75 M1.09 28.77 C6.77 22.24, 12.44 15.72, 24.05 2.36 M1.09 28.77 C10.13 18.37, 19.17 7.98, 24.05 2.36 M1.49 34.42 C9.92 24.72, 18.35 15.02, 29.04 2.72 M1.49 34.42 C10.23 24.36, 18.97 14.31, 29.04 2.72 M1.22 40.81 C10.6 30.03, 19.97 19.25, 34.68 2.32 M1.22 40.81 C10.21 30.48, 19.2 20.14, 34.68 2.32 M1.62 46.46 C10.57 36.16, 19.52 25.87, 39.67 2.68 M1.62 46.46 C14.19 32, 26.75 17.55, 39.67 2.68 M1.36 52.86 C18.89 32.69, 36.42 12.52, 45.31 2.29 M1.36 52.86 C18.14 33.55, 34.93 14.24, 45.31 2.29 M1.1 59.25 C15.46 42.73, 29.82 26.22, 50.3 2.65 M1.1 59.25 C14.35 44, 27.61 28.75, 50.3 2.65 M1.49 64.9 C15.61 48.66, 29.72 32.42, 55.94 2.26 M1.49 64.9 C21.85 41.47, 42.21 18.05, 55.94 2.26 M1.89 70.54 C13.81 56.83, 25.73 43.11, 60.93 2.62 M1.89 70.54 C24.32 44.74, 46.75 18.93, 60.93 2.62 M3.59 74.67 C22.76 52.62, 41.93 30.58, 65.92 2.98 M3.59 74.67 C18.83 57.15, 34.07 39.62, 65.92 2.98 M5.3 78.81 C30.61 49.69, 55.93 20.57, 71.56 2.58 M5.3 78.81 C29.55 50.91, 53.8 23.01, 71.56 2.58 M8.32 81.43 C34.04 51.84, 59.77 22.24, 75.89 3.7 M8.32 81.43 C32.15 54.02, 55.98 26.6, 75.89 3.7 M11.34 84.06 C34.73 57.15, 58.11 30.24, 80.22 4.81 M11.34 84.06 C38.31 53.03, 65.28 22, 80.22 4.81 M15.01 85.92 C35.71 62.11, 56.42 38.29, 82.59 8.19 M15.01 85.92 C29.68 69.05, 44.34 52.18, 82.59 8.19 M19.34 87.04 C37.38 66.29, 55.42 45.53, 85.6 10.81 M19.34 87.04 C37.88 65.71, 56.42 44.38, 85.6 10.81 M24.33 87.4 C43.59 65.24, 62.86 43.08, 87.97 14.19 M24.33 87.4 C44.4 64.31, 64.48 41.22, 87.97 14.19 M29.97 87.01 C45.14 69.56, 60.3 52.11, 86.39 22.1 M29.97 87.01 C47.65 66.67, 65.32 46.34, 86.39 22.1 M34.96 87.37 C54.58 64.79, 74.2 42.22, 86.79 27.74 M34.96 87.37 C49.74 70.37, 64.52 53.37, 86.79 27.74 M39.95 87.73 C54.3 71.21, 68.66 54.69, 86.53 34.14 M39.95 87.73 C50.84 75.19, 61.74 62.65, 86.53 34.14 M45.59 87.33 C59.15 71.73, 72.71 56.13, 86.27 40.54 M45.59 87.33 C58.72 72.23, 71.84 57.13, 86.27 40.54 M50.58 87.69 C59.97 76.88, 69.37 66.07, 86.66 46.18 M50.58 87.69 C59.35 77.6, 68.12 67.51, 86.66 46.18 M56.22 87.3 C67 74.89, 77.79 62.48, 86.4 52.58 M56.22 87.3 C67.82 73.96, 79.41 60.61, 86.4 52.58 M61.21 87.66 C68.33 79.46, 75.45 71.27, 86.14 58.98 M61.21 87.66 C66.23 81.88, 71.25 76.1, 86.14 58.98 M66.85 87.26 C71.4 82.03, 75.95 76.8, 86.53 64.62 M66.85 87.26 C74.43 78.54, 82.01 69.82, 86.53 64.62 M74.46 84.6 C77.39 81.23, 80.32 77.86, 86.93 70.26 M74.46 84.6 C77.32 81.32, 80.17 78.03, 86.93 70.26" stroke="#82c91e" stroke-width="0.5" fill="none"></path><path d="M21.25 0 M21.25 0 C35.43 0, 49.61 0, 64.75 0 M21.25 0 C29.95 0, 38.65 0, 64.75 0 M64.75 0 C78.92 0, 86 7.08, 86 21.25 M64.75 0 C78.92 0, 86 7.08, 86 21.25 M86 21.25 C86 33.86, 86 46.47, 86 63.75 M86 21.25 C86 31.39, 86 41.54, 86 63.75 M86 63.75 C86 77.92, 78.92 85, 64.75 85 M86 63.75 C86 77.92, 78.92 85, 64.75 85 M64.75 85 C55.39 85, 46.03 85, 21.25 85 M64.75 85 C50.75 85, 36.75 85, 21.25 85 M21.25 85 C7.08 85, 0 77.92, 0 63.75 M21.25 85 C7.08 85, 0 77.92, 0 63.75 M0 63.75 C0 48.74, 0 33.74, 0 21.25 M0 63.75 C0 49.98, 0 36.21, 0 21.25 M0 21.25 C0 7.08, 7.08 0, 21.25 0 M0 21.25 C0 7.08, 7.08 0, 21.25 0" stroke="#000000" stroke-width="1" fill="none"></path></g><g transform="translate(443.25325775146484 73.33329010009766) rotate(0 37.07996368408203 25)"><text x="37.07996368408203" y="0" font-family="Virgil, Segoe UI Emoji" font-size="20px" fill="#000000" text-anchor="middle" style="white-space: pre;" direction="ltr" dominant-baseline="text-before-edge">Wasm</text><text x="37.07996368408203" y="25" font-family="Virgil, Segoe UI Emoji" font-size="20px" fill="#000000" text-anchor="middle" style="white-space: pre;" direction="ltr" dominant-baseline="text-before-edge">program</text></g><g stroke-linecap="round"><g transform="translate(436 73.99996948242188) rotate(0 -54 -11.83331298828125)"><path d="M0 0 C-18 -3.94, -90 -19.72, -108 -23.67 M0 0 C-18 -3.94, -90 -19.72, -108 -23.67" stroke="#a61e4d" stroke-width="1" fill="none"></path></g><g transform="translate(436 73.99996948242188) rotate(0 -54 -11.83331298828125)"><path d="M-78.27 -27.65 C-87.86 -26.37, -97.46 -25.08, -108 -23.67 M-78.27 -27.65 C-87.3 -26.44, -96.33 -25.23, -108 -23.67" stroke="#a61e4d" stroke-width="1" fill="none"></path></g><g transform="translate(436 73.99996948242188) rotate(0 -54 -11.83331298828125)"><path d="M-82.66 -7.61 C-90.84 -12.79, -99.02 -17.98, -108 -23.67 M-82.66 -7.61 C-90.36 -12.49, -98.06 -17.37, -108 -23.67" stroke="#a61e4d" stroke-width="1" fill="none"></path></g></g><mask></mask><g stroke-linecap="round"><g transform="translate(436.6666259765625 104.66668701171875) rotate(0 -54.33331298828125 9.999984741210938)"><path d="M0 0 C-18.11 3.33, -90.56 16.67, -108.67 20 M0 0 C-18.11 3.33, -90.56 16.67, -108.67 20" stroke="#2b8a3e" stroke-width="1" fill="none"></path></g><g transform="translate(436.6666259765625 104.66668701171875) rotate(0 -54.33331298828125 9.999984741210938)"><path d="M-82.8 4.81 C-89.05 8.48, -95.3 12.15, -108.67 20 M-82.8 4.81 C-90.83 9.52, -98.86 14.24, -108.67 20" stroke="#2b8a3e" stroke-width="1" fill="none"></path></g><g transform="translate(436.6666259765625 104.66668701171875) rotate(0 -54.33331298828125 9.999984741210938)"><path d="M-79.08 24.99 C-86.23 23.78, -93.38 22.58, -108.67 20 M-79.08 24.99 C-88.27 23.44, -97.45 21.89, -108.67 20" stroke="#2b8a3e" stroke-width="1" fill="none"></path></g></g><mask></mask><g stroke-linecap="round"><g transform="translate(97.33334350585938 68.00003051757812) rotate(0 47.66667175292969 -8.333343505859375)"><path d="M0 0 C15.89 -2.78, 79.44 -13.89, 95.33 -16.67 M0 0 C15.89 -2.78, 79.44 -13.89, 95.33 -16.67" stroke="#2b8a3e" stroke-width="1" fill="none"></path></g><g transform="translate(97.33334350585938 68.00003051757812) rotate(0 47.66667175292969 -8.333343505859375)"><path d="M69.33 -1.7 C74.79 -4.84, 80.25 -7.99, 95.33 -16.67 M69.33 -1.7 C78.98 -7.26, 88.63 -12.81, 95.33 -16.67" stroke="#2b8a3e" stroke-width="1" fill="none"></path></g><g transform="translate(97.33334350585938 68.00003051757812) rotate(0 47.66667175292969 -8.333343505859375)"><path d="M65.8 -21.92 C72 -20.82, 78.2 -19.71, 95.33 -16.67 M65.8 -21.92 C76.76 -19.97, 87.72 -18.02, 95.33 -16.67" stroke="#2b8a3e" stroke-width="1" fill="none"></path></g></g><mask></mask><g stroke-linecap="round"><g transform="translate(95.99996948242188 100) rotate(0 52.66667175292969 10.5)"><path d="M0 0 C17.56 3.5, 87.78 17.5, 105.33 21 M0 0 C17.56 3.5, 87.78 17.5, 105.33 21" stroke="#2b8a3e" stroke-width="1" fill="none"></path></g><g transform="translate(95.99996948242188 100) rotate(0 52.66667175292969 10.5)"><path d="M75.68 25.55 C82.52 24.5, 89.35 23.45, 105.33 21 M75.68 25.55 C82.52 24.5, 89.36 23.45, 105.33 21" stroke="#2b8a3e" stroke-width="1" fill="none"></path></g><g transform="translate(95.99996948242188 100) rotate(0 52.66667175292969 10.5)"><path d="M79.69 5.43 C85.6 9.02, 91.52 12.61, 105.33 21 M79.69 5.43 C85.61 9.02, 91.52 12.61, 105.33 21" stroke="#2b8a3e" stroke-width="1" fill="none"></path></g></g><mask></mask><g transform="translate(104 48.99998474121094) rotate(0 9.000015258789062 1.3333358764648438)" stroke="none"><path fill="#2b8a3e" d="M 2.61,-0.40 Q 2.61,-0.40 2.80,0.83 3.00,2.07 3.55,3.13 4.11,4.18 4.46,6.19 4.82,8.20 2.49,8.79 0.15,9.39 1.13,8.48 2.11,7.56 2.96,6.13 3.80,4.70 4.48,3.71 5.15,2.73 6.03,1.86 6.90,1.00 7.55,-0.17 8.21,-1.35 9.33,-2.35 10.44,-3.34 11.07,-4.90 11.69,-6.46 12.53,-7.13 13.37,-7.80 14.04,-8.90 14.70,-10.01 14.98,-10.49 15.26,-10.97 15.68,-11.34 16.10,-11.70 16.61,-11.92 17.13,-12.13 17.68,-12.17 18.24,-12.21 18.77,-12.07 19.31,-11.93 19.78,-11.62 20.24,-11.32 20.58,-10.88 20.93,-10.44 21.11,-9.92 21.30,-9.39 21.31,-8.84 21.31,-8.28 21.14,-7.75 20.98,-7.22 20.65,-6.77 20.32,-6.33 19.86,-6.01 19.40,-5.69 18.87,-5.53 18.34,-5.38 17.78,-5.40 17.23,-5.42 16.71,-5.62 16.19,-5.82 15.76,-6.17 15.33,-6.52 15.04,-7.00 14.74,-7.47 14.61,-8.01 14.49,-8.55 14.54,-9.10 14.59,-9.66 14.82,-10.16 15.04,-10.67 15.42,-11.08 15.80,-11.49 16.28,-11.76 16.77,-12.03 17.32,-12.12 17.86,-12.22 18.41,-12.14 18.96,-12.06 19.46,-11.81 19.95,-11.55 20.34,-11.15 20.73,-10.76 20.97,-10.26 21.21,-9.75 21.28,-9.20 21.35,-8.65 21.24,-8.11 21.13,-7.56 21.13,-7.56 21.13,-7.56 19.11,-4.98 17.10,-2.39 16.13,-0.99 15.17,0.39 13.91,1.74 12.65,3.09 11.44,4.63 10.24,6.16 9.61,7.15 8.98,8.13 8.36,9.10 7.74,10.06 6.17,11.76 4.60,13.47 1.96,12.72 -0.67,11.98 -0.83,10.27 -0.99,8.57 -1.00,7.50 -1.02,6.44 -1.63,4.67 -2.23,2.90 -2.42,1.65 -2.61,0.40 -2.62,0.08 -2.63,-0.23 -2.56,-0.54 -2.49,-0.85 -2.35,-1.14 -2.22,-1.43 -2.01,-1.67 -1.81,-1.92 -1.55,-2.10 -1.30,-2.29 -1.00,-2.42 -0.71,-2.54 -0.39,-2.59 -0.08,-2.64 0.23,-2.61 0.55,-2.58 0.85,-2.48 1.15,-2.37 1.42,-2.20 1.68,-2.03 1.90,-1.80 2.12,-1.56 2.28,-1.29 2.43,-1.01 2.52,-0.70 2.61,-0.40 2.61,-0.40 L 2.61,-0.40 Z"></path></g><g transform="translate(397.9999694824219 31.33331298828125) rotate(0 7.666656494140625 12.833335876464844)" stroke="none"><path fill="#c92a2a" d="M 2.17,-1.16 Q 2.17,-1.16 2.91,0.29 3.65,1.74 4.23,3.00 4.81,4.26 5.51,5.37 6.22,6.49 7.68,8.57 9.14,10.66 9.95,11.86 10.76,13.06 11.42,14.30 12.09,15.55 12.59,16.67 13.08,17.80 14.17,19.25 15.25,20.70 16.53,22.47 17.81,24.23 17.94,24.68 18.06,25.12 18.03,25.58 18.00,26.05 17.83,26.47 17.66,26.90 17.36,27.25 17.06,27.60 16.66,27.84 16.26,28.08 15.81,28.17 15.36,28.27 14.90,28.22 14.44,28.17 14.02,27.97 13.60,27.78 13.27,27.46 12.94,27.14 12.72,26.73 12.51,26.32 12.43,25.86 12.36,25.41 12.44,24.95 12.51,24.49 12.73,24.09 12.95,23.68 13.29,23.36 13.63,23.05 14.05,22.86 14.47,22.66 14.93,22.62 15.39,22.57 15.84,22.67 16.29,22.77 16.68,23.01 17.08,23.25 17.37,23.60 17.67,23.96 17.84,24.39 18.01,24.82 18.03,25.28 18.05,25.74 17.93,26.19 17.80,26.63 17.54,27.01 17.28,27.39 16.91,27.67 16.54,27.95 16.10,28.09 15.67,28.24 15.20,28.24 14.74,28.23 14.30,28.09 13.87,27.94 13.50,27.65 13.13,27.37 12.88,26.99 12.62,26.61 12.62,26.61 12.62,26.61 11.51,25.09 10.39,23.57 9.77,22.49 9.14,21.41 8.36,19.62 7.58,17.83 7.12,16.85 6.67,15.87 5.74,14.56 4.81,13.24 4.22,12.20 3.62,11.17 2.85,10.12 2.09,9.08 1.20,7.65 0.32,6.23 -0.13,5.11 -0.58,4.00 -1.38,2.58 -2.17,1.16 -2.28,0.88 -2.39,0.60 -2.43,0.31 -2.46,0.01 -2.43,-0.27 -2.40,-0.57 -2.29,-0.85 -2.19,-1.13 -2.02,-1.37 -1.85,-1.62 -1.63,-1.82 -1.41,-2.02 -1.15,-2.16 -0.89,-2.30 -0.60,-2.37 -0.31,-2.44 -0.01,-2.45 0.28,-2.45 0.57,-2.38 0.86,-2.31 1.12,-2.17 1.38,-2.04 1.61,-1.84 1.83,-1.64 2.00,-1.40 2.17,-1.16 2.17,-1.16 L 2.17,-1.16 Z"></path></g><g transform="translate(413.3332824707031 31.999984741210938) rotate(0 -10.666656494140625 13.666656494140625)" stroke="none"><path fill="#c92a2a" d="M 1.85,1.73 Q 1.85,1.73 0.43,3.09 -0.98,4.44 -1.60,5.48 -2.23,6.51 -3.20,7.72 -4.17,8.92 -5.31,10.57 -6.44,12.22 -7.13,13.26 -7.82,14.29 -8.62,15.07 -9.41,15.85 -10.15,17.04 -10.89,18.23 -11.92,19.56 -12.95,20.88 -13.82,21.98 -14.69,23.08 -15.43,23.90 -16.18,24.73 -16.94,26.05 -17.71,27.37 -17.88,27.72 -18.06,28.06 -18.24,28.56 -18.42,29.07 -18.75,29.48 -19.08,29.90 -19.52,30.19 -19.97,30.48 -20.48,30.61 -21.00,30.75 -21.53,30.71 -22.06,30.67 -22.55,30.46 -23.04,30.26 -23.44,29.90 -23.84,29.55 -24.11,29.09 -24.37,28.63 -24.48,28.11 -24.58,27.58 -24.51,27.05 -24.45,26.53 -24.21,26.05 -23.98,25.57 -23.61,25.19 -23.23,24.81 -22.76,24.57 -22.28,24.33 -21.76,24.25 -21.23,24.18 -20.71,24.27 -20.18,24.37 -19.72,24.63 -19.25,24.89 -18.89,25.28 -18.53,25.67 -18.32,26.16 -18.11,26.65 -18.06,27.18 -18.01,27.71 -18.13,28.23 -18.26,28.75 -18.54,29.20 -18.83,29.65 -19.24,29.98 -19.65,30.32 -20.15,30.51 -20.65,30.70 -21.18,30.71 -21.71,30.73 -22.22,30.58 -22.73,30.43 -23.17,30.12 -23.60,29.81 -23.92,29.38 -24.23,28.95 -24.39,28.45 -24.55,27.94 -24.54,27.41 -24.53,26.87 -24.53,26.87 -24.53,26.87 -23.29,25.08 -22.05,23.28 -21.71,22.17 -21.37,21.06 -20.51,20.19 -19.65,19.33 -18.97,18.43 -18.30,17.54 -17.44,16.69 -16.58,15.84 -15.89,14.85 -15.20,13.87 -14.08,12.68 -12.96,11.49 -12.13,10.65 -11.29,9.80 -10.24,8.74 -9.19,7.69 -8.51,6.78 -7.83,5.88 -7.00,4.92 -6.18,3.97 -5.28,2.63 -4.38,1.30 -3.11,-0.21 -1.85,-1.73 -1.62,-1.93 -1.39,-2.13 -1.11,-2.26 -0.83,-2.40 -0.54,-2.46 -0.24,-2.53 0.06,-2.52 0.37,-2.51 0.66,-2.43 0.96,-2.35 1.23,-2.20 1.49,-2.05 1.72,-1.84 1.94,-1.63 2.11,-1.37 2.28,-1.12 2.38,-0.83 2.48,-0.54 2.51,-0.23 2.54,0.06 2.49,0.36 2.45,0.67 2.33,0.95 2.22,1.24 2.04,1.48 1.85,1.73 1.85,1.73 L 1.85,1.73 Z"></path></g><g transform="translate(103.33329772949219 124.33332061767578) rotate(0 9.000015258789062 1.3333358764648438)" stroke="none"><path fill="#2b8a3e" d="M 2.61,-0.40 Q 2.61,-0.40 2.80,0.83 3.00,2.07 3.55,3.13 4.11,4.18 4.46,6.19 4.82,8.20 2.49,8.79 0.15,9.39 1.13,8.48 2.11,7.56 2.96,6.13 3.80,4.70 4.48,3.71 5.15,2.73 6.03,1.86 6.90,1.00 7.55,-0.17 8.21,-1.35 9.33,-2.35 10.44,-3.34 11.07,-4.90 11.69,-6.46 12.53,-7.13 13.37,-7.80 14.04,-8.90 14.70,-10.01 14.98,-10.49 15.26,-10.97 15.68,-11.34 16.10,-11.70 16.61,-11.92 17.13,-12.13 17.68,-12.17 18.24,-12.21 18.77,-12.07 19.31,-11.93 19.78,-11.62 20.24,-11.32 20.58,-10.88 20.93,-10.44 21.11,-9.92 21.30,-9.39 21.31,-8.84 21.31,-8.28 21.14,-7.75 20.98,-7.22 20.65,-6.77 20.32,-6.33 19.86,-6.01 19.40,-5.69 18.87,-5.53 18.34,-5.38 17.78,-5.40 17.23,-5.42 16.71,-5.62 16.19,-5.82 15.76,-6.17 15.33,-6.52 15.04,-7.00 14.74,-7.47 14.61,-8.01 14.49,-8.55 14.54,-9.10 14.59,-9.66 14.82,-10.16 15.04,-10.67 15.42,-11.08 15.80,-11.49 16.28,-11.76 16.77,-12.03 17.32,-12.12 17.86,-12.22 18.41,-12.14 18.96,-12.06 19.46,-11.81 19.95,-11.55 20.34,-11.15 20.73,-10.76 20.97,-10.26 21.21,-9.75 21.28,-9.20 21.35,-8.65 21.24,-8.11 21.13,-7.56 21.13,-7.56 21.13,-7.56 19.11,-4.98 17.10,-2.39 16.13,-0.99 15.17,0.39 13.91,1.74 12.65,3.09 11.44,4.63 10.24,6.16 9.61,7.15 8.98,8.13 8.36,9.10 7.74,10.06 6.17,11.76 4.60,13.47 1.96,12.72 -0.67,11.98 -0.83,10.27 -0.99,8.57 -1.00,7.50 -1.02,6.44 -1.63,4.67 -2.23,2.90 -2.42,1.65 -2.61,0.40 -2.62,0.08 -2.63,-0.23 -2.56,-0.54 -2.49,-0.85 -2.35,-1.14 -2.22,-1.43 -2.01,-1.67 -1.81,-1.92 -1.55,-2.10 -1.30,-2.29 -1.00,-2.42 -0.71,-2.54 -0.39,-2.59 -0.08,-2.64 0.23,-2.61 0.55,-2.58 0.85,-2.48 1.15,-2.37 1.42,-2.20 1.68,-2.03 1.90,-1.80 2.12,-1.56 2.28,-1.29 2.43,-1.01 2.52,-0.70 2.61,-0.40 2.61,-0.40 L 2.61,-0.40 Z"></path></g><g transform="translate(397.6665496826172 124.3333511352539) rotate(0 9.000015258789062 1.3333358764648438)" stroke="none"><path fill="#2b8a3e" d="M 2.61,-0.40 Q 2.61,-0.40 2.80,0.83 3.00,2.07 3.55,3.13 4.11,4.18 4.46,6.19 4.82,8.20 2.49,8.79 0.15,9.39 1.13,8.48 2.11,7.56 2.96,6.13 3.80,4.70 4.48,3.71 5.15,2.73 6.03,1.86 6.90,1.00 7.55,-0.17 8.21,-1.35 9.33,-2.35 10.44,-3.34 11.07,-4.90 11.69,-6.46 12.53,-7.13 13.37,-7.80 14.04,-8.90 14.70,-10.01 14.98,-10.49 15.26,-10.97 15.68,-11.34 16.10,-11.70 16.61,-11.92 17.13,-12.13 17.68,-12.17 18.24,-12.21 18.77,-12.07 19.31,-11.93 19.78,-11.62 20.24,-11.32 20.58,-10.88 20.93,-10.44 21.11,-9.92 21.30,-9.39 21.31,-8.84 21.31,-8.28 21.14,-7.75 20.98,-7.22 20.65,-6.77 20.32,-6.33 19.86,-6.01 19.40,-5.69 18.87,-5.53 18.34,-5.38 17.78,-5.40 17.23,-5.42 16.71,-5.62 16.19,-5.82 15.76,-6.17 15.33,-6.52 15.04,-7.00 14.74,-7.47 14.61,-8.01 14.49,-8.55 14.54,-9.10 14.59,-9.66 14.82,-10.16 15.04,-10.67 15.42,-11.08 15.80,-11.49 16.28,-11.76 16.77,-12.03 17.32,-12.12 17.86,-12.22 18.41,-12.14 18.96,-12.06 19.46,-11.81 19.95,-11.55 20.34,-11.15 20.73,-10.76 20.97,-10.26 21.21,-9.75 21.28,-9.20 21.35,-8.65 21.24,-8.11 21.13,-7.56 21.13,-7.56 21.13,-7.56 19.11,-4.98 17.10,-2.39 16.13,-0.99 15.17,0.39 13.91,1.74 12.65,3.09 11.44,4.63 10.24,6.16 9.61,7.15 8.98,8.13 8.36,9.10 7.74,10.06 6.17,11.76 4.60,13.47 1.96,12.72 -0.67,11.98 -0.83,10.27 -0.99,8.57 -1.00,7.50 -1.02,6.44 -1.63,4.67 -2.23,2.90 -2.42,1.65 -2.61,0.40 -2.62,0.08 -2.63,-0.23 -2.56,-0.54 -2.49,-0.85 -2.35,-1.14 -2.22,-1.43 -2.01,-1.67 -1.81,-1.92 -1.55,-2.10 -1.30,-2.29 -1.00,-2.42 -0.71,-2.54 -0.39,-2.59 -0.08,-2.64 0.23,-2.61 0.55,-2.58 0.85,-2.48 1.15,-2.37 1.42,-2.20 1.68,-2.03 1.90,-1.80 2.12,-1.56 2.28,-1.29 2.43,-1.01 2.52,-0.70 2.61,-0.40 2.61,-0.40 L 2.61,-0.40 Z"></path></g></svg>