<svg version="1.1" xmlns="http://www.w3.org/2000/svg" viewBox="0 0 627 288" width="627" height="288">
  <!-- svg-source:excalidraw -->
  
  <defs>
    <style class="style-fonts">
      @font-face {
        font-family: "Virgil";
        src: url("https://file%2B.vscode-resource.vscode-cdn.net/c%3A/Users/jiongqia/.vscode/extensions/pomdtr.excalidraw-editor-3.5.1/public//dist/excalidraw-assets/Virgil.woff2");
      }
      @font-face {
        font-family: "Cascadia";
        src: url("https://file%2B.vscode-resource.vscode-cdn.net/c%3A/Users/jiongqia/.vscode/extensions/pomdtr.excalidraw-editor-3.5.1/public//dist/excalidraw-assets/Cascadia.woff2");
      }
    </style>
  </defs>
  <rect x="0" y="0" width="627" height="288" fill="#ffffff"></rect><g stroke-linecap="round" transform="translate(160 65) rotate(0 52.5 25)"><path d="M3.33 2.89 C3.33 2.89, 3.33 2.89, 3.33 2.89 M3.33 2.89 C3.33 2.89, 3.33 2.89, 3.33 2.89 M1.75 10.8 C3.96 6.31, 9.09 3.8, 10.28 0.99 M1.75 10.8 C5.05 6.55, 8.09 3.81, 10.28 0.99 M1.49 17.2 C7.34 12.18, 11.63 9.11, 14.61 2.1 M1.49 17.2 C3.41 14.41, 6.83 10.46, 14.61 2.1 M1.89 22.84 C7.12 17.44, 13.5 6.86, 20.26 1.71 M1.89 22.84 C8.9 14.58, 16.27 7.18, 20.26 1.71 M1.63 29.24 C6.27 23.6, 12.59 14.73, 25.24 2.07 M1.63 29.24 C10.29 18.99, 18.49 9.26, 25.24 2.07 M1.36 35.64 C10.75 24.42, 20.15 14.4, 30.89 1.67 M1.36 35.64 C12.59 22.83, 23.14 11.6, 30.89 1.67 M1.76 41.28 C11.7 29.09, 22.15 16.11, 35.87 2.03 M1.76 41.28 C13.99 26.92, 26.92 12.84, 35.87 2.03 M2.81 46.17 C11.3 35.21, 19.82 26.58, 41.52 1.64 M2.81 46.17 C13.83 33.89, 25.04 21.91, 41.52 1.64 M5.83 48.79 C15.73 35.94, 31.01 23.26, 46.5 2 M5.83 48.79 C17.95 35.12, 29.06 20.87, 46.5 2 M10.16 49.91 C23.34 33.72, 38.02 15.27, 52.15 1.61 M10.16 49.91 C23.55 35.64, 36.13 19.82, 52.15 1.61 M13.83 51.78 C25.95 37.28, 42.9 20.57, 57.13 1.97 M13.83 51.78 C29.79 32.73, 46.28 13.1, 57.13 1.97 M19.48 51.38 C33.85 36.72, 46.04 18.84, 62.12 2.33 M19.48 51.38 C32.89 34.15, 48.54 18.61, 62.12 2.33 M24.46 51.74 C37.28 38.3, 50.99 20.04, 67.76 1.93 M24.46 51.74 C41.68 33.31, 56.87 14.47, 67.76 1.93 M30.11 51.35 C41.76 37.97, 49.32 28.4, 72.75 2.29 M30.11 51.35 C41.99 37.22, 56.37 20.43, 72.75 2.29 M35.09 51.71 C47.73 37.08, 61.41 23.37, 78.39 1.9 M35.09 51.71 C50.9 33.37, 65.57 15.18, 78.39 1.9 M40.74 51.31 C51.02 42.74, 57.49 31.14, 83.38 2.26 M40.74 51.31 C51.08 38.87, 62.3 28.42, 83.38 2.26 M45.72 51.67 C54.76 39.05, 63.74 28.35, 89.02 1.86 M45.72 51.67 C59.1 36.25, 72.76 21.9, 89.02 1.86 M51.37 51.28 C60.92 38.11, 74.41 25.45, 94.67 1.47 M51.37 51.28 C60.96 40.62, 69.97 30.65, 94.67 1.47 M56.35 51.64 C69.71 36.34, 82.95 24.66, 99 2.58 M56.35 51.64 C71.73 34.94, 85.38 17.12, 99 2.58 M62 51.24 C72.76 36.36, 87.38 22.6, 102.67 4.45 M62 51.24 C70.83 41.26, 80.7 29.87, 102.67 4.45 M66.98 51.6 C81.04 34.41, 92.38 22.17, 105.69 7.08 M66.98 51.6 C79.58 38.27, 90.59 24.48, 105.69 7.08 M72.63 51.21 C87.76 34.55, 99.37 21.93, 107.4 11.21 M72.63 51.21 C83.46 40.63, 92.25 28.76, 107.4 11.21 M77.61 51.57 C84 41.53, 94.72 34.74, 107.14 17.61 M77.61 51.57 C89.35 38.11, 100.16 25.7, 107.14 17.61 M83.26 51.17 C89.64 43.41, 93.62 40.36, 106.88 24 M83.26 51.17 C89.94 42.19, 98.38 32.54, 106.88 24 M88.24 51.53 C92.74 47.38, 98.15 40.98, 107.27 29.65 M88.24 51.53 C91.97 46.78, 96.72 40.5, 107.27 29.65 M93.89 51.14 C97.88 48.86, 99.18 44.47, 105.7 37.56 M93.89 51.14 C98.26 46.63, 101.81 42.85, 105.7 37.56" stroke="#fab005" stroke-width="0.5" fill="none"></path><path d="M12.5 0 M12.5 0 C27.73 1.46, 47.89 -0.86, 92.5 0 M12.5 0 C34.81 -0.06, 58.87 -1.37, 92.5 0 M92.5 0 C100.2 -1.73, 106.17 3.74, 105 12.5 M92.5 0 C100.79 -2.06, 105.89 5.33, 105 12.5 M105 12.5 C103.9 19.39, 104.42 23.31, 105 37.5 M105 12.5 C105.58 17.83, 105.45 24.67, 105 37.5 M105 37.5 C106.78 44.32, 101.11 49.7, 92.5 50 M105 37.5 C103.58 43.79, 99.53 48.19, 92.5 50 M92.5 50 C60.7 50.5, 33.07 48.41, 12.5 50 M92.5 50 C75.88 49.49, 58.28 49.99, 12.5 50 M12.5 50 C2.94 48.99, -0.26 45.28, 0 37.5 M12.5 50 C4.54 48.42, -0.97 46.94, 0 37.5 M0 37.5 C0.08 28.56, 0.31 16.87, 0 12.5 M0 37.5 C0.82 31.47, -0.75 26.3, 0 12.5 M0 12.5 C-0.25 5.62, 5.92 -0.94, 12.5 0 M0 12.5 C-1.81 4.63, 3.99 -1.67, 12.5 0" stroke="#000000" stroke-width="1" fill="none"></path></g><g transform="translate(171.22802734375 70) rotate(0 41.27197265625 20)"><text x="41.27197265625" y="0" font-family="Virgil, Segoe UI Emoji" font-size="16px" fill="#000000" text-anchor="middle" style="white-space: pre;" direction="ltr" dominant-baseline="text-before-edge">source file</text><text x="41.27197265625" y="20" font-family="Virgil, Segoe UI Emoji" font-size="16px" fill="#000000" text-anchor="middle" style="white-space: pre;" direction="ltr" dominant-baseline="text-before-edge">1</text></g><g stroke-linecap="round" transform="translate(10 119) rotate(0 44 25)"><path d="M3.33 2.89 C3.33 2.89, 3.33 2.89, 3.33 2.89 M3.33 2.89 C3.33 2.89, 3.33 2.89, 3.33 2.89 M1.75 10.8 C4.55 7.1, 7.81 4.03, 10.28 0.99 M1.75 10.8 C3.26 8.54, 5.13 6.91, 10.28 0.99 M1.49 17.2 C2.64 15.04, 7.08 12.62, 14.61 2.1 M1.49 17.2 C6.32 11.48, 9.58 7.71, 14.61 2.1 M1.89 22.84 C10.32 15.34, 16.56 6.9, 20.26 1.71 M1.89 22.84 C7.97 14.55, 14.46 7.84, 20.26 1.71 M1.63 29.24 C9.98 18.9, 18.34 6.22, 25.24 2.07 M1.63 29.24 C8.47 22.87, 13.12 16.42, 25.24 2.07 M1.36 35.64 C9.57 24.43, 19.31 14.49, 30.89 1.67 M1.36 35.64 C12.06 24.62, 20.76 13.23, 30.89 1.67 M1.76 41.28 C16 26.43, 25.36 11.36, 35.87 2.03 M1.76 41.28 C9.73 32.37, 18.2 21.75, 35.87 2.03 M2.81 46.17 C15.88 34.46, 26.64 18.11, 41.52 1.64 M2.81 46.17 C15.42 29.98, 29.91 14.15, 41.52 1.64 M5.83 48.79 C18.73 34.77, 26.73 25.22, 46.5 2 M5.83 48.79 C21.43 31.31, 35.84 14.57, 46.5 2 M10.16 49.91 C16.78 42, 27.14 30.43, 52.15 1.61 M10.16 49.91 C24.52 32.98, 41.06 14.52, 52.15 1.61 M13.83 51.78 C27.14 37.69, 39.78 20.1, 57.13 1.97 M13.83 51.78 C30.26 32.16, 47.18 12.07, 57.13 1.97 M19.48 51.38 C29.67 42.89, 39.73 32.6, 62.12 2.33 M19.48 51.38 C33.6 35.4, 47.03 19.48, 62.12 2.33 M24.46 51.74 C36.93 38.77, 50.01 23.08, 67.76 1.93 M24.46 51.74 C36.65 37.1, 48.25 25.16, 67.76 1.93 M30.11 51.35 C47.37 32.4, 61.33 11.59, 72.75 2.29 M30.11 51.35 C45.89 32.11, 62.08 14.01, 72.75 2.29 M35.09 51.71 C47.91 35.68, 64.56 15.92, 78.39 1.9 M35.09 51.71 C45.18 40.6, 54.12 28.13, 78.39 1.9 M40.74 51.31 C56.33 34.76, 67.75 21.07, 83.38 2.26 M40.74 51.31 C58.29 31.36, 73.7 12.16, 83.38 2.26 M45.72 51.67 C58.61 35.68, 76.01 16.74, 86.4 4.88 M45.72 51.67 C57.07 39.65, 66.58 27.4, 86.4 4.88 M51.37 51.28 C59.1 40.87, 69.95 30.36, 88.11 9.01 M51.37 51.28 C58.94 40.96, 67.23 31.58, 88.11 9.01 M56.35 51.64 C67.18 36.98, 82.3 20.18, 90.47 12.39 M56.35 51.64 C63.94 43.83, 70.57 36, 90.47 12.39 M62 51.24 C68.5 43.68, 74.57 34.59, 90.86 18.04 M62 51.24 C71.37 39.67, 82.07 28.22, 90.86 18.04 M66.98 51.6 C70.28 47.6, 76.39 38.88, 90.6 24.43 M66.98 51.6 C75.93 41.71, 82.31 33.13, 90.6 24.43 M72.63 51.21 C78.06 43.94, 84.8 37.02, 91 30.08 M72.63 51.21 C78.8 43.88, 86.16 35.94, 91 30.08 M77.61 51.57 C83.5 45.83, 85.3 42.17, 88.77 38.74 M77.61 51.57 C81.34 46.38, 85.26 41.94, 88.77 38.74" stroke="#15aabf" stroke-width="0.5" fill="none"></path><path d="M12.5 0 M12.5 0 C27.26 -0.12, 43.93 -0.02, 75.5 0 M12.5 0 C26.51 0.33, 42.18 0.4, 75.5 0 M75.5 0 C85.69 -0.57, 88.36 2.44, 88 12.5 M75.5 0 C84.2 -0.9, 89.31 5.06, 88 12.5 M88 12.5 C87.13 21.5, 89.38 29.67, 88 37.5 M88 12.5 C88.31 19.14, 87.55 26.25, 88 37.5 M88 37.5 C88.14 44.03, 82.47 48.09, 75.5 50 M88 37.5 C89.89 45.12, 83.78 50.33, 75.5 50 M75.5 50 C62.15 47.74, 48.94 49.1, 12.5 50 M75.5 50 C52.74 49.35, 31.52 50.6, 12.5 50 M12.5 50 C3.65 50.7, 0.85 45.51, 0 37.5 M12.5 50 C3.4 48.66, -0.53 46.56, 0 37.5 M0 37.5 C0.25 28.76, -1.69 19.4, 0 12.5 M0 37.5 C0.85 29.77, 0.31 23.51, 0 12.5 M0 12.5 C-1.09 5.76, 3.3 0.94, 12.5 0 M0 12.5 C-0.67 2.89, 2.63 0.88, 12.5 0" stroke="#000000" stroke-width="1" fill="none"></path></g><g transform="translate(16.256027221679688 124) rotate(0 37.74397277832031 20)"><text x="37.74397277832031" y="0" font-family="Virgil, Segoe UI Emoji" font-size="16px" fill="#000000" text-anchor="middle" style="white-space: pre;" direction="ltr" dominant-baseline="text-before-edge">structure</text><text x="37.74397277832031" y="20" font-family="Virgil, Segoe UI Emoji" font-size="16px" fill="#000000" text-anchor="middle" style="white-space: pre;" direction="ltr" dominant-baseline="text-before-edge">definition</text></g><g stroke-linecap="round"><g transform="translate(266 86) rotate(0 95.6184369850024 -19.2421624691423)"><path d="M0.7 -0.26 C16.26 -6.43, 61.16 -35.85, 92.98 -38.08 C124.8 -40.3, 175.4 -17.5, 191.62 -13.62 M-0.39 -1.44 C15.05 -7.41, 60.11 -34.74, 92.02 -37.1 C123.94 -39.47, 174.75 -19.5, 191.1 -15.64" stroke="#000000" stroke-width="1" fill="none"></path></g><g transform="translate(266 86) rotate(0 95.6184369850024 -19.2421624691423)"><path d="M160.73 -13.96 C167.41 -13.79, 178.26 -16.41, 190.23 -17.19 M160.79 -14.41 C168.3 -14.09, 176.81 -15.69, 191.64 -16.07" stroke="#000000" stroke-width="1" fill="none"></path></g><g transform="translate(266 86) rotate(0 95.6184369850024 -19.2421624691423)"><path d="M166.63 -33.61 C171.56 -28.13, 180.83 -25.47, 190.23 -17.19 M166.69 -34.06 C172.84 -28.83, 179.87 -25.51, 191.64 -16.07" stroke="#000000" stroke-width="1" fill="none"></path></g></g><mask></mask><g stroke-linecap="round"><g transform="translate(257 199.475206925355) rotate(0 111.54014172112267 13.360353246852043)"><path d="M-0.72 -0.45 C18.01 4.38, 74.63 30.67, 112.05 30.17 C149.47 29.67, 205.34 2.27, 223.8 -3.46 M1.1 -1.73 C19.71 3.26, 74.07 28.47, 111.13 28.39 C148.19 28.3, 204.8 3.1, 223.44 -2.23" stroke="#000000" stroke-width="1" fill="none"></path></g><g transform="translate(257 199.475206925355) rotate(0 111.54014172112267 13.360353246852043)"><path d="M199.5 16.88 C207.47 13.04, 212.43 6.22, 221.88 -2.6 M200.02 16.74 C205.64 13.12, 211.09 7.19, 224.09 -2.9" stroke="#000000" stroke-width="1" fill="none"></path></g><g transform="translate(257 199.475206925355) rotate(0 111.54014172112267 13.360353246852043)"><path d="M192.7 -2.48 C202.71 -1, 209.54 -2.53, 221.88 -2.6 M193.22 -2.62 C200.3 -1.77, 207.33 -3.19, 224.09 -2.9" stroke="#000000" stroke-width="1" fill="none"></path></g></g><mask></mask><g transform="translate(258 22) rotate(0 97.30393981933594 10)"><text x="0" y="0" font-family="Virgil, Segoe UI Emoji" font-size="16px" fill="#000000" text-anchor="start" style="white-space: pre;" direction="ltr" dominant-baseline="text-before-edge">use compliler 1 to compile</text></g><g transform="translate(276.2160415649414 237) rotate(0 100.83193969726562 10)"><text x="0" y="0" font-family="Virgil, Segoe UI Emoji" font-size="16px" fill="#000000" text-anchor="start" style="white-space: pre;" direction="ltr" dominant-baseline="text-before-edge">use compliler 2 to compile</text></g><g stroke-linecap="round" transform="translate(487 10) rotate(0 63.5 64.5)"><path d="M4.75 12.08 C4.75 12.08, 4.75 12.08, 4.75 12.08 M4.75 12.08 C4.75 12.08, 4.75 12.08, 4.75 12.08 M3.83 19.23 C8.28 15, 9.5 13.67, 14.98 6.4 M3.83 19.23 C5.51 16.65, 9.15 14.11, 14.98 6.4 M2.91 26.38 C8.69 19.36, 17.35 10.46, 25.22 0.72 M2.91 26.38 C11.42 17.55, 20.47 7.27, 25.22 0.72 M2 33.53 C11.43 26.64, 17.24 17.67, 30.86 0.33 M2 33.53 C9.61 26.2, 15.56 18.41, 30.86 0.33 M1.73 39.93 C11.43 27.76, 24.79 13.7, 34.54 2.2 M1.73 39.93 C9.02 30.46, 18.02 20.81, 34.54 2.2 M2.13 45.58 C8.82 36.6, 20.92 26.96, 39.52 2.56 M2.13 45.58 C14.26 31.16, 26.97 15.34, 39.52 2.56 M1.87 51.97 C15.54 38.17, 24.04 25.25, 45.17 2.16 M1.87 51.97 C10.7 40.89, 20.39 29.89, 45.17 2.16 M2.26 57.62 C18.11 38.66, 33.32 18.94, 50.15 2.52 M2.26 57.62 C21.57 35.73, 39.32 13.51, 50.15 2.52 M2 64.01 C22.51 40.34, 40.3 17.92, 55.8 2.13 M2 64.01 C19.98 44.33, 36.73 23.69, 55.8 2.13 M1.74 70.41 C18.91 50.59, 36.15 31.35, 60.78 2.49 M1.74 70.41 C20.47 48.41, 39.97 28.01, 60.78 2.49 M2.13 76.05 C16.34 58.86, 33.41 39.51, 65.77 2.85 M2.13 76.05 C21.44 54.08, 42 30.7, 65.77 2.85 M1.87 82.45 C25.38 55.51, 45.98 32.05, 71.41 2.45 M1.87 82.45 C24.33 57.97, 46.12 32.02, 71.41 2.45 M2.27 88.1 C21.17 65.76, 37.99 44.97, 76.4 2.81 M2.27 88.1 C19.37 68.82, 36.01 49.89, 76.4 2.81 M2 94.49 C26.44 67.87, 47.31 40.86, 82.04 2.42 M2 94.49 C23.01 71.32, 43.06 50.35, 82.04 2.42 M3.06 99.38 C29.85 67.63, 57.83 38.5, 87.03 2.78 M3.06 99.38 C26.95 70.96, 52.71 42.32, 87.03 2.78 M3.45 105.03 C40.77 64.08, 74.22 24.88, 92.67 2.38 M3.45 105.03 C29.26 77.99, 52.65 49.35, 92.67 2.38 M2.53 112.18 C32.81 82.66, 60.36 47.41, 97.66 2.74 M2.53 112.18 C22.44 88.3, 44.8 64.76, 97.66 2.74 M4.9 115.56 C44.18 72.51, 78.42 28.19, 103.96 1.6 M4.9 115.56 C43.77 70.7, 84.17 24.6, 103.96 1.6 M7.26 118.94 C27.79 95.72, 49.67 70.51, 108.29 2.71 M7.26 118.94 C35.87 88.61, 61.66 58.27, 108.29 2.71 M10.28 121.56 C28.71 96.07, 51.27 75.8, 111.97 4.58 M10.28 121.56 C42.88 82.85, 76.64 43.31, 111.97 4.58 M12.64 124.94 C34.19 97.67, 56.09 73.7, 116.3 5.69 M12.64 124.94 C50.95 80.56, 88.2 38.75, 116.3 5.69 M16.97 126.05 C37.91 103.07, 60.26 74.95, 119.32 8.32 M16.97 126.05 C39.52 99.91, 60.51 75.09, 119.32 8.32 M20.65 127.92 C45.03 98.62, 71.68 69.13, 121.68 11.7 M20.65 127.92 C46.13 100.5, 69.04 72.81, 121.68 11.7 M24.98 129.04 C61.95 85.24, 98.77 42.68, 124.7 14.32 M24.98 129.04 C56.33 92.82, 87.57 57.58, 124.7 14.32 M29.96 129.4 C67.65 88.03, 102.08 47.51, 126.4 18.46 M29.96 129.4 C56.24 99, 81.91 69.89, 126.4 18.46 M35.61 129 C59.53 104.93, 80.43 77.77, 126.8 24.1 M35.61 129 C63.56 96.13, 93.02 63.16, 126.8 24.1 M40.59 129.36 C60.48 109.05, 78.26 88.83, 127.19 29.74 M40.59 129.36 C60.51 106.96, 80.96 83.52, 127.19 29.74 M46.24 128.97 C76.27 93.23, 107.48 58.31, 128.9 33.88 M46.24 128.97 C64.15 106.42, 83.83 85.61, 128.9 33.88 M51.22 129.33 C77.35 98.99, 101.7 71.18, 129.29 39.52 M51.22 129.33 C78.18 97.66, 104.49 68.49, 129.29 39.52 M56.87 128.93 C82.82 99.91, 104.57 74.66, 129.03 45.92 M56.87 128.93 C77.63 104.78, 99.32 81.17, 129.03 45.92 M61.85 129.29 C81.2 110.29, 96.55 91.98, 128.77 52.31 M61.85 129.29 C77.15 111.68, 92.75 95.77, 128.77 52.31 M66.84 129.65 C86.56 109.48, 102.24 85.69, 129.17 57.96 M66.84 129.65 C82.61 111.61, 97.65 93.43, 129.17 57.96 M72.48 129.26 C88.87 112.18, 101.93 95.31, 128.9 64.35 M72.48 129.26 C92.99 106.69, 112.87 81.99, 128.9 64.35 M77.47 129.62 C87.53 115.66, 98.82 103.68, 128.64 70.75 M77.47 129.62 C92.14 112.47, 107.47 94.45, 128.64 70.75 M83.11 129.23 C93.61 117.48, 104.38 106.36, 129.04 76.4 M83.11 129.23 C101.04 109.63, 117.88 87.85, 129.04 76.4 M88.1 129.59 C98.78 117.6, 108.55 105.29, 128.78 82.79 M88.1 129.59 C100.77 114.22, 114.54 98.67, 128.78 82.79 M93.74 129.19 C100.24 118.44, 111.89 109.34, 128.52 89.19 M93.74 129.19 C102.63 118.34, 110.52 109.62, 128.52 89.19 M97.42 131.06 C104.28 124.49, 111.51 117.7, 128.91 94.83 M97.42 131.06 C106.49 119.65, 116.03 109.81, 128.91 94.83 M103.72 129.91 C110.42 121.09, 119.44 109.67, 128.65 101.23 M103.72 129.91 C109.02 123.27, 115.93 115.74, 128.65 101.23 M110.67 128.01 C116.45 122.52, 119.66 118.81, 129.04 106.88 M110.67 128.01 C114.84 123.38, 117.96 119.57, 129.04 106.88" stroke="#228be6" stroke-width="0.5" fill="none"></path><path d="M31.75 0 M31.75 0 C52.61 0.71, 67.93 -1.33, 95.25 0 M31.75 0 C55.08 -1.46, 77.53 -0.06, 95.25 0 M95.25 0 C115.54 -0.01, 126.42 11.47, 127 31.75 M95.25 0 C118.67 1.31, 128.37 12.54, 127 31.75 M127 31.75 C127.74 49.13, 128.42 66.27, 127 97.25 M127 31.75 C128.46 47.41, 127.86 64.54, 127 97.25 M127 97.25 C125.03 116.51, 117.77 127.4, 95.25 129 M127 97.25 C128.05 118.71, 116.83 128.43, 95.25 129 M95.25 129 C73.53 127.74, 55.47 128.32, 31.75 129 M95.25 129 C78.42 130.23, 63.14 129.47, 31.75 129 M31.75 129 C10.84 128.27, -0.44 116.64, 0 97.25 M31.75 129 C11.22 130.69, 0.66 116.46, 0 97.25 M0 97.25 C1.93 73.98, -1.58 48.01, 0 31.75 M0 97.25 C0.69 77.17, 0.84 57.22, 0 31.75 M0 31.75 C0.12 10.56, 11.32 1.76, 31.75 0 M0 31.75 C-1.34 12.09, 10.36 2.21, 31.75 0" stroke="#000000" stroke-width="1" fill="none"></path></g><g transform="translate(499.5880432128906 15) rotate(0 50.911956787109375 10)"><text x="50.911956787109375" y="0" font-family="Virgil, Segoe UI Emoji" font-size="16px" fill="#000000" text-anchor="middle" style="white-space: pre;" direction="ltr" dominant-baseline="text-before-edge">host program</text></g><g stroke-linecap="round" transform="translate(490 155) rotate(0 63.5 61.5)"><path d="M4.47 11.84 C4.47 11.84, 4.47 11.84, 4.47 11.84 M4.47 11.84 C4.47 11.84, 4.47 11.84, 4.47 11.84 M3.56 18.99 C9.17 13.59, 10.97 11.61, 17.99 2.39 M3.56 18.99 C5.82 15.61, 10.41 12.28, 17.99 2.39 M2.64 26.14 C8.21 19.37, 16.65 10.71, 24.29 1.24 M2.64 26.14 C10.89 17.59, 19.71 7.58, 24.29 1.24 M2.38 32.54 C11.45 26.04, 16.92 17.48, 29.93 0.84 M2.38 32.54 C9.68 25.58, 15.32 18.15, 29.93 0.84 M2.12 38.94 C11.38 27.28, 24.3 13.73, 33.61 2.71 M2.12 38.94 C9.07 29.84, 17.76 20.56, 33.61 2.71 M2.51 44.58 C9.06 35.78, 21.01 26.31, 39.25 2.32 M2.51 44.58 C14.42 30.43, 26.91 14.86, 39.25 2.32 M2.25 50.98 C15.56 37.58, 23.71 25.08, 44.24 2.68 M2.25 50.98 C10.79 40.23, 20.19 29.57, 44.24 2.68 M1.99 57.38 C17.62 38.68, 32.61 19.21, 49.22 3.04 M1.99 57.38 C21.03 35.79, 38.52 13.87, 49.22 3.04 M2.38 63.02 C22.42 39.89, 39.72 18.03, 54.87 2.64 M2.38 63.02 C19.92 43.82, 36.25 23.68, 54.87 2.64 M2.12 69.42 C18.9 50.05, 35.74 31.27, 59.85 3 M2.12 69.42 C20.44 47.89, 39.52 27.96, 59.85 3 M2.52 75.06 C16.56 58.05, 33.46 38.89, 65.5 2.61 M2.52 75.06 C21.62 53.32, 41.98 30.18, 65.5 2.61 M2.25 81.46 C25.34 55, 45.53 32.01, 70.48 2.97 M2.25 81.46 C24.3 57.45, 45.68 31.98, 70.48 2.97 M1.99 87.86 C20.9 65.52, 37.72 44.73, 76.13 2.58 M1.99 87.86 C19.1 68.58, 35.74 49.65, 76.13 2.58 M1.73 94.26 C25.97 67.85, 46.65 41.06, 81.11 2.94 M1.73 94.26 C22.57 71.26, 42.46 50.48, 81.11 2.94 M2.78 99.14 C29.36 67.63, 57.13 38.74, 86.1 3.3 M2.78 99.14 C26.49 70.95, 52.05 42.53, 86.1 3.3 M1.86 106.3 C39.45 65.05, 73.17 25.55, 91.74 2.9 M1.86 106.3 C27.86 79.06, 51.43 50.21, 91.74 2.9 M4.23 109.68 C33.72 81.02, 60.5 46.66, 96.73 3.26 M4.23 109.68 C23.57 86.45, 45.36 63.57, 96.73 3.26 M6.59 113.05 C45.37 70.58, 79.12 26.84, 104.34 0.6 M6.59 113.05 C44.94 68.79, 84.81 23.29, 104.34 0.6 M9.61 115.68 C29.61 93.09, 50.94 68.51, 108.02 2.47 M9.61 115.68 C37.5 86.16, 62.6 56.61, 108.02 2.47 M11.97 119.06 C30.15 93.87, 52.44 73.91, 112.35 3.59 M11.97 119.06 C44.15 80.85, 77.48 41.81, 112.35 3.59 M16.3 120.17 C36.98 93.9, 58.03 70.9, 116.02 5.46 M16.3 120.17 C53.18 77.46, 89 37.28, 116.02 5.46 M20.63 121.29 C40.76 99.25, 62.28 72.08, 119.04 8.08 M20.63 121.29 C42.35 96.12, 62.49 72.27, 119.04 8.08 M24.31 123.16 C47.86 94.82, 73.69 66.28, 122.06 10.71 M24.31 123.16 C48.99 96.63, 71.13 69.83, 122.06 10.71 M29.3 123.52 C64.57 81.71, 99.67 41.14, 124.42 14.08 M29.3 123.52 C59.25 88.96, 89.04 55.38, 124.42 14.08 M34.94 123.12 C70.67 83.94, 103.18 45.62, 126.13 18.22 M34.94 123.12 C59.84 94.36, 84.08 66.88, 126.13 18.22 M39.93 123.48 C62.89 100.5, 82.87 74.41, 127.18 23.11 M39.93 123.48 C66.67 92.02, 94.9 60.48, 127.18 23.11 M45.57 123.09 C64.48 103.85, 81.34 84.7, 127.58 28.75 M45.57 123.09 C64.39 101.89, 83.79 79.66, 127.58 28.75 M50.56 123.45 C79.12 89.38, 108.86 56.16, 129.28 32.88 M50.56 123.45 C67.58 101.94, 86.36 82.16, 129.28 32.88 M56.2 123.05 C80.61 94.68, 103.3 68.78, 129.02 39.28 M56.2 123.05 C81.4 93.45, 105.91 66.36, 129.02 39.28 M61.19 123.41 C85.8 95.92, 106.23 72.19, 129.42 44.92 M61.19 123.41 C80.81 100.54, 101.37 78.22, 129.42 44.92 M66.17 123.77 C84.5 105.9, 98.84 88.75, 129.15 51.32 M66.17 123.77 C80.59 107.17, 95.3 92.28, 129.15 51.32 M71.82 123.38 C90 104.99, 104.09 83.02, 128.89 57.72 M71.82 123.38 C86.21 106.8, 99.95 90.13, 128.89 57.72 M76.8 123.74 C92.08 107.92, 104.08 92.27, 129.29 63.36 M76.8 123.74 C95.91 102.81, 114.39 79.7, 129.29 63.36 M82.45 123.34 C91.55 110.53, 101.85 99.67, 129.03 69.76 M82.45 123.34 C95.73 107.75, 109.68 91.31, 129.03 69.76 M87.43 123.7 C96.95 113.1, 106.73 103.12, 128.76 76.16 M87.43 123.7 C103.57 106.16, 118.63 86.42, 128.76 76.16 M93.08 123.31 C102.49 112.77, 111.04 101.87, 129.16 81.8 M93.08 123.31 C104.24 109.76, 116.47 95.99, 129.16 81.8 M97.41 124.42 C103.13 114.61, 113.96 106.44, 128.9 88.2 M97.41 124.42 C105.47 114.54, 112.53 106.77, 128.9 88.2 M103.71 123.28 C109.25 118.24, 115.14 112.98, 128.64 94.6 M103.71 123.28 C110.85 114.06, 118.48 106.43, 128.64 94.6 M110.66 121.37 C114.96 115.23, 121.65 106.48, 128.37 100.99 M110.66 121.37 C114.22 116.85, 119.32 111.4, 128.37 100.99" stroke="#e64980" stroke-width="0.5" fill="none"></path><path d="M30.75 0 M30.75 0 C46.74 -1.34, 60.2 -0.46, 96.25 0 M30.75 0 C45.23 0.38, 58.57 1.15, 96.25 0 M96.25 0 C116.72 0.19, 125.73 12.16, 127 30.75 M96.25 0 C117.1 -1.99, 125 11.59, 127 30.75 M127 30.75 C125.45 45.12, 128.25 57.53, 127 92.25 M127 30.75 C127.8 49.73, 127.42 68.42, 127 92.25 M127 92.25 C126.47 112.71, 115.68 123.75, 96.25 123 M127 92.25 C126.4 114.39, 115.27 121.81, 96.25 123 M96.25 123 C69.3 124.06, 45.29 121.58, 30.75 123 M96.25 123 C83.29 122.61, 69.6 122.23, 30.75 123 M30.75 123 C10.82 123.1, 1.51 111.88, 0 92.25 M30.75 123 C8.24 125.2, -1.33 111.66, 0 92.25 M0 92.25 C1.07 72.9, -0.44 53.98, 0 30.75 M0 92.25 C0.41 76.79, 0.42 59, 0 30.75 M0 30.75 C1.43 10.04, 11.63 1.87, 30.75 0 M0 30.75 C1.21 8.35, 9.58 0.04, 30.75 0" stroke="#000000" stroke-width="1" fill="none"></path></g><g transform="translate(512.3160400390625 160) rotate(0 41.1839599609375 10)"><text x="41.1839599609375" y="0" font-family="Virgil, Segoe UI Emoji" font-size="16px" fill="#000000" text-anchor="middle" style="white-space: pre;" direction="ltr" dominant-baseline="text-before-edge">wasm apps</text></g><g stroke-linecap="round" transform="translate(153.5 176.5) rotate(0 52.5 25)"><path d="M3.33 2.89 C3.33 2.89, 3.33 2.89, 3.33 2.89 M3.33 2.89 C3.33 2.89, 3.33 2.89, 3.33 2.89 M1.75 10.8 C3.96 6.31, 9.09 3.8, 10.28 0.99 M1.75 10.8 C5.05 6.55, 8.09 3.81, 10.28 0.99 M1.49 17.2 C7.34 12.18, 11.63 9.11, 14.61 2.1 M1.49 17.2 C3.41 14.41, 6.83 10.46, 14.61 2.1 M1.89 22.84 C7.12 17.44, 13.5 6.86, 20.26 1.71 M1.89 22.84 C8.9 14.58, 16.27 7.18, 20.26 1.71 M1.63 29.24 C6.27 23.6, 12.59 14.73, 25.24 2.07 M1.63 29.24 C10.29 18.99, 18.49 9.26, 25.24 2.07 M1.36 35.64 C10.75 24.42, 20.15 14.4, 30.89 1.67 M1.36 35.64 C12.59 22.83, 23.14 11.6, 30.89 1.67 M1.76 41.28 C11.7 29.09, 22.15 16.11, 35.87 2.03 M1.76 41.28 C13.99 26.92, 26.92 12.84, 35.87 2.03 M2.81 46.17 C11.3 35.21, 19.82 26.58, 41.52 1.64 M2.81 46.17 C13.83 33.89, 25.04 21.91, 41.52 1.64 M5.83 48.79 C15.73 35.94, 31.01 23.26, 46.5 2 M5.83 48.79 C17.95 35.12, 29.06 20.87, 46.5 2 M10.16 49.91 C23.34 33.72, 38.02 15.27, 52.15 1.61 M10.16 49.91 C23.55 35.64, 36.13 19.82, 52.15 1.61 M13.83 51.78 C25.95 37.28, 42.9 20.57, 57.13 1.97 M13.83 51.78 C29.79 32.73, 46.28 13.1, 57.13 1.97 M19.48 51.38 C33.85 36.72, 46.04 18.84, 62.12 2.33 M19.48 51.38 C32.89 34.15, 48.54 18.61, 62.12 2.33 M24.46 51.74 C37.28 38.3, 50.99 20.04, 67.76 1.93 M24.46 51.74 C41.68 33.31, 56.87 14.47, 67.76 1.93 M30.11 51.35 C41.76 37.97, 49.32 28.4, 72.75 2.29 M30.11 51.35 C41.99 37.22, 56.37 20.43, 72.75 2.29 M35.09 51.71 C47.73 37.08, 61.41 23.37, 78.39 1.9 M35.09 51.71 C50.9 33.37, 65.57 15.18, 78.39 1.9 M40.74 51.31 C51.02 42.74, 57.49 31.14, 83.38 2.26 M40.74 51.31 C51.08 38.87, 62.3 28.42, 83.38 2.26 M45.72 51.67 C54.76 39.05, 63.74 28.35, 89.02 1.86 M45.72 51.67 C59.1 36.25, 72.76 21.9, 89.02 1.86 M51.37 51.28 C60.92 38.11, 74.41 25.45, 94.67 1.47 M51.37 51.28 C60.96 40.62, 69.97 30.65, 94.67 1.47 M56.35 51.64 C69.71 36.34, 82.95 24.66, 99 2.58 M56.35 51.64 C71.73 34.94, 85.38 17.12, 99 2.58 M62 51.24 C72.76 36.36, 87.38 22.6, 102.67 4.45 M62 51.24 C70.83 41.26, 80.7 29.87, 102.67 4.45 M66.98 51.6 C81.04 34.41, 92.38 22.17, 105.69 7.08 M66.98 51.6 C79.58 38.27, 90.59 24.48, 105.69 7.08 M72.63 51.21 C87.76 34.55, 99.37 21.93, 107.4 11.21 M72.63 51.21 C83.46 40.63, 92.25 28.76, 107.4 11.21 M77.61 51.57 C84 41.53, 94.72 34.74, 107.14 17.61 M77.61 51.57 C89.35 38.11, 100.16 25.7, 107.14 17.61 M83.26 51.17 C89.64 43.41, 93.62 40.36, 106.88 24 M83.26 51.17 C89.94 42.19, 98.38 32.54, 106.88 24 M88.24 51.53 C92.74 47.38, 98.15 40.98, 107.27 29.65 M88.24 51.53 C91.97 46.78, 96.72 40.5, 107.27 29.65 M93.89 51.14 C97.88 48.86, 99.18 44.47, 105.7 37.56 M93.89 51.14 C98.26 46.63, 101.81 42.85, 105.7 37.56" stroke="#fab005" stroke-width="0.5" fill="none"></path><path d="M12.5 0 M12.5 0 C27.73 1.46, 47.89 -0.86, 92.5 0 M12.5 0 C34.81 -0.06, 58.87 -1.37, 92.5 0 M92.5 0 C100.2 -1.73, 106.17 3.74, 105 12.5 M92.5 0 C100.79 -2.06, 105.89 5.33, 105 12.5 M105 12.5 C103.9 19.39, 104.42 23.31, 105 37.5 M105 12.5 C105.58 17.83, 105.45 24.67, 105 37.5 M105 37.5 C106.78 44.32, 101.11 49.7, 92.5 50 M105 37.5 C103.58 43.79, 99.53 48.19, 92.5 50 M92.5 50 C60.7 50.5, 33.07 48.41, 12.5 50 M92.5 50 C75.88 49.49, 58.28 49.99, 12.5 50 M12.5 50 C2.94 48.99, -0.26 45.28, 0 37.5 M12.5 50 C4.54 48.42, -0.97 46.94, 0 37.5 M0 37.5 C0.08 28.56, 0.31 16.87, 0 12.5 M0 37.5 C0.82 31.47, -0.75 26.3, 0 12.5 M0 12.5 C-0.25 5.62, 5.92 -0.94, 12.5 0 M0 12.5 C-1.81 4.63, 3.99 -1.67, 12.5 0" stroke="#000000" stroke-width="1" fill="none"></path></g><g transform="translate(160.72802734375 181.5) rotate(0 45.27197265625 20)"><text x="45.27197265625" y="0" font-family="Virgil, Segoe UI Emoji" font-size="16px" fill="#000000" text-anchor="middle" style="white-space: pre;" direction="ltr" dominant-baseline="text-before-edge">source file </text><text x="45.27197265625" y="20" font-family="Virgil, Segoe UI Emoji" font-size="16px" fill="#000000" text-anchor="middle" style="white-space: pre;" direction="ltr" dominant-baseline="text-before-edge">2</text></g><g stroke-linecap="round"><g transform="translate(161 90) rotate(0 -60.17459480278194 10.098938713207389)"><path d="M-0.48 0.66 C-10.76 0.15, -40.65 -6.24, -60.55 -2.38 C-80.45 1.48, -109.88 19.39, -119.87 23.81" stroke="#000000" stroke-width="1.5" fill="none" stroke-dasharray="8 9"></path></g><g transform="translate(161 90) rotate(0 -60.17459480278194 10.098938713207389)"><path d="M-98.33 2.59 C-107.94 10.59, -117.3 18.16, -121.34 23.97" stroke="#000000" stroke-width="1.5" fill="none"></path></g><g transform="translate(161 90) rotate(0 -60.17459480278194 10.098938713207389)"><path d="M-89 20.87 C-102.36 21.67, -115.37 22.09, -121.34 23.97" stroke="#000000" stroke-width="1.5" fill="none"></path></g></g><mask></mask><g stroke-linecap="round"><g transform="translate(122.11490828362417 207.15997314453125) rotate(0 -38.85255218318261 -17.60780057236869)"><path d="M-0.18 -0.12 C-3.55 -0.77, -7.47 1.99, -20.37 -3.86 C-33.26 -9.7, -68.03 -29.71, -77.53 -35.19" stroke="#000000" stroke-width="1.5" fill="none" stroke-dasharray="8 9"></path></g><g transform="translate(122.11490828362417 207.15997314453125) rotate(0 -38.85255218318261 -17.60780057236869)"><path d="M-48.17 -30.5 C-57.65 -30.62, -63.39 -31.84, -78.48 -33.82" stroke="#000000" stroke-width="1.5" fill="none"></path></g><g transform="translate(122.11490828362417 207.15997314453125) rotate(0 -38.85255218318261 -17.60780057236869)"><path d="M-58.38 -12.69 C-64.92 -17.93, -67.72 -24.28, -78.48 -33.82" stroke="#000000" stroke-width="1.5" fill="none"></path></g></g><mask></mask><g transform="translate(99 61) rotate(0 25.079986572265625 10)"><text x="0" y="0" font-family="Virgil, Segoe UI Emoji" font-size="16px" fill="#000000" text-anchor="start" style="white-space: pre;" direction="ltr" dominant-baseline="text-before-edge">include</text></g><g transform="translate(96 214) rotate(0 25.079986572265625 10)"><text x="0" y="0" font-family="Virgil, Segoe UI Emoji" font-size="16px" fill="#000000" text-anchor="start" style="white-space: pre;" direction="ltr" dominant-baseline="text-before-edge">include</text></g><g stroke-linecap="round" transform="translate(494 40) rotate(0 56.5 45)"><path d="M5.33 5.96 C5.33 5.96, 5.33 5.96, 5.33 5.96 M5.33 5.96 C5.33 5.96, 5.33 5.96, 5.33 5.96 M0.48 17.64 C4.78 11.96, 9.8 7.22, 13.6 2.55 M0.48 17.64 C2.79 14.17, 5.68 11.65, 13.6 2.55 M0.87 23.28 C3.23 19.73, 8.93 15.86, 19.9 1.4 M0.87 23.28 C7.58 15.41, 12.67 9.53, 19.9 1.4 M0.61 29.68 C11.21 19.69, 19.63 8.74, 24.89 1.76 M0.61 29.68 C8.86 18.9, 17.53 9.68, 24.89 1.76 M0.35 36.08 C10.92 23.08, 21.54 7.79, 29.87 2.12 M0.35 36.08 C8.74 28.01, 14.92 19.81, 29.87 2.12 M0.75 41.72 C10.54 28.72, 21.88 16.95, 35.52 1.72 M0.75 41.72 C13.2 28.69, 23.68 15.25, 35.52 1.72 M0.48 48.12 C16.93 30.78, 28.46 13.22, 40.5 2.08 M0.48 48.12 C9.89 37.58, 19.79 25.31, 40.5 2.08 M0.88 53.76 C15.87 39.85, 28.59 21.25, 46.15 1.69 M0.88 53.76 C15.79 34.88, 32.59 16.39, 46.15 1.69 M0.62 60.16 C16.27 43.13, 26.94 30.5, 51.13 2.05 M0.62 60.16 C19.78 38.49, 37.76 17.64, 51.13 2.05 M0.36 66.56 C9.84 55.46, 23.1 40.55, 56.78 1.65 M0.36 66.56 C19.86 43.53, 41.61 19.07, 56.78 1.65 M0.75 72.2 C19.34 51.95, 37.46 28.05, 61.76 2.01 M0.75 72.2 C23.96 44.42, 47.83 16.32, 61.76 2.01 M3.11 75.58 C18.13 61.9, 32.78 46.33, 67.41 1.62 M3.11 75.58 C24.34 51.29, 45.05 27, 67.41 1.62 M4.82 79.72 C24.2 58.77, 44.4 34.91, 72.39 1.98 M4.82 79.72 C23.98 57.42, 42.27 37.77, 72.39 1.98 M5.87 84.6 C34.41 52.48, 59.67 18.67, 78.04 1.59 M5.87 84.6 C32.93 52.61, 60.11 21.87, 78.04 1.59 M9.55 86.47 C32.43 58.47, 59.26 27, 83.02 1.95 M9.55 86.47 C26.48 67.36, 42.45 46.8, 83.02 1.95 M12.56 89.1 C38.82 60.37, 60.59 34.77, 88.01 2.31 M12.56 89.1 C43.01 54.32, 71.13 20.49, 88.01 2.31 M17.55 89.46 C42.99 59.13, 72.85 25.85, 93 2.67 M17.55 89.46 C38.12 67.35, 56.54 44.85, 93 2.67 M22.54 89.82 C40.47 67.32, 61.6 44.98, 97.98 3.03 M22.54 89.82 C38.74 69.57, 55.72 50.19, 97.98 3.03 M25.56 92.44 C52.45 58.95, 83.79 23.49, 102.97 3.39 M25.56 92.44 C42.32 74.45, 58.14 56.04, 102.97 3.39 M30.54 92.8 C48.43 72.51, 65.62 50.64, 105.99 6.01 M30.54 92.8 C55.75 62.44, 82.67 32.32, 105.99 6.01 M36.19 92.41 C50.08 76.83, 66.41 56.37, 109.67 7.88 M36.19 92.41 C62.18 62.63, 85.53 34.52, 109.67 7.88 M41.17 92.77 C62.38 67.84, 84.47 43.28, 112.03 11.26 M41.17 92.77 C65.83 64.5, 91.45 35.55, 112.03 11.26 M46.82 92.37 C74.21 62.58, 96.49 35.1, 114.39 14.64 M46.82 92.37 C70.05 64.19, 93.94 36.8, 114.39 14.64 M51.8 92.73 C66.23 75.53, 82.9 58.55, 114.79 20.28 M51.8 92.73 C65.35 75.99, 81.01 58.98, 114.79 20.28 M57.45 92.34 C78.86 66.16, 102.75 40.58, 115.84 25.17 M57.45 92.34 C77.51 69.03, 97.17 47.4, 115.84 25.17 M62.43 92.7 C80.54 73.37, 97.71 51.67, 115.58 31.57 M62.43 92.7 C80.16 71, 100.11 50.42, 115.58 31.57 M68.08 92.3 C81.79 74.62, 95.98 58.29, 115.97 37.21 M68.08 92.3 C81.02 78.45, 92.32 62.91, 115.97 37.21 M73.06 92.66 C90.13 74.64, 105.61 54.13, 115.71 43.61 M73.06 92.66 C84.05 80.56, 94.19 68.94, 115.71 43.61 M78.71 92.27 C90.11 78.04, 100.39 67.59, 115.45 50.01 M78.71 92.27 C86.82 82.96, 95.65 72.6, 115.45 50.01 M83.69 92.63 C93.38 80.93, 103.08 74.14, 115.84 55.65 M83.69 92.63 C89.47 84.37, 96.06 77.28, 115.84 55.65 M90.65 90.73 C99.46 80.58, 107.82 69.48, 115.58 62.05 M90.65 90.73 C98.94 83.41, 105.27 73.41, 115.58 62.05 M96.95 89.58 C102.95 80.84, 110.06 71.28, 115.32 68.44 M96.95 89.58 C101.89 83.44, 108.16 75.55, 115.32 68.44 M101.94 89.94 C106.26 83.39, 111.37 80.99, 115.06 74.84 M101.94 89.94 C107.32 84.09, 112.03 78.97, 115.06 74.84" stroke="#15aabf" stroke-width="0.5" fill="none"></path><path d="M22.5 0 M22.5 0 C40.3 -1.02, 54.7 1.39, 90.5 0 M22.5 0 C39.65 0.75, 58.94 -0.12, 90.5 0 M90.5 0 C106.84 -0.37, 112.09 7.72, 113 22.5 M90.5 0 C104.33 1.47, 110.98 5.39, 113 22.5 M113 22.5 C111.46 30.64, 111.62 43.04, 113 67.5 M113 22.5 C113.08 37.63, 112.11 51.71, 113 67.5 M113 67.5 C111.29 83.95, 105.52 88.37, 90.5 90 M113 67.5 C113.46 83.83, 107.69 91.18, 90.5 90 M90.5 90 C76.02 87.81, 61.82 89.15, 22.5 90 M90.5 90 C65.13 90.78, 41.65 90.23, 22.5 90 M22.5 90 C8.38 90.26, 0.46 84.24, 0 67.5 M22.5 90 C9.06 89.28, 2 83.34, 0 67.5 M0 67.5 C1.47 54.56, 0.79 39.02, 0 22.5 M0 67.5 C-0.94 53.69, -0.92 39.33, 0 22.5 M0 22.5 C-0.7 6.13, 6.07 -0.73, 22.5 0 M0 22.5 C0.91 6.79, 7.84 1.72, 22.5 0" stroke="#000000" stroke-width="1" fill="none"></path></g><g transform="translate(512.7560272216797 45) rotate(0 37.74397277832031 40)"><text x="37.74397277832031" y="0" font-family="Virgil, Segoe UI Emoji" font-size="16px" fill="#000000" text-anchor="middle" style="white-space: pre;" direction="ltr" dominant-baseline="text-before-edge">structure</text><text x="37.74397277832031" y="20" font-family="Virgil, Segoe UI Emoji" font-size="16px" fill="#000000" text-anchor="middle" style="white-space: pre;" direction="ltr" dominant-baseline="text-before-edge">memory </text><text x="37.74397277832031" y="40" font-family="Virgil, Segoe UI Emoji" font-size="16px" fill="#000000" text-anchor="middle" style="white-space: pre;" direction="ltr" dominant-baseline="text-before-edge">layout</text><text x="37.74397277832031" y="60" font-family="Virgil, Segoe UI Emoji" font-size="16px" fill="#000000" text-anchor="middle" style="white-space: pre;" direction="ltr" dominant-baseline="text-before-edge">1</text></g><g stroke-linecap="round" transform="translate(496.5 182) rotate(0 56.5 45)"><path d="M5.33 5.96 C5.33 5.96, 5.33 5.96, 5.33 5.96 M5.33 5.96 C5.33 5.96, 5.33 5.96, 5.33 5.96 M0.48 17.64 C4.78 11.96, 9.8 7.22, 13.6 2.55 M0.48 17.64 C2.79 14.17, 5.68 11.65, 13.6 2.55 M0.87 23.28 C3.23 19.73, 8.93 15.86, 19.9 1.4 M0.87 23.28 C7.58 15.41, 12.67 9.53, 19.9 1.4 M0.61 29.68 C11.21 19.69, 19.63 8.74, 24.89 1.76 M0.61 29.68 C8.86 18.9, 17.53 9.68, 24.89 1.76 M0.35 36.08 C10.92 23.08, 21.54 7.79, 29.87 2.12 M0.35 36.08 C8.74 28.01, 14.92 19.81, 29.87 2.12 M0.75 41.72 C10.54 28.72, 21.88 16.95, 35.52 1.72 M0.75 41.72 C13.2 28.69, 23.68 15.25, 35.52 1.72 M0.48 48.12 C16.93 30.78, 28.46 13.22, 40.5 2.08 M0.48 48.12 C9.89 37.58, 19.79 25.31, 40.5 2.08 M0.88 53.76 C15.87 39.85, 28.59 21.25, 46.15 1.69 M0.88 53.76 C15.79 34.88, 32.59 16.39, 46.15 1.69 M0.62 60.16 C16.27 43.13, 26.94 30.5, 51.13 2.05 M0.62 60.16 C19.78 38.49, 37.76 17.64, 51.13 2.05 M0.36 66.56 C9.84 55.46, 23.1 40.55, 56.78 1.65 M0.36 66.56 C19.86 43.53, 41.61 19.07, 56.78 1.65 M0.75 72.2 C19.34 51.95, 37.46 28.05, 61.76 2.01 M0.75 72.2 C23.96 44.42, 47.83 16.32, 61.76 2.01 M3.11 75.58 C18.13 61.9, 32.78 46.33, 67.41 1.62 M3.11 75.58 C24.34 51.29, 45.05 27, 67.41 1.62 M4.82 79.72 C24.2 58.77, 44.4 34.91, 72.39 1.98 M4.82 79.72 C23.98 57.42, 42.27 37.77, 72.39 1.98 M5.87 84.6 C34.41 52.48, 59.67 18.67, 78.04 1.59 M5.87 84.6 C32.93 52.61, 60.11 21.87, 78.04 1.59 M9.55 86.47 C32.43 58.47, 59.26 27, 83.02 1.95 M9.55 86.47 C26.48 67.36, 42.45 46.8, 83.02 1.95 M12.56 89.1 C38.82 60.37, 60.59 34.77, 88.01 2.31 M12.56 89.1 C43.01 54.32, 71.13 20.49, 88.01 2.31 M17.55 89.46 C42.99 59.13, 72.85 25.85, 93 2.67 M17.55 89.46 C38.12 67.35, 56.54 44.85, 93 2.67 M22.54 89.82 C40.47 67.32, 61.6 44.98, 97.98 3.03 M22.54 89.82 C38.74 69.57, 55.72 50.19, 97.98 3.03 M25.56 92.44 C52.45 58.95, 83.79 23.49, 102.97 3.39 M25.56 92.44 C42.32 74.45, 58.14 56.04, 102.97 3.39 M30.54 92.8 C48.43 72.51, 65.62 50.64, 105.99 6.01 M30.54 92.8 C55.75 62.44, 82.67 32.32, 105.99 6.01 M36.19 92.41 C50.08 76.83, 66.41 56.37, 109.67 7.88 M36.19 92.41 C62.18 62.63, 85.53 34.52, 109.67 7.88 M41.17 92.77 C62.38 67.84, 84.47 43.28, 112.03 11.26 M41.17 92.77 C65.83 64.5, 91.45 35.55, 112.03 11.26 M46.82 92.37 C74.21 62.58, 96.49 35.1, 114.39 14.64 M46.82 92.37 C70.05 64.19, 93.94 36.8, 114.39 14.64 M51.8 92.73 C66.23 75.53, 82.9 58.55, 114.79 20.28 M51.8 92.73 C65.35 75.99, 81.01 58.98, 114.79 20.28 M57.45 92.34 C78.86 66.16, 102.75 40.58, 115.84 25.17 M57.45 92.34 C77.51 69.03, 97.17 47.4, 115.84 25.17 M62.43 92.7 C80.54 73.37, 97.71 51.67, 115.58 31.57 M62.43 92.7 C80.16 71, 100.11 50.42, 115.58 31.57 M68.08 92.3 C81.79 74.62, 95.98 58.29, 115.97 37.21 M68.08 92.3 C81.02 78.45, 92.32 62.91, 115.97 37.21 M73.06 92.66 C90.13 74.64, 105.61 54.13, 115.71 43.61 M73.06 92.66 C84.05 80.56, 94.19 68.94, 115.71 43.61 M78.71 92.27 C90.11 78.04, 100.39 67.59, 115.45 50.01 M78.71 92.27 C86.82 82.96, 95.65 72.6, 115.45 50.01 M83.69 92.63 C93.38 80.93, 103.08 74.14, 115.84 55.65 M83.69 92.63 C89.47 84.37, 96.06 77.28, 115.84 55.65 M90.65 90.73 C99.46 80.58, 107.82 69.48, 115.58 62.05 M90.65 90.73 C98.94 83.41, 105.27 73.41, 115.58 62.05 M96.95 89.58 C102.95 80.84, 110.06 71.28, 115.32 68.44 M96.95 89.58 C101.89 83.44, 108.16 75.55, 115.32 68.44 M101.94 89.94 C106.26 83.39, 111.37 80.99, 115.06 74.84 M101.94 89.94 C107.32 84.09, 112.03 78.97, 115.06 74.84" stroke="#fa5252" stroke-width="0.5" fill="none"></path><path d="M22.5 0 M22.5 0 C40.3 -1.02, 54.7 1.39, 90.5 0 M22.5 0 C39.65 0.75, 58.94 -0.12, 90.5 0 M90.5 0 C106.84 -0.37, 112.09 7.72, 113 22.5 M90.5 0 C104.33 1.47, 110.98 5.39, 113 22.5 M113 22.5 C111.46 30.64, 111.62 43.04, 113 67.5 M113 22.5 C113.08 37.63, 112.11 51.71, 113 67.5 M113 67.5 C111.29 83.95, 105.52 88.37, 90.5 90 M113 67.5 C113.46 83.83, 107.69 91.18, 90.5 90 M90.5 90 C76.02 87.81, 61.82 89.15, 22.5 90 M90.5 90 C65.13 90.78, 41.65 90.23, 22.5 90 M22.5 90 C8.38 90.26, 0.46 84.24, 0 67.5 M22.5 90 C9.06 89.28, 2 83.34, 0 67.5 M0 67.5 C1.47 54.56, 0.79 39.02, 0 22.5 M0 67.5 C-0.94 53.69, -0.92 39.33, 0 22.5 M0 22.5 C-0.7 6.13, 6.07 -0.73, 22.5 0 M0 22.5 C0.91 6.79, 7.84 1.72, 22.5 0" stroke="#000000" stroke-width="1" fill="none"></path></g><g transform="translate(515.2560272216797 187) rotate(0 37.74397277832031 40)"><text x="37.74397277832031" y="0" font-family="Virgil, Segoe UI Emoji" font-size="16px" fill="#000000" text-anchor="middle" style="white-space: pre;" direction="ltr" dominant-baseline="text-before-edge">structure</text><text x="37.74397277832031" y="20" font-family="Virgil, Segoe UI Emoji" font-size="16px" fill="#000000" text-anchor="middle" style="white-space: pre;" direction="ltr" dominant-baseline="text-before-edge">memory </text><text x="37.74397277832031" y="40" font-family="Virgil, Segoe UI Emoji" font-size="16px" fill="#000000" text-anchor="middle" style="white-space: pre;" direction="ltr" dominant-baseline="text-before-edge">layout</text><text x="37.74397277832031" y="60" font-family="Virgil, Segoe UI Emoji" font-size="16px" fill="#000000" text-anchor="middle" style="white-space: pre;" direction="ltr" dominant-baseline="text-before-edge">2</text></g></svg>