<svg version="1.1" xmlns="http://www.w3.org/2000/svg" viewBox="0 0 1174 507.5166802356475" width="1174" height="507.5166802356475">
  <!-- svg-source:excalidraw -->
  
  <defs>
    <style class="style-fonts">
      @font-face {
        font-family: "Virgil";
        src: url("https://file%2B.vscode-resource.vscode-cdn.net/c%3A/Users/jiongqia/.vscode/extensions/pomdtr.excalidraw-editor-3.5.1/public//dist/excalidraw-assets/Virgil.woff2");
      }
      @font-face {
        font-family: "Cascadia";
        src: url("https://file%2B.vscode-resource.vscode-cdn.net/c%3A/Users/jiongqia/.vscode/extensions/pomdtr.excalidraw-editor-3.5.1/public//dist/excalidraw-assets/Cascadia.woff2");
      }
    </style>
  </defs>
  <rect x="0" y="0" width="1174" height="507.5166802356475" fill="#ffffff"></rect><g stroke-linecap="round" transform="translate(305 223) rotate(0 272.5 113)"><path d="M32 0 M32 0 C219.92 1.12, 409 2.15, 513 0 M32 0 C185.55 -0.2, 338.87 0.14, 513 0 M513 0 C534.06 0.63, 543.43 12.12, 545 32 M513 0 C534.1 1.85, 544.57 8.76, 545 32 M545 32 C544.58 93.3, 544.33 154.97, 545 194 M545 32 C545.21 67.12, 543.59 101.44, 545 194 M545 194 C544.41 215.94, 536.08 227.21, 513 226 M545 194 C543.08 217.58, 534.48 224.01, 513 226 M513 226 C352.81 224.99, 193.03 224.95, 32 226 M513 226 C353.12 224.68, 194.02 224.87, 32 226 M32 226 C8.76 226.58, 1.47 214.15, 0 194 M32 226 C8.54 226.35, -0.91 216.17, 0 194 M0 194 C2.29 151.34, 3.11 113.36, 0 32 M0 194 C-1.09 155.47, -1.54 119.38, 0 32 M0 32 C0.86 10.93, 9.1 -1.18, 32 0 M0 32 C0.17 9.24, 10.79 0.06, 32 0" stroke="#000000" stroke-width="1" fill="none"></path></g><g transform="translate(483.75 228) rotate(0 93.75 12)"><text x="93.75" y="0" font-family="Cascadia, Segoe UI Emoji" font-size="20px" fill="#000000" text-anchor="middle" style="white-space: pre;" direction="ltr" dominant-baseline="text-before-edge">The naitve world</text></g><g stroke-linecap="round" transform="translate(233.63671875 293) rotate(0 13.5 17)"><path d="M3.22 4.13 C3.22 4.13, 3.22 4.13, 3.22 4.13 M3.22 4.13 C3.22 4.13, 3.22 4.13, 3.22 4.13 M-0.09 13.24 C1.99 10.1, 6.57 5.21, 13.02 -0.75 M0.47 12.96 C3.72 9.31, 5.62 6.86, 11.79 -0.43 M2.69 16.4 C6.39 10.97, 10.92 5.89, 14.14 3.79 M3.22 16.69 C6.15 13.37, 8.54 11.32, 15.8 1.16 M5.32 20.22 C8.25 15.34, 17.43 6.79, 20.05 5.27 M3.73 22.72 C9.82 15.12, 14.5 8.15, 19.47 3.26 M3.46 29.43 C9.18 19.23, 15.54 13.23, 23.15 6.09 M4.6 26.95 C10.12 20.23, 17.85 13.11, 23.82 4.23 M7.85 29.99 C13.77 21.99, 21.8 13.85, 27.57 8.93 M6.99 30.31 C11.15 24.11, 16.68 17.46, 25.6 7.78 M10.95 34.34 C15.51 27.26, 20.21 21.44, 28.01 11.94 M9.82 33.01 C14.3 26.9, 20.41 20.24, 27.19 12.36 M10.36 36.36 C15.24 32.85, 21.82 26.31, 31.22 14.82 M12.49 37.76 C19.48 28.55, 25.38 19.73, 30.46 16.37" stroke="#4c6ef5" stroke-width="0.5" fill="none"></path><path d="M12.8 -0.24 C15.61 -0.65, 19.53 0.81, 21.95 3.01 C24.37 5.22, 26.64 9.4, 27.32 13.02 C28 16.63, 27.36 21.56, 26.04 24.73 C24.72 27.89, 22.2 30.47, 19.41 32.03 C16.62 33.59, 12.15 35.1, 9.31 34.09 C6.47 33.07, 3.81 29.22, 2.36 25.95 C0.91 22.69, 0.42 18.21, 0.6 14.52 C0.79 10.83, 1.48 6.17, 3.49 3.81 C5.5 1.46, 10.89 0.88, 12.65 0.38 C14.41 -0.11, 13.93 0.49, 14.05 0.84 M8.47 0.48 C10.9 -0.79, 16.43 -0.09, 19.54 1.47 C22.65 3.04, 26.16 6.65, 27.13 9.87 C28.1 13.08, 26.12 17.42, 25.38 20.76 C24.64 24.09, 24.73 27.65, 22.7 29.87 C20.67 32.09, 16.09 34.06, 13.19 34.07 C10.3 34.08, 7.49 32.54, 5.31 29.93 C3.13 27.32, 0.8 22.35, 0.14 18.41 C-0.52 14.47, -0.22 9.05, 1.35 6.29 C2.93 3.53, 8.05 2.51, 9.59 1.84 C11.13 1.16, 10.29 1.94, 10.59 2.24" stroke="#364fc7" stroke-width="1" fill="none"></path></g><g stroke-linecap="round" transform="translate(867.13671875 238) rotate(0 13.5 17)"><path d="M3.22 4.13 C3.22 4.13, 3.22 4.13, 3.22 4.13 M3.22 4.13 C3.22 4.13, 3.22 4.13, 3.22 4.13 M-0.09 13.24 C1.99 10.1, 6.57 5.21, 13.02 -0.75 M0.47 12.96 C3.72 9.31, 5.62 6.86, 11.79 -0.43 M2.69 16.4 C6.39 10.97, 10.92 5.89, 14.14 3.79 M3.22 16.69 C6.15 13.37, 8.54 11.32, 15.8 1.16 M5.32 20.22 C8.25 15.34, 17.43 6.79, 20.05 5.27 M3.73 22.72 C9.82 15.12, 14.5 8.15, 19.47 3.26 M3.46 29.43 C9.18 19.23, 15.54 13.23, 23.15 6.09 M4.6 26.95 C10.12 20.23, 17.85 13.11, 23.82 4.23 M7.85 29.99 C13.77 21.99, 21.8 13.85, 27.57 8.93 M6.99 30.31 C11.15 24.11, 16.68 17.46, 25.6 7.78 M10.95 34.34 C15.51 27.26, 20.21 21.44, 28.01 11.94 M9.82 33.01 C14.3 26.9, 20.41 20.24, 27.19 12.36 M10.36 36.36 C15.24 32.85, 21.82 26.31, 31.22 14.82 M12.49 37.76 C19.48 28.55, 25.38 19.73, 30.46 16.37" stroke="#fd7e14" stroke-width="0.5" fill="none"></path><path d="M12.8 -0.24 C15.61 -0.65, 19.53 0.81, 21.95 3.01 C24.37 5.22, 26.64 9.4, 27.32 13.02 C28 16.63, 27.36 21.56, 26.04 24.73 C24.72 27.89, 22.2 30.47, 19.41 32.03 C16.62 33.59, 12.15 35.1, 9.31 34.09 C6.47 33.07, 3.81 29.22, 2.36 25.95 C0.91 22.69, 0.42 18.21, 0.6 14.52 C0.79 10.83, 1.48 6.17, 3.49 3.81 C5.5 1.46, 10.89 0.88, 12.65 0.38 C14.41 -0.11, 13.93 0.49, 14.05 0.84 M8.47 0.48 C10.9 -0.79, 16.43 -0.09, 19.54 1.47 C22.65 3.04, 26.16 6.65, 27.13 9.87 C28.1 13.08, 26.12 17.42, 25.38 20.76 C24.64 24.09, 24.73 27.65, 22.7 29.87 C20.67 32.09, 16.09 34.06, 13.19 34.07 C10.3 34.08, 7.49 32.54, 5.31 29.93 C3.13 27.32, 0.8 22.35, 0.14 18.41 C-0.52 14.47, -0.22 9.05, 1.35 6.29 C2.93 3.53, 8.05 2.51, 9.59 1.84 C11.13 1.16, 10.29 1.94, 10.59 2.24" stroke="#d9480f" stroke-width="1" fill="none"></path></g><g stroke-linecap="round" transform="translate(399.63671875 268) rotate(0 212.5 77)"><path d="M7.86 8.16 C7.86 8.16, 7.86 8.16, 7.86 8.16 M7.86 8.16 C7.86 8.16, 7.86 8.16, 7.86 8.16 M3.66 19.09 C8.58 15.58, 13.59 7.64, 18.1 2.48 M3.66 19.09 C8.74 13.33, 12.52 7.39, 18.1 2.48 M2.75 26.24 C11.25 18.69, 15.05 13.42, 24.4 1.33 M2.75 26.24 C8.42 18.92, 15.68 12.57, 24.4 1.33 M2.48 32.64 C7.91 23.81, 15.89 18.93, 30.7 0.18 M2.48 32.64 C12.98 21.5, 22.07 10.88, 30.7 0.18 M2.88 38.28 C11.83 28.66, 20.5 20.42, 34.37 2.05 M2.88 38.28 C12.12 27.96, 19.51 17.87, 34.37 2.05 M2.62 44.68 C10.51 34.28, 18.57 24.31, 39.36 2.41 M2.62 44.68 C15.5 29.5, 28.84 13.1, 39.36 2.41 M2.36 51.07 C13.9 38.31, 25.46 22.29, 45 2.02 M2.36 51.07 C12.78 38.73, 24.24 25.34, 45 2.02 M2.75 56.72 C18.44 39.09, 37.07 18.69, 49.99 2.38 M2.75 56.72 C20.39 36.95, 36.5 19.39, 49.99 2.38 M2.49 63.11 C20.55 41.03, 43.48 18.96, 55.63 1.98 M2.49 63.11 C22.06 38.6, 42.64 15.5, 55.63 1.98 M2.88 68.76 C21.06 49.56, 36.93 28.7, 60.62 2.34 M2.88 68.76 C19.61 48.67, 38.99 28.1, 60.62 2.34 M2.62 75.16 C26.41 46.73, 52.5 19.25, 66.26 1.95 M2.62 75.16 C16.49 59.67, 29.88 44.67, 66.26 1.95 M2.36 81.55 C19.62 62.47, 34.06 44.75, 71.25 2.31 M2.36 81.55 C17.81 64.86, 33.99 45.98, 71.25 2.31 M2.76 87.2 C32.02 57.66, 59.13 24.66, 76.89 1.91 M2.76 87.2 C19.37 67.75, 37.14 46.1, 76.89 1.91 M2.49 93.59 C30.73 63.7, 60.48 28.4, 81.88 2.27 M2.49 93.59 C31.66 60.13, 60.98 25.32, 81.88 2.27 M2.89 99.24 C33.1 64.1, 67.97 25.09, 87.52 1.88 M2.89 99.24 C33.06 65.42, 63.25 29.6, 87.52 1.88 M2.63 105.64 C31.91 69.58, 62.36 35.87, 92.51 2.24 M2.63 105.64 C36.19 68.77, 69.81 30.96, 92.51 2.24 M2.37 112.03 C24.52 83.09, 48.21 58.67, 98.15 1.85 M2.37 112.03 C40.42 67.8, 77.35 25.42, 98.15 1.85 M2.76 117.68 C31.13 83.36, 61.2 49.12, 103.14 2.21 M2.76 117.68 C31.27 83.71, 61.6 49.28, 103.14 2.21 M2.5 124.07 C32.56 87.95, 62.43 55.65, 108.78 1.81 M2.5 124.07 C44.05 77.45, 84.49 30.93, 108.78 1.81 M2.24 130.47 C29.27 100.12, 54.72 67.59, 113.77 2.17 M2.24 130.47 C28.77 100.47, 55.33 69.31, 113.77 2.17 M3.29 135.36 C41.2 92.2, 81.22 46.04, 119.41 1.78 M3.29 135.36 C36.85 97.45, 72 59.14, 119.41 1.78 M5 139.49 C29.18 111.06, 55.93 81.39, 124.4 2.14 M5 139.49 C40.3 99.01, 76.68 58.2, 124.4 2.14 M6.7 143.63 C41.48 100.75, 79.76 57.56, 130.04 1.74 M6.7 143.63 C40.45 104.08, 74.65 63.76, 130.04 1.74 M9.72 146.25 C45.32 104.11, 82.15 62.36, 135.03 2.1 M9.72 146.25 C57 91.97, 105.7 36.59, 135.03 2.1 M12.74 148.88 C46.78 108.34, 83.41 69.15, 140.67 1.71 M12.74 148.88 C44.56 114.34, 75.94 77.22, 140.67 1.71 M15.1 152.25 C44.93 116.47, 79.64 78.78, 145.66 2.07 M15.1 152.25 C49.01 115.79, 80.56 78.9, 145.66 2.07 M19.43 153.37 C66.67 99.41, 112.44 48.98, 150.65 2.43 M19.43 153.37 C57.84 110.91, 94.32 67.78, 150.65 2.43 M24.42 153.73 C66.14 107.43, 108.27 60.77, 156.29 2.03 M24.42 153.73 C53.09 121.42, 82.61 88.66, 156.29 2.03 M28.75 154.84 C61.08 120.13, 91.95 82.55, 161.28 2.39 M28.75 154.84 C60.46 119.97, 89.82 84.42, 161.28 2.39 M33.74 155.2 C80.36 104.52, 122.87 53.27, 166.92 2 M33.74 155.2 C74.77 109.84, 112.81 65.09, 166.92 2 M38.73 155.56 C72.99 116.11, 109.65 75.57, 171.91 2.36 M38.73 155.56 C80.96 106.86, 123.57 58.18, 171.91 2.36 M44.37 155.17 C79.26 114.08, 117.8 72.55, 177.55 1.96 M44.37 155.17 C76.48 120.27, 106.47 84.18, 177.55 1.96 M49.36 155.53 C94.18 103.67, 141.16 52.84, 182.54 2.32 M49.36 155.53 C90.88 106.82, 131.47 58.83, 182.54 2.32 M55 155.14 C96.04 107.91, 133.67 66.41, 188.18 1.93 M55 155.14 C92.18 114.04, 127.31 72.31, 188.18 1.93 M59.99 155.5 C89.72 125.63, 117.29 93.84, 193.17 2.29 M59.99 155.5 C111.47 96.87, 163.23 38.01, 193.17 2.29 M65.63 155.1 C102.62 116.5, 136.46 74.93, 198.81 1.9 M65.63 155.1 C117.66 94.5, 170.89 32.57, 198.81 1.9 M70.62 155.46 C121.62 93.58, 174.6 37.15, 203.8 2.26 M70.62 155.46 C100.76 121.43, 131.49 85.74, 203.8 2.26 M76.26 155.07 C112.65 113.49, 148.12 70.09, 209.44 1.86 M76.26 155.07 C112.94 111.92, 150.45 68.17, 209.44 1.86 M81.25 155.43 C116.08 114.72, 148.32 76.73, 214.43 2.22 M81.25 155.43 C127.65 100.56, 175.3 46.52, 214.43 2.22 M86.89 155.03 C128.45 107.56, 171.49 57.84, 220.07 1.83 M86.89 155.03 C133.88 101.82, 178.61 48.7, 220.07 1.83 M91.88 155.39 C134.72 103.1, 182.06 49.46, 225.06 2.19 M91.88 155.39 C142.35 94.28, 193.46 35.16, 225.06 2.19 M96.86 155.75 C147.2 98.35, 199.27 39.86, 230.7 1.79 M96.86 155.75 C136.87 110.21, 177.8 64.94, 230.7 1.79 M102.51 155.36 C133.56 119.86, 164.2 86.31, 235.69 2.15 M102.51 155.36 C152.57 98.96, 200.91 41.1, 235.69 2.15 M107.49 155.72 C156.83 98.91, 206.37 41.73, 241.33 1.76 M107.49 155.72 C134.8 124.56, 162.25 92.3, 241.33 1.76 M113.14 155.32 C150.51 113.37, 184.76 70.6, 246.32 2.12 M113.14 155.32 C151.15 113.45, 186.26 71.22, 246.32 2.12 M118.12 155.68 C170.64 94.2, 222.42 34.49, 251.96 1.72 M118.12 155.68 C169.13 95.7, 221.5 36.95, 251.96 1.72 M123.77 155.29 C159.84 113, 195.17 73.88, 256.95 2.08 M123.77 155.29 C158.19 115.51, 193.86 74.9, 256.95 2.08 M128.75 155.65 C165.9 114.31, 202.59 71.48, 262.59 1.69 M128.75 155.65 C176.73 101.4, 224.82 46.61, 262.59 1.69 M134.4 155.25 C186.74 95.47, 235.64 37.85, 267.58 2.05 M134.4 155.25 C165.86 119.03, 198.46 81.39, 267.58 2.05 M139.38 155.61 C174.02 118.43, 207.95 78.81, 272.56 2.41 M139.38 155.61 C175.67 114, 211.36 72.27, 272.56 2.41 M145.03 155.22 C173.8 118.49, 206.73 81.71, 278.21 2.01 M145.03 155.22 C186.36 105.45, 230.45 56.5, 278.21 2.01 M150.01 155.58 C182.44 117.97, 217.87 78.29, 283.19 2.37 M150.01 155.58 C186.62 115.48, 222.1 74.05, 283.19 2.37 M155.66 155.19 C208.97 96.39, 261.41 33.6, 288.84 1.98 M155.66 155.19 C199.41 105.45, 242.48 53.67, 288.84 1.98 M160.64 155.55 C189.63 122.51, 217.04 91.99, 293.82 2.34 M160.64 155.55 C206.76 101.87, 253.95 47.71, 293.82 2.34 M166.29 155.15 C205.07 109.26, 247.71 61.57, 299.47 1.94 M166.29 155.15 C209.4 107.16, 252.85 58.11, 299.47 1.94 M171.27 155.51 C223.53 94.96, 276.04 32.68, 304.45 2.3 M171.27 155.51 C207.96 112.76, 245.49 70.17, 304.45 2.3 M176.92 155.12 C224.68 102.15, 270.44 47.37, 310.1 1.91 M176.92 155.12 C210.12 116.7, 243.53 79.01, 310.1 1.91 M181.9 155.48 C216.23 117.2, 250.64 77.65, 315.08 2.27 M181.9 155.48 C221.07 107.3, 261.47 61.47, 315.08 2.27 M187.55 155.08 C243.38 95.15, 293.98 33.57, 320.73 1.88 M187.55 155.08 C228.37 107.17, 270.42 59.71, 320.73 1.88 M192.53 155.44 C242.81 98.49, 291.64 43.06, 325.71 2.24 M192.53 155.44 C221.11 122.69, 250.85 90, 325.71 2.24 M198.18 155.05 C231.66 116.96, 262.15 80.47, 331.36 1.84 M198.18 155.05 C249.2 96.13, 300.67 35.35, 331.36 1.84 M203.16 155.41 C243.18 109.66, 279.84 64.91, 336.34 2.2 M203.16 155.41 C242.07 111.54, 279.82 66.62, 336.34 2.2 M208.81 155.01 C255.33 103, 302.6 46.28, 341.99 1.81 M208.81 155.01 C237.24 122.84, 266.94 91.25, 341.99 1.81 M213.79 155.37 C257.98 104.24, 299.08 56.12, 346.97 2.17 M213.79 155.37 C263.04 100.88, 312.29 45.23, 346.97 2.17 M218.78 155.73 C267.31 102.45, 315.49 48.72, 352.62 1.77 M218.78 155.73 C244.49 124.4, 273.71 93.8, 352.62 1.77 M224.42 155.34 C271.53 103, 314.81 48.92, 357.6 2.13 M224.42 155.34 C269.66 102.82, 314.7 51.32, 357.6 2.13 M229.41 155.7 C273.18 106.35, 314.77 55.69, 363.25 1.74 M229.41 155.7 C258.09 120.83, 289.32 86.12, 363.25 1.74 M235.05 155.3 C281.77 100.13, 332.1 45.85, 368.23 2.1 M235.05 155.3 C272.59 111.38, 309.26 68.92, 368.23 2.1 M240.04 155.66 C284.26 108.64, 323.31 60.59, 373.88 1.7 M240.04 155.66 C272.52 120.18, 303.19 83.18, 373.88 1.7 M245.68 155.27 C297.08 97.02, 343.33 40.21, 378.86 2.06 M245.68 155.27 C290.09 103.24, 336.11 49.53, 378.86 2.06 M250.67 155.63 C279.72 125.11, 306.16 92.95, 383.85 2.42 M250.67 155.63 C277.89 122.91, 307.29 88.68, 383.85 2.42 M256.31 155.23 C295.81 109.81, 335.25 64.06, 389.49 2.03 M256.31 155.23 C286.26 121.19, 315.93 86.45, 389.49 2.03 M261.3 155.6 C299.76 116.82, 335.18 74.51, 395.14 1.63 M261.3 155.6 C298.44 111.29, 334.61 68.12, 395.14 1.63 M266.94 155.2 C298.64 117.09, 333.17 79.36, 399.47 2.75 M266.94 155.2 C306.2 110.86, 344.02 67.13, 399.47 2.75 M271.93 155.56 C299.42 123.92, 327.86 89.98, 404.46 3.11 M271.93 155.56 C316.56 104.07, 360.78 53.55, 404.46 3.11 M277.57 155.17 C312.57 115.46, 348.32 71.76, 409.44 3.47 M277.57 155.17 C316.48 110.69, 356.39 65.16, 409.44 3.47 M282.56 155.53 C324.44 110.65, 360.97 64.27, 412.46 6.09 M282.56 155.53 C311.8 120.84, 341.34 87.79, 412.46 6.09 M288.2 155.13 C340.2 97.47, 387.57 36.78, 416.14 7.96 M288.2 155.13 C319.82 120.39, 350.54 84.87, 416.14 7.96 M293.19 155.49 C328.33 118.1, 363.96 77.37, 419.81 9.83 M293.19 155.49 C320.34 125.34, 346.83 96.15, 419.81 9.83 M298.83 155.1 C343.2 100.81, 386.58 53.28, 421.52 13.97 M298.83 155.1 C334.84 114.63, 370.88 72.93, 421.52 13.97 M303.82 155.46 C328.79 128.03, 354.49 98.52, 423.22 18.1 M303.82 155.46 C334.96 121.7, 364.8 88.22, 423.22 18.1 M309.46 155.06 C349.88 112.52, 384.94 66.98, 424.93 22.23 M309.46 155.06 C345.69 114.57, 379.86 74.72, 424.93 22.23 M314.45 155.42 C341.18 126, 367.78 91.94, 426.64 26.37 M314.45 155.42 C352.29 111.14, 389.68 69.04, 426.64 26.37 M320.09 155.03 C356.24 113.52, 393.53 68.14, 426.38 32.77 M320.09 155.03 C350.23 120.59, 381.45 85.61, 426.38 32.77 M325.08 155.39 C355.08 118.86, 386.48 82.71, 426.77 38.41 M325.08 155.39 C364.1 111.62, 400.13 68.9, 426.77 38.41 M330.07 155.75 C359.78 120.49, 389.17 89.48, 426.51 44.81 M330.07 155.75 C359.19 122.39, 388.9 86.84, 426.51 44.81 M335.71 155.35 C368.51 119.68, 396.97 85.3, 426.9 50.45 M335.71 155.35 C360.96 126.42, 386.49 97.38, 426.9 50.45 M340.7 155.71 C374.19 119.43, 405.14 80.04, 426.64 56.85 M340.7 155.71 C359.41 134.73, 375.61 114.19, 426.64 56.85 M346.34 155.32 C363.98 130.09, 384.71 108.49, 427.04 62.49 M346.34 155.32 C371.01 127.25, 394.27 98.7, 427.04 62.49 M351.33 155.68 C373.76 128.99, 399.55 98.81, 426.78 68.89 M351.33 155.68 C374.99 128.87, 397.7 102.18, 426.78 68.89 M356.97 155.28 C371.62 135.83, 389.33 119.39, 427.17 74.53 M356.97 155.28 C376.96 131.08, 398.07 107.35, 427.17 74.53 M361.96 155.64 C378.59 136.29, 394.19 119.05, 426.91 80.93 M361.96 155.64 C379.82 135.9, 398.25 114.14, 426.91 80.93 M367.6 155.25 C378.38 140.03, 394.31 126.79, 426.65 87.33 M367.6 155.25 C381.32 140.02, 394.67 124.67, 426.65 87.33 M372.59 155.61 C385.23 139.3, 400.84 123.84, 427.04 92.97 M372.59 155.61 C386.54 139.35, 401.57 121.55, 427.04 92.97 M378.23 155.22 C398.14 133.86, 414.86 112.34, 426.78 99.37 M378.23 155.22 C392.11 137.47, 406.05 121.75, 426.78 99.37 M383.22 155.58 C399.03 137.27, 416.82 118.05, 427.18 105.01 M383.22 155.58 C400.6 135.54, 418.74 115.8, 427.18 105.01 M388.86 155.18 C398.67 142.3, 412.12 128.39, 426.91 111.41 M388.86 155.18 C396.27 145.42, 405.64 137.79, 426.91 111.41 M394.51 154.79 C406.34 141.04, 418.48 125.15, 427.31 117.05 M394.51 154.79 C401.57 147.28, 409.77 137.39, 427.31 117.05 M400.15 154.39 C409.02 141.59, 420.03 132.67, 427.05 123.45 M400.15 154.39 C408.49 145.97, 415.38 136.98, 427.05 123.45 M407.1 152.49 C410.17 146.72, 414.19 144.96, 426.13 130.6 M407.1 152.49 C412.42 145.75, 418.84 138.53, 426.13 130.6" stroke="#82c91e" stroke-width="0.5" fill="none"></path><path d="M32 0 M32 0 C153.38 -0.6, 272.94 -0.82, 393 0 M32 0 C168.4 -1.28, 304.87 -0.97, 393 0 M393 0 C416.28 1.56, 425.87 8.75, 425 32 M393 0 C412.37 1.7, 424.35 9.83, 425 32 M425 32 C425.76 54.7, 423.4 77.9, 425 122 M425 32 C425.71 53.33, 426.18 75.85, 425 122 M425 122 C423.37 143.97, 415.76 153.79, 393 154 M425 122 C425.38 143.26, 416.38 152.36, 393 154 M393 154 C306.18 151.03, 221.1 153.12, 32 154 M393 154 C292.95 153, 191.75 152.85, 32 154 M32 154 C10.95 155.07, 0.58 142.88, 0 122 M32 154 C9.85 155.2, 0.93 143.16, 0 122 M0 122 C0.98 100.96, -2.11 83.76, 0 32 M0 122 C-0.7 90.98, 0.1 58.46, 0 32 M0 32 C-0.94 12.31, 10.34 -0.15, 32 0 M0 32 C-1.62 10.61, 10.75 2.13, 32 0" stroke="#000000" stroke-width="1" fill="none"></path></g><g transform="translate(530.10546875 273) rotate(0 82.03125 12)"><text x="82.03125" y="0" font-family="Cascadia, Segoe UI Emoji" font-size="20px" fill="#000000" text-anchor="middle" style="white-space: pre;" direction="ltr" dominant-baseline="text-before-edge">The wasm world</text></g><g stroke-linecap="round" transform="translate(494.63671875 306) rotate(0 28.5 8)"><path d="M4 0 M4 0 C16.92 -0.53, 35.59 -1.51, 53 0 M4 0 C22.91 0.33, 42.72 1.01, 53 0 M53 0 C53.88 -1.52, 58.62 1.16, 57 4 M53 0 C56.69 -0.21, 58.97 -0.1, 57 4 M57 4 C56.98 6.19, 57.43 8.48, 57 12 M57 4 C57.2 6.89, 56.72 9.28, 57 12 M57 12 C55.88 12.9, 57.17 17.2, 53 16 M57 12 C58.53 14.19, 54.13 17.29, 53 16 M53 16 C36.8 14.37, 20.5 14.94, 4 16 M53 16 C41.37 15.66, 28.75 16.87, 4 16 M4 16 C1.4 16.57, 0.51 15.3, 0 12 M4 16 C-0.65 17.68, -1.02 15.1, 0 12 M0 12 C-0.59 10.75, -0.62 8.78, 0 4 M0 12 C-0.33 10.08, 0.21 8.16, 0 4 M0 4 C-0.29 0.72, 1.23 0.48, 4 0 M0 4 C1.47 -0.64, 1.12 -0.08, 4 0" stroke="#000000" stroke-width="1" fill="none"></path></g><g stroke-linecap="round" transform="translate(492.63671875 333) rotate(0 29 6.5)"><path d="M3.25 0 M3.25 0 C16.92 -0.51, 36.35 -1.49, 54.75 0 M3.25 0 C23.14 0.35, 43.94 1.03, 54.75 0 M54.75 0 C55.13 -1.52, 59.62 0.91, 58 3.25 M54.75 0 C57.94 -0.21, 59.97 -0.35, 58 3.25 M58 3.25 C57.98 5.03, 58.35 6.89, 58 9.75 M58 3.25 C58.16 5.6, 57.78 7.54, 58 9.75 M58 9.75 C56.88 10.15, 58.42 14.2, 54.75 13 M58 9.75 C59.53 11.44, 55.38 14.29, 54.75 13 M54.75 13 C37.69 11.39, 20.54 11.96, 3.25 13 M54.75 13 C42.48 12.68, 29.22 13.89, 3.25 13 M3.25 13 C1.15 13.57, 0.51 12.55, 0 9.75 M3.25 13 C-0.9 14.68, -1.02 12.35, 0 9.75 M0 9.75 C-0.48 8.73, -0.5 7.13, 0 3.25 M0 9.75 C-0.27 8.19, 0.17 6.63, 0 3.25 M0 3.25 C-0.29 0.47, 0.98 0.48, 3.25 0 M0 3.25 C1.47 -0.89, 0.87 -0.08, 3.25 0" stroke="#000000" stroke-width="1" fill="none"></path></g><g stroke-linecap="round" transform="translate(494.13671875 357) rotate(0 29 6.5)"><path d="M3.25 0 M3.25 0 C16.92 -0.51, 36.35 -1.49, 54.75 0 M3.25 0 C23.14 0.35, 43.94 1.03, 54.75 0 M54.75 0 C55.13 -1.52, 59.62 0.91, 58 3.25 M54.75 0 C57.94 -0.21, 59.97 -0.35, 58 3.25 M58 3.25 C57.98 5.03, 58.35 6.89, 58 9.75 M58 3.25 C58.16 5.6, 57.78 7.54, 58 9.75 M58 9.75 C56.88 10.15, 58.42 14.2, 54.75 13 M58 9.75 C59.53 11.44, 55.38 14.29, 54.75 13 M54.75 13 C37.69 11.39, 20.54 11.96, 3.25 13 M54.75 13 C42.48 12.68, 29.22 13.89, 3.25 13 M3.25 13 C1.15 13.57, 0.51 12.55, 0 9.75 M3.25 13 C-0.9 14.68, -1.02 12.35, 0 9.75 M0 9.75 C-0.48 8.73, -0.5 7.13, 0 3.25 M0 9.75 C-0.27 8.19, 0.17 6.63, 0 3.25 M0 3.25 C-0.29 0.47, 0.98 0.48, 3.25 0 M0 3.25 C1.47 -0.89, 0.87 -0.08, 3.25 0" stroke="#000000" stroke-width="1" fill="none"></path></g><g stroke-linecap="round" transform="translate(495.13671875 381) rotate(0 28 7)"><path d="M3.5 0 M3.5 0 C16.42 -0.53, 35.09 -1.51, 52.5 0 M3.5 0 C22.41 0.33, 42.22 1.01, 52.5 0 M52.5 0 C53.04 -1.52, 57.62 0.99, 56 3.5 M52.5 0 C55.86 -0.21, 57.97 -0.27, 56 3.5 M56 3.5 C55.98 5.41, 56.37 7.42, 56 10.5 M56 3.5 C56.17 6.03, 55.76 8.12, 56 10.5 M56 10.5 C54.88 11.07, 56.34 15.2, 52.5 14 M56 10.5 C57.53 12.36, 53.3 15.29, 52.5 14 M52.5 14 C36.3 12.37, 20 12.94, 3.5 14 M52.5 14 C40.87 13.66, 28.25 14.87, 3.5 14 M3.5 14 C1.24 14.57, 0.51 13.47, 0 10.5 M3.5 14 C-0.81 15.68, -1.02 13.27, 0 10.5 M0 10.5 C-0.52 9.4, -0.54 7.68, 0 3.5 M0 10.5 C-0.29 8.82, 0.18 7.14, 0 3.5 M0 3.5 C-0.29 0.56, 1.07 0.48, 3.5 0 M0 3.5 C1.47 -0.8, 0.95 -0.08, 3.5 0" stroke="#000000" stroke-width="1" fill="none"></path></g><g transform="translate(410.63671875 304) rotate(0 35.15625 48)"><text x="0" y="0" font-family="Cascadia, Segoe UI Emoji" font-size="20px" fill="#000000" text-anchor="start" style="white-space: pre;" direction="ltr" dominant-baseline="text-before-edge">0xAB00</text><text x="0" y="24" font-family="Cascadia, Segoe UI Emoji" font-size="20px" fill="#000000" text-anchor="start" style="white-space: pre;" direction="ltr" dominant-baseline="text-before-edge">0xAB08</text><text x="0" y="48" font-family="Cascadia, Segoe UI Emoji" font-size="20px" fill="#000000" text-anchor="start" style="white-space: pre;" direction="ltr" dominant-baseline="text-before-edge">0xAB10</text><text x="0" y="72" font-family="Cascadia, Segoe UI Emoji" font-size="20px" fill="#000000" text-anchor="start" style="white-space: pre;" direction="ltr" dominant-baseline="text-before-edge">0xAB18</text></g><g stroke-linecap="round" transform="translate(679.13671875 328) rotate(0 29 6.5)"><path d="M3.25 0 M3.25 0 C16.92 -0.51, 36.35 -1.49, 54.75 0 M3.25 0 C23.14 0.35, 43.94 1.03, 54.75 0 M54.75 0 C55.13 -1.52, 59.62 0.91, 58 3.25 M54.75 0 C57.94 -0.21, 59.97 -0.35, 58 3.25 M58 3.25 C57.98 5.03, 58.35 6.89, 58 9.75 M58 3.25 C58.16 5.6, 57.78 7.54, 58 9.75 M58 9.75 C56.88 10.15, 58.42 14.2, 54.75 13 M58 9.75 C59.53 11.44, 55.38 14.29, 54.75 13 M54.75 13 C37.69 11.39, 20.54 11.96, 3.25 13 M54.75 13 C42.48 12.68, 29.22 13.89, 3.25 13 M3.25 13 C1.15 13.57, 0.51 12.55, 0 9.75 M3.25 13 C-0.9 14.68, -1.02 12.35, 0 9.75 M0 9.75 C-0.48 8.73, -0.5 7.13, 0 3.25 M0 9.75 C-0.27 8.19, 0.17 6.63, 0 3.25 M0 3.25 C-0.29 0.47, 0.98 0.48, 3.25 0 M0 3.25 C1.47 -0.89, 0.87 -0.08, 3.25 0" stroke="#000000" stroke-width="1" fill="none"></path></g><g stroke-linecap="round" transform="translate(680.63671875 352) rotate(0 29 6.5)"><path d="M3.25 0 M3.25 0 C16.92 -0.51, 36.35 -1.49, 54.75 0 M3.25 0 C23.14 0.35, 43.94 1.03, 54.75 0 M54.75 0 C55.13 -1.52, 59.62 0.91, 58 3.25 M54.75 0 C57.94 -0.21, 59.97 -0.35, 58 3.25 M58 3.25 C57.98 5.03, 58.35 6.89, 58 9.75 M58 3.25 C58.16 5.6, 57.78 7.54, 58 9.75 M58 9.75 C56.88 10.15, 58.42 14.2, 54.75 13 M58 9.75 C59.53 11.44, 55.38 14.29, 54.75 13 M54.75 13 C37.69 11.39, 20.54 11.96, 3.25 13 M54.75 13 C42.48 12.68, 29.22 13.89, 3.25 13 M3.25 13 C1.15 13.57, 0.51 12.55, 0 9.75 M3.25 13 C-0.9 14.68, -1.02 12.35, 0 9.75 M0 9.75 C-0.48 8.73, -0.5 7.13, 0 3.25 M0 9.75 C-0.27 8.19, 0.17 6.63, 0 3.25 M0 3.25 C-0.29 0.47, 0.98 0.48, 3.25 0 M0 3.25 C1.47 -0.89, 0.87 -0.08, 3.25 0" stroke="#000000" stroke-width="1" fill="none"></path></g><g stroke-linecap="round" transform="translate(683.63671875 376) rotate(0 28 7)"><path d="M0.93 0.81 C0.93 0.81, 0.93 0.81, 0.93 0.81 M0.93 0.81 C0.93 0.81, 0.93 0.81, 0.93 0.81 M1.98 5.7 C2.66 5.1, 3.35 4.51, 5.26 1.92 M1.98 5.7 C2.88 4.78, 3.42 4.03, 5.26 1.92 M1.06 12.85 C3.5 11.3, 6.9 6.99, 10.91 1.53 M1.06 12.85 C5.31 9.22, 8.87 4.45, 10.91 1.53 M4.08 15.47 C6.39 13.62, 10.02 7.29, 15.89 1.89 M4.08 15.47 C8.21 11.56, 13.22 5.31, 15.89 1.89 M9.07 15.84 C14.15 11.02, 18.81 3.61, 21.54 1.5 M9.07 15.84 C12.93 11.1, 19.15 4.47, 21.54 1.5 M14.71 15.44 C18.22 11.94, 22.9 4.58, 26.52 1.86 M14.71 15.44 C18.47 10.51, 22.53 6.43, 26.52 1.86 M19.7 15.8 C24.3 11.89, 30.55 6.34, 32.17 1.46 M19.7 15.8 C22.17 11.59, 25.31 9.33, 32.17 1.46 M25.34 15.41 C31.7 8.34, 35.28 4.41, 37.15 1.82 M25.34 15.41 C28.3 11.19, 31.85 7.26, 37.15 1.82 M30.33 15.77 C32.62 11.39, 36.5 7.73, 42.14 2.18 M30.33 15.77 C33.39 11.35, 36.74 8.43, 42.14 2.18 M35.97 15.37 C40.34 9.35, 43.85 5.32, 47.78 1.79 M35.97 15.37 C38.98 12.44, 40.88 8.78, 47.78 1.79 M40.96 15.73 C42.58 12.33, 46 7.18, 54.08 0.64 M40.96 15.73 C45.06 10.95, 50.26 4.9, 54.08 0.64 M45.95 16.09 C47.64 12.66, 53.09 9.99, 57.1 3.26 M45.95 16.09 C47.9 13.56, 51.18 10.26, 57.1 3.26 M52.9 14.19 C54.12 12.48, 55.9 11.15, 57.5 8.9 M52.9 14.19 C53.97 12.7, 55.53 11.06, 57.5 8.9" stroke="#4c6ef5" stroke-width="0.5" fill="none"></path><path d="M3.5 0 M3.5 0 C16.32 0.27, 29.25 -0.73, 52.5 0 M3.5 0 C17.19 -0.08, 31.62 0.11, 52.5 0 M52.5 0 C56.49 0.93, 54.26 1.16, 56 3.5 M52.5 0 C54.36 1.69, 55.05 0.44, 56 3.5 M56 3.5 C55.84 5.4, 55.96 6.29, 56 10.5 M56 3.5 C56.24 4.84, 55.76 6.22, 56 10.5 M56 10.5 C57.54 12.12, 53.59 14.83, 52.5 14 M56 10.5 C57.42 13.08, 53.6 11.76, 52.5 14 M52.5 14 C36.61 15.87, 22.98 14.79, 3.5 14 M52.5 14 C41.21 14.29, 28.79 13.3, 3.5 14 M3.5 14 C1.18 15.38, 1.25 12.18, 0 10.5 M3.5 14 C2.33 14.24, -1.74 12.1, 0 10.5 M0 10.5 C0.29 7.91, -0.09 5.83, 0 3.5 M0 10.5 C0.03 8.38, -0.08 6.43, 0 3.5 M0 3.5 C0.51 1.84, 1.01 -0.85, 3.5 0 M0 3.5 C-1.59 0.3, 1.25 1.56, 3.5 0" stroke="#d9480f" stroke-width="1" fill="none"></path></g><g transform="translate(596.13671875 303) rotate(0 35.15625 48)"><text x="0" y="0" font-family="Cascadia, Segoe UI Emoji" font-size="20px" fill="#000000" text-anchor="start" style="white-space: pre;" direction="ltr" dominant-baseline="text-before-edge">0xAB04</text><text x="0" y="24" font-family="Cascadia, Segoe UI Emoji" font-size="20px" fill="#000000" text-anchor="start" style="white-space: pre;" direction="ltr" dominant-baseline="text-before-edge">0xAB1C</text><text x="0" y="48" font-family="Cascadia, Segoe UI Emoji" font-size="20px" fill="#000000" text-anchor="start" style="white-space: pre;" direction="ltr" dominant-baseline="text-before-edge">0xAB14</text><text x="0" y="72" font-family="Cascadia, Segoe UI Emoji" font-size="20px" fill="#000000" text-anchor="start" style="white-space: pre;" direction="ltr" dominant-baseline="text-before-edge">0xAB1C</text></g><g stroke-linecap="round" transform="translate(679.63671875 303.5) rotate(0 29 6.5)"><path d="M3.25 0 M3.25 0 C16.92 -0.51, 36.35 -1.49, 54.75 0 M3.25 0 C23.14 0.35, 43.94 1.03, 54.75 0 M54.75 0 C55.13 -1.52, 59.62 0.91, 58 3.25 M54.75 0 C57.94 -0.21, 59.97 -0.35, 58 3.25 M58 3.25 C57.98 5.03, 58.35 6.89, 58 9.75 M58 3.25 C58.16 5.6, 57.78 7.54, 58 9.75 M58 9.75 C56.88 10.15, 58.42 14.2, 54.75 13 M58 9.75 C59.53 11.44, 55.38 14.29, 54.75 13 M54.75 13 C37.69 11.39, 20.54 11.96, 3.25 13 M54.75 13 C42.48 12.68, 29.22 13.89, 3.25 13 M3.25 13 C1.15 13.57, 0.51 12.55, 0 9.75 M3.25 13 C-0.9 14.68, -1.02 12.35, 0 9.75 M0 9.75 C-0.48 8.73, -0.5 7.13, 0 3.25 M0 9.75 C-0.27 8.19, 0.17 6.63, 0 3.25 M0 3.25 C-0.29 0.47, 0.98 0.48, 3.25 0 M0 3.25 C1.47 -0.89, 0.87 -0.08, 3.25 0" stroke="#000000" stroke-width="1" fill="none"></path></g><g stroke-linecap="round"><g transform="translate(879.7846482234454 275.42495009287813) rotate(0 -64.72701227435874 50.081556589074836)"><path d="M-0.45 -0.56 C-2.85 9.35, 6.13 43.06, -15.62 59.76 C-37.38 76.47, -111.84 93.06, -130.97 99.67 M1.52 1.76 C-0.98 11.78, 4.86 44.38, -16.82 60.88 C-38.49 77.37, -109.59 94.18, -128.51 100.72" stroke="#d9480f" stroke-width="1" fill="none"></path></g><g transform="translate(879.7846482234454 275.42495009287813) rotate(0 -64.72701227435874 50.081556589074836)"><path d="M-105.32 82.11 C-110.53 85.01, -114.85 89.46, -129.76 101.5 M-103.75 83.22 C-112.62 88.29, -120.77 95.2, -128.66 100.48" stroke="#d9480f" stroke-width="1" fill="none"></path></g><g transform="translate(879.7846482234454 275.42495009287813) rotate(0 -64.72701227435874 50.081556589074836)"><path d="M-99.51 101.8 C-105.94 100.72, -111.41 101.22, -129.76 101.5 M-97.94 102.9 C-108.83 101.13, -119 101.2, -128.66 100.48" stroke="#d9480f" stroke-width="1" fill="none"></path></g></g><mask></mask><g transform="translate(850.8168550282237 328.01388602912544) rotate(331.70564888675216 38.2587890625 8.706518197735903)"><text x="0" y="0" font-family="Cascadia, Segoe UI Emoji" font-size="14.51086366289317px" fill="#d9480f" text-anchor="start" style="white-space: pre;" direction="ltr" dominant-baseline="text-before-edge">refers to</text></g><g stroke-linecap="round" transform="translate(1012 328) rotate(0 46 40)"><path d="M20 0 M20 0 C38.36 0.45, 60.97 -1.92, 72 0 M20 0 C40.45 0.37, 61.19 1.23, 72 0 M72 0 C86.64 0.45, 93.96 5.9, 92 20 M72 0 C85.03 0.97, 89.81 8.54, 92 20 M92 20 C91.49 28.34, 91.88 37.26, 92 60 M92 20 C92.3 32.98, 91.47 48.29, 92 60 M92 60 C91.63 74.04, 83.58 81.24, 72 80 M92 60 C92.99 71.36, 84.32 80.19, 72 80 M72 80 C52.67 80.46, 34.65 79.53, 20 80 M72 80 C60.22 79.32, 49.02 78.83, 20 80 M20 80 C8.11 80.8, 0.55 71.61, 0 60 M20 80 C5.35 80.41, -2.06 71.35, 0 60 M0 60 C-2.17 46.39, -1.08 30.14, 0 20 M0 60 C0.46 46.16, -0.47 30.29, 0 20 M0 20 C-0.01 7.66, 7.65 0.67, 20 0 M0 20 C1.56 8.68, 8.13 -0.76, 20 0" stroke="#000000" stroke-width="1" fill="none"></path></g><g transform="translate(1034.5625 344) rotate(0 23.4375 24)"><text x="23.4375" y="0" font-family="Cascadia, Segoe UI Emoji" font-size="20px" fill="#000000" text-anchor="middle" style="white-space: pre;" direction="ltr" dominant-baseline="text-before-edge">wasm</text><text x="23.4375" y="24" font-family="Cascadia, Segoe UI Emoji" font-size="20px" fill="#000000" text-anchor="middle" style="white-space: pre;" direction="ltr" dominant-baseline="text-before-edge">apps</text></g><g stroke-linecap="round" transform="translate(10 338) rotate(0 46 40)"><path d="M20 0 M20 0 C38.36 0.45, 60.97 -1.92, 72 0 M20 0 C40.45 0.37, 61.19 1.23, 72 0 M72 0 C86.64 0.45, 93.96 5.9, 92 20 M72 0 C85.03 0.97, 89.81 8.54, 92 20 M92 20 C91.49 28.34, 91.88 37.26, 92 60 M92 20 C92.3 32.98, 91.47 48.29, 92 60 M92 60 C91.63 74.04, 83.58 81.24, 72 80 M92 60 C92.99 71.36, 84.32 80.19, 72 80 M72 80 C52.67 80.46, 34.65 79.53, 20 80 M72 80 C60.22 79.32, 49.02 78.83, 20 80 M20 80 C8.11 80.8, 0.55 71.61, 0 60 M20 80 C5.35 80.41, -2.06 71.35, 0 60 M0 60 C-2.17 46.39, -1.08 30.14, 0 20 M0 60 C0.46 46.16, -0.47 30.29, 0 20 M0 20 C-0.01 7.66, 7.65 0.67, 20 0 M0 20 C1.56 8.68, 8.13 -0.76, 20 0" stroke="#000000" stroke-width="1" fill="none"></path></g><g transform="translate(32.5625 366) rotate(0 23.4375 12)"><text x="23.4375" y="0" font-family="Cascadia, Segoe UI Emoji" font-size="20px" fill="#000000" text-anchor="middle" style="white-space: pre;" direction="ltr" dominant-baseline="text-before-edge">Host</text></g><g stroke-linecap="round"><g transform="translate(1011 372.068964520735) rotate(0 -56.75756555540636 -51.79508755140944)"><path d="M-0.42 -0.07 C-19.49 -17.39, -95.12 -86.47, -114.25 -103.52 M1.57 -1.15 C-17.67 -18.36, -96.04 -85.07, -115.08 -102.29" stroke="#000000" stroke-width="1" fill="none"></path></g><g transform="translate(1011 372.068964520735) rotate(0 -56.75756555540636 -51.79508755140944)"><path d="M-87.22 -91.09 C-97.01 -96.22, -104.01 -99.35, -114.59 -102.45 M-87.35 -91.94 C-98.06 -94.22, -107.36 -99.1, -115.89 -102.4" stroke="#000000" stroke-width="1" fill="none"></path></g><g transform="translate(1011 372.068964520735) rotate(0 -56.75756555540636 -51.79508755140944)"><path d="M-100.73 -75.64 C-106.27 -85.64, -108.97 -93.68, -114.59 -102.45 M-100.85 -76.49 C-106.73 -84.39, -111.19 -94.81, -115.89 -102.4" stroke="#000000" stroke-width="1" fill="none"></path></g></g><mask></mask><g transform="translate(917 291.4) rotate(42.78719899281823 51.5625 9.599999999999994)"><text x="0" y="0" font-family="Cascadia, Segoe UI Emoji" font-size="16px" fill="#000000" text-anchor="start" style="white-space: pre;" direction="ltr" dominant-baseline="text-before-edge">use pointer</text></g><g stroke-linecap="round" transform="translate(906 27) rotate(0 129 47)"><path d="M3.15 9.36 C3.15 9.36, 3.15 9.36, 3.15 9.36 M3.15 9.36 C3.15 9.36, 3.15 9.36, 3.15 9.36 M0.92 18.02 C2.85 15.48, 7.7 11.31, 12.07 5.19 M0.92 18.02 C3.71 15.62, 5.72 12.14, 12.07 5.19 M0.66 24.42 C4.73 19.24, 10.7 14.8, 18.37 4.04 M0.66 24.42 C5.84 18.16, 11.67 12.94, 18.37 4.04 M0.39 30.82 C7.24 24.03, 14.29 16.26, 25.32 2.14 M0.39 30.82 C8.98 21.1, 16.87 12.53, 25.32 2.14 M0.79 36.46 C8.16 25.38, 20.05 15.11, 30.97 1.74 M0.79 36.46 C10.63 26.14, 20.58 13.28, 30.97 1.74 M0.53 42.86 C11.65 34.02, 16.72 20.75, 35.95 2.1 M0.53 42.86 C9.17 32.22, 18.87 21.48, 35.95 2.1 M0.92 48.5 C10.55 34.66, 21.45 22.78, 41.6 1.71 M0.92 48.5 C9.79 38.97, 18.54 28.13, 41.6 1.71 M0.66 54.9 C12.84 37.84, 29.37 25.32, 46.59 2.07 M0.66 54.9 C13.21 40.49, 25.81 25.21, 46.59 2.07 M0.4 61.3 C16.95 41.46, 32.63 24.56, 52.23 1.68 M0.4 61.3 C11.07 49.9, 21.41 36.55, 52.23 1.68 M0.79 66.94 C12.17 54.52, 24.61 40.99, 57.22 2.04 M0.79 66.94 C21.56 42.57, 43.52 17.68, 57.22 2.04 M0.53 73.34 C22.69 44.68, 45.98 20.25, 62.86 1.64 M0.53 73.34 C17.39 53.82, 36.11 34.09, 62.86 1.64 M2.24 77.47 C16.85 61.03, 30.49 44.05, 67.85 2 M2.24 77.47 C14.11 62.57, 27.58 45.68, 67.85 2 M3.95 81.61 C24.3 56.84, 46.64 32.89, 73.49 1.61 M3.95 81.61 C30.54 53.43, 54.52 23.24, 73.49 1.61 M5.65 85.74 C20.01 66.56, 37.25 48.93, 78.48 1.97 M5.65 85.74 C32.32 57.48, 56.77 26.58, 78.48 1.97 M7.36 89.87 C29.07 64.05, 50.31 40.8, 84.12 1.57 M7.36 89.87 C33.67 60.53, 57.72 32.21, 84.12 1.57 M11.03 91.74 C34.64 63.23, 61.78 36.46, 89.11 1.93 M11.03 91.74 C28.16 71.56, 47.86 50.88, 89.11 1.93 M14.71 93.61 C38.37 65.61, 61.6 37.25, 94.75 1.54 M14.71 93.61 C44.04 60.42, 72.37 26.3, 94.75 1.54 M19.04 94.73 C42.45 68.06, 68.19 37.53, 99.74 1.9 M19.04 94.73 C36.25 75.1, 51.7 55.89, 99.74 1.9 M24.03 95.09 C44.02 71.15, 67.14 43.98, 105.38 1.5 M24.03 95.09 C42.92 73.81, 60.77 51, 105.38 1.5 M29.67 94.69 C58.62 62.18, 86.75 30.02, 110.37 1.86 M29.67 94.69 C52.77 68.05, 76.38 42.64, 110.37 1.86 M34.66 95.05 C52.68 74.78, 69.46 52.69, 116.01 1.47 M34.66 95.05 C66.47 58.25, 97.56 20.91, 116.01 1.47 M40.3 94.66 C65.66 65.3, 90.36 38.6, 121 1.83 M40.3 94.66 C72.66 56.66, 104.02 21.99, 121 1.83 M45.29 95.02 C63.8 73.07, 77.93 54.99, 125.98 2.19 M45.29 95.02 C70.38 68.16, 93.4 41.35, 125.98 2.19 M50.93 94.62 C66.3 75.19, 85.34 54.73, 131.63 1.79 M50.93 94.62 C76.23 65.75, 101.01 36.49, 131.63 1.79 M55.92 94.98 C74.47 75.16, 93.4 54, 136.61 2.15 M55.92 94.98 C77.11 69.91, 98.63 45.79, 136.61 2.15 M61.56 94.59 C94.05 57.72, 122.83 24.4, 142.26 1.76 M61.56 94.59 C89.74 60.52, 119.65 26.57, 142.26 1.76 M66.55 94.95 C92.52 65.23, 116.92 34.06, 147.24 2.12 M66.55 94.95 C85.04 75.2, 103.98 53.64, 147.24 2.12 M72.19 94.55 C101.43 61.35, 130.32 28.78, 152.89 1.73 M72.19 94.55 C96.64 67.71, 120.73 39.74, 152.89 1.73 M77.18 94.91 C97.86 72.73, 119.47 46.1, 157.87 2.09 M77.18 94.91 C92.89 76.75, 110.47 58.29, 157.87 2.09 M82.82 94.52 C108.58 67.13, 133.24 34.93, 163.52 1.69 M82.82 94.52 C100.6 75.53, 117.08 55, 163.52 1.69 M87.81 94.88 C104.51 73.44, 124.34 51.91, 168.5 2.05 M87.81 94.88 C120.71 58.71, 152.22 22.51, 168.5 2.05 M93.45 94.49 C112.65 70.15, 135.8 48.84, 174.15 1.66 M93.45 94.49 C112.5 72.76, 132.41 49.83, 174.15 1.66 M98.44 94.85 C130.03 59.52, 160.14 24.62, 179.13 2.02 M98.44 94.85 C120.23 68.79, 144.13 44.13, 179.13 2.02 M104.08 94.45 C122.27 73.01, 143.59 49.04, 184.78 1.62 M104.08 94.45 C124.89 71.33, 147.52 46.55, 184.78 1.62 M109.07 94.81 C133.37 67.91, 154.41 43.5, 189.76 1.98 M109.07 94.81 C137.07 62.69, 165.33 30.63, 189.76 1.98 M114.71 94.42 C139.53 65.04, 165.53 35.06, 195.41 1.59 M114.71 94.42 C144.21 60.85, 174.91 26.48, 195.41 1.59 M119.7 94.78 C140 69.69, 163.56 46.63, 200.39 1.95 M119.7 94.78 C148.08 59.64, 179.31 24.56, 200.39 1.95 M125.34 94.38 C144.85 69.71, 166.52 46.78, 206.04 1.55 M125.34 94.38 C144.01 73, 163.5 49.28, 206.04 1.55 M130.33 94.74 C150.52 69.35, 172.76 44.31, 211.02 1.91 M130.33 94.74 C153.91 67.95, 179.09 39.47, 211.02 1.91 M135.32 95.1 C164.96 62.88, 196.33 26.74, 216.67 1.52 M135.32 95.1 C163.44 63.52, 192.23 30.05, 216.67 1.52 M140.96 94.71 C167.9 62.01, 199.52 29.84, 221.65 1.88 M140.96 94.71 C172.97 58.23, 203.3 21.88, 221.65 1.88 M145.95 95.07 C169.52 71.09, 188.21 44.41, 227.3 1.48 M145.95 95.07 C172.46 64.3, 199.19 34.26, 227.3 1.48 M151.59 94.67 C173.94 70.59, 197.8 43.13, 232.28 1.84 M151.59 94.67 C173.06 69.62, 195.14 43.04, 232.28 1.84 M156.58 95.03 C187.46 63.61, 213.85 27.12, 237.27 2.2 M156.58 95.03 C177.2 71.63, 195.07 49.89, 237.27 2.2 M162.22 94.64 C184.71 69.53, 209.71 43.28, 241.6 3.32 M162.22 94.64 C183.51 70.06, 205.13 44.96, 241.6 3.32 M167.21 95 C192.43 64.68, 218.74 32.88, 246.59 3.68 M167.21 95 C190.2 69.05, 214.69 40.83, 246.59 3.68 M172.85 94.6 C192.38 71.61, 215.71 45.8, 250.26 5.55 M172.85 94.6 C197.45 66.92, 219.31 40.25, 250.26 5.55 M177.84 94.96 C194.21 72.74, 214.71 50.94, 253.94 7.42 M177.84 94.96 C204.58 63.42, 230.14 34.07, 253.94 7.42 M183.48 94.57 C201.94 73.17, 218.2 55.09, 255.65 11.55 M183.48 94.57 C208.79 63.62, 236.89 32.3, 255.65 11.55 M188.47 94.93 C207.89 73.4, 227.76 51.99, 257.35 15.69 M188.47 94.93 C213.23 64.56, 240.79 34.34, 257.35 15.69 M194.11 94.54 C214.27 73.1, 233.48 51.71, 259.06 19.82 M194.11 94.54 C211.72 74.41, 228.72 53.93, 259.06 19.82 M199.1 94.9 C221.58 72.12, 239.27 46.71, 259.45 25.46 M199.1 94.9 C211.75 79.64, 223.82 65.81, 259.45 25.46 M204.74 94.5 C224.8 72.21, 248.56 46.94, 259.19 31.86 M204.74 94.5 C218.32 78.23, 233.77 59.37, 259.19 31.86 M209.73 94.86 C226.77 76.71, 239.52 59.46, 259.59 37.5 M209.73 94.86 C221.54 82.99, 232.06 70.88, 259.59 37.5 M215.37 94.47 C232.98 74.47, 251.2 55.47, 259.32 43.9 M215.37 94.47 C227.74 80.14, 239.03 68.18, 259.32 43.9 M220.36 94.83 C234.1 77.51, 252.09 59.46, 259.72 49.54 M220.36 94.83 C235.07 76.88, 251.64 59.96, 259.72 49.54 M226 94.43 C236.32 83.82, 244.84 72.7, 259.46 55.94 M226 94.43 C240.16 78.96, 252.83 63.23, 259.46 55.94 M230.99 94.79 C236.36 87.52, 245.27 79.74, 259.85 61.58 M230.99 94.79 C239.23 86.85, 245.38 76.56, 259.85 61.58 M235.97 95.15 C240.33 89.62, 246.7 84.72, 259.59 67.98 M235.97 95.15 C240.84 89.24, 246.53 82.31, 259.59 67.98 M242.27 94 C247.55 88.12, 250.79 83.96, 260.64 72.87 M242.27 94 C247.7 89.85, 250.09 83.22, 260.64 72.87" stroke="#ced4da" stroke-width="0.5" fill="none"></path><path d="M23.5 0 M23.5 0 C65.63 0.93, 112.29 -0.08, 234.5 0 M234.5 0 C251.54 -0.65, 256.83 6.78, 258 23.5 M258 23.5 C256.55 36.42, 257.06 48.05, 258 70.5 M258 70.5 C256.1 84.36, 251.22 92.35, 234.5 94 M234.5 94 C184.93 96.53, 133.81 97.29, 23.5 94 M23.5 94 C6.94 95.49, 1.07 85.22, 0 70.5 M0 70.5 C-0.71 55.7, 1.08 42.55, 0 23.5 M0 23.5 C-1.94 6.16, 7.45 1.01, 23.5 0" stroke="#000000" stroke-width="1.5" fill="none" stroke-dasharray="8 9"></path></g><g transform="translate(913.125 35.599999999999994) rotate(0 121.875 38.39999999999999)"><text x="121.875" y="0" font-family="Cascadia, Segoe UI Emoji" font-size="16px" fill="#000000" text-anchor="middle" style="white-space: pre;" direction="ltr" dominant-baseline="text-before-edge">wasm pointer</text><text x="121.875" y="19.2" font-family="Cascadia, Segoe UI Emoji" font-size="16px" fill="#000000" text-anchor="middle" style="white-space: pre;" direction="ltr" dominant-baseline="text-before-edge">value: 0X001C</text><text x="121.875" y="38.4" font-family="Cascadia, Segoe UI Emoji" font-size="16px" fill="#000000" text-anchor="middle" style="white-space: pre;" direction="ltr" dominant-baseline="text-before-edge">(It is an offset, and its </text><text x="121.875" y="57.599999999999994" font-family="Cascadia, Segoe UI Emoji" font-size="16px" fill="#000000" text-anchor="middle" style="white-space: pre;" direction="ltr" dominant-baseline="text-before-edge">basic address: 0xAB00)</text></g><g stroke-linecap="round"><g transform="translate(889 229) rotate(0 15.295772286131978 -54.275976123288274)"><path d="M-1.12 -0.28 C4.02 -18.15, 26.22 -90.35, 31.71 -108.27" stroke="#000000" stroke-width="1.5" fill="none" stroke-dasharray="8 9"></path></g><g transform="translate(889 229) rotate(0 15.295772286131978 -54.275976123288274)"><path d="M32.79 -77.13 C32.48 -88.15, 32.67 -99.41, 33.16 -108.33" stroke="#000000" stroke-width="1.5" fill="none"></path></g><g transform="translate(889 229) rotate(0 15.295772286131978 -54.275976123288274)"><path d="M13.17 -83.15 C20.12 -91.74, 27.62 -100.76, 33.16 -108.33" stroke="#000000" stroke-width="1.5" fill="none"></path></g></g><mask></mask><g stroke-linecap="round" transform="translate(482 10) rotate(0 128 53)"><path d="M3.97 10.07 C3.97 10.07, 3.97 10.07, 3.97 10.07 M3.97 10.07 C3.97 10.07, 3.97 10.07, 3.97 10.07 M0.43 20.25 C5.56 15.52, 10.23 7.69, 12.89 5.91 M0.43 20.25 C5.5 15.22, 8.91 10.84, 12.89 5.91 M3.44 22.87 C9.5 18.62, 12.41 11.15, 19.19 4.76 M3.44 22.87 C7.6 18.91, 11.04 14.34, 19.19 4.76 M3.18 29.27 C10.1 21.08, 17.99 11.08, 27.46 1.34 M3.18 29.27 C11.89 18.73, 22.99 7.05, 27.46 1.34 M3.58 34.91 C9.3 28.07, 18.25 17.06, 33.1 0.95 M3.58 34.91 C14.22 23.9, 24.33 12.11, 33.1 0.95 M3.32 41.31 C13.72 31.77, 20.2 23.6, 38.09 1.31 M3.32 41.31 C11.16 30.67, 20.32 20.92, 38.09 1.31 M3.71 46.95 C14.18 36.45, 19.58 25.24, 43.73 0.91 M3.71 46.95 C17.92 30.35, 31.98 14.55, 43.73 0.91 M3.45 53.35 C13.45 41.82, 25.3 29.03, 48.72 1.27 M3.45 53.35 C18.24 35.17, 34.44 18.96, 48.72 1.27 M3.19 59.75 C14.92 45.77, 28.09 30.15, 54.36 0.88 M3.19 59.75 C21.03 39.86, 39.07 19.4, 54.36 0.88 M3.58 65.39 C22.98 43.08, 42.35 20.71, 59.35 1.24 M3.58 65.39 C25.56 40.54, 47.19 16.4, 59.35 1.24 M3.32 71.79 C14.92 53.54, 30.61 40.47, 64.99 0.85 M3.32 71.79 C23.08 48.56, 44.06 23.04, 64.99 0.85 M3.72 77.43 C25.49 52.78, 43.17 31.43, 69.98 1.21 M3.72 77.43 C26.28 53.86, 46.61 29.55, 69.98 1.21 M1.49 86.09 C32.71 52.88, 60.44 17.53, 75.62 0.81 M1.49 86.09 C28.49 54.31, 55.35 23.92, 75.62 0.81 M2.54 90.98 C27.71 61.83, 50.71 35.72, 80.61 1.17 M2.54 90.98 C28.85 62.33, 55.61 32.5, 80.61 1.17 M3.59 95.87 C30.67 65.7, 58.87 34.93, 86.25 0.78 M3.59 95.87 C20.23 76.53, 35.71 57.57, 86.25 0.78 M5.95 99.25 C27.49 74.38, 45.78 50.34, 91.24 1.14 M5.95 99.25 C22.58 79.06, 40.96 58.58, 91.24 1.14 M8.97 101.87 C45.21 63.25, 77.58 26.63, 96.88 0.74 M8.97 101.87 C34.8 72.51, 61.15 41.7, 96.88 0.74 M12.64 103.74 C38.48 74.99, 64.97 44.03, 101.87 1.1 M12.64 103.74 C33.43 77.67, 55.82 51.77, 101.87 1.1 M16.32 105.61 C48.12 68.27, 80.12 27.41, 107.51 0.71 M16.32 105.61 C53.16 65.27, 90.41 23.37, 107.51 0.71 M21.31 105.97 C47.76 75.7, 74.67 45.3, 112.5 1.07 M21.31 105.97 C48.52 74, 77.32 40.47, 112.5 1.07 M26.29 106.33 C54.23 73.16, 82.15 42.49, 117.49 1.43 M26.29 106.33 C54.94 75.02, 83.97 41.92, 117.49 1.43 M31.94 105.94 C55.62 81.46, 76.08 56.39, 123.13 1.03 M31.94 105.94 C64.48 69.13, 98.45 31.12, 123.13 1.03 M36.92 106.3 C63.27 75.51, 93.19 39.83, 128.12 1.39 M36.92 106.3 C71.13 67.39, 105.46 26.62, 128.12 1.39 M42.57 105.9 C69.29 75.7, 98.64 41.28, 133.76 1 M42.57 105.9 C74.12 70.38, 106.59 34.21, 133.76 1 M47.55 106.26 C70.75 79.25, 96.81 50.57, 138.75 1.36 M47.55 106.26 C82.33 66.1, 116.52 26.32, 138.75 1.36 M53.2 105.87 C78.4 81.75, 98.4 54.21, 144.39 0.96 M53.2 105.87 C80.31 73.37, 107.35 43.24, 144.39 0.96 M58.18 106.23 C88.48 71.29, 117.93 35.89, 149.38 1.32 M58.18 106.23 C79.03 80.61, 101.85 56.47, 149.38 1.32 M63.83 105.83 C88.7 77.32, 110.18 51.07, 155.02 0.93 M63.83 105.83 C85.7 80.13, 109.58 52.78, 155.02 0.93 M68.81 106.19 C93.58 77.94, 120.05 48.75, 160.01 1.29 M68.81 106.19 C98.27 72.48, 127.22 40.09, 160.01 1.29 M74.46 105.8 C97.4 79.99, 119.25 56.28, 165.65 0.89 M74.46 105.8 C105.39 71.41, 133.23 38.29, 165.65 0.89 M79.44 106.16 C111.37 68.63, 142.13 31.3, 170.64 1.25 M79.44 106.16 C107.18 75.49, 134.75 43.28, 170.64 1.25 M85.09 105.76 C115.35 69.2, 149.02 32.42, 176.28 0.86 M85.09 105.76 C105.3 84.01, 124.09 61.84, 176.28 0.86 M90.07 106.13 C128.46 63.45, 161.73 20.77, 181.27 1.22 M90.07 106.13 C121.53 69.41, 151.71 33.5, 181.27 1.22 M95.72 105.73 C120.76 75.77, 146.92 47.09, 186.91 0.83 M95.72 105.73 C125.01 72.47, 152.93 40.51, 186.91 0.83 M100.7 106.09 C128.68 71.96, 156.41 39.83, 191.9 1.19 M100.7 106.09 C127.85 74.21, 154.86 43.34, 191.9 1.19 M106.35 105.7 C133.96 71.18, 167.51 34.89, 197.54 0.79 M106.35 105.7 C126.53 83.35, 145.52 61.95, 197.54 0.79 M111.33 106.06 C130.39 85.59, 150.24 62.55, 202.53 1.15 M111.33 106.06 C138.89 73, 167.45 42.95, 202.53 1.15 M116.32 106.42 C150.2 65.29, 185.22 26.13, 208.17 0.76 M116.32 106.42 C150.98 66.45, 186.55 26.99, 208.17 0.76 M121.96 106.02 C147.05 75.08, 173.24 46.26, 213.16 1.12 M121.96 106.02 C158.27 64.16, 194.59 21.62, 213.16 1.12 M126.95 106.38 C159.46 69.09, 190.65 34.43, 218.8 0.72 M126.95 106.38 C153.01 77.41, 177.75 46.79, 218.8 0.72 M132.59 105.99 C161.65 74.17, 186.16 43.73, 223.79 1.08 M132.59 105.99 C159.44 75.95, 184.75 45.88, 223.79 1.08 M137.58 106.35 C156.25 82.52, 175.28 60.06, 230.09 -0.07 M137.58 106.35 C162.06 79.12, 186.29 52.73, 230.09 -0.07 M143.22 105.95 C172.99 72.35, 202.68 38.51, 234.42 1.05 M143.22 105.95 C179.48 64.32, 215.96 23.95, 234.42 1.05 M148.21 106.31 C173.28 77.4, 196.49 48.27, 239.4 1.41 M148.21 106.31 C171.67 78.07, 195.28 51.84, 239.4 1.41 M153.85 105.92 C188.75 65.78, 222.26 24.17, 243.08 3.28 M153.85 105.92 C189.99 65.62, 225.11 24.64, 243.08 3.28 M158.84 106.28 C185.88 72.88, 214.91 41.47, 246.75 5.15 M158.84 106.28 C185.01 73.98, 212.51 43.93, 246.75 5.15 M164.48 105.88 C185.61 81.22, 209.49 52.84, 250.43 7.02 M164.48 105.88 C191.36 75.85, 216.81 46.59, 250.43 7.02 M169.47 106.24 C188.98 86.64, 206.8 63.78, 252.79 10.4 M169.47 106.24 C189.24 85.04, 208.22 63.62, 252.79 10.4 M175.11 105.85 C196.29 81.88, 215.24 63.12, 253.84 15.28 M175.11 105.85 C201.71 73.61, 230.89 40.69, 253.84 15.28 M180.1 106.21 C201.56 77.49, 228.02 50.19, 255.55 19.42 M180.1 106.21 C203.3 77.84, 227.86 50.33, 255.55 19.42 M185.74 105.81 C209.56 77.91, 233.34 49.88, 257.91 22.8 M185.74 105.81 C211.86 74.9, 237.04 45.7, 257.91 22.8 M190.73 106.17 C205.11 88.46, 222.66 71.38, 258.31 28.44 M190.73 106.17 C209.31 84.69, 227.67 62.91, 258.31 28.44 M196.37 105.78 C217.37 82.24, 238.51 59.65, 258.04 34.84 M196.37 105.78 C215.94 82.97, 236.91 60.27, 258.04 34.84 M201.36 106.14 C219.91 83.44, 234.94 65.44, 258.44 40.48 M201.36 106.14 C217.36 86.96, 235.32 68.26, 258.44 40.48 M207 105.75 C223.13 88.35, 241.28 67.35, 258.18 46.88 M207 105.75 C219.15 93.19, 230.88 79.61, 258.18 46.88 M211.99 106.11 C226.81 86.38, 241.96 68.01, 258.57 52.52 M211.99 106.11 C227.74 87.02, 243.8 69.52, 258.57 52.52 M217.63 105.71 C232.65 88.28, 244.79 73, 258.31 58.92 M217.63 105.71 C229.1 92.36, 239.93 80.67, 258.31 58.92 M222.62 106.07 C232.73 94.79, 239.07 86.08, 258.7 64.56 M222.62 106.07 C232.74 95.14, 242.8 83.54, 258.7 64.56 M228.26 105.68 C239.17 93.91, 252.53 80.42, 258.44 70.96 M228.26 105.68 C233.99 99.21, 241.61 91.83, 258.44 70.96 M231.94 107.55 C241.49 97.8, 247.62 87.1, 256.21 79.62 M231.94 107.55 C240.72 98.6, 249.88 88.11, 256.21 79.62 M238.24 106.4 C242.88 100.08, 250.88 92.29, 255.3 86.77 M238.24 106.4 C241.51 102.07, 246.26 98.91, 255.3 86.77" stroke="#ced4da" stroke-width="0.5" fill="none"></path><path d="M26.5 0 M26.5 0 C102 0.27, 180.25 0.24, 229.5 0 M229.5 0 C247.38 -0.31, 254.85 9.41, 256 26.5 M256 26.5 C254.82 45.18, 254.62 58.17, 256 79.5 M256 79.5 C254.46 97.5, 246.75 104.22, 229.5 106 M229.5 106 C150.95 106.34, 69.95 103.79, 26.5 106 M26.5 106 C8.59 105.44, 1.16 97.68, 0 79.5 M0 79.5 C0.27 63.48, -1.49 49.17, 0 26.5 M0 26.5 C-0.38 7.06, 8.89 1.5, 26.5 0" stroke="#000000" stroke-width="1.5" fill="none" stroke-dasharray="8 9"></path></g><g transform="translate(488.125 15) rotate(0 121.875 48)"><text x="121.875" y="0" font-family="Cascadia, Segoe UI Emoji" font-size="16px" fill="#000000" text-anchor="middle" style="white-space: pre;" direction="ltr" dominant-baseline="text-before-edge">native pointer</text><text x="121.875" y="19.2" font-family="Cascadia, Segoe UI Emoji" font-size="16px" fill="#000000" text-anchor="middle" style="white-space: pre;" direction="ltr" dominant-baseline="text-before-edge">value: 0xAB1C</text><text x="121.875" y="38.4" font-family="Cascadia, Segoe UI Emoji" font-size="16px" fill="#000000" text-anchor="middle" style="white-space: pre;" direction="ltr" dominant-baseline="text-before-edge">(It is the result of the </text><text x="121.875" y="57.599999999999994" font-family="Cascadia, Segoe UI Emoji" font-size="16px" fill="#000000" text-anchor="middle" style="white-space: pre;" direction="ltr" dominant-baseline="text-before-edge">wasm pointer plus the base</text><text x="121.875" y="76.8" font-family="Cascadia, Segoe UI Emoji" font-size="16px" fill="#000000" text-anchor="middle" style="white-space: pre;" direction="ltr" dominant-baseline="text-before-edge">address: 0x001C + 0xAB00)</text></g><g stroke-linecap="round"><g transform="translate(105 393.7772232243053) rotate(0 61.76737008896205 -38.28495544677858)"><path d="M-0.31 -0.5 C20.3 -12.89, 103.14 -61.89, 123.84 -74.31 M1.73 -1.81 C22.17 -14.55, 102.63 -64.09, 122.88 -76.07" stroke="#000000" stroke-width="1" fill="none"></path></g><g transform="translate(105 393.7772232243053) rotate(0 61.76737008896205 -38.28495544677858)"><path d="M103.24 -52.74 C111.14 -59.88, 115.86 -66.34, 123.34 -77.29 M103.7 -53.62 C108.18 -58.26, 113.96 -63.85, 123.78 -76.65" stroke="#000000" stroke-width="1" fill="none"></path></g><g transform="translate(105 393.7772232243053) rotate(0 61.76737008896205 -38.28495544677858)"><path d="M92.61 -70.29 C103.84 -71.89, 111.9 -72.85, 123.34 -77.29 M93.07 -71.17 C100.01 -71.71, 108.29 -73.16, 123.78 -76.65" stroke="#000000" stroke-width="1" fill="none"></path></g></g><mask></mask><g transform="translate(103.99999999999989 327.0000000000001) rotate(330.14685206627104 51.5625 9.599999999999994)"><text x="0" y="0" font-family="Cascadia, Segoe UI Emoji" font-size="16px" fill="#000000" text-anchor="start" style="white-space: pre;" direction="ltr" dominant-baseline="text-before-edge">use pointer</text></g><g stroke-linecap="round"><g transform="translate(259.8460428323168 287.94782321734704) rotate(0 107.08014210199815 -90.86949857494841)"><path d="M0 0.67 C15.46 -21.29, 57.18 -101.55, 92.87 -132.06 C128.57 -162.57, 194.04 -174.08, 214.16 -182.41" stroke="#000000" stroke-width="1.5" fill="none" stroke-dasharray="8 9"></path></g><g transform="translate(259.8460428323168 287.94782321734704) rotate(0 107.08014210199815 -90.86949857494841)"><path d="M191.39 -164.73 C199.11 -169.29, 203.22 -175.81, 213.09 -183.82" stroke="#000000" stroke-width="1.5" fill="none"></path></g><g transform="translate(259.8460428323168 287.94782321734704) rotate(0 107.08014210199815 -90.86949857494841)"><path d="M185.31 -184.33 C194.84 -182.9, 200.8 -183.42, 213.09 -183.82" stroke="#000000" stroke-width="1.5" fill="none"></path></g></g><mask></mask><g transform="translate(901 230) rotate(0 28.125 9.599999999999994)"><text x="0" y="0" font-family="Cascadia, Segoe UI Emoji" font-size="16px" fill="#e67700" text-anchor="start" style="white-space: pre;" direction="ltr" dominant-baseline="text-before-edge">0X001C</text></g><g transform="translate(197 268) rotate(0 28.125 9.599999999999994)"><text x="0" y="0" font-family="Cascadia, Segoe UI Emoji" font-size="16px" fill="#364fc7" text-anchor="start" style="white-space: pre;" direction="ltr" dominant-baseline="text-before-edge">0xAB1C</text></g><g stroke-linecap="round"><g transform="translate(258 326) rotate(0 229.20739953738928 85.81871275558552)"><path d="M0.18 0.76 C4.84 19.54, -19.24 85.52, 28.39 113.64 C76.01 141.76, 213.93 177.58, 285.91 169.48 C357.89 161.38, 431.27 82.31, 460.28 65.01 M-1.19 0.12 C3.84 19.06, -17.03 83.45, 30.78 111.85 C78.58 140.25, 214.06 178.15, 285.63 170.52 C357.19 162.9, 430.82 83.47, 460.15 66.12" stroke="#364fc7" stroke-width="1" fill="none"></path></g><g transform="translate(258 326) rotate(0 229.20739953738928 85.81871275558552)"><path d="M445.43 90.48 C450.33 84.54, 453.74 73.36, 460.17 64.41 M443.26 90.66 C449.6 82.14, 455.73 74.27, 460.1 66.78" stroke="#364fc7" stroke-width="1" fill="none"></path></g><g transform="translate(258 326) rotate(0 229.20739953738928 85.81871275558552)"><path d="M432.86 74.26 C442.09 73.71, 449.68 67.93, 460.17 64.41 M430.69 74.44 C441.54 71.61, 452.13 69.49, 460.1 66.78" stroke="#364fc7" stroke-width="1" fill="none"></path></g></g><mask></mask><g transform="translate(259.1225606980045 453.76091995614786) rotate(26.091690984052953 42.18749999999997 9.600000000000023)"><text x="0" y="0" font-family="Cascadia, Segoe UI Emoji" font-size="16px" fill="#364fc7" text-anchor="start" style="white-space: pre;" direction="ltr" dominant-baseline="text-before-edge">points to</text></g></svg>