<svg version="1.1" xmlns="http://www.w3.org/2000/svg" viewBox="0 0 386.33335876464844 113" width="386.33335876464844" height="113">
  <!-- svg-source:excalidraw -->
  
  <defs>
    <style class="style-fonts">
      @font-face {
        font-family: "Virgil";
        src: url("https://excalidraw.com/Virgil.woff2");
      }
      @font-face {
        font-family: "Cascadia";
        src: url("https://excalidraw.com/Cascadia.woff2");
      }
    </style>
  </defs>
  <rect x="0" y="0" width="386.33335876464844" height="113" fill="#ffffff"></rect><g stroke-linecap="round" transform="translate(215.33335876464844 12.666633605957031) rotate(0 80.5 32)"><path d="M16 0 M16 0 C62.74 0.57, 109.69 1.76, 145 0 M16 0 C59.19 1.04, 103.71 0.69, 145 0 M145 0 C154.25 0.73, 160.73 4.73, 161 16 M145 0 C153.82 2.12, 159.96 7.55, 161 16 M161 16 C161.65 27.51, 160.1 36.29, 161 48 M161 16 C161.04 22.29, 161.2 30.37, 161 48 M161 48 C161.01 59.97, 156.03 65.71, 145 64 M161 48 C161.85 59.55, 155.38 61.78, 145 64 M145 64 C111.19 62.16, 80.26 62.12, 16 64 M145 64 C119.33 62.56, 93.72 62.76, 16 64 M16 64 C5.17 62.95, 0.35 57.7, 0 48 M16 64 C7.54 61.76, 0.41 58.9, 0 48 M0 48 C-0.81 37.72, -1.28 28.07, 0 16 M0 48 C0.56 41.33, -0.98 34.7, 0 16 M0 16 C-0.9 4.21, 5.72 -1.8, 16 0 M0 16 C0.77 7.38, 5.43 1.49, 16 0" stroke="#000000" stroke-width="1" fill="none"></path></g><g transform="translate(222.86539459228516 17.66663360595703) rotate(0 72.96796417236328 10)"><text x="72.96796417236328" y="0" font-family="Virgil, Segoe UI Emoji" font-size="16px" fill="#000000" text-anchor="middle" style="white-space: pre;" direction="ltr" dominant-baseline="text-before-edge">The Node in WASM</text></g><g stroke-linecap="round" transform="translate(10 10) rotate(0 89 46.5)"><path d="M23.25 0 M23.25 0 C54.85 0.32, 85.63 0.9, 154.75 0 M23.25 0 C74.52 1.17, 124.93 -0.09, 154.75 0 M154.75 0 C169.83 -0.26, 178.54 9.34, 178 23.25 M154.75 0 C170.8 -0.24, 177.08 7.44, 178 23.25 M178 23.25 C179.75 40.58, 177.91 58.45, 178 69.75 M178 23.25 C178.13 35.61, 177.39 49.69, 178 69.75 M178 69.75 C178.89 86.71, 172.16 92.3, 154.75 93 M178 69.75 C175.71 84.92, 170.46 91.5, 154.75 93 M154.75 93 C101.49 92.12, 50.77 92.5, 23.25 93 M154.75 93 C108.96 91.78, 62.53 92.1, 23.25 93 M23.25 93 C6.77 94.48, 0.41 83.44, 0 69.75 M23.25 93 C7.6 91.53, -1.44 85.91, 0 69.75 M0 69.75 C0.18 59.94, -0.04 51.3, 0 23.25 M0 69.75 C-1.17 53.31, -0.57 36.97, 0 23.25 M0 23.25 C0.6 8.55, 6.22 -1.23, 23.25 0 M0 23.25 C-1.52 8.31, 7.8 -0.24, 23.25 0" stroke="#000000" stroke-width="1" fill="none"></path></g><g transform="translate(24.336029052734375 15) rotate(0 74.66397094726562 10)"><text x="74.66397094726562" y="0" font-family="Virgil, Segoe UI Emoji" font-size="16px" fill="#000000" text-anchor="middle" style="white-space: pre;" direction="ltr" dominant-baseline="text-before-edge">The Node in native</text></g><g stroke-linecap="round" transform="translate(12.66668701171875 37.33335876464844) rotate(0 42 15)"><path d="M7.5 0 M7.5 0 C34.94 -0.12, 62.33 0.17, 76.5 0 M7.5 0 C31.44 -0.28, 55.3 -0.22, 76.5 0 M76.5 0 C82.35 1.33, 85.09 1.18, 84 7.5 M76.5 0 C82.61 1.71, 86.3 1.84, 84 7.5 M84 7.5 C84.36 9.97, 84.39 13.44, 84 22.5 M84 7.5 C84.4 13.42, 84.24 18.58, 84 22.5 M84 22.5 C83.76 27.58, 81.41 29.49, 76.5 30 M84 22.5 C85.09 25.48, 83.54 29.83, 76.5 30 M76.5 30 C62.87 30.14, 47.15 30.79, 7.5 30 M76.5 30 C60.82 29.95, 44.46 29.39, 7.5 30 M7.5 30 C3.49 31.37, 0.6 26.74, 0 22.5 M7.5 30 C2.11 27.84, 1.47 25.76, 0 22.5 M0 22.5 C0.26 18.49, -1.45 14.74, 0 7.5 M0 22.5 C-0.13 17.27, -0.37 10.7, 0 7.5 M0 7.5 C0.77 3.53, 2.18 -0.8, 7.5 0 M0 7.5 C1.71 0.43, 2.98 -1.63, 7.5 0" stroke="#000000" stroke-width="1" fill="none"></path></g><g transform="translate(22.05071258544922 42.33335876464844) rotate(0 32.61597442626953 10)"><text x="32.61597442626953" y="0" font-family="Virgil, Segoe UI Emoji" font-size="16px" fill="#000000" text-anchor="middle" style="white-space: pre;" direction="ltr" dominant-baseline="text-before-edge">data:4B</text></g><g stroke-linecap="round" transform="translate(14.000030517578125 66.66667175292969) rotate(0 84 15)"><path d="M7.5 0 M7.5 0 C61.42 1.49, 115.59 -0.03, 160.5 0 M7.5 0 C44.93 -0.64, 80.75 -0.93, 160.5 0 M160.5 0 C167.09 1.22, 167.75 3.56, 168 7.5 M160.5 0 C166.43 -2.2, 169.1 2.55, 168 7.5 M168 7.5 C166.89 10.95, 167.56 14.97, 168 22.5 M168 7.5 C167.97 10.81, 168.36 13.76, 168 22.5 M168 22.5 C166.83 29.26, 165.71 28.34, 160.5 30 M168 22.5 C168.74 26.74, 166.85 28.69, 160.5 30 M160.5 30 C126.97 29.78, 91.09 31.16, 7.5 30 M160.5 30 C98.63 31.65, 37.94 31.93, 7.5 30 M7.5 30 C1.83 29.54, -0.2 27.21, 0 22.5 M7.5 30 C1.64 30.96, -1.75 25.73, 0 22.5 M0 22.5 C-0.3 17.99, 0.8 14.97, 0 7.5 M0 22.5 C0.15 19.44, -0.5 14.44, 0 7.5 M0 7.5 C0.12 2.38, 1.79 0.44, 7.5 0 M0 7.5 C0.91 0.33, 2.52 1.21, 7.5 0" stroke="#000000" stroke-width="1" fill="none"></path></g><g transform="translate(67.00005340576172 71.66667175292969) rotate(0 30.999977111816406 10)"><text x="30.999977111816406" y="0" font-family="Virgil, Segoe UI Emoji" font-size="16px" fill="#000000" text-anchor="middle" style="white-space: pre;" direction="ltr" dominant-baseline="text-before-edge">next:8B</text></g><g stroke-linecap="round" transform="translate(219.33335876464844 40.33331298828125) rotate(0 37.66667175292969 15)"><path d="M7.5 0 M7.5 0 C21.5 0.12, 36.95 1.73, 67.83 0 M7.5 0 C28.05 0.24, 48.64 0.99, 67.83 0 M67.83 0 C73.22 1.36, 74.44 2.67, 75.33 7.5 M67.83 0 C72.67 -1.42, 73.04 1.21, 75.33 7.5 M75.33 7.5 C74.41 13.49, 75.19 17.15, 75.33 22.5 M75.33 7.5 C75.44 12.66, 75.74 17.95, 75.33 22.5 M75.33 22.5 C73.7 28.83, 74.4 30.37, 67.83 30 M75.33 22.5 C77.36 28.87, 70.82 29.28, 67.83 30 M67.83 30 C53.96 28.95, 38.64 28.57, 7.5 30 M67.83 30 C52.27 30.96, 38.22 30.11, 7.5 30 M7.5 30 C0.94 28.03, -0.95 27.94, 0 22.5 M7.5 30 C1.07 31.62, -0.07 28.95, 0 22.5 M0 22.5 C1 19.32, -1.34 15, 0 7.5 M0 22.5 C-0.24 18.79, -0.04 14.78, 0 7.5 M0 7.5 C-0.22 4.07, 3.78 -0.75, 7.5 0 M0 7.5 C1.72 0.98, 3.68 -0.24, 7.5 0" stroke="#000000" stroke-width="1" fill="none"></path></g><g transform="translate(224.3840560913086 45.33331298828125) rotate(0 32.61597442626953 10)"><text x="32.61597442626953" y="0" font-family="Virgil, Segoe UI Emoji" font-size="16px" fill="#000000" text-anchor="middle" style="white-space: pre;" direction="ltr" dominant-baseline="text-before-edge">data:4B</text></g><g stroke-linecap="round" transform="translate(298.3332977294922 39.999969482421875) rotate(0 37.66667175292969 15)"><path d="M7.5 0 M7.5 0 C26.63 1.22, 46.01 2.03, 67.83 0 M7.5 0 C30.35 -0.22, 52.5 0.19, 67.83 0 M67.83 0 C71.08 -0.63, 74.43 3.7, 75.33 7.5 M67.83 0 C74.25 1.72, 73.7 4.28, 75.33 7.5 M75.33 7.5 C76.37 9.71, 76.02 14.18, 75.33 22.5 M75.33 7.5 C74.86 11.66, 74.75 16.02, 75.33 22.5 M75.33 22.5 C75.27 28.76, 71.95 29.62, 67.83 30 M75.33 22.5 C74.24 28.99, 73.85 27.9, 67.83 30 M67.83 30 C48.73 29.04, 30.54 29.56, 7.5 30 M67.83 30 C50.96 30.1, 33.55 29.81, 7.5 30 M7.5 30 C3.53 29.79, -0.03 25.93, 0 22.5 M7.5 30 C0.25 30.32, -1.48 26, 0 22.5 M0 22.5 C0.27 18.34, 1.29 10.6, 0 7.5 M0 22.5 C-0.47 18.04, -0.18 14.02, 0 7.5 M0 7.5 C0.54 4.09, 2.98 -0.21, 7.5 0 M0 7.5 C-0.92 2.19, 4.36 -0.98, 7.5 0" stroke="#000000" stroke-width="1" fill="none"></path></g><g transform="translate(305.99999237060547 44.999969482421875) rotate(0 29.999977111816406 10)"><text x="29.999977111816406" y="0" font-family="Virgil, Segoe UI Emoji" font-size="16px" fill="#000000" text-anchor="middle" style="white-space: pre;" direction="ltr" dominant-baseline="text-before-edge">next:4B</text></g><g stroke-linecap="round" transform="translate(98.37200164794922 37.66664123535156) rotate(0 42 15)"><path d="M7.5 0 M7.5 0 C34.67 0.87, 60.79 -0.17, 76.5 0 M7.5 0 C23.12 0.99, 37.25 1.1, 76.5 0 M76.5 0 C81.88 1.78, 85.61 1.44, 84 7.5 M76.5 0 C80.81 0.01, 82.95 1.06, 84 7.5 M84 7.5 C82.51 12.81, 84.24 18.65, 84 22.5 M84 7.5 C83.26 12.7, 84.35 16.4, 84 22.5 M84 22.5 C83.52 25.9, 80.87 31.2, 76.5 30 M84 22.5 C82.45 26.14, 82.42 27.81, 76.5 30 M76.5 30 C55.12 31.07, 31.15 27.93, 7.5 30 M76.5 30 C58.27 29.71, 39.94 29.75, 7.5 30 M7.5 30 C1.19 31.45, -0.4 27.8, 0 22.5 M7.5 30 C2.88 30.47, 1.5 28.44, 0 22.5 M0 22.5 C-1.12 17.29, 1.23 16.17, 0 7.5 M0 22.5 C-0.17 17.09, -0.16 12.04, 0 7.5 M0 7.5 C-0.59 1.6, 1.31 -0.91, 7.5 0 M0 7.5 C-0.47 3.29, 0.24 -2.02, 7.5 0" stroke="#000000" stroke-width="1" fill="none"></path></g><g transform="translate(129.4360122680664 42.66664123535156) rotate(0 10.935989379882812 10)"><text x="10.935989379882812" y="0" font-family="Virgil, Segoe UI Emoji" font-size="16px" fill="#000000" text-anchor="middle" style="white-space: pre;" direction="ltr" dominant-baseline="text-before-edge">4B</text></g></svg>