<svg version="1.1" xmlns="http://www.w3.org/2000/svg" viewBox="0 0 389.33331298828125 275.33333587646484" width="389.33331298828125" height="275.33333587646484">
  <!-- svg-source:excalidraw -->
  
  <defs>
    <style class="style-fonts">
      @font-face {
        font-family: "Virgil";
        src: url("https://excalidraw.com/Virgil.woff2");
      }
      @font-face {
        font-family: "Cascadia";
        src: url("https://excalidraw.com/Cascadia.woff2");
      }
    </style>
  </defs>
  <rect x="0" y="0" width="389.33331298828125" height="275.33333587646484" fill="#ffffff"></rect><g stroke-linecap="round" transform="translate(35.33332824707031 10) rotate(0 80.5 32)"><path d="M16 0 M16 0 C62.74 0.57, 109.69 1.76, 145 0 M16 0 C59.19 1.04, 103.71 0.69, 145 0 M145 0 C154.25 0.73, 160.73 4.73, 161 16 M145 0 C153.82 2.12, 159.96 7.55, 161 16 M161 16 C161.65 27.51, 160.1 36.29, 161 48 M161 16 C161.04 22.29, 161.2 30.37, 161 48 M161 48 C161.01 59.97, 156.03 65.71, 145 64 M161 48 C161.85 59.55, 155.38 61.78, 145 64 M145 64 C111.19 62.16, 80.26 62.12, 16 64 M145 64 C119.33 62.56, 93.72 62.76, 16 64 M16 64 C5.17 62.95, 0.35 57.7, 0 48 M16 64 C7.54 61.76, 0.41 58.9, 0 48 M0 48 C-0.81 37.72, -1.28 28.07, 0 16 M0 48 C0.56 41.33, -0.98 34.7, 0 16 M0 16 C-0.9 4.21, 5.72 -1.8, 16 0 M0 16 C0.77 7.38, 5.43 1.49, 16 0" stroke="#000000" stroke-width="1" fill="none"></path></g><g transform="translate(42.86536407470703 15) rotate(0 72.96796417236328 10)"><text x="72.96796417236328" y="0" font-family="Virgil, Segoe UI Emoji" font-size="16px" fill="#000000" text-anchor="middle" style="white-space: pre;" direction="ltr" dominant-baseline="text-before-edge">The Node in WASM</text></g><g stroke-linecap="round" transform="translate(39.33332824707031 37.66667938232422) rotate(0 37.66667175292969 15)"><path d="M7.5 0 M7.5 0 C21.5 0.12, 36.95 1.73, 67.83 0 M7.5 0 C28.05 0.24, 48.64 0.99, 67.83 0 M67.83 0 C73.22 1.36, 74.44 2.67, 75.33 7.5 M67.83 0 C72.67 -1.42, 73.04 1.21, 75.33 7.5 M75.33 7.5 C74.41 13.49, 75.19 17.15, 75.33 22.5 M75.33 7.5 C75.44 12.66, 75.74 17.95, 75.33 22.5 M75.33 22.5 C73.7 28.83, 74.4 30.37, 67.83 30 M75.33 22.5 C77.36 28.87, 70.82 29.28, 67.83 30 M67.83 30 C53.96 28.95, 38.64 28.57, 7.5 30 M67.83 30 C52.27 30.96, 38.22 30.11, 7.5 30 M7.5 30 C0.94 28.03, -0.95 27.94, 0 22.5 M7.5 30 C1.07 31.62, -0.07 28.95, 0 22.5 M0 22.5 C1 19.32, -1.34 15, 0 7.5 M0 22.5 C-0.24 18.79, -0.04 14.78, 0 7.5 M0 7.5 C-0.22 4.07, 3.78 -0.75, 7.5 0 M0 7.5 C1.72 0.98, 3.68 -0.24, 7.5 0" stroke="#c92a2a" stroke-width="1" fill="none"></path></g><g transform="translate(44.38402557373047 42.66667938232422) rotate(0 32.61597442626953 10)"><text x="32.61597442626953" y="0" font-family="Virgil, Segoe UI Emoji" font-size="16px" fill="#c92a2a" text-anchor="middle" style="white-space: pre;" direction="ltr" dominant-baseline="text-before-edge">data:4B</text></g><g stroke-linecap="round" transform="translate(118.33326721191406 37.333335876464844) rotate(0 37.66667175292969 15)"><path d="M7.5 0 M7.5 0 C26.63 1.22, 46.01 2.03, 67.83 0 M7.5 0 C30.35 -0.22, 52.5 0.19, 67.83 0 M67.83 0 C71.08 -0.63, 74.43 3.7, 75.33 7.5 M67.83 0 C74.25 1.72, 73.7 4.28, 75.33 7.5 M75.33 7.5 C76.37 9.71, 76.02 14.18, 75.33 22.5 M75.33 7.5 C74.86 11.66, 74.75 16.02, 75.33 22.5 M75.33 22.5 C75.27 28.76, 71.95 29.62, 67.83 30 M75.33 22.5 C74.24 28.99, 73.85 27.9, 67.83 30 M67.83 30 C48.73 29.04, 30.54 29.56, 7.5 30 M67.83 30 C50.96 30.1, 33.55 29.81, 7.5 30 M7.5 30 C3.53 29.79, -0.03 25.93, 0 22.5 M7.5 30 C0.25 30.32, -1.48 26, 0 22.5 M0 22.5 C0.27 18.34, 1.29 10.6, 0 7.5 M0 22.5 C-0.47 18.04, -0.18 14.02, 0 7.5 M0 7.5 C0.54 4.09, 2.98 -0.21, 7.5 0 M0 7.5 C-0.92 2.19, 4.36 -0.98, 7.5 0" stroke="#c92a2a" stroke-width="1" fill="none"></path></g><g transform="translate(125.99996185302734 42.333335876464844) rotate(0 29.999977111816406 10)"><text x="29.999977111816406" y="0" font-family="Virgil, Segoe UI Emoji" font-size="16px" fill="#c92a2a" text-anchor="middle" style="white-space: pre;" direction="ltr" dominant-baseline="text-before-edge">next:4B</text></g><g stroke-linecap="round" transform="translate(246.33331298828125 86.33333587646484) rotate(0 66.5 89.5)"><path d="M32 0 M32 0 C47.58 1.33, 61.12 -1.38, 101 0 M32 0 C58.08 -0.67, 86.05 -0.27, 101 0 M101 0 C121.64 1.49, 131.66 11.21, 133 32 M101 0 C122.28 1.74, 131.4 10.52, 133 32 M133 32 C131.79 55.15, 133.54 81.5, 133 147 M133 32 C133.18 74.19, 133.13 117.28, 133 147 M133 147 C132 169.08, 123.88 180.75, 101 179 M133 147 C132.34 169.46, 123.81 181.16, 101 179 M101 179 C76.62 180.1, 56.56 180.71, 32 179 M101 179 C80.76 178.99, 61.32 178.63, 32 179 M32 179 C10.28 180.75, -0.55 169.07, 0 147 M32 179 C10.59 180.65, 2.07 166.45, 0 147 M0 147 C1.62 116.92, 0.18 86.63, 0 32 M0 147 C0.89 115.17, -0.25 82.42, 0 32 M0 32 C1.72 8.71, 8.77 1.63, 32 0 M0 32 C-0.05 10.58, 9.54 1.91, 32 0" stroke="#000000" stroke-width="1" fill="none"></path></g><g transform="translate(259.2733383178711 91.33333587646484) rotate(0 53.559974670410156 10)"><text x="53.559974670410156" y="0" font-family="Virgil, Segoe UI Emoji" font-size="16px" fill="#000000" text-anchor="middle" style="white-space: pre;" direction="ltr" dominant-baseline="text-before-edge">Linear memory</text></g><g stroke-linecap="round" transform="translate(272.33331298828125 123.6666488647461) rotate(0 20.333343505859375 6.333343505859375)"><path d="M3.17 0 M3.17 0 C16.24 -1.37, 28.47 -1.93, 37.5 0 M3.17 0 C15.49 0.18, 26.65 0.87, 37.5 0 M37.5 0 C38.27 0.55, 40.62 2.57, 40.67 3.17 M37.5 0 C38.01 -0.15, 38.62 -0.7, 40.67 3.17 M40.67 3.17 C41.11 5.53, 41.12 7.84, 40.67 9.5 M40.67 3.17 C40.31 5.36, 40.45 7.94, 40.67 9.5 M40.67 9.5 C42.21 13.36, 39.04 13.64, 37.5 12.67 M40.67 9.5 C42.14 13.77, 40.27 13.4, 37.5 12.67 M37.5 12.67 C25.66 13.98, 11.64 11.5, 3.17 12.67 M37.5 12.67 C28.52 12.75, 20.11 13.65, 3.17 12.67 M3.17 12.67 C0.51 13.41, -0.07 13.05, 0 9.5 M3.17 12.67 C3.12 10.79, -0.88 11.8, 0 9.5 M0 9.5 C0.03 6.99, -0.18 4.54, 0 3.17 M0 9.5 C-0.16 8.18, 0.22 6.61, 0 3.17 M0 3.17 C-1.9 2.68, 1.02 -0.07, 3.17 0 M0 3.17 C-1.13 2.96, 2.28 -1.09, 3.17 0" stroke="#c92a2a" stroke-width="1" fill="none"></path></g><g stroke-linecap="round" transform="translate(318.33331298828125 124.33333587646484) rotate(0 21 6)"><path d="M3 0 M3 0 C15.71 1.54, 28.96 0.7, 39 0 M3 0 C11.19 -0.49, 20.02 -0.82, 39 0 M39 0 C41.55 -0.04, 43.51 -0.39, 42 3 M39 0 C40.85 -2.05, 40.24 1.51, 42 3 M42 3 C42.27 5.14, 42.53 6.8, 42 9 M42 3 C41.84 4.11, 42.07 5.75, 42 9 M42 9 C43.75 10.43, 41.98 13.28, 39 12 M42 9 C44.16 11.66, 41.73 13.66, 39 12 M39 12 C32.46 11.86, 22.23 11.18, 3 12 M39 12 C30.28 11.67, 22.5 11.59, 3 12 M3 12 C1.74 11.93, 1.44 12.8, 0 9 M3 12 C-0.88 11.12, 0.19 13, 0 9 M0 9 C-0.06 6.57, -0.06 3.8, 0 3 M0 9 C-0.05 6.99, -0.32 4.17, 0 3 M0 3 C1.63 0.96, 0.93 -0.98, 3 0 M0 3 C1.91 2.22, -0.09 -0.19, 3 0" stroke="#c92a2a" stroke-width="1" fill="none"></path></g><g stroke-linecap="round" transform="translate(275 144.33330535888672) rotate(0 20.333343505859375 6.333343505859375)"><path d="M3.17 0 M3.17 0 C18.03 -1.46, 30.27 -1.29, 37.5 0 M3.17 0 C11.93 0.73, 20.71 0.25, 37.5 0 M37.5 0 C39.57 1.51, 39.28 0.92, 40.67 3.17 M37.5 0 C37.56 -1.76, 41.18 0.67, 40.67 3.17 M40.67 3.17 C41.17 5.31, 41.14 5.7, 40.67 9.5 M40.67 3.17 C40.45 4.77, 40.85 6.41, 40.67 9.5 M40.67 9.5 C40.09 12.59, 40.9 14.55, 37.5 12.67 M40.67 9.5 C41.33 12.34, 41.27 10.72, 37.5 12.67 M37.5 12.67 C25.86 11.6, 13.83 11.7, 3.17 12.67 M37.5 12.67 C25.87 13.53, 14.36 13.02, 3.17 12.67 M3.17 12.67 C0.99 14.11, 1.8 9.98, 0 9.5 M3.17 12.67 C0.17 12.85, 2 13.58, 0 9.5 M0 9.5 C-0.13 7.54, -0.62 6.2, 0 3.17 M0 9.5 C0.3 7.03, -0.28 5.44, 0 3.17 M0 3.17 C-0.04 0.98, 0.07 1.66, 3.17 0 M0 3.17 C1.22 -0.04, 0.87 -0.06, 3.17 0" stroke="#000000" stroke-width="1" fill="none"></path></g><g stroke-linecap="round" transform="translate(321 144.99999237060547) rotate(0 21 6)"><path d="M3 0 M3 0 C14.51 0.62, 27.84 -1.01, 39 0 M3 0 C16.01 -0.55, 27.79 0.1, 39 0 M39 0 C42.51 -1.39, 41.87 -0.78, 42 3 M39 0 C39.24 0.51, 41.62 -0.26, 42 3 M42 3 C42.59 5.63, 41.49 7.06, 42 9 M42 3 C42.09 4.46, 42.24 5.37, 42 9 M42 9 C42.98 12.28, 42.88 12.58, 39 12 M42 9 C42.73 12.66, 39.05 12.69, 39 12 M39 12 C25.25 10.95, 12.86 12.6, 3 12 M39 12 C30.46 11.66, 20.54 11.9, 3 12 M3 12 C2.44 13.8, -1.63 10.23, 0 9 M3 12 C1.19 14, 1.97 11.01, 0 9 M0 9 C-0.05 6.54, 0.48 5.48, 0 3 M0 9 C-0.29 7.13, 0.25 5.82, 0 3 M0 3 C-0.07 0.02, 2.66 1.06, 3 0 M0 3 C-1.09 0.81, 0.94 -1.29, 3 0" stroke="#000000" stroke-width="1" fill="none"></path></g><g stroke-linecap="round" transform="translate(275 165.33330535888672) rotate(0 20.333343505859375 6.333343505859375)"><path d="M3.17 0 M3.17 0 C12.54 -1.2, 19.33 1.09, 37.5 0 M3.17 0 C13 0.02, 24.14 0.5, 37.5 0 M37.5 0 C38.22 -0.13, 38.88 -0.47, 40.67 3.17 M37.5 0 C40.12 -0.38, 39.4 2.69, 40.67 3.17 M40.67 3.17 C41.14 4.82, 40.3 7, 40.67 9.5 M40.67 3.17 C40.88 5.08, 40.54 6.59, 40.67 9.5 M40.67 9.5 C41.95 13.49, 40.19 13.3, 37.5 12.67 M40.67 9.5 C42.33 9.66, 40.31 13.74, 37.5 12.67 M37.5 12.67 C24.13 11.28, 13.41 11.68, 3.17 12.67 M37.5 12.67 C27.03 13.34, 17.08 13.69, 3.17 12.67 M3.17 12.67 C2.85 11.03, -0.77 11.77, 0 9.5 M3.17 12.67 C3.05 14.64, 0.01 11.93, 0 9.5 M0 9.5 C-0.6 8.16, 0.27 5.6, 0 3.17 M0 9.5 C-0.35 7.92, -0.06 5.81, 0 3.17 M0 3.17 C-0.98 2.71, 2.12 -0.95, 3.17 0 M0 3.17 C-0.19 0.99, -0.23 -0.08, 3.17 0" stroke="#000000" stroke-width="1" fill="none"></path></g><g stroke-linecap="round" transform="translate(321 165.99999237060547) rotate(0 21 6)"><path d="M3 0 M3 0 C15.52 -0.86, 31.8 -0.05, 39 0 M3 0 C12.83 0.22, 22.86 -0.45, 39 0 M39 0 C40.87 -1.78, 40.47 1.44, 42 3 M39 0 C40.62 -1.26, 43.63 2.16, 42 3 M42 3 C41.52 4.84, 41.49 7.22, 42 9 M42 3 C42.28 4.41, 42.17 6.19, 42 9 M42 9 C43.88 11.58, 41.64 13.44, 39 12 M42 9 C40.05 11.69, 42.07 13.39, 39 12 M39 12 C27.57 12.48, 17.73 11.76, 3 12 M39 12 C29.27 11.87, 19.52 12.8, 3 12 M3 12 C-0.63 11.23, 0.16 12.74, 0 9 M3 12 C2.97 12.01, 0.32 10.77, 0 9 M0 9 C0.48 7.56, -0.21 5.58, 0 3 M0 9 C0.3 6.68, 0.05 4.22, 0 3 M0 3 C1.66 2.06, 0.05 -0.16, 3 0 M0 3 C-0.06 -0.29, 0.92 1.66, 3 0" stroke="#000000" stroke-width="1" fill="none"></path></g><g stroke-linecap="round" transform="translate(276.33331298828125 183.99999237060547) rotate(0 20.333343505859375 6.333343505859375)"><path d="M3.17 0 M3.17 0 C9.94 1.07, 18.22 -0.44, 37.5 0 M3.17 0 C16.01 0.66, 28.2 -0.16, 37.5 0 M37.5 0 C37.83 -1.53, 41.11 0.72, 40.67 3.17 M37.5 0 C38.35 1.63, 41.83 2.72, 40.67 3.17 M40.67 3.17 C40.29 5.06, 40.45 7.84, 40.67 9.5 M40.67 3.17 C40.62 5.46, 40.92 7.74, 40.67 9.5 M40.67 9.5 C41.24 12.25, 41.06 10.97, 37.5 12.67 M40.67 9.5 C41.36 12.69, 41 12.32, 37.5 12.67 M37.5 12.67 C30.04 11.7, 21.2 12.08, 3.17 12.67 M37.5 12.67 C24.17 13.51, 11.81 11.98, 3.17 12.67 M3.17 12.67 C0.29 12.83, 1.74 13.32, 0 9.5 M3.17 12.67 C1.06 12.98, -0.23 11.16, 0 9.5 M0 9.5 C0.32 7.43, 0 6.36, 0 3.17 M0 9.5 C0.05 8.21, -0.1 7.2, 0 3.17 M0 3.17 C1.06 0.11, 0.89 -0.06, 3.17 0 M0 3.17 C-1.29 0.98, 2.71 -1.76, 3.17 0" stroke="#d9480f" stroke-width="1" fill="none"></path></g><g stroke-linecap="round" transform="translate(322.33331298828125 184.66667938232422) rotate(0 21 6)"><path d="M3 0 M3 0 C16.3 0.24, 27.29 1.62, 39 0 M3 0 C12.14 -0.69, 19.7 -0.88, 39 0 M39 0 C39.47 0.44, 41.67 -0.1, 42 3 M39 0 C42.63 1.16, 43.67 3.16, 42 3 M42 3 C41.37 4.95, 41.65 7.63, 42 9 M42 3 C42.2 5.46, 42.33 7.61, 42 9 M42 9 C42.64 12.44, 39.31 12.6, 39 12 M42 9 C43.07 12.39, 40.65 10.54, 39 12 M39 12 C29.22 12.06, 20.58 13.86, 3 12 M39 12 C29.91 12.89, 18.56 11.6, 3 12 M3 12 C1.16 13.74, 1.71 11.01, 0 9 M3 12 C1.32 11.77, -0.45 10.79, 0 9 M0 9 C-0.26 7.72, 0.47 5.96, 0 3 M0 9 C-0.06 7.62, 0.2 6.7, 0 3 M0 3 C-0.95 0.84, 0.94 -1.12, 3 0 M0 3 C-0.08 2.66, -0.76 0.36, 3 0" stroke="#d9480f" stroke-width="1" fill="none"></path></g><g stroke-linecap="round" transform="translate(279.33331298828125 204.66661834716797) rotate(0 20.333343505859375 6.333343505859375)"><path d="M3.17 0 M3.17 0 C11.04 -0.83, 20.18 -1.48, 37.5 0 M3.17 0 C13.71 -0.32, 24.75 -1.02, 37.5 0 M37.5 0 C40.06 -0.33, 39.57 2.48, 40.67 3.17 M37.5 0 C40.77 1.67, 42.83 2.6, 40.67 3.17 M40.67 3.17 C40.36 4.18, 40.86 6.32, 40.67 9.5 M40.67 3.17 C40.85 5.92, 40.74 8.17, 40.67 9.5 M40.67 9.5 C42.11 9.92, 40.22 13.6, 37.5 12.67 M40.67 9.5 C42.06 11.26, 38.15 11.53, 37.5 12.67 M37.5 12.67 C29.15 12.15, 22.67 11.99, 3.17 12.67 M37.5 12.67 C26.83 12.1, 13.98 12.99, 3.17 12.67 M3.17 12.67 C2.79 14.38, 0.01 11.89, 0 9.5 M3.17 12.67 C0.82 12.21, -0.21 9.4, 0 9.5 M0 9.5 C-0.09 7.65, -0.65 4.1, 0 3.17 M0 9.5 C-0.15 7.35, 0.17 4.52, 0 3.17 M0 3.17 C-0.16 1, -0.06 -0.07, 3.17 0 M0 3.17 C1.66 -0.7, 1.42 -1.13, 3.17 0" stroke="#000000" stroke-width="1" fill="none"></path></g><g stroke-linecap="round" transform="translate(325.33331298828125 205.33330535888672) rotate(0 21 6)"><path d="M3 0 M3 0 C11.86 1.47, 20.76 0.52, 39 0 M3 0 C13.66 -0.64, 23.68 0.47, 39 0 M39 0 C40.67 -1.1, 43.42 2.01, 42 3 M39 0 C42.67 2.16, 43.55 -1.07, 42 3 M42 3 C41.64 4.63, 42.41 6.33, 42 9 M42 3 C42.31 4.71, 42.13 6.47, 42 9 M42 9 C40.31 11.6, 41.93 13.21, 39 12 M42 9 C41.65 9.54, 39.86 10.65, 39 12 M39 12 C26.62 13.73, 14.48 12.73, 3 12 M39 12 C27.5 11.94, 17.72 13.19, 3 12 M3 12 C2.71 12.01, 0.28 10.8, 0 9 M3 12 C0.55 11.79, -2.21 12.81, 0 9 M0 9 C0.54 6.37, -0.55 5.4, 0 3 M0 9 C0.25 7.37, -0.14 5.4, 0 3 M0 3 C-0.06 -0.12, 0.93 1.44, 3 0 M0 3 C-1.76 1.36, -0.13 -0.28, 3 0" stroke="#000000" stroke-width="1" fill="none"></path></g><g stroke-linecap="round" transform="translate(280.6666259765625 223.99996185302734) rotate(0 20.333343505859375 6.333343505859375)"><path d="M3.17 0 M3.17 0 C16.35 -1.22, 27.1 0.07, 37.5 0 M3.17 0 C15.17 -0.74, 29.18 -0.14, 37.5 0 M37.5 0 C38.51 1.42, 41.67 2.51, 40.67 3.17 M37.5 0 C41.77 1.55, 38.6 -0.46, 40.67 3.17 M40.67 3.17 C40.88 4.95, 41.19 5.58, 40.67 9.5 M40.67 3.17 C40.8 5.48, 40.94 7.32, 40.67 9.5 M40.67 9.5 C41.27 12.55, 40.82 12.36, 37.5 12.67 M40.67 9.5 C39.21 10.47, 38.26 13.43, 37.5 12.67 M37.5 12.67 C30.27 12.05, 20.28 12.53, 3.17 12.67 M37.5 12.67 C24.35 12.47, 12.83 13.24, 3.17 12.67 M3.17 12.67 C1.06 12.94, -0.2 11.22, 0 9.5 M3.17 12.67 C0.84 10.46, 1.81 12.55, 0 9.5 M0 9.5 C-0.61 7.23, 0.52 6.14, 0 3.17 M0 9.5 C0.2 7.47, 0.01 5.74, 0 3.17 M0 3.17 C-1.12 0.99, 2.49 -1.53, 3.17 0 M0 3.17 C0.36 -0.07, 0.78 1.33, 3.17 0" stroke="#000000" stroke-width="1" fill="none"></path></g><g stroke-linecap="round" transform="translate(326.6666259765625 224.6666488647461) rotate(0 21 6)"><path d="M3 0 M3 0 C12.67 0.28, 24.98 1.24, 39 0 M3 0 C10.53 0.54, 19.43 -0.23, 39 0 M39 0 C42.42 1.01, 43.45 2.88, 42 3 M39 0 C42.55 -2.07, 40.48 -1.19, 42 3 M42 3 C42.43 5.07, 41.8 6.39, 42 9 M42 3 C42.15 5.4, 41.8 7.46, 42 9 M42 9 C42.93 12.21, 40.7 10.73, 39 12 M42 9 C40.86 9.65, 41.76 11.12, 39 12 M39 12 C27.77 13.05, 17.56 13.75, 3 12 M39 12 C25.04 12.73, 11.78 11.86, 3 12 M3 12 C1.28 11.8, -0.39 10.82, 0 9 M3 12 C-1.21 13.81, 0.94 10.18, 0 9 M0 9 C-0.62 7.75, -0.06 5.49, 0 3 M0 9 C-0.19 7.47, -0.06 5.82, 0 3 M0 3 C-0.07 2.44, -0.53 0.32, 3 0 M0 3 C-1.13 0.72, 2.33 1.54, 3 0" stroke="#000000" stroke-width="1" fill="none"></path></g><g stroke-linecap="round" transform="translate(282.33331298828125 243.33330535888672) rotate(0 20.333343505859375 6.333343505859375)"><path d="M3.17 0 M3.17 0 C12.82 0.19, 22.9 -1.16, 37.5 0 M3.17 0 C13.46 0.1, 22.77 0.97, 37.5 0 M37.5 0 C40.62 1.45, 42.55 2.4, 40.67 3.17 M37.5 0 C37.54 -1.52, 38.48 0.1, 40.67 3.17 M40.67 3.17 C41.24 4.57, 41 6.74, 40.67 9.5 M40.67 3.17 C40.91 5.39, 40.78 8.31, 40.67 9.5 M40.67 9.5 C41.88 11.31, 38.34 11.67, 37.5 12.67 M40.67 9.5 C39.32 12.37, 38.73 12.59, 37.5 12.67 M37.5 12.67 C28.61 12.51, 19.68 14.37, 3.17 12.67 M37.5 12.67 C30.87 13.55, 22.51 12.83, 3.17 12.67 M3.17 12.67 C0.85 12.27, -0.18 9.69, 0 9.5 M3.17 12.67 C2.87 13.6, -0.82 11.39, 0 9.5 M0 9.5 C0.58 7.04, 0.04 4.3, 0 3.17 M0 9.5 C-0.06 7.07, -0.21 4.64, 0 3.17 M0 3.17 C1.44 -0.47, 1.37 -0.98, 3.17 0 M0 3.17 C-0.28 2.39, 2.59 0.82, 3.17 0" stroke="#000000" stroke-width="1" fill="none"></path></g><g stroke-linecap="round" transform="translate(328.33331298828125 243.99999237060547) rotate(0 21 6)"><path d="M3 0 M3 0 C16.44 1.41, 28.58 -0.23, 39 0 M3 0 C10.42 -0.63, 18.89 0.42, 39 0 M39 0 C42.45 1.88, 43.34 -0.8, 42 3 M39 0 C39.48 -2.19, 41.04 -0.15, 42 3 M42 3 C41.87 5.32, 42.43 7.61, 42 9 M42 3 C41.77 5.06, 42.16 7.13, 42 9 M42 9 C41.7 9.73, 40.01 10.83, 39 12 M42 9 C42.76 10.12, 40.93 11.55, 39 12 M39 12 C24.99 13.57, 12.91 10.5, 3 12 M39 12 C30.44 12.32, 20.3 12.21, 3 12 M3 12 C0.61 11.82, -1.92 12.58, 0 9 M3 12 C1.94 11.18, -0.22 12.98, 0 9 M0 9 C0.04 7.77, -0.24 7.07, 0 3 M0 9 C0.02 6.71, 0.02 4.98, 0 3 M0 3 C-1.53 1.32, 0.02 -0.24, 3 0 M0 3 C1.33 2.54, 1.82 2.07, 3 0" stroke="#000000" stroke-width="1" fill="none"></path></g><g stroke-linecap="round"><g transform="translate(266 120.00000762939453) rotate(0 -29.983954691970723 -27.664214420947246)"><path d="M-0.68 0.81 C-10.92 -8.43, -50.48 -45.2, -60.81 -54.47 M1.16 0.19 C-9.18 -9.46, -50.31 -46.63, -61.13 -56.14" stroke="#000000" stroke-width="1" fill="none"></path></g><g transform="translate(266 120.00000762939453) rotate(0 -29.983954691970723 -27.664214420947246)"><path d="M-31.92 -43.03 C-41.68 -50.13, -51.95 -51.96, -61.43 -56.14 M-34.14 -45.52 C-39.31 -47.56, -46.86 -49.41, -61.44 -56.39" stroke="#000000" stroke-width="1" fill="none"></path></g><g transform="translate(266 120.00000762939453) rotate(0 -29.983954691970723 -27.664214420947246)"><path d="M-45.59 -27.72 C-50.68 -40.1, -56.18 -47.29, -61.43 -56.14 M-47.81 -30.22 C-49.61 -35.89, -53.92 -41.36, -61.44 -56.39" stroke="#000000" stroke-width="1" fill="none"></path></g></g><mask></mask><g stroke-linecap="round"><g transform="translate(156.66668701171875 61.333351135253906) rotate(0 -25.39825896081578 28.6653271459043)"><path d="M-0.39 -0.8 C-9.11 8.82, -42.9 48.52, -51.42 58.13 M1.61 1.39 C-7.36 10.64, -43.42 47.01, -52.4 56.43" stroke="#000000" stroke-width="1" fill="none"></path></g><g transform="translate(156.66668701171875 61.333351135253906) rotate(0 -25.39825896081578 28.6653271459043)"><path d="M-41.42 28.96 C-43.29 39.12, -50.05 50.5, -53.23 54.58 M-39.8 29.06 C-43.12 35.22, -44.77 40.62, -51.71 57.36" stroke="#000000" stroke-width="1" fill="none"></path></g><g transform="translate(156.66668701171875 61.333351135253906) rotate(0 -25.39825896081578 28.6653271459043)"><path d="M-26.72 43.28 C-34.18 48, -46.47 53.98, -53.23 54.58 M-25.11 43.39 C-31.53 46.63, -36.29 49.01, -51.71 57.36" stroke="#000000" stroke-width="1" fill="none"></path></g></g><mask></mask><g transform="translate(10 123.33332061767578) rotate(0 101.4307632446289 8.097764073907513)"><text x="0" y="0" font-family="Virgil, Segoe UI Emoji" font-size="12.956422518252026px" fill="#d9480f" text-anchor="start" style="white-space: pre;" direction="ltr" dominant-baseline="text-before-edge">The offset in linear memory: 24</text></g><g transform="translate(254.66668701171875 120.66669464111328) rotate(0 11.239990234375 70)"><text x="0" y="0" font-family="Virgil, Segoe UI Emoji" font-size="16px" fill="#000000" text-anchor="start" style="white-space: pre;" direction="ltr" dominant-baseline="text-before-edge">0</text><text x="0" y="20" font-family="Virgil, Segoe UI Emoji" font-size="16px" fill="#000000" text-anchor="start" style="white-space: pre;" direction="ltr" dominant-baseline="text-before-edge">8</text><text x="0" y="40" font-family="Virgil, Segoe UI Emoji" font-size="16px" fill="#000000" text-anchor="start" style="white-space: pre;" direction="ltr" dominant-baseline="text-before-edge">16</text><text x="0" y="60" font-family="Virgil, Segoe UI Emoji" font-size="16px" fill="#000000" text-anchor="start" style="white-space: pre;" direction="ltr" dominant-baseline="text-before-edge">24</text><text x="0" y="80" font-family="Virgil, Segoe UI Emoji" font-size="16px" fill="#000000" text-anchor="start" style="white-space: pre;" direction="ltr" dominant-baseline="text-before-edge">32</text><text x="0" y="100" font-family="Virgil, Segoe UI Emoji" font-size="16px" fill="#000000" text-anchor="start" style="white-space: pre;" direction="ltr" dominant-baseline="text-before-edge">40</text><text x="0" y="120" font-family="Virgil, Segoe UI Emoji" font-size="16px" fill="#000000" text-anchor="start" style="white-space: pre;" direction="ltr" dominant-baseline="text-before-edge">48</text></g><g stroke-linecap="round"><g transform="translate(108 146.00003814697266) rotate(0 72.26060614809393 23.09461347692647)"><path d="M-0.32 0.99 C23.92 8.25, 120.95 37.18, 144.84 44.58 M1.71 0.47 C25.93 8.39, 120.39 38, 144.34 45.72" stroke="#000000" stroke-width="1" fill="none"></path></g><g transform="translate(108 146.00003814697266) rotate(0 72.26060614809393 23.09461347692647)"><path d="M116.02 48.38 C120.5 45.11, 129.29 44.81, 142.46 47.49 M114.83 46 C120.65 46.9, 127.18 47.34, 144.36 45.7" stroke="#000000" stroke-width="1" fill="none"></path></g><g transform="translate(108 146.00003814697266) rotate(0 72.26060614809393 23.09461347692647)"><path d="M122.23 28.82 C125.34 30.37, 132.6 34.89, 142.46 47.49 M121.04 26.44 C125.46 31.47, 130.67 36.06, 144.36 45.7" stroke="#000000" stroke-width="1" fill="none"></path></g></g><mask></mask></svg>