<svg version="1.1" xmlns="http://www.w3.org/2000/svg" viewBox="0 0 496.8319396972656 481" width="496.8319396972656" height="481">
  <!-- svg-source:excalidraw -->
  
  <defs>
    <style class="style-fonts">
      @font-face {
        font-family: "Virgil";
        src: url("https://file%2B.vscode-resource.vscode-cdn.net/c%3A/Users/jiongqia/.vscode/extensions/pomdtr.excalidraw-editor-3.5.1/public//dist/excalidraw-assets/Virgil.woff2");
      }
      @font-face {
        font-family: "Cascadia";
        src: url("https://file%2B.vscode-resource.vscode-cdn.net/c%3A/Users/jiongqia/.vscode/extensions/pomdtr.excalidraw-editor-3.5.1/public//dist/excalidraw-assets/Cascadia.woff2");
      }
    </style>
  </defs>
  <rect x="0" y="0" width="496.8319396972656" height="481" fill="#ffffff"></rect><g stroke-linecap="round" transform="translate(10 178) rotate(0 203.5 91)"><path d="M7.86 8.16 C7.86 8.16, 7.86 8.16, 7.86 8.16 M7.86 8.16 C7.86 8.16, 7.86 8.16, 7.86 8.16 M3.66 19.09 C7.24 15.23, 13.33 7.67, 18.1 2.48 M3.66 19.09 C8.1 14.19, 14.05 8.33, 18.1 2.48 M2.75 26.24 C8.78 20.24, 15.91 12.23, 24.4 1.33 M2.75 26.24 C11.82 16.56, 18.98 6.63, 24.4 1.33 M2.48 32.64 C11.79 23.78, 21.69 14.59, 30.7 0.18 M2.48 32.64 C12.14 21.91, 21.13 9.07, 30.7 0.18 M2.88 38.28 C11.41 30.88, 16.51 25.37, 34.37 2.05 M2.88 38.28 C11 28.3, 20.72 18.53, 34.37 2.05 M2.62 44.68 C16.58 31.17, 27.58 18.09, 39.36 2.41 M2.62 44.68 C12.64 34.26, 22.14 23.35, 39.36 2.41 M2.36 51.07 C18.79 33.34, 35.51 10.9, 45 2.02 M2.36 51.07 C12.4 39.07, 20.51 29.67, 45 2.02 M2.75 56.72 C13.7 47.17, 23.1 34.2, 49.99 2.38 M2.75 56.72 C16.23 40.87, 31.4 24.88, 49.99 2.38 M2.49 63.11 C24.06 40.93, 41.8 18.24, 55.63 1.98 M2.49 63.11 C17.59 45.64, 32.57 29.15, 55.63 1.98 M2.88 68.76 C20.22 47.05, 39.57 26.38, 60.62 2.34 M2.88 68.76 C24.38 44.68, 44.52 22.47, 60.62 2.34 M2.62 75.16 C27.37 49.41, 50.18 20.49, 66.26 1.95 M2.62 75.16 C16.52 59.92, 29.46 45.28, 66.26 1.95 M2.36 81.55 C23.9 60.65, 41.06 36.5, 71.25 2.31 M2.36 81.55 C27.6 52.27, 54.68 21.64, 71.25 2.31 M2.76 87.2 C18.9 66.96, 35.32 48.21, 76.89 1.91 M2.76 87.2 C21.63 64.54, 40.95 42.48, 76.89 1.91 M2.49 93.59 C27.69 66.58, 53.48 35.45, 81.88 2.27 M2.49 93.59 C32.69 60.78, 60.49 27.32, 81.88 2.27 M2.89 99.24 C28.66 71.19, 53.23 38.37, 87.52 1.88 M2.89 99.24 C25.44 74.37, 48.23 48.1, 87.52 1.88 M2.63 105.64 C20.76 82.15, 40.91 61.27, 92.51 2.24 M2.63 105.64 C24.39 81.19, 47.05 56.82, 92.51 2.24 M2.37 112.03 C37.71 69.76, 74.82 28.34, 98.15 1.85 M2.37 112.03 C30.58 80.07, 57.93 47.26, 98.15 1.85 M2.76 117.68 C28.5 90.78, 49.86 62.27, 103.14 2.21 M2.76 117.68 C35.15 79.78, 68.6 41.63, 103.14 2.21 M2.5 124.07 C34.35 86.01, 63.81 53.5, 108.78 1.81 M2.5 124.07 C44.03 74.76, 86.03 26.56, 108.78 1.81 M2.89 129.72 C26.94 101.85, 48.08 75.93, 113.77 2.17 M2.89 129.72 C33.14 96.76, 62.66 62.86, 113.77 2.17 M2.63 136.11 C42.3 87.39, 83.21 43.05, 119.41 1.78 M2.63 136.11 C38.48 98.33, 71.45 59.65, 119.41 1.78 M2.37 142.51 C45.66 89.49, 93.8 36.33, 124.4 2.14 M2.37 142.51 C41.23 95.97, 81.23 50.47, 124.4 2.14 M2.77 148.16 C41.71 101.14, 82.29 55.83, 130.04 1.74 M2.77 148.16 C35.28 111.18, 67.4 73.98, 130.04 1.74 M2.5 154.55 C53.02 97.25, 102.87 39.33, 135.03 2.1 M2.5 154.55 C39.23 111.32, 77.43 66.39, 135.03 2.1 M2.9 160.2 C57.26 98.15, 111.19 35.01, 140.67 1.71 M2.9 160.2 C38.21 120.49, 73.07 81.25, 140.67 1.71 M4.61 164.33 C44.96 116.16, 89.08 69.63, 145.66 2.07 M4.61 164.33 C52.37 109.01, 99.75 53.11, 145.66 2.07 M5 169.97 C48.05 120.8, 92.93 70.09, 150.65 2.43 M5 169.97 C61.84 103.97, 119.66 37.61, 150.65 2.43 M8.02 172.6 C61.88 109.16, 117.12 44.08, 156.29 2.03 M8.02 172.6 C38.7 136.64, 69.9 101.58, 156.29 2.03 M10.38 175.98 C58.26 121.01, 103.67 68.46, 161.28 2.39 M10.38 175.98 C51.03 131.48, 90.86 86.14, 161.28 2.39 M13.4 178.6 C60.98 122.67, 109.47 65.35, 166.92 2 M13.4 178.6 C46.77 139.18, 79.98 100.41, 166.92 2 M17.08 180.47 C58.07 133.08, 98.17 84.86, 171.91 2.36 M17.08 180.47 C51.38 141.92, 85.44 102.61, 171.91 2.36 M20.75 182.34 C82.08 114.57, 140.09 48.83, 177.55 1.96 M20.75 182.34 C54.13 142.17, 88.6 101.92, 177.55 1.96 M25.74 182.7 C89.03 110.89, 150.14 40.23, 182.54 2.32 M25.74 182.7 C71.17 132.93, 113.93 82.95, 182.54 2.32 M30.07 183.81 C73.15 132.69, 116.04 84.23, 188.18 1.93 M30.07 183.81 C73.67 132.89, 117.79 82.14, 188.18 1.93 M35.06 184.17 C68.41 146.24, 99.26 109.19, 193.17 2.29 M35.06 184.17 C71.03 143.95, 106.89 102.74, 193.17 2.29 M40.04 184.53 C85.53 135.61, 129.39 83.94, 198.81 1.9 M40.04 184.53 C101.58 116.07, 161.49 46.21, 198.81 1.9 M45.69 184.14 C89.06 135.12, 129.24 85.24, 203.8 2.26 M45.69 184.14 C96.43 126.51, 146.93 66.54, 203.8 2.26 M50.67 184.5 C102.35 127.32, 154.09 67.09, 209.44 1.86 M50.67 184.5 C99.98 125.7, 151.3 67.89, 209.44 1.86 M56.32 184.11 C90.5 145.96, 121.32 107.68, 214.43 2.22 M56.32 184.11 C117.32 113.84, 178.06 43.85, 214.43 2.22 M61.3 184.47 C109.53 128.44, 157.67 72.99, 220.07 1.83 M61.3 184.47 C96.63 143.81, 133.03 102.82, 220.07 1.83 M66.29 184.83 C115.69 129.43, 160.18 77.09, 225.06 2.19 M66.29 184.83 C114.65 129.58, 161.97 74.64, 225.06 2.19 M71.93 184.43 C132.6 117.77, 188.83 51.48, 230.7 1.79 M71.93 184.43 C106.23 144.84, 139.89 104.84, 230.7 1.79 M76.92 184.79 C122.37 130.03, 170.99 77.22, 235.69 2.15 M76.92 184.79 C128.68 124.99, 181.74 64.15, 235.69 2.15 M82.56 184.4 C114.36 144.46, 150.84 105.95, 241.33 1.76 M82.56 184.4 C139.28 119.6, 197.32 54.72, 241.33 1.76 M87.55 184.76 C145.42 116.69, 202.09 50.49, 246.32 2.12 M87.55 184.76 C148.54 114.28, 211.87 40.87, 246.32 2.12 M93.19 184.36 C128.71 145.98, 160.05 107.18, 251.96 1.72 M93.19 184.36 C141.97 127.26, 191.94 70.26, 251.96 1.72 M98.18 184.72 C160.82 113.09, 223.82 43.45, 256.95 2.08 M98.18 184.72 C160.44 114.23, 221.36 44.15, 256.95 2.08 M103.82 184.33 C148.04 136.12, 191.86 85.47, 262.59 1.69 M103.82 184.33 C145.21 135.72, 188.44 87.27, 262.59 1.69 M108.81 184.69 C151 135.27, 191.78 89.4, 267.58 2.05 M108.81 184.69 C150 136.78, 190.58 90.05, 267.58 2.05 M114.45 184.29 C177 112.98, 237.08 44.38, 272.56 2.41 M114.45 184.29 C150.22 142.25, 187.22 99.92, 272.56 2.41 M119.44 184.65 C179.3 114.46, 237.17 46.6, 278.21 2.01 M119.44 184.65 C170.49 123.13, 223.72 62.23, 278.21 2.01 M125.08 184.26 C170.37 134.69, 216.51 83.29, 283.19 2.37 M125.08 184.26 C177.08 127.13, 226.14 68.95, 283.19 2.37 M130.07 184.62 C183.68 122.97, 234.3 61.56, 288.84 1.98 M130.07 184.62 C164.98 147.21, 198.06 108, 288.84 1.98 M135.71 184.22 C190.66 121.04, 249.57 56.71, 293.82 2.34 M135.71 184.22 C177.71 135.94, 220.1 86, 293.82 2.34 M140.7 184.58 C180.86 139.06, 217.65 93.16, 299.47 1.94 M140.7 184.58 C179.8 138.86, 218.81 92.52, 299.47 1.94 M146.34 184.19 C202.77 117.21, 260.96 53.69, 304.45 2.3 M146.34 184.19 C199.87 122.93, 254.74 60.87, 304.45 2.3 M151.33 184.55 C189.5 141.88, 225.72 102.24, 310.1 1.91 M151.33 184.55 C193.33 136.59, 234.91 87.36, 310.1 1.91 M156.97 184.16 C206.7 127.36, 255.32 67.85, 315.08 2.27 M156.97 184.16 C187.68 146.07, 221.13 108.52, 315.08 2.27 M161.96 184.52 C211.15 128.19, 259.47 69.95, 320.73 1.88 M161.96 184.52 C204.64 134.55, 247.11 86.31, 320.73 1.88 M167.6 184.12 C225.43 115.13, 286.1 49.37, 325.71 2.24 M167.6 184.12 C206.19 140.41, 245.95 94.26, 325.71 2.24 M172.59 184.48 C223.93 120.84, 279.98 61.08, 331.36 1.84 M172.59 184.48 C219.97 129.58, 268.6 73.99, 331.36 1.84 M178.23 184.09 C237.84 116.94, 296.05 52.7, 336.34 2.2 M178.23 184.09 C222.83 132.26, 267.32 82.76, 336.34 2.2 M183.22 184.45 C217.86 141.6, 254.99 102.2, 341.99 1.81 M183.22 184.45 C215.17 146.58, 248.12 110.94, 341.99 1.81 M188.21 184.81 C232.35 133.26, 276.76 83.22, 346.97 2.17 M188.21 184.81 C222.92 142.6, 257.85 102.32, 346.97 2.17 M193.85 184.41 C248.11 122.24, 306.19 57.88, 352.62 1.77 M193.85 184.41 C238.13 136.13, 280.19 86.94, 352.62 1.77 M198.84 184.77 C255.98 121.12, 309.51 59.04, 357.6 2.13 M198.84 184.77 C233.18 145.27, 268.4 105.5, 357.6 2.13 M204.48 184.38 C261.14 118.94, 314.22 55.99, 363.25 1.74 M204.48 184.38 C262.17 119.94, 317.34 55.56, 363.25 1.74 M209.47 184.74 C269.64 116.68, 330.79 46.52, 368.23 2.1 M209.47 184.74 C262.63 125.21, 312.44 65.82, 368.23 2.1 M215.11 184.34 C262.29 128.58, 311.2 69.4, 375.19 0.19 M215.11 184.34 C279.08 110.68, 341.28 38.97, 375.19 0.19 M220.1 184.7 C257.19 143.2, 293.49 100.99, 380.18 0.55 M220.1 184.7 C254.48 143.67, 289.84 103.38, 380.18 0.55 M225.74 184.31 C286.59 112.96, 348.68 43.74, 384.51 1.67 M225.74 184.31 C270.81 132.65, 314.54 81.4, 384.51 1.67 M230.73 184.67 C281.79 128.97, 327.97 71.47, 389.49 2.03 M230.73 184.67 C275.87 131.86, 320.15 80.59, 389.49 2.03 M236.37 184.27 C293.22 119.42, 349.02 56.15, 392.51 4.65 M236.37 184.27 C294.85 115.33, 354.4 46.6, 392.51 4.65 M241.36 184.63 C286.21 132.91, 331.18 81.58, 396.19 6.52 M241.36 184.63 C294.31 121.83, 347.21 60.57, 396.19 6.52 M247 184.24 C297.09 125.62, 346.89 70.03, 399.86 8.39 M247 184.24 C280.56 144.22, 316.31 104.5, 399.86 8.39 M251.99 184.6 C282.68 150.36, 312.13 113.31, 402.23 11.77 M251.99 184.6 C299.3 129.28, 348.39 72.18, 402.23 11.77 M257.63 184.21 C313.46 118.25, 370.92 50.85, 405.24 14.4 M257.63 184.21 C290.65 147.59, 322.05 111.1, 405.24 14.4 M262.62 184.57 C313.63 129.3, 360.39 72.19, 406.3 19.28 M262.62 184.57 C313.04 124.31, 365.45 65.66, 406.3 19.28 M268.26 184.17 C317.92 130.58, 367.06 73.91, 406.69 24.93 M268.26 184.17 C312.19 133.23, 356.4 83.9, 406.69 24.93 M273.25 184.53 C319.7 129.3, 369.09 74.69, 407.08 30.57 M273.25 184.53 C316.97 135.65, 360.14 86.81, 407.08 30.57 M278.89 184.14 C306.07 153.98, 334.09 120.62, 406.82 36.97 M278.89 184.14 C323.43 133.8, 368.09 81.06, 406.82 36.97 M283.88 184.5 C324.05 137.69, 364.19 93.45, 407.22 42.61 M283.88 184.5 C318.07 145.49, 350.9 107.22, 407.22 42.61 M289.52 184.1 C323.6 141.31, 360.56 103.96, 406.96 49.01 M289.52 184.1 C327.13 139.83, 366.79 96.61, 406.96 49.01 M294.51 184.46 C333.67 139.28, 371.89 97.08, 406.69 55.41 M294.51 184.46 C319.77 155.72, 344.65 124.68, 406.69 55.41 M299.5 184.82 C337.21 144.57, 372.49 99.27, 407.09 61.05 M299.5 184.82 C333.07 145.68, 366.43 108.95, 407.09 61.05 M305.14 184.43 C335.53 150.25, 368.34 115.33, 406.83 67.45 M305.14 184.43 C344.46 138.74, 385.52 94.01, 406.83 67.45 M310.13 184.79 C346.1 143.59, 381.73 98.28, 407.22 73.09 M310.13 184.79 C342.38 148.84, 373.12 111.56, 407.22 73.09 M315.77 184.39 C344.12 152.42, 371.06 123.03, 406.96 79.49 M315.77 184.39 C342 154.94, 368.79 123.02, 406.96 79.49 M320.76 184.75 C342.1 159.86, 364.25 133.56, 407.36 85.13 M320.76 184.75 C345.42 156.06, 369.37 125.85, 407.36 85.13 M326.4 184.36 C345.5 161.73, 367.61 136.79, 407.09 91.53 M326.4 184.36 C350.02 157.13, 372.85 131.66, 407.09 91.53 M331.39 184.72 C354.83 160.04, 375.66 130.26, 406.83 97.93 M331.39 184.72 C351.06 160.82, 370.2 137.51, 406.83 97.93 M337.03 184.32 C355.88 161.63, 374.5 139.84, 407.23 103.57 M337.03 184.32 C351.26 165.43, 368.23 147.47, 407.23 103.57 M342.02 184.68 C363.03 161.85, 380.64 140.59, 406.97 109.97 M342.02 184.68 C367.23 154.76, 393.15 126.61, 406.97 109.97 M347.66 184.29 C367.11 162.01, 384.53 143.13, 407.36 115.61 M347.66 184.29 C369.89 157.66, 395.02 131.01, 407.36 115.61 M352.65 184.65 C369.95 166.56, 387.88 144.87, 407.1 122.01 M352.65 184.65 C371.08 163.69, 390.68 140.17, 407.1 122.01 M358.29 184.25 C371.7 168.53, 384.11 156.36, 407.49 127.65 M358.29 184.25 C378.76 161.75, 397.99 139.67, 407.49 127.65 M363.28 184.61 C370.83 173.95, 383.92 161.7, 407.23 134.05 M363.28 184.61 C377.6 168.05, 393.8 150.14, 407.23 134.05 M368.92 184.22 C378.7 171, 390.85 160.7, 406.97 140.45 M368.92 184.22 C378.99 173.07, 388.6 163.04, 406.97 140.45 M375.87 182.32 C387.85 167.76, 400.76 155.89, 407.37 146.09 M375.87 182.32 C383.88 172.68, 393.62 161.22, 407.37 146.09 M381.52 181.92 C388.11 171.35, 396.8 164, 408.42 150.98 M381.52 181.92 C389.02 172.46, 395.6 164.83, 408.42 150.98 M387.82 180.77 C393.17 174.98, 396.81 172.61, 407.5 158.13 M387.82 180.77 C394.87 170.92, 402.36 163.85, 407.5 158.13" stroke="#228be6" stroke-width="0.5" fill="none"></path><path d="M32 0 M32 0 C150.92 -1.2, 267.77 -1.81, 375 0 M32 0 C113.15 -0.57, 194.74 -1.38, 375 0 M375 0 C394.41 0.91, 405.97 10.49, 407 32 M375 0 C395.76 -0.54, 407.47 8.77, 407 32 M407 32 C407.21 69.87, 409.26 108.35, 407 150 M407 32 C406.28 58.85, 407.44 88.01, 407 150 M407 150 C405.68 172.65, 394.41 181.27, 375 182 M407 150 C408.68 171.98, 395.36 181.3, 375 182 M375 182 C269.81 182.25, 164.14 181.07, 32 182 M375 182 C299.13 183.46, 223.34 182.5, 32 182 M32 182 C10.9 183.15, -0.93 170.13, 0 150 M32 182 C11.63 180.72, 1.91 169.35, 0 150 M0 150 C2.34 123.07, 1.47 93.87, 0 32 M0 150 C1.62 125.33, 1.06 102.45, 0 32 M0 32 C-0.12 12, 10.85 1.95, 32 0 M0 32 C1.23 12.47, 9.09 0.62, 32 0" stroke="#000000" stroke-width="1" fill="none"></path></g><g transform="translate(152.6000518798828 183) rotate(0 60.89994812011719 12.5)"><text x="60.89994812011719" y="0" font-family="Virgil, Segoe UI Emoji" font-size="20px" fill="#000000" text-anchor="middle" style="white-space: pre;" direction="ltr" dominant-baseline="text-before-edge">Native world</text></g><g stroke-linecap="round" transform="translate(112 224) rotate(0 146 61.5)"><path d="M4.47 11.84 C4.47 11.84, 4.47 11.84, 4.47 11.84 M4.47 11.84 C4.47 11.84, 4.47 11.84, 4.47 11.84 M0.93 22.01 C5.75 14.93, 14.85 6.17, 17.99 2.39 M0.93 22.01 C4.5 16.9, 9.72 12.47, 17.99 2.39 M3.3 25.39 C10.8 15.49, 16.98 7.8, 24.29 1.24 M3.3 25.39 C10.13 17.03, 17.37 10.26, 24.29 1.24 M3.03 31.79 C14.95 19.19, 23.75 8.22, 29.93 0.84 M3.03 31.79 C10.17 23.5, 18.2 13.96, 29.93 0.84 M2.77 38.19 C10.4 31.3, 19 19.7, 33.61 2.71 M2.77 38.19 C14.01 25.4, 24.28 14.03, 33.61 2.71 M3.17 43.83 C14.57 31.89, 23.8 17.02, 39.25 2.32 M3.17 43.83 C17.35 27.84, 30.04 12.13, 39.25 2.32 M2.91 50.23 C15.55 37.12, 25.68 21.76, 44.24 2.68 M2.91 50.23 C12.48 38.67, 23.77 26.78, 44.24 2.68 M3.3 55.87 C20.16 36.5, 34.1 18.07, 49.88 2.28 M3.3 55.87 C18.82 39.45, 35.14 21.02, 49.88 2.28 M3.04 62.27 C22.16 38.83, 39.95 19.86, 54.87 2.64 M3.04 62.27 C16.83 45.39, 30.25 29.36, 54.87 2.64 M2.78 68.66 C19.4 47.11, 36.49 27.29, 60.51 2.25 M2.78 68.66 C20.18 48.25, 38.38 27.13, 60.51 2.25 M3.17 74.31 C17.92 57.2, 33.26 39.61, 65.5 2.61 M3.17 74.31 C18.15 56.37, 33.71 39.29, 65.5 2.61 M2.91 80.71 C16.19 63.21, 33.31 44.36, 71.14 2.22 M2.91 80.71 C26.58 54.54, 49.9 28.12, 71.14 2.22 M3.3 86.35 C28.79 54.72, 54.41 27.86, 76.13 2.58 M3.3 86.35 C25.25 60.72, 47.83 34.15, 76.13 2.58 M3.04 92.75 C29.32 61.13, 56.97 32.15, 81.11 2.94 M3.04 92.75 C18.65 73.96, 34.31 56.53, 81.11 2.94 M1.47 100.65 C18.91 77.92, 37.31 56.92, 86.76 2.54 M1.47 100.65 C20.01 80.1, 37.54 59.8, 86.76 2.54 M3.18 104.79 C35.08 68.53, 66.86 29.08, 91.74 2.9 M3.18 104.79 C33.36 70.17, 64.81 35.31, 91.74 2.9 M4.88 108.92 C39.76 69.99, 71.54 32.51, 97.39 2.51 M4.88 108.92 C26.04 86.07, 45.24 62.97, 97.39 2.51 M6.59 113.05 C40.37 74.96, 74.01 35.05, 102.37 2.87 M6.59 113.05 C41.64 73.93, 76.2 34.8, 102.37 2.87 M8.95 116.43 C32.79 91.04, 56.5 62.44, 108.02 2.47 M8.95 116.43 C47.46 72.19, 84.68 28.71, 108.02 2.47 M12.63 118.3 C34.01 96.15, 53.2 71.73, 113 2.83 M12.63 118.3 C43.66 84.84, 74.57 48.89, 113 2.83 M15.65 120.93 C54.41 78.97, 88.07 37.23, 118.65 2.44 M15.65 120.93 C45.03 86.22, 74.29 52.12, 118.65 2.44 M19.32 122.8 C46.45 92.72, 73.81 59.01, 123.63 2.8 M19.32 122.8 C60.59 75.63, 102.67 27.98, 123.63 2.8 M24.31 123.16 C53.26 91.18, 84.38 57.63, 129.28 2.4 M24.31 123.16 C55.56 86.45, 89.08 48.25, 129.28 2.4 M28.64 124.27 C57.38 95.32, 83.21 62.16, 134.26 2.76 M28.64 124.27 C60.75 87.04, 94.39 49.03, 134.26 2.76 M32.97 125.39 C55.15 98.4, 82.08 70.99, 139.91 2.37 M32.97 125.39 C69.47 81.26, 106.16 39, 139.91 2.37 M38.61 124.99 C72.14 86.53, 107.44 43.72, 144.89 2.73 M38.61 124.99 C66.68 92.18, 95.17 59.2, 144.89 2.73 M43.6 125.35 C76.07 85.54, 110.58 45.56, 150.54 2.33 M43.6 125.35 C75.61 89.97, 106.23 56.21, 150.54 2.33 M49.24 124.96 C78.34 93.85, 106.2 57.05, 155.52 2.69 M49.24 124.96 C88.3 80.46, 127.32 34.66, 155.52 2.69 M54.23 125.32 C84.94 89.59, 119.02 48.88, 161.17 2.3 M54.23 125.32 C91.53 83.96, 127.44 41.92, 161.17 2.3 M59.87 124.92 C89.26 91.52, 115.06 62.21, 166.16 2.66 M59.87 124.92 C85.56 93.75, 112.75 63.61, 166.16 2.66 M64.86 125.28 C93.6 91.56, 119.87 63.1, 171.8 2.27 M64.86 125.28 C96.91 87.23, 130.01 51.23, 171.8 2.27 M70.5 124.89 C106.76 85.66, 138.86 44.53, 176.79 2.63 M70.5 124.89 C92.03 96.46, 117.14 70.1, 176.79 2.63 M75.49 125.25 C103.81 98.39, 128.33 67.2, 182.43 2.23 M75.49 125.25 C109.72 85.13, 143.86 46.21, 182.43 2.23 M81.13 124.85 C108.64 92.28, 136.68 60.74, 187.42 2.59 M81.13 124.85 C116.11 84.18, 151.82 42.44, 187.42 2.59 M86.12 125.21 C111.87 95.53, 140.14 66.04, 192.4 2.95 M86.12 125.21 C118.48 86.65, 151.23 49.97, 192.4 2.95 M91.76 124.82 C129.44 81.99, 164.96 38.01, 198.05 2.56 M91.76 124.82 C128.17 85.45, 162.18 45.26, 198.05 2.56 M96.75 125.18 C127.87 89.86, 158.1 52.27, 203.03 2.92 M96.75 125.18 C128.78 88.17, 160.05 52.52, 203.03 2.92 M102.39 124.78 C123.39 100.17, 143.57 72.67, 208.68 2.52 M102.39 124.78 C130.31 91.01, 157.89 59.11, 208.68 2.52 M107.38 125.15 C141.72 85.42, 178.6 47.36, 213.66 2.88 M107.38 125.15 C142.64 85.35, 179.36 42.45, 213.66 2.88 M113.02 124.75 C149.73 84.55, 184.59 40.36, 219.31 2.49 M113.02 124.75 C142.89 92.01, 173.52 57.4, 219.31 2.49 M118.01 125.11 C145.43 89.65, 177.1 58.89, 224.29 2.85 M118.01 125.11 C157.84 78.24, 198.9 31.28, 224.29 2.85 M123 125.47 C148.35 100.62, 170.1 71.6, 229.94 2.45 M123 125.47 C152.86 92.83, 181.15 59.68, 229.94 2.45 M128.64 125.08 C149.49 98.43, 170.98 73.55, 234.92 2.81 M128.64 125.08 C168.32 77.84, 209.9 31.98, 234.92 2.81 M133.63 125.44 C173.27 81.71, 212.41 35.66, 240.57 2.42 M133.63 125.44 C173.74 78.57, 214.92 30.73, 240.57 2.42 M139.27 125.04 C163.2 99.22, 185.29 72.51, 245.55 2.78 M139.27 125.04 C164.06 97.49, 186.29 72.69, 245.55 2.78 M144.26 125.4 C177.15 86.78, 211.77 46.6, 251.2 2.38 M144.26 125.4 C180.53 85.69, 214.16 45.89, 251.2 2.38 M149.9 125.01 C179.31 89.99, 206.7 58.6, 256.18 2.74 M149.9 125.01 C186.51 82.02, 224.61 40.18, 256.18 2.74 M154.89 125.37 C178.06 98.43, 196.13 77.15, 262.48 1.59 M154.89 125.37 C184.14 90.89, 213.62 58.01, 262.48 1.59 M160.53 124.97 C183.58 98.96, 206.63 72.03, 267.47 1.95 M160.53 124.97 C200.35 80.39, 238.53 35.66, 267.47 1.95 M165.52 125.33 C207.27 76.16, 246.95 30.01, 272.46 2.32 M165.52 125.33 C203.31 82.61, 239.13 41.13, 272.46 2.32 M171.16 124.94 C212.2 78.34, 252.01 31.78, 276.79 3.43 M171.16 124.94 C200.69 92.51, 226.87 60.28, 276.79 3.43 M176.15 125.3 C202.38 92.67, 231.22 64.89, 279.81 6.05 M176.15 125.3 C209.63 88.83, 243.3 50.4, 279.81 6.05 M181.79 124.9 C211.56 89.71, 244.28 50.37, 283.48 7.92 M181.79 124.9 C215.96 85.57, 249.6 47.58, 283.48 7.92 M186.78 125.26 C207.62 103, 226.56 76.03, 287.16 9.79 M186.78 125.26 C219.77 87.42, 253.83 46.96, 287.16 9.79 M192.42 124.87 C216.99 93.9, 246.16 63.61, 289.52 13.17 M192.42 124.87 C220.03 94.8, 247.14 61.34, 289.52 13.17 M197.41 125.23 C222.59 96.99, 246.23 70.06, 290.57 18.06 M197.41 125.23 C216.09 104.02, 234.03 81.24, 290.57 18.06 M203.05 124.83 C236.09 87.79, 268.73 50.62, 292.28 22.19 M203.05 124.83 C234.13 90.94, 262.4 58.22, 292.28 22.19 M208.04 125.19 C227.05 104.34, 242.61 85.49, 293.98 26.33 M208.04 125.19 C231.26 99.26, 254.12 71.66, 293.98 26.33 M213.68 124.8 C244.19 93.43, 273.31 56.98, 294.38 31.97 M213.68 124.8 C236.98 98.06, 259.84 69.49, 294.38 31.97 M218.67 125.16 C244.23 95.42, 270.77 64.28, 294.12 38.37 M218.67 125.16 C243.27 94.89, 268.83 64.89, 294.12 38.37 M224.31 124.77 C245.71 100.08, 266.36 76.18, 294.51 44.01 M224.31 124.77 C245.24 100.48, 265.32 75.27, 294.51 44.01 M229.3 125.13 C248.62 101.44, 269.41 76.4, 294.25 50.41 M229.3 125.13 C254.71 94.3, 280.51 65.4, 294.25 50.41 M234.29 125.49 C254.58 103.44, 274.83 80, 294.64 56.05 M234.29 125.49 C251.5 104.86, 269.69 85.23, 294.64 56.05 M239.93 125.09 C249.98 109.81, 263.21 95.4, 294.38 62.45 M239.93 125.09 C254.46 108.96, 269.13 91.52, 294.38 62.45 M244.92 125.45 C261.48 106.44, 281.39 82.89, 294.78 68.09 M244.92 125.45 C260.13 107.02, 274.78 89.99, 294.78 68.09 M250.56 125.06 C263.96 109.63, 280.63 94.18, 294.52 74.49 M250.56 125.06 C265.39 108.19, 278.86 92.48, 294.52 74.49 M255.55 125.42 C268.8 110.38, 278.68 99.54, 294.91 80.13 M255.55 125.42 C264.27 116.29, 272.86 107.36, 294.91 80.13 M262.5 123.51 C275.11 108.81, 288.1 95.86, 294.65 86.53 M262.5 123.51 C269.84 114.33, 278.43 105.59, 294.65 86.53 M268.14 123.12 C273.22 115.6, 279.31 108.36, 293.73 93.68 M268.14 123.12 C276.46 112.91, 285.52 101.2, 293.73 93.68 M275.1 121.21 C281.59 115.01, 283.88 110.85, 292.81 100.84 M275.1 121.21 C282.62 112.36, 289.08 106.06, 292.81 100.84" stroke="#15aabf" stroke-width="0.5" fill="none"></path><path d="M30.75 0 M30.75 0 C115.49 0.84, 198.49 1.03, 261.25 0 M30.75 0 C102.91 -0.84, 175.93 -1.58, 261.25 0 M261.25 0 C280.38 0.88, 291.8 8.99, 292 30.75 M261.25 0 C282.38 1.92, 290.62 9.07, 292 30.75 M292 30.75 C292.66 47.69, 293.81 68.4, 292 92.25 M292 30.75 C291.85 49.7, 292.83 68.66, 292 92.25 M292 92.25 C293.84 113.13, 280.18 122.33, 261.25 123 M292 92.25 C290.57 114.73, 282.95 124.81, 261.25 123 M261.25 123 C175.15 122.16, 85.18 123.53, 30.75 123 M261.25 123 C189.86 124.04, 117.89 124.28, 30.75 123 M30.75 123 C11.67 123.39, 1.87 112.29, 0 92.25 M30.75 123 C12.06 124.69, -0.15 114.08, 0 92.25 M0 92.25 C0.1 77.31, -1.08 65.16, 0 30.75 M0 92.25 C0.43 73.07, -0.25 56.48, 0 30.75 M0 30.75 C0.64 10.86, 11.19 -1.71, 30.75 0 M0 30.75 C-1.95 9.31, 10.23 1.54, 30.75 0" stroke="#000000" stroke-width="1" fill="none"></path></g><g transform="translate(200.9900360107422 229) rotate(0 57.00996398925781 12.5)"><text x="57.00996398925781" y="0" font-family="Virgil, Segoe UI Emoji" font-size="20px" fill="#000000" text-anchor="middle" style="white-space: pre;" direction="ltr" dominant-baseline="text-before-edge">WASM world</text></g><g stroke-linecap="round" transform="translate(136 253) rotate(0 17.5 40)"><path d="M2.33 2.02 C2.33 2.02, 2.33 2.02, 2.33 2.02 M2.33 2.02 C2.33 2.02, 2.33 2.02, 2.33 2.02 M0.76 9.93 C2.7 7.27, 5.52 5.11, 9.28 0.12 M0.76 9.93 C2.17 7.89, 4.68 5.28, 9.28 0.12 M1.15 15.57 C5.7 11.34, 10.23 6.91, 14.27 0.48 M1.15 15.57 C5.53 9.24, 9.99 5.41, 14.27 0.48 M0.89 21.97 C6.81 15.81, 13.39 7.06, 19.26 0.84 M0.89 21.97 C6.83 14.3, 13.47 8.08, 19.26 0.84 M1.28 27.62 C6.71 20.98, 10.89 17.36, 24.9 0.45 M1.28 27.62 C6.08 20.91, 11.2 15.1, 24.9 0.45 M1.02 34.01 C7.21 27.34, 12.85 20.58, 29.89 0.81 M1.02 34.01 C11.34 22.44, 21.58 9.21, 29.89 0.81 M1.42 39.66 C11.02 26.86, 23.76 14.83, 32.91 3.43 M1.42 39.66 C13.6 26.19, 24.22 13.52, 32.91 3.43 M1.15 46.05 C10.32 36.98, 16.98 27.3, 35.93 6.05 M1.15 46.05 C13.49 32.31, 25.81 17.54, 35.93 6.05 M1.55 51.7 C13.73 37.82, 26.41 24.48, 35.66 12.45 M1.55 51.7 C9.81 43.21, 17.88 33.27, 35.66 12.45 M1.29 58.1 C14.76 42.1, 27.16 26.52, 36.06 18.1 M1.29 58.1 C8.94 50.63, 15.34 42.09, 36.06 18.1 M1.68 63.74 C12.59 53.68, 23.68 40.11, 35.8 24.49 M1.68 63.74 C14.84 49.76, 25.5 35.98, 35.8 24.49 M1.42 70.14 C10.73 57.16, 20.18 45.4, 36.19 30.14 M1.42 70.14 C10.38 60.34, 19.62 48.58, 36.19 30.14 M1.82 75.78 C13.64 61.88, 28.54 46.24, 35.93 36.53 M1.82 75.78 C11.15 65.55, 21.62 54.63, 35.93 36.53 M4.18 79.16 C12.74 68.58, 24.22 56.12, 36.33 42.18 M4.18 79.16 C13.31 70.73, 21.06 60.09, 36.33 42.18 M7.2 81.78 C15.64 73.21, 26.66 61.9, 36.06 48.58 M7.2 81.78 C12.88 74.76, 20.87 67.35, 36.06 48.58 M12.84 81.39 C20.28 70.48, 27.66 61.9, 36.46 54.22 M12.84 81.39 C19.76 73.26, 27.86 62.84, 36.46 54.22 M17.83 81.75 C23.51 75.97, 28.14 70.2, 36.2 60.62 M17.83 81.75 C22.91 74.74, 28.98 67.61, 36.2 60.62 M23.47 81.35 C28.15 75.85, 31.89 74.49, 36.59 66.26 M23.47 81.35 C27.08 78.26, 30.07 72.44, 36.59 66.26 M30.43 79.45 C32.54 77.51, 34.6 74.31, 36.33 72.66 M30.43 79.45 C31.87 77.78, 33.93 75.07, 36.33 72.66" stroke="#fab005" stroke-width="0.5" fill="none"></path><path d="M8.75 0 M8.75 0 C15.24 -0.28, 21.12 -1.55, 26.25 0 M8.75 0 C13.88 -0.56, 17.49 0.78, 26.25 0 M26.25 0 C31.1 0.63, 36.39 1.73, 35 8.75 M26.25 0 C32.64 -0.18, 36.79 1.89, 35 8.75 M35 8.75 C33.51 21.52, 36.45 35.69, 35 71.25 M35 8.75 C33.74 31.12, 35.54 53.57, 35 71.25 M35 71.25 C36.21 78.3, 33.94 81.84, 26.25 80 M35 71.25 C33.64 78.39, 30.27 82.19, 26.25 80 M26.25 80 C20.74 80.44, 11.25 78.34, 8.75 80 M26.25 80 C23.15 79.68, 19.14 80.21, 8.75 80 M8.75 80 C3.55 80.04, -0.52 76.7, 0 71.25 M8.75 80 C3.69 79.32, 2.04 75.3, 0 71.25 M0 71.25 C1.3 53.78, 1.79 33.25, 0 8.75 M0 71.25 C-0.04 53.09, -0.39 35.12, 0 8.75 M0 8.75 C-0.83 2.49, 4.12 0.26, 8.75 0 M0 8.75 C0.13 2.2, 3.93 -1.16, 8.75 0" stroke="#000000" stroke-width="1" fill="none"></path></g><g stroke-linecap="round" transform="translate(186.5 253) rotate(0 17.5 40)"><path d="M2.33 2.02 C2.33 2.02, 2.33 2.02, 2.33 2.02 M2.33 2.02 C2.33 2.02, 2.33 2.02, 2.33 2.02 M0.76 9.93 C2.7 7.27, 5.52 5.11, 9.28 0.12 M0.76 9.93 C2.17 7.89, 4.68 5.28, 9.28 0.12 M1.15 15.57 C5.7 11.34, 10.23 6.91, 14.27 0.48 M1.15 15.57 C5.53 9.24, 9.99 5.41, 14.27 0.48 M0.89 21.97 C6.81 15.81, 13.39 7.06, 19.26 0.84 M0.89 21.97 C6.83 14.3, 13.47 8.08, 19.26 0.84 M1.28 27.62 C6.71 20.98, 10.89 17.36, 24.9 0.45 M1.28 27.62 C6.08 20.91, 11.2 15.1, 24.9 0.45 M1.02 34.01 C7.21 27.34, 12.85 20.58, 29.89 0.81 M1.02 34.01 C11.34 22.44, 21.58 9.21, 29.89 0.81 M1.42 39.66 C11.02 26.86, 23.76 14.83, 32.91 3.43 M1.42 39.66 C13.6 26.19, 24.22 13.52, 32.91 3.43 M1.15 46.05 C10.32 36.98, 16.98 27.3, 35.93 6.05 M1.15 46.05 C13.49 32.31, 25.81 17.54, 35.93 6.05 M1.55 51.7 C13.73 37.82, 26.41 24.48, 35.66 12.45 M1.55 51.7 C9.81 43.21, 17.88 33.27, 35.66 12.45 M1.29 58.1 C14.76 42.1, 27.16 26.52, 36.06 18.1 M1.29 58.1 C8.94 50.63, 15.34 42.09, 36.06 18.1 M1.68 63.74 C12.59 53.68, 23.68 40.11, 35.8 24.49 M1.68 63.74 C14.84 49.76, 25.5 35.98, 35.8 24.49 M1.42 70.14 C10.73 57.16, 20.18 45.4, 36.19 30.14 M1.42 70.14 C10.38 60.34, 19.62 48.58, 36.19 30.14 M1.82 75.78 C13.64 61.88, 28.54 46.24, 35.93 36.53 M1.82 75.78 C11.15 65.55, 21.62 54.63, 35.93 36.53 M4.18 79.16 C12.74 68.58, 24.22 56.12, 36.33 42.18 M4.18 79.16 C13.31 70.73, 21.06 60.09, 36.33 42.18 M7.2 81.78 C15.64 73.21, 26.66 61.9, 36.06 48.58 M7.2 81.78 C12.88 74.76, 20.87 67.35, 36.06 48.58 M12.84 81.39 C20.28 70.48, 27.66 61.9, 36.46 54.22 M12.84 81.39 C19.76 73.26, 27.86 62.84, 36.46 54.22 M17.83 81.75 C23.51 75.97, 28.14 70.2, 36.2 60.62 M17.83 81.75 C22.91 74.74, 28.98 67.61, 36.2 60.62 M23.47 81.35 C28.15 75.85, 31.89 74.49, 36.59 66.26 M23.47 81.35 C27.08 78.26, 30.07 72.44, 36.59 66.26 M30.43 79.45 C32.54 77.51, 34.6 74.31, 36.33 72.66 M30.43 79.45 C31.87 77.78, 33.93 75.07, 36.33 72.66" stroke="#fab005" stroke-width="0.5" fill="none"></path><path d="M8.75 0 M8.75 0 C15.24 -0.28, 21.12 -1.55, 26.25 0 M8.75 0 C13.88 -0.56, 17.49 0.78, 26.25 0 M26.25 0 C31.1 0.63, 36.39 1.73, 35 8.75 M26.25 0 C32.64 -0.18, 36.79 1.89, 35 8.75 M35 8.75 C33.51 21.52, 36.45 35.69, 35 71.25 M35 8.75 C33.74 31.12, 35.54 53.57, 35 71.25 M35 71.25 C36.21 78.3, 33.94 81.84, 26.25 80 M35 71.25 C33.64 78.39, 30.27 82.19, 26.25 80 M26.25 80 C20.74 80.44, 11.25 78.34, 8.75 80 M26.25 80 C23.15 79.68, 19.14 80.21, 8.75 80 M8.75 80 C3.55 80.04, -0.52 76.7, 0 71.25 M8.75 80 C3.69 79.32, 2.04 75.3, 0 71.25 M0 71.25 C1.3 53.78, 1.79 33.25, 0 8.75 M0 71.25 C-0.04 53.09, -0.39 35.12, 0 8.75 M0 8.75 C-0.83 2.49, 4.12 0.26, 8.75 0 M0 8.75 C0.13 2.2, 3.93 -1.16, 8.75 0" stroke="#000000" stroke-width="1" fill="none"></path></g><g stroke-linecap="round" transform="translate(239.5 254) rotate(0 17.5 40)"><path d="M2.33 2.02 C2.33 2.02, 2.33 2.02, 2.33 2.02 M2.33 2.02 C2.33 2.02, 2.33 2.02, 2.33 2.02 M0.76 9.93 C2.7 7.27, 5.52 5.11, 9.28 0.12 M0.76 9.93 C2.17 7.89, 4.68 5.28, 9.28 0.12 M1.15 15.57 C5.7 11.34, 10.23 6.91, 14.27 0.48 M1.15 15.57 C5.53 9.24, 9.99 5.41, 14.27 0.48 M0.89 21.97 C6.81 15.81, 13.39 7.06, 19.26 0.84 M0.89 21.97 C6.83 14.3, 13.47 8.08, 19.26 0.84 M1.28 27.62 C6.71 20.98, 10.89 17.36, 24.9 0.45 M1.28 27.62 C6.08 20.91, 11.2 15.1, 24.9 0.45 M1.02 34.01 C7.21 27.34, 12.85 20.58, 29.89 0.81 M1.02 34.01 C11.34 22.44, 21.58 9.21, 29.89 0.81 M1.42 39.66 C11.02 26.86, 23.76 14.83, 32.91 3.43 M1.42 39.66 C13.6 26.19, 24.22 13.52, 32.91 3.43 M1.15 46.05 C10.32 36.98, 16.98 27.3, 35.93 6.05 M1.15 46.05 C13.49 32.31, 25.81 17.54, 35.93 6.05 M1.55 51.7 C13.73 37.82, 26.41 24.48, 35.66 12.45 M1.55 51.7 C9.81 43.21, 17.88 33.27, 35.66 12.45 M1.29 58.1 C14.76 42.1, 27.16 26.52, 36.06 18.1 M1.29 58.1 C8.94 50.63, 15.34 42.09, 36.06 18.1 M1.68 63.74 C12.59 53.68, 23.68 40.11, 35.8 24.49 M1.68 63.74 C14.84 49.76, 25.5 35.98, 35.8 24.49 M1.42 70.14 C10.73 57.16, 20.18 45.4, 36.19 30.14 M1.42 70.14 C10.38 60.34, 19.62 48.58, 36.19 30.14 M1.82 75.78 C13.64 61.88, 28.54 46.24, 35.93 36.53 M1.82 75.78 C11.15 65.55, 21.62 54.63, 35.93 36.53 M4.18 79.16 C12.74 68.58, 24.22 56.12, 36.33 42.18 M4.18 79.16 C13.31 70.73, 21.06 60.09, 36.33 42.18 M7.2 81.78 C15.64 73.21, 26.66 61.9, 36.06 48.58 M7.2 81.78 C12.88 74.76, 20.87 67.35, 36.06 48.58 M12.84 81.39 C20.28 70.48, 27.66 61.9, 36.46 54.22 M12.84 81.39 C19.76 73.26, 27.86 62.84, 36.46 54.22 M17.83 81.75 C23.51 75.97, 28.14 70.2, 36.2 60.62 M17.83 81.75 C22.91 74.74, 28.98 67.61, 36.2 60.62 M23.47 81.35 C28.15 75.85, 31.89 74.49, 36.59 66.26 M23.47 81.35 C27.08 78.26, 30.07 72.44, 36.59 66.26 M30.43 79.45 C32.54 77.51, 34.6 74.31, 36.33 72.66 M30.43 79.45 C31.87 77.78, 33.93 75.07, 36.33 72.66" stroke="#fab005" stroke-width="0.5" fill="none"></path><path d="M8.75 0 M8.75 0 C15.24 -0.28, 21.12 -1.55, 26.25 0 M8.75 0 C13.88 -0.56, 17.49 0.78, 26.25 0 M26.25 0 C31.1 0.63, 36.39 1.73, 35 8.75 M26.25 0 C32.64 -0.18, 36.79 1.89, 35 8.75 M35 8.75 C33.51 21.52, 36.45 35.69, 35 71.25 M35 8.75 C33.74 31.12, 35.54 53.57, 35 71.25 M35 71.25 C36.21 78.3, 33.94 81.84, 26.25 80 M35 71.25 C33.64 78.39, 30.27 82.19, 26.25 80 M26.25 80 C20.74 80.44, 11.25 78.34, 8.75 80 M26.25 80 C23.15 79.68, 19.14 80.21, 8.75 80 M8.75 80 C3.55 80.04, -0.52 76.7, 0 71.25 M8.75 80 C3.69 79.32, 2.04 75.3, 0 71.25 M0 71.25 C1.3 53.78, 1.79 33.25, 0 8.75 M0 71.25 C-0.04 53.09, -0.39 35.12, 0 8.75 M0 8.75 C-0.83 2.49, 4.12 0.26, 8.75 0 M0 8.75 C0.13 2.2, 3.93 -1.16, 8.75 0" stroke="#000000" stroke-width="1" fill="none"></path></g><g stroke-linecap="round" transform="translate(294.5 254) rotate(0 17.5 40)"><path d="M2.33 2.02 C2.33 2.02, 2.33 2.02, 2.33 2.02 M2.33 2.02 C2.33 2.02, 2.33 2.02, 2.33 2.02 M0.76 9.93 C2.7 7.27, 5.52 5.11, 9.28 0.12 M0.76 9.93 C2.17 7.89, 4.68 5.28, 9.28 0.12 M1.15 15.57 C5.7 11.34, 10.23 6.91, 14.27 0.48 M1.15 15.57 C5.53 9.24, 9.99 5.41, 14.27 0.48 M0.89 21.97 C6.81 15.81, 13.39 7.06, 19.26 0.84 M0.89 21.97 C6.83 14.3, 13.47 8.08, 19.26 0.84 M1.28 27.62 C6.71 20.98, 10.89 17.36, 24.9 0.45 M1.28 27.62 C6.08 20.91, 11.2 15.1, 24.9 0.45 M1.02 34.01 C7.21 27.34, 12.85 20.58, 29.89 0.81 M1.02 34.01 C11.34 22.44, 21.58 9.21, 29.89 0.81 M1.42 39.66 C11.02 26.86, 23.76 14.83, 32.91 3.43 M1.42 39.66 C13.6 26.19, 24.22 13.52, 32.91 3.43 M1.15 46.05 C10.32 36.98, 16.98 27.3, 35.93 6.05 M1.15 46.05 C13.49 32.31, 25.81 17.54, 35.93 6.05 M1.55 51.7 C13.73 37.82, 26.41 24.48, 35.66 12.45 M1.55 51.7 C9.81 43.21, 17.88 33.27, 35.66 12.45 M1.29 58.1 C14.76 42.1, 27.16 26.52, 36.06 18.1 M1.29 58.1 C8.94 50.63, 15.34 42.09, 36.06 18.1 M1.68 63.74 C12.59 53.68, 23.68 40.11, 35.8 24.49 M1.68 63.74 C14.84 49.76, 25.5 35.98, 35.8 24.49 M1.42 70.14 C10.73 57.16, 20.18 45.4, 36.19 30.14 M1.42 70.14 C10.38 60.34, 19.62 48.58, 36.19 30.14 M1.82 75.78 C13.64 61.88, 28.54 46.24, 35.93 36.53 M1.82 75.78 C11.15 65.55, 21.62 54.63, 35.93 36.53 M4.18 79.16 C12.74 68.58, 24.22 56.12, 36.33 42.18 M4.18 79.16 C13.31 70.73, 21.06 60.09, 36.33 42.18 M7.2 81.78 C15.64 73.21, 26.66 61.9, 36.06 48.58 M7.2 81.78 C12.88 74.76, 20.87 67.35, 36.06 48.58 M12.84 81.39 C20.28 70.48, 27.66 61.9, 36.46 54.22 M12.84 81.39 C19.76 73.26, 27.86 62.84, 36.46 54.22 M17.83 81.75 C23.51 75.97, 28.14 70.2, 36.2 60.62 M17.83 81.75 C22.91 74.74, 28.98 67.61, 36.2 60.62 M23.47 81.35 C28.15 75.85, 31.89 74.49, 36.59 66.26 M23.47 81.35 C27.08 78.26, 30.07 72.44, 36.59 66.26 M30.43 79.45 C32.54 77.51, 34.6 74.31, 36.33 72.66 M30.43 79.45 C31.87 77.78, 33.93 75.07, 36.33 72.66" stroke="#fab005" stroke-width="0.5" fill="none"></path><path d="M8.75 0 M8.75 0 C15.24 -0.28, 21.12 -1.55, 26.25 0 M8.75 0 C13.88 -0.56, 17.49 0.78, 26.25 0 M26.25 0 C31.1 0.63, 36.39 1.73, 35 8.75 M26.25 0 C32.64 -0.18, 36.79 1.89, 35 8.75 M35 8.75 C33.51 21.52, 36.45 35.69, 35 71.25 M35 8.75 C33.74 31.12, 35.54 53.57, 35 71.25 M35 71.25 C36.21 78.3, 33.94 81.84, 26.25 80 M35 71.25 C33.64 78.39, 30.27 82.19, 26.25 80 M26.25 80 C20.74 80.44, 11.25 78.34, 8.75 80 M26.25 80 C23.15 79.68, 19.14 80.21, 8.75 80 M8.75 80 C3.55 80.04, -0.52 76.7, 0 71.25 M8.75 80 C3.69 79.32, 2.04 75.3, 0 71.25 M0 71.25 C1.3 53.78, 1.79 33.25, 0 8.75 M0 71.25 C-0.04 53.09, -0.39 35.12, 0 8.75 M0 8.75 C-0.83 2.49, 4.12 0.26, 8.75 0 M0 8.75 C0.13 2.2, 3.93 -1.16, 8.75 0" stroke="#000000" stroke-width="1" fill="none"></path></g><g stroke-linecap="round" transform="translate(349.5 255) rotate(0 17.5 40)"><path d="M2.33 2.02 C2.33 2.02, 2.33 2.02, 2.33 2.02 M2.33 2.02 C2.33 2.02, 2.33 2.02, 2.33 2.02 M0.76 9.93 C2.7 7.27, 5.52 5.11, 9.28 0.12 M0.76 9.93 C2.17 7.89, 4.68 5.28, 9.28 0.12 M1.15 15.57 C5.7 11.34, 10.23 6.91, 14.27 0.48 M1.15 15.57 C5.53 9.24, 9.99 5.41, 14.27 0.48 M0.89 21.97 C6.81 15.81, 13.39 7.06, 19.26 0.84 M0.89 21.97 C6.83 14.3, 13.47 8.08, 19.26 0.84 M1.28 27.62 C6.71 20.98, 10.89 17.36, 24.9 0.45 M1.28 27.62 C6.08 20.91, 11.2 15.1, 24.9 0.45 M1.02 34.01 C7.21 27.34, 12.85 20.58, 29.89 0.81 M1.02 34.01 C11.34 22.44, 21.58 9.21, 29.89 0.81 M1.42 39.66 C11.02 26.86, 23.76 14.83, 32.91 3.43 M1.42 39.66 C13.6 26.19, 24.22 13.52, 32.91 3.43 M1.15 46.05 C10.32 36.98, 16.98 27.3, 35.93 6.05 M1.15 46.05 C13.49 32.31, 25.81 17.54, 35.93 6.05 M1.55 51.7 C13.73 37.82, 26.41 24.48, 35.66 12.45 M1.55 51.7 C9.81 43.21, 17.88 33.27, 35.66 12.45 M1.29 58.1 C14.76 42.1, 27.16 26.52, 36.06 18.1 M1.29 58.1 C8.94 50.63, 15.34 42.09, 36.06 18.1 M1.68 63.74 C12.59 53.68, 23.68 40.11, 35.8 24.49 M1.68 63.74 C14.84 49.76, 25.5 35.98, 35.8 24.49 M1.42 70.14 C10.73 57.16, 20.18 45.4, 36.19 30.14 M1.42 70.14 C10.38 60.34, 19.62 48.58, 36.19 30.14 M1.82 75.78 C13.64 61.88, 28.54 46.24, 35.93 36.53 M1.82 75.78 C11.15 65.55, 21.62 54.63, 35.93 36.53 M4.18 79.16 C12.74 68.58, 24.22 56.12, 36.33 42.18 M4.18 79.16 C13.31 70.73, 21.06 60.09, 36.33 42.18 M7.2 81.78 C15.64 73.21, 26.66 61.9, 36.06 48.58 M7.2 81.78 C12.88 74.76, 20.87 67.35, 36.06 48.58 M12.84 81.39 C20.28 70.48, 27.66 61.9, 36.46 54.22 M12.84 81.39 C19.76 73.26, 27.86 62.84, 36.46 54.22 M17.83 81.75 C23.51 75.97, 28.14 70.2, 36.2 60.62 M17.83 81.75 C22.91 74.74, 28.98 67.61, 36.2 60.62 M23.47 81.35 C28.15 75.85, 31.89 74.49, 36.59 66.26 M23.47 81.35 C27.08 78.26, 30.07 72.44, 36.59 66.26 M30.43 79.45 C32.54 77.51, 34.6 74.31, 36.33 72.66 M30.43 79.45 C31.87 77.78, 33.93 75.07, 36.33 72.66" stroke="#fab005" stroke-width="0.5" fill="none"></path><path d="M8.75 0 M8.75 0 C15.24 -0.28, 21.12 -1.55, 26.25 0 M8.75 0 C13.88 -0.56, 17.49 0.78, 26.25 0 M26.25 0 C31.1 0.63, 36.39 1.73, 35 8.75 M26.25 0 C32.64 -0.18, 36.79 1.89, 35 8.75 M35 8.75 C33.51 21.52, 36.45 35.69, 35 71.25 M35 8.75 C33.74 31.12, 35.54 53.57, 35 71.25 M35 71.25 C36.21 78.3, 33.94 81.84, 26.25 80 M35 71.25 C33.64 78.39, 30.27 82.19, 26.25 80 M26.25 80 C20.74 80.44, 11.25 78.34, 8.75 80 M26.25 80 C23.15 79.68, 19.14 80.21, 8.75 80 M8.75 80 C3.55 80.04, -0.52 76.7, 0 71.25 M8.75 80 C3.69 79.32, 2.04 75.3, 0 71.25 M0 71.25 C1.3 53.78, 1.79 33.25, 0 8.75 M0 71.25 C-0.04 53.09, -0.39 35.12, 0 8.75 M0 8.75 C-0.83 2.49, 4.12 0.26, 8.75 0 M0 8.75 C0.13 2.2, 3.93 -1.16, 8.75 0" stroke="#000000" stroke-width="1" fill="none"></path></g><g stroke-linecap="round" transform="translate(128 10) rotate(0 22 23.5)"><path d="M1.55 23.87 C1.55 23.87, 1.55 23.87, 1.55 23.87 M1.55 23.87 C1.55 23.87, 1.55 23.87, 1.55 23.87 M3.91 27.25 C11.93 17.02, 21.62 9.29, 24.91 3.1 M3.91 27.25 C12.33 17.35, 20.29 8.2, 24.91 3.1 M6.27 30.63 C11.96 25.13, 18.55 17.26, 27.92 5.72 M6.27 30.63 C11.26 23.81, 17.76 17.87, 27.92 5.72 M9.29 33.25 C14.46 24.84, 19.08 20.77, 30.94 8.35 M9.29 33.25 C15.71 26.72, 21.22 20.32, 30.94 8.35 M12.31 35.88 C21.37 24.69, 28.9 16.65, 33.96 10.97 M12.31 35.88 C16.66 29.65, 22.24 23.51, 33.96 10.97 M15.33 38.5 C24.41 27.62, 30.06 19.58, 36.32 14.35 M15.33 38.5 C21.48 30.44, 28.7 22.55, 36.32 14.35 M18.35 41.13 C23.79 35.8, 31.6 28.82, 38.69 17.73 M18.35 41.13 C25.77 34.28, 30.59 26.65, 38.69 17.73 M21.37 43.75 C29.52 36.17, 33.24 28.07, 41.05 21.11 M21.37 43.75 C26.37 39.5, 29.87 34.07, 41.05 21.11" stroke="#fa5252" stroke-width="0.5" fill="none"></path><path d="M28.75 6 M28.75 6 C30.98 11.08, 36.71 15.83, 38.25 18 M28.75 6 C31.66 9.25, 33.8 11.93, 38.25 18 M38.25 18 C42.91 24.29, 45.76 25.67, 38.25 30 M38.25 18 C44.67 22.87, 43.23 22.79, 38.25 30 M38.25 30 C35.7 34.43, 30.36 38.71, 28.75 41 M38.25 30 C34.37 33.91, 32.24 37.9, 28.75 41 M28.75 41 C23.62 46.09, 22.71 47.94, 17.25 41 M28.75 41 C24.75 48.63, 21.4 46.97, 17.25 41 M17.25 41 C15.31 39.37, 10.71 36.25, 5.75 30 M17.25 41 C14.44 37.98, 12.57 35.96, 5.75 30 M5.75 30 C1.73 23.25, 1.46 22.27, 5.75 18 M5.75 30 C-1.99 21.81, 1.74 26.15, 5.75 18 M5.75 18 C8.57 15.34, 12.24 12.2, 17.25 6 M5.75 18 C9.48 14.07, 12.65 11.33, 17.25 6 M17.25 6 C23.53 -0.95, 24.41 -0.47, 28.75 6 M17.25 6 C24.63 -0.6, 24.01 -1.7, 28.75 6" stroke="#000000" stroke-width="1" fill="none"></path></g><g stroke-linecap="round" transform="translate(141 279) rotate(0 13 14)"><path d="M0.71 15.19 C0.71 15.19, 0.71 15.19, 0.71 15.19 M0.71 15.19 C0.71 15.19, 0.71 15.19, 0.71 15.19 M3.73 17.82 C8.37 11.44, 14.67 7.44, 16.19 3.48 M3.73 17.82 C8.79 11.71, 13.48 6.31, 16.19 3.48 M6.75 20.44 C10.03 17.58, 14.29 12.38, 19.87 5.35 M6.75 20.44 C9.48 16.21, 13.69 12.91, 19.87 5.35 M9.77 23.06 C12.48 17.51, 14.74 16.09, 22.23 8.72 M9.77 23.06 C13.8 19.32, 16.96 15.62, 22.23 8.72 M12.78 25.69 C17.91 19.01, 21.74 15.18, 24.59 12.1 M12.78 25.69 C14.94 22.1, 18.19 18.61, 24.59 12.1" stroke="#fa5252" stroke-width="0.5" fill="none"></path><path d="M17.5 3.75 M17.5 3.75 C20.03 5.76, 20.9 9.06, 22.5 11.25 M22.5 11.25 C26.68 16.97, 26.85 13.75, 22.5 18.75 M22.5 18.75 C20.78 19.83, 19.07 22, 17.5 24.25 M17.5 24.25 C15.15 29.64, 14.74 28.38, 10.5 24.25 M10.5 24.25 C9.32 22.2, 7.48 21.95, 3.5 18.75 M3.5 18.75 C1.04 16.17, 1.7 15.1, 3.5 11.25 M3.5 11.25 C4.76 8.75, 7.66 8.09, 10.5 3.75 M10.5 3.75 C14.12 -0.47, 15.13 0.2, 17.5 3.75" stroke="#000000" stroke-width="1.5" fill="none" stroke-dasharray="1.5 7"></path></g><g stroke-linecap="round" transform="translate(355 283) rotate(0 13 14)"><path d="M0.71 15.19 C0.71 15.19, 0.71 15.19, 0.71 15.19 M0.71 15.19 C0.71 15.19, 0.71 15.19, 0.71 15.19 M3.73 17.82 C8.37 11.44, 14.67 7.44, 16.19 3.48 M3.73 17.82 C8.79 11.71, 13.48 6.31, 16.19 3.48 M6.75 20.44 C10.03 17.58, 14.29 12.38, 19.87 5.35 M6.75 20.44 C9.48 16.21, 13.69 12.91, 19.87 5.35 M9.77 23.06 C12.48 17.51, 14.74 16.09, 22.23 8.72 M9.77 23.06 C13.8 19.32, 16.96 15.62, 22.23 8.72 M12.78 25.69 C17.91 19.01, 21.74 15.18, 24.59 12.1 M12.78 25.69 C14.94 22.1, 18.19 18.61, 24.59 12.1" stroke="#fa5252" stroke-width="0.5" fill="none"></path><path d="M17.5 3.75 M17.5 3.75 C20.03 5.76, 20.9 9.06, 22.5 11.25 M22.5 11.25 C26.68 16.97, 26.85 13.75, 22.5 18.75 M22.5 18.75 C20.78 19.83, 19.07 22, 17.5 24.25 M17.5 24.25 C15.15 29.64, 14.74 28.38, 10.5 24.25 M10.5 24.25 C9.32 22.2, 7.48 21.95, 3.5 18.75 M3.5 18.75 C1.04 16.17, 1.7 15.1, 3.5 11.25 M3.5 11.25 C4.76 8.75, 7.66 8.09, 10.5 3.75 M10.5 3.75 C14.12 -0.47, 15.13 0.2, 17.5 3.75" stroke="#000000" stroke-width="1.5" fill="none" stroke-dasharray="1.5 7"></path></g><g stroke-linecap="round"><g transform="translate(361 336) rotate(0 -24.704794230807465 53.44525113143027)"><path d="M-0.08 -0.41 C-3.06 6.98, -8.51 26.05, -16.72 44 C-24.93 61.95, -43.94 96.72, -49.33 107.3" stroke="#000000" stroke-width="1.5" fill="none" stroke-dasharray="8 9"></path></g><g transform="translate(361 336) rotate(0 -24.704794230807465 53.44525113143027)"><path d="M-45.96 76.38 C-46.97 89.17, -49.74 101.47, -50.2 107.15" stroke="#000000" stroke-width="1.5" fill="none"></path></g><g transform="translate(361 336) rotate(0 -24.704794230807465 53.44525113143027)"><path d="M-27.81 85.94 C-36.01 94.91, -46 103.41, -50.2 107.15" stroke="#000000" stroke-width="1.5" fill="none"></path></g></g><mask></mask><g stroke-linecap="round" transform="translate(31 252.5) rotate(0 13 14)"><path d="M0.71 15.19 C0.71 15.19, 0.71 15.19, 0.71 15.19 M0.71 15.19 C0.71 15.19, 0.71 15.19, 0.71 15.19 M3.73 17.82 C8.37 11.44, 14.67 7.44, 16.19 3.48 M3.73 17.82 C8.79 11.71, 13.48 6.31, 16.19 3.48 M6.75 20.44 C10.03 17.58, 14.29 12.38, 19.87 5.35 M6.75 20.44 C9.48 16.21, 13.69 12.91, 19.87 5.35 M9.77 23.06 C12.48 17.51, 14.74 16.09, 22.23 8.72 M9.77 23.06 C13.8 19.32, 16.96 15.62, 22.23 8.72 M12.78 25.69 C17.91 19.01, 21.74 15.18, 24.59 12.1 M12.78 25.69 C14.94 22.1, 18.19 18.61, 24.59 12.1" stroke="#fa5252" stroke-width="0.5" fill="none"></path><path d="M17.5 3.75 M17.5 3.75 C20.03 5.76, 20.9 9.06, 22.5 11.25 M22.5 11.25 C26.68 16.97, 26.85 13.75, 22.5 18.75 M22.5 18.75 C20.78 19.83, 19.07 22, 17.5 24.25 M17.5 24.25 C15.15 29.64, 14.74 28.38, 10.5 24.25 M10.5 24.25 C9.32 22.2, 7.48 21.95, 3.5 18.75 M3.5 18.75 C1.04 16.17, 1.7 15.1, 3.5 11.25 M3.5 11.25 C4.76 8.75, 7.66 8.09, 10.5 3.75 M10.5 3.75 C14.12 -0.47, 15.13 0.2, 17.5 3.75" stroke="#000000" stroke-width="1.5" fill="none" stroke-dasharray="1.5 7"></path></g><g transform="translate(162 446) rotate(0 119.37989807128906 12.5)"><text x="0" y="0" font-family="Virgil, Segoe UI Emoji" font-size="20px" fill="#000000" text-anchor="start" style="white-space: pre;" direction="ltr" dominant-baseline="text-before-edge">These are linear memory</text></g><g stroke-linecap="round"><g transform="translate(137 62) rotate(0 -41.42787508348002 91.88184533545748)"><path d="M-0.44 0.69 C-14.26 31.15, -69.35 151.86, -83.29 182.14 M1.54 0.01 C-12.45 30.73, -70.51 153.71, -84.39 183.76" stroke="#000000" stroke-width="1" fill="none"></path></g><g transform="translate(137 62) rotate(0 -41.42787508348002 91.88184533545748)"><path d="M-80.6 153.39 C-82.38 160.22, -82.65 168.22, -86.07 183.51 M-81.86 153.17 C-81.59 163.78, -82.89 171.4, -83.75 182.79" stroke="#000000" stroke-width="1" fill="none"></path></g><g transform="translate(137 62) rotate(0 -41.42787508348002 91.88184533545748)"><path d="M-62.01 162.08 C-68.82 166.47, -74.17 172.09, -86.07 183.51 M-63.27 161.86 C-68.64 169.99, -75.52 175, -83.75 182.79" stroke="#000000" stroke-width="1" fill="none"></path></g></g><mask></mask><g stroke-linecap="round"><g transform="translate(148 70) rotate(0 -8.40632627850016 102.97322787605226)"><path d="M-0.65 -0.85 C-4.44 17.85, -23.49 78.5, -22.68 113.11 C-21.87 147.72, -0.39 191.37, 4.2 206.79 M1.21 1.32 C-2.71 20.15, -24.37 80.78, -23.46 114.71 C-22.55 148.63, 1.93 189.56, 6.68 204.87" stroke="#000000" stroke-width="1" fill="none"></path></g><g transform="translate(148 70) rotate(0 -8.40632627850016 102.97322787605226)"><path d="M-15.21 183.47 C-7.22 188.39, 0.14 196.12, 6.08 202.98 M-12.87 182.71 C-6.74 190.19, -1.48 196.57, 5.98 204.92" stroke="#000000" stroke-width="1" fill="none"></path></g><g transform="translate(148 70) rotate(0 -8.40632627850016 102.97322787605226)"><path d="M3.67 175.44 C5.99 182.69, 7.61 192.87, 6.08 202.98 M6.01 174.68 C6.56 184.59, 6.18 193.38, 5.98 204.92" stroke="#000000" stroke-width="1" fill="none"></path></g></g><mask></mask><g stroke-linecap="round"><g transform="translate(313.65675987827854 335.0000000000001) rotate(0 -15.940706989953867 52.42397770322856)"><path d="M-0.82 0.33 C-6.11 17.59, -26.21 87.09, -31.06 104.52" stroke="#000000" stroke-width="1.5" fill="none" stroke-dasharray="8 9"></path></g><g transform="translate(313.65675987827854 335.0000000000001) rotate(0 -15.940706989953867 52.42397770322856)"><path d="M-32.66 73.33 C-31.34 85.88, -29.95 94.72, -31.38 103.32" stroke="#000000" stroke-width="1.5" fill="none"></path></g><g transform="translate(313.65675987827854 335.0000000000001) rotate(0 -15.940706989953867 52.42397770322856)"><path d="M-12.93 78.95 C-18.62 89.38, -24.2 96.23, -31.38 103.32" stroke="#000000" stroke-width="1.5" fill="none"></path></g></g><mask></mask><g stroke-linecap="round"><g transform="translate(253.546624287354 338) rotate(0 3.507883727021067 50.65873078741134)"><path d="M0.47 0.76 C1.47 17.71, 5.36 84.04, 6.55 100.56" stroke="#000000" stroke-width="1.5" fill="none" stroke-dasharray="8 9"></path></g><g transform="translate(253.546624287354 338) rotate(0 3.507883727021067 50.65873078741134)"><path d="M-4.23 72.19 C-0.66 83.42, 2.35 93.48, 6.05 98.73" stroke="#000000" stroke-width="1.5" fill="none"></path></g><g transform="translate(253.546624287354 338) rotate(0 3.507883727021067 50.65873078741134)"><path d="M16.25 70.87 C12.72 82.64, 8.64 93.16, 6.05 98.73" stroke="#000000" stroke-width="1.5" fill="none"></path></g></g><mask></mask><g stroke-linecap="round"><g transform="translate(197.54848784609408 335) rotate(0 19.778211972506767 53.747030061855924)"><path d="M1.12 0.62 C7.6 18.5, 32.12 88.98, 38.44 106.88" stroke="#000000" stroke-width="1.5" fill="none" stroke-dasharray="8 9"></path></g><g transform="translate(197.54848784609408 335) rotate(0 19.778211972506767 53.747030061855924)"><path d="M20.46 83.33 C22.51 90.27, 29.42 95.39, 37.05 108.85" stroke="#000000" stroke-width="1.5" fill="none"></path></g><g transform="translate(197.54848784609408 335) rotate(0 19.778211972506767 53.747030061855924)"><path d="M39.83 76.54 C36.72 85.46, 38.5 92.38, 37.05 108.85" stroke="#000000" stroke-width="1.5" fill="none"></path></g></g><mask></mask><g stroke-linecap="round"><g transform="translate(154 340) rotate(0 26.817313566802966 52.22835610471668)"><path d="M-0.95 0.45 C3.06 9.46, 15.89 36.36, 25.14 53.62 C34.4 70.88, 49.34 95.55, 54.58 104.01" stroke="#000000" stroke-width="1.5" fill="none" stroke-dasharray="8 9"></path></g><g transform="translate(154 340) rotate(0 26.817313566802966 52.22835610471668)"><path d="M31.89 87.19 C39.6 91.07, 47.74 101.79, 53.51 103.61" stroke="#000000" stroke-width="1.5" fill="none"></path></g><g transform="translate(154 340) rotate(0 26.817313566802966 52.22835610471668)"><path d="M49.41 76.5 C50.23 84.43, 51.53 99.31, 53.51 103.61" stroke="#000000" stroke-width="1.5" fill="none"></path></g></g><mask></mask><g stroke-linecap="round" transform="translate(297 277) rotate(0 13 14)"><path d="M0.71 15.19 C0.71 15.19, 0.71 15.19, 0.71 15.19 M0.71 15.19 C0.71 15.19, 0.71 15.19, 0.71 15.19 M3.73 17.82 C8.37 11.44, 14.67 7.44, 16.19 3.48 M3.73 17.82 C8.79 11.71, 13.48 6.31, 16.19 3.48 M6.75 20.44 C10.03 17.58, 14.29 12.38, 19.87 5.35 M6.75 20.44 C9.48 16.21, 13.69 12.91, 19.87 5.35 M9.77 23.06 C12.48 17.51, 14.74 16.09, 22.23 8.72 M9.77 23.06 C13.8 19.32, 16.96 15.62, 22.23 8.72 M12.78 25.69 C17.91 19.01, 21.74 15.18, 24.59 12.1 M12.78 25.69 C14.94 22.1, 18.19 18.61, 24.59 12.1" stroke="#fa5252" stroke-width="0.5" fill="none"></path><path d="M17.5 3.75 M17.5 3.75 C20.03 5.76, 20.9 9.06, 22.5 11.25 M22.5 11.25 C26.68 16.97, 26.85 13.75, 22.5 18.75 M22.5 18.75 C20.78 19.83, 19.07 22, 17.5 24.25 M17.5 24.25 C15.15 29.64, 14.74 28.38, 10.5 24.25 M10.5 24.25 C9.32 22.2, 7.48 21.95, 3.5 18.75 M3.5 18.75 C1.04 16.17, 1.7 15.1, 3.5 11.25 M3.5 11.25 C4.76 8.75, 7.66 8.09, 10.5 3.75 M10.5 3.75 C14.12 -0.47, 15.13 0.2, 17.5 3.75" stroke="#000000" stroke-width="1.5" fill="none" stroke-dasharray="1.5 7"></path></g><g stroke-linecap="round" transform="translate(245 278) rotate(0 13 14)"><path d="M0.71 15.19 C0.71 15.19, 0.71 15.19, 0.71 15.19 M0.71 15.19 C0.71 15.19, 0.71 15.19, 0.71 15.19 M3.73 17.82 C8.37 11.44, 14.67 7.44, 16.19 3.48 M3.73 17.82 C8.79 11.71, 13.48 6.31, 16.19 3.48 M6.75 20.44 C10.03 17.58, 14.29 12.38, 19.87 5.35 M6.75 20.44 C9.48 16.21, 13.69 12.91, 19.87 5.35 M9.77 23.06 C12.48 17.51, 14.74 16.09, 22.23 8.72 M9.77 23.06 C13.8 19.32, 16.96 15.62, 22.23 8.72 M12.78 25.69 C17.91 19.01, 21.74 15.18, 24.59 12.1 M12.78 25.69 C14.94 22.1, 18.19 18.61, 24.59 12.1" stroke="#fa5252" stroke-width="0.5" fill="none"></path><path d="M17.5 3.75 M17.5 3.75 C20.03 5.76, 20.9 9.06, 22.5 11.25 M22.5 11.25 C26.68 16.97, 26.85 13.75, 22.5 18.75 M22.5 18.75 C20.78 19.83, 19.07 22, 17.5 24.25 M17.5 24.25 C15.15 29.64, 14.74 28.38, 10.5 24.25 M10.5 24.25 C9.32 22.2, 7.48 21.95, 3.5 18.75 M3.5 18.75 C1.04 16.17, 1.7 15.1, 3.5 11.25 M3.5 11.25 C4.76 8.75, 7.66 8.09, 10.5 3.75 M10.5 3.75 C14.12 -0.47, 15.13 0.2, 17.5 3.75" stroke="#000000" stroke-width="1.5" fill="none" stroke-dasharray="1.5 7"></path></g><g stroke-linecap="round" transform="translate(193 274) rotate(0 13 14)"><path d="M0.71 15.19 C0.71 15.19, 0.71 15.19, 0.71 15.19 M0.71 15.19 C0.71 15.19, 0.71 15.19, 0.71 15.19 M3.73 17.82 C8.37 11.44, 14.67 7.44, 16.19 3.48 M3.73 17.82 C8.79 11.71, 13.48 6.31, 16.19 3.48 M6.75 20.44 C10.03 17.58, 14.29 12.38, 19.87 5.35 M6.75 20.44 C9.48 16.21, 13.69 12.91, 19.87 5.35 M9.77 23.06 C12.48 17.51, 14.74 16.09, 22.23 8.72 M9.77 23.06 C13.8 19.32, 16.96 15.62, 22.23 8.72 M12.78 25.69 C17.91 19.01, 21.74 15.18, 24.59 12.1 M12.78 25.69 C14.94 22.1, 18.19 18.61, 24.59 12.1" stroke="#fa5252" stroke-width="0.5" fill="none"></path><path d="M17.5 3.75 M17.5 3.75 C20.03 5.76, 20.9 9.06, 22.5 11.25 M22.5 11.25 C26.68 16.97, 26.85 13.75, 22.5 18.75 M22.5 18.75 C20.78 19.83, 19.07 22, 17.5 24.25 M17.5 24.25 C15.15 29.64, 14.74 28.38, 10.5 24.25 M10.5 24.25 C9.32 22.2, 7.48 21.95, 3.5 18.75 M3.5 18.75 C1.04 16.17, 1.7 15.1, 3.5 11.25 M3.5 11.25 C4.76 8.75, 7.66 8.09, 10.5 3.75 M10.5 3.75 C14.12 -0.47, 15.13 0.2, 17.5 3.75" stroke="#000000" stroke-width="1.5" fill="none" stroke-dasharray="1.5 7"></path></g><g transform="translate(151.16806030273438 105.5) rotate(0 167.83193969726562 30)"><text x="167.83193969726562" y="0" font-family="Virgil, Segoe UI Emoji" font-size="16px" fill="#000000" text-anchor="middle" style="white-space: pre;" direction="ltr" dominant-baseline="text-before-edge">Where should the shared data</text><text x="167.83193969726562" y="20" font-family="Virgil, Segoe UI Emoji" font-size="16px" fill="#000000" text-anchor="middle" style="white-space: pre;" direction="ltr" dominant-baseline="text-before-edge">be placed?</text><text x="167.83193969726562" y="40" font-family="Virgil, Segoe UI Emoji" font-size="16px" fill="#000000" text-anchor="middle" style="white-space: pre;" direction="ltr" dominant-baseline="text-before-edge">In native layer or in one of linear memory?</text></g><g transform="translate(41.272003173828125 259) rotate(0 3.727996826171875 10)"><text x="3.727996826171875" y="0" font-family="Virgil, Segoe UI Emoji" font-size="16px" fill="#000000" text-anchor="middle" style="white-space: pre;" direction="ltr" dominant-baseline="text-before-edge">?</text></g><g transform="translate(151.27200317382812 286) rotate(0 3.727996826171875 10)"><text x="3.727996826171875" y="0" font-family="Virgil, Segoe UI Emoji" font-size="16px" fill="#000000" text-anchor="middle" style="white-space: pre;" direction="ltr" dominant-baseline="text-before-edge">?</text></g><g transform="translate(204.27200317382812 280) rotate(0 3.727996826171875 10)"><text x="3.727996826171875" y="0" font-family="Virgil, Segoe UI Emoji" font-size="16px" fill="#000000" text-anchor="middle" style="white-space: pre;" direction="ltr" dominant-baseline="text-before-edge">?</text></g><g transform="translate(255.27200317382812 282) rotate(0 3.727996826171875 10)"><text x="3.727996826171875" y="0" font-family="Virgil, Segoe UI Emoji" font-size="16px" fill="#000000" text-anchor="middle" style="white-space: pre;" direction="ltr" dominant-baseline="text-before-edge">?</text></g><g transform="translate(308.2720031738281 285) rotate(0 3.727996826171875 10)"><text x="3.727996826171875" y="0" font-family="Virgil, Segoe UI Emoji" font-size="16px" fill="#000000" text-anchor="middle" style="white-space: pre;" direction="ltr" dominant-baseline="text-before-edge">?</text></g><g transform="translate(366.2720031738281 287) rotate(0 3.727996826171875 10)"><text x="3.727996826171875" y="0" font-family="Virgil, Segoe UI Emoji" font-size="16px" fill="#000000" text-anchor="middle" style="white-space: pre;" direction="ltr" dominant-baseline="text-before-edge">?</text></g></svg>