<svg version="1.1" xmlns="http://www.w3.org/2000/svg" viewBox="0 0 326.0975553736091 165.99998474121094" width="326.0975553736091" height="165.99998474121094">
  <!-- svg-source:excalidraw -->
  
  <defs>
    <style class="style-fonts">
      @font-face {
        font-family: "Virgil";
        src: url("https://file%2B.vscode-resource.vscode-cdn.net/c%3A/Users/jiongqia/.vscode/extensions/pomdtr.excalidraw-editor-3.5.1/public//dist/excalidraw-assets/Virgil.woff2");
      }
      @font-face {
        font-family: "Cascadia";
        src: url("https://file%2B.vscode-resource.vscode-cdn.net/c%3A/Users/jiongqia/.vscode/extensions/pomdtr.excalidraw-editor-3.5.1/public//dist/excalidraw-assets/Cascadia.woff2");
      }
    </style>
  </defs>
  <rect x="0" y="0" width="326.0975553736091" height="165.99998474121094" fill="#ffffff"></rect><g stroke-linecap="round" transform="translate(14.917608474195049 84.99998474121094) rotate(0 92 35.5)"><path d="M2.23 7.24 C2.23 7.24, 2.23 7.24, 2.23 7.24 M2.23 7.24 C2.23 7.24, 2.23 7.24, 2.23 7.24 M1.31 14.39 C3.71 11.76, 6.86 7.56, 9.84 4.58 M1.31 14.39 C4.21 11.35, 7.52 6.68, 9.84 4.58 M1.05 20.79 C7.55 13.13, 14.34 7.49, 18.77 0.41 M1.05 20.79 C7.54 13.48, 14.22 6.52, 18.77 0.41 M1.45 26.43 C9.15 20.41, 13.94 11.59, 23.75 0.77 M1.45 26.43 C9.14 18.56, 15.03 11.08, 23.75 0.77 M1.18 32.83 C8.86 23.46, 17.33 11.97, 29.4 0.38 M1.18 32.83 C10.43 22.77, 19.56 12.8, 29.4 0.38 M1.58 38.47 C12.33 24.62, 25.12 10.74, 34.38 0.74 M1.58 38.47 C10.79 26.79, 20 15.77, 34.38 0.74 M1.32 44.87 C11.12 35.17, 22.22 21.56, 40.03 0.34 M1.32 44.87 C13.33 32.2, 23.4 18.99, 40.03 0.34 M1.06 51.27 C11.35 36.81, 23.26 26.7, 45.01 0.7 M1.06 51.27 C17.24 33.41, 30.52 16.64, 45.01 0.7 M0.79 57.67 C14.31 45.07, 23.58 31.06, 50.66 0.31 M0.79 57.67 C20.57 34.42, 41.18 13, 50.66 0.31 M2.5 61.8 C17.89 43.67, 35.18 22.03, 55.64 0.67 M2.5 61.8 C15.22 48.91, 26.93 33.7, 55.64 0.67 M4.21 65.93 C18.54 46.52, 33.07 31.32, 60.63 1.03 M4.21 65.93 C23.75 42.21, 43.7 18.09, 60.63 1.03 M7.23 68.56 C22.7 51.27, 40 33.46, 66.27 0.63 M7.23 68.56 C24.69 48.58, 40.52 29.89, 66.27 0.63 M10.9 70.43 C25.5 52.18, 40.6 32.31, 71.26 0.99 M10.9 70.43 C28.14 51.2, 44.8 32.35, 71.26 0.99 M15.23 71.54 C35.57 48.91, 58.54 22.26, 76.9 0.6 M15.23 71.54 C31.18 53.47, 46.49 36.36, 76.9 0.6 M19.56 72.66 C34.61 53.98, 52.57 31.51, 81.89 0.96 M19.56 72.66 C43.81 44.71, 67.85 16.95, 81.89 0.96 M25.21 72.26 C44.37 50.12, 63.14 28.5, 87.53 0.57 M25.21 72.26 C49.14 44.09, 73.37 16.41, 87.53 0.57 M30.19 72.62 C48.82 51.51, 66.89 30.68, 92.52 0.93 M30.19 72.62 C50.12 50.87, 68.56 28.67, 92.52 0.93 M35.18 72.98 C52.27 53.93, 69.45 34.71, 98.16 0.53 M35.18 72.98 C59.12 45.96, 81.38 18.53, 98.16 0.53 M40.82 72.59 C54.07 56.48, 68.64 40.09, 103.15 0.89 M40.82 72.59 C55.26 56.2, 70.96 39.83, 103.15 0.89 M45.81 72.95 C62.11 53.25, 80.04 34.82, 108.79 0.5 M45.81 72.95 C58.51 58.08, 71.46 43.51, 108.79 0.5 M51.45 72.55 C74.32 47.78, 93.06 22.02, 113.78 0.86 M51.45 72.55 C70.37 50.19, 91.56 26.61, 113.78 0.86 M56.44 72.91 C73.94 56.61, 86.67 38.93, 119.42 0.46 M56.44 72.91 C74.58 51.52, 92.35 30.72, 119.42 0.46 M62.08 72.52 C84.73 46.18, 109.38 18.26, 124.41 0.82 M62.08 72.52 C80.43 52.36, 97.78 32.12, 124.41 0.82 M67.07 72.88 C86.66 48.56, 108.05 23.89, 130.05 0.43 M67.07 72.88 C92.15 44.32, 116.33 16.51, 130.05 0.43 M72.71 72.48 C91.41 50.38, 109.95 27.09, 135.04 0.79 M72.71 72.48 C86.29 55.95, 99.96 40.78, 135.04 0.79 M77.7 72.84 C95.32 49.18, 118.11 29.56, 140.68 0.39 M77.7 72.84 C91.89 56.85, 105.56 41.85, 140.68 0.39 M83.34 72.45 C104.42 50.11, 123.71 26.07, 145.67 0.75 M83.34 72.45 C108.6 44.47, 132.7 15.15, 145.67 0.75 M88.33 72.81 C111.43 44.59, 136.07 17.84, 151.31 0.36 M88.33 72.81 C106.68 52.98, 124.83 31.47, 151.31 0.36 M93.97 72.42 C106.76 57.26, 123.34 40.58, 156.3 0.72 M93.97 72.42 C110.54 55.67, 125.35 37.66, 156.3 0.72 M98.96 72.78 C124.82 43.22, 146.57 16.4, 161.94 0.32 M98.96 72.78 C114.88 53.37, 130.04 35.17, 161.94 0.32 M104.6 72.38 C121.02 52.71, 142.22 30.83, 166.93 0.68 M104.6 72.38 C126.53 47.38, 149.34 20.99, 166.93 0.68 M109.59 72.74 C133.28 46.29, 158.23 16.5, 171.92 1.04 M109.59 72.74 C130.8 46.2, 152.65 21.29, 171.92 1.04 M115.23 72.35 C137.98 45.56, 159.95 19.76, 175.59 2.91 M115.23 72.35 C134.71 48.76, 154.89 25.85, 175.59 2.91 M120.22 72.71 C138.77 51.14, 159.26 30.75, 179.27 4.78 M120.22 72.71 C144.17 46.15, 167.76 20.62, 179.27 4.78 M125.86 72.31 C141.11 55.34, 153.92 40.07, 181.63 8.16 M125.86 72.31 C141.65 54.41, 154.92 36.68, 181.63 8.16 M130.85 72.67 C146.5 57.18, 158.11 39.53, 183.34 12.3 M130.85 72.67 C148.15 52.57, 167.7 31.06, 183.34 12.3 M136.5 72.28 C154.58 51.89, 172.61 29.99, 185.7 15.67 M136.5 72.28 C151.28 56.79, 165.12 38.79, 185.7 15.67 M141.48 72.64 C152.04 62.62, 161.45 46.69, 186.09 21.32 M141.48 72.64 C156.88 55.56, 172.16 37.31, 186.09 21.32 M147.13 72.24 C157.83 62.37, 165.22 52.46, 185.83 27.72 M147.13 72.24 C157.01 59.56, 169.01 46.29, 185.83 27.72 M152.11 72.6 C165.96 58.92, 177.53 42.49, 185.57 34.11 M152.11 72.6 C162.85 59.81, 173.2 48.74, 185.57 34.11 M157.1 72.96 C169.14 62.14, 175.79 50.18, 185.31 40.51 M157.1 72.96 C164.29 64.3, 171.22 56.59, 185.31 40.51 M162.74 72.57 C171.14 61.94, 178.9 51.94, 185.05 46.91 M162.74 72.57 C169.14 64.91, 176.67 57.07, 185.05 46.91 M167.73 72.93 C172.68 67.48, 174.79 60.75, 185.44 52.55 M167.73 72.93 C172.55 67.15, 176.87 61.62, 185.44 52.55 M174.68 71.03 C177.12 69.5, 178.01 66.97, 183.21 61.21 M174.68 71.03 C178.36 67.64, 181.87 62.64, 183.21 61.21" stroke="#4c6ef5" stroke-width="0.5" fill="none"></path><path d="M17.75 0 M17.75 0 C65.31 0.52, 115.32 -1.98, 166.25 0 M17.75 0 C60.47 -0.43, 101.31 -2.16, 166.25 0 M166.25 0 C177.65 -0.25, 183.43 7.45, 184 17.75 M166.25 0 C180.1 -0.94, 182.73 7.9, 184 17.75 M184 17.75 C184.52 29.75, 185.23 40.24, 184 53.25 M184 17.75 C183.78 25.53, 184.94 32.62, 184 53.25 M184 53.25 C185.26 66.12, 176.51 72.48, 166.25 71 M184 53.25 C181.77 65.55, 180.18 72.62, 166.25 71 M166.25 71 C132.06 68.79, 97.95 70.29, 17.75 71 M166.25 71 C118.65 72.32, 70.02 72.54, 17.75 71 M17.75 71 C5.32 72.38, 0.94 64.52, 0 53.25 M17.75 71 C4.83 70, 1.69 67.24, 0 53.25 M0 53.25 C-1.41 41.68, -0.68 27.04, 0 17.75 M0 53.25 C-0.6 44.76, 0.39 34.9, 0 17.75 M0 17.75 C-0.86 4.36, 6.42 1.61, 17.75 0 M0 17.75 C-1.27 8.01, 6.89 1.8, 17.75 0" stroke="#000000" stroke-width="1" fill="none"></path></g><g transform="translate(19.91760847419505 89.99998474121094) rotate(0 25.469985961914062 12.5)"><text x="0" y="0" font-family="Virgil, Segoe UI Emoji" font-size="20px" fill="#000000" text-anchor="start" style="white-space: pre;" direction="ltr" dominant-baseline="text-before-edge">CHRE</text></g><g stroke-linecap="round" transform="translate(105.5842954859138 98.66667175292969) rotate(0 39.333343505859375 25.833328247070312)"><path d="M1.56 5.34 C1.56 5.34, 1.56 5.34, 1.56 5.34 M1.56 5.34 C1.56 5.34, 1.56 5.34, 1.56 5.34 M1.96 10.98 C4.2 9.85, 4.61 7.32, 7.86 4.19 M1.96 10.98 C3.66 9.01, 5.09 6.81, 7.86 4.19 M1.7 17.38 C3.2 13.37, 8.96 11.75, 14.82 2.28 M1.7 17.38 C4.47 12.33, 8.53 8.73, 14.82 2.28 M1.44 23.77 C7.38 16.69, 12.04 13.95, 20.46 1.89 M1.44 23.77 C5.12 19.58, 10.65 13.73, 20.46 1.89 M1.83 29.42 C10.04 20.27, 14.96 11.76, 25.45 2.25 M1.83 29.42 C7.44 23.65, 10.92 17.69, 25.45 2.25 M1.57 35.81 C10.59 22.29, 23.79 11.8, 31.09 1.85 M1.57 35.81 C12.86 21.87, 23.73 9.33, 31.09 1.85 M1.31 42.21 C12.54 31.75, 23.1 18.34, 36.08 2.21 M1.31 42.21 C12.13 28.44, 24.32 15.56, 36.08 2.21 M2.36 47.1 C14.06 31.96, 24.05 20.07, 41.72 1.82 M2.36 47.1 C14.38 33.46, 26.86 19.64, 41.72 1.82 M5.38 49.73 C16.98 39.26, 24.64 25.26, 46.71 2.18 M5.38 49.73 C16.91 36.33, 29.34 21.84, 46.71 2.18 M9.71 50.84 C24.06 34.78, 34.6 22.36, 52.35 1.78 M9.71 50.84 C21.62 36.92, 33.65 23.19, 52.35 1.78 M13.38 52.71 C29.58 34.03, 46.26 16.91, 57.34 2.14 M13.38 52.71 C26.61 36.9, 40.39 22.04, 57.34 2.14 M19.03 52.31 C30.72 38.79, 42.59 25.35, 62.98 1.75 M19.03 52.31 C34.33 34.81, 49.27 17.11, 62.98 1.75 M24.01 52.67 C35.39 40.1, 46.58 29.39, 67.97 2.11 M24.01 52.67 C37.63 36.16, 50.79 20.04, 67.97 2.11 M29.66 52.28 C46.33 33.46, 62.62 13.81, 72.3 3.22 M29.66 52.28 C39.88 41.72, 50.16 29.02, 72.3 3.22 M34.64 52.64 C43.47 42.53, 53.46 29.63, 76.63 4.34 M34.64 52.64 C50.89 34.11, 67.47 15.88, 76.63 4.34 M40.29 52.25 C48.97 40.5, 56.55 31.31, 79.65 6.96 M40.29 52.25 C50.34 42.06, 59.03 29.31, 79.65 6.96 M45.27 52.61 C54.63 41.64, 62.79 34.51, 80.7 11.85 M45.27 52.61 C56.62 38.77, 68.36 27.73, 80.7 11.85 M50.92 52.21 C63.83 38.29, 75.31 26.36, 80.44 18.25 M50.92 52.21 C56.62 45.8, 62.18 38.3, 80.44 18.25 M55.9 52.57 C63.16 43.74, 70.02 35.86, 80.83 23.89 M55.9 52.57 C61.69 45.34, 68.22 38.39, 80.83 23.89 M61.55 52.18 C68.31 43.61, 73.7 35.73, 80.57 30.29 M61.55 52.18 C65.34 46.89, 70.28 41.51, 80.57 30.29 M66.53 52.54 C70.91 47.96, 79.55 37.94, 80.97 35.93 M66.53 52.54 C69.72 48.25, 74.12 44.92, 80.97 35.93" stroke="#82c91e" stroke-width="0.5" fill="none"></path><path d="M12.92 0 M12.92 0 C25.4 -1.17, 35.74 1.89, 65.75 0 M12.92 0 C26.89 -0.31, 39.26 0.52, 65.75 0 M65.75 0 C73.48 1.05, 78.12 3.25, 78.67 12.92 M65.75 0 C75.24 -1.11, 78.36 3.93, 78.67 12.92 M78.67 12.92 C79.3 17.68, 77.11 22.75, 78.67 38.75 M78.67 12.92 C79.28 22.38, 77.94 31.16, 78.67 38.75 M78.67 38.75 C78.73 49.09, 76.01 52.5, 65.75 51.67 M78.67 38.75 C79.49 49.42, 74.4 50.55, 65.75 51.67 M65.75 51.67 C46.18 50.33, 27.23 52.28, 12.92 51.67 M65.75 51.67 C48.82 51.21, 32.92 51.16, 12.92 51.67 M12.92 51.67 C2.41 52.71, 1.21 47.34, 0 38.75 M12.92 51.67 C5.84 52.58, -1.66 45.88, 0 38.75 M0 38.75 C1.96 28.72, 0.86 18.27, 0 12.92 M0 38.75 C0.53 29.59, 0.84 18.62, 0 12.92 M0 12.92 C-1.29 3.3, 3.91 1.51, 12.92 0 M0 12.92 C-0.21 2.62, 4.34 -1.34, 12.92 0" stroke="#000000" stroke-width="1" fill="none"></path></g><g transform="translate(116.45764753669505 112) rotate(0 28.459991455078125 12.5)"><text x="28.459991455078125" y="0" font-family="Virgil, Segoe UI Emoji" font-size="20px" fill="#000000" text-anchor="middle" style="white-space: pre;" direction="ltr" dominant-baseline="text-before-edge">WAMR</text></g><g stroke-linecap="round"><g transform="translate(10.917608474194992 71.33332824707031) rotate(0 100.19424643665553 -0.29692795425654595)"><path d="M-0.92 0.52 C32.63 0.51, 167.64 -0.79, 201.31 -1.12" stroke="#000000" stroke-width="1.5" fill="none" stroke-dasharray="8 9"></path></g></g><mask></mask><g stroke-linecap="round" transform="translate(19.5842954859138 10) rotate(0 86.33334350585938 21.833328247070312)"><path d="M2.91 2.53 C2.91 2.53, 2.91 2.53, 2.91 2.53 M2.91 2.53 C2.91 2.53, 2.91 2.53, 2.91 2.53 M0.68 11.19 C2.71 6.72, 6.54 6.01, 10.52 -0.13 M0.68 11.19 C4.34 8.28, 7.48 3.9, 10.52 -0.13 M0.41 17.59 C4.91 16.03, 4.73 10.65, 13.54 2.49 M0.41 17.59 C3.58 13.61, 5.68 11.4, 13.54 2.49 M0.81 23.23 C5.87 14.05, 13.87 5.61, 19.18 2.1 M0.81 23.23 C4.2 17.78, 9.28 13.89, 19.18 2.1 M1.2 28.87 C9.94 20.48, 16.65 14.05, 24.17 2.46 M1.2 28.87 C5.27 23.73, 11.02 17.96, 24.17 2.46 M0.94 35.27 C7.15 26.48, 12.89 20.04, 29.81 2.06 M0.94 35.27 C7.34 26.06, 15.42 19.29, 29.81 2.06 M2.65 39.4 C11.45 29.15, 18.33 18.02, 34.8 2.42 M2.65 39.4 C11.67 28.98, 21.78 17.48, 34.8 2.42 M5.67 42.03 C17.07 28.41, 28.02 18.73, 39.78 2.78 M5.67 42.03 C14.78 30.68, 24.45 20.74, 39.78 2.78 M8.69 44.65 C21.84 31.02, 33.19 18.95, 45.43 2.39 M8.69 44.65 C18.68 31.96, 30.66 19.2, 45.43 2.39 M13.67 45.01 C20.03 37.73, 31.28 28.38, 50.41 2.75 M13.67 45.01 C26.59 29.42, 40.19 14.51, 50.41 2.75 M18.66 45.37 C27.86 35.63, 35.28 27.27, 56.06 2.35 M18.66 45.37 C31.84 28.22, 46.67 12.99, 56.06 2.35 M24.3 44.98 C37.4 28.76, 51.52 12.68, 61.04 2.71 M24.3 44.98 C33.2 34.18, 44.13 23.25, 61.04 2.71 M29.29 45.34 C43.17 28.69, 54.81 17.12, 66.69 2.32 M29.29 45.34 C44.94 27.54, 59.09 10.17, 66.69 2.32 M34.93 44.94 C48.73 26.54, 62.55 11.67, 71.67 2.68 M34.93 44.94 C44.18 32.59, 55.43 21.73, 71.67 2.68 M39.92 45.3 C54.23 31.5, 66.69 14, 77.32 2.28 M39.92 45.3 C54.33 29.76, 67.9 13.35, 77.32 2.28 M45.56 44.91 C56.89 30.17, 73.58 16.3, 82.3 2.64 M45.56 44.91 C53.61 34.75, 61.81 25.88, 82.3 2.64 M50.55 45.27 C64.17 31.2, 75.81 17.86, 87.29 3 M50.55 45.27 C59.9 33.21, 69.66 23.01, 87.29 3 M56.19 44.87 C70.27 26.83, 86.25 10.93, 92.93 2.61 M56.19 44.87 C66.71 32.12, 78.3 20.95, 92.93 2.61 M61.18 45.23 C73.92 33.25, 84.38 19.59, 97.92 2.97 M61.18 45.23 C73.08 29.96, 85.35 16.58, 97.92 2.97 M66.17 45.59 C79.52 28.71, 96.16 10.4, 103.56 2.58 M66.17 45.59 C80.23 30.52, 91.81 15.67, 103.56 2.58 M71.81 45.2 C86.12 29.78, 98.46 14.85, 108.55 2.94 M71.81 45.2 C78.98 36.53, 86.3 27.05, 108.55 2.94 M76.8 45.56 C90.23 26.93, 107.33 10.25, 114.19 2.54 M76.8 45.56 C85.4 35.91, 94.45 26.67, 114.19 2.54 M82.44 45.16 C88.57 35.38, 97.01 27.28, 119.18 2.9 M82.44 45.16 C97.26 28.1, 110.9 10.41, 119.18 2.9 M87.43 45.53 C94.8 37.66, 102.7 28.08, 124.82 2.51 M87.43 45.53 C97.8 33.25, 107.14 22.06, 124.82 2.51 M93.07 45.13 C101.5 37.55, 108.34 25.39, 129.81 2.87 M93.07 45.13 C107.56 27.84, 122.19 11.85, 129.81 2.87 M98.06 45.49 C107.47 36.06, 115.95 24.48, 134.8 3.23 M98.06 45.49 C110.65 29.75, 124.49 14.83, 134.8 3.23 M103.7 45.1 C115.62 29.86, 127.34 17.97, 140.44 2.83 M103.7 45.1 C117.96 28.86, 132.58 11.56, 140.44 2.83 M108.69 45.46 C115.99 38.4, 123.1 27.79, 145.43 3.19 M108.69 45.46 C121.74 30.03, 135.83 15.49, 145.43 3.19 M114.33 45.06 C127.14 28.87, 141.32 14.15, 151.07 2.8 M114.33 45.06 C125.87 32.66, 137.88 17.47, 151.07 2.8 M119.32 45.42 C128.27 34.95, 137.61 25.08, 156.06 3.16 M119.32 45.42 C132.02 30.41, 147.32 14.91, 156.06 3.16 M124.31 45.78 C136.15 32.51, 144.44 21.5, 161.7 2.76 M124.31 45.78 C132.29 35.12, 142.51 24.18, 161.7 2.76 M129.95 45.39 C139.77 33.42, 152.48 22.06, 168 1.61 M129.95 45.39 C141.49 34.04, 150.77 21.51, 168 1.61 M134.94 45.75 C143.23 36.8, 151.91 27.35, 170.36 4.99 M134.94 45.75 C147.44 31.88, 159.84 15.78, 170.36 4.99 M140.58 45.35 C151.66 33, 161.84 19.98, 173.38 7.62 M140.58 45.35 C150.65 33.41, 160.08 22.07, 173.38 7.62 M145.57 45.71 C152.2 40.15, 158.04 30.7, 173.78 13.26 M145.57 45.71 C157.89 32.15, 167.77 20.33, 173.78 13.26 M151.21 45.32 C157.01 41.05, 163.19 33.52, 173.51 19.66 M151.21 45.32 C159.51 35.46, 168.15 25.57, 173.51 19.66 M156.2 45.68 C159.46 41.61, 165.18 35.82, 173.25 26.06 M156.2 45.68 C159.78 42.21, 162.6 36.61, 173.25 26.06 M162.5 44.53 C165.9 41.53, 167.97 39.04, 173.65 31.7 M162.5 44.53 C167.49 40.22, 170.47 35.07, 173.65 31.7" stroke="#15aabf" stroke-width="0.5" fill="none"></path><path d="M10.92 0 M10.92 0 C68.46 -1.15, 124.27 -2.79, 161.75 0 M10.92 0 C68.9 2.04, 126.99 0.57, 161.75 0 M161.75 0 C170.88 1.33, 171.39 2.11, 172.67 10.92 M161.75 0 C166.79 -0.25, 172.55 4.42, 172.67 10.92 M172.67 10.92 C173.78 17.29, 174.64 22.61, 172.67 32.75 M172.67 10.92 C172.93 15.27, 173.18 20.36, 172.67 32.75 M172.67 32.75 C170.98 41.76, 167.74 44.46, 161.75 43.67 M172.67 32.75 C172.14 38.16, 169.78 43.89, 161.75 43.67 M161.75 43.67 C131.54 43.66, 100.54 43.4, 10.92 43.67 M161.75 43.67 C108.3 43.89, 53.38 45.51, 10.92 43.67 M10.92 43.67 C4.87 42.92, 1.58 40.11, 0 32.75 M10.92 43.67 C2.01 42.4, -0.94 40.53, 0 32.75 M0 32.75 C-0.65 26.56, -0.5 17.88, 0 10.92 M0 32.75 C-1 24.81, -0.11 16.42, 0 10.92 M0 10.92 C0.44 4.27, 4.54 0.46, 10.92 0 M0 10.92 C0.33 2.57, 3.45 1.17, 10.92 0" stroke="#000000" stroke-width="1" fill="none"></path></g><g transform="translate(29.647688125073955 19.333328247070312) rotate(0 76.26995086669922 12.5)"><text x="76.26995086669922" y="0" font-family="Virgil, Segoe UI Emoji" font-size="20px" fill="#000000" text-anchor="middle" style="white-space: pre;" direction="ltr" dominant-baseline="text-before-edge">WASM nanoapps</text></g><g transform="translate(217.91760847419505 59) rotate(0 49.08997344970703 12.5)"><text x="0" y="0" font-family="Virgil, Segoe UI Emoji" font-size="20px" fill="#000000" text-anchor="start" style="white-space: pre;" direction="ltr" dominant-baseline="text-before-edge">CHRE API</text></g></svg>