<svg version="1.1" xmlns="http://www.w3.org/2000/svg" viewBox="0 0 586.9598388671875 316" width="586.9598388671875" height="316">
  <!-- svg-source:excalidraw -->
  
  <defs>
    <style class="style-fonts">
      @font-face {
        font-family: "Virgil";
        src: url("https://file%2B.vscode-resource.vscode-cdn.net/c%3A/Users/jiongqia/.vscode/extensions/pomdtr.excalidraw-editor-3.5.1/public//dist/excalidraw-assets/Virgil.woff2");
      }
      @font-face {
        font-family: "Cascadia";
        src: url("https://file%2B.vscode-resource.vscode-cdn.net/c%3A/Users/jiongqia/.vscode/extensions/pomdtr.excalidraw-editor-3.5.1/public//dist/excalidraw-assets/Cascadia.woff2");
      }
    </style>
  </defs>
  <rect x="0" y="0" width="586.9598388671875" height="316" fill="#ffffff"></rect><g stroke-linecap="round" transform="translate(10 144) rotate(0 156.5 81)"><path d="M7.86 8.16 C7.86 8.16, 7.86 8.16, 7.86 8.16 M7.86 8.16 C7.86 8.16, 7.86 8.16, 7.86 8.16 M3.66 19.09 C10.98 12.03, 13.29 7.14, 18.1 2.48 M3.66 19.09 C8.61 11.59, 15.82 6.73, 18.1 2.48 M2.75 26.24 C6.81 19.97, 13.98 13.39, 24.4 1.33 M2.75 26.24 C8.06 19.18, 15.53 11.63, 24.4 1.33 M2.48 32.64 C9.79 25.11, 13.65 17.36, 30.7 0.18 M2.48 32.64 C9.53 24.94, 15.11 18.23, 30.7 0.18 M2.88 38.28 C11.26 30.43, 14.7 25.59, 34.37 2.05 M2.88 38.28 C13.28 28.16, 21.15 17.09, 34.37 2.05 M2.62 44.68 C11.62 33.1, 22.44 22.54, 39.36 2.41 M2.62 44.68 C18.2 27.75, 31.08 12.1, 39.36 2.41 M2.36 51.07 C13.94 37.94, 21.32 26.87, 45 2.02 M2.36 51.07 C19.5 30.84, 36.24 13, 45 2.02 M2.75 56.72 C18.84 37.94, 34.63 20.55, 49.99 2.38 M2.75 56.72 C12.05 45.51, 22.49 35.32, 49.99 2.38 M2.49 63.11 C20.63 42.07, 37.9 22.91, 55.63 1.98 M2.49 63.11 C18.8 42.98, 36.08 23.47, 55.63 1.98 M2.88 68.76 C27.3 42.68, 46.8 18.46, 60.62 2.34 M2.88 68.76 C26.94 42.47, 50.19 16.3, 60.62 2.34 M2.62 75.16 C20.35 52.28, 38.09 32.66, 66.26 1.95 M2.62 75.16 C22.74 51.12, 43.59 27.72, 66.26 1.95 M2.36 81.55 C23.4 56, 46.11 29.86, 71.25 2.31 M2.36 81.55 C23.32 56.88, 45.77 32.78, 71.25 2.31 M2.76 87.2 C28.38 61.84, 50.97 34.27, 76.89 1.91 M2.76 87.2 C15.98 70.53, 31.16 53.02, 76.89 1.91 M2.49 93.59 C28.78 63.17, 57.49 27.32, 81.88 2.27 M2.49 93.59 C29.47 62.52, 54.14 32.59, 81.88 2.27 M2.89 99.24 C25.57 72.44, 51.2 45.56, 87.52 1.88 M2.89 99.24 C25.68 75.77, 45.86 50.47, 87.52 1.88 M2.63 105.64 C24.48 81.61, 42.64 59.06, 92.51 2.24 M2.63 105.64 C22.54 80.13, 44.65 56.35, 92.51 2.24 M2.37 112.03 C29.62 82.67, 52.08 53.11, 98.15 1.85 M2.37 112.03 C31.56 77.64, 61.93 41.69, 98.15 1.85 M2.76 117.68 C24.27 92.94, 44.07 67.15, 103.14 2.21 M2.76 117.68 C26.68 88.61, 50 61.43, 103.14 2.21 M2.5 124.07 C42.89 75.57, 83.59 27.04, 108.78 1.81 M2.5 124.07 C36.81 82.55, 73.13 43.08, 108.78 1.81 M2.89 129.72 C35.07 93.34, 68.65 55.79, 113.77 2.17 M2.89 129.72 C46.1 80.52, 89.24 30.21, 113.77 2.17 M1.32 137.62 C46.07 85.04, 90.27 33.74, 119.41 1.78 M1.32 137.62 C48.41 85.07, 93.24 32.97, 119.41 1.78 M2.37 142.51 C28.55 111.32, 57.2 81.28, 124.4 2.14 M2.37 142.51 C43.85 94.45, 85.13 46.82, 124.4 2.14 M4.08 146.65 C28.53 117.63, 55 88.27, 130.04 1.74 M4.08 146.65 C34.56 111.1, 67.39 74.15, 130.04 1.74 M5.78 150.78 C37.08 116.92, 66.2 77.87, 135.03 2.1 M5.78 150.78 C54.2 94.76, 102.43 40.54, 135.03 2.1 M8.8 153.4 C41.84 112.37, 76.88 74.79, 140.67 1.71 M8.8 153.4 C44.69 112.21, 80.9 70.25, 140.67 1.71 M11.82 156.03 C55.96 103.31, 101.67 48.73, 145.66 2.07 M11.82 156.03 C62.27 97.21, 113.66 37.26, 145.66 2.07 M14.19 159.41 C65.42 103.22, 115.33 43.89, 150.65 2.43 M14.19 159.41 C50.29 117.76, 86.09 76.36, 150.65 2.43 M18.52 160.52 C49.29 124.9, 81.87 87.66, 156.29 2.03 M18.52 160.52 C59.8 112.87, 100.23 65.41, 156.29 2.03 M22.85 161.64 C76.55 100.45, 131.5 36.19, 161.28 2.39 M22.85 161.64 C78.15 98.11, 133.94 35.06, 161.28 2.39 M26.52 163.51 C77.61 107.23, 125.97 50.05, 166.92 2 M26.52 163.51 C64.42 119.73, 101.41 76.26, 166.92 2 M32.82 162.36 C62.16 132.01, 91.33 96.51, 171.91 2.36 M32.82 162.36 C82.41 106.67, 131.46 51.46, 171.91 2.36 M37.81 162.72 C76.51 119.32, 113.26 74.24, 177.55 1.96 M37.81 162.72 C75.16 121.72, 111.23 79.21, 177.55 1.96 M43.45 162.32 C86.15 112.69, 127.39 64.27, 182.54 2.32 M43.45 162.32 C89.33 108.65, 135.81 57.18, 182.54 2.32 M48.44 162.68 C88.5 117.97, 131.11 69.73, 188.18 1.93 M48.44 162.68 C84.99 121.7, 121.02 80.34, 188.18 1.93 M54.08 162.29 C88.96 122.52, 122.48 83.75, 193.17 2.29 M54.08 162.29 C91.1 122.59, 125.57 80.38, 193.17 2.29 M59.07 162.65 C89.98 127.06, 124.7 88.76, 198.81 1.9 M59.07 162.65 C99.08 117.46, 138.71 72.48, 198.81 1.9 M64.71 162.25 C117.89 102.59, 168.84 43.9, 203.8 2.26 M64.71 162.25 C117 102.18, 170.62 41.06, 203.8 2.26 M69.7 162.61 C105.65 121.49, 138.82 83.35, 209.44 1.86 M69.7 162.61 C121.15 103.86, 171.39 46.22, 209.44 1.86 M75.34 162.22 C116.83 117.79, 156.77 68.68, 214.43 2.22 M75.34 162.22 C115.4 116.36, 154.13 71.59, 214.43 2.22 M80.33 162.58 C110.32 127.43, 142.71 91.68, 220.07 1.83 M80.33 162.58 C128.11 106.65, 177.06 50.77, 220.07 1.83 M85.97 162.18 C117.48 127.93, 146.42 92.28, 225.06 2.19 M85.97 162.18 C118.54 124.31, 151.52 86.95, 225.06 2.19 M90.96 162.54 C139.54 104.01, 189.35 47.97, 230.7 1.79 M90.96 162.54 C136.91 109.32, 182.14 56.56, 230.7 1.79 M95.95 162.9 C151.94 100.71, 207.84 36.17, 235.69 2.15 M95.95 162.9 C132.92 120.17, 169.5 78.77, 235.69 2.15 M101.59 162.51 C157.34 97.28, 213.59 33.42, 241.33 1.76 M101.59 162.51 C156.47 98.96, 210.71 36.73, 241.33 1.76 M106.58 162.87 C150.04 110.85, 191.79 62.07, 246.32 2.12 M106.58 162.87 C149.33 117.06, 190.39 69.82, 246.32 2.12 M112.22 162.48 C142.2 128.97, 170.35 93.07, 251.96 1.72 M112.22 162.48 C149.06 119.7, 184.73 77.85, 251.96 1.72 M117.21 162.84 C154.08 118.64, 189.91 74.97, 256.95 2.08 M117.21 162.84 C173.01 100.2, 227.55 37.54, 256.95 2.08 M122.85 162.44 C177.3 102.14, 229.73 38.02, 262.59 1.69 M122.85 162.44 C163.02 115.08, 201.76 68.57, 262.59 1.69 M127.84 162.8 C184.66 98.39, 239.21 37.43, 267.58 2.05 M127.84 162.8 C175.11 108.16, 222.08 54.97, 267.58 2.05 M133.48 162.41 C165.11 123.96, 201.56 86.34, 272.56 2.41 M133.48 162.41 C163.46 125.38, 194.33 88.24, 272.56 2.41 M138.47 162.77 C171.64 123.68, 207.78 83.92, 278.21 2.01 M138.47 162.77 C171.79 127.51, 202.43 92.28, 278.21 2.01 M144.11 162.37 C179.03 125.1, 212.33 85.42, 283.19 2.37 M144.11 162.37 C182.48 121.22, 220.43 77.43, 283.19 2.37 M149.1 162.73 C180.9 127.75, 210.35 91.09, 289.49 1.22 M149.1 162.73 C187.97 117.41, 227.46 73.3, 289.49 1.22 M154.74 162.34 C202.79 109.01, 251.77 51.26, 293.82 2.34 M154.74 162.34 C185.47 128.24, 215.55 91.97, 293.82 2.34 M159.73 162.7 C204.43 108.86, 250.33 56.54, 297.5 4.21 M159.73 162.7 C193.29 124.47, 226.54 86.7, 297.5 4.21 M165.37 162.3 C202.32 120.18, 241.2 76.14, 301.83 5.32 M165.37 162.3 C208.38 112.05, 251.68 61.77, 301.83 5.32 M170.36 162.66 C202.39 126.43, 233.72 91.05, 304.19 8.7 M170.36 162.66 C219.84 102.99, 271.31 43.19, 304.19 8.7 M176 162.27 C210.21 124.45, 244.65 86.44, 307.21 11.33 M176 162.27 C202.07 130.96, 229.08 100.95, 307.21 11.33 M180.99 162.63 C229.64 105.59, 279 46.67, 310.23 13.95 M180.99 162.63 C217.34 119.83, 256.22 76.73, 310.23 13.95 M186.63 162.23 C216.44 125.6, 247.49 91.93, 311.28 18.84 M186.63 162.23 C232.2 110.8, 275.86 57.5, 311.28 18.84 M191.62 162.59 C227.92 122, 262.66 78.66, 312.33 23.73 M191.62 162.59 C224.72 124.38, 258.06 86.74, 312.33 23.73 M197.26 162.2 C236.87 112.63, 278.01 63.73, 313.38 28.62 M197.26 162.2 C229.12 124.33, 263.93 85.69, 313.38 28.62 M202.25 162.56 C235.66 126.69, 266.8 88.35, 314.43 33.5 M202.25 162.56 C241.64 115.52, 283.65 68.14, 314.43 33.5 M207.23 162.92 C246.73 114.64, 290.36 63.97, 314.83 39.15 M207.23 162.92 C237.94 126.29, 270.53 89.9, 314.83 39.15 M212.88 162.53 C247.93 122.21, 280.72 81.62, 314.57 45.55 M212.88 162.53 C244.96 123.72, 277.94 87.41, 314.57 45.55 M217.86 162.89 C246.17 128.88, 275.08 96.61, 314.3 51.94 M217.86 162.89 C248.56 129.25, 277.14 94.2, 314.3 51.94 M223.51 162.49 C242.69 139.44, 261.54 117.78, 314.7 57.59 M223.51 162.49 C243.38 139.89, 261.42 117.65, 314.7 57.59 M228.49 162.85 C259.39 129.42, 289.78 94.49, 314.44 63.98 M228.49 162.85 C254.87 132.05, 284.12 99.18, 314.44 63.98 M234.14 162.46 C262.3 128.52, 291.85 97.41, 314.83 69.63 M234.14 162.46 C253.14 138.64, 273.21 117.63, 314.83 69.63 M239.12 162.82 C264.58 134.3, 291.41 104.35, 314.57 76.02 M239.12 162.82 C261.61 135.87, 283.75 110.34, 314.57 76.02 M244.77 162.42 C268.38 132.94, 295.71 107.03, 314.31 82.42 M244.77 162.42 C266.01 137.46, 288.95 112.23, 314.31 82.42 M249.75 162.78 C265.87 144.02, 277.71 126.01, 314.7 88.07 M249.75 162.78 C267.14 143.29, 283.28 124.95, 314.7 88.07 M255.4 162.39 C273.78 141.23, 291.71 116.71, 314.44 94.46 M255.4 162.39 C271.61 142.39, 290.51 122.65, 314.44 94.46 M260.38 162.75 C276.14 147.79, 289.93 130.15, 314.84 100.11 M260.38 162.75 C281.5 138.62, 302.48 113.32, 314.84 100.11 M266.03 162.35 C281.3 140.8, 300.04 124.09, 314.58 106.5 M266.03 162.35 C282.2 143.43, 297.16 125.94, 314.58 106.5 M271.01 162.71 C279.63 150.95, 290.87 142.12, 314.31 112.9 M271.01 162.71 C287.92 143.69, 306.08 122.84, 314.31 112.9 M276.66 162.32 C290.67 147.3, 305.36 129.06, 314.71 118.55 M276.66 162.32 C287.91 149.28, 299.78 134.73, 314.71 118.55 M281.64 162.68 C288.93 152.77, 298.05 147.84, 314.45 124.94 M281.64 162.68 C291.54 150.92, 303.41 138.33, 314.45 124.94 M287.94 161.53 C294.11 153.26, 302.28 142.45, 314.19 131.34 M287.94 161.53 C294.65 154.35, 299.91 147.34, 314.19 131.34 M293.59 161.13 C297.75 155.43, 304.28 147.08, 313.27 138.49 M293.59 161.13 C298.26 155.88, 303.55 149.37, 313.27 138.49" stroke="#228be6" stroke-width="0.5" fill="none"></path><path d="M32 0 M32 0 C128.86 1.37, 225.24 2.08, 281 0 M32 0 C95.13 1.15, 158.65 0.72, 281 0 M281 0 C301.54 0.3, 312.33 10.22, 313 32 M281 0 C302.55 -0.66, 310.83 10.7, 313 32 M313 32 C311.08 69.25, 314.02 109.69, 313 130 M313 32 C314.22 67.48, 312.85 102.26, 313 130 M313 130 C312.71 149.72, 300.86 160.68, 281 162 M313 130 C312.9 150.56, 304.01 163.01, 281 162 M281 162 C197.61 163.13, 113.35 162.78, 32 162 M281 162 C217.52 162.65, 155.42 163.39, 32 162 M32 162 C9.54 161.81, 0.02 152.95, 0 130 M32 162 C9.3 160.66, 2.28 149.68, 0 130 M0 130 C0 100.99, 0.75 74.44, 0 32 M0 130 C-0.87 103.12, 0.03 74.61, 0 32 M0 32 C0.92 9.14, 9.61 -0.45, 32 0 M0 32 C1.79 12.71, 11.28 1.06, 32 0" stroke="#000000" stroke-width="1" fill="none"></path></g><g transform="translate(105.60005187988281 149) rotate(0 60.89994812011719 12.5)"><text x="60.89994812011719" y="0" font-family="Virgil, Segoe UI Emoji" font-size="20px" fill="#000000" text-anchor="middle" style="white-space: pre;" direction="ltr" dominant-baseline="text-before-edge">Native world</text></g><g stroke-linecap="round" transform="translate(136 201) rotate(0 88 45.5)"><path d="M2.94 9.18 C2.94 9.18, 2.94 9.18, 2.94 9.18 M2.94 9.18 C2.94 9.18, 2.94 9.18, 2.94 9.18 M0.71 17.84 C3.17 16.76, 3.81 11.79, 11.21 5.77 M0.71 17.84 C2.96 14.63, 5.71 12.6, 11.21 5.77 M0.45 24.24 C4.83 19.25, 13.82 9.56, 18.16 3.87 M0.45 24.24 C6.08 18.45, 11.65 10.75, 18.16 3.87 M0.85 29.89 C10.37 19.83, 15.1 13.31, 25.12 1.96 M0.85 29.89 C8.58 22.69, 15.26 13.09, 25.12 1.96 M0.58 36.28 C11.01 23.04, 22.06 11.51, 30.11 2.32 M0.58 36.28 C9 28.46, 15.57 19.5, 30.11 2.32 M0.98 41.93 C8.76 33.74, 13.66 23.6, 35.75 1.93 M0.98 41.93 C11.83 29.6, 21.09 17.56, 35.75 1.93 M0.72 48.32 C9.29 36.89, 17.17 27.9, 40.74 2.29 M0.72 48.32 C14.33 31.4, 29.89 15.13, 40.74 2.29 M0.46 54.72 C15.01 38.38, 31.91 20.1, 46.38 1.89 M0.46 54.72 C15.34 37.84, 29.45 20.5, 46.38 1.89 M0.85 60.36 C12.77 49.69, 23.16 36, 51.37 2.25 M0.85 60.36 C17.24 41.91, 32.94 24.53, 51.37 2.25 M0.59 66.76 C22.76 42.21, 43.93 17, 57.01 1.86 M0.59 66.76 C21.88 42.56, 42.72 19.28, 57.01 1.86 M0.98 72.41 C17.39 50.05, 37.68 30.99, 62 2.22 M0.98 72.41 C23.67 46.2, 47.79 18.83, 62 2.22 M3.35 75.78 C18.89 58.61, 32.33 41.91, 67.64 1.82 M3.35 75.78 C25.02 50.87, 45.05 27.1, 67.64 1.82 M4.4 80.67 C27.74 55.29, 49.29 31.72, 72.63 2.18 M4.4 80.67 C21.54 60.75, 37.8 41.63, 72.63 2.18 M6.1 84.81 C24.23 64.11, 41.76 45.02, 78.27 1.79 M6.1 84.81 C21.94 65.02, 40.88 44.53, 78.27 1.79 M9.12 87.43 C34.09 58.04, 57.69 29.75, 83.26 2.15 M9.12 87.43 C27.82 66.44, 45.99 46.47, 83.26 2.15 M12.14 90.06 C38.71 59.61, 64.58 27.44, 88.9 1.75 M12.14 90.06 C30.47 66.8, 51.37 44.23, 88.9 1.75 M16.47 91.17 C38.17 66.59, 58.27 44.96, 93.89 2.11 M16.47 91.17 C39.74 65.38, 63.17 38.03, 93.89 2.11 M20.8 92.28 C47.76 62.1, 73.65 29.65, 99.53 1.72 M20.8 92.28 C41.27 69.64, 62.89 46.91, 99.53 1.72 M25.13 93.4 C42.58 74.27, 60.06 55.86, 104.52 2.08 M25.13 93.4 C56.06 58.19, 87.27 21.88, 104.52 2.08 M30.78 93 C49 72.44, 68.91 50.59, 110.16 1.69 M30.78 93 C50.01 71.59, 68.13 49.35, 110.16 1.69 M35.76 93.37 C66.05 58.61, 92.58 27.23, 115.15 2.05 M35.76 93.37 C58.04 66.68, 82.34 41.44, 115.15 2.05 M41.41 92.97 C61.65 67.28, 84.58 41.46, 120.79 1.65 M41.41 92.97 C66.72 65.29, 90.74 36.85, 120.79 1.65 M46.39 93.33 C66.66 71.39, 89.75 45.03, 125.78 2.01 M46.39 93.33 C63.45 73.87, 80.51 56.58, 125.78 2.01 M52.04 92.94 C77.42 64.18, 103.63 34.63, 130.76 2.37 M52.04 92.94 C76.91 64.16, 102.6 34.12, 130.76 2.37 M57.02 93.3 C83.09 60.34, 113.28 28.99, 136.41 1.98 M57.02 93.3 C86.44 60.9, 114.48 26.93, 136.41 1.98 M62.67 92.9 C85.62 66.01, 107.28 38.68, 141.39 2.34 M62.67 92.9 C81.27 71.36, 101.93 48.93, 141.39 2.34 M67.65 93.26 C87.46 74.3, 103.06 53.57, 147.04 1.94 M67.65 93.26 C86.17 73.19, 103.16 54.49, 147.04 1.94 M73.3 92.87 C97.58 63.32, 122.79 35.18, 153.99 0.04 M73.3 92.87 C101.43 61.06, 130.29 27.8, 153.99 0.04 M78.28 93.23 C95.66 73.05, 110.72 55.55, 158.32 1.15 M78.28 93.23 C96.35 71.11, 114.28 49.68, 158.32 1.15 M83.27 93.59 C108.87 64.79, 132.09 35.73, 162.65 2.27 M83.27 93.59 C101.55 70.67, 122.96 47.69, 162.65 2.27 M88.91 93.19 C115.99 63.79, 139.73 35.07, 166.99 3.38 M88.91 93.19 C112.39 65.8, 135.4 38.71, 166.99 3.38 M93.9 93.55 C115.51 69.12, 135.82 43.05, 170 6.01 M93.9 93.55 C115.74 69.01, 135.78 43.45, 170 6.01 M99.54 93.16 C124.73 64.51, 154.31 33.45, 173.02 8.63 M99.54 93.16 C126.89 64.02, 152.41 33.82, 173.02 8.63 M104.53 93.52 C122.98 73.26, 139.77 50.15, 174.07 13.52 M104.53 93.52 C124.72 71.1, 143.14 48.03, 174.07 13.52 M110.17 93.12 C122.23 77, 137.43 59.26, 175.78 17.65 M110.17 93.12 C129.35 70.7, 149.97 47.22, 175.78 17.65 M115.16 93.48 C132.93 76.57, 146.31 55.7, 176.18 23.3 M115.16 93.48 C128.57 78.83, 141.28 63.03, 176.18 23.3 M120.81 93.09 C138.53 72.96, 154.91 52.51, 175.91 29.69 M120.81 93.09 C137.91 71.71, 156.17 52.83, 175.91 29.69 M125.79 93.45 C145.5 72.5, 161.59 51.26, 175.65 36.09 M125.79 93.45 C135.81 80.68, 146.97 69.46, 175.65 36.09 M131.44 93.05 C141.54 83.74, 152.64 71.09, 176.05 41.73 M131.44 93.05 C148.56 74.14, 166.43 54.39, 176.05 41.73 M136.42 93.41 C143.68 83.26, 156 74.27, 175.79 48.13 M136.42 93.41 C146.21 82.08, 157.12 69.38, 175.79 48.13 M142.07 93.02 C150.12 84.28, 155.96 77.54, 176.18 53.78 M142.07 93.02 C151.41 81.23, 163.12 69.85, 176.18 53.78 M147.05 93.38 C152.94 86.06, 162.31 76.77, 175.92 60.17 M147.05 93.38 C156.05 82.67, 164.24 72.49, 175.92 60.17 M154.01 91.48 C160.48 82.68, 166.79 75.17, 176.31 65.82 M154.01 91.48 C160.69 83.72, 167.6 77.13, 176.31 65.82 M160.31 90.33 C165.59 82.75, 169.7 76.92, 178.02 69.95 M160.31 90.33 C163.55 86.51, 166.93 82.61, 178.02 69.95 M167.26 88.42 C170 85.53, 171.14 83.66, 175.79 78.61 M167.26 88.42 C169.38 86.48, 171.19 84.88, 175.79 78.61" stroke="#15aabf" stroke-width="0.5" fill="none"></path><path d="M22.75 0 M22.75 0 C73.27 -0.73, 124.14 -0.87, 153.25 0 M22.75 0 C68.32 -0.62, 112.75 -0.75, 153.25 0 M153.25 0 C167.73 -0.19, 176.91 6.75, 176 22.75 M153.25 0 C167.21 -0.31, 177.84 7.51, 176 22.75 M176 22.75 C175.51 32.8, 175.09 46.81, 176 68.25 M176 22.75 C177.22 39.67, 175.54 55.08, 176 68.25 M176 68.25 C175.91 82.15, 168.29 90.73, 153.25 91 M176 68.25 C176.44 82.01, 166.24 90.41, 153.25 91 M153.25 91 C116.56 89.88, 82.39 91.55, 22.75 91 M153.25 91 C102.44 89.97, 51.45 90.37, 22.75 91 M22.75 91 C8.35 90.99, -1.52 83.89, 0 68.25 M22.75 91 C9.7 90.34, -0.1 83.11, 0 68.25 M0 68.25 C-1.93 58.31, 1.3 47.2, 0 22.75 M0 68.25 C0.64 57.18, 1.11 47.91, 0 22.75 M0 22.75 C1.68 5.87, 8.28 0.13, 22.75 0 M0 22.75 C-2.2 7.33, 6.64 1.79, 22.75 0" stroke="#000000" stroke-width="1" fill="none"></path></g><g transform="translate(166.9900360107422 206) rotate(0 57.00996398925781 12.5)"><text x="57.00996398925781" y="0" font-family="Virgil, Segoe UI Emoji" font-size="20px" fill="#000000" text-anchor="middle" style="white-space: pre;" direction="ltr" dominant-baseline="text-before-edge">WASM world</text></g><g stroke-linecap="round" transform="translate(32 208) rotate(0 36.5 29.5)"><path d="M3.47 16.27 C3.47 16.27, 3.47 16.27, 3.47 16.27 M3.47 16.27 C3.47 16.27, 3.47 16.27, 3.47 16.27 M4.04 22.37 C9.2 15.95, 10.88 11.44, 21.47 2 M3.05 23.94 C8.49 16.12, 14.77 9.33, 20.78 2.21 M0.17 31.3 C6.58 21.5, 14.22 14.87, 24.04 1.61 M1.37 31.32 C7.65 22.59, 14.52 15.41, 26.17 2.07 M0.99 34.51 C15.5 23.88, 22.45 11.75, 33.21 2.47 M3.27 35.2 C12.16 24.62, 22.2 14.41, 31.62 2.06 M4.21 41.4 C13.11 30.17, 22.52 18.6, 38.31 0.67 M4.82 39.28 C13.79 27.9, 25.04 14.58, 36.96 2.06 M4.96 43.42 C20.64 29.6, 32.79 13.94, 42.04 0.72 M6.14 42.11 C17.59 29.81, 29.51 18.01, 43.12 1.13 M8.15 44.51 C18.98 34.21, 27.2 24.95, 48.21 2.24 M8.35 45.92 C20.36 33.22, 32.87 20.51, 46.36 2.57 M11.41 51.94 C17.91 41.89, 28.94 30.74, 50.56 4.54 M11.03 49.93 C24.78 34.89, 35.98 20.9, 51.74 4.94 M13.99 52.93 C21.41 39.87, 31.08 32.07, 52.55 5.81 M13.73 51.36 C23.85 42.16, 34.27 30.23, 55.39 5.7 M18.55 56.07 C28.18 40.4, 39.22 26.2, 58.21 9.42 M18.24 53.37 C33.88 37.05, 48.01 19.21, 57.95 7.98 M23.93 55.39 C36.46 41.14, 46.93 26.03, 63.11 11.34 M22.04 55.48 C32.75 44.25, 40.79 35.04, 62.16 10.37 M26.26 56.02 C34.76 45.69, 44.78 33.94, 64.68 11.76 M25.88 57.73 C37.59 44.67, 47.94 32.03, 65.65 11.04 M28.47 58.06 C39.1 48.57, 48.54 37.69, 66.52 16.96 M29.87 58.96 C43.73 41.35, 59.22 24.94, 67.86 16.02 M37.93 56.92 C48.21 42.76, 60.07 31.5, 71.95 19.18 M35.73 57.59 C49.33 43.07, 62.16 26.96, 70.14 19.49 M40.86 56.01 C49.95 45.34, 61.23 37.72, 73.03 22.25 M41.69 56.74 C53.45 43.41, 65.7 30.14, 71.37 21.87 M47.18 54.83 C54.88 47.66, 63.75 41.69, 76.15 25.46 M47.95 56.77 C55.11 48.01, 62.2 41.81, 74.05 26.15 M55.46 54.08 C60.81 51.03, 66.61 42, 71.76 32.98 M54.21 56.83 C59.51 48.71, 66.92 39.95, 72.66 33.7" stroke="#fd7e14" stroke-width="0.5" fill="none"></path><path d="M19.92 3.37 C25.55 0.53, 34.39 -0.83, 41.57 0.22 C48.74 1.27, 57.87 5.63, 63 9.68 C68.12 13.74, 71.39 19.18, 72.31 24.56 C73.24 29.95, 71.83 36.85, 68.53 41.99 C65.23 47.13, 58.95 52.62, 52.51 55.41 C46.06 58.2, 36.93 59.67, 29.85 58.72 C22.78 57.78, 14.92 53.84, 10.05 49.76 C5.18 45.68, 1.69 39.85, 0.61 34.24 C-0.46 28.63, 0.12 21.48, 3.62 16.1 C7.12 10.73, 18.26 4.37, 21.6 1.99 C24.95 -0.39, 23.23 1.21, 23.67 1.84 M29.93 0.74 C36.57 -0.22, 44.54 1.84, 51.15 4.37 C57.75 6.9, 66.04 11.09, 69.59 15.92 C73.13 20.75, 73.62 27.57, 72.42 33.37 C71.21 39.16, 67.32 46.3, 62.37 50.67 C57.42 55.04, 49.58 58.49, 42.7 59.58 C35.83 60.67, 27.7 59.9, 21.11 57.2 C14.52 54.5, 6.61 48.65, 3.17 43.37 C-0.28 38.09, -0.61 31.09, 0.43 25.52 C1.46 19.95, 4.25 13.97, 9.37 9.94 C14.5 5.92, 27.86 2.88, 31.16 1.37 C34.46 -0.15, 29.14 0.45, 29.16 0.86" stroke="#000000" stroke-width="1" fill="none"></path></g><g transform="translate(48.94661444958166 227.64034995499685) rotate(0 19.743988037109375 10)"><text x="19.743988037109375" y="0" font-family="Virgil, Segoe UI Emoji" font-size="16px" fill="#000000" text-anchor="middle" style="white-space: pre;" direction="ltr" dominant-baseline="text-before-edge">data</text></g><g stroke-linecap="round" transform="translate(251 37) rotate(0 36.5 47)"><path d="M4.86 4.22 C4.86 4.22, 4.86 4.22, 4.86 4.22 M4.86 4.22 C4.86 4.22, 4.86 4.22, 4.86 4.22 M1.32 14.39 C5.12 8.92, 8.91 4.92, 11.81 2.32 M1.32 14.39 C3.77 10.62, 7.38 7.65, 11.81 2.32 M1.05 20.79 C6.24 12, 15.56 5.28, 18.77 0.41 M1.05 20.79 C4.41 16.68, 9.22 11.89, 18.77 0.41 M0.79 27.19 C6.24 18.1, 14.49 11.47, 23.76 0.77 M0.79 27.19 C9.03 15.92, 19.87 5.39, 23.76 0.77 M1.19 32.83 C11.72 22.85, 20.23 11.41, 29.4 0.38 M1.19 32.83 C9.95 23.34, 17.76 14.2, 29.4 0.38 M0.93 39.23 C9.9 32.28, 13.62 24.98, 34.39 0.74 M0.93 39.23 C13.35 23.1, 26.87 9.21, 34.39 0.74 M0.66 45.63 C10.38 35.24, 15.1 25.58, 40.03 0.35 M0.66 45.63 C11.66 33.76, 21.57 20.06, 40.03 0.35 M1.06 51.27 C13.72 36.89, 22.47 23.83, 45.02 0.71 M1.06 51.27 C10.63 40.47, 17.91 30.76, 45.02 0.71 M0.8 57.67 C10.49 43.85, 21.34 32.83, 50.66 0.31 M0.8 57.67 C18.02 39.05, 34.19 20.4, 50.66 0.31 M0.54 64.07 C13.92 48.23, 23.28 35.99, 55.65 0.67 M0.54 64.07 C13.69 47.51, 28.75 31.68, 55.65 0.67 M0.93 69.71 C19.93 47.21, 39.65 23.01, 60.63 1.03 M0.93 69.71 C17.44 50.87, 34.14 31.8, 60.63 1.03 M0.67 76.11 C21.85 52.78, 40.81 29.49, 64.31 2.9 M0.67 76.11 C20.2 52.7, 40.1 30.43, 64.31 2.9 M1.72 81 C19 61.22, 36.02 45.67, 67.98 4.77 M1.72 81 C26.12 52.15, 49.98 24.65, 67.98 4.77 M2.77 85.88 C28.2 59.28, 49.64 31.15, 71 7.39 M2.77 85.88 C19.75 67.33, 37.45 47.58, 71 7.39 M5.13 89.26 C30.29 58.52, 56.76 30.46, 72.05 12.28 M5.13 89.26 C23.63 69.43, 39.64 50.19, 72.05 12.28 M8.15 91.89 C21.56 76.98, 38.33 60.48, 73.1 17.17 M8.15 91.89 C24.35 70.6, 42.63 50.45, 73.1 17.17 M11.83 93.76 C29.41 70.23, 48.83 49.99, 75.47 20.55 M11.83 93.76 C27.39 76.14, 43.71 59.48, 75.47 20.55 M15.5 95.63 C38.22 66.82, 62.58 42.43, 75.86 26.19 M15.5 95.63 C35.02 74.4, 52.13 53.77, 75.86 26.19 M21.15 95.23 C32.91 80.51, 49.84 65.09, 75.6 32.59 M21.15 95.23 C34.32 80.55, 47.25 67.36, 75.6 32.59 M26.13 95.59 C45.65 71.76, 64.2 51.11, 75.34 38.99 M26.13 95.59 C45.83 73.58, 64.22 53.84, 75.34 38.99 M31.78 95.2 C42.65 80.54, 55.07 69.93, 75.73 44.63 M31.78 95.2 C47.54 78.36, 61.83 59.77, 75.73 44.63 M36.76 95.56 C50.18 79.34, 64.15 65.95, 75.47 51.03 M36.76 95.56 C46.1 83.87, 56.63 71.11, 75.47 51.03 M42.41 95.16 C49.81 85.83, 58.66 74.06, 75.86 56.67 M42.41 95.16 C52.92 81.78, 65.71 68.08, 75.86 56.67 M47.39 95.52 C55.92 86.56, 62.02 80.97, 75.6 63.07 M47.39 95.52 C56.16 86.5, 63.36 76.77, 75.6 63.07 M52.38 95.88 C61.52 86.31, 66.01 77.36, 75.34 69.47 M52.38 95.88 C61.83 85.55, 71.46 74.47, 75.34 69.47 M57.37 96.24 C62.13 91.96, 67.81 83.71, 74.42 76.62 M57.37 96.24 C63.2 88.93, 71.2 80.94, 74.42 76.62" stroke="#15aabf" stroke-width="0.5" fill="none"></path><path d="M18.25 0 M18.25 0 C27.86 1.1, 34.83 1.04, 54.75 0 M18.25 0 C29.81 0.54, 40.17 0.51, 54.75 0 M54.75 0 C67.45 1.54, 71.78 4.36, 73 18.25 M54.75 0 C64.78 -1.18, 71.18 7.21, 73 18.25 M73 18.25 C71.94 39.74, 73.22 59.88, 73 75.75 M73 18.25 C72.44 33.64, 74.19 49.04, 73 75.75 M73 75.75 C71.92 87.83, 68.84 94.45, 54.75 94 M73 75.75 C72.08 86.69, 68.82 95.47, 54.75 94 M54.75 94 C42.52 95.8, 24.64 94.13, 18.25 94 M54.75 94 C43.32 94.77, 31.35 93.25, 18.25 94 M18.25 94 C4.5 94.2, 1.42 88.53, 0 75.75 M18.25 94 C8.04 95.88, 1.39 87.76, 0 75.75 M0 75.75 C-1.58 62.39, -1.54 46.04, 0 18.25 M0 75.75 C-0.83 56.59, -0.78 37.28, 0 18.25 M0 18.25 C1.27 5.43, 7.37 0.08, 18.25 0 M0 18.25 C-2.17 6.27, 6.75 1.13, 18.25 0" stroke="#000000" stroke-width="1" fill="none"></path></g><g transform="translate(259.7400131225586 59) rotate(0 27.759986877441406 25)"><text x="27.759986877441406" y="0" font-family="Virgil, Segoe UI Emoji" font-size="20px" fill="#000000" text-anchor="middle" style="white-space: pre;" direction="ltr" dominant-baseline="text-before-edge">WASM</text><text x="27.759986877441406" y="25" font-family="Virgil, Segoe UI Emoji" font-size="20px" fill="#000000" text-anchor="middle" style="white-space: pre;" direction="ltr" dominant-baseline="text-before-edge">apps</text></g><g stroke-linecap="round" transform="translate(10 10) rotate(0 32.5 51.5)"><path d="M2.48 6.13 C2.48 6.13, 2.48 6.13, 2.48 6.13 M2.48 6.13 C2.48 6.13, 2.48 6.13, 2.48 6.13 M1.56 13.28 C3.27 11.29, 4.94 9.61, 8.78 4.98 M1.56 13.28 C3.95 10.35, 6.26 7.1, 8.78 4.98 M1.3 19.68 C3.97 14.71, 9.03 10.19, 17.7 0.81 M1.3 19.68 C8.2 13.54, 12.59 6.24, 17.7 0.81 M1.69 25.32 C6.66 19.59, 13.93 12.92, 22.69 1.17 M1.69 25.32 C9.73 16.52, 16.44 7.69, 22.69 1.17 M1.43 31.72 C10.25 23.47, 17.62 13.18, 28.33 0.78 M1.43 31.72 C8.9 23.38, 14.83 15.71, 28.33 0.78 M1.83 37.36 C15.03 22.15, 25 8.55, 33.32 1.14 M1.83 37.36 C9.73 28.16, 17.77 20.09, 33.32 1.14 M1.56 43.76 C9.07 33.93, 18.52 24.72, 38.3 1.5 M1.56 43.76 C10.43 33.19, 19.06 22.88, 38.3 1.5 M1.96 49.4 C15.33 37.73, 24.38 21.9, 43.95 1.1 M1.96 49.4 C13.11 37.61, 22.26 26.01, 43.95 1.1 M1.7 55.8 C20.11 33.55, 38.99 14.93, 48.93 1.46 M1.7 55.8 C11.87 43.66, 20.1 32.7, 48.93 1.46 M2.09 61.44 C21.08 42.35, 36.1 21.04, 53.92 1.82 M2.09 61.44 C18.15 43.99, 33.56 24.9, 53.92 1.82 M1.83 67.84 C24.8 43.26, 44.88 19.57, 58.91 2.18 M1.83 67.84 C19 49.74, 34.69 29.93, 58.91 2.18 M2.22 73.48 C22.5 48.75, 45.86 20.95, 61.27 5.56 M2.22 73.48 C20.12 53.55, 37.56 35.24, 61.27 5.56 M1.96 79.88 C15.46 64.03, 28.13 48.57, 63.63 8.94 M1.96 79.88 C14.75 65.48, 28.75 49.58, 63.63 8.94 M2.36 85.53 C14.98 68.44, 30.75 53.7, 66.65 11.56 M2.36 85.53 C27.68 57.36, 50.34 30.87, 66.65 11.56 M2.1 91.92 C25.89 62.83, 52.73 31.12, 67.05 17.21 M2.1 91.92 C26.69 64.63, 51.57 33.93, 67.05 17.21 M3.8 96.06 C21.85 73.89, 40.76 53.53, 66.78 23.6 M3.8 96.06 C20.15 77.08, 37.3 56.1, 66.78 23.6 M6.17 99.44 C18.85 82.42, 31.13 67.19, 67.18 29.25 M6.17 99.44 C29.15 73.08, 51.1 47.19, 67.18 29.25 M8.53 102.81 C28.5 81.82, 47.68 58.15, 66.92 35.65 M8.53 102.81 C20.85 89.23, 34.79 73.78, 66.92 35.65 M13.52 103.17 C33.87 80.17, 52.27 58.82, 67.31 41.29 M13.52 103.17 C25.99 90.42, 35.53 77.78, 67.31 41.29 M18.5 103.53 C36.56 83.25, 58.14 61.22, 67.05 47.69 M18.5 103.53 C36.04 82.87, 52 64.71, 67.05 47.69 M24.15 103.14 C35.98 92.32, 43.06 78.05, 66.79 54.08 M24.15 103.14 C37.87 88.61, 50.85 72.51, 66.79 54.08 M29.13 103.5 C37.26 93.92, 46.88 81.03, 67.18 59.73 M29.13 103.5 C41.4 88.68, 54.47 74.06, 67.18 59.73 M34.78 103.11 C46.67 87.56, 58.44 76.58, 66.92 66.13 M34.78 103.11 C46.58 89.62, 57.09 77.59, 66.92 66.13 M40.42 102.71 C46.85 96.12, 54.58 85.36, 67.32 71.77 M40.42 102.71 C50.1 90.03, 60.87 78.02, 67.32 71.77 M45.41 103.07 C55.68 94.01, 61.06 84.48, 67.06 78.17 M45.41 103.07 C49.47 98.82, 54.43 93.41, 67.06 78.17 M51.05 102.68 C54.62 99.42, 56.13 95.87, 67.45 83.81 M51.05 102.68 C54.29 99.19, 58.29 94.58, 67.45 83.81 M56.69 102.28 C59.49 97.4, 63.52 94.76, 65.88 91.72 M56.69 102.28 C60 98.03, 63.52 94.54, 65.88 91.72" stroke="#228be6" stroke-width="0.5" fill="none"></path><path d="M16.25 0 M16.25 0 C27.74 -0.54, 38.2 0.31, 48.75 0 M16.25 0 C25.94 -0.87, 33.31 -0.54, 48.75 0 M48.75 0 C58.89 1.88, 66.78 6.49, 65 16.25 M48.75 0 C60.54 -0.25, 66.87 7.33, 65 16.25 M65 16.25 C64.06 31.96, 64.35 50.53, 65 86.75 M65 16.25 C65.86 34.54, 66.46 53.68, 65 86.75 M65 86.75 C64.03 96.06, 58.19 102.06, 48.75 103 M65 86.75 C63.3 98.83, 58.39 101.72, 48.75 103 M48.75 103 C36.72 102.84, 26.69 101.63, 16.25 103 M48.75 103 C40.8 103.48, 33.53 103.12, 16.25 103 M16.25 103 C4.9 104.45, 1.43 97.21, 0 86.75 M16.25 103 C5.4 104.42, -2.03 99.19, 0 86.75 M0 86.75 C-1.36 64.39, -0.28 45.72, 0 16.25 M0 86.75 C-0.8 59.66, 0.43 31.76, 0 16.25 M0 16.25 C1.77 4.34, 3.43 0.43, 16.25 0 M0 16.25 C-1.97 4.01, 5.9 0.03, 16.25 0" stroke="#000000" stroke-width="1" fill="none"></path></g><g transform="translate(20.370025634765625 49) rotate(0 22.129974365234375 12.5)"><text x="22.129974365234375" y="0" font-family="Virgil, Segoe UI Emoji" font-size="20px" fill="#000000" text-anchor="middle" style="white-space: pre;" direction="ltr" dominant-baseline="text-before-edge">Host</text></g><g stroke-linecap="round"><g transform="translate(85.32326637032008 55) rotate(0 81.13245622375729 4.188389915548299)"><path d="M0.38 1.15 C27.34 2.03, 134.05 5.56, 160.86 6.43 M-0.88 0.71 C26.54 2.24, 136.29 6.55, 163.14 7.66" stroke="#000000" stroke-width="1" fill="none"></path></g><g transform="translate(85.32326637032008 55) rotate(0 81.13245622375729 4.188389915548299)"><path d="M136.48 15.41 C139.96 13.92, 146.39 14.33, 164.16 8.42 M134.26 16.3 C143.21 13.96, 152.76 10.67, 162.21 6.91" stroke="#000000" stroke-width="1" fill="none"></path></g><g transform="translate(85.32326637032008 55) rotate(0 81.13245622375729 4.188389915548299)"><path d="M137.31 -5.09 C140.81 -1.94, 147.05 3.11, 164.16 8.42 M135.09 -4.21 C143.92 0.36, 153.19 3.98, 162.21 6.91" stroke="#000000" stroke-width="1" fill="none"></path></g></g><mask></mask><g transform="translate(88 20) rotate(0 69.39994049072266 12.5)"><text x="0" y="0" font-family="Virgil, Segoe UI Emoji" font-size="20px" fill="#000000" text-anchor="start" style="white-space: pre;" direction="ltr" dominant-baseline="text-before-edge">passing handle</text></g><g stroke-linecap="round" transform="translate(100 66) rotate(0 8 9)"><path d="M4.29 -0.24 C4.29 -0.24, 4.29 -0.24, 4.29 -0.24 M4.29 -0.24 C4.29 -0.24, 4.29 -0.24, 4.29 -0.24 M1.17 10.63 C3.1 7.71, 6.68 4.08, 8.04 -0.76 M-0.6 10.25 C3.68 6.1, 6.48 2.47, 9.9 -0.45 M3.74 14.83 C3.81 12.86, 7.04 10.41, 12.45 2.98 M2.51 14.29 C5.54 10.02, 9.18 6.46, 13 2.45 M6.92 17.1 C8.5 14.98, 8.7 11.06, 15.2 6.03 M5.42 16.55 C8.97 12, 13.94 8.17, 16.65 5.27 M8 19.25 C12.83 15.47, 15.24 12.48, 16.43 8.56 M9.27 18.51 C11.54 16.36, 13.21 13.19, 16.93 9.75" stroke="#82c91e" stroke-width="0.5" fill="none"></path><path d="M4.11 -0.04 C5.4 -0.87, 7.65 -0.14, 9.49 0.42 C11.33 0.97, 13.93 1.89, 15.14 3.31 C16.34 4.73, 16.91 6.94, 16.72 8.93 C16.54 10.93, 15.37 13.62, 14.04 15.27 C12.72 16.92, 10.54 18.8, 8.78 18.84 C7.01 18.87, 4.95 16.86, 3.44 15.47 C1.94 14.08, 0.18 12.08, -0.25 10.49 C-0.69 8.9, 0.06 7.54, 0.85 5.92 C1.65 4.3, 3.63 1.65, 4.5 0.76 C5.37 -0.13, 6.07 0.4, 6.06 0.58 M12.46 -0.35 C14.14 0.37, 14.59 2.69, 15.06 4.45 C15.52 6.21, 15.48 7.99, 15.25 10.2 C15.01 12.41, 14.82 16.47, 13.67 17.71 C12.53 18.95, 10.26 18.14, 8.38 17.62 C6.51 17.1, 3.98 16.06, 2.43 14.59 C0.88 13.12, -1.02 10.65, -0.92 8.81 C-0.82 6.97, 1.65 5.01, 3.03 3.54 C4.41 2.07, 6.01 0.38, 7.36 0.02 C8.71 -0.35, 10.2 1.25, 11.13 1.34 C12.06 1.42, 12.94 0.65, 12.95 0.55" stroke="#000000" stroke-width="1" fill="none"></path></g><g stroke-linecap="round"><g transform="translate(104.31189582549928 95.87821013244735) rotate(0 -16.823519966271533 54.290299379513925)"><path d="M-1.11 -0.76 C-5.28 8.9, -19.37 40.73, -24.61 59.08 C-29.85 77.43, -31.2 101.02, -32.54 109.34" stroke="#000000" stroke-width="1.5" fill="none" stroke-dasharray="8 9"></path></g><g transform="translate(104.31189582549928 95.87821013244735) rotate(0 -16.823519966271533 54.290299379513925)"><path d="M-39.58 85.94 C-37.89 92.64, -35.53 100.65, -34.37 111.03" stroke="#000000" stroke-width="1.5" fill="none"></path></g><g transform="translate(104.31189582549928 95.87821013244735) rotate(0 -16.823519966271533 54.290299379513925)"><path d="M-22.44 87.98 C-26.48 93.84, -29.84 101.17, -34.37 111.03" stroke="#000000" stroke-width="1.5" fill="none"></path></g></g><mask></mask><g transform="translate(105 95.5) rotate(0 60.29595947265625 20)"><text x="0" y="0" font-family="Virgil, Segoe UI Emoji" font-size="16px" fill="#000000" text-anchor="start" style="white-space: pre;" direction="ltr" dominant-baseline="text-before-edge">a value</text><text x="0" y="20" font-family="Virgil, Segoe UI Emoji" font-size="16px" fill="#000000" text-anchor="start" style="white-space: pre;" direction="ltr" dominant-baseline="text-before-edge">represent data</text></g><g stroke-linecap="round"><g transform="translate(331 74.25) rotate(0 -91.89028695707873 70.58946307963691)"><path d="M-0.41 0.43 C6.38 15.26, 70.36 69.89, 41.27 87.93 C12.18 105.97, -129.33 99.83, -174.97 108.67 C-220.6 117.51, -222.87 135.31, -232.55 140.99 M1.58 -0.38 C8.19 14.21, 69.49 67.93, 40.46 86.3 C11.44 104.66, -127.07 100.6, -172.58 109.81 C-218.09 119.02, -222.79 135.94, -232.59 141.56" stroke="#a61e4d" stroke-width="1" fill="none"></path></g><g transform="translate(331 74.25) rotate(0 -91.89028695707873 70.58946307963691)"><path d="M-217.4 115.73 C-221.77 122.64, -228.84 132.36, -234.28 139.85 M-217.97 115.06 C-222.57 124.36, -229.28 133.77, -233.45 141.53" stroke="#a61e4d" stroke-width="1" fill="none"></path></g><g transform="translate(331 74.25) rotate(0 -91.89028695707873 70.58946307963691)"><path d="M-203.89 131.17 C-212.76 132.74, -224.47 137.15, -234.28 139.85 M-204.46 130.5 C-213.91 134.25, -225.52 138.06, -233.45 141.53" stroke="#a61e4d" stroke-width="1" fill="none"></path></g></g><mask></mask><g transform="translate(358 80.25) rotate(0 12 8)" stroke="none"><path fill="#a61e4d" d="M 0,-2.55 Q 0,-2.55 1.15,-2.57 2.3,-2.60 3.39,-2.62 4.49,-2.64 5.69,-2.31 6.89,-1.97 7.87,-1.55 8.85,-1.13 10.86,0.20 12.87,1.54 14.04,2.55 15.22,3.57 16.14,4.73 17.07,5.88 18.43,7.21 19.78,8.53 21.66,9.85 23.54,11.16 24.41,12.18 25.29,13.21 25.70,13.49 26.11,13.77 26.41,14.17 26.71,14.56 26.87,15.03 27.03,15.50 27.03,16.00 27.03,16.50 26.87,16.97 26.71,17.44 26.40,17.84 26.10,18.23 25.69,18.51 25.28,18.79 24.80,18.92 24.32,19.05 23.82,19.02 23.33,18.99 22.87,18.81 22.40,18.62 22.03,18.30 21.65,17.98 21.39,17.55 21.14,17.13 21.03,16.64 20.93,16.15 20.98,15.66 21.04,15.17 21.25,14.72 21.46,14.26 21.80,13.90 22.14,13.54 22.58,13.31 23.02,13.08 23.51,13.00 24.00,12.92 24.49,13.00 24.98,13.09 25.42,13.32 25.86,13.55 26.20,13.92 26.54,14.28 26.75,14.73 26.96,15.18 27.01,15.67 27.06,16.17 26.95,16.65 26.85,17.14 26.59,17.56 26.33,17.99 25.95,18.31 25.57,18.63 25.11,18.81 24.65,19.00 24.15,19.02 23.66,19.05 23.18,18.91 22.70,18.78 22.70,18.78 22.70,18.78 20.88,17.17 19.06,15.55 18.15,14.55 17.23,13.56 16.08,12.34 14.93,11.12 13.28,9.44 11.63,7.75 10.69,6.96 9.74,6.17 8.56,5.41 7.39,4.65 6.15,3.89 4.91,3.12 3.60,2.86 2.3,2.60 1.15,2.57 0,2.55 -0.30,2.51 -0.61,2.47 -0.89,2.36 -1.18,2.26 -1.43,2.08 -1.69,1.91 -1.89,1.68 -2.10,1.45 -2.24,1.17 -2.38,0.90 -2.46,0.60 -2.53,0.30 -2.53,-0.00 -2.53,-0.30 -2.46,-0.60 -2.38,-0.90 -2.24,-1.17 -2.10,-1.45 -1.89,-1.68 -1.69,-1.91 -1.43,-2.08 -1.18,-2.26 -0.89,-2.36 -0.61,-2.47 -0.30,-2.51 0.00,-2.55 0.00,-2.55 L 0,-2.55 Z"></path></g><g transform="translate(382 69.25) rotate(0 -8 15.5)" stroke="none"><path fill="#a61e4d" d="M 1.85,1.85 Q 1.85,1.85 1.00,2.72 0.14,3.59 -0.79,4.53 -1.73,5.47 -2.71,6.43 -3.68,7.40 -4.28,8.70 -4.87,10.00 -5.49,11.17 -6.11,12.33 -7.12,13.38 -8.13,14.44 -8.40,15.73 -8.67,17.01 -9.19,18.71 -9.71,20.41 -10.14,21.71 -10.57,23.02 -11.16,24.43 -11.74,25.85 -11.96,27.11 -12.17,28.37 -12.41,29.76 -12.65,31.16 -12.76,31.69 -12.87,32.22 -13.15,32.68 -13.43,33.15 -13.84,33.50 -14.25,33.86 -14.75,34.06 -15.25,34.26 -15.80,34.30 -16.34,34.33 -16.86,34.19 -17.38,34.05 -17.83,33.74 -18.29,33.44 -18.62,33.01 -18.95,32.58 -19.12,32.07 -19.30,31.56 -19.30,31.02 -19.31,30.47 -19.14,29.96 -18.97,29.44 -18.64,29.01 -18.32,28.58 -17.87,28.27 -17.42,27.96 -16.90,27.81 -16.38,27.66 -15.84,27.69 -15.29,27.72 -14.79,27.91 -14.28,28.11 -13.87,28.46 -13.45,28.81 -13.17,29.27 -12.89,29.74 -12.77,30.26 -12.65,30.79 -12.70,31.33 -12.76,31.87 -12.98,32.37 -13.21,32.86 -13.58,33.26 -13.95,33.65 -14.43,33.91 -14.91,34.17 -15.44,34.26 -15.98,34.35 -16.51,34.26 -17.05,34.18 -17.53,33.93 -18.01,33.68 -18.38,33.28 -18.76,32.89 -18.99,32.40 -19.22,31.91 -19.28,31.37 -19.34,30.83 -19.34,30.83 -19.34,30.83 -18.62,27.59 -17.90,24.34 -17.38,23.31 -16.86,22.28 -16.34,20.81 -15.82,19.35 -15.32,18.24 -14.81,17.12 -14.56,15.88 -14.32,14.64 -13.76,13.23 -13.21,11.83 -11.89,10.10 -10.57,8.38 -9.64,6.98 -8.71,5.58 -8.07,4.65 -7.43,3.71 -6.45,2.72 -5.47,1.73 -4.53,0.79 -3.59,-0.14 -2.72,-1.00 -1.85,-1.85 -1.60,-2.04 -1.35,-2.24 -1.06,-2.37 -0.78,-2.50 -0.46,-2.56 -0.15,-2.61 0.15,-2.59 0.47,-2.57 0.77,-2.48 1.07,-2.39 1.34,-2.22 1.61,-2.06 1.84,-1.84 2.06,-1.61 2.22,-1.34 2.39,-1.07 2.48,-0.77 2.57,-0.47 2.59,-0.15 2.61,0.15 2.56,0.46 2.50,0.78 2.37,1.06 2.24,1.35 2.04,1.60 1.85,1.85 1.85,1.85 L 1.85,1.85 Z"></path></g><g transform="translate(389 108.25) rotate(0 93.97991943359375 25)"><text x="0" y="0" font-family="Virgil, Segoe UI Emoji" font-size="20px" fill="#a61e4d" text-anchor="start" style="white-space: pre;" direction="ltr" dominant-baseline="text-before-edge">can't access fileds</text><text x="0" y="25" font-family="Virgil, Segoe UI Emoji" font-size="20px" fill="#a61e4d" text-anchor="start" style="white-space: pre;" direction="ltr" dominant-baseline="text-before-edge">through pointer</text></g></svg>