<svg version="1.1" xmlns="http://www.w3.org/2000/svg" viewBox="0 0 476.3399316124618 239" width="476.3399316124618" height="239">
  <!-- svg-source:excalidraw -->
  
  <defs>
    <style class="style-fonts">
      @font-face {
        font-family: "Virgil";
        src: url("https://file%2B.vscode-resource.vscode-cdn.net/c%3A/Users/jiongqia/.vscode/extensions/pomdtr.excalidraw-editor-3.5.1/public//dist/excalidraw-assets/Virgil.woff2");
      }
      @font-face {
        font-family: "Cascadia";
        src: url("https://file%2B.vscode-resource.vscode-cdn.net/c%3A/Users/jiongqia/.vscode/extensions/pomdtr.excalidraw-editor-3.5.1/public//dist/excalidraw-assets/Cascadia.woff2");
      }
    </style>
  </defs>
  <rect x="0" y="0" width="476.3399316124618" height="239" fill="#ffffff"></rect><g stroke-linecap="round" transform="translate(21.919073167070735 122) rotate(0 115.49999999999997 53.5)"><path d="M6.46 6.94 C6.46 6.94, 6.46 6.94, 6.46 6.94 M6.46 6.94 C6.46 6.94, 6.46 6.94, 6.46 6.94 M3.58 16.36 C8.67 10.97, 11.29 9.37, 16.04 2.02 M3.58 16.36 C7.05 12.08, 9.85 9.84, 16.04 2.02 M3.32 22.76 C9.93 18.66, 14.31 11.24, 21.69 1.63 M3.32 22.76 C8.91 14.34, 15.9 7.42, 21.69 1.63 M3.06 29.16 C10.46 20.85, 17.07 10.04, 27.99 0.48 M3.06 29.16 C12.06 19.61, 20.59 10.03, 27.99 0.48 M3.45 34.8 C13.44 24.15, 19.14 13.55, 32.97 0.84 M3.45 34.8 C11.83 26.07, 19.1 15.56, 32.97 0.84 M3.19 41.2 C9.14 31.03, 20.13 23.83, 38.62 0.44 M3.19 41.2 C15.42 26.83, 30.01 10.29, 38.62 0.44 M2.93 47.6 C13.65 34.3, 25.8 20.13, 43.6 0.8 M2.93 47.6 C15.71 33.29, 28.54 18.16, 43.6 0.8 M3.32 53.24 C19.31 36.52, 34.44 16.53, 48.59 1.16 M3.32 53.24 C17.65 36.74, 32.86 19.81, 48.59 1.16 M3.06 59.64 C18.29 40.7, 35.97 20.13, 54.23 0.77 M3.06 59.64 C19.35 41.49, 35.58 20.75, 54.23 0.77 M3.46 65.28 C22.03 41.75, 41.67 22.01, 59.22 1.13 M3.46 65.28 C20.85 43.69, 38.89 22.57, 59.22 1.13 M3.19 71.68 C25 46.59, 48.22 20.07, 64.86 0.73 M3.19 71.68 C22.07 50.85, 39.19 30.02, 64.86 0.73 M2.93 78.07 C19.23 59.69, 37.94 39.14, 69.85 1.09 M2.93 78.07 C19.01 58.59, 35.65 39, 69.85 1.09 M0.7 86.74 C17.45 68.38, 30.26 50.52, 75.49 0.7 M0.7 86.74 C29.57 56, 56.16 23.98, 75.49 0.7 M2.41 90.87 C31.9 56.51, 64.34 22.7, 80.48 1.06 M2.41 90.87 C26.51 64.96, 48.54 37.45, 80.48 1.06 M3.46 95.76 C27.11 66.28, 52.29 40.68, 86.12 0.67 M3.46 95.76 C25.4 71.27, 46.17 48.51, 86.12 0.67 M6.48 98.38 C32.22 65.1, 59.14 36.38, 91.11 1.03 M6.48 98.38 C29.4 71.74, 51.3 45.73, 91.11 1.03 M8.84 101.76 C33.68 70.3, 59.3 42.49, 96.75 0.63 M8.84 101.76 C41.95 62.78, 76.67 25.21, 96.75 0.63 M11.86 104.39 C33.58 77.03, 58.79 50.22, 101.74 0.99 M11.86 104.39 C37.3 77.56, 60.35 50.17, 101.74 0.99 M15.54 106.26 C48.51 69.87, 81.25 32.94, 107.38 0.6 M15.54 106.26 C49.54 69.79, 81.56 30.76, 107.38 0.6 M20.52 106.62 C47.62 74.13, 75.49 44.55, 112.37 0.96 M20.52 106.62 C53.27 68.27, 85.94 30.45, 112.37 0.96 M25.51 106.98 C49.92 77.78, 75.22 49.02, 118.01 0.56 M25.51 106.98 C56.22 70.29, 87.06 35.26, 118.01 0.56 M29.18 108.85 C59.51 72.78, 90.59 36.52, 123 0.92 M29.18 108.85 C65.61 66.41, 101.82 25.97, 123 0.92 M34.17 109.21 C62.82 74.64, 92.15 45.76, 128.64 0.53 M34.17 109.21 C70.98 68.09, 107.63 25.44, 128.64 0.53 M39.81 108.81 C67.89 74.96, 97.4 42.04, 133.63 0.89 M39.81 108.81 C67.07 77.3, 93.67 43.68, 133.63 0.89 M44.8 109.17 C76.55 74.47, 104.97 43.28, 139.27 0.49 M44.8 109.17 C80.19 66.92, 116.8 26.19, 139.27 0.49 M50.44 108.78 C74.95 78.96, 102.73 46.45, 144.26 0.85 M50.44 108.78 C70.72 84.61, 93.4 60.6, 144.26 0.85 M55.43 109.14 C78.85 81.05, 102.87 56.61, 149.9 0.46 M55.43 109.14 C85.21 75.8, 115 41.46, 149.9 0.46 M61.07 108.74 C88.46 78.49, 119.07 45.81, 154.89 0.82 M61.07 108.74 C81.68 83.89, 103.54 57.88, 154.89 0.82 M66.06 109.1 C93.81 76.02, 126.35 40.33, 159.88 1.18 M66.06 109.1 C95.95 74.4, 126.47 40.5, 159.88 1.18 M71.7 108.71 C97.34 78.11, 126 51.17, 165.52 0.78 M71.7 108.71 C105 70.23, 137.88 31.57, 165.52 0.78 M76.69 109.07 C110.8 70.67, 140.68 32.01, 170.51 1.14 M76.69 109.07 C104.01 76.77, 132.19 43.42, 170.51 1.14 M82.33 108.67 C119.67 67.67, 155.72 23.95, 176.15 0.75 M82.33 108.67 C115.73 71.38, 148.73 33.37, 176.15 0.75 M87.32 109.03 C110.29 84.16, 130.47 56.22, 181.14 1.11 M87.32 109.03 C116.27 77.27, 143.87 45.11, 181.14 1.11 M92.96 108.64 C113.46 83.04, 136.75 54.91, 186.78 0.71 M92.96 108.64 C126.06 69.8, 158.4 31.92, 186.78 0.71 M97.95 109 C127.32 75.21, 157.31 40.33, 191.77 1.07 M97.95 109 C127.07 75.79, 156.27 43.11, 191.77 1.07 M102.94 109.36 C133.72 77.17, 158.55 43.93, 197.41 0.68 M102.94 109.36 C122.14 86.88, 143.84 63.63, 197.41 0.68 M108.58 108.96 C144.57 66.64, 182.79 23.17, 202.4 1.04 M108.58 108.96 C134.02 77.3, 160.7 47.47, 202.4 1.04 M113.57 109.32 C140.97 77.72, 168.74 43.69, 206.73 2.16 M113.57 109.32 C148.88 70, 183.53 30.42, 206.73 2.16 M119.21 108.93 C148.2 76.64, 176.31 46, 211.72 2.52 M119.21 108.93 C148.69 75.05, 178.04 42.79, 211.72 2.52 M124.2 109.29 C159.46 68.39, 194.37 28.65, 216.7 2.88 M124.2 109.29 C160.7 66.68, 197.07 24.64, 216.7 2.88 M129.84 108.89 C159.21 74.55, 189.04 39.83, 221.03 3.99 M129.84 108.89 C151.7 82.49, 175.83 55.71, 221.03 3.99 M134.83 109.26 C166.84 70.82, 201.35 30.94, 224.05 6.61 M134.83 109.26 C170.64 68.32, 206.44 27.19, 224.05 6.61 M140.47 108.86 C159.8 88.03, 177.12 70.08, 226.42 9.99 M140.47 108.86 C164.93 79.28, 189.56 51.74, 226.42 9.99 M145.46 109.22 C173.37 76, 205.07 39.4, 229.43 12.62 M145.46 109.22 C165 84.16, 186.28 60.53, 229.43 12.62 M151.1 108.83 C180.82 76.01, 208.59 45.26, 231.14 16.75 M151.1 108.83 C180.06 74.38, 210.73 40.76, 231.14 16.75 M156.09 109.19 C173.85 90.56, 188.79 69.12, 232.19 21.64 M156.09 109.19 C185.61 76.72, 214.36 41.94, 232.19 21.64 M161.73 108.79 C187.69 75.69, 214.93 45.38, 231.93 28.04 M161.73 108.79 C189.7 76.53, 218.8 44.16, 231.93 28.04 M166.72 109.15 C192.01 82.29, 214.28 57.7, 232.33 33.68 M166.72 109.15 C189.86 80.94, 215.14 54.68, 232.33 33.68 M172.36 108.76 C184.27 93.58, 199.73 77.67, 232.06 40.08 M172.36 108.76 C184.86 95.65, 196.92 80.7, 232.06 40.08 M177.35 109.12 C198.16 85.28, 217.97 61.41, 232.46 45.72 M177.35 109.12 C194.38 89.95, 212.18 69.12, 232.46 45.72 M182.99 108.72 C200.03 87.72, 220.5 67.05, 232.2 52.12 M182.99 108.72 C193.3 96.61, 204.03 86.11, 232.2 52.12 M187.98 109.08 C201.9 93.77, 214.77 76.1, 232.59 57.76 M187.98 109.08 C201.71 93.14, 214.95 79.07, 232.59 57.76 M193.62 108.69 C201.74 97.81, 212.61 85.73, 232.33 64.16 M193.62 108.69 C205.65 93.46, 219.59 78.79, 232.33 64.16 M198.61 109.05 C211.87 94.28, 221.62 83.18, 232.72 69.8 M198.61 109.05 C211.05 96.06, 222.89 81.93, 232.72 69.8 M204.91 107.9 C214.33 97.89, 220.59 89, 232.46 76.2 M204.91 107.9 C212.16 97.83, 221.72 90.42, 232.46 76.2 M211.21 106.75 C220.38 98.45, 225.95 87.64, 232.86 81.84 M211.21 106.75 C216.81 100.81, 221.46 95.89, 232.86 81.84 M216.85 106.35 C223.28 100.68, 229.21 91.33, 232.6 88.24 M216.85 106.35 C221.61 100.5, 227.75 93.8, 232.6 88.24" stroke="#15aabf" stroke-width="0.5" fill="none"></path><path d="M26.75 0 M26.75 0 C68.37 -0.18, 108.83 1.39, 204.25 0 M26.75 0 C70.87 -2.16, 114.44 -2.06, 204.25 0 M204.25 0 C221.18 -1.4, 232.52 7.3, 231 26.75 M204.25 0 C223.02 -1.08, 232.34 6.94, 231 26.75 M231 26.75 C232.11 46.02, 230.72 60.38, 231 80.25 M231 26.75 C231.46 40.93, 230.17 54.1, 231 80.25 M231 80.25 C230.39 99.47, 223.11 106.67, 204.25 107 M231 80.25 C230.25 96.14, 222.63 107.02, 204.25 107 M204.25 107 C164.99 106.89, 127.37 106.82, 26.75 107 M204.25 107 C157.56 107.75, 108.25 107.2, 26.75 107 M26.75 107 C9.43 108.62, -0.12 99.06, 0 80.25 M26.75 107 C7.84 109.11, 0.13 100.37, 0 80.25 M0 80.25 C1.62 65.47, 0.15 55.78, 0 26.75 M0 80.25 C-1.2 63.28, -1.03 46.14, 0 26.75 M0 26.75 C-1.62 7.34, 9.36 1.98, 26.75 0 M0 26.75 C-1.43 8.79, 10.43 -1.17, 26.75 0" stroke="#000000" stroke-width="1" fill="none"></path></g><g transform="translate(26.919073167070735 127) rotate(0 17.70398712158203 10)"><text x="0" y="0" font-family="Virgil, Segoe UI Emoji" font-size="16px" fill="#000000" text-anchor="start" style="white-space: pre;" direction="ltr" dominant-baseline="text-before-edge">Host</text></g><g stroke-linecap="round" transform="translate(77.3401299767196 131.1666717529297) rotate(0 84.33331298828122 44.333343505859375)"><path d="M3.44 8.29 C3.44 8.29, 3.44 8.29, 3.44 8.29 M3.44 8.29 C3.44 8.29, 3.44 8.29, 3.44 8.29 M0.55 17.71 C4.44 16.32, 6.7 10.32, 11.05 5.63 M0.55 17.71 C3.87 13.98, 7.66 10.31, 11.05 5.63 M0.95 23.35 C4.81 18.15, 12.01 12.03, 18.01 3.73 M0.95 23.35 C4.21 19.24, 8.37 13.39, 18.01 3.73 M0.69 29.75 C6.88 24.21, 11.61 16.71, 24.96 1.82 M0.69 29.75 C8.61 22.13, 16.84 12.33, 24.96 1.82 M1.08 35.39 C10.72 25.1, 17.84 13.04, 29.95 2.18 M1.08 35.39 C10.29 23.34, 20.88 13.65, 29.95 2.18 M0.82 41.79 C13.5 29.11, 27.96 11.34, 34.93 2.54 M0.82 41.79 C8.64 32.28, 15.83 23.81, 34.93 2.54 M0.56 48.19 C12.14 36.71, 23.62 24.18, 40.58 2.15 M0.56 48.19 C15.36 30.59, 30.08 13.32, 40.58 2.15 M0.95 53.83 C16.44 37.85, 27.11 21.14, 45.56 2.51 M0.95 53.83 C11.96 40.92, 23.7 27.95, 45.56 2.51 M0.69 60.23 C14.51 47.23, 24.41 32.21, 51.21 2.11 M0.69 60.23 C18.82 40.68, 35.45 21.19, 51.21 2.11 M1.09 65.87 C12.76 51.64, 26.93 36.3, 56.19 2.47 M1.09 65.87 C19.11 46, 37.26 25.25, 56.19 2.47 M0.82 72.27 C13.23 55.18, 28.78 40.97, 61.84 2.08 M0.82 72.27 C17.52 53.12, 33.97 35.42, 61.84 2.08 M2.53 76.4 C22.13 52.73, 46.03 28.71, 66.82 2.44 M2.53 76.4 C24.65 51.89, 44.54 26.29, 66.82 2.44 M4.24 80.53 C26.47 56.45, 46.74 32.31, 72.47 2.04 M4.24 80.53 C20.71 61.79, 36.78 44.05, 72.47 2.04 M6.6 83.91 C24.31 64.16, 39.88 43.88, 77.45 2.4 M6.6 83.91 C30.05 57.9, 53.03 30.88, 77.45 2.4 M9.62 86.54 C26.79 67.12, 40.6 49.37, 83.1 2.01 M9.62 86.54 C26.03 68.25, 42.08 49.06, 83.1 2.01 M13.95 87.65 C37.68 61.92, 62.43 32.9, 88.08 2.37 M13.95 87.65 C37.17 60.63, 62.49 32.48, 88.08 2.37 M18.28 88.77 C37.28 65.6, 58.12 45.77, 93.73 1.98 M18.28 88.77 C35.34 68.98, 51.88 49.38, 93.73 1.98 M23.27 89.13 C50.37 56.63, 78.88 26.09, 98.71 2.34 M23.27 89.13 C43.09 66.1, 64.76 41.39, 98.71 2.34 M28.26 89.49 C53.08 60.73, 80.76 30.94, 104.36 1.94 M28.26 89.49 C52.28 60.9, 76.14 33.42, 104.36 1.94 M33.9 89.09 C60.61 60.94, 83.04 31.42, 109.34 2.3 M33.9 89.09 C57.89 60.11, 81.47 33.08, 109.34 2.3 M38.89 89.45 C61.62 61.4, 86.92 35.17, 114.99 1.91 M38.89 89.45 C58.41 66.05, 77.39 44.07, 114.99 1.91 M44.53 89.06 C75.1 54.63, 102.18 20.72, 119.97 2.27 M44.53 89.06 C70.5 59.04, 96.15 29.33, 119.97 2.27 M49.52 89.42 C72.86 61.47, 97.69 34.14, 125.62 1.87 M49.52 89.42 C78.86 55.18, 108.89 20.18, 125.62 1.87 M54.5 89.78 C76.75 67.17, 98.64 41.35, 130.61 2.23 M54.5 89.78 C83.12 57.02, 114.44 22.99, 130.61 2.23 M60.15 89.38 C88.21 58.61, 115.15 27.15, 136.25 1.84 M60.15 89.38 C76.53 71.15, 92.96 52.21, 136.25 1.84 M65.13 89.74 C93.18 59.21, 117.53 31.16, 141.24 2.2 M65.13 89.74 C86.14 67.4, 106.19 43.02, 141.24 2.2 M70.78 89.35 C98.53 57.7, 124.75 23.98, 147.53 1.05 M70.78 89.35 C86.19 71.85, 103.55 53.77, 147.53 1.05 M75.76 89.71 C101.37 62.71, 121.74 33.73, 151.87 2.16 M75.76 89.71 C100.23 59.72, 127.76 29.78, 151.87 2.16 M81.41 89.31 C105.78 60.65, 130.52 35.11, 156.2 3.28 M81.41 89.31 C107.3 59.05, 134.14 27.83, 156.2 3.28 M86.39 89.67 C110.21 61.63, 133.17 37.21, 161.18 3.64 M86.39 89.67 C111.79 61.23, 136.82 31.21, 161.18 3.64 M92.04 89.28 C114.48 62.46, 137.65 36.27, 163.55 7.02 M92.04 89.28 C111.98 65.66, 133.3 41.76, 163.55 7.02 M97.02 89.64 C113.06 71.72, 132.26 53.82, 166.56 9.64 M97.02 89.64 C119.88 62.86, 143.64 36.97, 166.56 9.64 M102.67 89.25 C124.61 63.49, 147.19 37.56, 168.27 13.77 M102.67 89.25 C121.85 67.63, 139.22 46.48, 168.27 13.77 M107.65 89.61 C121.89 72.82, 135.49 60.13, 169.98 17.91 M107.65 89.61 C131.81 62.49, 155.49 33.23, 169.98 17.91 M113.3 89.21 C129.77 73.72, 145.69 55.71, 169.72 24.31 M113.3 89.21 C130.62 70.18, 147.41 48.82, 169.72 24.31 M118.28 89.57 C132.83 69.61, 152.93 48.8, 170.11 29.95 M118.28 89.57 C133.96 72.52, 148.21 55.51, 170.11 29.95 M123.93 89.18 C134.95 72.95, 148.47 61.05, 169.85 36.35 M123.93 89.18 C139.23 70.94, 156.33 53.57, 169.85 36.35 M128.91 89.54 C138.78 77.09, 148.97 64.37, 169.59 42.74 M128.91 89.54 C136.64 79.29, 145.14 70.02, 169.59 42.74 M134.56 89.14 C149.19 72.58, 162.02 57.96, 169.98 48.39 M134.56 89.14 C144.37 78.06, 153.7 67.39, 169.98 48.39 M139.54 89.5 C148.14 80.9, 156.67 72.13, 169.72 54.79 M139.54 89.5 C148.03 80.95, 155.68 71.9, 169.72 54.79 M145.19 89.11 C155.28 76.96, 162.19 69.76, 170.12 60.43 M145.19 89.11 C150.73 82.92, 155.94 75.71, 170.12 60.43 M148.86 90.98 C152.35 84.93, 157.99 80.79, 169.2 67.58 M148.86 90.98 C154.79 83.25, 162.57 76.56, 169.2 67.58 M155.82 89.07 C159.69 86.37, 160.95 81.47, 167.63 75.49 M155.82 89.07 C160.84 84.31, 164.88 78.67, 167.63 75.49" stroke="#228be6" stroke-width="0.5" fill="none"></path><path d="M22.17 0 M22.17 0 C52.11 2.64, 80.99 1.15, 146.5 0 M22.17 0 C52.19 -0.51, 82.45 -0.02, 146.5 0 M146.5 0 C162.07 -1.11, 168.17 8.41, 168.67 22.17 M146.5 0 C161.52 0.58, 170.42 9.62, 168.67 22.17 M168.67 22.17 C168.41 33.68, 170.05 45.4, 168.67 66.5 M168.67 22.17 C167.83 32.25, 168.53 41.44, 168.67 66.5 M168.67 66.5 C167.43 79.96, 159.54 90.05, 146.5 88.67 M168.67 66.5 C166.7 80.2, 160.9 90.39, 146.5 88.67 M146.5 88.67 C105.48 88.43, 65.31 88.55, 22.17 88.67 M146.5 88.67 C110.06 89.09, 74.4 90.07, 22.17 88.67 M22.17 88.67 C7.08 90.17, -0.18 82.84, 0 66.5 M22.17 88.67 C5.74 86.9, 0.45 81.04, 0 66.5 M0 66.5 C-0.55 56.4, 0.01 42.91, 0 22.17 M0 66.5 C0.09 51.86, 0.37 39.34, 0 22.17 M0 22.17 C1.62 7.31, 8.62 -0.95, 22.17 0 M0 22.17 C0.32 7.37, 7.62 0.87, 22.17 0" stroke="#000000" stroke-width="1" fill="none"></path></g><g transform="translate(82.3401299767196 136.1666717529297) rotate(0 22.767982482910156 10)"><text x="0" y="0" font-family="Virgil, Segoe UI Emoji" font-size="16px" fill="#000000" text-anchor="start" style="white-space: pre;" direction="ltr" dominant-baseline="text-before-edge">WAMR</text></g><g stroke-linecap="round" transform="translate(136.67344296500085 150.16664123535156) rotate(0 49 30)"><path d="M3.99 3.47 C3.99 3.47, 3.99 3.47, 3.99 3.47 M3.99 3.47 C3.99 3.47, 3.99 3.47, 3.99 3.47 M1.11 12.89 C3.99 10, 5.42 9.7, 10.29 2.32 M1.11 12.89 C5.05 9.28, 7.49 5.09, 10.29 2.32 M1.5 18.53 C4.6 13.19, 12.89 7.99, 16.59 1.17 M1.5 18.53 C7.7 12.55, 12.81 5.56, 16.59 1.17 M1.24 24.93 C7.44 18.18, 14 10.4, 21.58 1.53 M1.24 24.93 C9.13 16.02, 17.1 7.35, 21.58 1.53 M1.63 30.57 C8.1 22.75, 14.29 12.82, 27.22 1.14 M1.63 30.57 C10.96 19.13, 21.31 9.46, 27.22 1.14 M1.37 36.97 C8.97 27.14, 17.85 19.58, 32.21 1.5 M1.37 36.97 C12.26 23.9, 25.43 9.65, 32.21 1.5 M1.11 43.37 C11.31 34.03, 19.37 23.99, 37.85 1.1 M1.11 43.37 C12.88 31.55, 23.21 19.32, 37.85 1.1 M1.51 49.01 C16.98 30.81, 33.22 13.57, 42.84 1.46 M1.51 49.01 C12.58 36.38, 25.46 23.49, 42.84 1.46 M2.56 53.9 C18.82 35.69, 31.94 20.82, 48.48 1.07 M2.56 53.9 C21.35 32.91, 39.35 12.56, 48.48 1.07 M4.92 57.28 C25.48 37.25, 42.66 11.5, 53.47 1.43 M4.92 57.28 C19.72 40.79, 35.34 23.25, 53.47 1.43 M7.94 59.9 C21.64 45.85, 34.46 29.95, 59.11 1.03 M7.94 59.9 C20.64 44.39, 34.24 29.87, 59.11 1.03 M12.27 61.02 C29.41 41.48, 49.17 19.18, 64.1 1.39 M12.27 61.02 C24.72 45.57, 37.44 30.04, 64.1 1.39 M17.26 61.38 C37.85 36.19, 57.06 15.59, 69.74 1 M17.26 61.38 C30.66 46.87, 43.69 30.17, 69.74 1 M22.24 61.74 C44.59 37.71, 62.86 13.5, 74.73 1.36 M22.24 61.74 C36.9 43.68, 51.95 27.47, 74.73 1.36 M27.89 61.34 C38.21 48.46, 49.56 34.23, 80.37 0.97 M27.89 61.34 C42.16 45.1, 54.92 29.34, 80.37 0.97 M32.87 61.7 C49.22 39.57, 69.25 20.91, 84.7 2.08 M32.87 61.7 C49.74 44.19, 66.08 24.22, 84.7 2.08 M37.86 62.06 C49.43 48.5, 57.7 35.59, 89.69 2.44 M37.86 62.06 C57.48 39.02, 77.84 15.57, 89.69 2.44 M43.5 61.67 C62.9 41.39, 81.27 19.5, 94.02 3.55 M43.5 61.67 C53.51 49.37, 64.56 37.79, 94.02 3.55 M48.49 62.03 C61.83 43.52, 76.86 28.94, 96.38 6.93 M48.49 62.03 C59.73 49.5, 69.37 37.98, 96.38 6.93 M54.13 61.63 C61.65 51.42, 72.33 40.56, 98.09 11.07 M54.13 61.63 C63.13 51.26, 71.12 40.48, 98.09 11.07 M59.12 61.99 C75.7 43.36, 89.57 29.72, 100.45 14.45 M59.12 61.99 C68.09 52.37, 74.94 43.45, 100.45 14.45 M64.76 61.6 C73.18 53.55, 80.41 41.51, 100.85 20.09 M64.76 61.6 C76.35 49.12, 87.11 36.86, 100.85 20.09 M69.75 61.96 C79.75 53.17, 87.61 42.83, 100.59 26.49 M69.75 61.96 C75.47 53.06, 83.41 45.15, 100.59 26.49 M75.39 61.56 C85 50.67, 92.85 40.84, 100.98 32.13 M75.39 61.56 C82.29 54.6, 87.63 46.82, 100.98 32.13 M80.38 61.92 C85.71 53.91, 91.69 49.26, 100.72 38.53 M80.38 61.92 C84.87 56.54, 89.66 51.14, 100.72 38.53 M85.37 62.28 C88.97 57.8, 93.81 48.95, 99.15 46.44 M85.37 62.28 C89.91 56.58, 95.79 50.41, 99.15 46.44" stroke="#15aabf" stroke-width="0.5" fill="none"></path><path d="M15 0 M15 0 C32.16 -0.84, 48.14 -1.41, 83 0 M15 0 C34.89 -0.75, 53.12 -0.57, 83 0 M83 0 C93.99 -0.53, 97.23 6.17, 98 15 M83 0 C94.63 -1.73, 96.79 5.35, 98 15 M98 15 C97.41 24.25, 95.96 32.76, 98 45 M98 15 C98.44 21.85, 98.57 28.37, 98 45 M98 45 C97.41 55.14, 94.47 58.2, 83 60 M98 45 C98.88 55.5, 91.32 59.16, 83 60 M83 60 C62.08 61.15, 40.77 59.76, 15 60 M83 60 C63.06 60.12, 41.5 61.14, 15 60 M15 60 C5.14 58.33, -0.39 55.35, 0 45 M15 60 C6.21 61.68, 1.1 53.01, 0 45 M0 45 C-1.05 35.85, -1.79 26.19, 0 15 M0 45 C0.3 38.04, 0.71 28.38, 0 15 M0 15 C1.65 3.39, 6.77 0.27, 15 0 M0 15 C-0.94 6.57, 3.84 -1.01, 15 0" stroke="#000000" stroke-width="1" fill="none"></path></g><g transform="translate(161.6414529137313 160.16664123535156) rotate(0 24.03199005126953 20)"><text x="24.03199005126953" y="0" font-family="Virgil, Segoe UI Emoji" font-size="16px" fill="#000000" text-anchor="middle" style="white-space: pre;" direction="ltr" dominant-baseline="text-before-edge">LVGL </text><text x="24.03199005126953" y="20" font-family="Virgil, Segoe UI Emoji" font-size="16px" fill="#000000" text-anchor="middle" style="white-space: pre;" direction="ltr" dominant-baseline="text-before-edge">library</text></g><g stroke-linecap="round" transform="translate(61.340129976719595 60.16664123535156) rotate(0 71 23.833335876464844)"><path d="M3.17 2.76 C3.17 2.76, 3.17 2.76, 3.17 2.76 M3.17 2.76 C3.17 2.76, 3.17 2.76, 3.17 2.76 M1.6 10.66 C3.68 8.65, 4 6.23, 10.13 0.85 M1.6 10.66 C5.2 6.64, 7.94 4.24, 10.13 0.85 M1.99 16.31 C6.12 13.65, 5.7 12.17, 14.46 1.97 M1.99 16.31 C4.91 13.66, 7.3 9.15, 14.46 1.97 M1.73 22.71 C8.3 16.51, 13.16 11.17, 19.45 2.33 M1.73 22.71 C7.38 17.58, 11.94 11.68, 19.45 2.33 M1.47 29.1 C4.65 21.08, 11.99 15.12, 25.09 1.93 M1.47 29.1 C10.21 19.06, 18.11 9.57, 25.09 1.93 M1.86 34.75 C9.96 27.47, 14.78 18.66, 30.08 2.29 M1.86 34.75 C9.21 25.28, 17.01 17.43, 30.08 2.29 M2.26 40.39 C9.46 31.71, 17.26 22.95, 35.72 1.9 M2.26 40.39 C13.64 26.88, 25.85 11.19, 35.72 1.9 M3.31 45.28 C16.07 29.63, 31.46 13.11, 40.71 2.26 M3.31 45.28 C12.74 34.48, 21.55 23.84, 40.71 2.26 M6.98 47.15 C19.59 33.19, 28.45 20.92, 45.69 2.62 M6.98 47.15 C21.22 32.44, 33.42 15.63, 45.69 2.62 M11.97 47.51 C23.01 32.75, 38.25 17.03, 51.34 2.22 M11.97 47.51 C27.57 30.25, 42.87 12.62, 51.34 2.22 M17.61 47.11 C27.5 35.75, 35.08 28.45, 56.32 2.58 M17.61 47.11 C27.18 37, 35.6 27.38, 56.32 2.58 M22.6 47.47 C33.74 34.33, 49.2 16.81, 61.97 2.19 M22.6 47.47 C29.64 37.91, 38.77 29.28, 61.97 2.19 M28.25 47.08 C42.65 30.16, 57.24 13.05, 66.95 2.55 M28.25 47.08 C40.17 34.12, 51.88 20.34, 66.95 2.55 M33.23 47.44 C50.12 28.12, 65.89 12, 72.6 2.16 M33.23 47.44 C42.68 35.31, 53.72 24.73, 72.6 2.16 M38.88 47.04 C53.86 30.69, 66.42 14.17, 77.58 2.52 M38.88 47.04 C49.71 34.68, 62.12 22.07, 77.58 2.52 M43.86 47.4 C53.3 34.97, 64.76 23.11, 82.57 2.88 M43.86 47.4 C52.96 37.31, 61.28 27.74, 82.57 2.88 M48.85 47.76 C59.49 38.62, 67.58 27.67, 88.21 2.48 M48.85 47.76 C58.18 37.07, 67.29 25.09, 88.21 2.48 M54.49 47.37 C65.2 35.07, 75.64 22.06, 93.2 2.84 M54.49 47.37 C63.22 37.36, 72.25 26, 93.2 2.84 M59.48 47.73 C70.27 34.47, 81.68 23.52, 98.84 2.45 M59.48 47.73 C69.31 34.71, 79.89 22.89, 98.84 2.45 M65.12 47.33 C75.34 38.55, 84.01 25.34, 103.83 2.81 M65.12 47.33 C78.23 30.22, 93.67 15.02, 103.83 2.81 M70.11 47.69 C83.16 34.04, 93.33 20.69, 109.47 2.41 M70.11 47.69 C79.59 37.7, 88.5 27.48, 109.47 2.41 M75.75 47.3 C82.82 36.69, 93.4 29.1, 114.46 2.77 M75.75 47.3 C89.73 32.3, 102.71 16.51, 114.46 2.77 M80.74 47.66 C92.62 32.68, 104.62 20.21, 120.1 2.38 M80.74 47.66 C95.6 30.66, 109.96 14.93, 120.1 2.38 M86.38 47.27 C95.92 36.74, 100.94 29.34, 125.09 2.74 M86.38 47.27 C95.46 38.9, 102.83 29.15, 125.09 2.74 M91.37 47.63 C99.4 39.96, 108.26 29.85, 130.08 3.1 M91.37 47.63 C104.99 31.99, 118.98 15.98, 130.08 3.1 M96.36 47.99 C107.6 34.08, 121.06 16.54, 136.38 1.95 M96.36 47.99 C107.11 36.8, 118.03 24.75, 136.38 1.95 M102 47.59 C114.85 31.06, 127.48 16.37, 139.39 4.57 M102 47.59 C110.68 38.59, 118.37 28.57, 139.39 4.57 M106.99 47.95 C118.18 32.91, 129.91 22.62, 143.07 6.44 M106.99 47.95 C119.82 33.53, 130.78 20.13, 143.07 6.44 M112.63 47.56 C122.5 36.02, 133.77 21.83, 144.12 11.33 M112.63 47.56 C125.16 33.89, 138.19 19.65, 144.12 11.33 M117.62 47.92 C124.93 42.74, 127.77 35, 143.86 17.73 M117.62 47.92 C125.28 38.18, 132.41 30.61, 143.86 17.73 M123.26 47.52 C128.83 40.09, 136.11 33.86, 144.25 23.37 M123.26 47.52 C129.5 40.4, 135.53 33.98, 144.25 23.37 M128.25 47.88 C131.35 45.19, 135.46 38.29, 143.99 29.77 M128.25 47.88 C134.4 41.91, 139.52 33.84, 143.99 29.77 M131.92 49.75 C135.74 46.31, 138.46 42.15, 143.73 36.17 M131.92 49.75 C135.44 45.78, 139.47 40.98, 143.73 36.17" stroke="#82c91e" stroke-width="0.5" fill="none"></path><path d="M11.92 0 M11.92 0 C35.53 -0.82, 60.91 1.06, 130.08 0 M11.92 0 C38.72 0.89, 66.64 0.36, 130.08 0 M130.08 0 C136.91 -1.15, 141.37 5.32, 142 11.92 M130.08 0 C139.22 -1.44, 140.63 4.93, 142 11.92 M142 11.92 C140.84 22.19, 141.94 27.73, 142 35.75 M142 11.92 C142.28 19.57, 142.08 27.82, 142 35.75 M142 35.75 C141.87 45.64, 136.71 48.12, 130.08 47.67 M142 35.75 C140.75 45.36, 138.98 46.46, 130.08 47.67 M130.08 47.67 C95.4 47.14, 58.63 49.27, 11.92 47.67 M130.08 47.67 C94.34 48.21, 56.13 48.02, 11.92 47.67 M11.92 47.67 C3.94 47.49, 1.61 43.56, 0 35.75 M11.92 47.67 C2.26 47.15, 1.03 42, 0 35.75 M0 35.75 C-1.23 27.1, -1.73 22.45, 0 11.92 M0 35.75 C0.86 30.95, 0.83 26.06, 0 11.92 M0 11.92 C0.15 3.06, 5.12 -0.79, 11.92 0 M0 11.92 C-0.29 4.94, 4.81 -1.58, 11.92 0" stroke="#000000" stroke-width="1" fill="none"></path></g><g transform="translate(80.86017239615319 71.4999771118164) rotate(0 51.479957580566406 12.5)"><text x="51.479957580566406" y="0" font-family="Virgil, Segoe UI Emoji" font-size="20px" fill="#000000" text-anchor="middle" style="white-space: pre;" direction="ltr" dominant-baseline="text-before-edge">wasm apps</text></g><g stroke-linecap="round"><g transform="translate(10.67341244742272 115.16665649414062) rotate(0 139.80778690055013 -0.5886079565787412)"><path d="M-0.67 -0.69 C46 -0.81, 233.3 -0.29, 280.29 -0.53" stroke="#000000" stroke-width="1.5" fill="none" stroke-dasharray="8 9"></path></g></g><mask></mask><g transform="translate(286.34009945914147 90.5) rotate(0 89.99991607666016 25)"><text x="0" y="0" font-family="Virgil, Segoe UI Emoji" font-size="20px" fill="#000000" text-anchor="start" style="white-space: pre;" direction="ltr" dominant-baseline="text-before-edge">native apis</text><text x="0" y="25" font-family="Virgil, Segoe UI Emoji" font-size="20px" fill="#000000" text-anchor="start" style="white-space: pre;" direction="ltr" dominant-baseline="text-before-edge">(including lvgl apis)</text></g><g transform="translate(284.9190731670707 10) rotate(0 68.09993743896484 12.5)"><text x="0" y="0" font-family="Virgil, Segoe UI Emoji" font-size="20px" fill="#000000" text-anchor="start" style="white-space: pre;" direction="ltr" dominant-baseline="text-before-edge">lvgl user code</text></g><g stroke-linecap="round"><g transform="translate(210.91907316707074 67.3614329903572) rotate(0 33.49662636518474 -21.004151033346503)"><path d="M0.15 -0.6 C11.18 -7.58, 55.4 -34.79, 66.85 -41.41" stroke="#000000" stroke-width="1.5" fill="none" stroke-dasharray="8 9"></path></g><g transform="translate(210.91907316707074 67.3614329903572) rotate(0 33.49662636518474 -21.004151033346503)"><path d="M46.95 -20.03 C53.04 -24.98, 61.53 -35.8, 67.5 -42.64" stroke="#000000" stroke-width="1.5" fill="none"></path></g><g transform="translate(210.91907316707074 67.3614329903572) rotate(0 33.49662636518474 -21.004151033346503)"><path d="M36.39 -37.63 C46.29 -36.37, 58.51 -40.97, 67.5 -42.64" stroke="#000000" stroke-width="1.5" fill="none"></path></g></g><mask></mask></svg>