<svg version="1.1" xmlns="http://www.w3.org/2000/svg" viewBox="0 0 879.0238037109375 353.5000762939453" width="879.0238037109375" height="353.5000762939453">
  <!-- svg-source:excalidraw -->
  
  <defs>
    <style class="style-fonts">
      @font-face {
        font-family: "Virgil";
        src: url("https://excalidraw.com/Virgil.woff2");
      }
      @font-face {
        font-family: "Cascadia";
        src: url("https://excalidraw.com/Cascadia.woff2");
      }
    </style>
  </defs>
  <rect x="0" y="0" width="879.0238037109375" height="353.5000762939453" fill="#ffffff"></rect><g stroke-linecap="round" transform="translate(233.3333740234375 10) rotate(0 77.33334350585938 18.666671752929688)"><path d="M9.33 0 M9.33 0 C50.57 1.28, 94.13 0.45, 145.33 0 M9.33 0 C46.13 -0.81, 84.79 -0.59, 145.33 0 M145.33 0 C153.21 -1.66, 154.86 1.33, 154.67 9.33 M145.33 0 C150.64 0.95, 156.48 4.32, 154.67 9.33 M154.67 9.33 C155.86 14.57, 152.91 18.17, 154.67 28 M154.67 9.33 C154.31 13.46, 153.7 18.05, 154.67 28 M154.67 28 C152.96 35.18, 153.36 39.27, 145.33 37.33 M154.67 28 C153.54 32.08, 152.26 37.24, 145.33 37.33 M145.33 37.33 C109 35.38, 71.99 37.1, 9.33 37.33 M145.33 37.33 C106.26 36.46, 65.96 36.62, 9.33 37.33 M9.33 37.33 C4.31 38.95, 0.52 33.36, 0 28 M9.33 37.33 C4.58 36.14, 1.46 34.89, 0 28 M0 28 C-0.74 20.81, -0.95 14.46, 0 9.33 M0 28 C-0.18 23.02, -0.46 20.48, 0 9.33 M0 9.33 C-1.31 1.32, 3.67 -1.15, 9.33 0 M0 9.33 C0.65 3.09, 4.19 2.26, 9.33 0" stroke="#c92a2a" stroke-width="1" fill="none"></path></g><g transform="translate(255.9467544555664 16.166671752929688) rotate(0 54.71996307373047 12.5)"><text x="54.71996307373047" y="0" font-family="Virgil, Segoe UI Emoji" font-size="20px" fill="#c92a2a" text-anchor="middle" style="white-space: pre;" direction="ltr" dominant-baseline="text-before-edge">WASM apps</text></g><g stroke-linecap="round" transform="translate(233.3333740234375 97.33335876464844) rotate(0 77.33334350585938 17.666671752929688)"><path d="M8.83 0 M8.83 0 C53.76 0.56, 100.68 -0.44, 145.83 0 M8.83 0 C49.69 -0.75, 91.49 -1.02, 145.83 0 M145.83 0 C152.7 -1.92, 156.64 1.54, 154.67 8.83 M145.83 0 C152.56 0.46, 152.7 2.69, 154.67 8.83 M154.67 8.83 C154.25 13.14, 155.38 15.52, 154.67 26.5 M154.67 8.83 C155.25 11.78, 154.04 15.78, 154.67 26.5 M154.67 26.5 C155.79 33.04, 150.15 35.01, 145.83 35.33 M154.67 26.5 C154.5 34.53, 153.66 33.66, 145.83 35.33 M145.83 35.33 C114.81 34.68, 82.98 37.16, 8.83 35.33 M145.83 35.33 C97.54 35.77, 51.52 35.18, 8.83 35.33 M8.83 35.33 C1.13 36.24, -1.75 31.49, 0 26.5 M8.83 35.33 C1.94 33.14, 1.92 32.34, 0 26.5 M0 26.5 C0.04 20.62, -0.56 18.39, 0 8.83 M0 26.5 C0.01 20.18, -0.6 16.43, 0 8.83 M0 8.83 C0.08 4.36, 4.18 1.61, 8.83 0 M0 8.83 C-1.55 1.31, 4.18 -1.4, 8.83 0" stroke="#c92a2a" stroke-width="1" fill="none"></path></g><g transform="translate(241.21676635742188 102.50003051757812) rotate(0 69.449951171875 12.5)"><text x="69.449951171875" y="0" font-family="Virgil, Segoe UI Emoji" font-size="20px" fill="#c92a2a" text-anchor="middle" style="white-space: pre;" direction="ltr" dominant-baseline="text-before-edge">WASM wrapper</text></g><g stroke-linecap="round" transform="translate(230.66671752929688 179.66668701171875) rotate(0 80.5 21.5)"><path d="M10.75 0 M10.75 0 C45.39 -0.69, 84.17 0.2, 150.25 0 M10.75 0 C62.6 -0.76, 117.35 -0.2, 150.25 0 M150.25 0 C158.83 1.23, 162.61 2.23, 161 10.75 M150.25 0 C155.78 1.23, 159.6 5.36, 161 10.75 M161 10.75 C160.28 18.78, 159.63 25.46, 161 32.25 M161 10.75 C160.58 18.85, 161.27 27.07, 161 32.25 M161 32.25 C160.55 37.93, 158.36 41.67, 150.25 43 M161 32.25 C163.26 41.36, 158.76 42.71, 150.25 43 M150.25 43 C98.56 42.55, 45.02 41.51, 10.75 43 M150.25 43 C118.98 42.83, 87.86 44.12, 10.75 43 M10.75 43 C5.13 42.51, -0.12 39.95, 0 32.25 M10.75 43 C1.45 42.12, 0.77 39.69, 0 32.25 M0 32.25 C-0.55 27.34, 0.2 21.15, 0 10.75 M0 32.25 C0.69 22.94, -0.44 16.09, 0 10.75 M0 10.75 C-1.4 4.48, 3.93 1.64, 10.75 0 M0 10.75 C0.38 3.9, 3.99 1.36, 10.75 0" stroke="#000000" stroke-width="1" fill="none"></path></g><g transform="translate(237.8267822265625 188.66668701171875) rotate(0 73.33993530273438 12.5)"><text x="73.33993530273438" y="0" font-family="Virgil, Segoe UI Emoji" font-size="20px" fill="#000000" text-anchor="middle" style="white-space: pre;" direction="ltr" dominant-baseline="text-before-edge">Native wrapper</text></g><g stroke-linecap="round" transform="translate(229.5 300.5000762939453) rotate(0 80.5 21.5)"><path d="M10.75 0 M10.75 0 C41.96 1.63, 73.08 -0.6, 150.25 0 M10.75 0 C54.53 -0.66, 97.04 0.03, 150.25 0 M150.25 0 C158.78 -0.98, 160.07 5.48, 161 10.75 M150.25 0 C157.45 0.58, 163.11 4.05, 161 10.75 M161 10.75 C162.98 16.33, 162.62 25.01, 161 32.25 M161 10.75 C161.02 17.24, 160.15 24.07, 161 32.25 M161 32.25 C160.62 39.51, 158.31 43.63, 150.25 43 M161 32.25 C161.26 39.42, 157.86 41.68, 150.25 43 M150.25 43 C95.79 42.98, 41.55 41.36, 10.75 43 M150.25 43 C112.49 43.66, 76.42 43.16, 10.75 43 M10.75 43 C4.75 42.53, 1.8 39.6, 0 32.25 M10.75 43 C1.81 44.21, -1.45 40.75, 0 32.25 M0 32.25 C0.04 25.66, 1.08 15.41, 0 10.75 M0 32.25 C0.51 25.82, -0.23 19.73, 0 10.75 M0 10.75 C0.76 3.44, 3.46 0.25, 10.75 0 M0 10.75 C-1.54 2.38, 2.72 -1.52, 10.75 0" stroke="#000000" stroke-width="1" fill="none"></path></g><g transform="translate(243.6900634765625 309.5000762939453) rotate(0 66.3099365234375 12.5)"><text x="66.3099365234375" y="0" font-family="Virgil, Segoe UI Emoji" font-size="20px" fill="#000000" text-anchor="middle" style="white-space: pre;" direction="ltr" dominant-baseline="text-before-edge">Native (Host)</text></g><g stroke-linecap="round"><g transform="translate(335.3333740234375 295.33338928222656) rotate(0 0.6719286108880738 -32.034896126016974)"><path d="M1.01 0.73 C1.36 -9.87, 1.3 -53.89, 1.06 -64.8 M0.09 0.06 C0.45 -10.3, 0.92 -53.03, 0.67 -63.68" stroke="#000000" stroke-width="1" fill="none"></path></g><g transform="translate(335.3333740234375 295.33338928222656) rotate(0 0.6719286108880738 -32.034896126016974)"><path d="M12.23 -33.74 C7.74 -42.2, 5.61 -46.25, 1.98 -63.31 M10.85 -34.57 C7.82 -46.33, 4.36 -56.3, 0.13 -63.07" stroke="#000000" stroke-width="1" fill="none"></path></g><g transform="translate(335.3333740234375 295.33338928222656) rotate(0 0.6719286108880738 -32.034896126016974)"><path d="M-8.29 -33.68 C-8.34 -42.32, -6.04 -46.39, 1.98 -63.31 M-9.67 -34.51 C-5.29 -46.13, -1.34 -56.12, 0.13 -63.07" stroke="#000000" stroke-width="1" fill="none"></path></g></g><mask></mask><g stroke-linecap="round"><g transform="translate(280.66668701171875 233.33338928222656) rotate(0 -1.0523560550063848 31.79190730573609)"><path d="M0.76 -0.28 C0.34 10.36, -2.5 52.85, -2.87 63.46 M-0.3 -1.47 C-0.31 9.42, -0.35 54.04, -0.61 65.06" stroke="#c92a2a" stroke-width="1" fill="none"></path></g><g transform="translate(280.66668701171875 233.33338928222656) rotate(0 -1.0523560550063848 31.79190730573609)"><path d="M-11.04 35.31 C-7.77 45.31, -5.28 51.16, -2.12 63.65 M-9.89 36.86 C-7.21 44.67, -6.08 52.23, -0.3 64.18" stroke="#c92a2a" stroke-width="1" fill="none"></path></g><g transform="translate(280.66668701171875 233.33338928222656) rotate(0 -1.0523560550063848 31.79190730573609)"><path d="M9.48 35.53 C7.2 45.6, 4.15 51.39, -2.12 63.65 M10.63 37.08 C7.84 44.77, 3.51 52.28, -0.3 64.18" stroke="#c92a2a" stroke-width="1" fill="none"></path></g></g><mask></mask><g stroke-linecap="round"><g transform="translate(283.3333435058594 50.00004577636719) rotate(0 0.23958066422738966 20.191697023678557)"><path d="M0.65 -0.77 C0.65 5.73, 1.11 33.25, 0.98 39.98 M-0.47 1.45 C-0.68 8, -0.27 34.67, 0.2 41.15" stroke="#c92a2a" stroke-width="1" fill="none"></path></g><g transform="translate(283.3333435058594 50.00004577636719) rotate(0 0.23958066422738966 20.191697023678557)"><path d="M-8.77 22.85 C-5.54 28.18, -3.28 37.79, -0.06 40.37 M-7.8 23.09 C-5.29 28.87, -1.28 36.74, 1.09 42.14" stroke="#c92a2a" stroke-width="1" fill="none"></path></g><g transform="translate(283.3333435058594 50.00004577636719) rotate(0 0.23958066422738966 20.191697023678557)"><path d="M5.14 22.31 C3.04 27.92, 0 37.74, -0.06 40.37 M6.1 22.55 C3.55 28.6, 2.5 36.66, 1.09 42.14" stroke="#c92a2a" stroke-width="1" fill="none"></path></g></g><mask></mask><g stroke-linecap="round"><g transform="translate(336.66668701171875 90.00004577636719) rotate(0 0.2929737507423056 -20.0888928185217)"><path d="M1.16 0.25 C0.97 -6.15, 0.13 -32.06, 0.02 -38.66 M0.31 -0.67 C-0.08 -7.38, -0.58 -34.2, -0.57 -40.42" stroke="#000000" stroke-width="1" fill="none"></path></g><g transform="translate(336.66668701171875 90.00004577636719) rotate(0 0.2929737507423056 -20.0888928185217)"><path d="M6.77 -20.9 C4.78 -27.32, 0.92 -36.73, -0.56 -42.12 M5.43 -21.91 C4.44 -28.75, 2.9 -35.11, -0.01 -40.8" stroke="#000000" stroke-width="1" fill="none"></path></g><g transform="translate(336.66668701171875 90.00004577636719) rotate(0 0.2929737507423056 -20.0888928185217)"><path d="M-6.68 -20.75 C-3.36 -27.36, -1.89 -36.83, -0.56 -42.12 M-8.02 -21.76 C-4.58 -28.61, -1.69 -35.02, -0.01 -40.8" stroke="#000000" stroke-width="1" fill="none"></path></g></g><mask></mask><g stroke-linecap="round"><g transform="translate(284.66668701171875 134.6667022705078) rotate(0 -0.2745112825082856 20.580184369999927)"><path d="M0.39 -0.13 C0.29 6.82, 0.08 33.89, -0.2 40.8 M-0.86 -1.25 C-1.11 6.01, -0.65 35.64, -0.9 42.41" stroke="#c92a2a" stroke-width="1" fill="none"></path></g><g transform="translate(284.66668701171875 134.6667022705078) rotate(0 -0.2745112825082856 20.580184369999927)"><path d="M-7.95 24.03 C-5.39 28.59, -2.23 34.81, -1.93 43.77 M-8.44 22.86 C-5.78 27.01, -5.28 32.96, -1.33 41.47" stroke="#c92a2a" stroke-width="1" fill="none"></path></g><g transform="translate(284.66668701171875 134.6667022705078) rotate(0 -0.2745112825082856 20.580184369999927)"><path d="M5.96 24.12 C3.89 28.69, 2.42 34.89, -1.93 43.77 M5.47 22.95 C4.8 27.16, 1.96 33.09, -1.33 41.47" stroke="#c92a2a" stroke-width="1" fill="none"></path></g></g><mask></mask><g stroke-linecap="round"><g transform="translate(338 175.33335876464844) rotate(0 0.004669138552344521 -19.690182580631216)"><path d="M0.31 -1.13 C0.43 -7.6, 1.19 -32.22, 0.95 -38.55 M-0.99 0.89 C-0.96 -5.94, 0.15 -33.84, 0.49 -40.27" stroke="#000000" stroke-width="1" fill="none"></path></g><g transform="translate(338 175.33335876464844) rotate(0 0.004669138552344521 -19.690182580631216)"><path d="M4.53 -19.95 C5.75 -29.37, 2.94 -33.47, 1.41 -39.65 M6.91 -20.68 C3.61 -28.59, 1.92 -34.73, 0.93 -41.06" stroke="#000000" stroke-width="1" fill="none"></path></g><g transform="translate(338 175.33335876464844) rotate(0 0.004669138552344521 -19.690182580631216)"><path d="M-8.91 -20.56 C-3.42 -29.82, -1.95 -33.72, 1.41 -39.65 M-6.52 -21.28 C-4.95 -28.92, -1.77 -34.85, 0.93 -41.06" stroke="#000000" stroke-width="1" fill="none"></path></g></g><mask></mask><g transform="translate(356.66668701171875 277.5000457763672) rotate(0 71.79995727539062 10)"><text x="0" y="0" font-family="Virgil, Segoe UI Emoji" font-size="16px" fill="#000000" text-anchor="start" style="white-space: pre;" direction="ltr" dominant-baseline="text-before-edge">call wasm function</text></g><g stroke-linecap="round" transform="translate(356.66668701171875 257.33338928222656) rotate(0 6.333343505859375 6.6666717529296875)"><path d="M8.75 1.75 M8.75 1.75 C9.58 2.67, 9.91 3.86, 10.92 5.25 M8.75 1.75 C9.16 2.58, 9.88 3.28, 10.92 5.25 M10.92 5.25 C11.91 8.19, 10.71 8.35, 10.92 8.75 M10.92 5.25 C10.94 7.07, 12.75 6.56, 10.92 8.75 M10.92 8.75 C10.04 9.9, 9.11 11.13, 8.75 11.58 M10.92 8.75 C10.32 9.24, 10.08 10.1, 8.75 11.58 M8.75 11.58 C7.74 12.12, 6.72 14.52, 5.25 11.58 M8.75 11.58 C5.71 14.56, 7.32 14.91, 5.25 11.58 M5.25 11.58 C4.89 11.22, 4.12 10.32, 1.75 8.75 M5.25 11.58 C4.35 10.78, 3.47 10.19, 1.75 8.75 M1.75 8.75 C1.34 8.38, -1.87 5.49, 1.75 5.25 M1.75 8.75 C-1.65 8.72, 1.15 6.14, 1.75 5.25 M1.75 5.25 C2.78 4.4, 3.94 3.7, 5.25 1.75 M1.75 5.25 C2.45 4.38, 3.28 3.55, 5.25 1.75 M5.25 1.75 C8.49 -0.92, 5.96 1.63, 8.75 1.75 M5.25 1.75 C8.21 0.42, 4.8 1.59, 8.75 1.75" stroke="#000000" stroke-width="1" fill="none"></path></g><g transform="translate(372.66668701171875 253.66673278808594) rotate(0 63.07197570800781 10)"><text x="0" y="0" font-family="Virgil, Segoe UI Emoji" font-size="16px" fill="#000000" text-anchor="start" style="white-space: pre;" direction="ltr" dominant-baseline="text-before-edge">: data in native</text></g><g stroke-linecap="round" transform="translate(356 151.33335876464844) rotate(0 7 6.333343505859375)"><path d="M10 1.75 M10 1.75 C10.49 2.69, 11.05 4.17, 12 5.25 M10 1.75 C10.6 2.66, 10.8 3.65, 12 5.25 M12 5.25 C14.58 6.25, 14.46 5.77, 12 8.75 M12 5.25 C11.97 5.63, 14.21 4.85, 12 8.75 M12 8.75 C11.52 9.8, 10.42 10.42, 10 10.92 M12 8.75 C11.23 9.4, 10.69 10.27, 10 10.92 M10 10.92 C7.1 14.26, 8.32 14.63, 6 10.92 M10 10.92 C9.71 11.93, 6.6 11.35, 6 10.92 M6 10.92 C4.82 10, 2.99 9.32, 2 8.75 M6 10.92 C5.23 10.66, 4.26 9.9, 2 8.75 M2 8.75 C1.79 5.56, 0.92 7.36, 2 5.25 M2 8.75 C1.63 8.99, 1.23 8.57, 2 5.25 M2 5.25 C2.92 3.95, 4.22 3.57, 6 1.75 M2 5.25 C3.05 4.28, 4.21 3.22, 6 1.75 M6 1.75 C9.36 -1.62, 8.99 0.64, 10 1.75 M6 1.75 C9.57 1.66, 7.48 -1.79, 10 1.75" stroke="#c92a2a" stroke-width="1" fill="none"></path></g><g stroke-linecap="round" transform="translate(350 65.33335876464844) rotate(0 8.333343505859375 8.333343505859375)"><path d="M11.25 2.25 M11.25 2.25 C12.25 3.05, 13.16 4.45, 14.42 6.75 M11.25 2.25 C12.38 3.89, 13.86 5.73, 14.42 6.75 M14.42 6.75 C18.52 9.42, 15.55 7.02, 14.42 11.25 M14.42 6.75 C15.44 7.21, 14.6 10.18, 14.42 11.25 M14.42 11.25 C13.22 12.74, 11.96 13.62, 11.25 14.42 M14.42 11.25 C13.55 12.44, 12.28 13.24, 11.25 14.42 M11.25 14.42 C8.59 16.51, 7.22 17.85, 6.75 14.42 M11.25 14.42 C8.86 15.96, 8.63 15.64, 6.75 14.42 M6.75 14.42 C5.12 13.89, 3.73 12.88, 2.25 11.25 M6.75 14.42 C5.17 13.18, 3.85 12.45, 2.25 11.25 M2.25 11.25 C1.55 9.91, -1.02 9.42, 2.25 6.75 M2.25 11.25 C2.13 11.13, -0.17 7.27, 2.25 6.75 M2.25 6.75 C3.75 5.62, 4.43 4.22, 6.75 2.25 M2.25 6.75 C3.93 4.87, 5.52 3.84, 6.75 2.25 M6.75 2.25 C9.64 -0.89, 10.14 0.65, 11.25 2.25 M6.75 2.25 C7.19 -1.58, 7.23 0.33, 11.25 2.25" stroke="#c92a2a" stroke-width="1" fill="none"></path></g><g transform="translate(119.86669921875 49.33332824707031) rotate(0 76.08796691894531 10)"><text x="0" y="0" font-family="Virgil, Segoe UI Emoji" font-size="16px" fill="#000000" text-anchor="start" style="white-space: pre;" direction="ltr" dominant-baseline="text-before-edge">call native function</text></g><g stroke-linecap="round" transform="translate(126.32001495361328 76.00001525878906) rotate(0 6.333343505859375 6.6666717529296875)"><path d="M8.75 1.75 M8.75 1.75 C9.23 2.56, 10.45 4.08, 10.92 5.25 M8.75 1.75 C9.24 2.76, 10.16 3.67, 10.92 5.25 M10.92 5.25 C11.81 6.32, 14.47 7.42, 10.92 8.75 M10.92 5.25 C13.14 9.24, 12.03 6.98, 10.92 8.75 M10.92 8.75 C10.07 10.07, 9.53 10.73, 8.75 11.58 M10.92 8.75 C10.03 9.55, 9.55 10.69, 8.75 11.58 M8.75 11.58 C5.98 13.73, 6.95 13.41, 5.25 11.58 M8.75 11.58 C7.25 12.45, 7 12.67, 5.25 11.58 M5.25 11.58 C4.63 10.81, 3.73 9.88, 1.75 8.75 M5.25 11.58 C3.95 10.5, 3.16 9.67, 1.75 8.75 M1.75 8.75 C1.07 7.05, 1.09 7, 1.75 5.25 M1.75 8.75 C1.25 8.76, -1.5 8.21, 1.75 5.25 M1.75 5.25 C2.27 4.59, 3.03 3.5, 5.25 1.75 M1.75 5.25 C2.59 4.59, 3.36 3.78, 5.25 1.75 M5.25 1.75 C7.76 -1.05, 8.92 0.96, 8.75 1.75 M5.25 1.75 C8.89 -2.08, 5.43 1.35, 8.75 1.75" stroke="#c92a2a" stroke-width="1" fill="none"></path></g><g transform="translate(142.32001495361328 72.33335876464844) rotate(0 58.783966064453125 10)"><text x="0" y="0" font-family="Virgil, Segoe UI Emoji" font-size="16px" fill="#c92a2a" text-anchor="start" style="white-space: pre;" direction="ltr" dominant-baseline="text-before-edge">: data in wasm</text></g><g stroke-linecap="round" transform="translate(256.66668701171875 144.6667022705078) rotate(0 5.666656494140625 8)"><path d="M7.5 2.25 M7.5 2.25 C8.72 3.5, 9.42 4.93, 9.83 6.75 M7.5 2.25 C8.03 3.09, 8.31 3.92, 9.83 6.75 M9.83 6.75 C9.82 7.99, 11.46 9.98, 9.83 11.25 M9.83 6.75 C11.17 10.03, 12.21 7.79, 9.83 11.25 M9.83 11.25 C8.61 12.03, 8.2 13.11, 7.5 13.75 M9.83 11.25 C9.1 12, 8.69 12.67, 7.5 13.75 M7.5 13.75 C4.87 15.04, 6.29 16.26, 4.5 13.75 M7.5 13.75 C7 16.37, 7.45 17.21, 4.5 13.75 M4.5 13.75 C3.98 13.34, 3.27 12.26, 1.5 11.25 M4.5 13.75 C3.85 13.22, 3.49 12.76, 1.5 11.25 M1.5 11.25 C0.25 9.37, -0.07 10.97, 1.5 6.75 M1.5 11.25 C2.04 8.74, 1.98 7.34, 1.5 6.75 M1.5 6.75 C2.25 5.68, 3.76 3.96, 4.5 2.25 M1.5 6.75 C2.1 5.58, 3.32 4.08, 4.5 2.25 M4.5 2.25 C5.39 1.31, 6.04 -0.34, 7.5 2.25 M4.5 2.25 C6.42 0.56, 5.16 -1.39, 7.5 2.25" stroke="#c92a2a" stroke-width="1" fill="none"></path></g><g stroke-linecap="round" transform="translate(254.00003051757812 266.66673278808594) rotate(0 6 6.666656494140625)"><path d="M8.75 1.75 M8.75 1.75 C9.02 2.25, 9.4 3.22, 10.25 5.25 M10.25 5.25 C12.79 8.85, 12.59 5.87, 10.25 8.75 M10.25 8.75 C10.02 9.52, 9.7 10.35, 8.75 11.58 M8.75 11.58 C6.22 15.17, 5.75 14.78, 5.25 11.58 M5.25 11.58 C3.49 10.1, 3.04 9.32, 1.75 8.75 M1.75 8.75 C-0.6 8.75, -0.09 7.25, 1.75 5.25 M1.75 5.25 C3.31 4.05, 4.41 2.63, 5.25 1.75 M5.25 1.75 C6.84 -1.44, 6.58 -0.6, 8.75 1.75" stroke="#000000" stroke-width="1.5" fill="none" stroke-dasharray="8 9"></path></g><g stroke-linecap="round"><g transform="translate(384 192.0000457763672) rotate(0 66.952801546827 -34.472558461238975)"><path d="M-0.25 0.85 C22.13 -10.76, 111.94 -57.98, 134.15 -69.8" stroke="#087f5b" stroke-width="1.5" fill="none" stroke-dasharray="8 9"></path></g><g transform="translate(384 192.0000457763672) rotate(0 66.952801546827 -34.472558461238975)"><path d="M115.44 -46.19 C120.19 -54.52, 125.69 -58.7, 135.27 -68.33" stroke="#087f5b" stroke-width="1.5" fill="none"></path></g><g transform="translate(384 192.0000457763672) rotate(0 66.952801546827 -34.472558461238975)"><path d="M105.86 -64.34 C113.39 -67.34, 121.69 -66.22, 135.27 -68.33" stroke="#087f5b" stroke-width="1.5" fill="none"></path></g></g><mask></mask><g stroke-linecap="round"><g transform="translate(380.66668701171875 110.66670227050781) rotate(0 60.40146144367753 -2.0277452232122073)"><path d="M-0.02 0.29 C20.13 -0.49, 100.66 -3.42, 120.82 -4.34" stroke="#087f5b" stroke-width="1.5" fill="none" stroke-dasharray="8 9"></path></g><g transform="translate(380.66668701171875 110.66670227050781) rotate(0 60.40146144367753 -2.0277452232122073)"><path d="M93.54 8.41 C101.21 5.27, 107.87 1.96, 119.42 -2.5" stroke="#087f5b" stroke-width="1.5" fill="none"></path></g><g transform="translate(380.66668701171875 110.66670227050781) rotate(0 60.40146144367753 -2.0277452232122073)"><path d="M92.72 -12.09 C100.69 -9.19, 107.59 -6.46, 119.42 -2.5" stroke="#087f5b" stroke-width="1.5" fill="none"></path></g></g><mask></mask><g transform="translate(510.0560302734375 92.66670227050781) rotate(0 141.43992614746094 10)"><text x="0" y="0" font-family="Virgil, Segoe UI Emoji" font-size="16px" fill="#087f5b" text-anchor="start" style="white-space: pre;" direction="ltr" dominant-baseline="text-before-edge">converting data between two layers</text></g><g stroke-linecap="round" transform="translate(467.33331298828125 190.00010681152344) rotate(0 37.5 25)"><path d="M12.5 0 M12.5 0 C29.5 -1.29, 47.03 1.11, 62.5 0 M12.5 0 C24.29 -0.05, 36.97 -0.63, 62.5 0 M62.5 0 C71.53 0.64, 73.39 2.82, 75 12.5 M62.5 0 C68.64 -0.56, 75.63 2.07, 75 12.5 M75 12.5 C76.51 19.06, 73.22 21.73, 75 37.5 M75 12.5 C75.64 22.13, 75 30.96, 75 37.5 M75 37.5 C73.74 46.29, 72.61 48.38, 62.5 50 M75 37.5 C73.55 47.65, 70.13 48.06, 62.5 50 M62.5 50 C43.84 51.04, 28.15 49.05, 12.5 50 M62.5 50 C43.75 50.25, 23.75 50.56, 12.5 50 M12.5 50 C4.29 49.16, 0.48 45.35, 0 37.5 M12.5 50 C4.47 50.1, -0.5 43.66, 0 37.5 M0 37.5 C0.33 30.47, -1.96 22.71, 0 12.5 M0 37.5 C-0.42 29.14, -0.82 22.09, 0 12.5 M0 12.5 C0.3 5.11, 5.72 0.66, 12.5 0 M0 12.5 C2.05 2.58, 2.65 -1.5, 12.5 0" stroke="#000000" stroke-width="1" fill="none"></path></g><g transform="translate(475.98533630371094 195.00010681152344) rotate(0 28.847976684570312 20)"><text x="28.847976684570312" y="0" font-family="Virgil, Segoe UI Emoji" font-size="16px" fill="#000000" text-anchor="middle" style="white-space: pre;" direction="ltr" dominant-baseline="text-before-edge">Mapping</text><text x="28.847976684570312" y="20" font-family="Virgil, Segoe UI Emoji" font-size="16px" fill="#000000" text-anchor="middle" style="white-space: pre;" direction="ltr" dominant-baseline="text-before-edge">layer</text></g><g stroke-linecap="round"><g transform="translate(458.66668701171875 204.6667022705078) rotate(0 -31.326884027943038 -6.718695119646469)"><path d="M0.97 0.83 C-0.63 -1.56, 0.09 -12.22, -10.67 -13.93 C-21.44 -15.65, -55.12 -10.16, -63.62 -9.48 M0.01 0.22 C-1.64 -1.99, -1.42 -10.46, -11.62 -12.36 C-21.83 -14.27, -53.01 -11.26, -61.23 -11.21" stroke="#c92a2a" stroke-width="1" fill="none"></path></g><g transform="translate(458.66668701171875 204.6667022705078) rotate(0 -31.326884027943038 -6.718695119646469)"><path d="M-35.85 -21.37 C-42.05 -20.65, -45.15 -15.33, -59.9 -9.34 M-37.1 -20.76 C-43.95 -19.69, -49.57 -15.22, -61.82 -10.44" stroke="#c92a2a" stroke-width="1" fill="none"></path></g><g transform="translate(458.66668701171875 204.6667022705078) rotate(0 -31.326884027943038 -6.718695119646469)"><path d="M-34.94 -3.57 C-41.38 -6.53, -44.67 -4.89, -59.9 -9.34 M-36.18 -2.97 C-43.31 -6.29, -49.16 -6.23, -61.82 -10.44" stroke="#c92a2a" stroke-width="1" fill="none"></path></g></g><mask></mask><g stroke-linecap="round"><g transform="translate(400.66668701171875 214.0000457763672) rotate(0 29.371886488478594 6.837300109285877)"><path d="M0.88 -1.05 C4.72 0.75, 14.52 7.82, 24.19 10.23 C33.85 12.63, 53.14 13.02, 58.87 13.38 M-0.12 1.02 C3.48 3.04, 13.56 9.25, 23.34 11.53 C33.12 13.82, 52.6 14.48, 58.55 14.72" stroke="#000000" stroke-width="1" fill="none"></path></g><g transform="translate(400.66668701171875 214.0000457763672) rotate(0 29.371886488478594 6.837300109285877)"><path d="M40.81 20.12 C48.08 18.95, 55.16 16.43, 57.18 15.32 M41.51 19.34 C48.95 17.56, 54.82 15.43, 59.32 15.17" stroke="#000000" stroke-width="1" fill="none"></path></g><g transform="translate(400.66668701171875 214.0000457763672) rotate(0 29.371886488478594 6.837300109285877)"><path d="M41.31 8.47 C48.33 11.88, 55.22 13.94, 57.18 15.32 M42.01 7.68 C49.29 10.23, 54.98 12.41, 59.32 15.17" stroke="#000000" stroke-width="1" fill="none"></path></g></g><mask></mask><g stroke-linecap="round" transform="translate(445.3333740234375 175.33335876464844) rotate(0 5 5)"><path d="M7.5 1.5 M7.5 1.5 C8 2.75, 8.09 3.37, 8.5 4.5 M7.5 1.5 C7.82 2.2, 8.07 3.29, 8.5 4.5 M8.5 4.5 C10.91 5.11, 9.32 4.86, 8.5 7.5 M8.5 4.5 C11.71 4.9, 9.78 5.42, 8.5 7.5 M8.5 7.5 C8.17 7.85, 8.01 8.19, 7.5 8.5 M8.5 7.5 C8.31 7.78, 8.15 7.99, 7.5 8.5 M7.5 8.5 C5.43 9.41, 4.61 11.42, 4.5 8.5 M7.5 8.5 C7.3 9.88, 6.19 10.15, 4.5 8.5 M4.5 8.5 C3.66 7.94, 1.94 7.82, 1.5 7.5 M4.5 8.5 C3.56 8.3, 3.05 8.12, 1.5 7.5 M1.5 7.5 C-1.36 5.51, -1.84 5.04, 1.5 4.5 M1.5 7.5 C-0.44 5.41, 0.74 4.69, 1.5 4.5 M1.5 4.5 C2.32 3.56, 3.49 2.51, 4.5 1.5 M1.5 4.5 C2.51 3.59, 3.76 2.52, 4.5 1.5 M4.5 1.5 C5.75 -0.3, 7.11 0.57, 7.5 1.5 M4.5 1.5 C6.64 1.87, 8.17 -1.22, 7.5 1.5" stroke="#c92a2a" stroke-width="1" fill="none"></path></g><g stroke-linecap="round" transform="translate(429.3333740234375 228.6667022705078) rotate(0 4.666656494140625 6.3333282470703125)"><path d="M6.25 1.75 M6.25 1.75 C7 3.35, 7.73 3.9, 8.08 5.25 M6.25 1.75 C7.08 3.16, 7.72 4.15, 8.08 5.25 M8.08 5.25 C8.74 5.61, 10.75 8.13, 8.08 8.75 M8.08 5.25 C9.22 7.19, 9.48 8.77, 8.08 8.75 M8.08 8.75 C7.52 8.97, 7.34 9.63, 6.25 10.92 M8.08 8.75 C7.59 9.52, 7.12 9.94, 6.25 10.92 M6.25 10.92 C4.51 10.83, 4.04 12.29, 3.75 10.92 M6.25 10.92 C4.41 13.41, 3.69 13.35, 3.75 10.92 M3.75 10.92 C3.27 10.44, 2.71 10.23, 1.25 8.75 M3.75 10.92 C3.27 10.38, 2.67 9.79, 1.25 8.75 M1.25 8.75 C-0.3 8.11, 0.57 7.55, 1.25 5.25 M1.25 8.75 C1.87 9.17, -1.22 8.92, 1.25 5.25 M1.25 5.25 C2.15 3.85, 2.69 2.99, 3.75 1.75 M1.25 5.25 C1.91 4.54, 2.47 3.72, 3.75 1.75 M3.75 1.75 C3.35 0.8, 6.75 1.97, 6.25 1.75 M3.75 1.75 C4.83 1.33, 2.86 2.13, 6.25 1.75" stroke="#000000" stroke-width="1" fill="none"></path></g><g stroke-linecap="round"><g transform="translate(541.3333740234375 230.6667022705078) rotate(0 26.74160709120332 -18.31994341947137)"><path d="M0.97 0.17 C9.89 -5.85, 44.15 -30.78, 52.51 -36.81" stroke="#2b8a3e" stroke-width="1.5" fill="none" stroke-dasharray="8 9"></path></g><g transform="translate(541.3333740234375 230.6667022705078) rotate(0 26.74160709120332 -18.31994341947137)"><path d="M35.99 -10 C39.21 -17.77, 44.2 -22.26, 53.07 -35.19" stroke="#2b8a3e" stroke-width="1.5" fill="none"></path></g><g transform="translate(541.3333740234375 230.6667022705078) rotate(0 26.74160709120332 -18.31994341947137)"><path d="M23.95 -26.63 C29.69 -30.91, 37.27 -31.8, 53.07 -35.19" stroke="#2b8a3e" stroke-width="1.5" fill="none"></path></g></g><mask></mask><g transform="translate(564 163.33335876464844) rotate(0 152.51190185546875 10)"><text x="0" y="0" font-family="Virgil, Segoe UI Emoji" font-size="16px" fill="#2b8a3e" text-anchor="start" style="white-space: pre;" direction="ltr" dominant-baseline="text-before-edge">mapping native memory to wasm memory</text></g><g stroke-linecap="round"><g transform="translate(121.74733715808895 90.96213672006036) rotate(0 -6.549759663007279 19.210516044900302)"><path d="M-0.87 0.37 C-3.04 6.83, -10.6 31.79, -12.23 38.06" stroke="#2b8a3e" stroke-width="1.5" fill="none" stroke-dasharray="8 9"></path></g><g transform="translate(121.74733715808895 90.96213672006036) rotate(0 -6.549759663007279 19.210516044900302)"><path d="M-13.07 16.07 C-14.91 26.17, -14.52 32.15, -12.51 39.25" stroke="#2b8a3e" stroke-width="1.5" fill="none"></path></g><g transform="translate(121.74733715808895 90.96213672006036) rotate(0 -6.549759663007279 19.210516044900302)"><path d="M0.29 19.87 C-6.41 28.49, -10.9 33.08, -12.51 39.25" stroke="#2b8a3e" stroke-width="1.5" fill="none"></path></g></g><mask></mask><g transform="translate(10 130.6667022705078) rotate(0 94.93594360351562 20)"><text x="0" y="0" font-family="Virgil, Segoe UI Emoji" font-size="16px" fill="#2b8a3e" text-anchor="start" style="white-space: pre;" direction="ltr" dominant-baseline="text-before-edge">Structural data aligned</text><text x="0" y="20" font-family="Virgil, Segoe UI Emoji" font-size="16px" fill="#2b8a3e" text-anchor="start" style="white-space: pre;" direction="ltr" dominant-baseline="text-before-edge">with wasm world rules</text></g><g transform="translate(604.730712890625 245.33335876464844) rotate(0 94.93594360351562 20)"><text x="0" y="0" font-family="Virgil, Segoe UI Emoji" font-size="16px" fill="#2b8a3e" text-anchor="start" style="white-space: pre;" direction="ltr" dominant-baseline="text-before-edge">Structural data aligned</text><text x="0" y="20" font-family="Virgil, Segoe UI Emoji" font-size="16px" fill="#2b8a3e" text-anchor="start" style="white-space: pre;" direction="ltr" dominant-baseline="text-before-edge">with native world rules</text></g><g stroke-linecap="round"><g transform="translate(510 268.6667022705078) rotate(0 46.523473855480574 -2.126850345358264)"><path d="M0.38 0.63 C16.01 -0.22, 77.21 -3.96, 92.67 -4.88" stroke="#2b8a3e" stroke-width="1.5" fill="none" stroke-dasharray="8 9"></path></g><g transform="translate(510 268.6667022705078) rotate(0 46.523473855480574 -2.126850345358264)"><path d="M66.19 8.18 C70.48 6.36, 76.16 1.7, 93.21 -5.71" stroke="#2b8a3e" stroke-width="1.5" fill="none"></path></g><g transform="translate(510 268.6667022705078) rotate(0 46.523473855480574 -2.126850345358264)"><path d="M64.96 -12.31 C69.53 -9.88, 75.47 -10.29, 93.21 -5.71" stroke="#2b8a3e" stroke-width="1.5" fill="none"></path></g></g><mask></mask></svg>