<svg version="1.1" xmlns="http://www.w3.org/2000/svg" viewBox="0 0 352.6667175292969 468.00001525878906" width="352.6667175292969" height="468.00001525878906">
  <!-- svg-source:excalidraw -->
  
  <defs>
    <style class="style-fonts">
      @font-face {
        font-family: "Virgil";
        src: url("https://excalidraw.com/Virgil.woff2");
      }
      @font-face {
        font-family: "Cascadia";
        src: url("https://excalidraw.com/Cascadia.woff2");
      }
    </style>
  </defs>
  <rect x="0" y="0" width="352.6667175292969" height="468.00001525878906" fill="#ffffff"></rect><g stroke-linecap="round" transform="translate(248.66668701171875 114.66665649414062) rotate(0 44.5 60)"><path d="M22.25 0 M22.25 0 C39.05 0.42, 53.58 -0.59, 66.75 0 M22.25 0 C34.53 0.45, 46.74 -0.33, 66.75 0 M66.75 0 C83.02 1.92, 90.62 9.06, 89 22.25 M66.75 0 C79.88 -0.26, 86.99 8.25, 89 22.25 M89 22.25 C88.87 46.8, 90.75 74.44, 89 97.75 M89 22.25 C88.57 42.55, 87.46 62.03, 89 97.75 M89 97.75 C87.48 114.1, 80.99 120.92, 66.75 120 M89 97.75 C89.43 110.82, 82.06 122.15, 66.75 120 M66.75 120 C54.46 121.43, 40.75 120.43, 22.25 120 M66.75 120 C52.57 118.77, 36.55 119.85, 22.25 120 M22.25 120 C5.96 120.97, -0.14 111.64, 0 97.75 M22.25 120 C8.49 120.03, 1.59 110.57, 0 97.75 M0 97.75 C0.23 78.87, 1.04 62.08, 0 22.25 M0 97.75 C-1.32 81.29, 0 62.6, 0 22.25 M0 22.25 C-0.65 7.4, 9.17 -0.83, 22.25 0 M0 22.25 C-1.64 9.09, 7.07 1.3, 22.25 0" stroke="#000000" stroke-width="1" fill="none"></path></g><g transform="translate(257.1067199707031 149.66665649414062) rotate(0 36.059967041015625 25)"><text x="36.059967041015625" y="0" font-family="Virgil, Segoe UI Emoji" font-size="20px" fill="#000000" text-anchor="middle" style="white-space: pre;" direction="ltr" dominant-baseline="text-before-edge">Mapping</text><text x="36.059967041015625" y="25" font-family="Virgil, Segoe UI Emoji" font-size="20px" fill="#000000" text-anchor="middle" style="white-space: pre;" direction="ltr" dominant-baseline="text-before-edge">layer</text></g><g stroke-linecap="round"><g transform="translate(84.70644751990977 155.2384197396117) rotate(0 81.5428055660253 -2.720296329179888)"><path d="M0.97 -0.79 C27.8 -2.1, 134.19 -5.95, 160.98 -6.86 M0.01 1.42 C27.2 0.81, 136.3 -3.77, 163.07 -5.38" stroke="#000000" stroke-width="1" fill="none"></path></g><g transform="translate(84.70644751990977 155.2384197396117) rotate(0 81.5428055660253 -2.720296329179888)"><path d="M134.11 4.3 C143.3 1.78, 152.57 -2.39, 162.04 -3.45 M134.5 6.01 C141.6 4.32, 147.04 1.52, 164.05 -4.74" stroke="#000000" stroke-width="1" fill="none"></path></g><g transform="translate(84.70644751990977 155.2384197396117) rotate(0 81.5428055660253 -2.720296329179888)"><path d="M133.1 -16.2 C142.77 -12.66, 152.33 -10.76, 162.04 -3.45 M133.48 -14.49 C140.74 -11.99, 146.39 -10.59, 164.05 -4.74" stroke="#000000" stroke-width="1" fill="none"></path></g></g><mask></mask><g stroke-linecap="round" transform="translate(10 108.00003051757812) rotate(0 36 61)"><path d="M18 0 M18 0 C26.82 0.17, 35.57 -0.03, 54 0 M18 0 C30.99 0.27, 42.14 0.79, 54 0 M54 0 C64.06 0.18, 71.81 5.34, 72 18 M54 0 C65.54 1.73, 70.2 4.38, 72 18 M72 18 C72.32 52.52, 70.31 83.08, 72 104 M72 18 C71.63 51.11, 71.63 85.02, 72 104 M72 104 C71.52 117.27, 64.92 123.66, 54 122 M72 104 C73.4 117.9, 65.14 123.8, 54 122 M54 122 C45.69 120.39, 36.95 123.59, 18 122 M54 122 C43.74 122.07, 33.76 121.27, 18 122 M18 122 C6.3 123.89, 1.49 117.59, 0 104 M18 122 C5.54 122.42, 0.8 114.42, 0 104 M0 104 C-1.14 74.64, -0.04 44, 0 18 M0 104 C1.5 84.71, 0.13 63.73, 0 18 M0 18 C0.74 5.91, 5.3 1.54, 18 0 M0 18 C-1.74 5.03, 6.98 -1.19, 18 0" stroke="#000000" stroke-width="1" fill="none"></path></g><g transform="translate(16.648033142089844 139.00003051757812) rotate(0 29.351966857910156 30)"><text x="29.351966857910156" y="0" font-family="Virgil, Segoe UI Emoji" font-size="16px" fill="#000000" text-anchor="middle" style="white-space: pre;" direction="ltr" dominant-baseline="text-before-edge">Native</text><text x="29.351966857910156" y="20" font-family="Virgil, Segoe UI Emoji" font-size="16px" fill="#000000" text-anchor="middle" style="white-space: pre;" direction="ltr" dominant-baseline="text-before-edge">wrapper</text><text x="29.351966857910156" y="40" font-family="Virgil, Segoe UI Emoji" font-size="16px" fill="#000000" text-anchor="middle" style="white-space: pre;" direction="ltr" dominant-baseline="text-before-edge">layer</text></g><g stroke-linecap="round" transform="translate(42.66668701171875 351.00001525878906) rotate(0 34.5 53.5)"><path d="M17.25 0 M17.25 0 C28.11 -2.05, 42.59 1.21, 51.75 0 M17.25 0 C29.65 0.21, 40.96 1.02, 51.75 0 M51.75 0 C61.74 -0.85, 69.85 4.72, 69 17.25 M51.75 0 C62.25 -1.34, 66.8 5.11, 69 17.25 M69 17.25 C70.5 33.47, 67.67 49.74, 69 89.75 M69 17.25 C69.08 41.41, 68 66.94, 69 89.75 M69 89.75 C70.64 100.11, 63.89 108.28, 51.75 107 M69 89.75 C70.05 99.73, 61.97 108.54, 51.75 107 M51.75 107 C38.31 105.36, 29.62 106.87, 17.25 107 M51.75 107 C43.03 106.22, 32.95 106.43, 17.25 107 M17.25 107 C7.54 108.67, -1.19 103.04, 0 89.75 M17.25 107 C5.26 109.04, -0.54 100.31, 0 89.75 M0 89.75 C0.54 67.92, -0.98 47.03, 0 17.25 M0 89.75 C0.54 67.15, -0.78 42.48, 0 17.25 M0 17.25 C-0.4 4.97, 6.54 0.38, 17.25 0 M0 17.25 C-0.22 6.65, 6.21 1.11, 17.25 0" stroke="#000000" stroke-width="1" fill="none"></path></g><g transform="translate(54.958702087402344 384.50001525878906) rotate(0 22.207984924316406 20)"><text x="22.207984924316406" y="0" font-family="Virgil, Segoe UI Emoji" font-size="16px" fill="#000000" text-anchor="middle" style="white-space: pre;" direction="ltr" dominant-baseline="text-before-edge">WASM</text><text x="22.207984924316406" y="20" font-family="Virgil, Segoe UI Emoji" font-size="16px" fill="#000000" text-anchor="middle" style="white-space: pre;" direction="ltr" dominant-baseline="text-before-edge">layer</text></g><g stroke-linecap="round" transform="translate(233.33340454101562 10) rotate(0 54 35.5)"><path d="M17.75 0 M17.75 0 C39.61 -1.38, 62.16 -0.13, 90.25 0 M17.75 0 C41.42 0.42, 67.54 0.91, 90.25 0 M90.25 0 C101.8 -1.7, 108.57 4.55, 108 17.75 M90.25 0 C104.05 0.67, 106.58 3.88, 108 17.75 M108 17.75 C109.8 25.79, 109.96 36.21, 108 53.25 M108 17.75 C107.79 25.32, 106.77 35.52, 108 53.25 M108 53.25 C108.52 65.01, 104.06 69.59, 90.25 71 M108 53.25 C107.15 64.72, 103.26 69.36, 90.25 71 M90.25 71 C71.21 71, 50.96 70, 17.75 71 M90.25 71 C68.3 70.36, 47.74 70.48, 17.75 71 M17.75 71 C5.84 72.75, 1.83 64.47, 0 53.25 M17.75 71 C6.74 71.9, -0.56 63.09, 0 53.25 M0 53.25 C0.24 42.93, 0.12 36.13, 0 17.75 M0 53.25 C0.88 43.09, -0.09 35.18, 0 17.75 M0 17.75 C0 5.25, 7.74 -0.99, 17.75 0 M0 17.75 C-0.26 4.58, 4.12 2.08, 17.75 0" stroke="#000000" stroke-width="1" fill="none"></path></g><g transform="translate(240.66941833496094 25.5) rotate(0 46.66398620605469 20)"><text x="46.66398620605469" y="0" font-family="Virgil, Segoe UI Emoji" font-size="16px" fill="#000000" text-anchor="middle" style="white-space: pre;" direction="ltr" dominant-baseline="text-before-edge">The native </text><text x="46.66398620605469" y="20" font-family="Virgil, Segoe UI Emoji" font-size="16px" fill="#000000" text-anchor="middle" style="white-space: pre;" direction="ltr" dominant-baseline="text-before-edge">world</text></g><g stroke-linecap="round" transform="translate(234.66671752929688 262) rotate(0 54 38)"><path d="M19 0 M19 0 C36.09 -1.31, 50.72 0.91, 89 0 M19 0 C43.27 -0.54, 66.28 -0.4, 89 0 M89 0 C100.86 -1.46, 107.31 6.2, 108 19 M89 0 C101.15 -0.08, 110.01 8.44, 108 19 M108 19 C107.65 27.5, 106.95 38.87, 108 57 M108 19 C108.03 31.56, 107.7 43.69, 108 57 M108 57 C106.44 71.09, 100.36 75.49, 89 76 M108 57 C110.18 69.66, 100.9 78.1, 89 76 M89 76 C69.9 77.4, 53.88 76.79, 19 76 M89 76 C61.1 75.51, 35.21 77.05, 19 76 M19 76 C4.81 75.17, 1.78 68.55, 0 57 M19 76 C5.64 76.67, 2.06 69.91, 0 57 M0 57 C-1.7 47, -0.79 38.45, 0 19 M0 57 C-0.95 44.53, 0.61 30.76, 0 19 M0 19 C1.04 7.53, 5.71 -0.18, 19 0 M0 19 C0.64 6.63, 8.47 -1.36, 19 0" stroke="#000000" stroke-width="1" fill="none"></path></g><g transform="translate(246.29074096679688 280) rotate(0 42.3759765625 20)"><text x="42.3759765625" y="0" font-family="Virgil, Segoe UI Emoji" font-size="16px" fill="#000000" text-anchor="middle" style="white-space: pre;" direction="ltr" dominant-baseline="text-before-edge">The wasm </text><text x="42.3759765625" y="20" font-family="Virgil, Segoe UI Emoji" font-size="16px" fill="#000000" text-anchor="middle" style="white-space: pre;" direction="ltr" dominant-baseline="text-before-edge">world</text></g><g stroke-linecap="round" transform="translate(146.66668701171875 122.66668701171875) rotate(0 12 11.333328247070312)"><path d="M16.25 3 M16.25 3 C18.06 5.83, 19.52 7.39, 20.75 9 M16.25 3 C17.91 5.16, 19.74 7.98, 20.75 9 M20.75 9 C23.07 10.52, 23.75 10.37, 20.75 15 M20.75 9 C23.04 10.28, 24.21 10.08, 20.75 15 M20.75 15 C19.68 17.06, 17.83 18.15, 16.25 19.67 M20.75 15 C19.36 16.32, 18.41 17.77, 16.25 19.67 M16.25 19.67 C12.73 21.55, 11.17 23.7, 9.75 19.67 M16.25 19.67 C12.77 22.15, 12.01 20.93, 9.75 19.67 M9.75 19.67 C7.79 18.24, 6.91 17.97, 3.25 15 M9.75 19.67 C8.65 18.78, 6.8 17.85, 3.25 15 M3.25 15 C-0.73 11.78, 1.79 10.47, 3.25 9 M3.25 15 C-1.81 11.13, 0.73 10.27, 3.25 9 M3.25 9 C6.45 6.22, 8.15 5.03, 9.75 3 M3.25 9 C4.22 7.56, 5.72 6.72, 9.75 3 M9.75 3 C12.08 0.16, 14.23 0.41, 16.25 3 M9.75 3 C12.23 0.75, 14.24 -0.76, 16.25 3" stroke="#000000" stroke-width="1" fill="none"></path></g><g stroke-linecap="round"><g transform="translate(245.94970587964326 180.16472596464916) rotate(0 -80.39917398374212 0.6921540843537173)"><path d="M1.14 0.63 C-25.61 0.61, -134.16 -0.01, -161.38 0.2 M0.27 -0.08 C-26.48 0.03, -134.73 1.42, -161.93 1.46" stroke="#c92a2a" stroke-width="1" fill="none"></path></g><g transform="translate(245.94970587964326 180.16472596464916) rotate(0 -80.39917398374212 0.6921540843537173)"><path d="M-132.77 -7.76 C-140.91 -6.49, -144.35 -4.84, -162.56 1.16 M-134.39 -9.93 C-144.18 -5.1, -155.8 -1.38, -162.69 0.59" stroke="#c92a2a" stroke-width="1" fill="none"></path></g><g transform="translate(245.94970587964326 180.16472596464916) rotate(0 -80.39917398374212 0.6921540843537173)"><path d="M-132.61 12.76 C-140.84 9.46, -144.31 6.54, -162.56 1.16 M-134.22 10.59 C-144.09 7.48, -155.77 3.26, -162.69 0.59" stroke="#c92a2a" stroke-width="1" fill="none"></path></g></g><mask></mask><g stroke-linecap="round" transform="translate(158.66668701171875 198.66668701171875) rotate(0 10.666656494140625 11)"><path d="M13.75 3 M13.75 3 C15.02 5.09, 17.18 6.43, 18.58 9 M13.75 3 C14.88 4.65, 16.72 6.61, 18.58 9 M18.58 9 C23.26 12.61, 22.12 13.67, 18.58 15 M18.58 9 C19.75 9.93, 23.18 12.22, 18.58 15 M18.58 15 C16.42 16, 15.1 17.74, 13.75 19 M18.58 15 C16.96 16.38, 15.49 17.73, 13.75 19 M13.75 19 C9.88 21.39, 10.29 23.27, 8.25 19 M13.75 19 C12.94 22.62, 10.29 22.31, 8.25 19 M8.25 19 C5.67 17.27, 4.75 15.6, 2.75 15 M8.25 19 C6.13 17.75, 4.35 16.21, 2.75 15 M2.75 15 C1.36 12.01, -0.8 10.1, 2.75 9 M2.75 15 C-0.97 11.75, 1.62 12.57, 2.75 9 M2.75 9 C3.93 8.06, 5.16 6.42, 8.25 3 M2.75 9 C3.71 7.49, 4.62 6.93, 8.25 3 M8.25 3 C9.84 1.29, 10.27 -1.83, 13.75 3 M8.25 3 C12.91 -0.53, 9.52 -1.7, 13.75 3" stroke="#c92a2a" stroke-width="1" fill="none"></path></g><g stroke-linecap="round"><g transform="translate(168.46063594684932 126.25086312569198) rotate(0 29.274581635562612 -29.82062194729292)"><path d="M-1.12 -0.66 C8.81 -10.43, 49.44 -49.07, 59.67 -58.98" stroke="#000000" stroke-width="1.5" fill="none" stroke-dasharray="8 9"></path></g><g transform="translate(168.46063594684932 126.25086312569198) rotate(0 29.274581635562612 -29.82062194729292)"><path d="M45.32 -33.56 C52.54 -40.76, 54.68 -46.64, 60.28 -60.6" stroke="#000000" stroke-width="1.5" fill="none"></path></g><g transform="translate(168.46063594684932 126.25086312569198) rotate(0 29.274581635562612 -29.82062194729292)"><path d="M31.12 -48.37 C42.67 -50.87, 49.19 -52.18, 60.28 -60.6" stroke="#000000" stroke-width="1.5" fill="none"></path></g></g><mask></mask><g stroke-linecap="round"><g transform="translate(170.31660573276451 222.35521733661085) rotate(0 31.340309562311347 33.93148942529879)"><path d="M0.85 0.64 C11.23 11.84, 51.38 56.17, 61.83 67.22" stroke="#c92a2a" stroke-width="1.5" fill="none" stroke-dasharray="8 9"></path></g><g transform="translate(170.31660573276451 222.35521733661085) rotate(0 31.340309562311347 33.93148942529879)"><path d="M36.24 51.57 C42.96 57.86, 49.54 60.47, 63.05 67.72" stroke="#c92a2a" stroke-width="1.5" fill="none"></path></g><g transform="translate(170.31660573276451 222.35521733661085) rotate(0 31.340309562311347 33.93148942529879)"><path d="M51.32 37.65 C54.05 47.73, 56.65 54.02, 63.05 67.72" stroke="#c92a2a" stroke-width="1.5" fill="none"></path></g></g><mask></mask><g stroke-linecap="round"><g transform="translate(62.66668701171875 238.00003051757812) rotate(0 8.190151106854898 54.4434077126719)"><path d="M0.15 1.12 C3.01 18.79, 14.67 89.04, 17.61 106.91 M-1.23 0.66 C1.46 18.42, 13.73 90.58, 16.81 108.23" stroke="#c92a2a" stroke-width="1" fill="none"></path></g><g transform="translate(62.66668701171875 238.00003051757812) rotate(0 8.190151106854898 54.4434077126719)"><path d="M3.79 82.64 C6.42 91.65, 13.82 101.08, 16.94 109.27 M2.41 82.58 C7.55 90.47, 10.89 99.19, 16.65 108.07" stroke="#c92a2a" stroke-width="1" fill="none"></path></g><g transform="translate(62.66668701171875 238.00003051757812) rotate(0 8.190151106854898 54.4434077126719)"><path d="M24.02 79.17 C19.87 89.38, 20.47 99.97, 16.94 109.27 M22.64 79.11 C21.21 88.25, 17.99 98.09, 16.65 108.07" stroke="#c92a2a" stroke-width="1" fill="none"></path></g></g><mask></mask><g stroke-linecap="round" transform="translate(74 276.6667175292969) rotate(0 13.333343505859375 11.33331298828125)"><path d="M17.5 3 M17.5 3 C18.44 4.77, 21.47 6.04, 23.17 9 M17.5 3 C18.68 4.94, 20.49 6.03, 23.17 9 M23.17 9 C24.95 11.15, 25.36 11.09, 23.17 15 M23.17 9 C28.46 12.85, 27.2 12.18, 23.17 15 M23.17 15 C21.26 16.71, 20.41 17.21, 17.5 19.67 M23.17 15 C21.06 16.64, 18.91 18.6, 17.5 19.67 M17.5 19.67 C12.14 24.13, 13.15 21.71, 10.5 19.67 M17.5 19.67 C13.61 22.35, 14.34 23.78, 10.5 19.67 M10.5 19.67 C8.72 18.39, 6.67 17.18, 3.5 15 M10.5 19.67 C7.32 17.92, 5.26 15.79, 3.5 15 M3.5 15 C1.93 13.16, 1.27 12.09, 3.5 9 M3.5 15 C1.83 11.09, 0.86 9.98, 3.5 9 M3.5 9 C4.84 8.12, 5.64 6.25, 10.5 3 M3.5 9 C5.85 6.45, 9.19 3.92, 10.5 3 M10.5 3 C15.45 1.78, 13.94 1.4, 17.5 3 M10.5 3 C13.28 1.12, 12.88 1.47, 17.5 3" stroke="#c92a2a" stroke-width="1" fill="none"></path></g><g transform="translate(101.33334350585938 43.333343505859375) rotate(0 47.06398010253906 20)"><text x="0" y="0" font-family="Virgil, Segoe UI Emoji" font-size="16px" fill="#000000" text-anchor="start" style="white-space: pre;" direction="ltr" dominant-baseline="text-before-edge">unique data</text><text x="0" y="20" font-family="Virgil, Segoe UI Emoji" font-size="16px" fill="#000000" text-anchor="start" style="white-space: pre;" direction="ltr" dominant-baseline="text-before-edge">from native</text></g><g transform="translate(100.93601989746094 244.33331298828125) rotate(0 46.81597137451172 20)"><text x="0" y="0" font-family="Virgil, Segoe UI Emoji" font-size="16px" fill="#c92a2a" text-anchor="start" style="white-space: pre;" direction="ltr" dominant-baseline="text-before-edge">copied data</text><text x="0" y="20" font-family="Virgil, Segoe UI Emoji" font-size="16px" fill="#c92a2a" text-anchor="start" style="white-space: pre;" direction="ltr" dominant-baseline="text-before-edge">from wasm</text></g><g transform="translate(105.66665649414062 125.33334350585938) rotate(0 2.167999267578125 10)"><text x="0" y="0" font-family="Virgil, Segoe UI Emoji" font-size="16px" fill="#364fc7" text-anchor="start" style="white-space: pre;" direction="ltr" dominant-baseline="text-before-edge">1</text></g><g transform="translate(207.33334350585938 186.00003051757812) rotate(0 5.6959991455078125 10)"><text x="0" y="0" font-family="Virgil, Segoe UI Emoji" font-size="16px" fill="#364fc7" text-anchor="start" style="white-space: pre;" direction="ltr" dominant-baseline="text-before-edge">2</text></g><g transform="translate(44 243.33331298828125) rotate(0 5.447998046875 10)"><text x="0" y="0" font-family="Virgil, Segoe UI Emoji" font-size="16px" fill="#364fc7" text-anchor="start" style="white-space: pre;" direction="ltr" dominant-baseline="text-before-edge">3</text></g></svg>