<svg version="1.1" xmlns="http://www.w3.org/2000/svg" viewBox="0 0 601.6852569580078 144.16665649414062" width="601.6852569580078" height="144.16665649414062">
  <!-- svg-source:excalidraw -->
  
  <defs>
    <style class="style-fonts">
      @font-face {
        font-family: "Virgil";
        src: url("https://excalidraw.com/Virgil.woff2");
      }
      @font-face {
        font-family: "Cascadia";
        src: url("https://excalidraw.com/Cascadia.woff2");
      }
    </style>
  </defs>
  <rect x="0" y="0" width="601.6852569580078" height="144.16665649414062" fill="#ffffff"></rect><g stroke-linecap="round" transform="translate(285.3333435058594 14.166656494140625) rotate(0 44.5 60)"><path d="M22.25 0 M22.25 0 C39.05 0.42, 53.58 -0.59, 66.75 0 M22.25 0 C34.53 0.45, 46.74 -0.33, 66.75 0 M66.75 0 C83.02 1.92, 90.62 9.06, 89 22.25 M66.75 0 C79.88 -0.26, 86.99 8.25, 89 22.25 M89 22.25 C88.87 46.8, 90.75 74.44, 89 97.75 M89 22.25 C88.57 42.55, 87.46 62.03, 89 97.75 M89 97.75 C87.48 114.1, 80.99 120.92, 66.75 120 M89 97.75 C89.43 110.82, 82.06 122.15, 66.75 120 M66.75 120 C54.46 121.43, 40.75 120.43, 22.25 120 M66.75 120 C52.57 118.77, 36.55 119.85, 22.25 120 M22.25 120 C5.96 120.97, -0.14 111.64, 0 97.75 M22.25 120 C8.49 120.03, 1.59 110.57, 0 97.75 M0 97.75 C0.23 78.87, 1.04 62.08, 0 22.25 M0 97.75 C-1.32 81.29, 0 62.6, 0 22.25 M0 22.25 C-0.65 7.4, 9.17 -0.83, 22.25 0 M0 22.25 C-1.64 9.09, 7.07 1.3, 22.25 0" stroke="#000000" stroke-width="1" fill="none"></path></g><g transform="translate(293.77337646484375 49.166656494140625) rotate(0 36.059967041015625 25)"><text x="36.059967041015625" y="0" font-family="Virgil, Segoe UI Emoji" font-size="20px" fill="#000000" text-anchor="middle" style="white-space: pre;" direction="ltr" dominant-baseline="text-before-edge">Mapping</text><text x="36.059967041015625" y="25" font-family="Virgil, Segoe UI Emoji" font-size="20px" fill="#000000" text-anchor="middle" style="white-space: pre;" direction="ltr" dominant-baseline="text-before-edge">layer</text></g><g stroke-linecap="round"><g transform="translate(62.651118158651855 51.600075314309606) rotate(0 108.47614242798167 1.022292353649192)"><path d="M0.97 -0.79 C36.78 -0.74, 179.08 0.85, 214.84 1.31 M0.01 1.42 C36.18 2.17, 181.19 3.04, 216.94 2.79" stroke="#000000" stroke-width="1" fill="none"></path></g><g transform="translate(62.651118158651855 51.600075314309606) rotate(0 108.47614242798167 1.022292353649192)"><path d="M187.43 11.07 C196.79 8.96, 206.22 5.2, 215.91 4.72 M187.82 12.78 C195.02 11.37, 200.58 8.86, 217.92 3.43" stroke="#000000" stroke-width="1" fill="none"></path></g><g transform="translate(62.651118158651855 51.600075314309606) rotate(0 108.47614242798167 1.022292353649192)"><path d="M187.45 -9.45 C196.98 -5.49, 206.41 -3.17, 215.91 4.72 M187.83 -7.74 C194.99 -4.95, 200.54 -3.25, 217.92 3.43" stroke="#000000" stroke-width="1" fill="none"></path></g></g><mask></mask><g transform="translate(57.666656494140625 21) rotate(0 77.92794799804688 10)"><text x="0" y="0" font-family="Virgil, Segoe UI Emoji" font-size="16px" fill="#000000" text-anchor="start" style="white-space: pre;" direction="ltr" dominant-baseline="text-before-edge">native data: "Intel"</text></g><g stroke-linecap="round"><g transform="translate(381.3333435058594 47.37984172485983) rotate(0 83.15683423066986 -1.5998832024551461)"><path d="M0.44 -1.15 C28.48 -2.01, 139.49 -3.72, 167.1 -4.06 M-0.79 0.86 C27.23 0.63, 138.71 -2.59, 166.34 -3.06" stroke="#000000" stroke-width="1" fill="none"></path></g><g transform="translate(381.3333435058594 47.37984172485983) rotate(0 83.15683423066986 -1.5998832024551461)"><path d="M136.48 8.47 C142.34 4.5, 149.55 3.95, 166.47 -3.18 M138.16 7.41 C147.06 5.5, 155.18 1.57, 166.98 -2.83" stroke="#000000" stroke-width="1" fill="none"></path></g><g transform="translate(381.3333435058594 47.37984172485983) rotate(0 83.15683423066986 -1.5998832024551461)"><path d="M136 -12.05 C142.14 -11.82, 149.45 -8.16, 166.47 -3.18 M137.68 -13.11 C146.74 -8.49, 155.01 -5.91, 166.98 -2.83" stroke="#000000" stroke-width="1" fill="none"></path></g></g><mask></mask><g transform="translate(399.0000305175781 10) rotate(0 73.63993835449219 10)"><text x="0" y="0" font-family="Virgil, Segoe UI Emoji" font-size="16px" fill="#000000" text-anchor="start" style="white-space: pre;" direction="ltr" dominant-baseline="text-before-edge">wasm data: "Intel"</text></g><g stroke-linecap="round"><g transform="translate(20.000015258789062 113.5) rotate(0 126.28798644281923 -2.8184354064148067)"><path d="M-1.04 0.28 C41.13 -0.44, 210.98 -3.25, 253.61 -4.09 M0.62 -0.62 C42.54 -1.71, 210.16 -5.44, 252.46 -5.91" stroke="#c92a2a" stroke-width="1" fill="none"></path></g><g transform="translate(20.000015258789062 113.5) rotate(0 126.28798644281923 -2.8184354064148067)"><path d="M224.92 4.2 C235.18 2.61, 243.86 -2.76, 252.9 -7.42 M224.57 5.58 C231.3 2.98, 237.37 -0.25, 253.45 -5.68" stroke="#c92a2a" stroke-width="1" fill="none"></path></g><g transform="translate(20.000015258789062 113.5) rotate(0 126.28798644281923 -2.8184354064148067)"><path d="M224.56 -16.32 C234.98 -10.73, 243.79 -8.94, 252.9 -7.42 M224.21 -14.94 C231.22 -12.93, 237.37 -11.55, 253.45 -5.68" stroke="#c92a2a" stroke-width="1" fill="none"></path></g></g><mask></mask><g transform="translate(10 82.16665649414062) rotate(0 113.79994201660156 10)"><text x="0" y="0" font-family="Virgil, Segoe UI Emoji" font-size="16px" fill="#c92a2a" text-anchor="start" style="white-space: pre;" direction="ltr" dominant-baseline="text-before-edge">function pointer or an object</text></g><g stroke-linecap="round"><g transform="translate(386.0000305175781 119.5) rotate(0 77.45543420347389 -2.7103238616138583)"><path d="M0.33 -0.07 C26.51 -0.8, 129.73 -4.65, 155.87 -5.35 M-0.96 -1.16 C25.15 -1.6, 128.52 -3.01, 154.86 -3.82" stroke="#c92a2a" stroke-width="1" fill="none"></path></g><g transform="translate(386.0000305175781 119.5) rotate(0 77.45543420347389 -2.7103238616138583)"><path d="M126.77 6.82 C132.55 6.77, 139.98 3.42, 156.83 -2.75 M125.96 6.79 C134.35 3.86, 142.28 0.41, 155.58 -2.9" stroke="#c92a2a" stroke-width="1" fill="none"></path></g><g transform="translate(386.0000305175781 119.5) rotate(0 77.45543420347389 -2.7103238616138583)"><path d="M126.33 -13.7 C132.04 -9.64, 139.55 -8.89, 156.83 -2.75 M125.53 -13.73 C134.11 -10.76, 142.16 -8.32, 155.58 -2.9" stroke="#c92a2a" stroke-width="1" fill="none"></path></g></g><mask></mask><g transform="translate(407.3333435058594 84.16665649414062) rotate(0 92.17595672607422 10)"><text x="0" y="0" font-family="Virgil, Segoe UI Emoji" font-size="16px" fill="#c92a2a" text-anchor="start" style="white-space: pre;" direction="ltr" dominant-baseline="text-before-edge">a handle with value 32</text></g></svg>