<svg version="1.1" xmlns="http://www.w3.org/2000/svg" viewBox="0 0 1390.3333129882812 796.5" width="1390.3333129882812" height="796.5">
  <!-- svg-source:excalidraw -->
  
  <defs>
    <style class="style-fonts">
      @font-face {
        font-family: "Virgil";
        src: url("https://excalidraw.com/Virgil.woff2");
      }
      @font-face {
        font-family: "Cascadia";
        src: url("https://excalidraw.com/Cascadia.woff2");
      }
    </style>
  </defs>
  <rect x="0" y="0" width="1390.3333129882812" height="796.5" fill="#ffffff"></rect><g stroke-linecap="round" transform="translate(444.33331298828125 149) rotate(0 100.5 194.5)"><path d="M32 0 M32 0 C82.38 0.97, 129.44 1.17, 169 0 M32 0 C63.51 -0.04, 96.06 -1.4, 169 0 M169 0 C190.26 -0.07, 200.25 11.17, 201 32 M169 0 C189.12 -2.29, 202.26 11.51, 201 32 M201 32 C198.88 100.47, 200.61 169.89, 201 357 M201 32 C199.28 159.01, 199.35 285.7, 201 357 M201 357 C199.29 379.28, 188.88 389.18, 169 389 M201 357 C201.48 380.02, 191.47 386.9, 169 389 M169 389 C124.72 388.9, 80.24 388.26, 32 389 M169 389 C138.45 388.88, 108.87 388.33, 32 389 M32 389 C9.97 388.66, -1.8 377.72, 0 357 M32 389 C11.59 389.17, 0.89 379.21, 0 357 M0 357 C0.13 259.94, -1.14 163.55, 0 32 M0 357 C1.21 231.12, 1.68 106.07, 0 32 M0 32 C-0.69 11.18, 11.68 -0.32, 32 0 M0 32 C-0.93 11.63, 12.68 0.77, 32 0" stroke="#000000" stroke-width="1" fill="none"></path></g><g transform="translate(457.5633850097656 154) rotate(0 87.26992797851562 25)"><text x="87.26992797851562" y="0" font-family="Virgil, Segoe UI Emoji" font-size="20px" fill="#000000" text-anchor="middle" style="white-space: pre;" direction="ltr" dominant-baseline="text-before-edge">the wasm wrapper</text><text x="87.26992797851562" y="25" font-family="Virgil, Segoe UI Emoji" font-size="20px" fill="#000000" text-anchor="middle" style="white-space: pre;" direction="ltr" dominant-baseline="text-before-edge">layer</text></g><g stroke-linecap="round" transform="translate(839 152) rotate(0 91 176.5)"><path d="M32 0 M32 0 C75.72 0.66, 117 0.83, 150 0 M32 0 C56.96 -1.23, 84.26 -0.32, 150 0 M150 0 C169.51 -1.7, 181.32 10.13, 182 32 M150 0 C173.37 0.52, 181.12 10.01, 182 32 M182 32 C180.72 131.92, 182.64 229.24, 182 321 M182 32 C183.42 125.23, 183.39 218.72, 182 321 M182 321 C181.75 343.02, 170.25 353.01, 150 353 M182 321 C181.08 340.32, 171.62 352.6, 150 353 M150 353 C128.01 353.56, 100.46 351.65, 32 353 M150 353 C118.71 354.06, 87.73 353.69, 32 353 M32 353 C9.04 353.56, -1.85 342.87, 0 321 M32 353 C11.4 352.28, 1.27 342.08, 0 321 M0 321 C-0.44 234.57, -0.02 147.72, 0 32 M0 321 C-0.96 231.38, 0.07 140.63, 0 32 M0 32 C-1.31 9.25, 9.73 -0.18, 32 0 M0 32 C-0.62 11.62, 11.1 -0.92, 32 0" stroke="#000000" stroke-width="1" fill="none"></path></g><g transform="translate(864.5500564575195 157) rotate(0 65.44994354248047 25)"><text x="65.44994354248047" y="0" font-family="Virgil, Segoe UI Emoji" font-size="20px" fill="#000000" text-anchor="middle" style="white-space: pre;" direction="ltr" dominant-baseline="text-before-edge">the native </text><text x="65.44994354248047" y="25" font-family="Virgil, Segoe UI Emoji" font-size="20px" fill="#000000" text-anchor="middle" style="white-space: pre;" direction="ltr" dominant-baseline="text-before-edge">wrapper layer</text></g><g stroke-linecap="round" transform="translate(10 143.66665649414062) rotate(0 91 189)"><path d="M32 0 M32 0 C72.91 -1.77, 116.39 0.83, 150 0 M32 0 C58.73 -0.77, 86.43 -0.73, 150 0 M150 0 C173.07 -0.84, 180.23 10.25, 182 32 M150 0 C170.56 -1.22, 182.12 8.68, 182 32 M182 32 C180.47 123.78, 181.37 214.19, 182 346 M182 32 C184.2 102.95, 183.41 175.45, 182 346 M182 346 C183.61 368.66, 170.39 377.44, 150 378 M182 346 C181.62 369.31, 173.31 379.08, 150 378 M150 378 C109.69 377.19, 68.94 379.83, 32 378 M150 378 C118.61 378.02, 86.56 377.67, 32 378 M32 378 C12.54 379.04, -1.25 366.88, 0 346 M32 378 C9.02 378.63, -0.91 365.19, 0 346 M0 346 C-2.2 237.86, -1.28 127.04, 0 32 M0 346 C-0.87 248.61, -0.47 150.21, 0 32 M0 32 C-0.34 9.96, 11.34 -1.89, 32 0 M0 32 C2.06 11.43, 11.62 0.05, 32 0" stroke="#000000" stroke-width="1" fill="none"></path></g><g transform="translate(26.660057067871094 148.66665649414062) rotate(0 74.3399429321289 12.5)"><text x="74.3399429321289" y="0" font-family="Virgil, Segoe UI Emoji" font-size="20px" fill="#000000" text-anchor="middle" style="white-space: pre;" direction="ltr" dominant-baseline="text-before-edge">the wasm layer</text></g><g stroke-linecap="round" transform="translate(33 204.66668701171875) rotate(0 70.5 70.5)"><path d="M32 0 M32 0 C48.14 -0.3, 65.98 1.74, 109 0 M32 0 C54.27 -0.19, 74.78 -0.28, 109 0 M109 0 C130.51 -1.36, 142.7 11.31, 141 32 M109 0 C129.66 1.84, 139.18 10.63, 141 32 M141 32 C143.46 49.97, 141.22 67.79, 141 109 M141 32 C139.62 62.56, 139.98 92.67, 141 109 M141 109 C140.72 129.8, 129.75 139.42, 109 141 M141 109 C140.7 131.86, 129.88 139.72, 109 141 M109 141 C80.12 141.32, 47.02 142.44, 32 141 M109 141 C80.56 141.87, 50.47 141.48, 32 141 M32 141 C10.55 142.29, 0.36 132.14, 0 109 M32 141 C8.74 140.48, 0.21 132.37, 0 109 M0 109 C-1.29 82.34, 0.9 55.58, 0 32 M0 109 C-0.24 83.67, 0.65 57.29, 0 32 M0 32 C-1.87 12.65, 10.98 -0.06, 32 0 M0 32 C-0.95 11.51, 8.61 0.7, 32 0" stroke="#000000" stroke-width="1" fill="none"></path></g><g transform="translate(49.260032653808594 265.16668701171875) rotate(0 54.239967346191406 10)"><text x="54.239967346191406" y="0" font-family="Virgil, Segoe UI Emoji" font-size="16px" fill="#000000" text-anchor="middle" style="white-space: pre;" direction="ltr" dominant-baseline="text-before-edge">wasm function</text></g><g stroke-linecap="round" transform="translate(460.33331298828125 227.33334350585938) rotate(0 77.5 64.5)"><path d="M32 0 M32 0 C60.4 0.19, 87.98 2.35, 123 0 M32 0 C55.99 0.96, 79.4 0.36, 123 0 M123 0 C145.93 1.69, 155.05 12.13, 155 32 M123 0 C144.59 0.46, 152.74 8.96, 155 32 M155 32 C156.7 57.71, 156.22 83.57, 155 97 M155 32 C154.43 50.98, 155.64 71.29, 155 97 M155 97 C154.48 117.73, 143.4 129.9, 123 129 M155 97 C155.85 116.92, 144.35 128.4, 123 129 M123 129 C90.31 129.76, 54.98 129.36, 32 129 M123 129 C92.58 129.03, 60.98 129.41, 32 129 M32 129 C10.89 128.94, -0.8 119.87, 0 97 M32 129 C11.03 130.93, 0.37 120.26, 0 97 M0 97 C-1.06 83.46, 0.73 69.65, 0 32 M0 97 C-0.54 82.26, 1.12 68.22, 0 32 M0 32 C0.18 12.09, 9.53 0.96, 32 0 M0 32 C1.52 8.75, 9.69 -2.21, 32 0" stroke="#000000" stroke-width="1" fill="none"></path></g><g transform="translate(490.0573425292969 281.8333435058594) rotate(0 47.775970458984375 10)"><text x="47.775970458984375" y="0" font-family="Virgil, Segoe UI Emoji" font-size="16px" fill="#000000" text-anchor="middle" style="white-space: pre;" direction="ltr" dominant-baseline="text-before-edge">get callback</text></g><g stroke-linecap="round" transform="translate(468.83331298828125 478) rotate(0 77.5 26)"><path d="M13 0 M13 0 C49.13 0.33, 89.94 -0.93, 142 0 M13 0 C52.39 -0.13, 92.37 1.19, 142 0 M142 0 C150.2 1.33, 153.93 4.64, 155 13 M142 0 C149.9 0.17, 155.85 2.99, 155 13 M155 13 C154.47 21.87, 154.87 31.53, 155 39 M155 13 C155.34 23.04, 154.68 32.55, 155 39 M155 39 C155.91 46.58, 150.63 53.48, 142 52 M155 39 C155.64 48.59, 149.09 54.09, 142 52 M142 52 C92.31 50.51, 44.66 51.17, 13 52 M142 52 C101.63 50.84, 60.95 52.31, 13 52 M13 52 C5.2 52.88, 1.04 49.3, 0 39 M13 52 C5.22 51.82, 0.39 48.89, 0 39 M0 39 C-1.69 29.32, 0.65 22.08, 0 13 M0 39 C0.81 30.3, -0.06 23.76, 0 13 M0 13 C-0.79 5.51, 3.31 1.15, 13 0 M0 13 C2.19 6.62, 5.51 -0.62, 13 0" stroke="#000000" stroke-width="1" fill="none"></path></g><g transform="translate(482.10936737060547 494) rotate(0 64.22394561767578 10)"><text x="64.22394561767578" y="0" font-family="Virgil, Segoe UI Emoji" font-size="16px" fill="#000000" text-anchor="middle" style="white-space: pre;" direction="ltr" dominant-baseline="text-before-edge">callback wrapper</text></g><g stroke-linecap="round" transform="translate(1198.3333129882812 157.33331298828125) rotate(0 91 129.5)"><path d="M32 0 M32 0 C74.27 1.76, 112.57 1.6, 150 0 M32 0 C73.01 0.55, 113.33 0.94, 150 0 M150 0 C171.33 -0.34, 183.3 10.32, 182 32 M150 0 C172.12 0.37, 182.76 11.88, 182 32 M182 32 C181.92 103.36, 181.24 174.89, 182 227 M182 32 C182.68 97.2, 182.52 165.01, 182 227 M182 227 C183.43 247.66, 172.12 259.73, 150 259 M182 227 C180.19 248.71, 170.41 259.13, 150 259 M150 259 C124.42 258.82, 96.25 256.29, 32 259 M150 259 C116.1 258.73, 81.09 257.5, 32 259 M32 259 C12.48 258.49, -0.25 246.61, 0 227 M32 259 C10.4 260.7, 1.68 247.53, 0 227 M0 227 C0.52 168.01, -0.97 106.07, 0 32 M0 227 C-1.39 181.3, -1.68 136.2, 0 32 M0 32 C-0.53 9.07, 11.54 -0.39, 32 0 M0 32 C-0.1 8.39, 9.82 1.95, 32 0" stroke="#000000" stroke-width="1" fill="none"></path></g><g transform="translate(1209.6333770751953 162.33331298828125) rotate(0 79.69993591308594 12.5)"><text x="79.69993591308594" y="0" font-family="Virgil, Segoe UI Emoji" font-size="20px" fill="#000000" text-anchor="middle" style="white-space: pre;" direction="ltr" dominant-baseline="text-before-edge">the native layer</text></g><g stroke-linecap="round" transform="translate(1219.3333129882812 277) rotate(0 73 25)"><path d="M12.5 0 M12.5 0 C49.67 1.61, 86.6 -0.75, 133.5 0 M12.5 0 C38.24 0.57, 63.5 0.62, 133.5 0 M133.5 0 C142.46 -1.43, 145.08 3.09, 146 12.5 M133.5 0 C140.17 1, 147.14 4.83, 146 12.5 M146 12.5 C145.71 20.52, 147.43 27.84, 146 37.5 M146 12.5 C145.09 17.99, 146.55 23.39, 146 37.5 M146 37.5 C145.04 47.42, 142.92 50.68, 133.5 50 M146 37.5 C144.08 46.97, 141.75 48.13, 133.5 50 M133.5 50 C93.69 50.77, 56.09 49.34, 12.5 50 M133.5 50 C87.13 50.33, 41.52 49.35, 12.5 50 M12.5 50 C2.38 50.33, -1.8 44.84, 0 37.5 M12.5 50 C5.08 49.5, -1.45 44.97, 0 37.5 M0 37.5 C-0.6 31.34, 1.12 26.2, 0 12.5 M0 37.5 C0.58 27.66, -1.08 19.16, 0 12.5 M0 12.5 C1.92 3.34, 4.6 -0.55, 12.5 0 M0 12.5 C-1.92 5.61, 4.53 0.9, 12.5 0" stroke="#000000" stroke-width="1" fill="none"></path></g><g transform="translate(1226.8373489379883 292) rotate(0 65.49596405029297 10)"><text x="65.49596405029297" y="0" font-family="Virgil, Segoe UI Emoji" font-size="16px" fill="#000000" text-anchor="middle" style="white-space: pre;" direction="ltr" dominant-baseline="text-before-edge">callback function</text></g><g stroke-linecap="round"><g transform="translate(177.33331298828128 245.35767921735265) rotate(0 140.99966631784105 2.7898590180235203)"><path d="M0.86 0.54 C47.54 1.47, 233.39 3.92, 279.97 4.72 M-0.14 -0.22 C46.91 0.91, 235.58 4.67, 282.14 5.8" stroke="#000000" stroke-width="1" fill="none"></path></g><g transform="translate(177.33331298828128 245.35767921735265) rotate(0 140.99966631784105 2.7898590180235203)"><path d="M254.63 13.73 C260.63 11.35, 269.95 9.57, 281.06 7.16 M252.95 15.69 C264.06 12.68, 272.14 9.16, 282.27 6.74" stroke="#000000" stroke-width="1" fill="none"></path></g><g transform="translate(177.33331298828128 245.35767921735265) rotate(0 140.99966631784105 2.7898590180235203)"><path d="M255.08 -6.79 C260.8 -3.18, 269.99 1.02, 281.06 7.16 M253.4 -4.83 C264.55 -0.82, 272.48 2.67, 282.27 6.74" stroke="#000000" stroke-width="1" fill="none"></path></g></g><mask></mask><g stroke-linecap="round"><g transform="translate(458.33331298828125 315.55440465273523) rotate(0 -141.38970995412208 -3.130250545101674)"><path d="M-0.59 -0.5 C-47.84 -1.12, -236.07 -3.4, -283.09 -3.97 M1.31 -1.81 C-46.14 -2.76, -236.64 -5.09, -284.09 -5.76" stroke="#000000" stroke-width="1" fill="none"></path></g><g transform="translate(458.33331298828125 315.55440465273523) rotate(0 -141.38970995412208 -3.130250545101674)"><path d="M-256.6 -15.8 C-264.19 -12.05, -273.47 -10.32, -282.41 -4.41 M-255.64 -16.08 C-265.75 -10.87, -275.04 -7.4, -284.52 -5.72" stroke="#000000" stroke-width="1" fill="none"></path></g><g transform="translate(458.33331298828125 315.55440465273523) rotate(0 -141.38970995412208 -3.130250545101674)"><path d="M-256.87 4.72 C-264.33 1.63, -273.52 -3.48, -282.41 -4.41 M-255.91 4.44 C-266.09 2.28, -275.28 -1.62, -284.52 -5.72" stroke="#000000" stroke-width="1" fill="none"></path></g></g><mask></mask><g stroke-linecap="round" transform="translate(855.3333129882812 223) rotate(0 79 30)"><path d="M15 0 M15 0 C54.88 2.59, 94.61 0.84, 143 0 M15 0 C47.35 1.06, 80.27 0.1, 143 0 M143 0 C153.02 1.15, 157.3 6.98, 158 15 M143 0 C152.52 -0.42, 159.89 6.07, 158 15 M158 15 C156.72 22.89, 159.63 29.56, 158 45 M158 15 C158.29 21.31, 157.23 28, 158 45 M158 45 C159.34 54.3, 154.33 59.49, 143 60 M158 45 C156.59 53.09, 153.77 59.28, 143 60 M143 60 C102.27 61.69, 61.43 59.39, 15 60 M143 60 C115.72 59.32, 88.55 59.22, 15 60 M15 60 C5.17 59, 1.31 53.8, 0 45 M15 60 C3.39 59.02, 1.86 57.23, 0 45 M0 45 C0.34 37.1, 1.07 29.43, 0 15 M0 45 C-1.1 36.5, -0.08 26.78, 0 15 M0 15 C-1.7 4.12, 3.28 0.94, 15 0 M0 15 C-0.63 4.05, 3.14 -0.37, 15 0" stroke="#000000" stroke-width="1" fill="none"></path></g><g transform="translate(869.6133575439453 228) rotate(0 64.71995544433594 25)"><text x="64.71995544433594" y="0" font-family="Virgil, Segoe UI Emoji" font-size="20px" fill="#000000" text-anchor="middle" style="white-space: pre;" direction="ltr" dominant-baseline="text-before-edge">get callback </text><text x="64.71995544433594" y="25" font-family="Virgil, Segoe UI Emoji" font-size="20px" fill="#000000" text-anchor="middle" style="white-space: pre;" direction="ltr" dominant-baseline="text-before-edge">wrapper</text></g><g stroke-linecap="round" transform="translate(864.3333129882812 308) rotate(0 72 50.5)"><path d="M25.25 0 M25.25 0 C50.64 1.36, 75.07 -0.74, 118.75 0 M25.25 0 C54.49 -0.09, 84.41 -0.81, 118.75 0 M118.75 0 C137.51 0.55, 143 9.94, 144 25.25 M118.75 0 C137.05 -2.28, 146.11 9.76, 144 25.25 M144 25.25 C143.39 44.67, 146.04 63.17, 144 75.75 M144 25.25 C144.64 44.71, 144.42 63.15, 144 75.75 M144 75.75 C144.01 94.4, 136.48 99.12, 118.75 101 M144 75.75 C144.47 93.57, 137.54 102.28, 118.75 101 M118.75 101 C87.32 102.78, 55.79 99.54, 25.25 101 M118.75 101 C85.08 101.24, 52.58 100.32, 25.25 101 M25.25 101 C8.99 101.72, 0.55 92.53, 0 75.75 M25.25 101 C8.14 103.3, 1.25 90.62, 0 75.75 M0 75.75 C1.69 59.67, 0.59 38.95, 0 25.25 M0 75.75 C0.19 61.69, 0.79 46.54, 0 25.25 M0 25.25 C-0.35 8.87, 6.97 -0.81, 25.25 0 M0 25.25 C-1.88 6.98, 7.64 -0.84, 25.25 0" stroke="#000000" stroke-width="1" fill="none"></path></g><g transform="translate(869.58935546875 338.5) rotate(0 66.74395751953125 20)"><text x="66.74395751953125" y="0" font-family="Virgil, Segoe UI Emoji" font-size="16px" fill="#000000" text-anchor="middle" style="white-space: pre;" direction="ltr" dominant-baseline="text-before-edge">call back </text><text x="66.74395751953125" y="20" font-family="Virgil, Segoe UI Emoji" font-size="16px" fill="#000000" text-anchor="middle" style="white-space: pre;" direction="ltr" dominant-baseline="text-before-edge">wrapper in native</text></g><g stroke-linecap="round"><g transform="translate(624.3333129882812 256.3504438162888) rotate(0 112.88647617176173 -7.713330636250092)"><path d="M-0.32 -0.14 C37.42 -2.64, 188.21 -11.44, 226.09 -13.75 M1.71 -1.27 C39.34 -3.56, 187.7 -12.84, 225.19 -15.28" stroke="#000000" stroke-width="1" fill="none"></path></g><g transform="translate(624.3333129882812 256.3504438162888) rotate(0 112.88647617176173 -7.713330636250092)"><path d="M197.47 -3.1 C206.89 -4.85, 213.84 -8.01, 224.98 -16.53 M197.25 -3.55 C204.01 -5.09, 210.17 -9.38, 225.59 -15.46" stroke="#000000" stroke-width="1" fill="none"></path></g><g transform="translate(624.3333129882812 256.3504438162888) rotate(0 112.88647617176173 -7.713330636250092)"><path d="M196.17 -23.58 C206.15 -19.79, 213.45 -17.42, 224.98 -16.53 M195.94 -24.03 C202.8 -21.22, 209.23 -21.17, 225.59 -15.46" stroke="#000000" stroke-width="1" fill="none"></path></g></g><mask></mask><g stroke-linecap="round"><g transform="translate(832.3333129882814 265.0629943246379) rotate(0 -99.4948973980267 28.932331668449734)"><path d="M-0.34 1.18 C-33.82 10.63, -166.38 46.81, -199.82 55.87 M1.68 0.76 C-32.03 10.43, -167.29 47.85, -200.67 57.11" stroke="#000000" stroke-width="1" fill="none"></path></g><g transform="translate(832.3333129882814 265.0629943246379) rotate(0 -99.4948973980267 28.932331668449734)"><path d="M-174.28 39.99 C-186.75 44.72, -196.82 53.77, -198.88 59.09 M-176.96 39.93 C-182.14 45.2, -189.7 48.16, -200.42 58.08" stroke="#000000" stroke-width="1" fill="none"></path></g><g transform="translate(832.3333129882814 265.0629943246379) rotate(0 -99.4948973980267 28.932331668449734)"><path d="M-168.8 59.77 C-183.26 56.83, -195.45 58.23, -198.88 59.09 M-171.48 59.71 C-178.04 59.76, -187.06 57.47, -200.42 58.08" stroke="#000000" stroke-width="1" fill="none"></path></g></g><mask></mask><g stroke-linecap="round"><g transform="translate(175.33331298828125 336.23864875143914) rotate(0 144.91456666998099 85.59965678130945)"><path d="M0.44 -1.05 C49.02 27.33, 242.19 142.18, 290.62 171.14 M-0.79 1.01 C47.67 29.45, 240.97 143.95, 289.47 172.25" stroke="#a61e4d" stroke-width="1" fill="none"></path></g><g transform="translate(175.33331298828125 336.23864875143914) rotate(0 144.91456666998099 85.59965678130945)"><path d="M258.22 166.16 C265.42 167.94, 274.86 167.23, 289.36 170.4 M260.94 165.93 C270.98 168.12, 281.46 170.41, 289.33 173.21" stroke="#a61e4d" stroke-width="1" fill="none"></path></g><g transform="translate(175.33331298828125 336.23864875143914) rotate(0 144.91456666998099 85.59965678130945)"><path d="M268.62 148.47 C273.57 154.35, 280.62 157.7, 289.36 170.4 M271.34 148.24 C277.61 157.19, 284.17 166.15, 289.33 173.21" stroke="#a61e4d" stroke-width="1" fill="none"></path></g></g><mask></mask><g stroke-linecap="round"><g transform="translate(624.3333129882812 488.28800363720177) rotate(0 119.24721658155318 -56.730423731174)"><path d="M-1.12 -0.96 C38.63 -20.06, 199.49 -95.85, 239.61 -114.61 M0.49 1.15 C40.04 -17.74, 199.21 -93.69, 238.99 -113.1" stroke="#000000" stroke-width="1" fill="none"></path></g><g transform="translate(624.3333129882812 488.28800363720177) rotate(0 119.24721658155318 -56.730423731174)"><path d="M216.44 -90.6 C226.23 -98.87, 236.29 -108.84, 237.94 -112.89 M217.11 -92.15 C223.84 -97.64, 230.06 -102.99, 238.66 -113.48" stroke="#000000" stroke-width="1" fill="none"></path></g><g transform="translate(624.3333129882812 488.28800363720177) rotate(0 119.24721658155318 -56.730423731174)"><path d="M207.54 -109.09 C220.83 -109.98, 234.41 -112.64, 237.94 -112.89 M208.21 -110.64 C217.35 -111.25, 225.96 -111.63, 238.66 -113.48" stroke="#000000" stroke-width="1" fill="none"></path></g></g><mask></mask><g stroke-linecap="round"><g transform="translate(1012.5525704858806 392.82262307237255) rotate(0 100.62934515084692 -35.39175576888641)"><path d="M-0.15 1.03 C33.75 -11.08, 169.26 -59.82, 202.95 -71.81 M-1.69 0.52 C32.11 -11.49, 167.74 -58.27, 202.09 -70.53" stroke="#1864ab" stroke-width="1" fill="none"></path></g><g transform="translate(1012.5525704858806 392.82262307237255) rotate(0 100.62934515084692 -35.39175576888641)"><path d="M180.58 -51.25 C183.98 -57.84, 191.56 -61.19, 203.87 -69.67 M179.69 -51.98 C187.87 -58.13, 196.96 -65.06, 202.77 -71.18" stroke="#1864ab" stroke-width="1" fill="none"></path></g><g transform="translate(1012.5525704858806 392.82262307237255) rotate(0 100.62934515084692 -35.39175576888641)"><path d="M173.8 -70.62 C179.1 -72.16, 188.44 -70.47, 203.87 -69.67 M172.91 -71.35 C183.81 -70.03, 195.5 -69.53, 202.77 -71.18" stroke="#1864ab" stroke-width="1" fill="none"></path></g></g><mask></mask><g stroke-linecap="round" transform="translate(993.3333129882812 266) rotate(0 6.5 7)"><path d="M9.76 0.74 C10.87 1.48, 11.93 3.01, 12.58 4.39 C13.23 5.77, 14.09 7.76, 13.64 9.02 C13.19 10.28, 11.23 11.22, 9.88 11.96 C8.53 12.7, 6.98 13.65, 5.55 13.46 C4.12 13.27, 2.07 11.75, 1.29 10.84 C0.51 9.94, 0.76 9.44, 0.9 8.02 C1.03 6.61, 1.27 3.53, 2.12 2.35 C2.97 1.17, 4.83 1.14, 5.99 0.96 C7.16 0.78, 8.43 1.14, 9.11 1.28 C9.8 1.42, 10.21 1.85, 10.11 1.79 M3.88 0 C5.24 -0.23, 8.19 1.05, 9.75 1.93 C11.31 2.81, 12.71 4.24, 13.22 5.27 C13.73 6.3, 13.24 6.77, 12.8 8.12 C12.35 9.48, 11.83 12.36, 10.57 13.41 C9.31 14.46, 6.59 14.45, 5.25 14.41 C3.9 14.36, 3.21 14.19, 2.5 13.13 C1.78 12.07, 0.98 9.88, 0.96 8.06 C0.95 6.23, 1.85 3.26, 2.39 2.16 C2.93 1.07, 3.53 1.67, 4.21 1.49 C4.9 1.31, 6.31 1.13, 6.49 1.1" stroke="#1864ab" stroke-width="1" fill="none"></path></g><g stroke-linecap="round" transform="translate(614.3333129882812 384) rotate(0 8.5 8)"><path d="M6.09 0.47 C7.63 -0.01, 11.04 0.8, 12.61 1.45 C14.17 2.1, 14.87 2.91, 15.46 4.39 C16.05 5.86, 16.56 8.73, 16.16 10.32 C15.77 11.92, 14.58 12.99, 13.08 13.93 C11.58 14.88, 8.87 16.05, 7.17 16.02 C5.47 15.99, 3.98 15.05, 2.88 13.77 C1.77 12.49, 0.86 10.03, 0.57 8.32 C0.27 6.6, -0.38 4.9, 1.11 3.48 C2.6 2.07, 7.72 0.2, 9.51 -0.17 C11.3 -0.54, 11.74 0.99, 11.84 1.27 M9.93 1.67 C11.67 2.26, 15.69 3.12, 16.86 4.4 C18.03 5.68, 17.44 7.56, 16.94 9.37 C16.44 11.17, 15.15 14.13, 13.84 15.23 C12.52 16.33, 10.8 16.26, 9.05 15.97 C7.29 15.69, 4.75 14.73, 3.33 13.53 C1.9 12.34, 0.69 10.42, 0.49 8.79 C0.29 7.16, 1.23 5.2, 2.15 3.76 C3.06 2.32, 4.52 0.66, 5.97 0.14 C7.41 -0.37, 9.83 0.41, 10.81 0.66 C11.8 0.9, 12.14 1.71, 11.89 1.63" stroke="#1864ab" stroke-width="1" fill="none"></path></g><g stroke-linecap="round" transform="translate(609.3333129882812 343) rotate(0 13 17.5)"><path d="M6.5 0 M6.5 0 C11.4 0.77, 16.74 0.86, 19.5 0 M6.5 0 C10.72 0.63, 16.35 0.4, 19.5 0 M19.5 0 C23.83 0.62, 25.31 4.07, 26 6.5 M19.5 0 C23.87 -0.02, 25.82 0.79, 26 6.5 M26 6.5 C24.94 14.62, 25.15 20.32, 26 28.5 M26 6.5 C25.25 12.96, 25.44 21.08, 26 28.5 M26 28.5 C27.08 33.18, 24.94 36.14, 19.5 35 M26 28.5 C27.91 34.83, 23.7 33.47, 19.5 35 M19.5 35 C15.74 34.94, 10.64 34.77, 6.5 35 M19.5 35 C15.64 35.6, 11.71 35.72, 6.5 35 M6.5 35 C1.39 35.57, 1.63 32.84, 0 28.5 M6.5 35 C-0.12 33.4, -1.61 34.99, 0 28.5 M0 28.5 C0.13 23.63, 0.4 18.49, 0 6.5 M0 28.5 C0.98 24.41, 1.01 18.79, 0 6.5 M0 6.5 C0.75 3.67, 0.32 -0.68, 6.5 0 M0 6.5 C-0.96 2.35, 3.04 -1.31, 6.5 0" stroke="#000000" stroke-width="1" fill="none"></path></g><g stroke-linecap="round" transform="translate(614.3333129882812 350) rotate(0 6.5 9)"><path d="M8.75 2.5 M8.75 2.5 C9.32 4.04, 11.18 6.16, 11.25 7.5 M8.75 2.5 C9.88 4.53, 10.96 6.19, 11.25 7.5 M11.25 7.5 C12.47 11.7, 14.84 11.61, 11.25 12.5 M11.25 7.5 C15.19 10.18, 13.87 11.73, 11.25 12.5 M11.25 12.5 C10.75 13.26, 9.98 13.43, 8.75 15.5 M11.25 12.5 C10.34 13.8, 9.35 14.78, 8.75 15.5 M8.75 15.5 C7.62 17.43, 7.35 19.08, 5.25 15.5 M8.75 15.5 C8.95 17.37, 6.39 19.2, 5.25 15.5 M5.25 15.5 C4.3 14.7, 3.58 13.32, 1.75 12.5 M5.25 15.5 C3.87 14.44, 2.7 13.57, 1.75 12.5 M1.75 12.5 C1.45 9.85, 0.81 10.39, 1.75 7.5 M1.75 12.5 C0.9 9.24, -0.54 12.2, 1.75 7.5 M1.75 7.5 C2.99 6.15, 3.74 4.51, 5.25 2.5 M1.75 7.5 C2.55 6.32, 3.57 4.94, 5.25 2.5 M5.25 2.5 C7.15 0.14, 7.61 1.09, 8.75 2.5 M5.25 2.5 C8.86 2.16, 5.07 -1.38, 8.75 2.5" stroke="#000000" stroke-width="1" fill="none"></path></g><g stroke-linecap="round"><g transform="translate(599.3333129882812 368) rotate(0 -57.41275078965742 33.85604406168903)"><path d="M1.08 -0.17 C1.37 8.37, 14.73 40.87, 2.95 52.34 C-8.83 63.8, -48.99 70.81, -69.6 68.62 C-90.21 66.43, -113.72 50.81, -120.71 39.18 C-127.71 27.55, -113.36 5.37, -111.55 -1.17 M0.18 -1.31 C0.3 7.37, 14.22 39.07, 2.5 50.39 C-9.23 61.71, -49.68 68.79, -70.15 66.6 C-90.62 64.41, -113.73 48.49, -120.31 37.24 C-126.9 26, -111.11 5.45, -109.66 -0.87" stroke="#000000" stroke-width="1" fill="none"></path></g><g transform="translate(599.3333129882812 368) rotate(0 -57.41275078965742 33.85604406168903)"><path d="M-111.78 20.76 C-110.38 11.87, -109.18 3.71, -107.69 -1.79 M-111.47 19.66 C-110.38 13.99, -109.98 6.8, -109.59 -0.47" stroke="#000000" stroke-width="1" fill="none"></path></g><g transform="translate(599.3333129882812 368) rotate(0 -57.41275078965742 33.85604406168903)"><path d="M-124.23 14.89 C-117.84 8.22, -111.69 2.4, -107.69 -1.79 M-123.93 13.79 C-119.22 9.7, -115.25 4.19, -109.59 -0.47" stroke="#000000" stroke-width="1" fill="none"></path></g></g><mask></mask><g stroke-linecap="round" transform="translate(514.3333129882812 378) rotate(0 15 25.5)"><path d="M7.5 0 M7.5 0 C13.64 1, 18.45 -0.93, 22.5 0 M7.5 0 C10.99 0.55, 14.57 -0.35, 22.5 0 M22.5 0 C28.95 -0.61, 28.9 4.14, 30 7.5 M22.5 0 C27.81 -1.04, 30.83 0.44, 30 7.5 M30 7.5 C30.3 20.9, 30.81 30.6, 30 43.5 M30 7.5 C29.44 17.9, 29.39 26.66, 30 43.5 M30 43.5 C29.39 47.02, 27.86 52.76, 22.5 51 M30 43.5 C29.8 50.7, 26.55 48.87, 22.5 51 M22.5 51 C20.1 51.51, 15.56 51.97, 7.5 51 M22.5 51 C17.38 51.56, 12.27 50.69, 7.5 51 M7.5 51 C1.11 49.26, -1.09 49.86, 0 43.5 M7.5 51 C0.81 50.01, 1.66 49.8, 0 43.5 M0 43.5 C1.8 35.19, 0.77 24.41, 0 7.5 M0 43.5 C-0.36 35.8, -0.72 28.21, 0 7.5 M0 7.5 C-1.97 0.82, 1.23 -1.67, 7.5 0 M0 7.5 C2.21 3.37, 0.83 -1.05, 7.5 0" stroke="#000000" stroke-width="1" fill="none"></path></g><g stroke-linecap="round" transform="translate(523.8333129882812 384) rotate(0 6.5 9)"><path d="M8.75 2.5 M8.75 2.5 C9.33 4.5, 10.15 5.99, 11.25 7.5 M8.75 2.5 C9.51 4.02, 10.21 5.56, 11.25 7.5 M11.25 7.5 C11.6 10.42, 14.28 9.88, 11.25 12.5 M11.25 7.5 C13.12 10.85, 15.13 8.6, 11.25 12.5 M11.25 12.5 C10.43 13.11, 10.02 14.03, 8.75 15.5 M11.25 12.5 C10.21 13.76, 9.49 14.66, 8.75 15.5 M8.75 15.5 C5.46 19, 8.55 16.64, 5.25 15.5 M8.75 15.5 C9.04 17.01, 9 18.56, 5.25 15.5 M5.25 15.5 C3.98 14.03, 2.46 13.49, 1.75 12.5 M5.25 15.5 C4.01 14.72, 2.76 13.62, 1.75 12.5 M1.75 12.5 C0.43 8.26, -1.28 11.51, 1.75 7.5 M1.75 12.5 C1.81 9.21, 1.24 10.3, 1.75 7.5 M1.75 7.5 C2.29 5.4, 3.58 4.56, 5.25 2.5 M1.75 7.5 C2.94 6.06, 4.15 4, 5.25 2.5 M5.25 2.5 C5.04 -1.03, 5.65 0.53, 8.75 2.5 M5.25 2.5 C6.5 -1.51, 6.98 1.17, 8.75 2.5" stroke="#000000" stroke-width="1" fill="none"></path></g><g stroke-linecap="round" transform="translate(523.8333129882812 409) rotate(0 8.5 8)"><path d="M11.84 1.41 C13.51 1.79, 15.9 2.47, 16.58 4.1 C17.27 5.73, 16.42 9.48, 15.96 11.2 C15.5 12.92, 15.17 13.61, 13.82 14.42 C12.48 15.24, 9.82 16.2, 7.89 16.06 C5.97 15.91, 3.67 14.98, 2.27 13.54 C0.87 12.11, -0.25 9.27, -0.49 7.45 C-0.74 5.62, -0.41 3.73, 0.81 2.6 C2.04 1.46, 4.98 0.91, 6.86 0.63 C8.74 0.35, 11.02 0.56, 12.1 0.9 C13.18 1.23, 13.26 2.5, 13.31 2.64 M4.9 0.61 C6.34 -0.08, 7.43 -0.09, 9.28 0.16 C11.12 0.42, 14.72 0.66, 15.95 2.14 C17.19 3.63, 17.07 7.08, 16.67 9.06 C16.27 11.05, 14.67 12.9, 13.57 14.05 C12.47 15.19, 11.67 16.04, 10.08 15.92 C8.49 15.8, 5.55 14.27, 4.03 13.32 C2.52 12.36, 1.57 11.49, 1 10.19 C0.44 8.9, 0.08 7.18, 0.65 5.57 C1.22 3.95, 3.94 1.46, 4.42 0.51 C4.89 -0.44, 3.18 -0.27, 3.48 -0.12" stroke="#1864ab" stroke-width="1" fill="none"></path></g><g stroke-linecap="round" transform="translate(401.33331298828125 318.5) rotate(0 15 25.5)"><path d="M7.5 0 M7.5 0 C12.29 0.34, 15.13 -0.19, 22.5 0 M7.5 0 C10.17 -0.59, 13.4 0.29, 22.5 0 M22.5 0 C25.58 -1.22, 28.15 1.03, 30 7.5 M22.5 0 C28.73 -0.75, 29.66 2.91, 30 7.5 M30 7.5 C27.89 19.56, 29.38 33.53, 30 43.5 M30 7.5 C30.71 18.18, 30.45 28.64, 30 43.5 M30 43.5 C30.81 46.74, 28.48 52.82, 22.5 51 M30 43.5 C27.89 47.04, 28.86 49.92, 22.5 51 M22.5 51 C20.23 50.07, 14.76 49.88, 7.5 51 M22.5 51 C19.68 50.39, 16.4 51.05, 7.5 51 M7.5 51 C2.93 52.33, 0.06 47.95, 0 43.5 M7.5 51 C2.87 50.99, -1.84 50.38, 0 43.5 M0 43.5 C-1.49 33.7, -1.71 23.3, 0 7.5 M0 43.5 C0.77 29.81, 0.32 16.55, 0 7.5 M0 7.5 C1.39 1.87, 3.29 1.2, 7.5 0 M0 7.5 C-2.2 3.91, 1.54 0.42, 7.5 0" stroke="#000000" stroke-width="1" fill="none"></path></g><g stroke-linecap="round" transform="translate(408.83331298828125 326) rotate(0 6.5 9)"><path d="M8.75 2.5 M8.75 2.5 C9.45 4.55, 11.04 6.51, 11.25 7.5 M8.75 2.5 C9.71 4.29, 10.75 6.65, 11.25 7.5 M11.25 7.5 C12.39 11.6, 13.99 9.85, 11.25 12.5 M11.25 7.5 C12.72 12.02, 10.78 7.87, 11.25 12.5 M11.25 12.5 C10.28 13.53, 9.81 14.34, 8.75 15.5 M11.25 12.5 C10.32 13.67, 9.31 14.64, 8.75 15.5 M8.75 15.5 C8.59 18.8, 7.75 18.68, 5.25 15.5 M8.75 15.5 C5.76 19.94, 5.37 18.69, 5.25 15.5 M5.25 15.5 C3.63 14.25, 2.73 13.01, 1.75 12.5 M5.25 15.5 C4.56 14.52, 3.52 14.12, 1.75 12.5 M1.75 12.5 C-0.55 11.83, -1.77 11.12, 1.75 7.5 M1.75 12.5 C-1.05 8.26, -2.06 11.2, 1.75 7.5 M1.75 7.5 C2.35 6.16, 3.32 4.93, 5.25 2.5 M1.75 7.5 C3 5.53, 4.32 4.02, 5.25 2.5 M5.25 2.5 C8.91 1.93, 7.97 1.39, 8.75 2.5 M5.25 2.5 C7.27 -0.58, 6.12 -2.21, 8.75 2.5" stroke="#000000" stroke-width="1" fill="none"></path></g><g stroke-linecap="round" transform="translate(408.83331298828125 349) rotate(0 8.5 8)"><path d="M7.1 -0.13 C8.77 -0.41, 10.19 0.22, 11.63 1.05 C13.07 1.88, 14.97 3.29, 15.72 4.87 C16.46 6.44, 16.45 8.74, 16.09 10.51 C15.74 12.28, 15.12 14.55, 13.58 15.5 C12.04 16.45, 8.9 16.43, 6.87 16.2 C4.84 15.97, 2.57 15.24, 1.4 14.1 C0.23 12.96, -0.36 11.11, -0.15 9.38 C0.06 7.64, 1.26 5.21, 2.67 3.68 C4.09 2.14, 7.37 0.81, 8.33 0.16 C9.3 -0.49, 8.71 -0.49, 8.45 -0.22 M5.88 0.19 C7.71 -0.14, 11.01 0.39, 12.5 0.92 C13.99 1.44, 13.92 1.66, 14.81 3.36 C15.7 5.06, 18.08 9.19, 17.84 11.12 C17.61 13.06, 14.84 14.4, 13.4 14.98 C11.97 15.57, 10.91 14.92, 9.21 14.62 C7.51 14.32, 4.86 14.26, 3.2 13.18 C1.55 12.11, -0.54 9.94, -0.71 8.16 C-0.89 6.38, 0.93 3.85, 2.14 2.5 C3.35 1.14, 5.93 0.31, 6.56 0.05 C7.2 -0.2, 6.19 0.9, 5.96 0.97" stroke="#1864ab" stroke-width="1" fill="none"></path></g><g stroke-linecap="round" transform="translate(368.33331298828125 329) rotate(0 8.5 8.5)"><path d="M6.56 0.3 C8.1 -0.21, 11.05 -0.21, 12.62 0.84 C14.19 1.9, 15.5 4.7, 15.97 6.61 C16.44 8.52, 16.1 10.73, 15.45 12.32 C14.81 13.91, 13.55 15.49, 12.11 16.13 C10.68 16.77, 8.66 16.72, 6.85 16.18 C5.04 15.64, 2.39 14.18, 1.23 12.86 C0.07 11.55, -0.43 9.95, -0.09 8.28 C0.24 6.61, 1.68 4.32, 3.24 2.86 C4.8 1.4, 7.81 -0.19, 9.28 -0.45 C10.75 -0.71, 12.06 1.14, 12.06 1.3 M7.31 -0.51 C9.31 -0.66, 12.96 0.91, 14.41 2 C15.86 3.1, 15.47 4.26, 16.01 6.08 C16.55 7.91, 18.11 11.06, 17.63 12.96 C17.14 14.85, 14.79 16.65, 13.09 17.45 C11.39 18.25, 9.12 18.51, 7.44 17.77 C5.76 17.02, 4.23 14.49, 3.01 12.96 C1.79 11.44, 0.45 10.17, 0.11 8.6 C-0.23 7.04, -0.41 4.94, 0.96 3.58 C2.32 2.21, 7.25 1.11, 8.3 0.42 C9.35 -0.27, 7.21 -0.76, 7.26 -0.57" stroke="#c92a2a" stroke-width="1" fill="none"></path></g><g stroke-linecap="round" transform="translate(213.08331298828125 379.5) rotate(0 6.5 9)"><path d="M8.75 2.5 M8.75 2.5 C10.15 4.57, 10.36 5.95, 11.25 7.5 M8.75 2.5 C9.73 4.29, 10.69 6.11, 11.25 7.5 M11.25 7.5 C13 11.68, 11.83 11.61, 11.25 12.5 M11.25 7.5 C11.5 11.75, 12.4 11.12, 11.25 12.5 M11.25 12.5 C10.8 13.43, 10.48 14.21, 8.75 15.5 M11.25 12.5 C10.5 13.26, 9.81 14.01, 8.75 15.5 M8.75 15.5 C8.09 17.2, 7.78 17.18, 5.25 15.5 M8.75 15.5 C7.61 18.22, 5.64 19.43, 5.25 15.5 M5.25 15.5 C4.37 14.08, 3.33 13.15, 1.75 12.5 M5.25 15.5 C4.44 14.7, 3.31 13.92, 1.75 12.5 M1.75 12.5 C-0.83 11.46, 0.19 11.13, 1.75 7.5 M1.75 12.5 C1.14 8.68, 0.31 11.71, 1.75 7.5 M1.75 7.5 C2.77 6.53, 3.4 4.03, 5.25 2.5 M1.75 7.5 C2.9 6.43, 3.59 4.9, 5.25 2.5 M5.25 2.5 C8.98 1.66, 8.87 1.14, 8.75 2.5 M5.25 2.5 C6.81 -0.2, 7.48 0.88, 8.75 2.5" stroke="#000000" stroke-width="1" fill="none"></path></g><g stroke-linecap="round" transform="translate(213.08331298828125 402.5) rotate(0 8.5 8)"><path d="M6.46 0.61 C8.24 0.09, 11.21 0.21, 12.96 0.94 C14.7 1.68, 16.35 3.27, 16.94 5.03 C17.54 6.78, 17.3 9.71, 16.52 11.48 C15.74 13.26, 13.93 14.82, 12.26 15.68 C10.58 16.54, 8.22 16.99, 6.47 16.66 C4.73 16.33, 3.01 15.1, 1.8 13.7 C0.58 12.31, -0.88 10.05, -0.82 8.29 C-0.76 6.54, 0.38 4.42, 2.15 3.17 C3.92 1.93, 8.13 1.32, 9.8 0.82 C11.48 0.31, 12.41 0.24, 12.19 0.13 M6.34 1.06 C7.87 0.85, 10.05 0.71, 11.61 1.39 C13.16 2.06, 14.77 3.8, 15.64 5.12 C16.51 6.44, 17.06 7.67, 16.82 9.29 C16.58 10.91, 15.82 13.93, 14.2 14.84 C12.59 15.76, 9 15.23, 7.15 14.77 C5.3 14.32, 4.15 13.38, 3.11 12.11 C2.07 10.85, 1.24 8.86, 0.93 7.16 C0.61 5.46, 0.48 2.95, 1.22 1.93 C1.97 0.91, 4.47 1.34, 5.39 1.04 C6.31 0.74, 6.45 0.22, 6.75 0.11" stroke="#1864ab" stroke-width="1" fill="none"></path></g><g stroke-linecap="round" transform="translate(207.33331298828125 376.5) rotate(0 15 25.5)"><path d="M7.5 0 M7.5 0 C11.39 -1.09, 15.83 1.45, 22.5 0 M7.5 0 C12.82 -0.4, 17.41 -0.43, 22.5 0 M22.5 0 C26.52 0.42, 31.54 2.64, 30 7.5 M22.5 0 C29.69 2.28, 31.63 2.06, 30 7.5 M30 7.5 C31.5 19.57, 31.82 37.26, 30 43.5 M30 7.5 C30.49 17.75, 30.77 25.44, 30 43.5 M30 43.5 C31.21 48.43, 26.26 52.91, 22.5 51 M30 43.5 C28.97 49.04, 29.26 48.97, 22.5 51 M22.5 51 C18.18 51.81, 15.53 52.16, 7.5 51 M22.5 51 C18.92 51.74, 16.03 50.8, 7.5 51 M7.5 51 C3.52 51.12, 1.87 49.65, 0 43.5 M7.5 51 C4.76 51.02, -1.24 50.76, 0 43.5 M0 43.5 C1.8 29.93, -0.78 17.38, 0 7.5 M0 43.5 C-0.06 31.92, -0.28 20.07, 0 7.5 M0 7.5 C-0.8 3.53, 1.12 -1.68, 7.5 0 M0 7.5 C1.54 1.83, 2.17 2.06, 7.5 0" stroke="#000000" stroke-width="1" fill="none"></path></g><g stroke-linecap="round" transform="translate(663.8333129882812 485) rotate(0 6.5 9)"><path d="M8.75 2.5 M8.75 2.5 C9.97 4.15, 10.03 5.82, 11.25 7.5 M8.75 2.5 C9.49 3.86, 10.2 5.09, 11.25 7.5 M11.25 7.5 C11.52 9.28, 12.46 9.49, 11.25 12.5 M11.25 7.5 C14.15 9.42, 14.67 7.94, 11.25 12.5 M11.25 12.5 C10.34 12.89, 10.21 13.61, 8.75 15.5 M11.25 12.5 C10.24 13.65, 9.53 14.64, 8.75 15.5 M8.75 15.5 C8.18 19.2, 7.76 18.54, 5.25 15.5 M8.75 15.5 C8.79 17.09, 5.12 16.37, 5.25 15.5 M5.25 15.5 C4.47 14.81, 3.78 14.01, 1.75 12.5 M5.25 15.5 C4.26 14.41, 2.88 13.46, 1.75 12.5 M1.75 12.5 C-0.43 10.19, -0.07 11.8, 1.75 7.5 M1.75 12.5 C1.32 11.84, -1.34 11.2, 1.75 7.5 M1.75 7.5 C2.8 6.13, 3.34 5.36, 5.25 2.5 M1.75 7.5 C3.24 5.67, 4.51 4.02, 5.25 2.5 M5.25 2.5 C6.71 1.73, 7.53 -1.3, 8.75 2.5 M5.25 2.5 C8.07 2.19, 9.02 -1.71, 8.75 2.5" stroke="#000000" stroke-width="1" fill="none"></path></g><g stroke-linecap="round" transform="translate(659.8333129882812 483.25) rotate(0 13 17.5)"><path d="M6.5 0 M6.5 0 C10.21 -0.21, 15.18 0.76, 19.5 0 M6.5 0 C10.6 0.4, 15.15 -0.19, 19.5 0 M19.5 0 C25.57 0.53, 24.7 3.1, 26 6.5 M19.5 0 C26.02 2.02, 24.29 1.15, 26 6.5 M26 6.5 C26.47 14.05, 25.44 16.34, 26 28.5 M26 6.5 C26.23 12.34, 26.4 18.35, 26 28.5 M26 28.5 C25.8 31.63, 23.6 35.15, 19.5 35 M26 28.5 C27.25 34.56, 21.87 36.91, 19.5 35 M19.5 35 C16.64 35.41, 13.91 34.06, 6.5 35 M19.5 35 C14.74 35.13, 8.84 35.43, 6.5 35 M6.5 35 C1.86 33.79, 1.5 32.08, 0 28.5 M6.5 35 C3 33.85, 1.02 32.78, 0 28.5 M0 28.5 C0.9 24.5, -1.21 19.5, 0 6.5 M0 28.5 C-0.05 21.67, 0.18 14.41, 0 6.5 M0 6.5 C0.96 1.73, 1.42 -1, 6.5 0 M0 6.5 C2.15 3.2, 0.92 -1.57, 6.5 0" stroke="#000000" stroke-width="1" fill="none"></path></g><g stroke-linecap="round" transform="translate(1031.3333129882812 332.25) rotate(0 6.5 9)"><path d="M8.75 2.5 M8.75 2.5 C9.54 4.17, 10.46 5.62, 11.25 7.5 M8.75 2.5 C9.47 4.51, 10.6 5.84, 11.25 7.5 M11.25 7.5 C11.64 8.67, 12.61 8.2, 11.25 12.5 M11.25 7.5 C13.71 12.3, 12.12 10.69, 11.25 12.5 M11.25 12.5 C10.05 13.32, 9.55 14.82, 8.75 15.5 M11.25 12.5 C10.41 13.41, 9.53 14.35, 8.75 15.5 M8.75 15.5 C7.57 17.64, 8.65 19.97, 5.25 15.5 M8.75 15.5 C7.92 16.06, 5.65 16.75, 5.25 15.5 M5.25 15.5 C3.96 14.61, 2.48 12.82, 1.75 12.5 M5.25 15.5 C4.5 14.82, 3.74 14.41, 1.75 12.5 M1.75 12.5 C1.94 11.86, 0.08 9.21, 1.75 7.5 M1.75 12.5 C-0.47 11.57, 0.97 9.93, 1.75 7.5 M1.75 7.5 C2.37 5.99, 2.8 5.58, 5.25 2.5 M1.75 7.5 C2.62 6.63, 3.09 5.6, 5.25 2.5 M5.25 2.5 C6.37 -1.16, 8.8 0.59, 8.75 2.5 M5.25 2.5 C4.98 1.05, 8.2 -1.85, 8.75 2.5" stroke="#000000" stroke-width="1" fill="none"></path></g><g stroke-linecap="round" transform="translate(1026.3333129882812 326.5) rotate(0 13 17.5)"><path d="M6.5 0 M6.5 0 C10.77 0.26, 14.48 0.63, 19.5 0 M6.5 0 C10.72 0.36, 13.37 -0.38, 19.5 0 M19.5 0 C22.5 -0.39, 24.2 2.79, 26 6.5 M19.5 0 C26.13 -0.88, 26.69 3.49, 26 6.5 M26 6.5 C24.7 14.79, 26.88 22.62, 26 28.5 M26 6.5 C25.76 10.48, 25.78 16.05, 26 28.5 M26 28.5 C25.64 34.48, 25.81 35.8, 19.5 35 M26 28.5 C24.06 31.48, 22.58 37.02, 19.5 35 M19.5 35 C16.63 34.85, 11.25 33.84, 6.5 35 M19.5 35 C14.76 34.94, 10.82 35.63, 6.5 35 M6.5 35 C4.03 35.08, -0.79 32.42, 0 28.5 M6.5 35 C3.74 35.97, -0.07 31.22, 0 28.5 M0 28.5 C-1.25 19.09, 1.18 11.47, 0 6.5 M0 28.5 C0.56 22.64, 0.71 17.69, 0 6.5 M0 6.5 C-1.16 3.96, 2.76 -1.76, 6.5 0 M0 6.5 C1.05 3.36, 0.32 -2.25, 6.5 0" stroke="#000000" stroke-width="1" fill="none"></path></g><g stroke-linecap="round" transform="translate(690.8333129882812 472) rotate(0 8.5 8)"><path d="M7.98 0.89 C9.76 0.81, 12.75 1.09, 14.32 1.97 C15.88 2.84, 17.16 4.57, 17.38 6.13 C17.6 7.68, 16.76 9.81, 15.64 11.27 C14.51 12.73, 12.23 14.28, 10.65 14.89 C9.08 15.49, 7.88 15.36, 6.18 14.89 C4.47 14.43, 1.43 13.61, 0.41 12.08 C-0.61 10.56, -0.32 7.33, 0.07 5.74 C0.47 4.16, 1.11 3.62, 2.77 2.56 C4.42 1.51, 8.49 -0.44, 10.02 -0.6 C11.55 -0.75, 11.74 1.51, 11.94 1.63 M6.07 0.02 C7.56 -0.06, 9.51 1.62, 11.28 2.21 C13.04 2.79, 15.79 2.3, 16.66 3.55 C17.53 4.8, 17.21 8.13, 16.5 9.73 C15.79 11.32, 13.99 11.9, 12.4 13.11 C10.8 14.32, 8.59 16.76, 6.93 16.98 C5.27 17.2, 3.7 15.81, 2.44 14.42 C1.19 13.03, -0.31 10.64, -0.61 8.66 C-0.91 6.67, -0.71 4.07, 0.66 2.5 C2.03 0.93, 6.86 -0.37, 7.61 -0.76 C8.35 -1.15, 5.51 -0.08, 5.11 0.18" stroke="#1864ab" stroke-width="1" fill="none"></path></g><g transform="translate(228.93335723876953 180) rotate(0 82.39995574951172 20)"><text x="82.39995574951172" y="0" font-family="Virgil, Segoe UI Emoji" font-size="16px" fill="#000000" text-anchor="middle" style="white-space: pre;" direction="ltr" dominant-baseline="text-before-edge">get callback function</text><text x="82.39995574951172" y="20" font-family="Virgil, Segoe UI Emoji" font-size="16px" fill="#000000" text-anchor="middle" style="white-space: pre;" direction="ltr" dominant-baseline="text-before-edge">and parameter</text></g><g transform="translate(204.8373794555664 253) rotate(0 112.49593353271484 20)"><text x="112.49593353271484" y="0" font-family="Virgil, Segoe UI Emoji" font-size="16px" fill="#000000" text-anchor="middle" style="white-space: pre;" direction="ltr" dominant-baseline="text-before-edge">return wasm function pointer</text><text x="112.49593353271484" y="20" font-family="Virgil, Segoe UI Emoji" font-size="16px" fill="#000000" text-anchor="middle" style="white-space: pre;" direction="ltr" dominant-baseline="text-before-edge">and parameter</text></g><g transform="translate(216.84537506103516 388) rotate(27.40757543781839 119.4879379272461 10)"><text x="119.4879379272461" y="0" font-family="Virgil, Segoe UI Emoji" font-size="16px" fill="#000000" text-anchor="middle" style="white-space: pre;" direction="ltr" dominant-baseline="text-before-edge">invoke wasm callback function </text></g><g transform="translate(652.6773681640625 159) rotate(0 87.65594482421875 30)"><text x="87.65594482421875" y="0" font-family="Virgil, Segoe UI Emoji" font-size="16px" fill="#000000" text-anchor="middle" style="white-space: pre;" direction="ltr" dominant-baseline="text-before-edge"></text><text x="87.65594482421875" y="20" font-family="Virgil, Segoe UI Emoji" font-size="16px" fill="#000000" text-anchor="middle" style="white-space: pre;" direction="ltr" dominant-baseline="text-before-edge">get native function</text><text x="87.65594482421875" y="40" font-family="Virgil, Segoe UI Emoji" font-size="16px" fill="#000000" text-anchor="middle" style="white-space: pre;" direction="ltr" dominant-baseline="text-before-edge">pointer and parameter</text></g><g stroke-linecap="round" transform="translate(730.8333129882812 260.375) rotate(0 6.5 9)"><path d="M8.75 2.5 M8.75 2.5 C9.35 4.04, 10.39 6.23, 11.25 7.5 M8.75 2.5 C9.27 3.75, 10.38 5.28, 11.25 7.5 M11.25 7.5 C11.15 10.23, 12.55 10.87, 11.25 12.5 M11.25 7.5 C15.17 11.51, 14.02 10.4, 11.25 12.5 M11.25 12.5 C10.44 13.51, 10.27 14.05, 8.75 15.5 M11.25 12.5 C10.32 13.47, 9.6 14.37, 8.75 15.5 M8.75 15.5 C6.42 18.28, 8.46 17.91, 5.25 15.5 M8.75 15.5 C6.28 19.14, 6.42 18.76, 5.25 15.5 M5.25 15.5 C3.8 14.59, 3.19 13.5, 1.75 12.5 M5.25 15.5 C3.89 14.27, 2.65 13.66, 1.75 12.5 M1.75 12.5 C0.16 10.2, -0.72 8.49, 1.75 7.5 M1.75 12.5 C-0.5 12.12, -1.91 9.26, 1.75 7.5 M1.75 7.5 C2.9 5.25, 3.81 4.24, 5.25 2.5 M1.75 7.5 C2.71 5.76, 4.1 3.97, 5.25 2.5 M5.25 2.5 C7.99 -0.19, 7.24 -0.73, 8.75 2.5 M5.25 2.5 C7.53 -0.91, 5.04 -1.92, 8.75 2.5" stroke="#000000" stroke-width="1" fill="none"></path></g><g stroke-linecap="round" transform="translate(729.8333129882812 255.625) rotate(0 10.5 14.5)"><path d="M5.25 0 M5.25 0 C8.79 -0.09, 13.58 0.02, 15.75 0 M5.25 0 C8.54 0.31, 12.41 -0.39, 15.75 0 M15.75 0 C19.48 -0.45, 21.87 3.63, 21 5.25 M15.75 0 C20.76 1.02, 21.4 0.13, 21 5.25 M21 5.25 C22.5 12.7, 21.78 18.99, 21 23.75 M21 5.25 C21.18 11.38, 20.98 18.23, 21 23.75 M21 23.75 C21.28 28.71, 19.16 28.38, 15.75 29 M21 23.75 C22.14 26.67, 20.01 28.5, 15.75 29 M15.75 29 C11.66 28.68, 7.14 29.27, 5.25 29 M15.75 29 C11.18 28.41, 8.03 28.97, 5.25 29 M5.25 29 C1.95 28.28, -1.51 26.82, 0 23.75 M5.25 29 C3.87 27.09, -0.74 28.88, 0 23.75 M0 23.75 C-1.13 17.9, 1.41 16.1, 0 5.25 M0 23.75 C-0.33 17.97, -0.77 12.33, 0 5.25 M0 5.25 C-0.19 1.99, 1.02 0.46, 5.25 0 M0 5.25 C-0.91 -0.21, -0.17 0.03, 5.25 0" stroke="#000000" stroke-width="1" fill="none"></path></g><g stroke-linecap="round" transform="translate(763.8333129882812 257.375) rotate(0 8.5 8)"><path d="M7.48 -0.92 C9.17 -1.02, 12.86 -0.2, 14.27 1.05 C15.68 2.3, 15.68 4.72, 15.92 6.6 C16.16 8.47, 16.28 10.73, 15.71 12.32 C15.13 13.91, 14.07 15.56, 12.48 16.13 C10.89 16.7, 8.17 16.3, 6.17 15.74 C4.17 15.17, 1.63 14.37, 0.5 12.76 C-0.62 11.15, -1.12 7.81, -0.57 6.08 C-0.02 4.34, 1.96 3.3, 3.81 2.33 C5.65 1.36, 9.11 0.45, 10.5 0.25 C11.88 0.06, 12.37 1.04, 12.12 1.17 M6.46 1.38 C8.12 0.85, 10.23 -0.21, 11.98 0.26 C13.72 0.73, 16.05 2.62, 16.92 4.2 C17.8 5.77, 17.62 7.96, 17.22 9.69 C16.82 11.42, 16.34 13.57, 14.52 14.58 C12.71 15.59, 8.38 16.06, 6.33 15.73 C4.28 15.4, 3.18 13.55, 2.22 12.6 C1.26 11.65, 0.7 11.75, 0.57 10.05 C0.43 8.35, 0.7 4.26, 1.41 2.39 C2.11 0.52, 3.8 -0.87, 4.81 -1.17 C5.81 -1.48, 7.14 0.28, 7.44 0.56" stroke="#1864ab" stroke-width="1" fill="none"></path></g><g transform="translate(666.5809067054915 306.3485739059266) rotate(345.32360686255004 82.45137023925781 18.82019756422541)"><text x="82.45137023925781" y="0" font-family="Virgil, Segoe UI Emoji" font-size="15.05615805138033px" fill="#000000" text-anchor="middle" style="white-space: pre;" direction="ltr" dominant-baseline="text-before-edge">return native function</text><text x="82.45137023925781" y="18.82019756422541" font-family="Virgil, Segoe UI Emoji" font-size="15.05615805138033px" fill="#000000" text-anchor="middle" style="white-space: pre;" direction="ltr" dominant-baseline="text-before-edge">pointer and parameter</text></g><g transform="translate(656.8819427490234 361.17980243577455) rotate(337.3801350519595 82.45137023925781 18.820197564225424)"><text x="82.45137023925781" y="0" font-family="Virgil, Segoe UI Emoji" font-size="15.05615805138033px" fill="#000000" text-anchor="middle" style="white-space: pre;" direction="ltr" dominant-baseline="text-before-edge">pass native function</text><text x="82.45137023925781" y="18.82019756422541" font-family="Virgil, Segoe UI Emoji" font-size="15.05615805138033px" fill="#000000" text-anchor="middle" style="white-space: pre;" direction="ltr" dominant-baseline="text-before-edge">pointer and parameter</text></g><g transform="translate(1039.7106748029455 261.85401905606784) rotate(338.0562652316074 77.69703674316406 24.972681505891558)"><text x="77.69703674316406" y="0" font-family="Virgil, Segoe UI Emoji" font-size="13.31876346980883px" fill="#000000" text-anchor="middle" style="white-space: pre;" direction="ltr" dominant-baseline="text-before-edge">invoke </text><text x="77.69703674316406" y="16.64845433726104" font-family="Virgil, Segoe UI Emoji" font-size="13.31876346980883px" fill="#000000" text-anchor="middle" style="white-space: pre;" direction="ltr" dominant-baseline="text-before-edge">native callback function</text><text x="77.69703674316406" y="33.29690867452208" font-family="Virgil, Segoe UI Emoji" font-size="13.31876346980883px" fill="#000000" text-anchor="middle" style="white-space: pre;" direction="ltr" dominant-baseline="text-before-edge">and pass parameter</text></g><g stroke-linecap="round"><g transform="translate(382.4033541575511 353.3579519917497) rotate(0 43.37442822206614 61.57102400412515)"><path d="M0 0 C14.46 20.52, 72.29 102.62, 86.75 123.14" stroke="#a61e4d" stroke-width="1.5" fill="none" stroke-dasharray="8 9"></path></g><g transform="translate(382.4033541575511 353.3579519917497) rotate(0 43.37442822206614 61.57102400412515)"><path d="M62.13 106 C67.92 110.04, 73.72 114.08, 86.75 123.14" stroke="#a61e4d" stroke-width="1.5" fill="none"></path></g><g transform="translate(382.4033541575511 353.3579519917497) rotate(0 43.37442822206614 61.57102400412515)"><path d="M78.9 94.19 C80.75 101, 82.6 107.82, 86.75 123.14" stroke="#a61e4d" stroke-width="1.5" fill="none"></path></g></g><mask></mask><g stroke-linecap="round"><g transform="translate(1005.3333129882812 265) rotate(0 118 -23.004612566016334)"><path d="M0 0 C14 -7.67, 44.67 -45.33, 84 -46 C123.33 -46.67, 210.67 -11, 236 -4" stroke="#1864ab" stroke-width="1.5" fill="none" stroke-dasharray="8 9"></path></g><g transform="translate(1005.3333129882812 265) rotate(0 118 -23.004612566016334)"><path d="M206.01 -3.25 C216.74 -3.52, 227.47 -3.79, 236 -4" stroke="#1864ab" stroke-width="1.5" fill="none"></path></g><g transform="translate(1005.3333129882812 265) rotate(0 118 -23.004612566016334)"><path d="M212.54 -22.7 C220.94 -16.01, 229.33 -9.32, 236 -4" stroke="#1864ab" stroke-width="1.5" fill="none"></path></g></g><mask></mask><g transform="translate(297.1653137207031 222) rotate(0 2.167999267578125 10)"><text x="2.167999267578125" y="0" font-family="Virgil, Segoe UI Emoji" font-size="16px" fill="#1864ab" text-anchor="middle" style="white-space: pre;" direction="ltr" dominant-baseline="text-before-edge">1</text></g><g transform="translate(718.6373138427734 228) rotate(0 5.6959991455078125 10)"><text x="5.6959991455078125" y="0" font-family="Virgil, Segoe UI Emoji" font-size="16px" fill="#1864ab" text-anchor="middle" style="white-space: pre;" direction="ltr" dominant-baseline="text-before-edge">2</text></g><g transform="translate(712.8853149414062 298) rotate(0 5.447998046875 10)"><text x="5.447998046875" y="0" font-family="Virgil, Segoe UI Emoji" font-size="16px" fill="#1864ab" text-anchor="middle" style="white-space: pre;" direction="ltr" dominant-baseline="text-before-edge">3</text></g><g transform="translate(563.2133178710938 399) rotate(0 5.1199951171875 10)"><text x="5.1199951171875" y="0" font-family="Virgil, Segoe UI Emoji" font-size="16px" fill="#1864ab" text-anchor="middle" style="white-space: pre;" direction="ltr" dominant-baseline="text-before-edge">4</text></g><g transform="translate(306.38932037353516 316) rotate(0 4.943992614746094 10)"><text x="4.943992614746094" y="0" font-family="Virgil, Segoe UI Emoji" font-size="16px" fill="#1864ab" text-anchor="middle" style="white-space: pre;" direction="ltr" dominant-baseline="text-before-edge">5</text></g><g transform="translate(298.21331787109375 426) rotate(0 5.1199951171875 10)"><text x="5.1199951171875" y="0" font-family="Virgil, Segoe UI Emoji" font-size="16px" fill="#1864ab" text-anchor="middle" style="white-space: pre;" direction="ltr" dominant-baseline="text-before-edge">6</text></g><g transform="translate(754.0293197631836 433) rotate(0 4.303993225097656 10)"><text x="4.303993225097656" y="0" font-family="Virgil, Segoe UI Emoji" font-size="16px" fill="#1864ab" text-anchor="middle" style="white-space: pre;" direction="ltr" dominant-baseline="text-before-edge">7</text></g><g stroke-linecap="round" transform="translate(880.3333129882812 10) rotate(0 117.5 49)"><path d="M24.5 0 M24.5 0 C91.49 0, 158.47 0, 210.5 0 M210.5 0 C226.83 0, 235 8.17, 235 24.5 M235 24.5 C235 39.23, 235 53.96, 235 73.5 M235 73.5 C235 89.83, 226.83 98, 210.5 98 M210.5 98 C167.52 98, 124.54 98, 24.5 98 M24.5 98 C8.17 98, 0 89.83, 0 73.5 M0 73.5 C0 60.94, 0 48.38, 0 24.5 M0 24.5 C0 8.17, 8.17 0, 24.5 0" stroke="#5c940d" stroke-width="1.5" fill="none" stroke-dasharray="8 9"></path></g><g transform="translate(891.9293594360352 29) rotate(0 105.9039535522461 30)"><text x="105.9039535522461" y="0" font-family="Virgil, Segoe UI Emoji" font-size="16px" fill="#5c940d" text-anchor="middle" style="white-space: pre;" direction="ltr" dominant-baseline="text-before-edge">The native data used as </text><text x="105.9039535522461" y="20" font-family="Virgil, Segoe UI Emoji" font-size="16px" fill="#5c940d" text-anchor="middle" style="white-space: pre;" direction="ltr" dominant-baseline="text-before-edge">the parameter of the </text><text x="105.9039535522461" y="40" font-family="Virgil, Segoe UI Emoji" font-size="16px" fill="#5c940d" text-anchor="middle" style="white-space: pre;" direction="ltr" dominant-baseline="text-before-edge">callback function.</text></g><g stroke-linecap="round"><g transform="translate(753.3333129882812 256) rotate(0 62 -90.5)"><path d="M0 0 C12.17 -5.17, 56.67 -19.83, 73 -31 C89.33 -42.17, 93.67 -47.5, 98 -67 C102.33 -86.5, 94.67 -129, 99 -148 C103.33 -167, 119.83 -175.5, 124 -181" stroke="#5c940d" stroke-width="1.5" fill="none" stroke-dasharray="8 9"></path></g><g transform="translate(753.3333129882812 256) rotate(0 62 -90.5)"><path d="M114.57 -162.57 C116.74 -166.82, 118.92 -171.07, 124 -181" stroke="#5c940d" stroke-width="1.5" fill="none"></path></g><g transform="translate(753.3333129882812 256) rotate(0 62 -90.5)"><path d="M104.93 -172.95 C109.32 -174.8, 113.72 -176.66, 124 -181" stroke="#5c940d" stroke-width="1.5" fill="none"></path></g></g><mask></mask><g transform="translate(476.3893585205078 437) rotate(0 79.94395446777344 10)"><text x="79.94395446777344" y="0" font-family="Virgil, Segoe UI Emoji" font-size="16px" fill="#1864ab" text-anchor="middle" style="white-space: pre;" direction="ltr" dominant-baseline="text-before-edge">converting structure</text></g><g transform="translate(1104.2133178710938 332) rotate(0 6.1199951171875 10)"><text x="6.1199951171875" y="0" font-family="Virgil, Segoe UI Emoji" font-size="16px" fill="#1864ab" text-anchor="middle" style="white-space: pre;" direction="ltr" dominant-baseline="text-before-edge">8</text></g><g stroke-linecap="round" transform="translate(743.3333129882812 618) rotate(0 174 79.5)"><path d="M32 0 M32 0 C139.96 0, 247.91 0, 316 0 M316 0 C337.33 0, 348 10.67, 348 32 M348 32 C348 64.45, 348 96.9, 348 127 M348 127 C348 148.33, 337.33 159, 316 159 M316 159 C258.59 159, 201.19 159, 32 159 M32 159 C10.67 159, 0 148.33, 0 127 M0 127 C0 97.9, 0 68.8, 0 32 M0 32 C0 10.67, 10.67 0, 32 0" stroke="#5c940d" stroke-width="1.5" fill="none" stroke-dasharray="8 9"></path></g><g transform="translate(748.3333129882812 637.5) rotate(0 160.6159210205078 60)"><text x="0" y="0" font-family="Virgil, Segoe UI Emoji" font-size="16px" fill="#5c940d" text-anchor="start" style="white-space: pre;" direction="ltr" dominant-baseline="text-before-edge">Convert the data structure so that a </text><text x="0" y="20" font-family="Virgil, Segoe UI Emoji" font-size="16px" fill="#5c940d" text-anchor="start" style="white-space: pre;" direction="ltr" dominant-baseline="text-before-edge">function pointer is attached to the </text><text x="0" y="40" font-family="Virgil, Segoe UI Emoji" font-size="16px" fill="#5c940d" text-anchor="start" style="white-space: pre;" direction="ltr" dominant-baseline="text-before-edge">structure. </text><text x="0" y="60" font-family="Virgil, Segoe UI Emoji" font-size="16px" fill="#5c940d" text-anchor="start" style="white-space: pre;" direction="ltr" dominant-baseline="text-before-edge">This pointer is "hidden" from the wasm </text><text x="0" y="80" font-family="Virgil, Segoe UI Emoji" font-size="16px" fill="#5c940d" text-anchor="start" style="white-space: pre;" direction="ltr" dominant-baseline="text-before-edge">layer, but the wasm layer can also </text><text x="0" y="100" font-family="Virgil, Segoe UI Emoji" font-size="16px" fill="#5c940d" text-anchor="start" style="white-space: pre;" direction="ltr" dominant-baseline="text-before-edge">access this pointer.</text></g><g stroke-linecap="round"><g transform="translate(543.3333129882812 419) rotate(0 170.5 97.5)"><path d="M0 0 C9.67 1.83, 30.67 5.83, 58 11 C85.33 16.17, 116.83 0.33, 164 31 C211.17 61.67, 311.5 167.67, 341 195" stroke="#5c940d" stroke-width="1.5" fill="none" stroke-dasharray="8 9"></path></g><g transform="translate(543.3333129882812 419) rotate(0 170.5 97.5)"><path d="M313.71 182.53 C320.7 185.73, 327.7 188.92, 341 195" stroke="#5c940d" stroke-width="1.5" fill="none"></path></g><g transform="translate(543.3333129882812 419) rotate(0 170.5 97.5)"><path d="M328.11 167.91 C331.41 174.85, 334.72 181.79, 341 195" stroke="#5c940d" stroke-width="1.5" fill="none"></path></g></g><mask></mask><g stroke-linecap="round"><g transform="translate(502.33331298828125 527) rotate(0 46.776362861447666 45.50624563253905)"><path d="M0 0 C-3 8.5, -28.83 34.67, -18 51 C-7.17 67.33, 43 97.33, 65 98 C87 98.67, 111.17 72.5, 114 55 C116.83 37.5, 87.33 3.33, 82 -7 M0 0 C-3 8.5, -28.83 34.67, -18 51 C-7.17 67.33, 43 97.33, 65 98 C87 98.67, 111.17 72.5, 114 55 C116.83 37.5, 87.33 3.33, 82 -7" stroke="#000000" stroke-width="1" fill="none"></path></g><g transform="translate(502.33331298828125 527) rotate(0 46.776362861447666 45.50624563253905)"><path d="M106.21 10.72 C97.39 4.27, 88.57 -2.19, 82 -7 M106.21 10.72 C97.38 4.26, 88.55 -2.2, 82 -7" stroke="#000000" stroke-width="1" fill="none"></path></g><g transform="translate(502.33331298828125 527) rotate(0 46.776362861447666 45.50624563253905)"><path d="M89.15 22.13 C86.55 11.52, 83.94 0.91, 82 -7 M89.15 22.13 C86.54 11.51, 83.94 0.88, 82 -7" stroke="#000000" stroke-width="1" fill="none"></path></g></g><mask></mask><g transform="translate(479.33331298828125 631) rotate(0 79.94395446777344 10)"><text x="0" y="0" font-family="Virgil, Segoe UI Emoji" font-size="16px" fill="#1864ab" text-anchor="start" style="white-space: pre;" direction="ltr" dominant-baseline="text-before-edge">converting structure</text></g><g stroke-linecap="round" transform="translate(439.33331298828125 546.5) rotate(0 15 25.5)"><path d="M7.5 0 M7.5 0 C13.45 0.56, 18.27 -1.16, 22.5 0 M7.5 0 C11.49 -0.45, 14.53 0.49, 22.5 0 M22.5 0 C28.77 -0.61, 31.19 3.89, 30 7.5 M22.5 0 C26.5 -1.98, 29.94 2.03, 30 7.5 M30 7.5 C31.86 16.61, 30.09 26.09, 30 43.5 M30 7.5 C30.56 19.2, 29.94 30.52, 30 43.5 M30 43.5 C29.38 46.66, 29.28 52.14, 22.5 51 M30 43.5 C31.96 50.67, 26.35 49.85, 22.5 51 M22.5 51 C16.39 49.85, 11.07 51.53, 7.5 51 M22.5 51 C18.13 51.59, 14.51 50.49, 7.5 51 M7.5 51 C3.5 51.4, 0.34 49.95, 0 43.5 M7.5 51 C4.28 52.13, 1.21 47.45, 0 43.5 M0 43.5 C-1.24 33.53, -1.95 23.39, 0 7.5 M0 43.5 C1.2 36.72, -0.65 27.79, 0 7.5 M0 7.5 C-1.29 0.81, 2.41 -0.39, 7.5 0 M0 7.5 C-2.3 0.34, 2.09 -0.29, 7.5 0" stroke="#000000" stroke-width="1" fill="none"></path></g><g stroke-linecap="round" transform="translate(448.83331298828125 554) rotate(0 6.5 9)"><path d="M8.75 2.5 M8.75 2.5 C9.48 4.66, 11.28 6.39, 11.25 7.5 M8.75 2.5 C9.39 3.61, 10.05 4.97, 11.25 7.5 M11.25 7.5 C12.31 11.38, 13.64 8.43, 11.25 12.5 M11.25 7.5 C14.15 10.47, 13.39 11.66, 11.25 12.5 M11.25 12.5 C10.14 13.54, 9.35 14.8, 8.75 15.5 M11.25 12.5 C10.6 13, 9.92 13.98, 8.75 15.5 M8.75 15.5 C8.89 19.18, 5.18 16.08, 5.25 15.5 M8.75 15.5 C5.51 16.05, 6.89 17.55, 5.25 15.5 M5.25 15.5 C4.52 15.02, 3.77 14.29, 1.75 12.5 M5.25 15.5 C3.81 14.27, 2.96 13.21, 1.75 12.5 M1.75 12.5 C-1.6 9.48, 1.36 11.81, 1.75 7.5 M1.75 12.5 C-1.06 9.14, -2.18 11.73, 1.75 7.5 M1.75 7.5 C3.12 5.01, 4.15 3.81, 5.25 2.5 M1.75 7.5 C2.69 6.36, 3.23 5.25, 5.25 2.5 M5.25 2.5 C5.52 -1.38, 6.77 -0.4, 8.75 2.5 M5.25 2.5 C8.76 1.1, 4.76 0.82, 8.75 2.5" stroke="#000000" stroke-width="1" fill="none"></path></g><g stroke-linecap="round" transform="translate(447.83331298828125 575) rotate(0 8.5 8)"><path d="M9.5 0.28 C11.37 0.29, 13.55 0.61, 14.9 1.69 C16.25 2.76, 17.63 4.92, 17.59 6.74 C17.55 8.56, 15.87 10.99, 14.66 12.62 C13.45 14.25, 11.89 16.27, 10.32 16.54 C8.74 16.8, 6.75 14.99, 5.21 14.2 C3.67 13.41, 1.76 13.3, 1.08 11.79 C0.4 10.28, 0.83 6.74, 1.13 5.13 C1.44 3.53, 1.36 3.17, 2.92 2.17 C4.47 1.17, 9.33 -0.57, 10.47 -0.86 C11.6 -1.15, 9.69 0.26, 9.72 0.44 M5.68 -0.11 C7.36 -0.42, 9.3 1.44, 11.24 2.14 C13.19 2.83, 16.58 2.46, 17.36 4.08 C18.15 5.7, 16.93 10.16, 15.95 11.87 C14.97 13.57, 12.82 13.52, 11.49 14.33 C10.16 15.14, 9.71 16.75, 7.99 16.74 C6.27 16.73, 2.48 15.94, 1.18 14.28 C-0.12 12.61, 0.14 8.53, 0.19 6.74 C0.24 4.95, 0.13 4.48, 1.47 3.55 C2.81 2.61, 7.44 1.45, 8.22 1.13 C9.01 0.8, 6.42 1.45, 6.16 1.6" stroke="#1864ab" stroke-width="1" fill="none"></path></g><g stroke-linecap="round" transform="translate(627.3333129882812 544) rotate(0 6.5 9)"><path d="M8.75 2.5 M8.75 2.5 C9.94 4.82, 11.01 6.23, 11.25 7.5 M8.75 2.5 C9.49 3.97, 10.41 5.71, 11.25 7.5 M11.25 7.5 C11.14 8.06, 14.68 9.48, 11.25 12.5 M11.25 7.5 C11.78 10.38, 13.19 7.8, 11.25 12.5 M11.25 12.5 C10.01 13.37, 9.79 14.54, 8.75 15.5 M11.25 12.5 C10.81 13.05, 10.06 14.09, 8.75 15.5 M8.75 15.5 C5.38 16.66, 5.17 19.21, 5.25 15.5 M8.75 15.5 C8.5 16.9, 7.9 16.83, 5.25 15.5 M5.25 15.5 C3.75 14.78, 2.81 14.05, 1.75 12.5 M5.25 15.5 C4.24 15.01, 3.55 13.98, 1.75 12.5 M1.75 12.5 C1.56 10.11, 1.76 11.53, 1.75 7.5 M1.75 12.5 C1.2 8.5, 0.82 10.18, 1.75 7.5 M1.75 7.5 C3.5 5.15, 4.27 3.95, 5.25 2.5 M1.75 7.5 C2.84 5.53, 4.39 3.72, 5.25 2.5 M5.25 2.5 C6.83 1.14, 7.82 -1.46, 8.75 2.5 M5.25 2.5 C7.64 1.03, 5.07 -1.34, 8.75 2.5" stroke="#000000" stroke-width="1" fill="none"></path></g><g stroke-linecap="round" transform="translate(623.3333129882812 542.25) rotate(0 13 17.5)"><path d="M6.5 0 M6.5 0 C11.53 0.69, 14.46 -0.11, 19.5 0 M6.5 0 C11.12 0.37, 16.4 -0.59, 19.5 0 M19.5 0 C21.89 1.68, 25.48 1.11, 26 6.5 M19.5 0 C24.21 0.19, 23.8 3.65, 26 6.5 M26 6.5 C24.8 15.74, 25.17 20.52, 26 28.5 M26 6.5 C24.8 14.04, 26.2 19.88, 26 28.5 M26 28.5 C24.66 31, 25.04 36.31, 19.5 35 M26 28.5 C24.9 33.73, 22.66 35.13, 19.5 35 M19.5 35 C16.48 34.02, 13.42 34.15, 6.5 35 M19.5 35 C17.32 34.86, 13.66 35.4, 6.5 35 M6.5 35 C2.27 36.76, 1.53 33.87, 0 28.5 M6.5 35 C0.67 35.82, 0.18 34.59, 0 28.5 M0 28.5 C-1.44 22.3, 0.79 18.66, 0 6.5 M0 28.5 C-0.26 20.11, 0.08 11.69, 0 6.5 M0 6.5 C1.14 2.99, 0.7 0.55, 6.5 0 M0 6.5 C1.03 0.23, 0.83 1.96, 6.5 0" stroke="#000000" stroke-width="1" fill="none"></path></g><g stroke-linecap="round" transform="translate(624.3333129882812 583) rotate(0 8.5 8)"><path d="M8.18 -0.08 C9.91 0.07, 13.07 1.68, 14.36 2.6 C15.64 3.52, 15.49 3.95, 15.9 5.45 C16.31 6.94, 17.61 9.88, 16.81 11.57 C16 13.26, 12.9 15.1, 11.07 15.61 C9.25 16.12, 7.41 15.14, 5.88 14.63 C4.34 14.12, 2.98 14, 1.89 12.55 C0.8 11.11, -0.73 7.56, -0.65 5.95 C-0.57 4.34, 0.74 3.95, 2.36 2.9 C3.98 1.84, 7.7 0.19, 9.09 -0.39 C10.49 -0.96, 10.53 -0.59, 10.73 -0.55 M9.39 -1.17 C11.15 -0.54, 15.04 2.46, 16.19 4.15 C17.33 5.85, 16.64 7.43, 16.27 8.99 C15.9 10.55, 15.15 12.37, 13.97 13.53 C12.78 14.68, 11.1 15.62, 9.18 15.92 C7.27 16.23, 4.1 16.08, 2.47 15.36 C0.84 14.64, -0.17 13.55, -0.61 11.6 C-1.05 9.64, -1.23 5.6, -0.17 3.62 C0.9 1.64, 3.77 0.28, 5.77 -0.3 C7.76 -0.89, 11.15 -0.18, 11.83 0.13 C12.5 0.43, 10.07 1.16, 9.82 1.53" stroke="#1864ab" stroke-width="1" fill="none"></path></g><g stroke-linecap="round" transform="translate(401.33331298828125 722.5) rotate(0 135.5 32)"><path d="M16 0 M16 0 C110.93 0, 205.86 0, 255 0 M255 0 C265.67 0, 271 5.33, 271 16 M271 16 C271 26.36, 271 36.71, 271 48 M271 48 C271 58.67, 265.67 64, 255 64 M255 64 C197.69 64, 140.37 64, 16 64 M16 64 C5.33 64, 0 58.67, 0 48 M0 48 C0 35.24, 0 22.49, 0 16 M0 16 C0 5.33, 5.33 0, 16 0" stroke="#5c940d" stroke-width="1.5" fill="none" stroke-dasharray="8 9"></path></g><g transform="translate(406.33331298828125 744.5) rotate(0 122.25592041015625 10)"><text x="0" y="0" font-family="Virgil, Segoe UI Emoji" font-size="16px" fill="#5c940d" text-anchor="start" style="white-space: pre;" direction="ltr" dominant-baseline="text-before-edge">Restore the original structure.</text></g><g stroke-linecap="round"><g transform="translate(554.3333129882812 664) rotate(0 -25.928670072976445 29)"><path d="M0 0 C-8.5 4.5, -45.67 17.33, -51 27 C-56.33 36.67, -35.17 52.83, -32 58" stroke="#5c940d" stroke-width="1.5" fill="none" stroke-dasharray="8 9"></path></g><g transform="translate(554.3333129882812 664) rotate(0 -25.928670072976445 29)"><path d="M-48.1 49.56 C-42.42 52.53, -36.75 55.51, -32 58" stroke="#5c940d" stroke-width="1.5" fill="none"></path></g><g transform="translate(554.3333129882812 664) rotate(0 -25.928670072976445 29)"><path d="M-38.9 41.18 C-36.47 47.11, -34.04 53.04, -32 58" stroke="#5c940d" stroke-width="1.5" fill="none"></path></g></g><mask></mask></svg>