<svg version="1.1" xmlns="http://www.w3.org/2000/svg" viewBox="0 0 952.4718933105469 478" width="952.4718933105469" height="478">
  <!-- svg-source:excalidraw -->
  
  <defs>
    <style class="style-fonts">
      @font-face {
        font-family: "Virgil";
        src: url("https://excalidraw.com/Virgil.woff2");
      }
      @font-face {
        font-family: "Cascadia";
        src: url("https://excalidraw.com/Cascadia.woff2");
      }
    </style>
  </defs>
  <rect x="0" y="0" width="952.4718933105469" height="478" fill="#ffffff"></rect><g stroke-linecap="round" transform="translate(252 224) rotate(0 38.5 122)"><path d="M19.25 0 M19.25 0 C33.68 1.77, 49.66 -0.77, 57.75 0 M19.25 0 C31.75 -0.42, 41.8 0.55, 57.75 0 M57.75 0 C71.86 -1.48, 75.03 6.85, 77 19.25 M57.75 0 C72.67 0.95, 78.84 6.64, 77 19.25 M77 19.25 C77.14 100.49, 75.97 180.09, 77 224.75 M77 19.25 C77.57 65.99, 78.1 112.42, 77 224.75 M77 224.75 C76.14 238.15, 70.77 245.98, 57.75 244 M77 224.75 C75.22 235.98, 72.73 242.75, 57.75 244 M57.75 244 C46.96 242.68, 39.89 242.99, 19.25 244 M57.75 244 C50.6 244.45, 42.03 243.94, 19.25 244 M19.25 244 C7.09 245.41, -1.3 238.79, 0 224.75 M19.25 244 C4.82 244.87, -0.36 235.45, 0 224.75 M0 224.75 C2.34 174.68, 2.5 126.8, 0 19.25 M0 224.75 C0.02 145.95, -1.73 68.01, 0 19.25 M0 19.25 C0.1 5.54, 6.2 -0.39, 19.25 0 M0 19.25 C0.72 4.23, 8.29 -0.11, 19.25 0" stroke="#000000" stroke-width="1" fill="none"></path></g><g transform="translate(260.0520324707031 326) rotate(0 30.447967529296875 20)"><text x="30.447967529296875" y="0" font-family="Virgil, Segoe UI Emoji" font-size="16px" fill="#000000" text-anchor="middle" style="white-space: pre;" direction="ltr" dominant-baseline="text-before-edge">Native </text><text x="30.447967529296875" y="20" font-family="Virgil, Segoe UI Emoji" font-size="16px" fill="#000000" text-anchor="middle" style="white-space: pre;" direction="ltr" dominant-baseline="text-before-edge">Wrapper</text></g><g stroke-linecap="round" transform="translate(643.5 208.5) rotate(0 35 126.5)"><path d="M17.5 0 M17.5 0 C31.33 -2.12, 45.24 -0.88, 52.5 0 M17.5 0 C24.06 -0.13, 31.31 0.3, 52.5 0 M52.5 0 C62.27 1.63, 69.9 6.38, 70 17.5 M52.5 0 C62.28 1.45, 71.7 7.21, 70 17.5 M70 17.5 C68.96 65.83, 68.9 118.53, 70 235.5 M70 17.5 C71.39 80.47, 71.2 142.03, 70 235.5 M70 235.5 C69.68 248.4, 65.22 252.31, 52.5 253 M70 235.5 C69.39 248.14, 65.95 251.55, 52.5 253 M52.5 253 C42.44 253.27, 33.12 254.85, 17.5 253 M52.5 253 C40.76 252.08, 27.31 252.05, 17.5 253 M17.5 253 C5.47 251.12, 0.18 249.02, 0 235.5 M17.5 253 C4.52 251.52, -1.7 248.79, 0 235.5 M0 235.5 C-3.18 159.79, -2.4 83.24, 0 17.5 M0 235.5 C2.06 190.44, 0.42 146.66, 0 17.5 M0 17.5 C0.11 6.92, 6.31 1.5, 17.5 0 M0 17.5 C-1.54 6.74, 5.06 -0.1, 17.5 0" stroke="#000000" stroke-width="1" fill="none"></path></g><g transform="translate(656.2920150756836 315) rotate(0 22.207984924316406 20)"><text x="22.207984924316406" y="0" font-family="Virgil, Segoe UI Emoji" font-size="16px" fill="#000000" text-anchor="middle" style="white-space: pre;" direction="ltr" dominant-baseline="text-before-edge">WASM</text><text x="22.207984924316406" y="20" font-family="Virgil, Segoe UI Emoji" font-size="16px" fill="#000000" text-anchor="middle" style="white-space: pre;" direction="ltr" dominant-baseline="text-before-edge">app</text></g><g stroke-linecap="round" transform="translate(405 10) rotate(0 153 40)"><path d="M20 0 M20 0 C82.45 3.17, 147.03 0.22, 286 0 M20 0 C94.62 -1.61, 168.39 -0.64, 286 0 M286 0 C301.16 -1.91, 305.57 6.26, 306 20 M286 0 C297.89 0.94, 305.44 4.48, 306 20 M306 20 C307.65 28.88, 306.33 42.88, 306 60 M306 20 C305.31 33.1, 306.58 47.29, 306 60 M306 60 C306.56 75, 297.64 80.17, 286 80 M306 60 C306.86 72.27, 300.46 80.76, 286 80 M286 80 C225.1 80.58, 162.85 80.27, 20 80 M286 80 C190.59 80.43, 93.44 80.46, 20 80 M20 80 C6.94 79.14, 0.42 72.17, 0 60 M20 80 C7.78 81.62, 0.44 74.22, 0 60 M0 60 C1.86 45.79, -0.28 31.22, 0 20 M0 60 C-0.13 48.9, -0.29 36.55, 0 20 M0 20 C-0.23 7.65, 5.32 -0.5, 20 0 M0 20 C-1.96 5.62, 5.36 -1.31, 20 0" stroke="#000000" stroke-width="1" fill="none"></path></g><g transform="translate(506.14403533935547 40) rotate(0 51.85596466064453 10)"><text x="51.85596466064453" y="0" font-family="Virgil, Segoe UI Emoji" font-size="16px" fill="#000000" text-anchor="middle" style="white-space: pre;" direction="ltr" dominant-baseline="text-before-edge">Mapping layer</text></g><g stroke-linecap="round"><g transform="translate(284.3130388335834 220.03092783505156) rotate(0 57.75426532232123 -73.73977246749763)"><path d="M0.91 1.16 C19.72 -23.76, 94.3 -123.92, 113.38 -148.64 M-0.08 0.72 C19.05 -24.12, 96.39 -122.44, 115.58 -147.39" stroke="#000000" stroke-width="1" fill="none"></path></g><g transform="translate(284.3130388335834 220.03092783505156) rotate(0 57.75426532232123 -73.73977246749763)"><path d="M108.28 -120.44 C108.42 -127.05, 114.12 -139.28, 114.78 -147.15 M105.57 -117.9 C110.87 -128.4, 113.16 -139.44, 116.45 -147.26" stroke="#000000" stroke-width="1" fill="none"></path></g><g transform="translate(284.3130388335834 220.03092783505156) rotate(0 57.75426532232123 -73.73977246749763)"><path d="M92.1 -133.05 C97.89 -135.44, 109.17 -143.33, 114.78 -147.15 M89.38 -130.51 C100.37 -136.42, 108.48 -142.93, 116.45 -147.26" stroke="#000000" stroke-width="1" fill="none"></path></g></g><mask></mask><g stroke-linecap="round"><g transform="translate(457.28818728803105 99.5257731958763) rotate(0 -62.13071588646841 88.72521953103706)"><path d="M0.7 0.13 C-20.03 29.68, -104.15 148.47, -124.96 178.3 M-0.4 -0.85 C-20.67 28.24, -101.84 146.64, -122.58 176.34" stroke="#a61e4d" stroke-width="1" fill="none"></path></g><g transform="translate(457.28818728803105 99.5257731958763) rotate(0 -62.13071588646841 88.72521953103706)"><path d="M-114.78 146.25 C-116.14 154.8, -116.67 162.31, -124.3 177.83 M-115.68 147.59 C-117.44 158.86, -120.69 169.51, -122.22 177" stroke="#a61e4d" stroke-width="1" fill="none"></path></g><g transform="translate(457.28818728803105 99.5257731958763) rotate(0 -62.13071588646841 88.72521953103706)"><path d="M-97.9 157.92 C-103.55 163.66, -108.27 168.28, -124.3 177.83 M-98.8 159.26 C-107.23 166.14, -117.06 172.24, -122.22 177" stroke="#a61e4d" stroke-width="1" fill="none"></path></g></g><mask></mask><g stroke-linecap="round"><g transform="translate(335.3814432989691 320.78972373657234) rotate(0 111.68655822469901 -110.94605614702073)"><path d="M-0.86 0.24 C36.5 -36.97, 186.63 -185.14, 224.23 -222.13 M0.89 -0.68 C38.05 -37.23, 185.86 -184.3, 223.04 -220.95" stroke="#000000" stroke-width="1" fill="none"></path></g><g transform="translate(335.3814432989691 320.78972373657234) rotate(0 111.68655822469901 -110.94605614702073)"><path d="M210.64 -194.59 C212.76 -201.86, 217.3 -210.33, 223.16 -220.46 M210.56 -194.74 C214.71 -203.62, 218.26 -212.66, 223.13 -220.84" stroke="#000000" stroke-width="1" fill="none"></path></g><g transform="translate(335.3814432989691 320.78972373657234) rotate(0 111.68655822469901 -110.94605614702073)"><path d="M196.2 -209.17 C202.83 -211.92, 211.75 -215.97, 223.16 -220.46 M196.12 -209.31 C205.6 -213.07, 214.35 -216.87, 223.13 -220.84" stroke="#000000" stroke-width="1" fill="none"></path></g></g><mask></mask><g stroke-linecap="round"><g transform="translate(335.0000000000001 371.79223300751414) rotate(0 153.5102020643754 -3.0746585027936817)"><path d="M0.74 0.67 C51.74 -0.23, 254.15 -4.15, 305.23 -5.32 M-0.33 -0.02 C51.09 -1.23, 256.16 -6, 307.35 -6.82" stroke="#000000" stroke-width="1" fill="none"></path></g><g transform="translate(335.0000000000001 371.79223300751414) rotate(0 153.5102020643754 -3.0746585027936817)"><path d="M280.5 2.15 C287.88 2.68, 292.72 0.7, 308.09 -6.35 M278.53 4.37 C285.24 0.79, 292.99 -1.32, 306.38 -5.96" stroke="#000000" stroke-width="1" fill="none"></path></g><g transform="translate(335.0000000000001 371.79223300751414) rotate(0 153.5102020643754 -3.0746585027936817)"><path d="M280.08 -18.37 C287.58 -13.04, 292.51 -10.23, 308.09 -6.35 M278.12 -16.14 C285.13 -14.95, 292.97 -12.27, 306.38 -5.96" stroke="#000000" stroke-width="1" fill="none"></path></g></g><mask></mask><g stroke-linecap="round" transform="translate(262 188) rotate(0 9.5 10.5)"><path d="M12.5 2.75 M12.5 2.75 C13.54 3.47, 14.49 5.73, 16.5 8.25 M12.5 2.75 C13.54 4.78, 15.2 6.66, 16.5 8.25 M16.5 8.25 C20.48 11.03, 20.07 9.34, 16.5 13.75 M16.5 8.25 C17.73 11.89, 19.95 10.65, 16.5 13.75 M16.5 13.75 C15.99 14.48, 14.06 16.06, 12.5 18.25 M16.5 13.75 C15.33 15.22, 14.1 16.54, 12.5 18.25 M12.5 18.25 C9.21 21.42, 11.39 19.55, 7.5 18.25 M12.5 18.25 C9.57 18.89, 8 21.06, 7.5 18.25 M7.5 18.25 C5.66 17.31, 4.21 15.39, 2.5 13.75 M7.5 18.25 C6.37 17.49, 5.59 16.11, 2.5 13.75 M2.5 13.75 C-0.44 10.2, 1.57 9.24, 2.5 8.25 M2.5 13.75 C-1.81 12.63, 1.54 10.58, 2.5 8.25 M2.5 8.25 C3.95 6.46, 6.08 4.55, 7.5 2.75 M2.5 8.25 C3.87 6.46, 5.27 4.88, 7.5 2.75 M7.5 2.75 C10.27 1.16, 8.82 -1.87, 12.5 2.75 M7.5 2.75 C10.16 1.25, 8.45 0.77, 12.5 2.75" stroke="#000000" stroke-width="1" fill="none"></path></g><g transform="translate(238.9371450115068 86.93202853847106) rotate(306.90301229304725 85.00794982910156 20)"><text x="0" y="0" font-family="Virgil, Segoe UI Emoji" font-size="16px" fill="#000000" text-anchor="start" style="white-space: pre;" direction="ltr" dominant-baseline="text-before-edge">pass a native string </text><text x="0" y="20" font-family="Virgil, Segoe UI Emoji" font-size="16px" fill="#000000" text-anchor="start" style="white-space: pre;" direction="ltr" dominant-baseline="text-before-edge">to find wasm offset</text></g><g transform="translate(306 172) rotate(304.75157586997295 53.50395965576172 10)"><text x="0" y="0" font-family="Virgil, Segoe UI Emoji" font-size="16px" fill="#a61e4d" text-anchor="start" style="white-space: pre;" direction="ltr" dominant-baseline="text-before-edge">return offset</text></g><g stroke-linecap="round" transform="translate(378 252) rotate(0 7.5 7.5)"><path d="M10 2 M10 2 C11.2 3.05, 12.65 5.54, 13 6 M10 2 C10.67 2.88, 11.3 3.69, 13 6 M13 6 C14.99 9.71, 15.26 7.22, 13 10 M13 6 C14.08 9.51, 13.67 7.23, 13 10 M13 10 C12.04 10.52, 11.86 11.7, 10 13 M13 10 C12.28 10.61, 11.54 11.77, 10 13 M10 13 C9.21 13.44, 7.06 13.58, 6 13 M10 13 C9.29 14.21, 9.3 14.07, 6 13 M6 13 C5.23 12.13, 3.66 11.07, 2 10 M6 13 C4.56 11.8, 3 10.59, 2 10 M2 10 C0.34 8.71, -1.43 9.12, 2 6 M2 10 C1.47 9.95, -1.96 10.12, 2 6 M2 6 C3.49 4.92, 3.87 4.14, 6 2 M2 6 C3.32 4.35, 4.87 2.9, 6 2 M6 2 C8.62 -0.83, 8.78 -1.83, 10 2 M6 2 C8.63 -1.88, 5.95 1.86, 10 2" stroke="#000000" stroke-width="1" fill="none"></path></g><g stroke-linecap="round" transform="translate(394 115) rotate(0 8 7)"><path d="M6.83 -0.78 C8.65 -1.13, 10.92 0.99, 12.45 1.73 C13.99 2.47, 15.62 2.54, 16.06 3.67 C16.5 4.8, 15.67 7.04, 15.11 8.53 C14.56 10.02, 14.02 11.8, 12.72 12.64 C11.43 13.47, 9.18 13.62, 7.36 13.52 C5.53 13.41, 3.08 12.97, 1.78 12.03 C0.48 11.09, -0.43 9.48, -0.44 7.88 C-0.45 6.28, 0.3 3.59, 1.71 2.43 C3.13 1.28, 6.42 1.16, 8.03 0.93 C9.65 0.7, 11.25 1.12, 11.42 1.05 M11.06 -0.71 C12.85 -0.23, 14.63 3.05, 15.65 4.29 C16.68 5.54, 17.35 5.5, 17.19 6.74 C17.03 7.98, 15.95 10.35, 14.69 11.73 C13.43 13.12, 11.36 14.9, 9.63 15.03 C7.89 15.17, 5.94 13.51, 4.26 12.54 C2.59 11.56, -0.06 10.75, -0.44 9.19 C-0.82 7.64, 1.27 4.79, 1.97 3.2 C2.68 1.6, 2.58 0.17, 3.81 -0.38 C5.04 -0.92, 8.43 -0.29, 9.37 -0.07 C10.31 0.15, 9.42 0.68, 9.47 0.95" stroke="#a61e4d" stroke-width="1" fill="none"></path></g><g stroke-linecap="round" transform="translate(402 227) rotate(0 8 7)"><path d="M12.24 1.55 C13.81 1.88, 14.7 2.44, 15.36 3.79 C16.02 5.14, 16.74 8.28, 16.2 9.65 C15.66 11.01, 13.73 11.41, 12.12 12 C10.5 12.59, 8.23 13.33, 6.54 13.19 C4.84 13.05, 2.96 12.19, 1.93 11.16 C0.89 10.13, 0.32 8.57, 0.33 7.03 C0.33 5.49, 0.93 3.21, 1.94 1.94 C2.95 0.66, 4.87 -0.59, 6.39 -0.62 C7.91 -0.66, 9.99 1.45, 11.06 1.72 C12.13 2, 12.65 1.04, 12.81 1.04 M10.59 -0.07 C12.53 -0.05, 15.25 0.28, 16.03 1.57 C16.8 2.86, 15.46 6.14, 15.26 7.67 C15.05 9.2, 16 9.96, 14.8 10.77 C13.6 11.59, 9.89 12.3, 8.04 12.58 C6.19 12.85, 5.08 12.81, 3.68 12.42 C2.29 12.02, -0.05 11.83, -0.35 10.23 C-0.65 8.64, 1.05 4.45, 1.87 2.83 C2.7 1.21, 3.16 0.72, 4.59 0.52 C6.01 0.33, 9.4 1.62, 10.42 1.66 C11.44 1.7, 10.6 0.96, 10.71 0.75" stroke="#a61e4d" stroke-width="1" fill="none"></path></g><g transform="translate(363.30846944811674 190.64468395297206) rotate(316.3966158098977 138.5919189453125 30)"><text x="0" y="0" font-family="Virgil, Segoe UI Emoji" font-size="16px" fill="#000000" text-anchor="start" style="white-space: pre;" direction="ltr" dominant-baseline="text-before-edge">map the native stirng</text><text x="0" y="20" font-family="Virgil, Segoe UI Emoji" font-size="16px" fill="#000000" text-anchor="start" style="white-space: pre;" direction="ltr" dominant-baseline="text-before-edge">to the new wasm offset </text><text x="0" y="40" font-family="Virgil, Segoe UI Emoji" font-size="16px" fill="#000000" text-anchor="start" style="white-space: pre;" direction="ltr" dominant-baseline="text-before-edge">if the returned offset not existing</text></g><g stroke-linecap="round" transform="translate(381 398) rotate(0 9.5 7)"><path d="M4.28 1.6 C5.99 1.11, 10.36 0.98, 12.51 1.07 C14.66 1.16, 16.08 1.13, 17.19 2.15 C18.29 3.17, 19.43 5.69, 19.16 7.19 C18.88 8.7, 16.83 9.99, 15.53 11.19 C14.24 12.39, 13.23 14.09, 11.4 14.39 C9.57 14.7, 6.53 13.86, 4.56 13.02 C2.58 12.19, 0.04 11, -0.45 9.38 C-0.94 7.76, 0.55 4.74, 1.61 3.31 C2.67 1.87, 5.15 1.32, 5.92 0.76 C6.69 0.21, 6.16 -0.07, 6.24 -0.03 M8.46 -0.7 C10.49 -1.08, 12.74 1.09, 14.19 1.84 C15.65 2.58, 16.73 2.27, 17.18 3.76 C17.63 5.26, 17.42 8.98, 16.88 10.8 C16.33 12.61, 15.63 14.11, 13.9 14.64 C12.17 15.17, 8.63 14.54, 6.49 13.98 C4.34 13.41, 1.91 12.62, 1.05 11.25 C0.19 9.88, 0.89 7.46, 1.33 5.74 C1.76 4.03, 2.53 1.98, 3.67 0.96 C4.82 -0.06, 7.23 -0.34, 8.21 -0.37 C9.19 -0.4, 9.74 0.44, 9.56 0.77" stroke="#a61e4d" stroke-width="1" fill="none"></path></g><g transform="translate(420 392) rotate(0 87.87992858886719 10)"><text x="0" y="0" font-family="Virgil, Segoe UI Emoji" font-size="16px" fill="#000000" text-anchor="start" style="white-space: pre;" direction="ltr" dominant-baseline="text-before-edge">pass the wasm offset</text></g><g transform="translate(330 136) rotate(0 2.167999267578125 10)"><text x="0" y="0" font-family="Virgil, Segoe UI Emoji" font-size="16px" fill="#364fc7" text-anchor="start" style="white-space: pre;" direction="ltr" dominant-baseline="text-before-edge">1</text></g><g transform="translate(385 173) rotate(0 5.6959991455078125 10)"><text x="0" y="0" font-family="Virgil, Segoe UI Emoji" font-size="16px" fill="#364fc7" text-anchor="start" style="white-space: pre;" direction="ltr" dominant-baseline="text-before-edge">2</text></g><g transform="translate(436 194) rotate(0 5.447998046875 10)"><text x="0" y="0" font-family="Virgil, Segoe UI Emoji" font-size="16px" fill="#364fc7" text-anchor="start" style="white-space: pre;" direction="ltr" dominant-baseline="text-before-edge">3</text></g><g transform="translate(476 348) rotate(0 5.1199951171875 10)"><text x="0" y="0" font-family="Virgil, Segoe UI Emoji" font-size="16px" fill="#364fc7" text-anchor="start" style="white-space: pre;" direction="ltr" dominant-baseline="text-before-edge">4</text></g><g transform="translate(10 111) rotate(0 116.28793334960938 10)"><text x="0" y="0" font-family="Virgil, Segoe UI Emoji" font-size="16px" fill="#364fc7" text-anchor="start" style="white-space: pre;" direction="ltr" dominant-baseline="text-before-edge">the string in the native world</text></g><g transform="translate(700.7120666503906 105) rotate(0 120.87991333007812 20)"><text x="0" y="0" font-family="Virgil, Segoe UI Emoji" font-size="16px" fill="#364fc7" text-anchor="start" style="white-space: pre;" direction="ltr" dominant-baseline="text-before-edge">the offset of the wasm string</text><text x="0" y="20" font-family="Virgil, Segoe UI Emoji" font-size="16px" fill="#364fc7" text-anchor="start" style="white-space: pre;" direction="ltr" dominant-baseline="text-before-edge">in the wasm world</text></g><g stroke-linecap="round"><g transform="translate(418 121) rotate(0 132.3826768390834 -2.4063006035983676)"><path d="M-0.71 -1.04 C43.51 -1.68, 220.85 -3.26, 265.48 -3.77" stroke="#364fc7" stroke-width="1.5" fill="none" stroke-dasharray="8 9"></path></g><g transform="translate(418 121) rotate(0 132.3826768390834 -2.4063006035983676)"><path d="M235.65 5.91 C246.55 5.39, 254.82 1.04, 264.93 -4.88" stroke="#364fc7" stroke-width="1.5" fill="none"></path></g><g transform="translate(418 121) rotate(0 132.3826768390834 -2.4063006035983676)"><path d="M235.45 -14.61 C246.42 -8.72, 254.76 -6.66, 264.93 -4.88" stroke="#364fc7" stroke-width="1.5" fill="none"></path></g></g><mask></mask><g stroke-linecap="round"><g transform="translate(258 199) rotate(0 -24.422144805639988 -28.45191304758191)"><path d="M1.12 -0.16 C-7.26 -9.61, -41.28 -47.29, -49.97 -56.75" stroke="#364fc7" stroke-width="1.5" fill="none" stroke-dasharray="8 9"></path></g><g transform="translate(258 199) rotate(0 -24.422144805639988 -28.45191304758191)"><path d="M-23.67 -41.08 C-33.43 -47.19, -42.46 -51.8, -50.82 -57.47" stroke="#364fc7" stroke-width="1.5" fill="none"></path></g><g transform="translate(258 199) rotate(0 -24.422144805639988 -28.45191304758191)"><path d="M-38.85 -27.27 C-43.6 -38.09, -47.6 -47.26, -50.82 -57.47" stroke="#364fc7" stroke-width="1.5" fill="none"></path></g></g><mask></mask></svg>