<svg version="1.1" xmlns="http://www.w3.org/2000/svg" viewBox="0 0 971.3333129882812 279" width="971.3333129882812" height="279">
  <!-- svg-source:excalidraw -->
  
  <defs>
    <style class="style-fonts">
      @font-face {
        font-family: "Virgil";
        src: url("https://excalidraw.com/Virgil.woff2");
      }
      @font-face {
        font-family: "Cascadia";
        src: url("https://excalidraw.com/Cascadia.woff2");
      }
    </style>
  </defs>
  <rect x="0" y="0" width="971.3333129882812" height="279" fill="#ffffff"></rect><g stroke-linecap="round" transform="translate(411 18.66668701171875) rotate(0 91 124)"><path d="M32 0 M32 0 C75.72 0.66, 117 0.83, 150 0 M32 0 C56.96 -1.23, 84.26 -0.32, 150 0 M150 0 C169.51 -1.7, 181.32 10.13, 182 32 M150 0 C173.37 0.52, 181.12 10.01, 182 32 M182 32 C180.65 96.5, 183.2 157.53, 182 216 M182 32 C183.15 91.07, 183.12 150.49, 182 216 M182 216 C181.75 238.02, 170.25 248.01, 150 248 M182 216 C181.08 235.32, 171.62 247.6, 150 248 M150 248 C128.01 248.56, 100.46 246.65, 32 248 M150 248 C118.71 249.06, 87.73 248.69, 32 248 M32 248 C9.04 248.56, -1.85 237.87, 0 216 M32 248 C11.4 247.28, 1.27 237.08, 0 216 M0 216 C-0.85 161.17, -0.29 105.79, 0 32 M0 216 C-1.08 159.38, 0.29 101.25, 0 32 M0 32 C-1.31 9.25, 9.73 -0.18, 32 0 M0 32 C-0.62 11.62, 11.1 -0.92, 32 0" stroke="#000000" stroke-width="1" fill="none"></path></g><g transform="translate(436.55005645751953 23.66668701171875) rotate(0 65.44994354248047 25)"><text x="65.44994354248047" y="0" font-family="Virgil, Segoe UI Emoji" font-size="20px" fill="#000000" text-anchor="middle" style="white-space: pre;" direction="ltr" dominant-baseline="text-before-edge">the native </text><text x="65.44994354248047" y="25" font-family="Virgil, Segoe UI Emoji" font-size="20px" fill="#000000" text-anchor="middle" style="white-space: pre;" direction="ltr" dominant-baseline="text-before-edge">wrapper layer</text></g><g stroke-linecap="round" transform="translate(10 17.333343505859375) rotate(0 91 123.5)"><path d="M32 0 M32 0 C72.91 -1.77, 116.39 0.83, 150 0 M32 0 C58.73 -0.77, 86.43 -0.73, 150 0 M150 0 C173.07 -0.84, 180.23 10.25, 182 32 M150 0 C170.56 -1.22, 182.12 8.68, 182 32 M182 32 C180.31 86.42, 181.58 138.92, 182 215 M182 32 C184.06 72.93, 182.94 116.06, 182 215 M182 215 C183.61 237.66, 170.39 246.44, 150 247 M182 215 C181.62 238.31, 173.31 248.08, 150 247 M150 247 C109.69 246.19, 68.94 248.83, 32 247 M150 247 C118.61 247.02, 86.56 246.67, 32 247 M32 247 C12.54 248.04, -1.25 235.88, 0 215 M32 247 C9.02 247.63, -0.91 234.19, 0 215 M0 215 C-2.55 152.5, -1.26 86.24, 0 32 M0 215 C-0.73 158.63, -0.16 100.84, 0 32 M0 32 C-0.34 9.96, 11.34 -1.89, 32 0 M0 32 C2.06 11.43, 11.62 0.05, 32 0" stroke="#000000" stroke-width="1" fill="none"></path></g><g transform="translate(26.660057067871094 22.333343505859375) rotate(0 74.3399429321289 12.5)"><text x="74.3399429321289" y="0" font-family="Virgil, Segoe UI Emoji" font-size="20px" fill="#000000" text-anchor="middle" style="white-space: pre;" direction="ltr" dominant-baseline="text-before-edge">the wasm layer</text></g><g stroke-linecap="round" transform="translate(31 87.3333740234375) rotate(0 70.33332824707031 28.666656494140625)"><path d="M14.33 0 M14.33 0 C37.94 -0.37, 63.26 1.67, 126.33 0 M14.33 0 C46.53 -0.52, 76.96 -0.6, 126.33 0 M126.33 0 C136.07 -1.36, 142.36 5.43, 140.67 14.33 M126.33 0 C135.22 1.84, 138.85 4.74, 140.67 14.33 M140.67 14.33 C142.79 20.63, 140.56 26.77, 140.67 43 M140.67 14.33 C139.62 25.65, 139.97 36.51, 140.67 43 M140.67 43 C140.39 52.02, 135.31 55.75, 126.33 57.33 M140.67 43 C140.36 54.08, 135.43 56.05, 126.33 57.33 M126.33 57.33 C83.68 57.64, 36.81 58.76, 14.33 57.33 M126.33 57.33 C84.52 58.26, 41.06 57.87, 14.33 57.33 M14.33 57.33 C4.66 58.62, 0.36 54.37, 0 43 M14.33 57.33 C2.86 56.81, 0.21 54.6, 0 43 M0 43 C-1 33.57, 1.18 24.05, 0 14.33 M0 43 C-0.6 34.18, 0.29 24.3, 0 14.33 M0 14.33 C-1.87 6.76, 5.09 -0.06, 14.33 0 M0 14.33 C-0.95 5.63, 2.72 0.7, 14.33 0" stroke="#000000" stroke-width="1" fill="none"></path></g><g transform="translate(47.093360900878906 106.00003051757812) rotate(0 54.239967346191406 10)"><text x="54.239967346191406" y="0" font-family="Virgil, Segoe UI Emoji" font-size="16px" fill="#000000" text-anchor="middle" style="white-space: pre;" direction="ltr" dominant-baseline="text-before-edge">wasm function</text></g><g stroke-linecap="round"><g transform="translate(175.92305051363422 90.73391630043596) rotate(0 125.88330974826695 4.939212426600548)"><path d="M0.38 -0.35 C42.52 1.23, 210.77 8.27, 252.64 9.99 M-0.87 -1.57 C41.2 0.15, 210.19 9.32, 252.13 11.45" stroke="#000000" stroke-width="1" fill="none"></path></g><g transform="translate(175.92305051363422 90.73391630043596) rotate(0 125.88330974826695 4.939212426600548)"><path d="M222.86 21.59 C231.26 17.29, 239.35 13.19, 250.78 9.96 M222.71 21.19 C232.28 16.91, 242.27 14.12, 252.16 12.02" stroke="#000000" stroke-width="1" fill="none"></path></g><g transform="translate(175.92305051363422 90.73391630043596) rotate(0 125.88330974826695 4.939212426600548)"><path d="M223.94 1.1 C232.12 2.6, 239.91 4.3, 250.78 9.96 M223.79 0.7 C233.12 3.19, 242.75 7.18, 252.16 12.02" stroke="#000000" stroke-width="1" fill="none"></path></g></g><mask></mask><g stroke-linecap="round" transform="translate(429.33331298828125 86.00003051757812) rotate(0 77.5 41.5)"><path d="M20.75 0 M20.75 0 C55.92 0.31, 90.27 2.47, 134.25 0 M20.75 0 C50.68 1.1, 80.04 0.49, 134.25 0 M134.25 0 C149.68 1.69, 155.05 8.38, 155 20.75 M134.25 0 C148.34 0.46, 152.74 5.21, 155 20.75 M155 20.75 C156.5 37.41, 156.02 54.21, 155 62.25 M155 20.75 C154.38 32.58, 155.59 45.72, 155 62.25 M155 62.25 C154.48 75.48, 147.15 83.9, 134.25 83 M155 62.25 C155.85 74.67, 148.1 82.4, 134.25 83 M134.25 83 C93.04 83.97, 49.19 83.57, 20.75 83 M134.25 83 C96.29 83.09, 57.14 83.47, 20.75 83 M20.75 83 C7.14 82.94, -0.8 77.62, 0 62.25 M20.75 83 C7.28 84.93, 0.37 78.01, 0 62.25 M0 62.25 C-1.18 53.42, 0.61 44.31, 0 20.75 M0 62.25 C-0.59 52.81, 1.08 44.07, 0 20.75 M0 20.75 C0.18 8.34, 5.78 0.96, 20.75 0 M0 20.75 C1.52 5, 5.94 -2.21, 20.75 0" stroke="#000000" stroke-width="1" fill="none"></path></g><g transform="translate(459.0573425292969 117.50003051757812) rotate(0 47.775970458984375 10)"><text x="47.775970458984375" y="0" font-family="Virgil, Segoe UI Emoji" font-size="16px" fill="#000000" text-anchor="middle" style="white-space: pre;" direction="ltr" dominant-baseline="text-before-edge">get callback</text></g><g stroke-linecap="round" transform="translate(428.83331298828125 187.66668701171875) rotate(0 77.5 26)"><path d="M13 0 M13 0 C49.13 0.33, 89.94 -0.93, 142 0 M13 0 C52.39 -0.13, 92.37 1.19, 142 0 M142 0 C150.2 1.33, 153.93 4.64, 155 13 M142 0 C149.9 0.17, 155.85 2.99, 155 13 M155 13 C154.47 21.87, 154.87 31.53, 155 39 M155 13 C155.34 23.04, 154.68 32.55, 155 39 M155 39 C155.91 46.58, 150.63 53.48, 142 52 M155 39 C155.64 48.59, 149.09 54.09, 142 52 M142 52 C92.31 50.51, 44.66 51.17, 13 52 M142 52 C101.63 50.84, 60.95 52.31, 13 52 M13 52 C5.2 52.88, 1.04 49.3, 0 39 M13 52 C5.22 51.82, 0.39 48.89, 0 39 M0 39 C-1.69 29.32, 0.65 22.08, 0 13 M0 39 C0.81 30.3, -0.06 23.76, 0 13 M0 13 C-0.79 5.51, 3.31 1.15, 13 0 M0 13 C2.19 6.62, 5.51 -0.62, 13 0" stroke="#000000" stroke-width="1" fill="none"></path></g><g transform="translate(442.10936737060547 203.66668701171875) rotate(0 64.22394561767578 10)"><text x="64.22394561767578" y="0" font-family="Virgil, Segoe UI Emoji" font-size="16px" fill="#000000" text-anchor="middle" style="white-space: pre;" direction="ltr" dominant-baseline="text-before-edge">callback wrapper</text></g><g stroke-linecap="round" transform="translate(779.3333129882812 10) rotate(0 91 129.5)"><path d="M32 0 M32 0 C74.27 1.76, 112.57 1.6, 150 0 M32 0 C73.01 0.55, 113.33 0.94, 150 0 M150 0 C171.33 -0.34, 183.3 10.32, 182 32 M150 0 C172.12 0.37, 182.76 11.88, 182 32 M182 32 C181.92 103.36, 181.24 174.89, 182 227 M182 32 C182.68 97.2, 182.52 165.01, 182 227 M182 227 C183.43 247.66, 172.12 259.73, 150 259 M182 227 C180.19 248.71, 170.41 259.13, 150 259 M150 259 C124.42 258.82, 96.25 256.29, 32 259 M150 259 C116.1 258.73, 81.09 257.5, 32 259 M32 259 C12.48 258.49, -0.25 246.61, 0 227 M32 259 C10.4 260.7, 1.68 247.53, 0 227 M0 227 C0.52 168.01, -0.97 106.07, 0 32 M0 227 C-1.39 181.3, -1.68 136.2, 0 32 M0 32 C-0.53 9.07, 11.54 -0.39, 32 0 M0 32 C-0.1 8.39, 9.82 1.95, 32 0" stroke="#000000" stroke-width="1" fill="none"></path></g><g transform="translate(790.6333770751953 15) rotate(0 79.69993591308594 12.5)"><text x="79.69993591308594" y="0" font-family="Virgil, Segoe UI Emoji" font-size="20px" fill="#000000" text-anchor="middle" style="white-space: pre;" direction="ltr" dominant-baseline="text-before-edge">the native layer</text></g><g stroke-linecap="round" transform="translate(802.3333129882812 129.66668701171875) rotate(0 73 25)"><path d="M12.5 0 M12.5 0 C49.67 1.61, 86.6 -0.75, 133.5 0 M12.5 0 C38.24 0.57, 63.5 0.62, 133.5 0 M133.5 0 C142.46 -1.43, 145.08 3.09, 146 12.5 M133.5 0 C140.17 1, 147.14 4.83, 146 12.5 M146 12.5 C145.71 20.52, 147.43 27.84, 146 37.5 M146 12.5 C145.09 17.99, 146.55 23.39, 146 37.5 M146 37.5 C145.04 47.42, 142.92 50.68, 133.5 50 M146 37.5 C144.08 46.97, 141.75 48.13, 133.5 50 M133.5 50 C93.69 50.77, 56.09 49.34, 12.5 50 M133.5 50 C87.13 50.33, 41.52 49.35, 12.5 50 M12.5 50 C2.38 50.33, -1.8 44.84, 0 37.5 M12.5 50 C5.08 49.5, -1.45 44.97, 0 37.5 M0 37.5 C-0.6 31.34, 1.12 26.2, 0 12.5 M0 37.5 C0.58 27.66, -1.08 19.16, 0 12.5 M0 12.5 C1.92 3.34, 4.6 -0.55, 12.5 0 M0 12.5 C-1.92 5.61, 4.53 0.9, 12.5 0" stroke="#000000" stroke-width="1" fill="none"></path></g><g transform="translate(809.8373489379883 144.66668701171875) rotate(0 65.49596405029297 10)"><text x="65.49596405029297" y="0" font-family="Virgil, Segoe UI Emoji" font-size="16px" fill="#000000" text-anchor="middle" style="white-space: pre;" direction="ltr" dominant-baseline="text-before-edge">callback function</text></g><g stroke-linecap="round"><g transform="translate(427.5448514498197 157.48399898403363) rotate(0 -127.42325445076483 -11.28933560808835)"><path d="M0.91 0.11 C-41.69 -3.18, -212.14 -17.17, -254.88 -20.88 M-0.07 -0.87 C-42.88 -4.43, -213.01 -19.3, -255.76 -22.69" stroke="#000000" stroke-width="1" fill="none"></path></g><g transform="translate(427.5448514498197 157.48399898403363) rotate(0 -127.42325445076483 -11.28933560808835)"><path d="M-226.62 -30.32 C-236.29 -28.33, -248.83 -24.38, -255.01 -21.61 M-226.12 -29.98 C-236.79 -27, -247.41 -25.61, -256.13 -23.03" stroke="#000000" stroke-width="1" fill="none"></path></g><g transform="translate(427.5448514498197 157.48399898403363) rotate(0 -127.42325445076483 -11.28933560808835)"><path d="M-228.33 -9.87 C-237.2 -15.25, -249.13 -18.65, -255.01 -21.61 M-227.83 -9.53 C-238.11 -13.6, -248.14 -19.25, -256.13 -23.03" stroke="#000000" stroke-width="1" fill="none"></path></g></g><mask></mask><g stroke-linecap="round" transform="translate(556.3333129882812 92.66668701171875) rotate(0 5.5 7.5)"><path d="M5.33 -0.2 C6.46 -0.58, 6.85 0.53, 7.81 1.5 C8.78 2.47, 10.6 4.33, 11.1 5.64 C11.6 6.96, 11.1 7.99, 10.81 9.38 C10.52 10.77, 10.21 13, 9.36 13.97 C8.52 14.94, 7.19 15.6, 5.73 15.2 C4.26 14.8, 1.66 12.79, 0.57 11.57 C-0.53 10.34, -0.8 9.46, -0.85 7.85 C-0.9 6.24, -0.69 3.08, 0.29 1.89 C1.27 0.7, 3.94 0.84, 5.05 0.7 C6.16 0.56, 6.75 1, 6.97 1.04 M7.17 -1.4 C8.32 -1.6, 8.84 -0.13, 9.31 1.06 C9.79 2.25, 10.02 4.15, 10.04 5.75 C10.06 7.36, 9.69 9.02, 9.41 10.68 C9.13 12.33, 9.19 15.12, 8.35 15.68 C7.51 16.25, 5.44 14.88, 4.37 14.06 C3.3 13.24, 2.4 11.97, 1.91 10.76 C1.43 9.54, 1.63 8.41, 1.47 6.76 C1.31 5.11, 0.1 1.98, 0.96 0.87 C1.82 -0.24, 5.95 0.04, 6.65 0.11 C7.35 0.18, 5.39 1.25, 5.17 1.28" stroke="#364fc7" stroke-width="1" fill="none"></path></g><g stroke-linecap="round" transform="translate(392.33331298828125 136.66668701171875) rotate(0 7 7.5)"><path d="M5.35 0.83 C6.6 0.43, 8.71 0.09, 10.18 0.73 C11.65 1.37, 13.66 3.12, 14.16 4.67 C14.66 6.23, 13.97 8.52, 13.19 10.07 C12.42 11.62, 10.88 13.34, 9.52 14 C8.16 14.65, 6.3 14.23, 5.02 14 C3.74 13.78, 2.57 13.75, 1.85 12.64 C1.13 11.52, 0.8 8.85, 0.69 7.32 C0.59 5.79, 0.45 4.51, 1.22 3.47 C1.99 2.42, 4.32 1.53, 5.32 1.05 C6.31 0.56, 7.12 0.75, 7.17 0.57 M5.7 -0.64 C7.45 -0.52, 10.69 1.42, 11.84 2.62 C12.99 3.83, 12.59 5.14, 12.6 6.56 C12.61 7.99, 12.44 9.77, 11.9 11.16 C11.35 12.55, 10.37 14.28, 9.33 14.88 C8.28 15.48, 6.93 15.21, 5.61 14.76 C4.28 14.3, 2.54 13.64, 1.38 12.15 C0.22 10.67, -1.53 7.48, -1.33 5.84 C-1.12 4.19, 1.44 3.5, 2.6 2.3 C3.75 1.1, 4.9 -1.04, 5.6 -1.36 C6.3 -1.69, 6.52 0.14, 6.8 0.35" stroke="#364fc7" stroke-width="1" fill="none"></path></g><g stroke-linecap="round"><g transform="translate(105.04241809151688 154.66668701171875) rotate(0 158.94205938826968 38.77657248552039)"><path d="M0.05 0.95 C53.22 13.58, 266.07 63.19, 319.26 75.89 M-1.38 0.41 C51.69 13.18, 265.44 64.68, 318.82 77.14" stroke="#000000" stroke-width="1" fill="none"></path></g><g transform="translate(105.04241809151688 154.66668701171875) rotate(0 158.94205938826968 38.77657248552039)"><path d="M290.62 82.22 C297.73 80.97, 309.44 78.07, 318.46 76.27 M288.92 80.07 C297.88 80.4, 307.43 79, 318.19 76.87" stroke="#000000" stroke-width="1" fill="none"></path></g><g transform="translate(105.04241809151688 154.66668701171875) rotate(0 158.94205938826968 38.77657248552039)"><path d="M295.36 62.26 C300.97 67.45, 311.14 70.98, 318.46 76.27 M293.66 60.11 C301.27 66.52, 309.38 71.18, 318.19 76.87" stroke="#000000" stroke-width="1" fill="none"></path></g></g><mask></mask><g stroke-linecap="round"><g transform="translate(589.3333129882812 214.02940062269977) rotate(0 104.03938839361075 -26.5825447186956)"><path d="M-0.73 -0.5 C34.25 -9.16, 173.87 -43.96, 208.81 -52.66 M1.09 -1.81 C36.08 -10.28, 173.7 -43.24, 208.28 -51.58" stroke="#000000" stroke-width="1" fill="none"></path></g><g transform="translate(589.3333129882812 214.02940062269977) rotate(0 104.03938839361075 -26.5825447186956)"><path d="M182.43 -33.68 C187.18 -36.86, 192.36 -40.82, 207.33 -52.38 M183.56 -34.36 C193.09 -41.81, 201.9 -48.65, 208.75 -50.6" stroke="#000000" stroke-width="1" fill="none"></path></g><g transform="translate(589.3333129882812 214.02940062269977) rotate(0 104.03938839361075 -26.5825447186956)"><path d="M177.64 -53.63 C183.28 -52.59, 189.47 -52.35, 207.33 -52.38 M178.76 -54.31 C190.17 -54.05, 200.83 -53.17, 208.75 -50.6" stroke="#000000" stroke-width="1" fill="none"></path></g></g><mask></mask><g stroke-linecap="round"><g transform="translate(571.7493768162199 106.30324496207328) rotate(0 110.24132969569831 14.012757054816916)"><path d="M-1.16 -1.03 C35.88 3.99, 184.47 23.72, 221.64 29.06" stroke="#364fc7" stroke-width="1.5" fill="none" stroke-dasharray="8 9"></path></g><g transform="translate(571.7493768162199 106.30324496207328) rotate(0 110.24132969569831 14.012757054816916)"><path d="M190.6 33.82 C198.25 32.9, 208.88 30.68, 223.06 28.2" stroke="#364fc7" stroke-width="1.5" fill="none"></path></g><g transform="translate(571.7493768162199 106.30324496207328) rotate(0 110.24132969569831 14.012757054816916)"><path d="M193.39 13.49 C200.17 17.66, 210.09 20.55, 223.06 28.2" stroke="#364fc7" stroke-width="1.5" fill="none"></path></g></g><mask></mask><g stroke-linecap="round" transform="translate(200.33331298828125 160.66668701171875) rotate(0 6.5 6.5)"><path d="M6.14 -0.4 C7.7 -0.24, 10.82 1.53, 12.01 2.72 C13.19 3.9, 13.35 5.34, 13.24 6.71 C13.14 8.08, 12.23 10.02, 11.39 10.93 C10.55 11.85, 9.58 11.85, 8.2 12.18 C6.83 12.52, 4.47 13.43, 3.15 12.94 C1.84 12.46, 0.66 10.75, 0.29 9.27 C-0.07 7.79, 0.55 5.32, 0.97 4.05 C1.4 2.77, 1.62 2.25, 2.86 1.62 C4.09 0.99, 7.5 0.41, 8.38 0.26 C9.25 0.11, 8.37 0.76, 8.13 0.73 M9.25 -0.77 C10.59 -0.72, 11.68 0.02, 12.13 1.19 C12.59 2.35, 12.08 4.47, 11.96 6.21 C11.83 7.94, 12.3 10.57, 11.39 11.59 C10.48 12.62, 7.84 12.51, 6.5 12.37 C5.15 12.23, 4.24 11.63, 3.33 10.75 C2.42 9.86, 1.27 8, 1.02 7.06 C0.77 6.12, 1.41 5.97, 1.82 5.12 C2.22 4.27, 2.56 2.58, 3.45 1.95 C4.34 1.33, 6.47 1.44, 7.15 1.37 C7.82 1.29, 7.19 1.79, 7.5 1.48" stroke="#364fc7" stroke-width="1" fill="none"></path></g><g transform="translate(598.8053588867188 72.66668701171875) rotate(7.305759533310831 84.5279541015625 20)"><text x="84.5279541015625" y="0" font-family="Virgil, Segoe UI Emoji" font-size="16px" fill="#364fc7" text-anchor="middle" style="white-space: pre;" direction="ltr" dominant-baseline="text-before-edge">a function pointer</text><text x="84.5279541015625" y="20" font-family="Virgil, Segoe UI Emoji" font-size="16px" fill="#364fc7" text-anchor="middle" style="white-space: pre;" direction="ltr" dominant-baseline="text-before-edge">point to this function</text></g><g transform="translate(595.3557309659992 135.5728983041535) rotate(346.88374831940655 82.34395599365234 20)"><text x="82.34395599365234" y="0" font-family="Virgil, Segoe UI Emoji" font-size="16px" fill="#000000" text-anchor="middle" style="white-space: pre;" direction="ltr" dominant-baseline="text-before-edge">invoke</text><text x="82.34395599365234" y="20" font-family="Virgil, Segoe UI Emoji" font-size="16px" fill="#000000" text-anchor="middle" style="white-space: pre;" direction="ltr" dominant-baseline="text-before-edge">the callback function</text></g><g transform="translate(204.75736236572266 58.66668701171875) rotate(1.735704588928404 94.5759506225586 10)"><text x="94.5759506225586" y="0" font-family="Virgil, Segoe UI Emoji" font-size="16px" fill="#000000" text-anchor="middle" style="white-space: pre;" direction="ltr" dominant-baseline="text-before-edge">get the function pointer</text></g><g transform="translate(199.11736297607422 96.66668701171875) rotate(1.3322198538696373 98.21595001220703 20)"><text x="98.21595001220703" y="0" font-family="Virgil, Segoe UI Emoji" font-size="16px" fill="#000000" text-anchor="middle" style="white-space: pre;" direction="ltr" dominant-baseline="text-before-edge">return a function pointer</text><text x="98.21595001220703" y="20" font-family="Virgil, Segoe UI Emoji" font-size="16px" fill="#000000" text-anchor="middle" style="white-space: pre;" direction="ltr" dominant-baseline="text-before-edge">as a handle</text></g><g transform="translate(224.2053680419922 149.66668701171875) rotate(7.495857639729869 92.12794494628906 20)"><text x="92.12794494628906" y="0" font-family="Virgil, Segoe UI Emoji" font-size="16px" fill="#000000" text-anchor="middle" style="white-space: pre;" direction="ltr" dominant-baseline="text-before-edge">pass a function pointer</text><text x="92.12794494628906" y="20" font-family="Virgil, Segoe UI Emoji" font-size="16px" fill="#000000" text-anchor="middle" style="white-space: pre;" direction="ltr" dominant-baseline="text-before-edge">as a handle</text></g><g transform="translate(299.1653137207031 74.66668701171875) rotate(0 2.167999267578125 10)"><text x="2.167999267578125" y="0" font-family="Virgil, Segoe UI Emoji" font-size="16px" fill="#364fc7" text-anchor="middle" style="white-space: pre;" direction="ltr" dominant-baseline="text-before-edge">1</text></g><g transform="translate(352.63731384277344 127.66668701171875) rotate(0 5.6959991455078125 10)"><text x="5.6959991455078125" y="0" font-family="Virgil, Segoe UI Emoji" font-size="16px" fill="#364fc7" text-anchor="middle" style="white-space: pre;" direction="ltr" dominant-baseline="text-before-edge">2</text></g><g transform="translate(240.88531494140625 164.66668701171875) rotate(0 5.447998046875 10)"><text x="5.447998046875" y="0" font-family="Virgil, Segoe UI Emoji" font-size="16px" fill="#364fc7" text-anchor="middle" style="white-space: pre;" direction="ltr" dominant-baseline="text-before-edge">3</text></g><g transform="translate(674.2133178710938 173.66668701171875) rotate(0 5.1199951171875 10)"><text x="5.1199951171875" y="0" font-family="Virgil, Segoe UI Emoji" font-size="16px" fill="#364fc7" text-anchor="middle" style="white-space: pre;" direction="ltr" dominant-baseline="text-before-edge">4</text></g></svg>