<svg version="1.1" xmlns="http://www.w3.org/2000/svg" viewBox="0 0 970.7879333496094 449" width="970.7879333496094" height="449">
  <!-- svg-source:excalidraw -->
  
  <defs>
    <style class="style-fonts">
      @font-face {
        font-family: "Virgil";
        src: url("https://excalidraw.com/Virgil.woff2");
      }
      @font-face {
        font-family: "Cascadia";
        src: url("https://excalidraw.com/Cascadia.woff2");
      }
    </style>
  </defs>
  <rect x="0" y="0" width="970.7879333496094" height="449" fill="#ffffff"></rect><g stroke-linecap="round" transform="translate(499.2879333496094 95) rotate(0 38.5 121)"><path d="M19.25 0 M19.25 0 C33.68 1.77, 49.66 -0.77, 57.75 0 M19.25 0 C31.75 -0.42, 41.8 0.55, 57.75 0 M57.75 0 C71.86 -1.48, 75.03 6.85, 77 19.25 M57.75 0 C72.67 0.95, 78.84 6.64, 77 19.25 M77 19.25 C77.13 99.72, 75.97 178.55, 77 222.75 M77 19.25 C77.56 65.54, 78.09 111.53, 77 222.75 M77 222.75 C76.14 236.15, 70.77 243.98, 57.75 242 M77 222.75 C75.22 233.98, 72.73 240.75, 57.75 242 M57.75 242 C46.96 240.68, 39.89 240.99, 19.25 242 M57.75 242 C50.6 242.45, 42.03 241.94, 19.25 242 M19.25 242 C7.09 243.41, -1.3 236.79, 0 222.75 M19.25 242 C4.82 242.87, -0.36 233.45, 0 222.75 M0 222.75 C2.34 173.16, 2.5 125.77, 0 19.25 M0 222.75 C0.03 144.71, -1.72 67.54, 0 19.25 M0 19.25 C0.1 5.54, 6.2 -0.39, 19.25 0 M0 19.25 C0.72 4.23, 8.29 -0.11, 19.25 0" stroke="#000000" stroke-width="1" fill="none"></path></g><g transform="translate(507.3399658203125 196) rotate(0 30.447967529296875 20)"><text x="30.447967529296875" y="0" font-family="Virgil, Segoe UI Emoji" font-size="16px" fill="#000000" text-anchor="middle" style="white-space: pre;" direction="ltr" dominant-baseline="text-before-edge">Native </text><text x="30.447967529296875" y="20" font-family="Virgil, Segoe UI Emoji" font-size="16px" fill="#000000" text-anchor="middle" style="white-space: pre;" direction="ltr" dominant-baseline="text-before-edge">Wrapper</text></g><g stroke-linecap="round" transform="translate(890.7879333496094 79.5) rotate(0 35 126.5)"><path d="M17.5 0 M17.5 0 C31.33 -2.12, 45.24 -0.88, 52.5 0 M17.5 0 C24.06 -0.13, 31.31 0.3, 52.5 0 M52.5 0 C62.27 1.63, 69.9 6.38, 70 17.5 M52.5 0 C62.28 1.45, 71.7 7.21, 70 17.5 M70 17.5 C68.96 65.83, 68.9 118.53, 70 235.5 M70 17.5 C71.39 80.47, 71.2 142.03, 70 235.5 M70 235.5 C69.68 248.4, 65.22 252.31, 52.5 253 M70 235.5 C69.39 248.14, 65.95 251.55, 52.5 253 M52.5 253 C42.44 253.27, 33.12 254.85, 17.5 253 M52.5 253 C40.76 252.08, 27.31 252.05, 17.5 253 M17.5 253 C5.47 251.12, 0.18 249.02, 0 235.5 M17.5 253 C4.52 251.52, -1.7 248.79, 0 235.5 M0 235.5 C-3.18 159.79, -2.4 83.24, 0 17.5 M0 235.5 C2.06 190.44, 0.42 146.66, 0 17.5 M0 17.5 C0.11 6.92, 6.31 1.5, 17.5 0 M0 17.5 C-1.54 6.74, 5.06 -0.1, 17.5 0" stroke="#000000" stroke-width="1" fill="none"></path></g><g transform="translate(903.579948425293 186) rotate(0 22.207984924316406 20)"><text x="22.207984924316406" y="0" font-family="Virgil, Segoe UI Emoji" font-size="16px" fill="#000000" text-anchor="middle" style="white-space: pre;" direction="ltr" dominant-baseline="text-before-edge">WASM</text><text x="22.207984924316406" y="20" font-family="Virgil, Segoe UI Emoji" font-size="16px" fill="#000000" text-anchor="middle" style="white-space: pre;" direction="ltr" dominant-baseline="text-before-edge">app</text></g><g stroke-linecap="round" transform="translate(178.28793334960938 92) rotate(0 39.5 119.5)"><path d="M19.75 0 M19.75 0 C27.74 2.1, 38.42 -1.64, 59.25 0 M19.75 0 C31.18 -1.01, 41.52 0.22, 59.25 0 M59.25 0 C74.24 -1.91, 78.57 6.17, 79 19.75 M59.25 0 C70.97 0.94, 78.44 4.39, 79 19.75 M79 19.75 C79.99 71.84, 78.67 129.05, 79 219.25 M79 19.75 C77.62 88.33, 78.89 157.99, 79 219.25 M79 219.25 C79.56 234.09, 70.73 239.17, 59.25 239 M79 219.25 C79.86 231.35, 73.54 239.76, 59.25 239 M59.25 239 C51.25 240.54, 41.56 240.15, 19.75 239 M59.25 239 C45.7 238.62, 29.93 238.65, 19.75 239 M19.75 239 C6.86 238.14, 0.42 231.25, 0 219.25 M19.75 239 C7.69 240.62, 0.44 233.3, 0 219.25 M0 219.25 C1.89 151, -0.26 82.38, 0 19.75 M0 219.25 C0.97 161.56, 0.81 102.61, 0 19.75 M0 19.75 C-0.23 7.57, 5.24 -0.5, 19.75 0 M0 19.75 C-1.96 5.53, 5.28 -1.31, 19.75 0" stroke="#000000" stroke-width="1" fill="none"></path></g><g transform="translate(184.93995666503906 191.5) rotate(0 32.84797668457031 20)"><text x="32.84797668457031" y="0" font-family="Virgil, Segoe UI Emoji" font-size="16px" fill="#000000" text-anchor="middle" style="white-space: pre;" direction="ltr" dominant-baseline="text-before-edge">Mapping </text><text x="32.84797668457031" y="20" font-family="Virgil, Segoe UI Emoji" font-size="16px" fill="#000000" text-anchor="middle" style="white-space: pre;" direction="ltr" dominant-baseline="text-before-edge">layer</text></g><g stroke-linecap="round"><g transform="translate(489.31886118466093 117.91717124809622) rotate(0 -112.6534834005396 2.6141631328756887)"><path d="M0.91 1.16 C-36.88 1.55, -188.69 2.65, -226.21 3.25 M-0.08 0.72 C-37.54 1.2, -186.61 4.14, -224.01 4.51" stroke="#000000" stroke-width="1" fill="none"></path></g><g transform="translate(489.31886118466093 117.91717124809622) rotate(0 -112.6534834005396 2.6141631328756887)"><path d="M-194.05 -7.79 C-206.45 -0.61, -213.57 0.67, -224.81 4.74 M-196.76 -5.24 C-205.21 -1.81, -216.29 1.24, -223.15 4.63" stroke="#000000" stroke-width="1" fill="none"></path></g><g transform="translate(489.31886118466093 117.91717124809622) rotate(0 -112.6534834005396 2.6141631328756887)"><path d="M-193.73 12.73 C-206.39 12.85, -213.63 7.06, -224.81 4.74 M-196.45 15.28 C-204.81 11.34, -216 7.03, -223.15 4.63" stroke="#000000" stroke-width="1" fill="none"></path></g></g><mask></mask><g stroke-linecap="round"><g transform="translate(263.3330816038116 192.7856727192945) rotate(0 114.96912317282616 -4.018223788697696)"><path d="M0.7 0.13 C38.79 -1.07, 189.95 -5.28, 227.96 -6.2 M-0.4 -0.85 C38.15 -2.51, 192.26 -7.12, 230.33 -8.17" stroke="#a61e4d" stroke-width="1" fill="none"></path></g><g transform="translate(263.3330816038116 192.7856727192945) rotate(0 114.96912317282616 -4.018223788697696)"><path d="M202.67 1.85 C209.8 0.22, 218.08 -2.23, 228.61 -6.67 M201.77 3.19 C213.52 -1.49, 224.08 -6.47, 230.69 -7.5" stroke="#a61e4d" stroke-width="1" fill="none"></path></g><g transform="translate(263.3330816038116 192.7856727192945) rotate(0 114.96912317282616 -4.018223788697696)"><path d="M202.07 -18.67 C209.52 -15.19, 217.94 -12.55, 228.61 -6.67 M201.17 -17.32 C213.31 -14.02, 224.11 -11, 230.69 -7.5" stroke="#a61e4d" stroke-width="1" fill="none"></path></g></g><mask></mask><g stroke-linecap="round"><g transform="translate(585.2879333496095 187.24264476728388) rotate(0 149.01020206437545 3.069673008304875)"><path d="M0.74 0.67 C50.24 1.69, 246.65 5.41, 296.23 6.16 M-0.33 -0.02 C49.59 0.69, 248.66 3.56, 298.35 4.66" stroke="#000000" stroke-width="1" fill="none"></path></g><g transform="translate(585.2879333496095 187.24264476728388) rotate(0 149.01020206437545 3.069673008304875)"><path d="M271.11 12.56 C278.58 13.34, 283.51 11.61, 299.09 5.13 M269.14 14.79 C275.95 11.45, 283.79 9.59, 297.38 5.52" stroke="#000000" stroke-width="1" fill="none"></path></g><g transform="translate(585.2879333496095 187.24264476728388) rotate(0 149.01020206437545 3.069673008304875)"><path d="M271.47 -7.96 C278.87 -2.38, 283.71 0.69, 299.09 5.13 M269.5 -5.73 C276.43 -4.29, 284.19 -1.36, 297.38 5.52" stroke="#000000" stroke-width="1" fill="none"></path></g></g><mask></mask><g stroke-linecap="round" transform="translate(456.2879333496094 87) rotate(0 9.5 10.5)"><path d="M12.5 2.75 M12.5 2.75 C13.54 3.47, 14.49 5.73, 16.5 8.25 M12.5 2.75 C13.54 4.78, 15.2 6.66, 16.5 8.25 M16.5 8.25 C20.48 11.03, 20.07 9.34, 16.5 13.75 M16.5 8.25 C17.73 11.89, 19.95 10.65, 16.5 13.75 M16.5 13.75 C15.99 14.48, 14.06 16.06, 12.5 18.25 M16.5 13.75 C15.33 15.22, 14.1 16.54, 12.5 18.25 M12.5 18.25 C9.21 21.42, 11.39 19.55, 7.5 18.25 M12.5 18.25 C9.57 18.89, 8 21.06, 7.5 18.25 M7.5 18.25 C5.66 17.31, 4.21 15.39, 2.5 13.75 M7.5 18.25 C6.37 17.49, 5.59 16.11, 2.5 13.75 M2.5 13.75 C-0.44 10.2, 1.57 9.24, 2.5 8.25 M2.5 13.75 C-1.81 12.63, 1.54 10.58, 2.5 8.25 M2.5 8.25 C3.95 6.46, 6.08 4.55, 7.5 2.75 M2.5 8.25 C3.87 6.46, 5.27 4.88, 7.5 2.75 M7.5 2.75 C10.27 1.16, 8.82 -1.87, 12.5 2.75 M7.5 2.75 C10.16 1.25, 8.45 0.77, 12.5 2.75" stroke="#000000" stroke-width="1" fill="none"></path></g><g transform="translate(287.2250783611162 57.93202853847106) rotate(357.7385192204018 85.00794982910156 20)"><text x="0" y="0" font-family="Virgil, Segoe UI Emoji" font-size="16px" fill="#000000" text-anchor="start" style="white-space: pre;" direction="ltr" dominant-baseline="text-before-edge">pass a native string </text><text x="0" y="20" font-family="Virgil, Segoe UI Emoji" font-size="16px" fill="#000000" text-anchor="start" style="white-space: pre;" direction="ltr" dominant-baseline="text-before-edge">to find wasm offset</text></g><g transform="translate(325.61906941933853 151.1676150178523) rotate(1.746612958718395 66.68795776367188 10)"><text x="0" y="0" font-family="Virgil, Segoe UI Emoji" font-size="16px" fill="#a61e4d" text-anchor="start" style="white-space: pre;" direction="ltr" dominant-baseline="text-before-edge">return externRef</text></g><g stroke-linecap="round" transform="translate(283.2879333496094 152) rotate(0 8 7)"><path d="M6.83 -0.78 C8.65 -1.13, 10.92 0.99, 12.45 1.73 C13.99 2.47, 15.62 2.54, 16.06 3.67 C16.5 4.8, 15.67 7.04, 15.11 8.53 C14.56 10.02, 14.02 11.8, 12.72 12.64 C11.43 13.47, 9.18 13.62, 7.36 13.52 C5.53 13.41, 3.08 12.97, 1.78 12.03 C0.48 11.09, -0.43 9.48, -0.44 7.88 C-0.45 6.28, 0.3 3.59, 1.71 2.43 C3.13 1.28, 6.42 1.16, 8.03 0.93 C9.65 0.7, 11.25 1.12, 11.42 1.05 M11.06 -0.71 C12.85 -0.23, 14.63 3.05, 15.65 4.29 C16.68 5.54, 17.35 5.5, 17.19 6.74 C17.03 7.98, 15.95 10.35, 14.69 11.73 C13.43 13.12, 11.36 14.9, 9.63 15.03 C7.89 15.17, 5.94 13.51, 4.26 12.54 C2.59 11.56, -0.06 10.75, -0.44 9.19 C-0.82 7.64, 1.27 4.79, 1.97 3.2 C2.68 1.6, 2.58 0.17, 3.81 -0.38 C5.04 -0.92, 8.43 -0.29, 9.37 -0.07 C10.31 0.15, 9.42 0.68, 9.47 0.95" stroke="#a61e4d" stroke-width="1" fill="none"></path></g><g stroke-linecap="round" transform="translate(651.2879333496094 160) rotate(0 9.5 7)"><path d="M4.28 1.6 C5.99 1.11, 10.36 0.98, 12.51 1.07 C14.66 1.16, 16.08 1.13, 17.19 2.15 C18.29 3.17, 19.43 5.69, 19.16 7.19 C18.88 8.7, 16.83 9.99, 15.53 11.19 C14.24 12.39, 13.23 14.09, 11.4 14.39 C9.57 14.7, 6.53 13.86, 4.56 13.02 C2.58 12.19, 0.04 11, -0.45 9.38 C-0.94 7.76, 0.55 4.74, 1.61 3.31 C2.67 1.87, 5.15 1.32, 5.92 0.76 C6.69 0.21, 6.16 -0.07, 6.24 -0.03 M8.46 -0.7 C10.49 -1.08, 12.74 1.09, 14.19 1.84 C15.65 2.58, 16.73 2.27, 17.18 3.76 C17.63 5.26, 17.42 8.98, 16.88 10.8 C16.33 12.61, 15.63 14.11, 13.9 14.64 C12.17 15.17, 8.63 14.54, 6.49 13.98 C4.34 13.41, 1.91 12.62, 1.05 11.25 C0.19 9.88, 0.89 7.46, 1.33 5.74 C1.76 4.03, 2.53 1.98, 3.67 0.96 C4.82 -0.06, 7.23 -0.34, 8.21 -0.37 C9.19 -0.4, 9.74 0.44, 9.56 0.77" stroke="#a61e4d" stroke-width="1" fill="none"></path></g><g transform="translate(690.2879333496094 154) rotate(0 60.599952697753906 10)"><text x="0" y="0" font-family="Virgil, Segoe UI Emoji" font-size="16px" fill="#000000" text-anchor="start" style="white-space: pre;" direction="ltr" dominant-baseline="text-before-edge">pass externRef</text></g><g transform="translate(380.2879333496094 102) rotate(0 2.167999267578125 10)"><text x="0" y="0" font-family="Virgil, Segoe UI Emoji" font-size="16px" fill="#364fc7" text-anchor="start" style="white-space: pre;" direction="ltr" dominant-baseline="text-before-edge">1</text></g><g transform="translate(366.2879333496094 166) rotate(0 5.6959991455078125 10)"><text x="0" y="0" font-family="Virgil, Segoe UI Emoji" font-size="16px" fill="#364fc7" text-anchor="start" style="white-space: pre;" direction="ltr" dominant-baseline="text-before-edge">2</text></g><g transform="translate(723.2879333496094 170) rotate(0 5.447998046875 10)"><text x="0" y="0" font-family="Virgil, Segoe UI Emoji" font-size="16px" fill="#364fc7" text-anchor="start" style="white-space: pre;" direction="ltr" dominant-baseline="text-before-edge">3</text></g><g transform="translate(377.2879333496094 10) rotate(0 148.7199249267578 10)"><text x="0" y="0" font-family="Virgil, Segoe UI Emoji" font-size="16px" fill="#364fc7" text-anchor="start" style="white-space: pre;" direction="ltr" dominant-baseline="text-before-edge">the object pointer in the native world</text></g><g transform="translate(10 29) rotate(0 138.3519287109375 10)"><text x="0" y="0" font-family="Virgil, Segoe UI Emoji" font-size="16px" fill="#364fc7" text-anchor="start" style="white-space: pre;" direction="ltr" dominant-baseline="text-before-edge">the externRef of the native string</text></g><g stroke-linecap="round"><g transform="translate(285.75847470333207 152.6879445414438) rotate(0 -57.54458036847663 -47.750272874320274)"><path d="M-0.71 -1.04 C-19.8 -16.8, -95.69 -78.84, -114.37 -94.46" stroke="#364fc7" stroke-width="1.5" fill="none" stroke-dasharray="8 9"></path></g><g transform="translate(285.75847470333207 152.6879445414438) rotate(0 -57.54458036847663 -47.750272874320274)"><path d="M-87.84 -85.29 C-94.55 -85.98, -103.87 -90.17, -114.92 -95.57" stroke="#364fc7" stroke-width="1.5" fill="none"></path></g><g transform="translate(285.75847470333207 152.6879445414438) rotate(0 -57.54458036847663 -47.750272874320274)"><path d="M-100.91 -69.46 C-103.54 -75.02, -108.79 -84.15, -114.92 -95.57" stroke="#364fc7" stroke-width="1.5" fill="none"></path></g></g><mask></mask><g stroke-linecap="round"><g transform="translate(467.94263346494046 95.48446982939942) rotate(0 49.697916302768874 -27.19414796228162)"><path d="M1.12 -0.16 C17.44 -9.19, 82.26 -45.2, 98.27 -54.23" stroke="#364fc7" stroke-width="1.5" fill="none" stroke-dasharray="8 9"></path></g><g transform="translate(467.94263346494046 95.48446982939942) rotate(0 49.697916302768874 -27.19414796228162)"><path d="M78.41 -29.8 C83.91 -39.24, 90.14 -46.74, 97.42 -54.96" stroke="#364fc7" stroke-width="1.5" fill="none"></path></g><g transform="translate(467.94263346494046 95.48446982939942) rotate(0 49.697916302768874 -27.19414796228162)"><path d="M68.4 -47.71 C77.2 -51.33, 86.75 -52.91, 97.42 -54.96" stroke="#364fc7" stroke-width="1.5" fill="none"></path></g></g><mask></mask><g stroke-linecap="round"><g transform="translate(883.2879333496094 273) rotate(0 -147.22436960019638 -2.2969166867435433)"><path d="M-0.53 0.55 C-49.71 -0.33, -246.61 -4.23, -295.84 -5.15 M1.39 -0.2 C-47.34 -0.99, -244.42 -3.56, -293.56 -4.21" stroke="#a61e4d" stroke-width="1" fill="none"></path></g><g transform="translate(883.2879333496094 273) rotate(0 -147.22436960019638 -2.2969166867435433)"><path d="M-264.32 -15.49 C-273.77 -13.4, -280.04 -10.16, -293.33 -3.57 M-266.05 -13.72 C-273.03 -10.76, -282.35 -8.77, -293.97 -3.21" stroke="#a61e4d" stroke-width="1" fill="none"></path></g><g transform="translate(883.2879333496094 273) rotate(0 -147.22436960019638 -2.2969166867435433)"><path d="M-264.59 5.03 C-274 2.32, -280.21 0.75, -293.33 -3.57 M-266.32 6.8 C-273.16 3.77, -282.4 -0.23, -293.97 -3.21" stroke="#a61e4d" stroke-width="1" fill="none"></path></g></g><mask></mask><g stroke-linecap="round" transform="translate(808.2879333496094 254) rotate(0 5 5.5)"><path d="M2.52 1.01 C3.54 0.61, 5.28 0.06, 6.23 0.42 C7.18 0.77, 7.54 2.14, 8.22 3.14 C8.9 4.13, 10.24 5.16, 10.31 6.36 C10.37 7.56, 9.49 9.58, 8.62 10.31 C7.75 11.04, 6.11 10.89, 5.07 10.72 C4.03 10.54, 3.11 9.79, 2.36 9.26 C1.61 8.74, 1.01 8.67, 0.6 7.57 C0.19 6.48, -0.71 4.01, -0.11 2.71 C0.49 1.41, 3.44 0.16, 4.21 -0.2 C4.99 -0.56, 4.5 0.25, 4.52 0.56 M2.42 -0.2 C3.47 -0.84, 5.79 0.03, 6.83 0.48 C7.87 0.92, 8.21 1.26, 8.68 2.48 C9.15 3.69, 9.63 6.78, 9.66 7.78 C9.69 8.77, 9.56 8, 8.86 8.44 C8.16 8.88, 6.8 10.28, 5.45 10.39 C4.1 10.5, 1.65 9.7, 0.77 9.1 C-0.11 8.5, 0.33 7.96, 0.19 6.8 C0.05 5.64, -0.75 3.2, -0.07 2.15 C0.6 1.1, 3.61 0.85, 4.23 0.5 C4.85 0.15, 3.64 0.09, 3.65 0.04" stroke="#a61e4d" stroke-width="1" fill="none"></path></g><g transform="translate(661.2879333496094 191) rotate(0 65.07996368408203 10)"><text x="0" y="0" font-family="Virgil, Segoe UI Emoji" font-size="16px" fill="#000000" text-anchor="start" style="white-space: pre;" direction="ltr" dominant-baseline="text-before-edge">native call wasm</text></g><g transform="translate(674.2079696655273 276) rotate(0 65.07996368408203 10)"><text x="0" y="0" font-family="Virgil, Segoe UI Emoji" font-size="16px" fill="#000000" text-anchor="start" style="white-space: pre;" direction="ltr" dominant-baseline="text-before-edge">wasm call native</text></g><g transform="translate(676.6879806518555 236) rotate(0 60.599952697753906 10)"><text x="0" y="0" font-family="Virgil, Segoe UI Emoji" font-size="16px" fill="#000000" text-anchor="start" style="white-space: pre;" direction="ltr" dominant-baseline="text-before-edge">pass externRef</text></g><g stroke-linecap="round"><g transform="translate(486.2879333496094 254) rotate(0 -112.21656608306337 -0.4039829335111449)"><path d="M-0.11 -0.39 C-37.45 -0.16, -186.16 0.68, -223.24 0.83 M-1.63 -1.63 C-39.21 -1.7, -187.39 -0.87, -224.32 -0.86" stroke="#000000" stroke-width="1" fill="none"></path></g><g transform="translate(486.2879333496094 254) rotate(0 -112.21656608306337 -0.4039829335111449)"><path d="M-196.81 -11.62 C-205.06 -6.84, -215.8 -2.75, -226 -0.88 M-196.64 -10.39 C-207.03 -7.76, -216.61 -3.22, -225.2 0.04" stroke="#000000" stroke-width="1" fill="none"></path></g><g transform="translate(486.2879333496094 254) rotate(0 -112.21656608306337 -0.4039829335111449)"><path d="M-196.74 8.91 C-204.93 6.22, -215.69 2.84, -226 -0.88 M-196.57 10.13 C-207.19 5.04, -216.78 1.84, -225.2 0.04" stroke="#000000" stroke-width="1" fill="none"></path></g></g><mask></mask><g stroke-linecap="round"><g transform="translate(266.2879333496094 327) rotate(0 109.84718817546965 -0.47035908439659124)"><path d="M-0.29 0.23 C36.51 0.11, 183.13 -1.02, 219.98 -1.19 M1.76 -0.69 C38.48 -0.59, 182.57 0.03, 219.02 0.25" stroke="#a61e4d" stroke-width="1" fill="none"></path></g><g transform="translate(266.2879333496094 327) rotate(0 109.84718817546965 -0.47035908439659124)"><path d="M191.16 10.34 C197.06 9.46, 204.25 3.92, 217.61 0.74 M190.87 9.52 C198.11 7.37, 204.95 4.34, 219.02 -0.6" stroke="#a61e4d" stroke-width="1" fill="none"></path></g><g transform="translate(266.2879333496094 327) rotate(0 109.84718817546965 -0.47035908439659124)"><path d="M191.27 -10.19 C197.06 -6.3, 204.23 -7.08, 217.61 0.74 M190.97 -11.01 C198.26 -7.7, 205.07 -5.27, 219.02 -0.6" stroke="#a61e4d" stroke-width="1" fill="none"></path></g></g><mask></mask><g transform="translate(281.26678045432345 196.33107390251047) rotate(357.7385192204018 101.95993804931639 20.00000000000003)"><text x="0" y="0" font-family="Virgil, Segoe UI Emoji" font-size="16px" fill="#000000" text-anchor="start" style="white-space: pre;" direction="ltr" dominant-baseline="text-before-edge">pass the externRef </text><text x="0" y="20" font-family="Virgil, Segoe UI Emoji" font-size="16px" fill="#000000" text-anchor="start" style="white-space: pre;" direction="ltr" dominant-baseline="text-before-edge">to find the object pointer</text></g><g stroke-linecap="round" transform="translate(461.7879333496094 232) rotate(0 9.5 7)"><path d="M7.98 -0.43 C9.89 -0.62, 13.08 0.65, 14.98 1.52 C16.87 2.39, 18.93 3.45, 19.34 4.79 C19.75 6.12, 18.15 8.08, 17.41 9.52 C16.68 10.96, 16.39 12.65, 14.91 13.4 C13.43 14.15, 10.56 14.42, 8.54 14.01 C6.52 13.6, 4.18 12.06, 2.77 10.92 C1.37 9.78, 0.31 8.66, 0.1 7.17 C-0.1 5.69, 0.14 3.34, 1.54 2.01 C2.94 0.69, 7.31 -0.58, 8.5 -0.8 C9.68 -1.02, 8.57 0.34, 8.65 0.69 M9.11 1.2 C11.03 0.97, 14.83 1.49, 16.36 2.02 C17.88 2.55, 18.13 2.86, 18.25 4.38 C18.37 5.9, 17.98 9.48, 17.06 11.16 C16.14 12.83, 14.31 13.94, 12.73 14.43 C11.15 14.92, 9.5 14.49, 7.61 14.08 C5.71 13.68, 2.54 13.42, 1.35 12.01 C0.17 10.6, 0 7.34, 0.48 5.65 C0.95 3.96, 2.76 2.74, 4.21 1.88 C5.66 1.02, 8.39 0.74, 9.19 0.49 C9.98 0.25, 8.91 0.33, 8.99 0.42" stroke="#a61e4d" stroke-width="1" fill="none"></path></g><g stroke-linecap="round" transform="translate(268.7879333496094 297.5) rotate(0 9.5 10.5)"><path d="M12.5 2.75 M12.5 2.75 C13.08 4.64, 14.12 4.99, 16.5 8.25 M12.5 2.75 C13.9 4.53, 14.92 6.36, 16.5 8.25 M16.5 8.25 C17.1 12.85, 20.71 11.3, 16.5 13.75 M16.5 8.25 C18.83 10.9, 20.78 12.9, 16.5 13.75 M16.5 13.75 C15.71 15.15, 13.43 16.97, 12.5 18.25 M16.5 13.75 C15.89 14.85, 15.08 15.58, 12.5 18.25 M12.5 18.25 C9.46 22.1, 11.93 22.91, 7.5 18.25 M12.5 18.25 C9.43 22.79, 8.19 20.84, 7.5 18.25 M7.5 18.25 C6.17 17.09, 4.76 15.61, 2.5 13.75 M7.5 18.25 C6.29 16.69, 4.38 15.55, 2.5 13.75 M2.5 13.75 C1.85 9.72, 1.02 9.23, 2.5 8.25 M2.5 13.75 C1.63 10.28, 0.16 12.37, 2.5 8.25 M2.5 8.25 C4.55 6.57, 6.19 4.83, 7.5 2.75 M2.5 8.25 C3.95 7.05, 4.72 5.52, 7.5 2.75 M7.5 2.75 C10 1.64, 10.36 1.07, 12.5 2.75 M7.5 2.75 C9.47 -2.11, 8.98 -0.5, 12.5 2.75" stroke="#000000" stroke-width="1" fill="none"></path></g><g transform="translate(294.2879333496094 291) rotate(0 99.13594055175781 10)"><text x="0" y="0" font-family="Virgil, Segoe UI Emoji" font-size="16px" fill="#000000" text-anchor="start" style="white-space: pre;" direction="ltr" dominant-baseline="text-before-edge">return the object pointer</text></g><g transform="translate(739.2879333496094 251) rotate(0 5.1199951171875 10)"><text x="0" y="0" font-family="Virgil, Segoe UI Emoji" font-size="16px" fill="#364fc7" text-anchor="start" style="white-space: pre;" direction="ltr" dominant-baseline="text-before-edge">4</text></g><g transform="translate(373.2879333496094 232) rotate(0 4.943992614746094 10)"><text x="0" y="0" font-family="Virgil, Segoe UI Emoji" font-size="16px" fill="#364fc7" text-anchor="start" style="white-space: pre;" direction="ltr" dominant-baseline="text-before-edge">5</text></g><g transform="translate(380.2879333496094 306) rotate(0 5.1199951171875 10)"><text x="0" y="0" font-family="Virgil, Segoe UI Emoji" font-size="16px" fill="#364fc7" text-anchor="start" style="white-space: pre;" direction="ltr" dominant-baseline="text-before-edge">6</text></g><g stroke-linecap="round"><g transform="translate(511.2879333496094 343) rotate(0 28.1119033292037 35.855060864548705)"><path d="M0.83 0.13 C-0.44 8.66, -12.24 38.49, -7.68 50.64 C-3.12 62.8, 16.3 72.92, 28.21 73.05 C40.12 73.18, 59.1 63.79, 63.78 51.39 C68.46 38.99, 57.66 7.36, 56.27 -1.34 M-0.2 -0.85 C-1.07 7.38, -10.47 36.84, -5.33 48.86 C-0.18 60.87, 19.14 70.62, 30.68 71.26 C42.22 71.9, 59.87 64.68, 63.91 52.7 C67.96 40.72, 56.16 8.39, 54.95 -0.6" stroke="#000000" stroke-width="1" fill="none"></path></g><g transform="translate(511.2879333496094 343) rotate(0 28.1119033292037 35.855060864548705)"><path d="M70.05 20.54 C66.61 13.87, 62.89 8.24, 55.6 -0.15 M69.99 21.79 C63.95 14.8, 58.4 5.91, 54.72 0.21" stroke="#000000" stroke-width="1" fill="none"></path></g><g transform="translate(511.2879333496094 343) rotate(0 28.1119033292037 35.855060864548705)"><path d="M52.24 24.9 C54.09 16.82, 55.63 9.9, 55.6 -0.15 M52.18 26.15 C52.48 17.44, 53.25 7, 54.72 0.21" stroke="#000000" stroke-width="1" fill="none"></path></g></g><mask></mask><g transform="translate(439.2879333496094 419) rotate(0 125.8319320678711 10)"><text x="0" y="0" font-family="Virgil, Segoe UI Emoji" font-size="16px" fill="#000000" text-anchor="start" style="white-space: pre;" direction="ltr" dominant-baseline="text-before-edge">Operate on the returned object</text></g><g transform="translate(537.2879333496094 392) rotate(0 4.303993225097656 10)"><text x="0" y="0" font-family="Virgil, Segoe UI Emoji" font-size="16px" fill="#364fc7" text-anchor="start" style="white-space: pre;" direction="ltr" dominant-baseline="text-before-edge">7</text></g></svg>