<svg version="1.1" xmlns="http://www.w3.org/2000/svg" viewBox="0 0 1433 879" width="1433" height="879">
  <!-- svg-source:excalidraw -->
  
  <defs>
    <style class="style-fonts">
      @font-face {
        font-family: "Virgil";
        src: url("https://excalidraw.com/Virgil.woff2");
      }
      @font-face {
        font-family: "Cascadia";
        src: url("https://excalidraw.com/Cascadia.woff2");
      }
    </style>
  </defs>
  <rect x="0" y="0" width="1433" height="879" fill="#ffffff"></rect><g stroke-linecap="round" transform="translate(891.6666870117188 443.6666717529297) rotate(0 76.5 93)"><path d="M32 0 M32 0 C60.66 -0.01, 92.91 -2.13, 121 0 M32 0 C62.23 -1.23, 91.88 -0.12, 121 0 M121 0 C143.41 1.66, 152.98 12.52, 153 32 M121 0 C143.13 -1.1, 154.32 12.37, 153 32 M153 32 C151.29 64.09, 151.74 93.19, 153 154 M153 32 C152.84 63.45, 151.98 95.65, 153 154 M153 154 C153.57 175.95, 144.32 184.14, 121 186 M153 154 C153.29 175.26, 141.65 183.94, 121 186 M121 186 C91.71 185.56, 65.46 185.32, 32 186 M121 186 C102.25 185.04, 81.24 185.26, 32 186 M32 186 C12.28 185.72, -1.31 173.61, 0 154 M32 186 C9.35 188.15, 2.14 174.24, 0 154 M0 154 C-0.43 111.67, 0.12 67.13, 0 32 M0 154 C-1.67 117.42, -1.46 80.04, 0 32 M0 32 C0.85 10.18, 9.97 -0.18, 32 0 M0 32 C0.17 10.13, 11.23 -0.09, 32 0" stroke="#000000" stroke-width="1" fill="none"></path></g><g transform="translate(898.6147308349609 448.6666717529297) rotate(0 69.55195617675781 10)"><text x="69.55195617675781" y="0" font-family="Virgil, Segoe UI Emoji" font-size="16px" fill="#000000" text-anchor="middle" style="white-space: pre;" direction="ltr" dominant-baseline="text-before-edge">The mapping layer</text></g><g stroke-linecap="round" transform="translate(125 225) rotate(0 83 194.5)"><path d="M32 0 M32 0 C65.22 0, 98.44 0, 134 0 M32 0 C62.85 0, 93.71 0, 134 0 M134 0 C155.33 0, 166 10.67, 166 32 M134 0 C155.33 0, 166 10.67, 166 32 M166 32 C166 99.05, 166 166.1, 166 357 M166 32 C166 121.8, 166 211.6, 166 357 M166 357 C166 378.33, 155.33 389, 134 389 M166 357 C166 378.33, 155.33 389, 134 389 M134 389 C108.61 389, 83.21 389, 32 389 M134 389 C110.98 389, 87.96 389, 32 389 M32 389 C10.67 389, 0 378.33, 0 357 M32 389 C10.67 389, 0 378.33, 0 357 M0 357 C0 277.4, 0 197.8, 0 32 M0 357 C0 245.28, 0 133.56, 0 32 M0 32 C0 10.67, 10.67 0, 32 0 M0 32 C0 10.67, 10.67 0, 32 0" stroke="#000000" stroke-width="1" fill="none"></path></g><g transform="translate(142.3280258178711 230) rotate(0 65.6719741821289 10)"><text x="65.6719741821289" y="0" font-family="Virgil, Segoe UI Emoji" font-size="16px" fill="#000000" text-anchor="middle" style="white-space: pre;" direction="ltr" dominant-baseline="text-before-edge">The native layer</text></g><g stroke-linecap="round" transform="translate(950.5 218) rotate(0 77.5 88.5)"><path d="M32 0 M32 0 C62.1 0, 92.2 0, 123 0 M32 0 C59.74 0, 87.48 0, 123 0 M123 0 C144.33 0, 155 10.67, 155 32 M123 0 C144.33 0, 155 10.67, 155 32 M155 32 C155 67.26, 155 102.52, 155 145 M155 32 C155 73.79, 155 115.57, 155 145 M155 145 C155 166.33, 144.33 177, 123 177 M155 145 C155 166.33, 144.33 177, 123 177 M123 177 C100.99 177, 78.98 177, 32 177 M123 177 C100.57 177, 78.14 177, 32 177 M32 177 C10.67 177, 0 166.33, 0 145 M32 177 C10.67 177, 0 166.33, 0 145 M0 145 C0 118.54, 0 92.09, 0 32 M0 145 C0 111.52, 0 78.04, 0 32 M0 32 C0 10.67, 10.67 0, 32 0 M0 32 C0 10.67, 10.67 0, 32 0" stroke="#000000" stroke-width="1" fill="none"></path></g><g transform="translate(966.6160354614258 223) rotate(0 61.38396453857422 10)"><text x="61.38396453857422" y="0" font-family="Virgil, Segoe UI Emoji" font-size="16px" fill="#000000" text-anchor="middle" style="white-space: pre;" direction="ltr" dominant-baseline="text-before-edge">The wasm layer</text></g><g stroke-linecap="round" transform="translate(490.5 221) rotate(0 112 198)"><path d="M32 0 M32 0 C75.82 0, 119.64 0, 192 0 M32 0 C65.93 0, 99.85 0, 192 0 M192 0 C213.33 0, 224 10.67, 224 32 M192 0 C213.33 0, 224 10.67, 224 32 M224 32 C224 99.15, 224 166.3, 224 364 M224 32 C224 100.35, 224 168.69, 224 364 M224 364 C224 385.33, 213.33 396, 192 396 M224 364 C224 385.33, 213.33 396, 192 396 M192 396 C151.75 396, 111.5 396, 32 396 M192 396 C136.69 396, 81.37 396, 32 396 M32 396 C10.67 396, 0 385.33, 0 364 M32 396 C10.67 396, 0 385.33, 0 364 M0 364 C0 277.65, 0 191.29, 0 32 M0 364 C0 277.56, 0 191.11, 0 32 M0 32 C0 10.67, 10.67 0, 32 0 M0 32 C0 10.67, 10.67 0, 32 0" stroke="#000000" stroke-width="1" fill="none"></path></g><g transform="translate(503.47605895996094 226) rotate(0 99.02394104003906 10)"><text x="99.02394104003906" y="0" font-family="Virgil, Segoe UI Emoji" font-size="16px" fill="#000000" text-anchor="middle" style="white-space: pre;" direction="ltr" dominant-baseline="text-before-edge">The native wrapper layer</text></g><g stroke-linecap="round" transform="translate(506 269) rotate(0 91.5 45)"><path d="M22.5 0 M22.5 0 C55.68 0, 88.85 0, 160.5 0 M22.5 0 C62.04 0, 101.58 0, 160.5 0 M160.5 0 C175.5 0, 183 7.5, 183 22.5 M160.5 0 C175.5 0, 183 7.5, 183 22.5 M183 22.5 C183 32.27, 183 42.03, 183 67.5 M183 22.5 C183 38.48, 183 54.47, 183 67.5 M183 67.5 C183 82.5, 175.5 90, 160.5 90 M183 67.5 C183 82.5, 175.5 90, 160.5 90 M160.5 90 C106.4 90, 52.31 90, 22.5 90 M160.5 90 C115.68 90, 70.86 90, 22.5 90 M22.5 90 C7.5 90, 0 82.5, 0 67.5 M22.5 90 C7.5 90, 0 82.5, 0 67.5 M0 67.5 C0 49.93, 0 32.37, 0 22.5 M0 67.5 C0 51.12, 0 34.74, 0 22.5 M0 22.5 C0 7.5, 7.5 0, 22.5 0 M0 22.5 C0 7.5, 7.5 0, 22.5 0" stroke="#000000" stroke-width="1" fill="none"></path></g><g transform="translate(513.7640686035156 304) rotate(0 83.73593139648438 10)"><text x="83.73593139648438" y="0" font-family="Virgil, Segoe UI Emoji" font-size="16px" fill="#000000" text-anchor="middle" style="white-space: pre;" direction="ltr" dominant-baseline="text-before-edge">get_callback wrapper</text></g><g stroke-linecap="round" transform="translate(505.5 462) rotate(0 97.5 45)"><path d="M22.5 0 M22.5 0 C69.21 0, 115.92 0, 172.5 0 M22.5 0 C67.57 0, 112.64 0, 172.5 0 M172.5 0 C187.5 0, 195 7.5, 195 22.5 M172.5 0 C187.5 0, 195 7.5, 195 22.5 M195 22.5 C195 40.4, 195 58.29, 195 67.5 M195 22.5 C195 35.4, 195 48.3, 195 67.5 M195 67.5 C195 82.5, 187.5 90, 172.5 90 M195 67.5 C195 82.5, 187.5 90, 172.5 90 M172.5 90 C135.25 90, 98 90, 22.5 90 M172.5 90 C133.59 90, 94.69 90, 22.5 90 M22.5 90 C7.5 90, 0 82.5, 0 67.5 M22.5 90 C7.5 90, 0 82.5, 0 67.5 M0 67.5 C0 51.13, 0 34.77, 0 22.5 M0 67.5 C0 54.39, 0 41.27, 0 22.5 M0 22.5 C0 7.5, 7.5 0, 22.5 0 M0 22.5 C0 7.5, 7.5 0, 22.5 0" stroke="#000000" stroke-width="1" fill="none"></path></g><g transform="translate(553.7520370483398 497) rotate(0 49.247962951660156 10)"><text x="49.247962951660156" y="0" font-family="Virgil, Segoe UI Emoji" font-size="16px" fill="#000000" text-anchor="middle" style="white-space: pre;" direction="ltr" dominant-baseline="text-before-edge">help callback</text></g><g stroke-linecap="round" transform="translate(137 298) rotate(0 67 50.5)"><path d="M25.25 0 M25.25 0 C57.6 0, 89.94 0, 108.75 0 M25.25 0 C42.02 0, 58.78 0, 108.75 0 M108.75 0 C125.58 0, 134 8.42, 134 25.25 M108.75 0 C125.58 0, 134 8.42, 134 25.25 M134 25.25 C134 43.25, 134 61.25, 134 75.75 M134 25.25 C134 43.33, 134 61.4, 134 75.75 M134 75.75 C134 92.58, 125.58 101, 108.75 101 M134 75.75 C134 92.58, 125.58 101, 108.75 101 M108.75 101 C81.11 101, 53.48 101, 25.25 101 M108.75 101 C83.69 101, 58.63 101, 25.25 101 M25.25 101 C8.42 101, 0 92.58, 0 75.75 M25.25 101 C8.42 101, 0 92.58, 0 75.75 M0 75.75 C0 59.85, 0 43.96, 0 25.25 M0 75.75 C0 63.61, 0 51.47, 0 25.25 M0 25.25 C0 8.42, 8.42 0, 25.25 0 M0 25.25 C0 8.42, 8.42 0, 25.25 0" stroke="#000000" stroke-width="1" fill="none"></path></g><g transform="translate(153.08804321289062 338.5) rotate(0 50.911956787109375 10)"><text x="50.911956787109375" y="0" font-family="Virgil, Segoe UI Emoji" font-size="16px" fill="#000000" text-anchor="middle" style="white-space: pre;" direction="ltr" dominant-baseline="text-before-edge">host program</text></g><g stroke-linecap="round" transform="translate(959 253) rotate(0 67 30)"><path d="M15 0 M15 0 C54.68 0, 94.35 0, 119 0 M15 0 C47.96 0, 80.91 0, 119 0 M119 0 C129 0, 134 5, 134 15 M119 0 C129 0, 134 5, 134 15 M134 15 C134 21.14, 134 27.28, 134 45 M134 15 C134 26.37, 134 37.73, 134 45 M134 45 C134 55, 129 60, 119 60 M134 45 C134 55, 129 60, 119 60 M119 60 C80.01 60, 41.02 60, 15 60 M119 60 C78.52 60, 38.04 60, 15 60 M15 60 C5 60, 0 55, 0 45 M15 60 C5 60, 0 55, 0 45 M0 45 C0 37.36, 0 29.73, 0 15 M0 45 C0 36.43, 0 27.85, 0 15 M0 15 C0 5, 5 0, 15 0 M0 15 C0 5, 5 0, 15 0" stroke="#000000" stroke-width="1" fill="none"></path></g><g transform="translate(978.2240295410156 273) rotate(0 47.775970458984375 10)"><text x="47.775970458984375" y="0" font-family="Virgil, Segoe UI Emoji" font-size="16px" fill="#000000" text-anchor="middle" style="white-space: pre;" direction="ltr" dominant-baseline="text-before-edge">get callback</text></g><g stroke-linecap="round" transform="translate(965 318) rotate(0 61.5 15.5)"><path d="M7.75 0 M7.75 0 C46.25 0, 84.76 0, 115.25 0 M7.75 0 C45.43 0, 83.12 0, 115.25 0 M115.25 0 C120.42 0, 123 2.58, 123 7.75 M115.25 0 C120.42 0, 123 2.58, 123 7.75 M123 7.75 C123 11.69, 123 15.63, 123 23.25 M123 7.75 C123 13.15, 123 18.54, 123 23.25 M123 23.25 C123 28.42, 120.42 31, 115.25 31 M123 23.25 C123 28.42, 120.42 31, 115.25 31 M115.25 31 C93.73 31, 72.21 31, 7.75 31 M115.25 31 C82.07 31, 48.9 31, 7.75 31 M7.75 31 C2.58 31, 0 28.42, 0 23.25 M7.75 31 C2.58 31, 0 28.42, 0 23.25 M0 23.25 C0 17.41, 0 11.56, 0 7.75 M0 23.25 C0 19.68, 0 16.11, 0 7.75 M0 7.75 C0 2.58, 2.58 0, 7.75 0 M0 7.75 C0 2.58, 2.58 0, 7.75 0" stroke="#000000" stroke-width="1" fill="none"></path></g><g transform="translate(995.6280212402344 323.5) rotate(0 30.871978759765625 10)"><text x="30.871978759765625" y="0" font-family="Virgil, Segoe UI Emoji" font-size="16px" fill="#000000" text-anchor="middle" style="white-space: pre;" direction="ltr" dominant-baseline="text-before-edge">callback</text></g><g stroke-linecap="round" transform="translate(1009 354) rotate(0 15.5 15)"><path d="M20 4 M20 4 C21.54 5.76, 23.08 7.52, 27 12 M20 4 C21.54 5.76, 23.08 7.52, 27 12 M27 12 C31 16, 31 16, 27 20 M27 12 C31 16, 31 16, 27 20 M27 20 C25.01 21.7, 23.02 23.41, 20 26 M27 20 C24.37 22.25, 21.74 24.5, 20 26 M20 26 C16 30, 16 30, 12 26 M20 26 C16 30, 16 30, 12 26 M12 26 C9.81 24.36, 7.62 22.72, 4 20 M12 26 C9.96 24.47, 7.92 22.94, 4 20 M4 20 C0 16, 0 16, 4 12 M4 20 C0 16, 0 16, 4 12 M4 12 C6.48 9.52, 8.95 7.05, 12 4 M4 12 C7.15 8.85, 10.3 5.7, 12 4 M12 4 C16 0, 16 0, 20 4 M12 4 C16 0, 16 0, 20 4" stroke="#000000" stroke-width="1" fill="none"></path></g><g stroke-linecap="round"><g transform="translate(269 334) rotate(0 119 -20)"><path d="M0 0 C20.5 -5.33, 83.33 -25.33, 123 -32 C162.67 -38.67, 218.83 -38.67, 238 -40 M0 0 C20.5 -5.33, 83.33 -25.33, 123 -32 C162.67 -38.67, 218.83 -38.67, 238 -40" stroke="#000000" stroke-width="1" fill="none"></path></g><g transform="translate(269 334) rotate(0 119 -20)"><path d="M210.25 -28.59 C218.01 -31.78, 225.77 -34.97, 238 -40 M210.25 -28.59 C216.72 -31.26, 223.2 -33.92, 238 -40" stroke="#000000" stroke-width="1" fill="none"></path></g><g transform="translate(269 334) rotate(0 119 -20)"><path d="M209.41 -49.1 C217.41 -46.55, 225.4 -44.01, 238 -40 M209.41 -49.1 C216.08 -46.98, 222.75 -44.85, 238 -40" stroke="#000000" stroke-width="1" fill="none"></path></g></g><mask></mask><g stroke-linecap="round"><g transform="translate(690 285) rotate(0 128 -15.867515374903576)"><path d="M0 0 C17 -5.17, 59.33 -27.33, 102 -31 C144.67 -34.67, 230.33 -23.5, 256 -22 M0 0 C17 -5.17, 59.33 -27.33, 102 -31 C144.67 -34.67, 230.33 -23.5, 256 -22" stroke="#000000" stroke-width="1" fill="none"></path></g><g transform="translate(690 285) rotate(0 128 -15.867515374903576)"><path d="M227 -14.32 C234.26 -16.24, 241.52 -18.16, 256 -22 M227 -14.32 C234.81 -16.38, 242.61 -18.45, 256 -22" stroke="#000000" stroke-width="1" fill="none"></path></g><g transform="translate(690 285) rotate(0 128 -15.867515374903576)"><path d="M228.85 -34.75 C235.65 -31.56, 242.45 -28.37, 256 -22 M228.85 -34.75 C236.15 -31.32, 243.46 -27.89, 256 -22" stroke="#000000" stroke-width="1" fill="none"></path></g></g><mask></mask><g stroke-linecap="round"><g transform="translate(943 310) rotate(0 -126.5 7.648936480946986)"><path d="M0 0 C-23.33 2.5, -97.83 13.33, -140 15 C-182.17 16.67, -234.17 10.83, -253 10 M0 0 C-23.33 2.5, -97.83 13.33, -140 15 C-182.17 16.67, -234.17 10.83, -253 10" stroke="#000000" stroke-width="1" fill="none"></path></g><g transform="translate(943 310) rotate(0 -126.5 7.648936480946986)"><path d="M-224.15 1.77 C-230.14 3.48, -236.14 5.19, -253 10 M-224.15 1.77 C-232.36 4.11, -240.56 6.45, -253 10" stroke="#000000" stroke-width="1" fill="none"></path></g><g transform="translate(943 310) rotate(0 -126.5 7.648936480946986)"><path d="M-225.61 22.24 C-231.3 19.7, -236.99 17.15, -253 10 M-225.61 22.24 C-233.4 18.76, -241.19 15.28, -253 10" stroke="#000000" stroke-width="1" fill="none"></path></g></g><mask></mask><g stroke-linecap="round"><g transform="translate(695 338) rotate(0 104.44366365732026 52)"><path d="M0 0 C18.5 5.33, 76.19 14.67, 111 32 C145.81 49.33, 192.57 92, 208.89 104 M0 0 C18.5 5.33, 76.19 14.67, 111 32 C145.81 49.33, 192.57 92, 208.89 104" stroke="#000000" stroke-width="1" fill="none"></path></g><g transform="translate(695 338) rotate(0 104.44366365732026 52)"><path d="M180.51 94.27 C189.2 97.25, 197.88 100.23, 208.89 104 M180.51 94.27 C191.34 97.98, 202.17 101.7, 208.89 104" stroke="#000000" stroke-width="1" fill="none"></path></g><g transform="translate(695 338) rotate(0 104.44366365732026 52)"><path d="M193.4 78.31 C198.14 86.17, 202.88 94.04, 208.89 104 M193.4 78.31 C199.31 88.11, 205.22 97.91, 208.89 104" stroke="#000000" stroke-width="1" fill="none"></path></g></g><mask></mask><g stroke-linecap="round"><g transform="translate(505 333) rotate(0 -116 17.530842274005522)"><path d="M0 0 C-19.33 5.33, -77.33 26.33, -116 32 C-154.67 37.67, -212.67 33.67, -232 34 M0 0 C-19.33 5.33, -77.33 26.33, -116 32 C-154.67 37.67, -212.67 33.67, -232 34" stroke="#000000" stroke-width="1" fill="none"></path></g><g transform="translate(505 333) rotate(0 -116 17.530842274005522)"><path d="M-203.62 24.27 C-214.61 28.04, -225.59 31.8, -232 34 M-203.62 24.27 C-209.79 26.39, -215.96 28.5, -232 34" stroke="#000000" stroke-width="1" fill="none"></path></g><g transform="translate(505 333) rotate(0 -116 17.530842274005522)"><path d="M-204.01 44.79 C-214.84 40.61, -225.68 36.44, -232 34 M-204.01 44.79 C-210.09 42.44, -216.18 40.1, -232 34" stroke="#000000" stroke-width="1" fill="none"></path></g></g><mask></mask><g stroke-linecap="round"><g transform="translate(889 464.4370447818884) rotate(0 -100 -55.2185223909442)"><path d="M0 0 C-18.17 -8.07, -75.67 -30.03, -109 -48.44 C-142.33 -66.84, -184.83 -100.1, -200 -110.44 M0 0 C-18.17 -8.07, -75.67 -30.03, -109 -48.44 C-142.33 -66.84, -184.83 -100.1, -200 -110.44" stroke="#000000" stroke-width="1" fill="none"></path></g><g transform="translate(889 464.4370447818884) rotate(0 -100 -55.2185223909442)"><path d="M-171.14 -102.26 C-177.86 -104.16, -184.58 -106.07, -200 -110.44 M-171.14 -102.26 C-177.03 -103.93, -182.92 -105.6, -200 -110.44" stroke="#000000" stroke-width="1" fill="none"></path></g><g transform="translate(889 464.4370447818884) rotate(0 -100 -55.2185223909442)"><path d="M-183.15 -85.62 C-187.07 -91.4, -191 -97.18, -200 -110.44 M-183.15 -85.62 C-186.59 -90.68, -190.03 -95.75, -200 -110.44" stroke="#000000" stroke-width="1" fill="none"></path></g></g><mask></mask><g stroke-linecap="round"><g transform="translate(274 393) rotate(0 112.5 46.5)"><path d="M0 0 C17.83 11.17, 69.5 51.5, 107 67 C144.5 82.5, 205.33 88.67, 225 93 M0 0 C17.83 11.17, 69.5 51.5, 107 67 C144.5 82.5, 205.33 88.67, 225 93" stroke="#5f3dc4" stroke-width="1" fill="none"></path></g><g transform="translate(274 393) rotate(0 112.5 46.5)"><path d="M195.49 98.4 C203.41 96.95, 211.34 95.5, 225 93 M195.49 98.4 C204.67 96.72, 213.85 95.04, 225 93" stroke="#5f3dc4" stroke-width="1" fill="none"></path></g><g transform="translate(274 393) rotate(0 112.5 46.5)"><path d="M198.92 78.16 C205.93 82.15, 212.93 86.13, 225 93 M198.92 78.16 C207.04 82.78, 215.15 87.4, 225 93" stroke="#5f3dc4" stroke-width="1" fill="none"></path></g></g><mask></mask><g stroke-linecap="round"><g transform="translate(706 492) rotate(0 91.5 -6.746537580431777)"><path d="M0 0 C14.67 -3.33, 57.5 -21.09, 88 -20 C118.5 -18.91, 167.17 2.13, 183 6.56 M0 0 C14.67 -3.33, 57.5 -21.09, 88 -20 C118.5 -18.91, 167.17 2.13, 183 6.56" stroke="#000000" stroke-width="1" fill="none"></path></g><g transform="translate(706 492) rotate(0 91.5 -6.746537580431777)"><path d="M153 7.08 C160.76 6.95, 168.52 6.81, 183 6.56 M153 7.08 C161 6.94, 168.99 6.8, 183 6.56" stroke="#000000" stroke-width="1" fill="none"></path></g><g transform="translate(706 492) rotate(0 91.5 -6.746537580431777)"><path d="M159.68 -12.32 C165.71 -7.44, 171.74 -2.56, 183 6.56 M159.68 -12.32 C165.9 -7.29, 172.11 -2.26, 183 6.56" stroke="#000000" stroke-width="1" fill="none"></path></g></g><mask></mask><g stroke-linecap="round"><g transform="translate(888.8011278422812 558.7744550807774) rotate(0 -92.90056392114059 -13.38722754038875)"><path d="M0 0 C-14.97 -1.8, -58.83 -6.31, -89.8 -10.77 C-120.77 -15.24, -169.8 -24.11, -185.8 -26.77 M0 0 C-14.97 -1.8, -58.83 -6.31, -89.8 -10.77 C-120.77 -15.24, -169.8 -24.11, -185.8 -26.77" stroke="#000000" stroke-width="1" fill="none"></path></g><g transform="translate(888.8011278422812 558.7744550807774) rotate(0 -92.90056392114059 -13.38722754038875)"><path d="M-156.28 -32.09 C-167.46 -30.07, -178.65 -28.06, -185.8 -26.77 M-156.28 -32.09 C-166.69 -30.21, -177.1 -28.34, -185.8 -26.77" stroke="#000000" stroke-width="1" fill="none"></path></g><g transform="translate(888.8011278422812 558.7744550807774) rotate(0 -92.90056392114059 -13.38722754038875)"><path d="M-159.77 -11.87 C-169.63 -17.52, -179.5 -23.17, -185.8 -26.77 M-159.77 -11.87 C-168.95 -17.12, -178.13 -22.38, -185.8 -26.77" stroke="#000000" stroke-width="1" fill="none"></path></g></g><mask></mask><g stroke-linecap="round"><g transform="translate(684 558) rotate(0 232.00796929903538 -40.8532506382798)"><path d="M0 0 C24.33 21.17, 77.5 114, 146 127 C214.5 140, 358 118.67, 411 78 C464 37.33, 464.17 -68.58, 464 -117 C463.83 -165.42, 419 -196.59, 410 -212.51 M0 0 C24.33 21.17, 77.5 114, 146 127 C214.5 140, 358 118.67, 411 78 C464 37.33, 464.17 -68.58, 464 -117 C463.83 -165.42, 419 -196.59, 410 -212.51" stroke="#a61e4d" stroke-width="1" fill="none"></path></g><g transform="translate(684 558) rotate(0 232.00796929903538 -40.8532506382798)"><path d="M436.02 -197.57 C429.87 -201.1, 423.71 -204.64, 410 -212.51 M436.02 -197.57 C426.31 -203.14, 416.61 -208.71, 410 -212.51" stroke="#a61e4d" stroke-width="1" fill="none"></path></g><g transform="translate(684 558) rotate(0 232.00796929903538 -40.8532506382798)"><path d="M420.33 -184.34 C417.89 -191, 415.45 -197.66, 410 -212.51 M420.33 -184.34 C416.48 -194.85, 412.62 -205.35, 410 -212.51" stroke="#a61e4d" stroke-width="1" fill="none"></path></g></g><mask></mask><g stroke-linecap="round" transform="translate(921 282) rotate(0 8 9)"><path d="M16 9 C16 9.52, 15.96 10.05, 15.88 10.56 C15.8 11.08, 15.68 11.59, 15.52 12.08 C15.36 12.57, 15.16 13.05, 14.93 13.5 C14.7 13.95, 14.43 14.39, 14.13 14.79 C13.83 15.18, 13.5 15.56, 13.14 15.89 C12.79 16.23, 12.4 16.53, 12 16.79 C11.6 17.05, 11.17 17.28, 10.74 17.46 C10.3 17.64, 9.85 17.77, 9.39 17.86 C8.93 17.95, 8.46 18, 8 18 C7.54 18, 7.07 17.95, 6.61 17.86 C6.15 17.77, 5.7 17.64, 5.26 17.46 C4.83 17.28, 4.4 17.05, 4 16.79 C3.6 16.53, 3.21 16.23, 2.86 15.89 C2.5 15.56, 2.17 15.18, 1.87 14.79 C1.57 14.39, 1.3 13.95, 1.07 13.5 C0.84 13.05, 0.64 12.57, 0.48 12.08 C0.32 11.59, 0.2 11.08, 0.12 10.56 C0.04 10.05, 0 9.52, 0 9 C0 8.48, 0.04 7.95, 0.12 7.44 C0.2 6.92, 0.32 6.41, 0.48 5.92 C0.64 5.43, 0.84 4.95, 1.07 4.5 C1.3 4.05, 1.57 3.61, 1.87 3.21 C2.17 2.82, 2.5 2.44, 2.86 2.11 C3.21 1.77, 3.6 1.47, 4 1.21 C4.4 0.95, 4.83 0.72, 5.26 0.54 C5.7 0.36, 6.15 0.23, 6.61 0.14 C7.07 0.05, 7.54 0, 8 0 C8.46 0, 8.93 0.05, 9.39 0.14 C9.85 0.23, 10.3 0.36, 10.74 0.54 C11.17 0.72, 11.6 0.95, 12 1.21 C12.4 1.47, 12.79 1.77, 13.14 2.11 C13.5 2.44, 13.83 2.82, 14.13 3.21 C14.43 3.61, 14.7 4.05, 14.93 4.5 C15.16 4.95, 15.36 5.43, 15.52 5.92 C15.68 6.41, 15.8 6.92, 15.88 7.44 C15.96 7.95, 15.98 8.74, 16 9 C16.02 9.26, 16.02 8.74, 16 9" stroke="#a61e4d" stroke-width="1" fill="none"></path></g><g stroke-linecap="round" transform="translate(900 285) rotate(0 9.5 10.5)"><path d="M12.5 2.75 M12.5 2.75 C13.86 4.62, 15.23 6.5, 16.5 8.25 M12.5 2.75 C13.56 4.21, 14.63 5.67, 16.5 8.25 M16.5 8.25 C19 11, 19 11, 16.5 13.75 M16.5 8.25 C19 11, 19 11, 16.5 13.75 M16.5 13.75 C15.36 15.03, 14.23 16.31, 12.5 18.25 M16.5 13.75 C14.93 15.52, 13.36 17.28, 12.5 18.25 M12.5 18.25 C10 21, 10 21, 7.5 18.25 M12.5 18.25 C10 21, 10 21, 7.5 18.25 M7.5 18.25 C6.42 17.28, 5.34 16.3, 2.5 13.75 M7.5 18.25 C6.14 17.03, 4.79 15.81, 2.5 13.75 M2.5 13.75 C0 11, 0 11, 2.5 8.25 M2.5 13.75 C0 11, 0 11, 2.5 8.25 M2.5 8.25 C4.48 6.07, 6.46 3.89, 7.5 2.75 M2.5 8.25 C3.8 6.83, 5.09 5.4, 7.5 2.75 M7.5 2.75 C10 0, 10 0, 12.5 2.75 M7.5 2.75 C10 0, 10 0, 12.5 2.75" stroke="#000000" stroke-width="1" fill="none"></path></g><g stroke-linecap="round" transform="translate(433 331) rotate(0 8 7)"><path d="M16 7 C16 7.41, 15.96 7.82, 15.88 8.22 C15.8 8.61, 15.68 9.01, 15.52 9.39 C15.36 9.77, 15.16 10.15, 14.93 10.5 C14.7 10.85, 14.43 11.19, 14.13 11.5 C13.83 11.81, 13.5 12.1, 13.14 12.36 C12.79 12.62, 12.4 12.86, 12 13.06 C11.6 13.26, 11.17 13.44, 10.74 13.58 C10.3 13.72, 9.85 13.82, 9.39 13.89 C8.93 13.96, 8.46 14, 8 14 C7.54 14, 7.07 13.96, 6.61 13.89 C6.15 13.82, 5.7 13.72, 5.26 13.58 C4.83 13.44, 4.4 13.26, 4 13.06 C3.6 12.86, 3.21 12.62, 2.86 12.36 C2.5 12.1, 2.17 11.81, 1.87 11.5 C1.57 11.19, 1.3 10.85, 1.07 10.5 C0.84 10.15, 0.64 9.77, 0.48 9.39 C0.32 9.01, 0.2 8.61, 0.12 8.22 C0.04 7.82, 0 7.41, 0 7 C0 6.59, 0.04 6.18, 0.12 5.78 C0.2 5.39, 0.32 4.99, 0.48 4.61 C0.64 4.23, 0.84 3.85, 1.07 3.5 C1.3 3.15, 1.57 2.81, 1.87 2.5 C2.17 2.19, 2.5 1.9, 2.86 1.64 C3.21 1.38, 3.6 1.14, 4 0.94 C4.4 0.74, 4.83 0.56, 5.26 0.42 C5.7 0.28, 6.15 0.18, 6.61 0.11 C7.07 0.04, 7.54 0, 8 0 C8.46 0, 8.93 0.04, 9.39 0.11 C9.85 0.18, 10.3 0.28, 10.74 0.42 C11.17 0.56, 11.6 0.74, 12 0.94 C12.4 1.14, 12.79 1.38, 13.14 1.64 C13.5 1.9, 13.83 2.19, 14.13 2.5 C14.43 2.81, 14.7 3.15, 14.93 3.5 C15.16 3.85, 15.36 4.23, 15.52 4.61 C15.68 4.99, 15.8 5.39, 15.88 5.78 C15.96 6.18, 15.98 6.8, 16 7 C16.02 7.2, 16.02 6.8, 16 7" stroke="#364fc7" stroke-width="1" fill="none"></path></g><g stroke-linecap="round" transform="translate(453.5 321.5) rotate(0 9.5 10.5)"><path d="M12.5 2.75 M12.5 2.75 C13.96 4.75, 15.42 6.76, 16.5 8.25 M12.5 2.75 C14.06 4.9, 15.62 7.04, 16.5 8.25 M16.5 8.25 C19 11, 19 11, 16.5 13.75 M16.5 8.25 C19 11, 19 11, 16.5 13.75 M16.5 13.75 C14.95 15.5, 13.39 17.24, 12.5 18.25 M16.5 13.75 C14.91 15.54, 13.32 17.33, 12.5 18.25 M12.5 18.25 C10 21, 10 21, 7.5 18.25 M12.5 18.25 C10 21, 10 21, 7.5 18.25 M7.5 18.25 C6.09 16.98, 4.68 15.71, 2.5 13.75 M7.5 18.25 C5.56 16.5, 3.62 14.75, 2.5 13.75 M2.5 13.75 C0 11, 0 11, 2.5 8.25 M2.5 13.75 C0 11, 0 11, 2.5 8.25 M2.5 8.25 C4.37 6.19, 6.24 4.14, 7.5 2.75 M2.5 8.25 C4.08 6.51, 5.67 4.76, 7.5 2.75 M7.5 2.75 C10 0, 10 0, 12.5 2.75 M7.5 2.75 C10 0, 10 0, 12.5 2.75" stroke="#000000" stroke-width="1" fill="none"></path></g><g stroke-linecap="round" transform="translate(314 400) rotate(0 11.5 10.5)"><path d="M15 2.75 M15 2.75 C16.8 4.73, 18.59 6.7, 20 8.25 M15 2.75 C16.8 4.73, 18.59 6.7, 20 8.25 M20 8.25 C23 11, 23 11, 20 13.75 M20 8.25 C23 11, 23 11, 20 13.75 M20 13.75 C18.49 15.11, 16.98 16.47, 15 18.25 M20 13.75 C18.86 14.78, 17.72 15.8, 15 18.25 M15 18.25 C12 21, 12 21, 9 18.25 M15 18.25 C12 21, 12 21, 9 18.25 M9 18.25 C7.32 16.99, 5.65 15.74, 3 13.75 M9 18.25 C7.73 17.3, 6.47 16.35, 3 13.75 M3 13.75 C0 11, 0 11, 3 8.25 M3 13.75 C0 11, 0 11, 3 8.25 M3 8.25 C4.93 6.48, 6.86 4.71, 9 2.75 M3 8.25 C4.66 6.73, 6.32 5.2, 9 2.75 M9 2.75 C12 0, 12 0, 15 2.75 M9 2.75 C12 0, 12 0, 15 2.75" stroke="#000000" stroke-width="1" fill="none"></path></g><g stroke-linecap="round" transform="translate(722 456) rotate(0 9 10.5)"><path d="M12.5 2.75 M12.5 2.75 C13.18 4, 13.87 5.26, 15.5 8.25 M12.5 2.75 C13.1 3.85, 13.7 4.96, 15.5 8.25 M15.5 8.25 C18 11, 18 11, 15.5 13.75 M15.5 8.25 C18 11, 18 11, 15.5 13.75 M15.5 13.75 C14.87 14.7, 14.23 15.65, 12.5 18.25 M15.5 13.75 C14.56 15.16, 13.62 16.58, 12.5 18.25 M12.5 18.25 C10 21, 10 21, 7.5 18.25 M12.5 18.25 C10 21, 10 21, 7.5 18.25 M7.5 18.25 C6.11 17, 4.73 15.76, 2.5 13.75 M7.5 18.25 C6.39 17.25, 5.28 16.26, 2.5 13.75 M2.5 13.75 C0 11, 0 11, 2.5 8.25 M2.5 13.75 C0 11, 0 11, 2.5 8.25 M2.5 8.25 C4.06 6.53, 5.62 4.82, 7.5 2.75 M2.5 8.25 C4.47 6.08, 6.45 3.91, 7.5 2.75 M7.5 2.75 C10 0, 10 0, 12.5 2.75 M7.5 2.75 C10 0, 10 0, 12.5 2.75" stroke="#000000" stroke-width="1" fill="none"></path></g><g stroke-linecap="round" transform="translate(867 536) rotate(0 9 7.5)"><path d="M18 7.5 C18 7.93, 17.95 8.37, 17.86 8.8 C17.77 9.23, 17.64 9.66, 17.46 10.07 C17.28 10.47, 17.05 10.87, 16.79 11.25 C16.53 11.63, 16.23 11.99, 15.89 12.32 C15.56 12.65, 15.18 12.97, 14.79 13.25 C14.39 13.52, 13.95 13.78, 13.5 14 C13.05 14.21, 12.57 14.4, 12.08 14.55 C11.59 14.7, 11.08 14.81, 10.56 14.89 C10.05 14.96, 9.52 15, 9 15 C8.48 15, 7.95 14.96, 7.44 14.89 C6.92 14.81, 6.41 14.7, 5.92 14.55 C5.43 14.4, 4.95 14.21, 4.5 14 C4.05 13.78, 3.61 13.52, 3.21 13.25 C2.82 12.97, 2.44 12.65, 2.11 12.32 C1.77 11.99, 1.47 11.63, 1.21 11.25 C0.95 10.87, 0.72 10.47, 0.54 10.07 C0.36 9.66, 0.23 9.23, 0.14 8.8 C0.05 8.37, 0 7.93, 0 7.5 C0 7.07, 0.05 6.63, 0.14 6.2 C0.23 5.77, 0.36 5.34, 0.54 4.93 C0.72 4.53, 0.95 4.13, 1.21 3.75 C1.47 3.37, 1.77 3.01, 2.11 2.68 C2.44 2.35, 2.82 2.03, 3.21 1.75 C3.61 1.48, 4.05 1.22, 4.5 1 C4.95 0.79, 5.43 0.6, 5.92 0.45 C6.41 0.3, 6.92 0.19, 7.44 0.11 C7.95 0.04, 8.48 0, 9 0 C9.52 0, 10.05 0.04, 10.56 0.11 C11.08 0.19, 11.59 0.3, 12.08 0.45 C12.57 0.6, 13.05 0.79, 13.5 1 C13.95 1.22, 14.39 1.48, 14.79 1.75 C15.18 2.03, 15.56 2.35, 15.89 2.68 C16.23 3.01, 16.53 3.37, 16.79 3.75 C17.05 4.13, 17.28 4.53, 17.46 4.93 C17.64 5.34, 17.77 5.77, 17.86 6.2 C17.95 6.63, 17.98 7.28, 18 7.5 C18.02 7.72, 18.02 7.28, 18 7.5" stroke="#a61e4d" stroke-width="1" fill="none"></path></g><g stroke-linecap="round" transform="translate(745 603) rotate(0 11 13)"><path d="M15 3.5 M15 3.5 C16.56 6.23, 18.12 8.95, 19 10.5 M15 3.5 C15.95 5.15, 16.89 6.81, 19 10.5 M19 10.5 C22 14, 22 14, 19 17.5 M19 10.5 C22 14, 22 14, 19 17.5 M19 17.5 C17.5 19.38, 15.99 21.26, 15 22.5 M19 17.5 C17.55 19.32, 16.09 21.14, 15 22.5 M15 22.5 C12 26, 12 26, 9 22.5 M15 22.5 C12 26, 12 26, 9 22.5 M9 22.5 C7.03 20.86, 5.06 19.21, 3 17.5 M9 22.5 C7.09 20.91, 5.19 19.32, 3 17.5 M3 17.5 C0 14, 0 14, 3 10.5 M3 17.5 C0 14, 0 14, 3 10.5 M3 10.5 C5.3 7.82, 7.59 5.14, 9 3.5 M3 10.5 C5.13 8.02, 7.25 5.54, 9 3.5 M9 3.5 C12 0, 12 0, 15 3.5 M9 3.5 C12 0, 12 0, 15 3.5" stroke="#000000" stroke-width="1" fill="none"></path></g><g stroke-linecap="round" transform="translate(760.5 332.5) rotate(0 9.5 10.5)"><path d="M12.5 2.75 M12.5 2.75 C13.44 4.04, 14.38 5.33, 16.5 8.25 M12.5 2.75 C13.82 4.56, 15.13 6.37, 16.5 8.25 M16.5 8.25 C19 11, 19 11, 16.5 13.75 M16.5 8.25 C19 11, 19 11, 16.5 13.75 M16.5 13.75 C15.63 14.73, 14.76 15.71, 12.5 18.25 M16.5 13.75 C15.65 14.71, 14.8 15.66, 12.5 18.25 M12.5 18.25 C10 21, 10 21, 7.5 18.25 M12.5 18.25 C10 21, 10 21, 7.5 18.25 M7.5 18.25 C6.19 17.07, 4.87 15.89, 2.5 13.75 M7.5 18.25 C5.91 16.82, 4.33 15.4, 2.5 13.75 M2.5 13.75 C0 11, 0 11, 2.5 8.25 M2.5 13.75 C0 11, 0 11, 2.5 8.25 M2.5 8.25 C3.8 6.82, 5.1 5.39, 7.5 2.75 M2.5 8.25 C4.45 6.11, 6.39 3.97, 7.5 2.75 M7.5 2.75 C10 0, 10 0, 12.5 2.75 M7.5 2.75 C10 0, 10 0, 12.5 2.75" stroke="#000000" stroke-width="1" fill="none"></path></g><g stroke-linecap="round" transform="translate(784 339) rotate(0 8 9)"><path d="M16 9 C16 9.52, 15.96 10.05, 15.88 10.56 C15.8 11.08, 15.68 11.59, 15.52 12.08 C15.36 12.57, 15.16 13.05, 14.93 13.5 C14.7 13.95, 14.43 14.39, 14.13 14.79 C13.83 15.18, 13.5 15.56, 13.14 15.89 C12.79 16.23, 12.4 16.53, 12 16.79 C11.6 17.05, 11.17 17.28, 10.74 17.46 C10.3 17.64, 9.85 17.77, 9.39 17.86 C8.93 17.95, 8.46 18, 8 18 C7.54 18, 7.07 17.95, 6.61 17.86 C6.15 17.77, 5.7 17.64, 5.26 17.46 C4.83 17.28, 4.4 17.05, 4 16.79 C3.6 16.53, 3.21 16.23, 2.86 15.89 C2.5 15.56, 2.17 15.18, 1.87 14.79 C1.57 14.39, 1.3 13.95, 1.07 13.5 C0.84 13.05, 0.64 12.57, 0.48 12.08 C0.32 11.59, 0.2 11.08, 0.12 10.56 C0.04 10.05, 0 9.52, 0 9 C0 8.48, 0.04 7.95, 0.12 7.44 C0.2 6.92, 0.32 6.41, 0.48 5.92 C0.64 5.43, 0.84 4.95, 1.07 4.5 C1.3 4.05, 1.57 3.61, 1.87 3.21 C2.17 2.82, 2.5 2.44, 2.86 2.11 C3.21 1.77, 3.6 1.47, 4 1.21 C4.4 0.95, 4.83 0.72, 5.26 0.54 C5.7 0.36, 6.15 0.23, 6.61 0.14 C7.07 0.05, 7.54 0, 8 0 C8.46 0, 8.93 0.05, 9.39 0.14 C9.85 0.23, 10.3 0.36, 10.74 0.54 C11.17 0.72, 11.6 0.95, 12 1.21 C12.4 1.47, 12.79 1.77, 13.14 2.11 C13.5 2.44, 13.83 2.82, 14.13 3.21 C14.43 3.61, 14.7 4.05, 14.93 4.5 C15.16 4.95, 15.36 5.43, 15.52 5.92 C15.68 6.41, 15.8 6.92, 15.88 7.44 C15.96 7.95, 15.98 8.74, 16 9 C16.02 9.26, 16.02 8.74, 16 9" stroke="#a61e4d" stroke-width="1" fill="none"></path></g><g stroke-linecap="round"><g transform="translate(927 303) rotate(0 14.09118605107028 18)"><path d="M0 0 C-0.83 3.5, -10.83 15, -5 21 C0.83 27, 28.33 33.5, 35 36" stroke="#a61e4d" stroke-width="1.5" fill="none" stroke-dasharray="8 9"></path></g><g transform="translate(927 303) rotate(0 14.09118605107028 18)"><path d="M13.67 37.11 C21.47 36.7, 29.28 36.3, 35 36" stroke="#a61e4d" stroke-width="1.5" fill="none"></path></g><g transform="translate(927 303) rotate(0 14.09118605107028 18)"><path d="M17.95 23.14 C24.19 27.84, 30.42 32.55, 35 36" stroke="#a61e4d" stroke-width="1.5" fill="none"></path></g></g><mask></mask><g stroke-linecap="round"><g transform="translate(449 348) rotate(0 52.978280658792414 56.5)"><path d="M0 0 C17.17 9.17, 90 36.17, 103 55 C116 73.83, 82.17 103.33, 78 113" stroke="#364fc7" stroke-width="1.5" fill="none" stroke-dasharray="8 9"></path></g><g transform="translate(449 348) rotate(0 52.978280658792414 56.5)"><path d="M86.38 84.2 C83.8 93.08, 81.21 101.96, 78 113" stroke="#364fc7" stroke-width="1.5" fill="none"></path></g><g transform="translate(449 348) rotate(0 52.978280658792414 56.5)"><path d="M102.94 96.32 C95.25 101.47, 87.56 106.61, 78 113" stroke="#364fc7" stroke-width="1.5" fill="none"></path></g></g><mask></mask><g transform="translate(325 253) rotate(0 65.49596405029297 20)"><text x="0" y="0" font-family="Virgil, Segoe UI Emoji" font-size="16px" fill="#000000" text-anchor="start" style="white-space: pre;" direction="ltr" dominant-baseline="text-before-edge">get data and </text><text x="0" y="20" font-family="Virgil, Segoe UI Emoji" font-size="16px" fill="#000000" text-anchor="start" style="white-space: pre;" direction="ltr" dominant-baseline="text-before-edge">callback function</text></g><g transform="translate(736.504035949707 207) rotate(0 65.49596405029297 20)"><text x="0" y="0" font-family="Virgil, Segoe UI Emoji" font-size="16px" fill="#000000" text-anchor="start" style="white-space: pre;" direction="ltr" dominant-baseline="text-before-edge">get data and </text><text x="0" y="20" font-family="Virgil, Segoe UI Emoji" font-size="16px" fill="#000000" text-anchor="start" style="white-space: pre;" direction="ltr" dominant-baseline="text-before-edge">callback function</text></g><g transform="translate(766 300) rotate(0 24.055984497070312 10)"><text x="0" y="0" font-family="Virgil, Segoe UI Emoji" font-size="16px" fill="#000000" text-anchor="start" style="white-space: pre;" direction="ltr" dominant-baseline="text-before-edge">return</text></g><g transform="translate(360 339) rotate(0 24.055984497070312 10)"><text x="0" y="0" font-family="Virgil, Segoe UI Emoji" font-size="16px" fill="#000000" text-anchor="start" style="white-space: pre;" direction="ltr" dominant-baseline="text-before-edge">return</text></g><g transform="translate(307 472) rotate(15.818092555102382 81.783935546875 10)"><text x="0" y="0" font-family="Virgil, Segoe UI Emoji" font-size="16px" fill="#000000" text-anchor="start" style="white-space: pre;" direction="ltr" dominant-baseline="text-before-edge">call callback wrapper</text></g><g transform="translate(750 448) rotate(0 45.71195983886719 10)"><text x="0" y="0" font-family="Virgil, Segoe UI Emoji" font-size="16px" fill="#000000" text-anchor="start" style="white-space: pre;" direction="ltr" dominant-baseline="text-before-edge">find mapping</text></g><g transform="translate(727.3544628809589 511.99311578179754) rotate(6.702583866833513 67.26318578685823 8.243850029333146)"><text x="0" y="0" font-family="Virgil, Segoe UI Emoji" font-size="13.190160046933007px" fill="#000000" text-anchor="start" style="white-space: pre;" direction="ltr" dominant-baseline="text-before-edge">return function index</text></g><g transform="translate(914.7822577488125 683.5728428144557) rotate(347.3545086550419 91.87195587158203 20)"><text x="0" y="0" font-family="Virgil, Segoe UI Emoji" font-size="16px" fill="#000000" text-anchor="start" style="white-space: pre;" direction="ltr" dominant-baseline="text-before-edge">invoke callback function</text><text x="0" y="20" font-family="Virgil, Segoe UI Emoji" font-size="16px" fill="#000000" text-anchor="start" style="white-space: pre;" direction="ltr" dominant-baseline="text-before-edge">passing parameter</text></g><g transform="translate(376.2985998866376 382.14708014595305) rotate(357.44437245267494 86.07850239003898 24.991838751705956)"><text x="0" y="0" font-family="Virgil, Segoe UI Emoji" font-size="13.328980667576506px" fill="#364fc7" text-anchor="start" style="white-space: pre;" direction="ltr" dominant-baseline="text-before-edge">the function pointer</text><text x="0" y="16.66122583447063" font-family="Virgil, Segoe UI Emoji" font-size="13.328980667576506px" fill="#364fc7" text-anchor="start" style="white-space: pre;" direction="ltr" dominant-baseline="text-before-edge">point to</text><text x="0" y="33.32245166894126" font-family="Virgil, Segoe UI Emoji" font-size="13.328980667576506px" fill="#364fc7" text-anchor="start" style="white-space: pre;" direction="ltr" dominant-baseline="text-before-edge">the help_callback function</text></g><g transform="translate(869.4057414780216 347.8593359881289) rotate(14.878897326115942 62.83866882324219 22.89589916895156)"><text x="0" y="0" font-family="Virgil, Segoe UI Emoji" font-size="12.21114622344083px" fill="#a61e4d" text-anchor="start" style="white-space: pre;" direction="ltr" dominant-baseline="text-before-edge">the function pointer</text><text x="0" y="15.263932779301037" font-family="Virgil, Segoe UI Emoji" font-size="12.21114622344083px" fill="#a61e4d" text-anchor="start" style="white-space: pre;" direction="ltr" dominant-baseline="text-before-edge">point to</text><text x="0" y="30.527865558602073" font-family="Virgil, Segoe UI Emoji" font-size="12.21114622344083px" fill="#a61e4d" text-anchor="start" style="white-space: pre;" direction="ltr" dominant-baseline="text-before-edge">the callback function</text></g><g transform="translate(319 297) rotate(0 2.167999267578125 10)"><text x="0" y="0" font-family="Virgil, Segoe UI Emoji" font-size="16px" fill="#364fc7" text-anchor="start" style="white-space: pre;" direction="ltr" dominant-baseline="text-before-edge">1</text></g><g transform="translate(728 246) rotate(0 5.6959991455078125 10)"><text x="0" y="0" font-family="Virgil, Segoe UI Emoji" font-size="16px" fill="#364fc7" text-anchor="start" style="white-space: pre;" direction="ltr" dominant-baseline="text-before-edge">2</text></g><g transform="translate(838 325) rotate(0 5.447998046875 10)"><text x="0" y="0" font-family="Virgil, Segoe UI Emoji" font-size="16px" fill="#364fc7" text-anchor="start" style="white-space: pre;" direction="ltr" dominant-baseline="text-before-edge">3</text></g><g transform="translate(350 369) rotate(0 5.1199951171875 10)"><text x="0" y="0" font-family="Virgil, Segoe UI Emoji" font-size="16px" fill="#364fc7" text-anchor="start" style="white-space: pre;" direction="ltr" dominant-baseline="text-before-edge">4</text></g><g transform="translate(307 425) rotate(0 4.943992614746094 10)"><text x="0" y="0" font-family="Virgil, Segoe UI Emoji" font-size="16px" fill="#364fc7" text-anchor="start" style="white-space: pre;" direction="ltr" dominant-baseline="text-before-edge">5</text></g><g transform="translate(780 473) rotate(0 5.1199951171875 10)"><text x="0" y="0" font-family="Virgil, Segoe UI Emoji" font-size="16px" fill="#364fc7" text-anchor="start" style="white-space: pre;" direction="ltr" dominant-baseline="text-before-edge">6</text></g><g transform="translate(797 551) rotate(0 4.303993225097656 10)"><text x="0" y="0" font-family="Virgil, Segoe UI Emoji" font-size="16px" fill="#364fc7" text-anchor="start" style="white-space: pre;" direction="ltr" dominant-baseline="text-before-edge">7</text></g><g transform="translate(753 654) rotate(0 6.1199951171875 10)"><text x="0" y="0" font-family="Virgil, Segoe UI Emoji" font-size="16px" fill="#364fc7" text-anchor="start" style="white-space: pre;" direction="ltr" dominant-baseline="text-before-edge">8</text></g><g stroke-linecap="round"><g transform="translate(1043 373) rotate(0 108.32893024460373 4.7821872553721505)"><path d="M0 0 C8.5 12, 17 61.17, 51 72 C85 82.83, 177.8 89, 204 65 C230.2 41, 207.49 -49.17, 208.19 -72" stroke="#5c940d" stroke-width="1.5" fill="none" stroke-dasharray="8 9"></path></g><g transform="translate(1043 373) rotate(0 108.32893024460373 4.7821872553721505)"><path d="M221.38 -45.05 C216.92 -54.15, 212.47 -63.25, 208.19 -72" stroke="#5c940d" stroke-width="1.5" fill="none"></path></g><g transform="translate(1043 373) rotate(0 108.32893024460373 4.7821872553721505)"><path d="M200.97 -42.88 C203.41 -52.71, 205.85 -62.55, 208.19 -72" stroke="#5c940d" stroke-width="1.5" fill="none"></path></g></g><mask></mask><g transform="translate(1129 242) rotate(0 136.5279083251953 20)"><text x="0" y="0" font-family="Virgil, Segoe UI Emoji" font-size="16px" fill="#5c940d" text-anchor="start" style="white-space: pre;" direction="ltr" dominant-baseline="text-before-edge">the data regarded as parameters</text><text x="0" y="20" font-family="Virgil, Segoe UI Emoji" font-size="16px" fill="#5c940d" text-anchor="start" style="white-space: pre;" direction="ltr" dominant-baseline="text-before-edge">of the callback function</text></g><g stroke-linecap="round" transform="translate(1117 220) rotate(0 153 39.5)"><path d="M19.75 0 M19.75 0 C99.11 0, 178.47 0, 286.25 0 M286.25 0 C299.42 0, 306 6.58, 306 19.75 M306 19.75 C306 34.49, 306 49.23, 306 59.25 M306 59.25 C306 72.42, 299.42 79, 286.25 79 M286.25 79 C222.88 79, 159.51 79, 19.75 79 M19.75 79 C6.58 79, 0 72.42, 0 59.25 M0 59.25 C0 50.22, 0 41.18, 0 19.75 M0 19.75 C0 6.58, 6.58 0, 19.75 0" stroke="#5c940d" stroke-width="1.5" fill="none" stroke-dasharray="8 9"></path></g><g stroke-linecap="round" transform="translate(840 10) rotate(0 162 62)"><path d="M31 0 M31 0 C94.61 0, 158.21 0, 293 0 M293 0 C313.67 0, 324 10.33, 324 31 M324 31 C324 51.83, 324 72.66, 324 93 M324 93 C324 113.67, 313.67 124, 293 124 M293 124 C198.61 124, 104.22 124, 31 124 M31 124 C10.33 124, 0 113.67, 0 93 M0 93 C0 69.87, 0 46.73, 0 31 M0 31 C0 10.33, 10.33 0, 31 0" stroke="#5c940d" stroke-width="1.5" fill="none" stroke-dasharray="8 9"></path></g><g transform="translate(858.2800750732422 52) rotate(0 143.7199249267578 20)"><text x="143.7199249267578" y="0" font-family="Virgil, Segoe UI Emoji" font-size="16px" fill="#5c940d" text-anchor="middle" style="white-space: pre;" direction="ltr" dominant-baseline="text-before-edge">it actually is a offset meaning the </text><text x="143.7199249267578" y="20" font-family="Virgil, Segoe UI Emoji" font-size="16px" fill="#5c940d" text-anchor="middle" style="white-space: pre;" direction="ltr" dominant-baseline="text-before-edge">function offset in wasm module</text></g><g stroke-linecap="round"><g transform="translate(935 277) rotate(0 -8.166231162824829 -71)"><path d="M0 0 C-7 -12.33, -46.33 -50.33, -42 -74 C-37.67 -97.67, 14.67 -130.67, 26 -142" stroke="#5c940d" stroke-width="1.5" fill="none" stroke-dasharray="8 9"></path></g><g transform="translate(935 277) rotate(0 -8.166231162824829 -71)"><path d="M10.5 -116.32 C15.18 -124.07, 19.86 -131.83, 26 -142" stroke="#5c940d" stroke-width="1.5" fill="none"></path></g><g transform="translate(935 277) rotate(0 -8.166231162824829 -71)"><path d="M-2.39 -132.29 C6.19 -135.22, 14.76 -138.16, 26 -142" stroke="#5c940d" stroke-width="1.5" fill="none"></path></g></g><mask></mask><g stroke-linecap="round" transform="translate(309 673) rotate(0 162 40.5)"><path d="M20.25 0 M20.25 0 C126.29 0, 232.33 0, 303.75 0 M303.75 0 C317.25 0, 324 6.75, 324 20.25 M324 20.25 C324 35, 324 49.74, 324 60.75 M324 60.75 C324 74.25, 317.25 81, 303.75 81 M303.75 81 C194.81 81, 85.87 81, 20.25 81 M20.25 81 C6.75 81, 0 74.25, 0 60.75 M0 60.75 C0 47.35, 0 33.95, 0 20.25 M0 20.25 C0 6.75, 6.75 0, 20.25 0" stroke="#5c940d" stroke-width="1.5" fill="none" stroke-dasharray="8 9"></path></g><g transform="translate(331.4400634765625 693.5) rotate(0 139.5599365234375 20)"><text x="139.5599365234375" y="0" font-family="Virgil, Segoe UI Emoji" font-size="16px" fill="#5c940d" text-anchor="middle" style="white-space: pre;" direction="ltr" dominant-baseline="text-before-edge">it is a function to help calling the </text><text x="139.5599365234375" y="20" font-family="Virgil, Segoe UI Emoji" font-size="16px" fill="#5c940d" text-anchor="middle" style="white-space: pre;" direction="ltr" dominant-baseline="text-before-edge">wasm function(callback)</text></g><g stroke-linecap="round"><g transform="translate(573 551) rotate(0 -37.71897228060476 59.040322580645125)"><path d="M0 0 C-1.17 11.17, 5.71 47.32, -7 67 C-19.71 86.68, -64.72 109.57, -76.27 118.08" stroke="#364fc7" stroke-width="1.5" fill="none" stroke-dasharray="8 9"></path></g><g transform="translate(573 551) rotate(0 -37.71897228060476 59.040322580645125)"><path d="M-57.84 94.41 C-64.82 103.38, -71.81 112.36, -76.27 118.08" stroke="#364fc7" stroke-width="1.5" fill="none"></path></g><g transform="translate(573 551) rotate(0 -37.71897228060476 59.040322580645125)"><path d="M-46.93 111.8 C-58.05 114.18, -69.17 116.56, -76.27 118.08" stroke="#364fc7" stroke-width="1.5" fill="none"></path></g></g><mask></mask><g stroke-linecap="round"><g transform="translate(304.3005934377268 444.2509016791712) rotate(0 -40.946296504782595 164.8745491604144)"><path d="M0 0 C-13.55 28.12, -75.18 113.79, -81.3 168.75 C-87.43 223.71, -44.17 302.92, -36.75 329.75" stroke="#5c940d" stroke-width="1.5" fill="none" stroke-dasharray="8 9"></path></g><g transform="translate(304.3005934377268 444.2509016791712) rotate(0 -40.946296504782595 164.8745491604144)"><path d="M-56.51 307.18 C-48.75 316.05, -40.98 324.92, -36.75 329.75" stroke="#5c940d" stroke-width="1.5" fill="none"></path></g><g transform="translate(304.3005934377268 444.2509016791712) rotate(0 -40.946296504782595 164.8745491604144)"><path d="M-37.38 299.76 C-37.13 311.54, -36.89 323.33, -36.75 329.75" stroke="#5c940d" stroke-width="1.5" fill="none"></path></g></g><mask></mask><g transform="translate(15 807) rotate(0 245.18386840820312 20)"><text x="0" y="0" font-family="Virgil, Segoe UI Emoji" font-size="16px" fill="#5c940d" text-anchor="start" style="white-space: pre;" direction="ltr" dominant-baseline="text-before-edge">In this step, the native layer call the wasm callback function</text><text x="0" y="20" font-family="Virgil, Segoe UI Emoji" font-size="16px" fill="#5c940d" text-anchor="start" style="white-space: pre;" direction="ltr" dominant-baseline="text-before-edge">just like call a native callback function</text></g><g stroke-linecap="round" transform="translate(10 786) rotate(0 260 41.5)"><path d="M20.75 0 M20.75 0 C122.39 0, 224.03 0, 499.25 0 M499.25 0 C513.08 0, 520 6.92, 520 20.75 M520 20.75 C520 35.09, 520 49.42, 520 62.25 M520 62.25 C520 76.08, 513.08 83, 499.25 83 M499.25 83 C346.22 83, 193.19 83, 20.75 83 M20.75 83 C6.92 83, 0 76.08, 0 62.25 M0 62.25 C0 51.59, 0 40.93, 0 20.75 M0 20.75 C0 6.92, 6.92 0, 20.75 0" stroke="#5c940d" stroke-width="1.5" fill="none" stroke-dasharray="8 9"></path></g><g stroke-linecap="round" transform="translate(385 30) rotate(0 129.5 36)"><path d="M18 0 M18 0 C93.91 0, 169.82 0, 241 0 M241 0 C253 0, 259 6, 259 18 M259 18 C259 26.25, 259 34.5, 259 54 M259 54 C259 66, 253 72, 241 72 M241 72 C169.57 72, 98.14 72, 18 72 M18 72 C6 72, 0 66, 0 54 M0 54 C0 40.87, 0 27.74, 0 18 M0 18 C0 6, 6 0, 18 0" stroke="#2b8a3e" stroke-width="1.5" fill="none" stroke-dasharray="8 9"></path></g><g transform="translate(393.4600601196289 46) rotate(0 121.0399398803711 20)"><text x="121.0399398803711" y="0" font-family="Virgil, Segoe UI Emoji" font-size="16px" fill="#2b8a3e" text-anchor="middle" style="white-space: pre;" direction="ltr" dominant-baseline="text-before-edge">It is a native function pointer</text><text x="121.0399398803711" y="20" font-family="Virgil, Segoe UI Emoji" font-size="16px" fill="#2b8a3e" text-anchor="middle" style="white-space: pre;" direction="ltr" dominant-baseline="text-before-edge">for callback</text></g><g stroke-linecap="round"><g transform="translate(444 326) rotate(0 21.794962904544775 -106)"><path d="M0 0 C7.17 -17.67, 38.83 -70.67, 43 -106 C47.17 -141.33, 28 -194.33, 25 -212" stroke="#5c940d" stroke-width="1.5" fill="none" stroke-dasharray="8 9"></path></g><g transform="translate(444 326) rotate(0 21.794962904544775 -106)"><path d="M41.79 -187.14 C36.17 -195.45, 30.56 -203.77, 25 -212" stroke="#5c940d" stroke-width="1.5" fill="none"></path></g><g transform="translate(444 326) rotate(0 21.794962904544775 -106)"><path d="M21.88 -182.16 C22.92 -192.14, 23.97 -202.13, 25 -212" stroke="#5c940d" stroke-width="1.5" fill="none"></path></g></g><mask></mask></svg>