<svg version="1.1" xmlns="http://www.w3.org/2000/svg" viewBox="0 0 536.7116029005498 337.55213928222656" width="536.7116029005498" height="337.55213928222656">
  <!-- svg-source:excalidraw -->
  
  <defs>
    <style class="style-fonts">
      @font-face {
        font-family: "Virgil";
        src: url("https://file%2B.vscode-resource.vscode-cdn.net/c%3A/Users/jiongqia/.vscode/extensions/pomdtr.excalidraw-editor-3.5.1/public//dist/excalidraw-assets/Virgil.woff2");
      }
      @font-face {
        font-family: "Cascadia";
        src: url("https://file%2B.vscode-resource.vscode-cdn.net/c%3A/Users/jiongqia/.vscode/extensions/pomdtr.excalidraw-editor-3.5.1/public//dist/excalidraw-assets/Cascadia.woff2");
      }
    </style>
  </defs>
  <rect x="0" y="0" width="536.7116029005498" height="337.55213928222656" fill="#ffffff"></rect><g stroke-linecap="round" transform="translate(14.670143127441406 161.33677673339844) rotate(0 199.33158493041992 83.10768127441406)"><path d="M32 0 M32 0 C155.85 1.25, 277.97 1.21, 366.66 0 M366.66 0 C389.25 -1.12, 398.5 11.95, 398.66 32 M398.66 32 C398.08 54.45, 399.5 78.88, 398.66 134.22 M398.66 134.22 C400.31 156.41, 387.28 164.75, 366.66 166.22 M366.66 166.22 C271.69 165.48, 175.41 164.65, 32 166.22 M32 166.22 C9.43 164.56, -0.07 154.39, 0 134.22 M0 134.22 C-0.36 99.06, -1.81 60.63, 0 32 M0 32 C-0.64 10.06, 11.4 0.67, 32 0" stroke="#c92a2a" stroke-width="1.5" fill="none" stroke-dasharray="8 9"></path></g><g transform="translate(143.68922805786133 298.55213928222656) rotate(0 70.3125 12)"><text x="70.3125" y="0" font-family="Cascadia, Segoe UI Emoji" font-size="20px" fill="#c92a2a" text-anchor="middle" style="white-space: pre;" direction="ltr" dominant-baseline="text-before-edge">native layer</text></g><g stroke-linecap="round" transform="translate(10 10) rotate(0 117.38714599609375 69.60935974121094)"><path d="M32 0 M32 0 C89.93 -1.16, 144.98 0.99, 202.77 0 M202.77 0 C224.91 1.91, 236.02 11.95, 234.77 32 M234.77 32 C235.96 51.54, 235.81 75.01, 234.77 107.22 M234.77 107.22 C234.67 126.67, 222.97 139.2, 202.77 139.22 M202.77 139.22 C137.79 139.03, 72.62 141.98, 32 139.22 M32 139.22 C9.51 137.52, 1.89 129.39, 0 107.22 M0 107.22 C0.85 90.92, -0.99 74.56, 0 32 M0 32 C1.92 11.31, 8.91 0.01, 32 0" stroke="#5c940d" stroke-width="1.5" fill="none" stroke-dasharray="8 9"></path></g><g transform="translate(68.79339599609375 15) rotate(0 58.59375 12)"><text x="58.59375" y="0" font-family="Cascadia, Segoe UI Emoji" font-size="20px" fill="#5c940d" text-anchor="middle" style="white-space: pre;" direction="ltr" dominant-baseline="text-before-edge">wasm layer</text></g><g stroke-linecap="round" transform="translate(35.31251525878906 40.53819274902344) rotate(0 95.5 20)"><path d="M2.66 2.31 C2.66 2.31, 2.66 2.31, 2.66 2.31 M2.66 2.31 C2.66 2.31, 2.66 2.31, 2.66 2.31 M0.43 10.98 C5.29 5.78, 8.61 2.04, 10.27 -0.34 M0.43 10.98 C4.02 7.97, 6.82 3.52, 10.27 -0.34 M0.83 16.62 C2.69 11.96, 7.33 10.79, 13.29 2.28 M0.83 16.62 C5.13 13.19, 7.92 8.4, 13.29 2.28 M1.22 22.26 C5.47 16.85, 10.74 7.85, 18.28 2.64 M1.22 22.26 C7.02 15.13, 13.34 8.28, 18.28 2.64 M0.96 28.66 C5.51 23.51, 13.84 15.5, 23.27 3 M0.96 28.66 C8.9 20.36, 15.5 10.07, 23.27 3 M0.7 35.06 C7.47 26.85, 10.88 20.16, 28.91 2.6 M0.7 35.06 C9.93 23.6, 19.31 14.02, 28.91 2.6 M3.72 37.68 C15 27.41, 22.21 17.34, 33.9 2.97 M3.72 37.68 C14.42 24.76, 25.66 13.72, 33.9 2.97 M6.74 40.31 C18.3 26.76, 29.65 12.89, 39.54 2.57 M6.74 40.31 C15.99 29.36, 26.58 17.23, 39.54 2.57 M11.72 40.67 C25.18 24.98, 36.21 14.32, 44.53 2.93 M11.72 40.67 C19.71 32.32, 26.1 23.52, 44.53 2.93 M17.37 40.27 C23.31 31.11, 31.65 21.66, 50.17 2.54 M17.37 40.27 C30.3 27.39, 40.88 12.68, 50.17 2.54 M22.35 40.63 C28.92 31.6, 36.73 24.15, 55.16 2.9 M22.35 40.63 C31.44 31.14, 39.94 20.38, 55.16 2.9 M28 40.24 C37.12 28.03, 48.85 16.3, 60.8 2.5 M28 40.24 C38.71 27.36, 52.15 13.71, 60.8 2.5 M32.98 40.6 C42.24 30.04, 50.56 18.82, 65.79 2.86 M32.98 40.6 C41.87 31.52, 49.78 22.67, 65.79 2.86 M38.63 40.2 C48.99 27.92, 60.02 16.82, 71.43 2.47 M38.63 40.2 C48.47 28.6, 59.76 16.49, 71.43 2.47 M43.61 40.56 C51.48 33.67, 59.97 23.03, 76.42 2.83 M43.61 40.56 C53.44 29.26, 63.12 17.33, 76.42 2.83 M49.26 40.17 C60.53 26.75, 69.24 18.3, 81.4 3.19 M49.26 40.17 C61.55 26.4, 75.71 10.68, 81.4 3.19 M54.24 40.53 C67.2 28.4, 80.16 14.03, 87.05 2.79 M54.24 40.53 C60.92 32.15, 68.01 25.27, 87.05 2.79 M59.23 40.89 C70.73 28.52, 82.22 15.46, 92.03 3.15 M59.23 40.89 C70.67 28.07, 81.71 14.79, 92.03 3.15 M64.87 40.49 C74.72 31.66, 80.56 21.3, 97.68 2.76 M64.87 40.49 C76.87 27.23, 88.57 13.06, 97.68 2.76 M69.86 40.85 C81.24 27.45, 90.09 19.07, 102.66 3.12 M69.86 40.85 C79.48 31.85, 87.57 21.73, 102.66 3.12 M75.5 40.46 C86.93 31.27, 93.41 17.18, 108.31 2.72 M75.5 40.46 C85.3 27.3, 97.45 16.1, 108.31 2.72 M80.49 40.82 C86.54 32.68, 97.06 22.41, 113.29 3.08 M80.49 40.82 C87.47 31.83, 94.99 24.01, 113.29 3.08 M86.13 40.42 C97.54 25.43, 108.36 13.99, 118.94 2.69 M86.13 40.42 C97.78 26.41, 109.14 13.46, 118.94 2.69 M91.12 40.78 C98.78 31.67, 103.4 26.19, 123.92 3.05 M91.12 40.78 C99.15 32.07, 108.09 21.19, 123.92 3.05 M96.76 40.39 C106.07 29.76, 115.32 19.72, 129.57 2.65 M96.76 40.39 C104.92 31.26, 113.4 20.82, 129.57 2.65 M101.75 40.75 C110.6 28.14, 121.25 15.88, 134.55 3.01 M101.75 40.75 C113.33 26.76, 124.26 13.89, 134.55 3.01 M107.39 40.36 C114.18 29.67, 125.01 23.7, 139.54 3.37 M107.39 40.36 C115.43 30.91, 125.58 20.42, 139.54 3.37 M112.38 40.72 C124.23 27.05, 133.85 18.21, 145.18 2.98 M112.38 40.72 C122.61 30.76, 129.78 19.71, 145.18 2.98 M117.37 41.08 C124.58 32, 132.28 22.19, 150.17 3.34 M117.37 41.08 C125.37 31, 133.34 22.19, 150.17 3.34 M123.01 40.68 C132.21 32.11, 140.68 19.6, 155.81 2.95 M123.01 40.68 C134.29 27.07, 146.31 12.71, 155.81 2.95 M128 41.04 C134.91 33.09, 143.68 24.54, 160.8 3.31 M128 41.04 C137.15 31.13, 146.74 20.81, 160.8 3.31 M133.64 40.65 C141.78 31.19, 154.55 19.5, 166.44 2.91 M133.64 40.65 C142.66 31.11, 152.46 20.75, 166.44 2.91 M138.63 41.01 C149.1 28.66, 157.67 17.46, 171.43 3.27 M138.63 41.01 C145.77 31.52, 151.95 23.15, 171.43 3.27 M144.27 40.61 C154.14 29.96, 163.02 19.27, 177.07 2.88 M144.27 40.61 C153.68 29.76, 163.18 19.51, 177.07 2.88 M149.26 40.97 C158.2 30.77, 162.85 22.18, 182.06 3.24 M149.26 40.97 C160.98 25.23, 175.42 11.11, 182.06 3.24 M154.9 40.58 C166.9 24.93, 180.71 11.94, 187.7 2.84 M154.9 40.58 C161.57 34.15, 168.24 24.71, 187.7 2.84 M159.89 40.94 C169.41 29.59, 177.5 18.33, 190.72 5.47 M159.89 40.94 C168.69 31.72, 176.26 22.67, 190.72 5.47 M165.53 40.54 C172.12 30.08, 182.89 23.13, 190.46 11.86 M165.53 40.54 C170.26 33.72, 175.45 28.27, 190.46 11.86 M170.52 40.9 C177.75 33.03, 182.62 26.78, 190.2 18.26 M170.52 40.9 C174.53 36.58, 179.41 29.72, 190.2 18.26 M175.51 41.26 C182.97 35.52, 187.04 27.36, 190.59 23.91 M175.51 41.26 C179.06 36.06, 183.52 31.82, 190.59 23.91 M181.8 40.11 C184.1 36.07, 188.01 33.65, 190.33 30.3 M181.8 40.11 C184.38 37, 188.25 32.71, 190.33 30.3" stroke="#fa5252" stroke-width="0.5" fill="none"></path><path d="M10 0 M10 0 C52.53 -1.34, 98.21 -0.25, 181 0 M10 0 C52.76 -1.78, 95.8 -2.14, 181 0 M181 0 C187.7 -1.31, 192.03 4.06, 191 10 M181 0 C188.82 -1.06, 192.11 2.09, 191 10 M191 10 C191.15 16.49, 189.69 21.01, 191 30 M191 10 C191.25 18.65, 189.97 25.18, 191 30 M191 30 C189.42 35.86, 186.44 39.23, 181 40 M191 30 C188.83 35.41, 186.3 40.83, 181 40 M181 40 C145.62 38.51, 108.52 38.64, 10 40 M181 40 C113.79 38.32, 47.01 38.82, 10 40 M10 40 C2.96 40.47, 1.11 35.37, 0 30 M10 40 C2.93 40.12, 2.3 34.84, 0 30 M0 30 C1.39 21.85, 0.37 16.16, 0 10 M0 30 C0.32 22.51, -0.32 14.84, 0 10 M0 10 C0.28 2.18, 4.79 -1.88, 10 0 M0 10 C-0.62 2.86, 1.61 0.21, 10 0" stroke="#000000" stroke-width="1" fill="none"></path></g><g transform="translate(60.50001525878906 48.53819274902344) rotate(0 70.3125 12)"><text x="70.3125" y="0" font-family="Cascadia, Segoe UI Emoji" font-size="20px" fill="#000000" text-anchor="middle" style="white-space: pre;" direction="ltr" dominant-baseline="text-before-edge">wasm nanoapp</text></g><g stroke-linecap="round" transform="translate(240.986083984375 170.6527862548828) rotate(0 80 29)"><path d="M2 5.71 C2 5.71, 2 5.71, 2 5.71 M2 5.71 C2 5.71, 2 5.71, 2 5.71 M1.74 12.11 C4.97 8.65, 7.19 6.15, 8.3 4.56 M1.74 12.11 C4.13 10.11, 5.99 7.14, 8.3 4.56 M1.47 18.51 C3.95 13.02, 9.35 11.2, 16.56 1.15 M1.47 18.51 C6.57 14.27, 10.05 8.6, 16.56 1.15 M1.87 24.15 C6.96 17.73, 13.1 7.74, 21.55 1.51 M1.87 24.15 C8.66 15.9, 15.94 7.94, 21.55 1.51 M1.61 30.55 C6.86 24.63, 15.87 15.83, 26.54 1.87 M1.61 30.55 C10.46 21.2, 17.96 9.88, 26.54 1.87 M1.35 36.95 C8.65 28.09, 12.61 20.77, 32.18 1.47 M1.35 36.95 C11.44 24.48, 21.69 13.88, 32.18 1.47 M1.74 42.59 C14.76 30.41, 23.67 18.39, 37.17 1.83 M1.74 42.59 C14.33 27.54, 27.45 14.34, 37.17 1.83 M2.14 48.23 C16.64 31.2, 31 13.87, 42.81 1.44 M2.14 48.23 C13.73 34.64, 26.65 19.82, 42.81 1.44 M3.84 52.37 C21.28 32.02, 36.29 16.78, 47.8 1.8 M3.84 52.37 C14.25 41.23, 23.05 29.65, 47.8 1.8 M5.55 56.5 C15.09 43.1, 27.17 29.35, 53.44 1.41 M5.55 56.5 C23.99 37.26, 40.07 16.22, 53.44 1.41 M9.22 58.37 C19.75 44.84, 31.42 32.96, 58.43 1.77 M9.22 58.37 C22.62 43.64, 35.59 27.74, 58.43 1.77 M14.87 57.97 C29.08 39.79, 45.9 22.21, 63.42 2.13 M14.87 57.97 C31.09 38.46, 50.2 18.29, 63.42 2.13 M19.85 58.33 C33.83 42.45, 46.92 25.75, 69.06 1.73 M19.85 58.33 C32.8 44.67, 44.65 31.28, 69.06 1.73 M25.5 57.94 C40.97 39.72, 57.26 22.56, 74.05 2.09 M25.5 57.94 C40.22 40.67, 56.53 22.78, 74.05 2.09 M30.48 58.3 C42.05 47.27, 54.13 32.5, 79.69 1.7 M30.48 58.3 C45.13 41.2, 59.78 23.56, 79.69 1.7 M35.47 58.66 C52.01 38.97, 66.17 24.26, 84.68 2.06 M35.47 58.66 C54.59 37.09, 75.48 13.63, 84.68 2.06 M41.11 58.27 C60.06 39.09, 79.15 17.67, 90.32 1.66 M41.11 58.27 C51.06 46.09, 61.49 35.36, 90.32 1.66 M46.1 58.63 C62.77 40, 79.59 20.81, 95.31 2.02 M46.1 58.63 C63.23 39.1, 79.99 19.24, 95.31 2.02 M51.74 58.23 C65.79 44.59, 75.91 29.31, 100.29 2.38 M51.74 58.23 C69.38 38.5, 86.66 17.91, 100.29 2.38 M56.73 58.59 C73.14 39.23, 87.1 24.98, 105.94 1.99 M56.73 58.59 C70.74 44.76, 83.13 29.69, 105.94 1.99 M62.37 58.2 C78.4 43.82, 89.44 24.49, 110.92 2.35 M62.37 58.2 C77.26 39.1, 94.57 21.96, 110.92 2.35 M67.36 58.56 C77.35 45.86, 91.92 30.94, 116.57 1.95 M67.36 58.56 C78.01 45.18, 89.26 33.07, 116.57 1.95 M72.35 58.92 C89.73 36.9, 106.54 18.58, 121.55 2.31 M72.35 58.92 C89.94 37.95, 107.22 18.19, 121.55 2.31 M77.99 58.52 C89.27 45.28, 97.39 35.76, 127.2 1.92 M77.99 58.52 C90.08 45.06, 103.15 29.42, 127.2 1.92 M82.98 58.88 C97.17 42.7, 111.3 27.06, 132.18 2.28 M82.98 58.88 C95.31 44.97, 107.97 29.72, 132.18 2.28 M88.62 58.49 C102.2 40.33, 117.61 22.6, 137.17 2.64 M88.62 58.49 C105.86 37.97, 122.4 18.64, 137.17 2.64 M93.61 58.85 C104.58 43.48, 119.6 32.69, 142.81 2.24 M93.61 58.85 C106.23 43.98, 121.09 28.05, 142.81 2.24 M99.25 58.45 C116.23 39.01, 130.85 24.42, 147.8 2.6 M99.25 58.45 C113.95 43.56, 125.47 27.51, 147.8 2.6 M104.24 58.81 C115.21 45.47, 126.71 31.29, 153.44 2.21 M104.24 58.81 C116.42 43.97, 128.57 30.35, 153.44 2.21 M109.23 59.17 C122.46 45.84, 135.03 28.63, 157.12 4.08 M109.23 59.17 C125.88 39.21, 143.34 18.59, 157.12 4.08 M114.87 58.78 C124.36 47.74, 135.76 36.17, 158.82 8.21 M114.87 58.78 C127.2 45.3, 139.97 31.33, 158.82 8.21 M119.86 59.14 C130.3 47, 145.33 32.7, 160.53 12.35 M119.86 59.14 C131.1 47.17, 143.05 34.35, 160.53 12.35 M125.5 58.74 C136.77 45.49, 146.13 33.38, 160.93 17.99 M125.5 58.74 C133.2 48.58, 139.97 39.54, 160.93 17.99 M130.49 59.1 C139.54 49.37, 147.62 39.6, 160.66 24.39 M130.49 59.1 C139.13 49.12, 147.88 39.74, 160.66 24.39 M136.13 58.71 C143.03 50.7, 145.71 44.39, 160.4 30.79 M136.13 58.71 C144.58 46.86, 155.69 36.57, 160.4 30.79 M141.12 59.07 C148.12 49.26, 156.89 42.08, 160.14 37.18 M141.12 59.07 C145.06 55.76, 148.93 49.53, 160.14 37.18 M146.76 58.68 C151.27 53.11, 154.41 47.55, 160.54 42.83 M146.76 58.68 C150.89 54.72, 153.78 51.05, 160.54 42.83" stroke="#228be6" stroke-width="0.5" fill="none"></path><path d="M14.5 0 M14.5 0 C56.36 -0.94, 102.22 1.61, 145.5 0 M14.5 0 C42.49 -0.58, 70.91 0.24, 145.5 0 M145.5 0 C155.26 -1.18, 161.25 5.94, 160 14.5 M145.5 0 C154.18 -0.02, 159.75 3.11, 160 14.5 M160 14.5 C162.1 21.92, 158.58 30.91, 160 43.5 M160 14.5 C160.14 21.32, 159.24 27.35, 160 43.5 M160 43.5 C159.55 54.27, 154.47 56.66, 145.5 58 M160 43.5 C160.55 52.12, 156.52 58.02, 145.5 58 M145.5 58 C114.8 58.23, 84.99 57.48, 14.5 58 M145.5 58 C112.32 57.98, 77.51 59.67, 14.5 58 M14.5 58 C4.63 57.19, -1.51 54.7, 0 43.5 M14.5 58 C4.34 56.83, 0.34 55.08, 0 43.5 M0 43.5 C-1.33 34.39, -1.21 26.24, 0 14.5 M0 43.5 C0.34 33.21, -0.3 23.8, 0 14.5 M0 14.5 C1.31 5.02, 5.63 -1.27, 14.5 0 M0 14.5 C-0.44 6.98, 3.94 0.18, 14.5 0" stroke="#000000" stroke-width="1" fill="none"></path></g><g transform="translate(279.970458984375 178.6527862548828) rotate(0 41.015625 24)"><text x="41.015625" y="0" font-family="Cascadia, Segoe UI Emoji" font-size="20px" fill="#000000" text-anchor="middle" style="white-space: pre;" direction="ltr" dominant-baseline="text-before-edge">native </text><text x="41.015625" y="24" font-family="Cascadia, Segoe UI Emoji" font-size="20px" fill="#000000" text-anchor="middle" style="white-space: pre;" direction="ltr" dominant-baseline="text-before-edge">nanoapp</text></g><g stroke-linecap="round" transform="translate(32.541778564453125 85.76388549804688) rotate(0 99.5 30)"><path d="M3.99 3.47 C3.99 3.47, 3.99 3.47, 3.99 3.47 M3.99 3.47 C3.99 3.47, 3.99 3.47, 3.99 3.47 M1.11 12.89 C4.77 9.39, 6.25 6.81, 10.29 2.32 M1.11 12.89 C3.38 9.94, 6.39 7.2, 10.29 2.32 M1.5 18.53 C3.47 15.34, 8.59 10.74, 16.59 1.17 M1.5 18.53 C5.95 13.3, 10 8.19, 16.59 1.17 M1.24 24.93 C7.69 18.55, 12.87 13.21, 21.58 1.53 M1.24 24.93 C6.48 19.34, 10.13 13.71, 21.58 1.53 M1.63 30.57 C12.54 19.5, 18.82 8.62, 27.22 1.14 M1.63 30.57 C11.23 18.63, 21.73 7.23, 27.22 1.14 M1.37 36.97 C8.64 26, 19.13 16.09, 32.21 1.5 M1.37 36.97 C10.01 27.51, 18.2 18.81, 32.21 1.5 M1.11 43.37 C12.03 31.01, 25 17.54, 37.85 1.1 M1.11 43.37 C9.99 31.83, 20.47 22.11, 37.85 1.1 M1.51 49.01 C13.72 35.96, 23 22.19, 42.84 1.46 M1.51 49.01 C13.69 35.69, 23.81 23.52, 42.84 1.46 M3.21 53.14 C13.84 40.47, 21.32 28.3, 47.83 1.82 M3.21 53.14 C15.69 38.74, 27.18 24.64, 47.83 1.82 M4.92 57.28 C20.09 37.86, 37.96 22.23, 53.47 1.43 M4.92 57.28 C19.63 40.4, 35.14 23.12, 53.47 1.43 M8.59 59.15 C24.15 43.04, 36.56 26.23, 58.46 1.79 M8.59 59.15 C23.73 41.83, 36.95 25, 58.46 1.79 M13.58 59.51 C30.42 41.14, 50.99 20.35, 64.1 1.39 M13.58 59.51 C24.6 47.43, 35.8 34.69, 64.1 1.39 M19.22 59.11 C34.03 39.19, 51.08 22.03, 69.09 1.75 M19.22 59.11 C33.72 40.68, 50.12 23.01, 69.09 1.75 M24.21 59.47 C38.97 40.26, 57.28 20.55, 74.73 1.36 M24.21 59.47 C41.99 40.51, 58.61 20.62, 74.73 1.36 M29.85 59.08 C42.94 44.27, 52.92 33.03, 79.72 1.72 M29.85 59.08 C41.98 46.33, 52.63 33.65, 79.72 1.72 M34.84 59.44 C52.83 37.29, 70.2 19.79, 85.36 1.33 M34.84 59.44 C46.06 45.65, 58.78 30.02, 85.36 1.33 M40.49 59.04 C58.54 35.71, 78.78 15.3, 90.35 1.69 M40.49 59.04 C53.63 44.31, 67.32 27.86, 90.35 1.69 M45.47 59.4 C58.57 46.65, 69.86 30.83, 95.33 2.05 M45.47 59.4 C55.91 45.49, 69.04 32.69, 95.33 2.05 M50.46 59.76 C63.59 43.27, 77.43 30.87, 100.98 1.65 M50.46 59.76 C65.88 41.16, 81.87 23.33, 100.98 1.65 M56.1 59.37 C73.55 39.22, 89.05 20.63, 105.96 2.01 M56.1 59.37 C73.63 38.02, 93.42 16.86, 105.96 2.01 M61.09 59.73 C74.55 40.33, 90.44 22.73, 111.61 1.62 M61.09 59.73 C72.82 45.75, 85.77 31.57, 111.61 1.62 M66.73 59.33 C80.43 43.16, 93.46 31.46, 116.59 1.98 M66.73 59.33 C79.46 45.09, 92.76 29.68, 116.59 1.98 M71.72 59.69 C87.4 41.32, 106.09 20.82, 122.24 1.58 M71.72 59.69 C90.4 38.83, 107.68 19.04, 122.24 1.58 M77.36 59.3 C97.49 37.22, 115.73 15.09, 127.22 1.94 M77.36 59.3 C92.41 40.66, 108.79 22.18, 127.22 1.94 M82.35 59.66 C97.28 40.22, 115.44 25.46, 132.87 1.55 M82.35 59.66 C98.33 39.31, 117.05 20.23, 132.87 1.55 M87.99 59.27 C108.49 37.56, 126.28 13.94, 137.85 1.91 M87.99 59.27 C100.04 44.51, 112.93 29.25, 137.85 1.91 M92.98 59.63 C113.12 38.64, 129.8 17.27, 142.84 2.27 M92.98 59.63 C108.54 41.6, 124.13 23.08, 142.84 2.27 M97.97 59.99 C111 47.78, 120.63 31.76, 148.48 1.87 M97.97 59.99 C108.43 47.26, 121.24 35.39, 148.48 1.87 M103.61 59.59 C118.96 42.17, 129.94 29.32, 153.47 2.23 M103.61 59.59 C116.27 45.76, 126.62 32.74, 153.47 2.23 M108.6 59.95 C119.4 47.81, 132.85 33.07, 159.11 1.84 M108.6 59.95 C122.19 45.11, 132.96 30.76, 159.11 1.84 M114.24 59.56 C124.16 47.5, 135.97 36, 164.1 2.2 M114.24 59.56 C133.66 37.18, 152.95 14.53, 164.1 2.2 M119.23 59.92 C131.28 48.01, 139.9 32.26, 169.74 1.8 M119.23 59.92 C139.53 36.22, 159.44 14.8, 169.74 1.8 M124.87 59.52 C139.28 43.27, 153.14 25.06, 174.73 2.16 M124.87 59.52 C142.52 39.72, 161.08 18.57, 174.73 2.16 M129.86 59.88 C142.21 43.39, 158.63 24.57, 179.72 2.52 M129.86 59.88 C141.18 47.03, 151.08 34.52, 179.72 2.52 M135.5 59.49 C148.38 44.43, 158.95 29.99, 185.36 2.13 M135.5 59.49 C150.15 43.34, 164.97 25.74, 185.36 2.13 M140.49 59.85 C156.76 43.47, 172.77 23.55, 191 1.74 M140.49 59.85 C155.74 41.4, 171.23 25.43, 191 1.74 M145.47 60.21 C158.18 43.66, 174.99 29.44, 194.68 3.6 M145.47 60.21 C162.62 39.87, 180.61 19.7, 194.68 3.6 M151.12 59.81 C162.86 49.63, 171.56 36.24, 197.7 6.23 M151.12 59.81 C167.28 42.65, 183.13 23.2, 197.7 6.23 M156.1 60.17 C170.79 46.17, 183.76 31.48, 199.4 10.36 M156.1 60.17 C170.32 42.78, 185.67 27.26, 199.4 10.36 M161.75 59.78 C174.89 44.61, 187.15 31.67, 201.77 13.74 M161.75 59.78 C170.02 49.54, 178 40.98, 201.77 13.74 M166.73 60.14 C173.75 49.09, 182.43 42.16, 201.51 20.14 M166.73 60.14 C173.96 52.4, 181.91 42.37, 201.51 20.14 M172.38 59.74 C180.88 48.11, 191.55 37.68, 201.24 26.54 M172.38 59.74 C181.72 47.73, 193.31 37.16, 201.24 26.54 M177.36 60.1 C185.04 52.93, 190.52 45.37, 200.98 32.93 M177.36 60.1 C186.98 49.94, 196.15 37.68, 200.98 32.93 M182.35 60.46 C188.53 57.14, 191.76 49.92, 201.38 38.58 M182.35 60.46 C188.29 52.52, 195.04 45.83, 201.38 38.58 M186.03 62.33 C188.42 57.21, 192.98 54.41, 201.12 44.98 M186.03 62.33 C190.42 57.88, 195.82 52.63, 201.12 44.98" stroke="#fd7e14" stroke-width="0.5" fill="none"></path><path d="M15 0 M15 0 C76.69 0.43, 137.63 0.62, 184 0 M15 0 C74.37 2.64, 133 2.16, 184 0 M184 0 C195.93 1.37, 200.96 5.84, 199 15 M184 0 C195.06 0.23, 200.44 6.02, 199 15 M199 15 C197.64 23.62, 198.78 29.17, 199 45 M199 15 C199.69 23.28, 199.33 31.72, 199 45 M199 45 C200.91 54.46, 192.52 61.82, 184 60 M199 45 C198.2 55.94, 192.17 60.04, 184 60 M184 60 C121.86 60.22, 64.84 60.42, 15 60 M184 60 C145.96 62.21, 108.75 61.68, 15 60 M15 60 C5.76 61.19, 1.94 53.88, 0 45 M15 60 C3.71 58.76, -0.76 55.14, 0 45 M0 45 C1.36 37.43, -1.57 32.28, 0 15 M0 45 C0.06 35.76, 0.08 28.01, 0 15 M0 15 C1.56 4.98, 6.36 0.53, 15 0 M0 15 C-2.18 4.77, 6.3 -1.3, 15 0" stroke="#000000" stroke-width="1" fill="none"></path></g><g transform="translate(61.729278564453125 91.76388549804688) rotate(0 70.3125 24)"><text x="70.3125" y="0" font-family="Cascadia, Segoe UI Emoji" font-size="20px" fill="#000000" text-anchor="middle" style="white-space: pre;" direction="ltr" dominant-baseline="text-before-edge">CHRE API</text><text x="70.3125" y="24" font-family="Cascadia, Segoe UI Emoji" font-size="20px" fill="#000000" text-anchor="middle" style="white-space: pre;" direction="ltr" dominant-baseline="text-before-edge">wasm wrapper</text></g><g stroke-linecap="round" transform="translate(28.993072509765625 170.1041717529297) rotate(0 101.5538101196289 29)"><path d="M2 5.71 C2 5.71, 2 5.71, 2 5.71 M2 5.71 C2 5.71, 2 5.71, 2 5.71 M1.74 12.11 C5.08 9.11, 7.48 6.69, 8.3 4.56 M1.74 12.11 C4.36 9.47, 5.55 7.45, 8.3 4.56 M1.47 18.51 C5.14 12.94, 7.9 10.2, 16.56 1.15 M1.47 18.51 C6.48 11.62, 11.67 6.57, 16.56 1.15 M1.87 24.15 C5.24 20.85, 11.41 14.93, 21.55 1.51 M1.87 24.15 C8.38 18.32, 12.88 10.99, 21.55 1.51 M1.61 30.55 C7.47 22.56, 17.01 12.11, 26.54 1.87 M1.61 30.55 C10.48 20.15, 18.77 9.47, 26.54 1.87 M1.35 36.95 C13.22 21.41, 26.48 8.08, 32.18 1.47 M1.35 36.95 C8.98 27.29, 16.16 18.72, 32.18 1.47 M1.74 42.59 C14.94 27.45, 28.22 13.91, 37.17 1.83 M1.74 42.59 C10.37 33.56, 19.21 23.6, 37.17 1.83 M2.14 48.23 C14.1 34.55, 22.5 25.87, 42.81 1.44 M2.14 48.23 C14.87 34.77, 25.38 21.58, 42.81 1.44 M3.84 52.37 C21.79 31.71, 37.48 12.46, 47.8 1.8 M3.84 52.37 C18.66 34.84, 34.04 16.43, 47.8 1.8 M5.55 56.5 C19.43 39.72, 31.69 27.39, 53.44 1.41 M5.55 56.5 C18.79 41.01, 29.96 26.79, 53.44 1.41 M9.22 58.37 C20.47 42.77, 33.94 29.88, 58.43 1.77 M9.22 58.37 C19.82 47.18, 29.31 35.46, 58.43 1.77 M14.87 57.97 C34.28 35.41, 54.29 14.45, 63.42 2.13 M14.87 57.97 C27.74 41.83, 42.09 27.3, 63.42 2.13 M19.85 58.33 C29.8 47.36, 40.16 33.85, 69.06 1.73 M19.85 58.33 C35.3 40.91, 50.4 22.59, 69.06 1.73 M25.5 57.94 C43.91 36.75, 58.95 18.62, 74.05 2.09 M25.5 57.94 C35.62 45.2, 46.38 33.9, 74.05 2.09 M30.48 58.3 C49.63 35.79, 65.17 18.69, 79.69 1.7 M30.48 58.3 C43.86 43.25, 57.87 26.66, 79.69 1.7 M35.47 58.66 C45.34 44.64, 57.13 32.02, 84.68 2.06 M35.47 58.66 C46.15 46.23, 57.99 32.09, 84.68 2.06 M41.11 58.27 C57.18 37.01, 76.94 15.36, 90.32 1.66 M41.11 58.27 C58.82 38.88, 76.55 17.99, 90.32 1.66 M46.1 58.63 C59.54 40.34, 75.12 26.84, 95.31 2.02 M46.1 58.63 C65.76 37.45, 83.85 14.09, 95.31 2.02 M51.74 58.23 C70.1 41.9, 83.69 21.44, 100.95 1.63 M51.74 58.23 C64.09 43.37, 77.32 29.99, 100.95 1.63 M56.73 58.59 C74.04 40.12, 91.47 16.02, 105.94 1.99 M56.73 58.59 C70.49 42.83, 83.91 28.08, 105.94 1.99 M62.37 58.2 C79.65 37.4, 98.23 15.94, 110.92 2.35 M62.37 58.2 C79 39.8, 95.82 19.75, 110.92 2.35 M67.36 58.56 C78.61 46.42, 88.47 33.13, 116.57 1.95 M67.36 58.56 C86.88 36.92, 105.25 15.11, 116.57 1.95 M73 58.16 C82.28 44.68, 95.87 33.13, 121.55 2.31 M73 58.16 C86.38 41.77, 99.45 27.58, 121.55 2.31 M77.99 58.52 C90.32 45.51, 101.96 29.5, 127.2 1.92 M77.99 58.52 C93.52 41.45, 108.29 23.06, 127.2 1.92 M82.98 58.88 C95.26 44.46, 108.63 30.92, 132.18 2.28 M82.98 58.88 C98.27 40.51, 115.82 22.04, 132.18 2.28 M88.62 58.49 C102.73 38.99, 118.33 20.62, 137.83 1.88 M88.62 58.49 C107.75 35.66, 127.14 14.77, 137.83 1.88 M93.61 58.85 C113.73 37.38, 130.95 17.03, 142.81 2.24 M93.61 58.85 C108.24 43.25, 123.3 26.07, 142.81 2.24 M99.25 58.45 C113.43 40.32, 132.75 21.68, 148.46 1.85 M99.25 58.45 C110.79 45.67, 122.91 32.25, 148.46 1.85 M104.24 58.81 C123.8 35.92, 141.95 15.01, 153.44 2.21 M104.24 58.81 C121.67 39.43, 138.28 19.5, 153.44 2.21 M109.88 58.42 C126.36 39.5, 142.03 19.58, 158.43 2.57 M109.88 58.42 C130.45 36.03, 147.84 14.39, 158.43 2.57 M114.87 58.78 C132.35 41.29, 147.41 25.34, 164.07 2.18 M114.87 58.78 C125.55 45.91, 136 34, 164.07 2.18 M120.51 58.38 C134.22 39.57, 149.22 25.35, 169.06 2.54 M120.51 58.38 C136.2 41.93, 150.14 24.7, 169.06 2.54 M125.5 58.74 C137.95 43.12, 153.87 26.64, 174.7 2.14 M125.5 58.74 C137.11 47.82, 147.53 35.37, 174.7 2.14 M130.49 59.1 C142.91 42.65, 155.77 27.84, 179.69 2.5 M130.49 59.1 C147.18 39.23, 163.68 20.37, 179.69 2.5 M136.13 58.71 C154.6 37.95, 173.57 19.13, 185.33 2.11 M136.13 58.71 C152.89 38.91, 170.53 18.95, 185.33 2.11 M141.12 59.07 C153.94 42.41, 172.95 24.45, 190.32 2.47 M141.12 59.07 C158.71 39.42, 175.34 19.37, 190.32 2.47 M146.76 58.68 C164.89 38.36, 180.77 19.44, 195.96 2.07 M146.76 58.68 C160.16 42.76, 175.72 26.41, 195.96 2.07 M151.75 59.04 C168.09 37.68, 187.32 19.06, 199.64 3.94 M151.75 59.04 C169.06 39.48, 184.47 20.49, 199.64 3.94 M157.39 58.64 C170.49 41.31, 189 22.66, 201.35 8.08 M157.39 58.64 C173.65 41.22, 189.9 22.06, 201.35 8.08 M162.38 59 C172.84 45.58, 184.66 34.04, 203.71 11.45 M162.38 59 C178.23 40.88, 195.2 23.67, 203.71 11.45 M168.02 58.61 C179.45 46.47, 191.96 32.71, 203.45 17.85 M168.02 58.61 C180.54 44.77, 191.81 31.33, 203.45 17.85 M173.01 58.97 C181.75 50.87, 186.62 42.46, 203.19 24.25 M173.01 58.97 C181.21 49.27, 192.05 38.91, 203.19 24.25 M177.99 59.33 C184.26 53.08, 188 45.57, 202.92 30.65 M177.99 59.33 C184.24 52.09, 191.53 44.37, 202.92 30.65 M183.64 58.93 C189.75 53.62, 194.76 44.31, 203.32 36.29 M183.64 58.93 C191.56 51.1, 199.48 40.89, 203.32 36.29 M189.28 58.54 C195.01 52.71, 199.5 49.73, 203.06 42.69 M189.28 58.54 C192.3 54.57, 196.47 49.18, 203.06 42.69 M195.58 57.39 C197.67 54.44, 200.52 51.81, 202.8 49.09 M195.58 57.39 C197.66 55.43, 199.65 52.05, 202.8 49.09" stroke="#fab005" stroke-width="0.5" fill="none"></path><path d="M14.5 0 M14.5 0 C62.62 2.69, 114.25 2.56, 188.61 0 M14.5 0 C67.46 -1.49, 120.56 -1.07, 188.61 0 M188.61 0 C196.9 1.08, 203.77 6.66, 203.11 14.5 M188.61 0 C199.9 0.69, 203.37 5.33, 203.11 14.5 M203.11 14.5 C202.31 22.47, 201.36 33.05, 203.11 43.5 M203.11 14.5 C202.27 23.01, 202.26 32.59, 203.11 43.5 M203.11 43.5 C203.43 52.95, 199.68 57.59, 188.61 58 M203.11 43.5 C204.74 51.67, 198.75 59.49, 188.61 58 M188.61 58 C130.59 57.95, 75.25 59.73, 14.5 58 M188.61 58 C129.42 57.09, 72.04 57.98, 14.5 58 M14.5 58 C5.17 58.21, 0.12 51.54, 0 43.5 M14.5 58 C5.27 56.94, -0.24 54.01, 0 43.5 M0 43.5 C2.03 35.91, -1.5 28.13, 0 14.5 M0 43.5 C0 36.75, 0.88 30.16, 0 14.5 M0 14.5 C-1.04 2.92, 4.98 -0.04, 14.5 0 M0 14.5 C-0.04 4.01, 4.45 -0.3, 14.5 0" stroke="#000000" stroke-width="1" fill="none"></path></g><g transform="translate(48.51563262939453 175.1041717529297) rotate(0 82.03125 24)"><text x="82.03125" y="0" font-family="Cascadia, Segoe UI Emoji" font-size="20px" fill="#000000" text-anchor="middle" style="white-space: pre;" direction="ltr" dominant-baseline="text-before-edge">CHRE API</text><text x="82.03125" y="24" font-family="Cascadia, Segoe UI Emoji" font-size="20px" fill="#000000" text-anchor="middle" style="white-space: pre;" direction="ltr" dominant-baseline="text-before-edge">native wrapper</text></g><g stroke-linecap="round" transform="translate(29.10248565673828 238.65626525878906) rotate(0 189.5 29)"><path d="M3.86 3.36 C3.86 3.36, 3.86 3.36, 3.86 3.36 M3.86 3.36 C3.86 3.36, 3.86 3.36, 3.86 3.36 M2.94 10.51 C6.62 7.21, 9.26 4.55, 10.16 2.21 M2.94 10.51 C5.83 7.6, 7.14 5.38, 10.16 2.21 M2.68 16.91 C6.06 11.68, 8.53 9.27, 16.46 1.06 M2.68 16.91 C7.23 10.53, 11.97 6.01, 16.46 1.06 M3.08 22.55 C6.15 19.6, 12.02 14.02, 21.44 1.42 M3.08 22.55 C9.19 17.16, 13.3 10.28, 21.44 1.42 M2.81 28.95 C8.27 21.41, 17.41 11.41, 26.43 1.78 M2.81 28.95 C11.22 19.09, 19.03 8.95, 26.43 1.78 M3.21 34.59 C14.31 19.94, 26.82 7.48, 32.07 1.38 M3.21 34.59 C10.37 25.51, 17.05 17.52, 32.07 1.38 M3.6 40.23 C16.09 25.88, 28.67 13.15, 37.06 1.74 M3.6 40.23 C11.76 31.73, 20.13 22.3, 37.06 1.74 M3.34 46.63 C14.96 33.35, 23.02 25.06, 42.71 1.35 M3.34 46.63 C15.69 33.6, 25.82 20.84, 42.71 1.35 M3.74 52.27 C21.69 31.62, 37.38 12.37, 47.69 1.71 M3.74 52.27 C18.55 34.75, 33.93 16.33, 47.69 1.71 M5.44 56.41 C19.32 39.63, 31.58 27.3, 53.34 1.31 M5.44 56.41 C18.69 40.91, 29.85 26.69, 53.34 1.31 M9.77 57.52 C20.84 42.11, 34.15 29.42, 58.32 1.67 M9.77 57.52 C20.23 46.49, 29.59 34.92, 58.32 1.67 M13.45 59.39 C33.64 35.95, 54.43 14.1, 63.97 1.28 M13.45 59.39 C26.87 42.6, 41.77 27.43, 63.97 1.28 M18.44 59.75 C28.67 48.45, 39.31 34.61, 68.95 1.64 M18.44 59.75 C34.28 41.85, 49.79 23.06, 68.95 1.64 M24.08 59.36 C43.18 37.38, 58.91 18.46, 74.6 1.24 M24.08 59.36 C34.64 46.13, 45.84 34.32, 74.6 1.24 M29.07 59.72 C48.68 36.65, 64.71 19.01, 79.58 1.6 M29.07 59.72 C42.8 44.25, 57.18 27.24, 79.58 1.6 M34.71 59.32 C44.87 44.96, 56.96 32, 85.23 1.21 M34.71 59.32 C45.68 46.54, 57.82 32.06, 85.23 1.21 M39.7 59.68 C56.23 37.88, 76.46 15.68, 90.21 1.57 M39.7 59.68 C57.87 39.76, 76.05 18.35, 90.21 1.57 M45.34 59.29 C59.18 40.56, 75.14 26.61, 95.86 1.18 M45.34 59.29 C65.51 37.52, 84.12 13.57, 95.86 1.18 M50.33 59.65 C69.13 42.83, 83.15 21.87, 100.84 1.54 M50.33 59.65 C63 44.4, 76.56 30.65, 100.84 1.54 M55.31 60.01 C73.34 40.72, 91.48 15.8, 106.49 1.14 M55.31 60.01 C69.62 43.64, 83.57 28.27, 106.49 1.14 M60.96 59.61 C78.93 37.97, 98.24 15.67, 111.47 1.5 M60.96 59.61 C78.26 40.45, 95.73 19.65, 111.47 1.5 M65.94 59.97 C77.49 47.47, 87.65 33.83, 116.46 1.86 M65.94 59.97 C85.96 37.76, 104.84 15.37, 116.46 1.86 M71.59 59.58 C81.31 45.57, 95.36 33.5, 122.1 1.47 M71.59 59.58 C85.49 42.56, 99.09 27.76, 122.1 1.47 M76.57 59.94 C89.23 46.56, 101.19 30.19, 127.09 1.83 M76.57 59.94 C92.52 42.41, 107.7 23.55, 127.09 1.83 M82.22 59.54 C94.81 44.77, 108.51 30.86, 132.73 1.43 M82.22 59.54 C97.93 40.68, 115.91 21.72, 132.73 1.43 M87.2 59.9 C101.73 39.94, 117.76 21.07, 137.72 1.79 M87.2 59.9 C106.85 36.49, 126.75 15, 137.72 1.79 M92.85 59.51 C113.46 37.46, 131.18 16.53, 143.36 1.4 M92.85 59.51 C107.86 43.48, 123.3 25.87, 143.36 1.4 M97.83 59.87 C112.44 41.24, 132.19 22.1, 148.35 1.76 M97.83 59.87 C109.68 46.72, 122.1 32.95, 148.35 1.76 M103.48 59.48 C123.55 35.97, 142.23 14.46, 153.99 1.36 M103.48 59.48 C121.37 39.57, 138.43 19.11, 153.99 1.36 M108.46 59.84 C125.61 40.14, 141.94 19.47, 158.98 1.72 M108.46 59.84 C129.83 36.56, 148 14.02, 158.98 1.72 M114.11 59.44 C132 41.49, 147.47 25.08, 164.62 1.33 M114.11 59.44 C125.06 46.25, 135.8 34.01, 164.62 1.33 M119.09 59.8 C133.41 40.28, 149.03 25.35, 169.61 1.69 M119.09 59.8 C135.38 42.64, 149.92 24.73, 169.61 1.69 M124.74 59.41 C137.54 43.36, 153.84 26.46, 175.25 1.29 M124.74 59.41 C136.63 48.16, 147.34 35.4, 175.25 1.29 M129.72 59.77 C142.5 42.9, 155.7 27.69, 180.24 1.65 M129.72 59.77 C146.87 39.39, 163.81 20.01, 180.24 1.65 M135.37 59.37 C154.32 38.06, 173.77 18.69, 185.88 1.26 M135.37 59.37 C152.58 39.03, 170.69 18.54, 185.88 1.26 M140.35 59.73 C153.58 42.61, 172.98 24.18, 190.87 1.62 M140.35 59.73 C158.39 39.55, 175.48 18.97, 190.87 1.62 M145.34 60.09 C164.18 38.97, 180.77 19.22, 196.51 1.22 M145.34 60.09 C159.3 43.54, 175.42 26.54, 196.51 1.22 M150.98 59.7 C168.25 37.26, 188.41 17.57, 201.5 1.58 M150.98 59.7 C169.22 39.11, 185.52 19.09, 201.5 1.58 M155.97 60.06 C171.49 39.87, 192.45 18.39, 207.14 1.19 M155.97 60.06 C174.84 39.68, 193.66 17.57, 207.14 1.19 M161.61 59.66 C174.38 43.69, 188.44 29.57, 212.13 1.55 M161.61 59.66 C181.05 37.56, 201.53 16.32, 212.13 1.55 M166.6 60.02 C183.22 42.06, 200.75 22.51, 217.12 1.91 M166.6 60.02 C184.21 40.54, 200.4 21.43, 217.12 1.91 M172.24 59.63 C185.86 46.1, 195.5 32.2, 222.76 1.52 M172.24 59.63 C186.54 42.82, 203.5 25.42, 222.76 1.52 M177.23 59.99 C189.48 46.7, 199.27 32.23, 227.75 1.88 M177.23 59.99 C190.04 44.94, 204.17 29.34, 227.75 1.88 M182.87 59.59 C197.92 44.29, 211.86 24.7, 233.39 1.48 M182.87 59.59 C202.77 38.1, 222.61 14.18, 233.39 1.48 M187.86 59.95 C204.65 41.26, 220.6 25.09, 238.38 1.84 M187.86 59.95 C200.77 44.7, 214.58 28.23, 238.38 1.84 M193.5 59.56 C211.62 37.7, 231.39 16.12, 244.02 1.45 M193.5 59.56 C207.77 43.28, 222.24 24.68, 244.02 1.45 M198.49 59.92 C211.5 45.32, 227.91 28.63, 249.01 1.81 M198.49 59.92 C213.38 41.9, 228.98 24.68, 249.01 1.81 M204.13 59.53 C217.33 47.34, 227.79 32.71, 254.65 1.41 M204.13 59.53 C220.43 39.93, 235.48 20.75, 254.65 1.41 M209.12 59.89 C222.78 45.02, 233.7 30.81, 259.64 1.77 M209.12 59.89 C229.71 36.75, 249.7 13.32, 259.64 1.77 M214.76 59.49 C230.54 42.39, 245.99 20.58, 265.28 1.38 M214.76 59.49 C232.68 38.63, 249.81 17.32, 265.28 1.38 M219.75 59.85 C237.22 39.97, 252.7 20.3, 270.27 1.74 M219.75 59.85 C232.13 44.57, 246.45 31.12, 270.27 1.74 M225.39 59.46 C238.87 42.46, 255.33 26.74, 275.91 1.34 M225.39 59.46 C240.68 39.52, 257.51 21.78, 275.91 1.34 M230.38 59.82 C245.39 42.84, 262.46 27.22, 280.9 1.7 M230.38 59.82 C240.36 48.99, 250.68 36.42, 280.9 1.7 M236.02 59.42 C254.64 40.93, 269.85 19.31, 286.54 1.31 M236.02 59.42 C252.6 40.92, 268.49 22.85, 286.54 1.31 M241.01 59.78 C256.59 44.53, 271.72 27.91, 291.53 1.67 M241.01 59.78 C255.64 43.74, 270.23 26.9, 291.53 1.67 M246 60.14 C261.53 41.95, 275.59 28.19, 297.17 1.27 M246 60.14 C261.64 43.83, 276.35 26.32, 297.17 1.27 M251.64 59.75 C267.24 43.38, 277.39 30.86, 302.16 1.63 M251.64 59.75 C268.67 40.35, 286.38 19.57, 302.16 1.63 M256.63 60.11 C266.03 46.47, 278.74 31.68, 307.8 1.24 M256.63 60.11 C274.38 38.79, 295.21 17.25, 307.8 1.24 M262.27 59.71 C272.26 45.2, 287.13 31.32, 312.79 1.6 M262.27 59.71 C278.35 40.19, 295.7 21.31, 312.79 1.6 M267.26 60.07 C280.04 45.06, 296.05 29.15, 317.78 1.96 M267.26 60.07 C284.04 41.13, 300.36 23.49, 317.78 1.96 M272.9 59.68 C291.07 36.99, 310.4 15.2, 323.42 1.57 M272.9 59.68 C284.16 45.8, 295.37 32.05, 323.42 1.57 M277.89 60.04 C292.56 39.61, 309.15 20.88, 328.41 1.93 M277.89 60.04 C293.11 42.25, 306.77 25.71, 328.41 1.93 M283.53 59.64 C298.12 42.1, 313.58 22.89, 334.05 1.53 M283.53 59.64 C299.54 40.98, 315.78 21.39, 334.05 1.53 M288.52 60 C308 37.86, 329.41 13.87, 339.04 1.89 M288.52 60 C303.24 44.57, 316.29 29.04, 339.04 1.89 M294.16 59.61 C308.55 44.8, 321.28 29.94, 344.68 1.5 M294.16 59.61 C308.7 41.54, 323.8 25.71, 344.68 1.5 M299.15 59.97 C312.35 43.61, 325.56 28.77, 349.67 1.86 M299.15 59.97 C312.1 46.06, 322.54 32.67, 349.67 1.86 M304.79 59.57 C319.58 43.5, 334.31 28.94, 355.31 1.46 M304.79 59.57 C321.42 38.92, 339.2 19.77, 355.31 1.46 M309.78 59.93 C326.47 43.76, 340.16 26.51, 360.3 1.82 M309.78 59.93 C328.01 37.55, 346.48 16.01, 360.3 1.82 M315.42 59.54 C335.99 38.38, 356.19 15.29, 365.94 1.43 M315.42 59.54 C330.02 43.97, 344.12 26.9, 365.94 1.43 M320.41 59.9 C333.46 45.89, 345.25 33.9, 370.27 2.54 M320.41 59.9 C334.68 41.83, 349.49 26.25, 370.27 2.54 M326.05 59.51 C341.22 42.27, 356.39 24.54, 373.94 4.41 M326.05 59.51 C338 46.47, 348.47 32.51, 373.94 4.41 M331.04 59.87 C346.77 39.31, 365.64 21.23, 378.28 5.53 M331.04 59.87 C343.7 48.28, 353.7 35.29, 378.28 5.53 M336.68 59.47 C346.96 45.47, 359.36 34.43, 379.98 9.66 M336.68 59.47 C351.52 42.46, 366.81 24.18, 379.98 9.66 M341.67 59.83 C353.94 44.21, 367.4 31.02, 379.72 16.06 M341.67 59.83 C356.54 43.57, 371.67 24.53, 379.72 16.06 M346.66 60.19 C358.33 45.76, 373.16 29.64, 380.12 21.7 M346.66 60.19 C355.88 49.4, 365.43 39.77, 380.12 21.7 M352.3 59.8 C362.31 49.88, 369.68 37.33, 380.51 27.34 M352.3 59.8 C358.87 50.72, 366.81 43.1, 380.51 27.34 M357.29 60.16 C367.88 49.18, 376.35 38.17, 380.25 33.74 M357.29 60.16 C363.06 53.39, 368.58 46.01, 380.25 33.74 M362.93 59.76 C371.22 52.51, 376.48 46.11, 380.64 39.39 M362.93 59.76 C369.48 51.88, 377.57 43.26, 380.64 39.39 M367.26 60.88 C368.93 58.06, 372.24 54.05, 379.07 47.29 M367.26 60.88 C370.72 57.9, 372.62 53.18, 379.07 47.29" stroke="#ced4da" stroke-width="0.5" fill="none"></path><path d="M14.5 0 M14.5 0 C150.92 1.31, 287.78 0.04, 364.5 0 M14.5 0 C136.69 1.57, 259.52 1.88, 364.5 0 M364.5 0 C374.79 0.29, 380.37 6.46, 379 14.5 M364.5 0 C375.54 -0.84, 380.02 4.32, 379 14.5 M379 14.5 C380.68 24.26, 379.98 30.9, 379 43.5 M379 14.5 C378.68 22.23, 378.16 29.66, 379 43.5 M379 43.5 C377.05 51.74, 375.38 59.44, 364.5 58 M379 43.5 C377.73 54.98, 375.65 58.89, 364.5 58 M364.5 58 C245.89 58.27, 128.89 58.64, 14.5 58 M364.5 58 C242.51 59.37, 121.66 58.97, 14.5 58 M14.5 58 C6.72 59.65, -1.55 52.15, 0 43.5 M14.5 58 C4.69 57.95, 1.9 54.16, 0 43.5 M0 43.5 C2.08 34.69, 1.61 29.01, 0 14.5 M0 43.5 C-0.77 33.52, -0.52 24.14, 0 14.5 M0 14.5 C0.97 3.2, 4.97 0.99, 14.5 0 M0 14.5 C-1.52 3.34, 4.09 -0.7, 14.5 0" stroke="#000000" stroke-width="1" fill="none"></path></g><g transform="translate(195.16498565673828 255.65626525878906) rotate(0 23.4375 12)"><text x="23.4375" y="0" font-family="Cascadia, Segoe UI Emoji" font-size="20px" fill="#000000" text-anchor="middle" style="white-space: pre;" direction="ltr" dominant-baseline="text-before-edge">CHRE</text></g><g stroke-linecap="round"><g transform="translate(24.555572509765625 232.611068725586) rotate(0 250.90817937068644 1.3720963735133296)"><path d="M-0.34 0.51 C83.19 0.69, 418.5 1.94, 502.16 2.23" stroke="#000000" stroke-width="1.5" fill="none" stroke-dasharray="8 9"></path></g></g><mask></mask><g transform="translate(420.5487060546875 206.1597442626953) rotate(0 52.734375 12)"><text x="0" y="0" font-family="Cascadia, Segoe UI Emoji" font-size="20px" fill="#000000" text-anchor="start" style="white-space: pre;" direction="ltr" dominant-baseline="text-before-edge">CHRE APIs</text></g></svg>