<svg version="1.1" xmlns="http://www.w3.org/2000/svg" viewBox="0 0 905.6614379882812 512.589274720954" width="905.6614379882812" height="512.589274720954">
  <!-- svg-source:excalidraw -->
  
  <defs>
    <style class="style-fonts">
      @font-face {
        font-family: "Virgil";
        src: url("https://file%2B.vscode-resource.vscode-cdn.net/c%3A/Users/jiongqia/.vscode/extensions/pomdtr.excalidraw-editor-3.5.1/public//dist/excalidraw-assets/Virgil.woff2");
      }
      @font-face {
        font-family: "Cascadia";
        src: url("https://file%2B.vscode-resource.vscode-cdn.net/c%3A/Users/jiongqia/.vscode/extensions/pomdtr.excalidraw-editor-3.5.1/public//dist/excalidraw-assets/Cascadia.woff2");
      }
    </style>
  </defs>
  <rect x="0" y="0" width="905.6614379882812" height="512.589274720954" fill="#ffffff"></rect><g stroke-linecap="round" transform="translate(417.8176574707031 10.143196105957031) rotate(0 70.5 30)"><path d="M3.99 3.47 C3.99 3.47, 3.99 3.47, 3.99 3.47 M3.99 3.47 C3.99 3.47, 3.99 3.47, 3.99 3.47 M1.11 12.89 C2.86 10.1, 6.37 4.94, 10.29 2.32 M1.11 12.89 C3.7 8.84, 7.5 5.22, 10.29 2.32 M1.5 18.53 C6.07 12.83, 8.21 9.98, 16.59 1.17 M1.5 18.53 C7.09 10.78, 12.72 5.34, 16.59 1.17 M1.24 24.93 C7.98 17.33, 16.54 6.48, 21.58 1.53 M1.24 24.93 C8.77 16.75, 16.9 6.94, 21.58 1.53 M1.63 30.57 C10.15 20.82, 19.18 9.5, 27.22 1.14 M1.63 30.57 C9.61 21.7, 17.77 12.98, 27.22 1.14 M1.37 36.97 C8.26 29.31, 15.06 19.93, 32.21 1.5 M1.37 36.97 C12.4 23.62, 23.51 10.95, 32.21 1.5 M1.11 43.37 C15.23 29.86, 27.48 12.52, 37.85 1.1 M1.11 43.37 C12.89 29.81, 22.94 16.5, 37.85 1.1 M1.51 49.01 C15.36 32.64, 30.37 20, 42.84 1.46 M1.51 49.01 C16.78 29.95, 34.59 12.89, 42.84 1.46 M3.21 53.14 C18.66 36.56, 30.15 19.79, 47.83 1.82 M3.21 53.14 C19.88 35.1, 34.51 16.82, 47.83 1.82 M4.92 57.28 C15.42 45.85, 23.51 32.52, 53.47 1.43 M4.92 57.28 C23.01 38.14, 39.24 18.01, 53.47 1.43 M8.59 59.15 C28.55 39.1, 44.89 18.49, 58.46 1.79 M8.59 59.15 C26.82 36.82, 46.75 15.76, 58.46 1.79 M13.58 59.51 C32.43 37.84, 50.9 18.16, 64.1 1.39 M13.58 59.51 C28.07 43.08, 41.25 26.97, 64.1 1.39 M19.22 59.11 C35.84 39.83, 55.08 19.41, 69.09 1.75 M19.22 59.11 C33.71 43.96, 47.77 27.52, 69.09 1.75 M24.21 59.47 C39.03 41.83, 54 24.46, 74.07 2.11 M24.21 59.47 C42.91 38.22, 62.53 16.49, 74.07 2.11 M29.85 59.08 C45.59 38.95, 65.14 21.77, 79.72 1.72 M29.85 59.08 C42.67 42.69, 57.84 28.35, 79.72 1.72 M34.84 59.44 C51.71 43.39, 63.6 23.82, 84.7 2.08 M34.84 59.44 C53.11 38.93, 69.12 19.96, 84.7 2.08 M39.83 59.8 C57.95 36.86, 77.97 14.57, 90.35 1.69 M39.83 59.8 C58.2 39.25, 76.61 17.6, 90.35 1.69 M45.47 59.4 C55.79 45.84, 67.97 33, 95.33 2.05 M45.47 59.4 C62.91 39.51, 78.06 22.05, 95.33 2.05 M50.46 59.76 C69.08 35.45, 88.61 13.03, 100.98 1.65 M50.46 59.76 C65.09 41.93, 80.01 24.66, 100.98 1.65 M56.1 59.37 C66.28 47.41, 77.13 34.03, 105.96 2.01 M56.1 59.37 C70.94 41.22, 86.68 23.62, 105.96 2.01 M61.09 59.73 C80.09 38.68, 96.35 18.35, 110.95 2.37 M61.09 59.73 C79.82 39.04, 96.83 17.53, 110.95 2.37 M66.73 59.33 C82.18 40.94, 98.98 21.76, 116.59 1.98 M66.73 59.33 C84.07 40.03, 102.17 18.21, 116.59 1.98 M71.72 59.69 C81.69 50.04, 91.49 38.57, 121.58 2.34 M71.72 59.69 C83.16 47.28, 95.2 32.4, 121.58 2.34 M76.71 60.05 C90.13 44.41, 103.06 29.14, 127.22 1.94 M76.71 60.05 C93.82 40.61, 112.27 19.2, 127.22 1.94 M82.35 59.66 C99.07 42.1, 113 20.96, 132.87 1.55 M82.35 59.66 C97.1 43.83, 110.57 28.16, 132.87 1.55 M87.34 60.02 C100.98 45.7, 110.1 31.68, 136.54 3.42 M87.34 60.02 C100.49 46.32, 114.08 29.87, 136.54 3.42 M92.98 59.63 C104.65 48.76, 114.72 33.45, 139.56 6.04 M92.98 59.63 C105.91 44.89, 118.04 30.53, 139.56 6.04 M97.97 59.99 C113.98 39.15, 132.19 22.08, 141.27 10.17 M97.97 59.99 C110.13 44.94, 124.23 30.24, 141.27 10.17 M103.61 59.59 C115.5 43.85, 127.1 33.05, 143.63 13.55 M103.61 59.59 C116.26 44.99, 131.13 28.57, 143.63 13.55 M108.6 59.95 C122.25 45.24, 132.36 32.63, 143.37 19.95 M108.6 59.95 C119.26 47.59, 130.57 35.3, 143.37 19.95 M113.58 60.31 C121.5 50.15, 129.84 42.28, 143.11 26.35 M113.58 60.31 C122.05 50.17, 131.97 39.29, 143.11 26.35 M119.23 59.92 C122.47 54.4, 128.35 47.23, 142.84 32.75 M119.23 59.92 C125.28 55.03, 129.72 49.12, 142.84 32.75 M124.21 60.28 C129.32 52.79, 135.97 50.15, 143.24 38.39 M124.21 60.28 C128.34 55.25, 132.9 51.92, 143.24 38.39 M127.89 62.15 C130.41 56.5, 133.21 52.7, 142.98 44.79 M127.89 62.15 C133.84 55.6, 139.04 49.07, 142.98 44.79" stroke="#82c91e" stroke-width="0.5" fill="none"></path><path d="M15 0 M15 0 C41.97 1.37, 65.44 -0.34, 126 0 M15 0 C41.72 -0.69, 66.28 -0.28, 126 0 M126 0 C135.23 0.4, 142.54 3.72, 141 15 M126 0 C135.43 -1.42, 139.24 3.99, 141 15 M141 15 C139.22 24.99, 139.73 31.83, 141 45 M141 15 C141.33 21.88, 141.14 29.4, 141 45 M141 45 C141.56 55.11, 135.88 59.14, 126 60 M141 45 C142.69 57.13, 137.58 62.24, 126 60 M126 60 C88.32 60.04, 51.73 59.55, 15 60 M126 60 C97.74 59.15, 67.13 58.69, 15 60 M15 60 C6.03 61.99, 1.86 56.21, 0 45 M15 60 C6.09 58.37, 0.24 57.09, 0 45 M0 45 C1.59 34.3, 0.6 25.55, 0 15 M0 45 C-0.64 33.99, -0.57 20.88, 0 15 M0 15 C-1.31 4.93, 5.79 -1.21, 15 0 M0 15 C1.09 3.23, 2.72 -0.57, 15 0" stroke="#000000" stroke-width="1" fill="none"></path></g><g transform="translate(439.2276840209961 15.143196105957031) rotate(0 49.08997344970703 25)"><text x="49.08997344970703" y="0" font-family="Virgil, Segoe UI Emoji" font-size="20px" fill="#000000" text-anchor="middle" style="white-space: pre;" direction="ltr" dominant-baseline="text-before-edge">CHREAPI </text><text x="49.08997344970703" y="25" font-family="Virgil, Segoe UI Emoji" font-size="20px" fill="#000000" text-anchor="middle" style="white-space: pre;" direction="ltr" dominant-baseline="text-before-edge">wrapper</text></g><g stroke-linecap="round" transform="translate(757.6614379882812 13.658866882324219) rotate(0 69 30)"><path d="M3.99 3.47 C3.99 3.47, 3.99 3.47, 3.99 3.47 M3.99 3.47 C3.99 3.47, 3.99 3.47, 3.99 3.47 M1.11 12.89 C4.14 9.03, 7.14 7.74, 10.29 2.32 M1.11 12.89 C4.3 9.03, 7.54 5.46, 10.29 2.32 M1.5 18.53 C4.24 13.55, 8.33 9.95, 16.59 1.17 M1.5 18.53 C6.84 11.03, 12.52 3.6, 16.59 1.17 M1.24 24.93 C9.75 14.66, 18.72 5.83, 21.58 1.53 M1.24 24.93 C5.62 20.17, 11.23 14.65, 21.58 1.53 M1.63 30.57 C6.7 25.26, 14.14 16.99, 27.22 1.14 M1.63 30.57 C7.68 23.71, 13.1 19.17, 27.22 1.14 M1.37 36.97 C9.98 26.14, 18.41 19.67, 32.21 1.5 M1.37 36.97 C8.79 26.72, 16.04 17.54, 32.21 1.5 M1.11 43.37 C13.12 31.6, 23.51 17.99, 37.85 1.1 M1.11 43.37 C12.72 29.84, 24.71 16.22, 37.85 1.1 M1.51 49.01 C9.94 38.84, 19.98 27.22, 42.84 1.46 M1.51 49.01 C16.25 31.13, 32.69 14.21, 42.84 1.46 M3.21 53.14 C20.44 33.52, 36.64 14.24, 47.83 1.82 M3.21 53.14 C16.37 36.61, 29.86 21.94, 47.83 1.82 M4.92 57.28 C19.55 38.82, 33.81 21.32, 53.47 1.43 M4.92 57.28 C22.49 36.24, 39.65 15.12, 53.47 1.43 M8.59 59.15 C25.93 39.32, 47.8 17.23, 58.46 1.79 M8.59 59.15 C21.56 45.15, 35.11 29.73, 58.46 1.79 M13.58 59.51 C28.76 44.24, 39.73 27.34, 64.1 1.39 M13.58 59.51 C29.81 41.63, 44.94 24.4, 64.1 1.39 M19.22 59.11 C34.82 40.03, 48 24.01, 69.09 1.75 M19.22 59.11 C29.46 46.8, 42.28 32.21, 69.09 1.75 M24.21 59.47 C39.5 45.1, 51.31 25.84, 74.07 2.11 M24.21 59.47 C39.85 43.17, 53.62 25.82, 74.07 2.11 M29.85 59.08 C44.73 45.93, 55.37 30.82, 79.72 1.72 M29.85 59.08 C41.77 45.51, 52.55 31.76, 79.72 1.72 M34.84 59.44 C49.73 40.17, 66.7 22.97, 84.7 2.08 M34.84 59.44 C50.32 43.43, 64.42 27.25, 84.7 2.08 M39.83 59.8 C52.51 43.96, 62.35 32.54, 90.35 1.69 M39.83 59.8 C51.23 45.57, 63.37 32.52, 90.35 1.69 M45.47 59.4 C63.5 39.9, 78.86 24.03, 95.33 2.05 M45.47 59.4 C59.23 42.93, 74.76 25.97, 95.33 2.05 M50.46 59.76 C67.6 41.69, 84.37 21.59, 100.98 1.65 M50.46 59.76 C68.41 38.97, 86.21 18.91, 100.98 1.65 M56.1 59.37 C73.01 40.17, 86.95 25.72, 105.96 2.01 M56.1 59.37 C66.74 47.13, 78.12 35.41, 105.96 2.01 M61.09 59.73 C76.58 41.13, 93 24.14, 110.95 2.37 M61.09 59.73 C73.8 44.84, 87.28 31.19, 110.95 2.37 M66.73 59.33 C87.94 38.01, 107.39 16.6, 116.59 1.98 M66.73 59.33 C84.02 41.29, 100.54 21.77, 116.59 1.98 M71.72 59.69 C86.69 44.8, 97.89 27.05, 121.58 2.34 M71.72 59.69 C88.69 39.73, 106.81 17.89, 121.58 2.34 M76.71 60.05 C95.31 37.53, 112.12 17.17, 127.22 1.94 M76.71 60.05 C87.78 46.82, 99.52 33.1, 127.22 1.94 M82.35 59.66 C101.47 38.64, 122.88 14.2, 131.55 3.06 M82.35 59.66 C93.7 45.1, 106.28 31.18, 131.55 3.06 M87.34 60.02 C105.93 43.08, 121 21.25, 135.23 4.93 M87.34 60.02 C105.18 41.25, 121.26 21.13, 135.23 4.93 M92.98 59.63 C108.09 42.45, 123.43 23.19, 136.94 9.06 M92.98 59.63 C103.83 47.1, 115.5 36.27, 136.94 9.06 M97.97 59.99 C111.06 44.8, 123.65 28.47, 139.3 12.44 M97.97 59.99 C113.27 42.2, 128.14 24.85, 139.3 12.44 M103.61 59.59 C117.67 46.29, 127.72 29.15, 139.04 18.84 M103.61 59.59 C111.58 49.37, 119.99 40.87, 139.04 18.84 M108.6 59.95 C115.31 51.86, 122.4 45.97, 138.78 25.23 M108.6 59.95 C115.17 53.72, 121.98 45.93, 138.78 25.23 M113.58 60.31 C119.7 55.19, 123.9 46.4, 138.51 31.63 M113.58 60.31 C119.44 53.7, 125.18 45.86, 138.51 31.63 M119.23 59.92 C126.01 50.83, 136.05 42.68, 138.91 37.28 M119.23 59.92 C124.54 54.18, 129.28 47.86, 138.91 37.28 M123.56 61.03 C130.98 55.09, 134.25 49.42, 138.65 43.67 M123.56 61.03 C126.94 56.16, 130.65 51.52, 138.65 43.67 M130.51 59.13 C132.31 56.75, 136.63 54.23, 137.07 51.58 M130.51 59.13 C132.89 56.91, 135.18 54.15, 137.07 51.58" stroke="#fd7e14" stroke-width="0.5" fill="none"></path><path d="M15 0 M15 0 C41.4 -0.79, 68.01 2.93, 123 0 M15 0 C40.48 -1.33, 65.87 -0.94, 123 0 M123 0 C133.79 -1.21, 138.95 3.46, 138 15 M123 0 C130.72 -0.57, 136.37 2.88, 138 15 M138 15 C136.97 27.66, 138.92 38.09, 138 45 M138 15 C137.78 23.14, 137.03 32.08, 138 45 M138 45 C137.08 56.15, 132.66 58.27, 123 60 M138 45 C137.05 53.76, 134.92 59.66, 123 60 M123 60 C89.1 57.95, 54.36 59.64, 15 60 M123 60 C89.24 60.87, 56.72 60.22, 15 60 M15 60 C4.53 59.55, 1.82 55.64, 0 45 M15 60 C5.83 61.97, 0.99 53.4, 0 45 M0 45 C-1.19 32.84, -0.36 23.28, 0 15 M0 45 C0.39 38.53, -0.44 31.11, 0 15 M0 15 C0.8 6.87, 3.13 0.73, 15 0 M0 15 C-0.25 7.23, 2.79 -0.66, 15 0" stroke="#000000" stroke-width="1" fill="none"></path></g><g transform="translate(788.5814666748047 18.65886688232422) rotate(0 38.07997131347656 25)"><text x="38.07997131347656" y="0" font-family="Virgil, Segoe UI Emoji" font-size="20px" fill="#000000" text-anchor="middle" style="white-space: pre;" direction="ltr" dominant-baseline="text-before-edge">wasm </text><text x="38.07997131347656" y="25" font-family="Virgil, Segoe UI Emoji" font-size="20px" fill="#000000" text-anchor="middle" style="white-space: pre;" direction="ltr" dominant-baseline="text-before-edge">nanoapp</text></g><g stroke-linecap="round" transform="translate(10 10.071609497070312) rotate(0 70.5 30)"><path d="M3.99 3.47 C3.99 3.47, 3.99 3.47, 3.99 3.47 M3.99 3.47 C3.99 3.47, 3.99 3.47, 3.99 3.47 M1.11 12.89 C2.86 10.1, 6.37 4.94, 10.29 2.32 M1.11 12.89 C3.7 8.84, 7.5 5.22, 10.29 2.32 M1.5 18.53 C6.07 12.83, 8.21 9.98, 16.59 1.17 M1.5 18.53 C7.09 10.78, 12.72 5.34, 16.59 1.17 M1.24 24.93 C7.98 17.33, 16.54 6.48, 21.58 1.53 M1.24 24.93 C8.77 16.75, 16.9 6.94, 21.58 1.53 M1.63 30.57 C10.15 20.82, 19.18 9.5, 27.22 1.14 M1.63 30.57 C9.61 21.7, 17.77 12.98, 27.22 1.14 M1.37 36.97 C8.26 29.31, 15.06 19.93, 32.21 1.5 M1.37 36.97 C12.4 23.62, 23.51 10.95, 32.21 1.5 M1.11 43.37 C15.23 29.86, 27.48 12.52, 37.85 1.1 M1.11 43.37 C12.89 29.81, 22.94 16.5, 37.85 1.1 M1.51 49.01 C15.36 32.64, 30.37 20, 42.84 1.46 M1.51 49.01 C16.78 29.95, 34.59 12.89, 42.84 1.46 M3.21 53.14 C18.66 36.56, 30.15 19.79, 47.83 1.82 M3.21 53.14 C19.88 35.1, 34.51 16.82, 47.83 1.82 M4.92 57.28 C15.42 45.85, 23.51 32.52, 53.47 1.43 M4.92 57.28 C23.01 38.14, 39.24 18.01, 53.47 1.43 M8.59 59.15 C28.55 39.1, 44.89 18.49, 58.46 1.79 M8.59 59.15 C26.82 36.82, 46.75 15.76, 58.46 1.79 M13.58 59.51 C32.43 37.84, 50.9 18.16, 64.1 1.39 M13.58 59.51 C28.07 43.08, 41.25 26.97, 64.1 1.39 M19.22 59.11 C35.84 39.83, 55.08 19.41, 69.09 1.75 M19.22 59.11 C33.71 43.96, 47.77 27.52, 69.09 1.75 M24.21 59.47 C39.03 41.83, 54 24.46, 74.07 2.11 M24.21 59.47 C42.91 38.22, 62.53 16.49, 74.07 2.11 M29.85 59.08 C45.59 38.95, 65.14 21.77, 79.72 1.72 M29.85 59.08 C42.67 42.69, 57.84 28.35, 79.72 1.72 M34.84 59.44 C51.71 43.39, 63.6 23.82, 84.7 2.08 M34.84 59.44 C53.11 38.93, 69.12 19.96, 84.7 2.08 M39.83 59.8 C57.95 36.86, 77.97 14.57, 90.35 1.69 M39.83 59.8 C58.2 39.25, 76.61 17.6, 90.35 1.69 M45.47 59.4 C55.79 45.84, 67.97 33, 95.33 2.05 M45.47 59.4 C62.91 39.51, 78.06 22.05, 95.33 2.05 M50.46 59.76 C69.08 35.45, 88.61 13.03, 100.98 1.65 M50.46 59.76 C65.09 41.93, 80.01 24.66, 100.98 1.65 M56.1 59.37 C66.28 47.41, 77.13 34.03, 105.96 2.01 M56.1 59.37 C70.94 41.22, 86.68 23.62, 105.96 2.01 M61.09 59.73 C80.09 38.68, 96.35 18.35, 110.95 2.37 M61.09 59.73 C79.82 39.04, 96.83 17.53, 110.95 2.37 M66.73 59.33 C82.18 40.94, 98.98 21.76, 116.59 1.98 M66.73 59.33 C84.07 40.03, 102.17 18.21, 116.59 1.98 M71.72 59.69 C81.69 50.04, 91.49 38.57, 121.58 2.34 M71.72 59.69 C83.16 47.28, 95.2 32.4, 121.58 2.34 M76.71 60.05 C90.13 44.41, 103.06 29.14, 127.22 1.94 M76.71 60.05 C93.82 40.61, 112.27 19.2, 127.22 1.94 M82.35 59.66 C99.07 42.1, 113 20.96, 132.87 1.55 M82.35 59.66 C97.1 43.83, 110.57 28.16, 132.87 1.55 M87.34 60.02 C100.98 45.7, 110.1 31.68, 136.54 3.42 M87.34 60.02 C100.49 46.32, 114.08 29.87, 136.54 3.42 M92.98 59.63 C104.65 48.76, 114.72 33.45, 139.56 6.04 M92.98 59.63 C105.91 44.89, 118.04 30.53, 139.56 6.04 M97.97 59.99 C113.98 39.15, 132.19 22.08, 141.27 10.17 M97.97 59.99 C110.13 44.94, 124.23 30.24, 141.27 10.17 M103.61 59.59 C115.5 43.85, 127.1 33.05, 143.63 13.55 M103.61 59.59 C116.26 44.99, 131.13 28.57, 143.63 13.55 M108.6 59.95 C122.25 45.24, 132.36 32.63, 143.37 19.95 M108.6 59.95 C119.26 47.59, 130.57 35.3, 143.37 19.95 M113.58 60.31 C121.5 50.15, 129.84 42.28, 143.11 26.35 M113.58 60.31 C122.05 50.17, 131.97 39.29, 143.11 26.35 M119.23 59.92 C122.47 54.4, 128.35 47.23, 142.84 32.75 M119.23 59.92 C125.28 55.03, 129.72 49.12, 142.84 32.75 M124.21 60.28 C129.32 52.79, 135.97 50.15, 143.24 38.39 M124.21 60.28 C128.34 55.25, 132.9 51.92, 143.24 38.39 M127.89 62.15 C130.41 56.5, 133.21 52.7, 142.98 44.79 M127.89 62.15 C133.84 55.6, 139.04 49.07, 142.98 44.79" stroke="#12b886" stroke-width="0.5" fill="none"></path><path d="M15 0 M15 0 C41.97 1.37, 65.44 -0.34, 126 0 M15 0 C41.72 -0.69, 66.28 -0.28, 126 0 M126 0 C135.23 0.4, 142.54 3.72, 141 15 M126 0 C135.43 -1.42, 139.24 3.99, 141 15 M141 15 C139.22 24.99, 139.73 31.83, 141 45 M141 15 C141.33 21.88, 141.14 29.4, 141 45 M141 45 C141.56 55.11, 135.88 59.14, 126 60 M141 45 C142.69 57.13, 137.58 62.24, 126 60 M126 60 C88.32 60.04, 51.73 59.55, 15 60 M126 60 C97.74 59.15, 67.13 58.69, 15 60 M15 60 C6.03 61.99, 1.86 56.21, 0 45 M15 60 C6.09 58.37, 0.24 57.09, 0 45 M0 45 C1.59 34.3, 0.6 25.55, 0 15 M0 45 C-0.64 33.99, -0.57 20.88, 0 15 M0 15 C-1.31 4.93, 5.79 -1.21, 15 0 M0 15 C1.09 3.23, 2.72 -0.57, 15 0" stroke="#000000" stroke-width="1" fill="none"></path></g><g transform="translate(55.03001403808594 27.571609497070312) rotate(0 25.469985961914062 12.5)"><text x="25.469985961914062" y="0" font-family="Virgil, Segoe UI Emoji" font-size="20px" fill="#000000" text-anchor="middle" style="white-space: pre;" direction="ltr" dominant-baseline="text-before-edge">CHRE</text></g><g stroke-linecap="round"><g transform="translate(76.17709350585938 70.18229675292969) rotate(0 1.1257105307488615 208.18764368348886)"><path d="M1.12 0.64 C1.22 69.81, 1.07 346.46, 1.1 415.73" stroke="#000000" stroke-width="1.5" fill="none" stroke-dasharray="8 9"></path></g></g><mask></mask><g stroke-linecap="round"><g transform="translate(485.8607018612325 70.96784555688501) rotate(0 0.7546458647719589 215.09802227584376)"><path d="M1.12 0.64 C1.11 72.11, 0.48 357.98, 0.39 429.56" stroke="#000000" stroke-width="1.5" fill="none" stroke-dasharray="8 9"></path></g></g><mask></mask><g stroke-linecap="round"><g transform="translate(828.5273888729513 74.80115854516623) rotate(0 1.349869427830015 212.12181726747323)"><path d="M1.12 0.64 C1.3 71.12, 1.48 353.02, 1.58 423.6" stroke="#000000" stroke-width="1.5" fill="none" stroke-dasharray="8 9"></path></g></g><mask></mask><g stroke-linecap="round" transform="translate(821.8839372907366 91.83778817313055) rotate(0 9.049503871372849 194.91348484584262)"><path d="M2.68 0.58 L15.72 1.38 L19.73 4.82 L19.98 386.03 L15.43 387.01 L14.56 388.28 L3.53 389.73 L1.83 385.59 L0.56 5.93 L2.94 1.31 L4.16 -0.61" stroke="none" stroke-width="0" fill="#ced4da"></path><path d="M4.52 0 M4.52 0 C7.65 -0.83, 10.16 0.6, 13.57 0 M4.52 0 C7.72 0.33, 10.53 0.34, 13.57 0 M13.57 0 C15.33 -0.77, 18.49 0.1, 18.1 4.52 M13.57 0 C15.44 -2.08, 18.36 1.95, 18.1 4.52 M18.1 4.52 C17.22 149.97, 17.75 298.21, 18.1 385.3 M18.1 4.52 C19.33 107.18, 18.6 210.6, 18.1 385.3 M18.1 385.3 C17.31 390.01, 16.66 389.43, 13.57 389.83 M18.1 385.3 C16.21 387.58, 14.55 387.56, 13.57 389.83 M13.57 389.83 C11.33 390.06, 8.58 389.65, 4.52 389.83 M13.57 389.83 C10.32 389.74, 8.08 389.73, 4.52 389.83 M4.52 389.83 C2.22 390.98, 1.58 387.4, 0 385.3 M4.52 389.83 C-0.78 391.99, -0.55 388.82, 0 385.3 M0 385.3 C0.2 255.25, -0.12 126.49, 0 4.52 M0 385.3 C0.37 279.58, 0.19 174.4, 0 4.52 M0 4.52 C1.74 0.15, 1.31 1.38, 4.52 0 M0 4.52 C0.97 1.24, -0.08 1.91, 4.52 0" stroke="#000000" stroke-width="1" fill="none"></path></g><g stroke-linecap="round"><g transform="translate(819.074023536395 108.62465719271773) rotate(0 -157.43725698925243 3.1366337091973406)"><path d="M0.96 0.64 C-51.57 1.82, -262.2 5.71, -314.85 6.35 M0 -0.08 C-52.71 0.87, -263.2 3.92, -315.83 4.84" stroke="#000000" stroke-width="1" fill="none"></path></g><g transform="translate(819.074023536395 108.62465719271773) rotate(0 -157.43725698925243 3.1366337091973406)"><path d="M-286.75 -5.96 C-295.01 -2.4, -307.17 0.19, -314.32 2.99 M-287.91 -6.3 C-295.8 -3.07, -305.13 1.19, -316.38 4.53" stroke="#000000" stroke-width="1" fill="none"></path></g><g transform="translate(819.074023536395 108.62465719271773) rotate(0 -157.43725698925243 3.1366337091973406)"><path d="M-286.42 14.55 C-294.66 11.47, -306.92 7.41, -314.32 2.99 M-287.59 14.22 C-295.52 11.34, -304.94 9.49, -316.38 4.53" stroke="#000000" stroke-width="1" fill="none"></path></g></g><mask></mask><g stroke-linecap="round" transform="translate(476.83933803013394 91.34117126464844) rotate(0 10.299460274832597 195.18971252441406)"><path d="M3.72 -0.23 L15.82 -1.33 L20.09 5.81 L19.25 385.92 L18.51 387.33 L15.92 391.17 L4.57 391.45 L-1.97 385.8 L0.85 5.26 L3 2.32 L5.73 1.41" stroke="none" stroke-width="0" fill="#868e96"></path><path d="M5.15 0 M5.15 0 C9.91 0.45, 12.91 -0.54, 15.45 0 M5.15 0 C8.53 -0.17, 12.41 0.32, 15.45 0 M15.45 0 C16.93 -1.77, 20.08 0.72, 20.6 5.15 M15.45 0 C16.89 -1.04, 19.09 1.79, 20.6 5.15 M20.6 5.15 C18.62 98.88, 19.8 190.02, 20.6 385.23 M20.6 5.15 C21.28 118.91, 21.44 231.94, 20.6 385.23 M20.6 385.23 C21.95 389.57, 17.82 389.23, 15.45 390.38 M20.6 385.23 C21.14 387.2, 20.81 390.89, 15.45 390.38 M15.45 390.38 C11.49 389.35, 8.62 389.38, 5.15 390.38 M15.45 390.38 C11.37 390.52, 7.27 390.61, 5.15 390.38 M5.15 390.38 C2.55 389.15, 0.04 387.9, 0 385.23 M5.15 390.38 C1.07 390.99, 1.53 388.41, 0 385.23 M0 385.23 C0.41 258.1, 1.31 132.23, 0 5.15 M0 385.23 C0.44 287.92, 0.5 191.31, 0 5.15 M0 5.15 C-0.84 2.39, 1.24 -1.74, 5.15 0 M0 5.15 C0.39 1.12, 3.59 1.8, 5.15 0" stroke="#000000" stroke-width="1" fill="none"></path></g><g stroke-linecap="round" transform="translate(206.33334350585938 10) rotate(0 75 30.5)"><path d="M4.06 3.53 C4.06 3.53, 4.06 3.53, 4.06 3.53 M4.06 3.53 C4.06 3.53, 4.06 3.53, 4.06 3.53 M1.17 12.95 C4.22 10.61, 6.45 8.65, 10.36 2.38 M1.17 12.95 C4.04 9.25, 7.92 5.32, 10.36 2.38 M1.57 18.59 C5.68 12.72, 7.49 8.57, 16.66 1.23 M1.57 18.59 C7.97 12.81, 12.88 6.27, 16.66 1.23 M1.31 24.99 C10.13 15.56, 13.03 11.55, 21.64 1.59 M1.31 24.99 C7.85 17.43, 13.6 9.18, 21.64 1.59 M1.7 30.63 C10.41 20.77, 17.19 14.66, 27.29 1.2 M1.7 30.63 C11.49 19.84, 21.85 7.02, 27.29 1.2 M1.44 37.03 C11.77 22.12, 24.85 9.17, 32.27 1.56 M1.44 37.03 C7.24 29.44, 14.18 21.99, 32.27 1.56 M1.18 43.42 C11.74 34.96, 19.93 21.48, 37.92 1.16 M1.18 43.42 C10.47 30.69, 21.19 19.56, 37.92 1.16 M0.92 49.82 C11.2 36.51, 20.6 23.77, 42.9 1.52 M0.92 49.82 C13.27 35.55, 26.38 19.17, 42.9 1.52 M2.62 53.96 C16.41 36.17, 30.04 20.94, 48.55 1.13 M2.62 53.96 C13.58 41.35, 23.21 29.86, 48.55 1.13 M4.99 57.34 C17.15 44.45, 29.54 30.87, 53.53 1.49 M4.99 57.34 C15.22 46.51, 24.17 35.66, 53.53 1.49 M8.01 59.96 C27.34 38.92, 46.56 15.47, 58.52 1.85 M8.01 59.96 C27.77 38.39, 46.56 15.64, 58.52 1.85 M11.02 62.58 C22.23 48.7, 35.52 34.01, 64.16 1.45 M11.02 62.58 C27.28 45.06, 41.2 28.18, 64.16 1.45 M16.67 62.19 C29.77 46.73, 41.89 30.52, 69.15 1.81 M16.67 62.19 C30.76 45.35, 44.87 30.29, 69.15 1.81 M21.65 62.55 C34.23 48.06, 46.24 31.09, 74.79 1.42 M21.65 62.55 C33.27 49.89, 43.87 35.69, 74.79 1.42 M27.3 62.15 C37.73 48.11, 49.01 36.88, 79.78 1.78 M27.3 62.15 C45.73 40.79, 63.22 19.22, 79.78 1.78 M32.28 62.51 C44.27 51.43, 53.64 38.6, 85.43 1.38 M32.28 62.51 C49.74 42.64, 65.28 24.91, 85.43 1.38 M37.27 62.87 C51.63 43.01, 70.48 27.77, 90.41 1.74 M37.27 62.87 C50.92 49.3, 61.99 33.99, 90.41 1.74 M42.91 62.48 C60.28 42.31, 80.19 22.91, 95.4 2.1 M42.91 62.48 C60.99 42.12, 79.02 19.46, 95.4 2.1 M47.9 62.84 C66.99 42.59, 87.3 21.3, 101.04 1.71 M47.9 62.84 C62.99 43.92, 79.34 27.55, 101.04 1.71 M53.54 62.45 C73.06 41.62, 89.86 21.91, 106.03 2.07 M53.54 62.45 C70.43 42.73, 88.97 21.28, 106.03 2.07 M58.53 62.81 C77.31 41.71, 98.03 18.88, 111.67 1.67 M58.53 62.81 C71.24 47.13, 83.44 31.92, 111.67 1.67 M64.17 62.41 C74.35 47.23, 86.04 32.86, 116.66 2.03 M64.17 62.41 C81.79 42.13, 100.42 20.21, 116.66 2.03 M69.16 62.77 C81.72 49.18, 95.07 36.52, 121.65 2.39 M69.16 62.77 C89.5 40.49, 108.89 17.97, 121.65 2.39 M74.15 63.13 C88.07 44.06, 104.92 29.89, 127.29 2 M74.15 63.13 C90.61 43.94, 108.19 25.36, 127.29 2 M79.79 62.74 C95.68 41.8, 111.97 25.36, 132.28 2.36 M79.79 62.74 C94.59 45.55, 110.71 28.21, 132.28 2.36 M84.78 63.1 C101.74 43.99, 122.66 20.97, 137.92 1.97 M84.78 63.1 C95.94 49.75, 107.67 36.44, 137.92 1.97 M90.42 62.7 C104.97 45.79, 120.93 23.31, 142.91 2.33 M90.42 62.7 C100.51 49.13, 112.65 36.52, 142.91 2.33 M95.41 63.06 C110.76 46.06, 124.94 27.62, 146.58 4.2 M95.41 63.06 C109.73 46.79, 125.79 30.18, 146.58 4.2 M101.05 62.67 C116.87 41.15, 138.04 19.99, 148.29 8.33 M101.05 62.67 C113.07 50.58, 123.79 36.41, 148.29 8.33 M106.04 63.03 C121.04 44.88, 134.12 29.71, 149.99 12.46 M106.04 63.03 C115.07 51.43, 124.58 40.79, 149.99 12.46 M111.03 63.39 C124.19 44.69, 141.87 30.83, 150.39 18.11 M111.03 63.39 C121.51 51.37, 132.03 39.72, 150.39 18.11 M116.67 62.99 C125.06 52.28, 138.13 40.24, 150.13 24.5 M116.67 62.99 C128.46 51.19, 139.07 37.13, 150.13 24.5 M121.66 63.35 C129.88 52.46, 137.25 45.5, 149.87 30.9 M121.66 63.35 C131.52 51.86, 141.05 41.04, 149.87 30.9 M127.3 62.96 C132.81 54.48, 138.88 48.53, 149.61 37.3 M127.3 62.96 C133.49 55.95, 138.07 50.35, 149.61 37.3 M132.29 63.32 C137.33 57.58, 144.34 46.49, 150 42.94 M132.29 63.32 C136.43 58, 142.44 52.9, 150 42.94 M137.27 63.68 C142.44 59.66, 146.56 54.05, 149.74 49.34 M137.27 63.68 C141.75 58.57, 146.8 52.05, 149.74 49.34" stroke="#40c057" stroke-width="0.5" fill="none"></path><path d="M15.25 0 M15.25 0 C61.03 -1.24, 107.4 -2.03, 134.75 0 M15.25 0 C59.13 -0.72, 103.64 -1.7, 134.75 0 M134.75 0 C146.15 -0.89, 150.67 6.38, 150 15.25 M134.75 0 C143.59 -0.84, 150.85 4.06, 150 15.25 M150 15.25 C151.19 24.3, 151.3 31.35, 150 45.75 M150 15.25 C150.73 22.67, 149.89 31, 150 45.75 M150 45.75 C151.72 57.44, 143.63 61.44, 134.75 61 M150 45.75 C149.15 57.35, 145.27 60.91, 134.75 61 M134.75 61 C103.61 60.48, 66.74 61.7, 15.25 61 M134.75 61 C87.82 61.38, 41.82 61.73, 15.25 61 M15.25 61 C4.24 62, -0.75 57.07, 0 45.75 M15.25 61 C3.79 61.14, -2.23 54.27, 0 45.75 M0 45.75 C-0.93 39.92, -1.36 30.29, 0 15.25 M0 45.75 C0.05 35.47, -0.68 26.09, 0 15.25 M0 15.25 C-0.41 3.86, 3.97 1.45, 15.25 0 M0 15.25 C-0.9 3.06, 3.72 1.66, 15.25 0" stroke="#000000" stroke-width="1" fill="none"></path></g><g transform="translate(216.51339721679688 28) rotate(0 64.8199462890625 12.5)"><text x="64.8199462890625" y="0" font-family="Virgil, Segoe UI Emoji" font-size="20px" fill="#000000" text-anchor="middle" style="white-space: pre;" direction="ltr" dominant-baseline="text-before-edge">Mapping layer</text></g><g stroke-linecap="round"><g transform="translate(282.2299063546317 71.5234375) rotate(0 0.6841598669332711 215.30134798405422)"><path d="M-1.08 -0.46 C-0.7 71.55, 1.88 359.21, 2.45 431.07" stroke="#000000" stroke-width="1.5" fill="none" stroke-dasharray="8 9"></path></g></g><mask></mask><g stroke-linecap="round"><g transform="translate(475.4329360066906 136.3075250198243) rotate(0 -190.66123039863132 -1.3742077846524694)"><path d="M-0.95 0.95 C-64.42 0.71, -317.95 -1.43, -381.44 -1.94 M0.75 0.41 C-62.78 -0.13, -318.18 -2.93, -382.08 -3.7" stroke="#000000" stroke-width="1" fill="none"></path></g><g transform="translate(475.4329360066906 136.3075250198243) rotate(0 -190.66123039863132 -1.3742077846524694)"><path d="M-352.18 -12.65 C-359.75 -11.16, -367.15 -9.25, -382.95 -5 M-353.39 -13 C-359.97 -11.21, -365.24 -9.47, -382.49 -2.89" stroke="#000000" stroke-width="1" fill="none"></path></g><g transform="translate(475.4329360066906 136.3075250198243) rotate(0 -190.66123039863132 -1.3742077846524694)"><path d="M-352.42 7.87 C-359.83 4.22, -367.18 0.98, -382.95 -5 M-353.63 7.52 C-360.03 5.12, -365.25 2.67, -382.49 -2.89" stroke="#000000" stroke-width="1" fill="none"></path></g></g><mask></mask><g stroke-linecap="round" transform="translate(64.78873988560264 125.52676173618863) rotate(0 11.662924630301376 31.18491036551336)"><path d="M4.98 1.8 L18.27 -0.96 L22.05 3.98 L24.79 58.1 L23.77 57.71 L20.51 60.81 L3.04 62.49 L-1.49 58.45 L-0.68 4.14 L0.81 2.73 L4.66 -0.86" stroke="none" stroke-width="0" fill="#868e96"></path><path d="M5.83 0 M5.83 0 C9.34 0.8, 10.72 -0.86, 17.49 0 M5.83 0 C10.55 0.12, 14.64 0.09, 17.49 0 M17.49 0 C22.09 1.01, 23.58 2.42, 23.33 5.83 M17.49 0 C21.02 -2.28, 24.79 2.66, 23.33 5.83 M23.33 5.83 C21.58 24.67, 25.12 41.86, 23.33 56.54 M23.33 5.83 C22.56 19.47, 22.43 32.67, 23.33 56.54 M23.33 56.54 C24.07 61.33, 20.01 62.76, 17.49 62.37 M23.33 56.54 C23.1 59.88, 20.67 62.71, 17.49 62.37 M17.49 62.37 C13.41 61.69, 9.74 62.6, 5.83 62.37 M17.49 62.37 C15.17 61.85, 11.83 62.23, 5.83 62.37 M5.83 62.37 C3.4 60.62, -0.09 58.68, 0 56.54 M5.83 62.37 C4.08 60.83, -1.88 59.62, 0 56.54 M0 56.54 C0.25 39.99, 0.86 19.82, 0 5.83 M0 56.54 C-0.24 46.45, -0.95 35.36, 0 5.83 M0 5.83 C1.96 0.71, 1.6 0.68, 5.83 0 M0 5.83 C0.23 0.25, 3.94 0.99, 5.83 0" stroke="#000000" stroke-width="1" fill="none"></path></g><g stroke-linecap="round"><g transform="translate(93.74668091258232 179.50449732860886) rotate(0 192.10093057002018 -2.021910289325291)"><path d="M-0.51 -0.05 C63.49 -0.26, 320.69 -1.49, 384.71 -2.04 M1.42 -1.12 C65.29 -1.64, 320.76 -3.76, 384.33 -4" stroke="#000000" stroke-width="1" fill="none"></path></g><g transform="translate(93.74668091258232 179.50449732860886) rotate(0 192.10093057002018 -2.021910289325291)"><path d="M356.12 8.23 C366.96 2.74, 374.95 0.68, 385.74 -3.63 M357.18 5.83 C367.12 2.45, 378.42 -2.72, 385.19 -3.56" stroke="#000000" stroke-width="1" fill="none"></path></g><g transform="translate(93.74668091258232 179.50449732860886) rotate(0 192.10093057002018 -2.021910289325291)"><path d="M355.99 -12.29 C366.75 -10.36, 374.78 -5, 385.74 -3.63 M357.05 -14.69 C366.93 -10.02, 378.29 -7.14, 385.19 -3.56" stroke="#000000" stroke-width="1" fill="none"></path></g></g><mask></mask><g stroke-linecap="round" transform="translate(271.18753487723217 300.00595746721535) rotate(0 11.607694353376132 38.19754464285711)"><path d="M5.91 -0.24 L19.76 -0.6 L21.76 4.02 L24.7 71.06 L18.25 74.65 L3.97 76.66 L-1.16 74.16 L1.7 5.43 L0.12 3.04 L7.55 1.57" stroke="none" stroke-width="0" fill="#868e96"></path><path d="M5.8 0 M5.8 0 C9.09 -0.27, 14.92 0.86, 17.41 0 M5.8 0 C8.53 0.17, 10.71 0.32, 17.41 0 M17.41 0 C20.47 -1.94, 23.35 2.6, 23.22 5.8 M17.41 0 C19.98 1.92, 23.46 2.46, 23.22 5.8 M23.22 5.8 C22.93 21.96, 21.83 43.67, 23.22 70.59 M23.22 5.8 C24.06 25.93, 23.49 46.38, 23.22 70.59 M23.22 70.59 C21.75 75.62, 20.46 75.45, 17.41 76.4 M23.22 70.59 C24.73 76.53, 22.58 77.1, 17.41 76.4 M17.41 76.4 C15.78 76.2, 12.59 76.41, 5.8 76.4 M17.41 76.4 C13.95 76.52, 10.8 76.44, 5.8 76.4 M5.8 76.4 C-0.02 77.68, -1.23 73.53, 0 70.59 M5.8 76.4 C1.91 78.62, 0.08 74.5, 0 70.59 M0 70.59 C-0.96 45.36, -2.1 22.05, 0 5.8 M0 70.59 C0.74 52.59, -0.81 33.74, 0 5.8 M0 5.8 C0.89 0.29, 2.28 0.03, 5.8 0 M0 5.8 C-2.12 0.99, 4.08 0.04, 5.8 0" stroke="#000000" stroke-width="1" fill="none"></path></g><g stroke-linecap="round"><g transform="translate(499.6842096791203 239.32351868371416) rotate(0 21.48992288226887 18.019870932056847)"><path d="M-0.69 0.54 C6.01 -0.24, 34.56 -9.81, 41.35 -3.87 C48.14 2.07, 47.39 28.81, 40.05 36.17 C32.71 43.53, 4.05 39.52, -2.71 40.29 M1.15 -0.23 C7.63 -0.95, 34.3 -9.14, 40.68 -2.85 C47.05 3.44, 46.68 30.16, 39.39 37.5 C32.1 44.83, 3.75 40.52, -3.04 41.14" stroke="#000000" stroke-width="1" fill="none"></path></g><g transform="translate(499.6842096791203 239.32351868371416) rotate(0 21.48992288226887 18.019870932056847)"><path d="M17.65 35.49 C7.29 37.42, 1.1 37.84, -3.86 43 M17.32 34.37 C11.49 36.15, 5.25 39.3, -3.03 40.99" stroke="#000000" stroke-width="1" fill="none"></path></g><g transform="translate(499.6842096791203 239.32351868371416) rotate(0 21.48992288226887 18.019870932056847)"><path d="M17.22 49.75 C6.93 46.02, 0.92 40.77, -3.86 43 M16.89 48.63 C11.23 46.11, 5.12 44.95, -3.03 40.99" stroke="#000000" stroke-width="1" fill="none"></path></g></g><mask></mask><g stroke-linecap="round"><g transform="translate(466.43207284909545 315.57075445988136) rotate(0 -84.64040780533084 0.23496518669534794)"><path d="M0.24 -0.81 C-27.85 -1.02, -140.49 -0.85, -168.3 -0.63 M-1.09 1.38 C-29.41 1.32, -141.92 1.36, -169.52 0.92" stroke="#000000" stroke-width="1" fill="none"></path></g><g transform="translate(466.43207284909545 315.57075445988136) rotate(0 -84.64040780533084 0.23496518669534794)"><path d="M-142.62 -10.04 C-150.24 -3.89, -157.43 -2.86, -168.5 1.69 M-140.36 -8.54 C-150.28 -6.24, -159.24 -2.39, -169.24 0.27" stroke="#000000" stroke-width="1" fill="none"></path></g><g transform="translate(466.43207284909545 315.57075445988136) rotate(0 -84.64040780533084 0.23496518669534794)"><path d="M-142.75 10.48 C-150.44 10.04, -157.59 4.48, -168.5 1.69 M-140.49 11.98 C-150.26 8.13, -159.18 5.82, -169.24 0.27" stroke="#000000" stroke-width="1" fill="none"></path></g></g><mask></mask><g stroke-linecap="round"><g transform="translate(297.4152134486607 370.03939601353227) rotate(0 89.53383523841055 -0.952088005734339)"><path d="M0.06 0.23 C29.94 0.02, 150.27 -1.87, 180.44 -2.14 M-1.37 -0.69 C28.2 -0.7, 148.93 -1.19, 179.22 -1.09" stroke="#000000" stroke-width="1" fill="none"></path></g><g transform="translate(297.4152134486607 370.03939601353227) rotate(0 89.53383523841055 -0.952088005734339)"><path d="M151.42 8.34 C160.74 5.27, 173.27 -0.15, 177.69 -1.85 M150.57 9.04 C160.11 6.88, 167.64 3.4, 179.98 -1.37" stroke="#000000" stroke-width="1" fill="none"></path></g><g transform="translate(297.4152134486607 370.03939601353227) rotate(0 89.53383523841055 -0.952088005734339)"><path d="M151.41 -12.19 C160.58 -7.1, 173.11 -4.36, 177.69 -1.85 M150.55 -11.48 C160.07 -7.68, 167.61 -5.19, 179.98 -1.37" stroke="#000000" stroke-width="1" fill="none"></path></g></g><mask></mask><g transform="translate(572.6127040045603 84.31556715109463) rotate(0 92.47584533691406 9.70227774255622)"><text x="0" y="0" font-family="Virgil, Segoe UI Emoji" font-size="15.523644388089949px" fill="#000000" text-anchor="start" style="white-space: pre;" direction="ltr" dominant-baseline="text-before-edge">try to get audio source</text></g><g transform="translate(298.9313591979945 107.07483607518833) rotate(0 80.85750579833984 9.658795112215074)"><text x="0" y="0" font-family="Virgil, Segoe UI Emoji" font-size="15.454072179544111px" fill="#000000" text-anchor="start" style="white-space: pre;" direction="ltr" dominant-baseline="text-before-edge">request audio source</text></g><g transform="translate(106.91668701171864 148.54115291546236) rotate(0 82.63931274414062 10.618942280061788)"><text x="0" y="0" font-family="Virgil, Segoe UI Emoji" font-size="16.990307648098863px" fill="#000000" text-anchor="start" style="white-space: pre;" direction="ltr" dominant-baseline="text-before-edge">return audio source</text></g><g transform="translate(308.1966286594846 238.31425837058322) rotate(0 82.3859634399414 31.090148398227456)"><text x="0" y="0" font-family="Virgil, Segoe UI Emoji" font-size="16.581412479054645px" fill="#000000" text-anchor="start" style="white-space: pre;" direction="ltr" dominant-baseline="text-before-edge">map the name string</text><text x="0" y="20.726765598818307" font-family="Virgil, Segoe UI Emoji" font-size="16.581412479054645px" fill="#000000" text-anchor="start" style="white-space: pre;" direction="ltr" dominant-baseline="text-before-edge">to an offset of</text><text x="0" y="41.453531197636615" font-family="Virgil, Segoe UI Emoji" font-size="16.581412479054645px" fill="#000000" text-anchor="start" style="white-space: pre;" direction="ltr" dominant-baseline="text-before-edge">the copied string</text></g><g transform="translate(317.87650844029014 347.88187412360014) rotate(0 50.773765563964844 9.882711663437078)"><text x="0" y="0" font-family="Virgil, Segoe UI Emoji" font-size="15.812338661499327px" fill="#000000" text-anchor="start" style="white-space: pre;" direction="ltr" dominant-baseline="text-before-edge">return result</text></g><g transform="translate(557.1548113141739 233.54308048665388) rotate(0 90.35256958007812 22.403692780180364)"><text x="0" y="0" font-family="Virgil, Segoe UI Emoji" font-size="17.922954224144295px" fill="#000000" text-anchor="start" style="white-space: pre;" direction="ltr" dominant-baseline="text-before-edge">copy the string</text><text x="0" y="22.403692780180368" font-family="Virgil, Segoe UI Emoji" font-size="17.922954224144295px" fill="#000000" text-anchor="start" style="white-space: pre;" direction="ltr" dominant-baseline="text-before-edge">to the linear memory</text></g><g stroke-linecap="round"><g transform="translate(505.2775226489173 395.53738611906306) rotate(0 19.089141180010728 14.657474217035087)"><path d="M-0.69 0.54 C5.11 0.29, 30.01 -5.14, 35.95 -0.73 C41.88 3.68, 41.16 21.74, 34.92 26.99 C28.68 32.25, 4.19 30.1, -1.51 30.83 M1.15 -0.23 C6.73 -0.43, 29.76 -4.47, 35.28 0.29 C40.8 5.05, 40.45 23.09, 34.26 28.32 C28.07 33.55, 3.89 31.1, -1.85 31.67" stroke="#000000" stroke-width="1" fill="none"></path></g><g transform="translate(505.2775226489173 395.53738611906306) rotate(0 19.089141180010728 14.657474217035087)"><path d="M15.58 26.43 C6.76 28.25, 1.64 28.71, -2.57 33.32 M15.29 25.44 C10.39 27.08, 5.14 29.94, -1.83 31.54" stroke="#000000" stroke-width="1" fill="none"></path></g><g transform="translate(505.2775226489173 395.53738611906306) rotate(0 19.089141180010728 14.657474217035087)"><path d="M15.56 38.54 C6.67 35.54, 1.56 31.2, -2.57 33.32 M15.27 37.55 C10.41 35.54, 5.17 34.74, -1.83 31.54" stroke="#000000" stroke-width="1" fill="none"></path></g></g><mask></mask><g transform="translate(546.9241856166295 395.57373590164684) rotate(0 78.92145538330078 19.846311850027575)"><text x="0" y="0" font-family="Virgil, Segoe UI Emoji" font-size="15.877049480022075px" fill="#000000" text-anchor="start" style="white-space: pre;" direction="ltr" dominant-baseline="text-before-edge">set the offset</text><text x="0" y="19.846311850027593" font-family="Virgil, Segoe UI Emoji" font-size="15.877049480022075px" fill="#000000" text-anchor="start" style="white-space: pre;" direction="ltr" dominant-baseline="text-before-edge">to the audio source</text></g><g stroke-linecap="round"><g transform="translate(502.6607055664062 474.33631461007246) rotate(0 159.02786449176992 -0.4535891334742814)"><path d="M-0.41 0.78 C52.34 0.94, 263.17 0.02, 316.07 -0.14 M1.58 0.15 C54.76 0.09, 265.99 -1.36, 318.46 -1.71" stroke="#000000" stroke-width="1" fill="none"></path></g><g transform="translate(502.6607055664062 474.33631461007246) rotate(0 159.02786449176992 -0.4535891334742814)"><path d="M291.64 7.74 C299.63 6.62, 307.03 3.58, 317.38 -3.33 M291.18 7.86 C296.86 6.5, 302.7 4.21, 319.04 -1.42" stroke="#000000" stroke-width="1" fill="none"></path></g><g transform="translate(502.6607055664062 474.33631461007246) rotate(0 159.02786449176992 -0.4535891334742814)"><path d="M291.51 -12.78 C299.34 -8.47, 306.78 -6.09, 317.38 -3.33 M291.04 -12.66 C296.85 -9.2, 302.73 -6.66, 319.04 -1.42" stroke="#000000" stroke-width="1" fill="none"></path></g></g><mask></mask><g transform="translate(553.8363298688616 448.59970746721535) rotate(0 97.27990722656247 12.5)"><text x="0" y="0" font-family="Virgil, Segoe UI Emoji" font-size="20px" fill="#000000" text-anchor="start" style="white-space: pre;" direction="ltr" dominant-baseline="text-before-edge">return audio source</text></g></svg>