<svg version="1.1" xmlns="http://www.w3.org/2000/svg" viewBox="0 0 426.5351432336258 286.65543066117283" width="426.5351432336258" height="286.65543066117283">
  <!-- svg-source:excalidraw -->
  
  <defs>
    <style class="style-fonts">
      @font-face {
        font-family: "Virgil";
        src: url("https://file%2B.vscode-resource.vscode-cdn.net/c%3A/Users/jiongqia/.vscode/extensions/pomdtr.excalidraw-editor-3.5.1/public//dist/excalidraw-assets/Virgil.woff2");
      }
      @font-face {
        font-family: "Cascadia";
        src: url("https://file%2B.vscode-resource.vscode-cdn.net/c%3A/Users/jiongqia/.vscode/extensions/pomdtr.excalidraw-editor-3.5.1/public//dist/excalidraw-assets/Cascadia.woff2");
      }
    </style>
  </defs>
  <rect x="0" y="0" width="426.5351432336258" height="286.65543066117283" fill="#ffffff"></rect><g stroke-linecap="round" transform="translate(98.24554626820435 123.65543066117283) rotate(0 103 76.5)"><path d="M7.86 8.16 C7.86 8.16, 7.86 8.16, 7.86 8.16 M7.86 8.16 C7.86 8.16, 7.86 8.16, 7.86 8.16 M3.66 19.09 C11.16 12.32, 14.84 7.01, 18.1 2.48 M3.66 19.09 C6.6 14.24, 11.02 11.49, 18.1 2.48 M2.75 26.24 C6.38 22.7, 13.2 17.71, 24.4 1.33 M2.75 26.24 C7.91 19.98, 13.3 13.24, 24.4 1.33 M2.48 32.64 C15.27 18.04, 25.18 5.77, 30.7 0.18 M2.48 32.64 C12.82 20.53, 23.43 7.42, 30.7 0.18 M2.88 38.28 C16.84 23.16, 29.25 8.39, 34.37 2.05 M2.88 38.28 C15.48 24.12, 28.07 9.43, 34.37 2.05 M2.62 44.68 C14.22 28.97, 27.48 16.7, 39.36 2.41 M2.62 44.68 C9.77 34.84, 17.69 26.78, 39.36 2.41 M2.36 51.07 C13.12 38.58, 23.96 29.52, 45 2.02 M2.36 51.07 C12.92 39.97, 21.27 29.52, 45 2.02 M2.75 56.72 C16.76 44.21, 26.36 29.43, 49.99 2.38 M2.75 56.72 C21.23 35.45, 39.42 15.08, 49.99 2.38 M2.49 63.11 C14.32 49.38, 27.53 34.69, 55.63 1.98 M2.49 63.11 C12.54 51.9, 25 38.85, 55.63 1.98 M2.23 69.51 C23.32 46.74, 44.77 20.92, 60.62 2.34 M2.23 69.51 C17.6 50.73, 32.21 34.29, 60.62 2.34 M2.62 75.16 C21.47 54.69, 37.44 33.3, 66.26 1.95 M2.62 75.16 C22.89 52.42, 42.2 29.58, 66.26 1.95 M2.36 81.55 C19.76 62.35, 36.13 43.43, 71.25 2.31 M2.36 81.55 C20.96 60.77, 39.5 41.15, 71.25 2.31 M2.1 87.95 C22.42 66.13, 42.73 43.35, 76.89 1.91 M2.1 87.95 C26.7 60.57, 51.26 31.8, 76.89 1.91 M2.49 93.59 C31.8 60.18, 60.53 25.86, 81.88 2.27 M2.49 93.59 C22.05 73.18, 39.43 51.65, 81.88 2.27 M2.23 99.99 C23.62 73.05, 43.79 50.19, 87.52 1.88 M2.23 99.99 C33.22 63.7, 63.88 28.16, 87.52 1.88 M1.97 106.39 C24.5 80.77, 48.73 50.55, 92.51 2.24 M1.97 106.39 C31.32 74.15, 58.56 40.97, 92.51 2.24 M2.37 112.03 C30.37 80.7, 60.64 45.84, 98.15 1.85 M2.37 112.03 C31.49 78.67, 61.29 45.61, 98.15 1.85 M2.1 118.43 C37.44 75.56, 77.86 32.45, 103.14 2.21 M2.1 118.43 C31.26 86.58, 60.95 52, 103.14 2.21 M3.16 123.32 C32.54 88.92, 64.01 53.81, 108.78 1.81 M3.16 123.32 C45.53 76.87, 85.48 31.02, 108.78 1.81 M3.55 128.96 C27.17 99.09, 49.37 74.62, 113.77 2.17 M3.55 128.96 C46.46 78.73, 89.91 29.47, 113.77 2.17 M2.63 136.11 C30.42 101.47, 57.97 71.99, 119.41 1.78 M2.63 136.11 C25.69 108.72, 50 78.54, 119.41 1.78 M5 139.49 C30.59 110.03, 56.21 79.76, 124.4 2.14 M5 139.49 C46.47 90.69, 88.06 43.84, 124.4 2.14 M7.36 142.87 C55.46 87.46, 103.04 30.91, 130.04 1.74 M7.36 142.87 C49.8 94.19, 91.17 45.3, 130.04 1.74 M9.72 146.25 C45.92 106.48, 79.16 67.19, 135.03 2.1 M9.72 146.25 C49.7 103.42, 86.66 59.59, 135.03 2.1 M13.4 148.12 C62.32 91.66, 110.84 31.37, 140.67 1.71 M13.4 148.12 C51.89 103.99, 88.76 61.28, 140.67 1.71 M16.41 150.75 C42.3 120.28, 67.41 90.98, 145.66 2.07 M16.41 150.75 C54.85 108.34, 92.48 66.27, 145.66 2.07 M20.09 152.61 C49.37 114.4, 82.03 77.88, 150.65 2.43 M20.09 152.61 C64.34 101.25, 110.83 49.53, 150.65 2.43 M24.42 153.73 C59.11 110.53, 96.19 71, 156.29 2.03 M24.42 153.73 C74.05 95.15, 126.14 37.81, 156.29 2.03 M29.41 154.09 C76.96 98.07, 126.06 45.79, 161.28 2.39 M29.41 154.09 C73.39 102.11, 117.32 52.34, 161.28 2.39 M34.39 154.45 C69.95 112.92, 107.74 73.68, 166.92 2 M34.39 154.45 C77.6 103.56, 120.66 52.12, 166.92 2 M39.38 154.81 C82.96 101.75, 127.72 50.85, 171.91 2.36 M39.38 154.81 C73.12 115.01, 105.76 75.9, 171.91 2.36 M44.37 155.17 C79.36 115.95, 115.31 72.49, 176.89 2.72 M44.37 155.17 C89.85 105.4, 133.64 55.01, 176.89 2.72 M50.01 154.78 C99.45 95.93, 151.07 40.76, 181.88 3.08 M50.01 154.78 C87.22 114.82, 122.63 73.32, 181.88 3.08 M55 155.14 C84.52 119.61, 112.21 88.63, 188.18 1.93 M55 155.14 C87.99 116.82, 122.61 78.56, 188.18 1.93 M60.64 154.74 C94.71 118.87, 127.14 79.57, 191.85 3.8 M60.64 154.74 C98.21 112.24, 135.74 68.72, 191.85 3.8 M65.63 155.1 C116.97 100.82, 164.24 44.1, 194.87 6.42 M65.63 155.1 C93.09 126.61, 119.03 95.9, 194.87 6.42 M71.27 154.71 C113.49 108.33, 152 63.13, 198.55 8.29 M71.27 154.71 C121.45 98.05, 169.44 41.35, 198.55 8.29 M76.26 155.07 C112.86 114.78, 146.35 70.01, 200.91 11.67 M76.26 155.07 C121.93 102.09, 166.74 50.1, 200.91 11.67 M81.9 154.67 C126.32 107.84, 166.94 56.56, 202.62 15.81 M81.9 154.67 C127.32 98.97, 176.26 43.8, 202.62 15.81 M86.89 155.03 C132.82 102.4, 176.93 51.92, 204.98 19.18 M86.89 155.03 C131.16 104.12, 176.78 51.56, 204.98 19.18 M92.53 154.64 C129.95 113.24, 164.55 70.78, 206.03 24.07 M92.53 154.64 C127.51 113.94, 162.05 73.33, 206.03 24.07 M97.52 155 C138.06 108.52, 179.59 59.99, 206.42 29.72 M97.52 155 C137.23 109.88, 175.08 66.75, 206.42 29.72 M103.16 154.6 C137.83 113.8, 173.15 72.17, 208.13 33.85 M103.16 154.6 C134.03 119.07, 164.63 84.29, 208.13 33.85 M108.15 154.96 C136.72 120.75, 166.34 87.75, 207.87 40.25 M108.15 154.96 C132.83 127.97, 155.58 102.06, 207.87 40.25 M113.79 154.57 C148.52 115.49, 183.23 74.53, 208.26 45.89 M113.79 154.57 C137.41 128.8, 159.22 102.65, 208.26 45.89 M118.78 154.93 C138.66 129.22, 159.56 105.62, 208 52.29 M118.78 154.93 C139.23 130.32, 161.54 104.86, 208 52.29 M124.42 154.53 C150.38 127.04, 175.47 97.64, 207.74 58.69 M124.42 154.53 C144.08 132.1, 163.28 110, 207.74 58.69 M129.41 154.89 C159.23 119.61, 192.84 85.23, 208.14 64.33 M129.41 154.89 C148.3 132.4, 168.79 109.45, 208.14 64.33 M135.05 154.5 C156.05 131.9, 178 106.24, 207.87 70.73 M135.05 154.5 C157.42 130.22, 180 104.35, 207.87 70.73 M140.04 154.86 C158.06 135.34, 172.86 115.82, 207.61 77.12 M140.04 154.86 C166.45 124.14, 192.83 94.05, 207.61 77.12 M145.68 154.47 C158.65 137.89, 170.83 124.86, 208.01 82.77 M145.68 154.47 C161.04 138.75, 175.1 120.29, 208.01 82.77 M150.67 154.83 C173.04 127.28, 195.48 102.33, 207.75 89.17 M150.67 154.83 C167.23 137.89, 181.27 119.8, 207.75 89.17 M155.66 155.19 C174.14 132.91, 195.27 111.99, 207.49 95.56 M155.66 155.19 C176.36 131.63, 197.01 108.13, 207.49 95.56 M161.3 154.79 C176.2 137.96, 188.01 123.61, 207.88 101.21 M161.3 154.79 C177.87 136.47, 192.92 118.23, 207.88 101.21 M166.29 155.15 C176.35 144.96, 186.56 133.01, 207.62 107.6 M166.29 155.15 C177.74 141.83, 188.71 129.04, 207.62 107.6 M171.93 154.76 C183.55 143.12, 190.52 130.71, 208.01 113.25 M171.93 154.76 C182.5 141.69, 194.85 129.43, 208.01 113.25 M176.92 155.12 C189.07 141.86, 196.01 131.2, 207.75 119.64 M176.92 155.12 C187.35 143.9, 198.16 131.06, 207.75 119.64 M182.56 154.72 C188.75 147, 194.54 141.59, 207.49 126.04 M182.56 154.72 C192.05 145.23, 199.48 135.23, 207.49 126.04 M189.51 152.82 C194.68 146.34, 197.44 142.61, 204.6 135.46 M189.51 152.82 C192.2 148.43, 197.23 144.88, 204.6 135.46" stroke="#228be6" stroke-width="0.5" fill="none"></path><path d="M32 0 M32 0 C64.63 0.89, 98.82 -1.58, 174 0 M32 0 C73.98 -0.2, 116.71 -0.15, 174 0 M174 0 C197.21 1.98, 204.07 10.27, 206 32 M174 0 C195.63 1.03, 204.63 11.11, 206 32 M206 32 C204.86 62.26, 204.61 95.57, 206 121 M206 32 C207.19 64.16, 206.59 96.49, 206 121 M206 121 C207.01 143.7, 194.34 151.89, 174 153 M206 121 C204.02 144.09, 194.52 151.98, 174 153 M174 153 C133.38 152.99, 96.84 155.18, 32 153 M174 153 C132.52 152.31, 91.15 152.96, 32 153 M32 153 C9.77 153.64, 0.16 143.97, 0 121 M32 153 C10.63 153.91, -1.73 142.19, 0 121 M0 121 C-1.43 91.68, 0.16 58.3, 0 32 M0 121 C-0.44 90.07, -1.64 60.09, 0 32 M0 32 C-1.81 11.12, 10.12 -1.47, 32 0 M0 32 C-1.97 8.69, 10.11 -2.25, 32 0" stroke="#000000" stroke-width="1" fill="none"></path></g><g transform="translate(175.7755603062903 128.65543066117283) rotate(0 25.469985961914062 12.5)"><text x="25.469985961914062" y="0" font-family="Virgil, Segoe UI Emoji" font-size="20px" fill="#000000" text-anchor="middle" style="white-space: pre;" direction="ltr" dominant-baseline="text-before-edge">CHRE</text></g><g stroke-linecap="round" transform="translate(153.45525040577434 10) rotate(0 45 23)"><path d="M3.06 2.66 C3.06 2.66, 3.06 2.66, 3.06 2.66 M3.06 2.66 C3.06 2.66, 3.06 2.66, 3.06 2.66 M1.49 10.57 C3.45 7.93, 6.22 5.48, 10.02 0.76 M1.49 10.57 C3.66 7.95, 5.47 4.92, 10.02 0.76 M1.88 16.21 C6.31 11.94, 7.94 6.37, 14.35 1.87 M1.88 16.21 C6.55 11.96, 11.61 6.41, 14.35 1.87 M1.62 22.61 C5.92 16.56, 10.53 12.05, 19.33 2.23 M1.62 22.61 C7.15 15.58, 12.32 10.41, 19.33 2.23 M2.02 28.25 C8.81 20.76, 13.62 12.58, 24.32 2.59 M2.02 28.25 C9.83 19.18, 17.26 12.01, 24.32 2.59 M1.75 34.65 C7.62 29.24, 13.83 21.92, 29.96 2.2 M1.75 34.65 C9.69 25.85, 16.16 18.05, 29.96 2.2 M2.8 39.54 C11.32 31.87, 19.26 21.26, 34.95 2.56 M2.8 39.54 C9.96 32.4, 16.32 23.97, 34.95 2.56 M5.17 42.92 C18.03 30.78, 27.86 18.47, 40.59 2.16 M5.17 42.92 C17.24 29.73, 27.71 16.29, 40.59 2.16 M6.87 47.05 C18.41 35.07, 29.54 23.16, 45.58 2.52 M6.87 47.05 C17.7 34.14, 31.27 20.88, 45.58 2.52 M12.52 46.66 C23.91 35.03, 33.39 24.78, 51.22 2.13 M12.52 46.66 C26.89 30.05, 41.62 14.1, 51.22 2.13 M17.5 47.02 C26.67 34.26, 38.69 18.47, 56.21 2.49 M17.5 47.02 C31.09 32.46, 43.22 16.52, 56.21 2.49 M23.15 46.62 C32.28 36.3, 39.23 25.88, 61.85 2.09 M23.15 46.62 C38.09 27.71, 53.56 11.63, 61.85 2.09 M28.13 46.98 C41.34 32.33, 51.74 19.53, 66.84 2.45 M28.13 46.98 C36.2 36.85, 43.62 28.64, 66.84 2.45 M33.78 46.59 C46.26 30.12, 60.65 13.63, 72.48 2.06 M33.78 46.59 C43.89 35.92, 53.03 23.5, 72.48 2.06 M38.76 46.95 C54.45 27.58, 67.9 10.56, 79.44 0.16 M38.76 46.95 C54.14 28.44, 70.3 9.95, 79.44 0.16 M44.41 46.55 C60.73 30.99, 72.87 13.35, 83.77 1.27 M44.41 46.55 C56.63 32.32, 69.97 18.88, 83.77 1.27 M49.39 46.91 C62.26 31.15, 80 12.5, 87.45 3.14 M49.39 46.91 C63.89 31.5, 77.51 14.11, 87.45 3.14 M55.04 46.52 C67.51 34.31, 81.53 20.03, 89.81 6.52 M55.04 46.52 C62.3 38.55, 69.87 29.45, 89.81 6.52 M60.02 46.88 C71.69 35.98, 82.7 20.12, 91.52 10.65 M60.02 46.88 C66.93 39.9, 72.02 32.33, 91.52 10.65 M65.67 46.48 C73.31 37.37, 82.83 26.66, 91.91 16.3 M65.67 46.48 C73.25 38.68, 81.26 28.45, 91.91 16.3 M70.65 46.84 C75.52 41.51, 81.66 33.12, 91.65 22.69 M70.65 46.84 C79.35 38.52, 86.24 28.29, 91.65 22.69 M76.3 46.45 C79.33 42.06, 84.62 37.79, 92.04 28.34 M76.3 46.45 C82.19 39.38, 88.3 33.41, 92.04 28.34 M80.63 47.56 C84.47 43.59, 84.23 40.43, 91.13 35.49 M80.63 47.56 C84.31 44.6, 86.28 40.19, 91.13 35.49" stroke="#82c91e" stroke-width="0.5" fill="none"></path><path d="M11.5 0 M11.5 0 C28.69 -1.16, 49.06 0.84, 78.5 0 M11.5 0 C38.99 -0.63, 64.65 -0.52, 78.5 0 M78.5 0 C84.94 -1.94, 88.58 2.54, 90 11.5 M78.5 0 C84.83 1.09, 89.8 2.34, 90 11.5 M90 11.5 C90.14 19.28, 90.36 26.68, 90 34.5 M90 11.5 C89.4 21.21, 89.76 30.36, 90 34.5 M90 34.5 C89.9 42.29, 87.08 47.89, 78.5 46 M90 34.5 C90.46 41.63, 84.97 46.28, 78.5 46 M78.5 46 C53.08 47.45, 26.38 47.25, 11.5 46 M78.5 46 C57.51 46.04, 37.78 46.6, 11.5 46 M11.5 46 C4.63 45.62, 0.11 43.09, 0 34.5 M11.5 46 C2.15 47.13, 1.85 44.03, 0 34.5 M0 34.5 C0.73 27.32, 0.65 16.71, 0 11.5 M0 34.5 C-1.06 26.17, -0.82 17.95, 0 11.5 M0 11.5 C-0.02 1.97, 5.56 -0.57, 11.5 0 M0 11.5 C0.8 1.62, 3.83 -0.15, 11.5 0" stroke="#000000" stroke-width="1" fill="none"></path></g><g transform="translate(160.37527909229777 20.499999999999943) rotate(0 38.07997131347656 12.5)"><text x="38.07997131347656" y="0" font-family="Virgil, Segoe UI Emoji" font-size="20px" fill="#000000" text-anchor="middle" style="white-space: pre;" direction="ltr" dominant-baseline="text-before-edge">nanoapp</text></g><g stroke-linecap="round"><g transform="translate(168.32017727330637 60.60682290759331) rotate(0 -0.5726577882050918 32.1214076082843)"><path d="M-0.79 -0.69 C-1.14 10.04, -1.18 54.1, -1.11 64.93 M0.99 1.56 C0.39 11.86, -1.84 52.32, -2.14 62.98" stroke="#000000" stroke-width="1" fill="none"></path></g><g transform="translate(168.32017727330637 60.60682290759331) rotate(0 -0.5726577882050918 32.1214076082843)"><path d="M-12.32 34.11 C-7.05 46.33, -4.62 56.05, -1.57 62.01 M-11.39 34.91 C-7.36 43.67, -4.21 55.72, -2.65 63.98" stroke="#000000" stroke-width="1" fill="none"></path></g><g transform="translate(168.32017727330637 60.60682290759331) rotate(0 -0.5726577882050918 32.1214076082843)"><path d="M8.18 34.99 C5.64 46.74, 0.27 56.12, -1.57 62.01 M9.11 35.8 C5.8 44.37, 1.62 56.11, -2.65 63.98" stroke="#000000" stroke-width="1" fill="none"></path></g></g><mask></mask><g stroke-linecap="round"><g transform="translate(230.01069748417973 116.56084661267238) rotate(0 0.5509865680004538 -26.82703596715885)"><path d="M-0.4 0.56 C-0.35 -8.18, 0.22 -43.57, -0.04 -52.63 M1.59 -0.19 C1.6 -9.22, -0.29 -45.48, -0.49 -54.21" stroke="#000000" stroke-width="1" fill="none"></path></g><g transform="translate(230.01069748417973 116.56084661267238) rotate(0 0.5509865680004538 -26.82703596715885)"><path d="M10.6 -27.79 C8.7 -37.77, 3.96 -42.98, 0.8 -54.22 M9.9 -29.38 C6.85 -38.55, 1.56 -49, 0.11 -53.66" stroke="#000000" stroke-width="1" fill="none"></path></g><g transform="translate(230.01069748417973 116.56084661267238) rotate(0 0.5509865680004538 -26.82703596715885)"><path d="M-7.74 -27.07 C-4.7 -37.18, -4.49 -42.59, 0.8 -54.22 M-8.44 -28.66 C-4.37 -38.28, -2.54 -49.01, 0.11 -53.66" stroke="#000000" stroke-width="1" fill="none"></path></g></g><mask></mask><g transform="translate(248.03526530393827 76.85645513752246) rotate(0 84.24993896484375 12.5)"><text x="0" y="0" font-family="Virgil, Segoe UI Emoji" font-size="20px" fill="#000000" text-anchor="start" style="white-space: pre;" direction="ltr" dominant-baseline="text-before-edge">call nanoapp apis</text></g><g transform="translate(10 75.26775277218513) rotate(0 71.63995361328125 12.5)"><text x="0" y="0" font-family="Virgil, Segoe UI Emoji" font-size="20px" fill="#000000" text-anchor="start" style="white-space: pre;" direction="ltr" dominant-baseline="text-before-edge">call CHRE apis</text></g><g stroke-linecap="round" transform="translate(113.33238684461526 166.14930501046655) rotate(0 53.38557100827268 44.635895807232146)"><path d="M5.28 5.92 C5.28 5.92, 5.28 5.92, 5.28 5.92 M5.28 5.92 C5.28 5.92, 5.28 5.92, 5.28 5.92 M0.43 17.6 C5.35 13.72, 10.05 7.92, 13.55 2.51 M0.43 17.6 C4.19 14.3, 7.02 11.17, 13.55 2.51 M0.83 23.24 C8.37 15.91, 10.96 10.45, 19.85 1.36 M0.83 23.24 C5.17 17.63, 9.69 13.67, 19.85 1.36 M0.56 29.64 C8.3 17.61, 20.83 8.56, 24.84 1.72 M0.56 29.64 C10.53 20.12, 19.43 7.99, 24.84 1.72 M0.96 35.28 C11.71 23.99, 18.86 12.85, 29.83 2.08 M0.96 35.28 C7.6 27.88, 12.99 22.32, 29.83 2.08 M0.7 41.68 C9.63 34.89, 15.1 23.25, 35.47 1.68 M0.7 41.68 C7.54 32.66, 15.9 23.1, 35.47 1.68 M0.44 48.08 C13.22 33.53, 27.28 15.86, 40.46 2.04 M0.44 48.08 C11.92 34.41, 24.13 20.19, 40.46 2.04 M0.83 53.72 C17.04 37.21, 30.82 20.47, 45.44 2.4 M0.83 53.72 C11.1 43.18, 20.09 31.72, 45.44 2.4 M0.57 60.12 C11.38 49.35, 18.67 35.23, 51.09 2.01 M0.57 60.12 C14.63 45.19, 28.22 29.09, 51.09 2.01 M0.96 65.76 C19.53 46.98, 37.6 25.92, 56.07 2.37 M0.96 65.76 C20.83 44.8, 38.96 22.27, 56.07 2.37 M0.7 72.16 C15.07 54.71, 32.04 34.77, 61.72 1.97 M0.7 72.16 C12.58 56.9, 26.71 42.2, 61.72 1.97 M2.41 76.29 C24.73 52.13, 44.9 30.05, 66.7 2.33 M2.41 76.29 C26.43 48.67, 49.96 20.98, 66.7 2.33 M4.12 80.43 C24.15 57.42, 45.03 35.75, 72.35 1.94 M4.12 80.43 C23.5 58.47, 41.3 36.3, 72.35 1.94 M5.82 84.56 C22.67 63.66, 37.93 47.57, 77.33 2.3 M5.82 84.56 C28.96 59.69, 51.23 33.46, 77.33 2.3 M10.15 85.68 C27.21 65.59, 42.55 48.52, 82.32 2.66 M10.15 85.68 C33.11 58.69, 54.58 33.89, 82.32 2.66 M13.83 87.55 C39.68 58.45, 67.35 25.22, 87.96 2.26 M13.83 87.55 C37.17 61.19, 60.15 34.12, 87.96 2.26 M17.5 89.42 C41.03 62.59, 62.99 37.28, 92.95 2.62 M17.5 89.42 C36.09 68, 57.57 44.93, 92.95 2.62 M23.15 89.02 C45.35 62.75, 65.09 40.92, 96.62 4.49 M23.15 89.02 C49.01 58.42, 73.91 28.48, 96.62 4.49 M28.13 89.38 C56.91 57.44, 87.12 21.18, 100.3 6.36 M28.13 89.38 C55.79 59.07, 80.43 28.25, 100.3 6.36 M33.12 89.74 C49.85 71.38, 69.73 47.86, 103.97 8.23 M33.12 89.74 C59.11 58.46, 87.95 26.56, 103.97 8.23 M38.76 89.35 C56.05 68.08, 76.19 45.6, 105.68 12.37 M38.76 89.35 C61.31 63.96, 83.67 38.64, 105.68 12.37 M43.75 89.71 C66.61 65.33, 88.09 38.37, 106.08 18.01 M43.75 89.71 C65.84 65.71, 86.57 40.84, 106.08 18.01 M49.39 89.31 C68.16 67.45, 83.71 49.48, 107.13 22.9 M49.39 89.31 C72.22 63.6, 94.63 36.4, 107.13 22.9 M54.38 89.67 C71.57 71.02, 91.42 47.35, 107.52 28.54 M54.38 89.67 C72.85 67.41, 92.4 47.2, 107.52 28.54 M60.02 89.28 C79.67 69.13, 98.31 46.83, 107.26 34.94 M60.02 89.28 C72.69 76.13, 82.45 64.25, 107.26 34.94 M65.01 89.64 C74.93 77.51, 85.65 65.12, 107 41.34 M65.01 89.64 C80.67 73.29, 95.52 53.88, 107 41.34 M70.65 89.24 C84.39 71.86, 98.98 57.6, 107.39 46.98 M70.65 89.24 C80.78 78.11, 90.4 65.56, 107.39 46.98 M75.64 89.6 C87.68 79.4, 96.5 67.15, 107.13 53.38 M75.64 89.6 C84.29 79.65, 93.67 69.92, 107.13 53.38 M80.63 89.96 C88.19 78.85, 99.99 69.64, 106.87 59.77 M80.63 89.96 C90.84 78.75, 100.62 68.32, 106.87 59.77 M85.61 90.32 C91.09 80.68, 102.19 71.72, 107.26 65.42 M85.61 90.32 C93.78 80.88, 101.51 70.92, 107.26 65.42 M91.91 89.17 C96.47 85.49, 98.86 79.59, 106.35 72.57 M91.91 89.17 C97.35 84, 101.05 79.18, 106.35 72.57" stroke="#fa5252" stroke-width="0.5" fill="none"></path><path d="M22.32 0 M22.32 0 C40.69 1.14, 56.28 -0.92, 84.45 0 M22.32 0 C34.99 0.29, 49.11 0.36, 84.45 0 M84.45 0 C99.25 0.72, 106.15 8.1, 106.77 22.32 M84.45 0 C99.52 -1.97, 108.88 8.94, 106.77 22.32 M106.77 22.32 C108.09 40.17, 105.09 56.3, 106.77 66.95 M106.77 22.32 C106.06 38.37, 106.07 53.82, 106.77 66.95 M106.77 66.95 C106.86 82.5, 100.76 89.4, 84.45 89.27 M106.77 66.95 C107.21 80.67, 99.84 89.95, 84.45 89.27 M84.45 89.27 C65.89 89.45, 44.75 89.54, 22.32 89.27 M84.45 89.27 C63.09 89.82, 41.05 89.05, 22.32 89.27 M22.32 89.27 C9.39 90.03, -1.48 80.29, 0 66.95 M22.32 89.27 C6.81 89.27, 0.99 83.8, 0 66.95 M0 66.95 C-0.95 52.36, 1.25 41.18, 0 22.32 M0 66.95 C-0.12 51.22, 0.86 34.68, 0 22.32 M0 22.32 C-0.09 6.27, 6.15 -1.07, 22.32 0 M0 22.32 C-2.28 8.72, 6.41 0.12, 22.32 0" stroke="#000000" stroke-width="1" fill="none"></path></g><g transform="translate(138.9579862342356 185.7852008176987) rotate(0 27.759971618652344 25)"><text x="27.759971618652344" y="0" font-family="Virgil, Segoe UI Emoji" font-size="20px" fill="#000000" text-anchor="middle" style="white-space: pre;" direction="ltr" dominant-baseline="text-before-edge">event</text><text x="27.759971618652344" y="25" font-family="Virgil, Segoe UI Emoji" font-size="20px" fill="#000000" text-anchor="middle" style="white-space: pre;" direction="ltr" dominant-baseline="text-before-edge">queue</text></g></svg>