<svg version="1.1" xmlns="http://www.w3.org/2000/svg" viewBox="0 0 1261.7987682829234 770" width="1261.7987682829234" height="770">
  <!-- svg-source:excalidraw -->
  
  <defs>
    <style class="style-fonts">
      @font-face {
        font-family: "Virgil";
        src: url("https://file%2B.vscode-resource.vscode-cdn.net/c%3A/Users/jiongqia/.vscode/extensions/pomdtr.excalidraw-editor-3.5.1/public//dist/excalidraw-assets/Virgil.woff2");
      }
      @font-face {
        font-family: "Cascadia";
        src: url("https://file%2B.vscode-resource.vscode-cdn.net/c%3A/Users/jiongqia/.vscode/extensions/pomdtr.excalidraw-editor-3.5.1/public//dist/excalidraw-assets/Cascadia.woff2");
      }
    </style>
  </defs>
  <rect x="0" y="0" width="1261.7987682829234" height="770" fill="#ffffff"></rect><g stroke-linecap="round" transform="translate(349.142647153319 236.54523679238707) rotate(0 59.499999999999986 92.5)"><path d="M4.2 11.6 C4.2 11.6, 4.2 11.6, 4.2 11.6 M4.2 11.6 C4.2 11.6, 4.2 11.6, 4.2 11.6 M0.66 21.77 C5.11 16.96, 8.86 13.66, 13.78 6.68 M0.66 21.77 C5.79 16.53, 8.73 10.71, 13.78 6.68 M3.02 25.15 C12.26 14.48, 17.69 6.14, 24.02 1 M3.02 25.15 C10.2 17.73, 16.84 10.84, 24.02 1 M2.76 31.55 C13.26 23.16, 21.36 10.48, 30.31 -0.15 M2.76 31.55 C10.01 24.74, 15.05 17.26, 30.31 -0.15 M3.15 37.19 C14.6 24.23, 23.72 12.42, 35.3 0.21 M3.15 37.19 C13.95 24.93, 26 12.71, 35.3 0.21 M2.89 43.59 C17.15 28.04, 30.24 10.17, 40.29 0.57 M2.89 43.59 C15.19 30.38, 25.88 16.79, 40.29 0.57 M3.29 49.23 C17.47 31.77, 32.69 12.9, 45.93 0.18 M3.29 49.23 C18.77 30.81, 35.49 12.33, 45.93 0.18 M3.03 55.63 C16.74 39.84, 31.59 22.03, 50.92 0.54 M3.03 55.63 C17.56 37.87, 33.59 21.87, 50.92 0.54 M2.76 62.03 C17.55 46.76, 30.61 29.64, 56.56 0.14 M2.76 62.03 C16.18 46.71, 26.55 34.46, 56.56 0.14 M3.16 67.67 C20.54 47.36, 39.03 25.25, 61.55 0.5 M3.16 67.67 C20.4 47.72, 36.81 29.59, 61.55 0.5 M2.9 74.07 C17.93 55.4, 33.52 39.02, 67.19 0.11 M2.9 74.07 C17.97 57.45, 32.81 39.43, 67.19 0.11 M2.64 80.47 C23.67 56.45, 43.91 34.6, 72.18 0.47 M2.64 80.47 C20.64 61.19, 36.95 40.27, 72.18 0.47 M3.03 86.11 C30.1 55.84, 52.61 27.03, 77.17 0.83 M3.03 86.11 C23.64 62.91, 43.92 39.46, 77.17 0.83 M2.77 92.51 C23.4 68.19, 43.45 43.51, 82.81 0.43 M2.77 92.51 C22.16 69.46, 43.98 44.26, 82.81 0.43 M3.16 98.15 C25.06 73.38, 47.24 46.59, 87.8 0.79 M3.16 98.15 C31.81 67.25, 58.65 34.28, 87.8 0.79 M2.9 104.55 C20.83 83.96, 40.18 60.86, 93.44 0.4 M2.9 104.55 C37.81 65.91, 72.5 23.69, 93.44 0.4 M2.64 110.95 C31.49 77.77, 58.11 44.56, 97.77 1.51 M2.64 110.95 C29.64 77.72, 58.95 45.33, 97.77 1.51 M3.04 116.59 C44.31 72.34, 80.28 25.84, 101.44 3.38 M3.04 116.59 C33.81 80.52, 67.36 43.82, 101.44 3.38 M2.77 122.99 C39.5 80.25, 77.87 38.89, 105.78 4.5 M2.77 122.99 C26.68 94.71, 52.78 66.29, 105.78 4.5 M2.51 129.39 C29.87 95.46, 61.46 63.61, 109.45 6.37 M2.51 129.39 C25.7 104.37, 46.56 79.7, 109.45 6.37 M2.91 135.03 C29.02 104.85, 54.6 77.79, 113.13 8.24 M2.91 135.03 C32.94 98.93, 65.85 63.4, 113.13 8.24 M2.65 141.43 C44.33 92.6, 86.6 45.87, 114.83 12.37 M2.65 141.43 C42.41 96.28, 81.61 51.88, 114.83 12.37 M2.38 147.82 C34.79 111.19, 62.94 75.37, 117.2 15.75 M2.38 147.82 C39.07 103.97, 75.98 62.75, 117.2 15.75 M0.81 155.73 C45.35 105.13, 89.01 55.76, 119.56 19.13 M0.81 155.73 C40.47 110.68, 78.84 67.61, 119.56 19.13 M1.21 161.37 C37.47 119.39, 74.38 76.29, 120.61 24.02 M1.21 161.37 C41.51 113.16, 82.75 66.25, 120.61 24.02 M2.26 166.26 C35.05 130.76, 65.51 93.38, 120.35 30.42 M2.26 166.26 C38.53 121.21, 76.52 78.09, 120.35 30.42 M3.96 170.4 C49.64 117.67, 95.06 63.34, 120.09 36.81 M3.96 170.4 C36.24 133.78, 67.84 99.1, 120.09 36.81 M6.33 173.78 C52.68 123.14, 96.12 74.05, 119.82 43.21 M6.33 173.78 C45.36 127.87, 84.68 83.54, 119.82 43.21 M8.03 177.91 C50.14 127.12, 92.29 79.67, 120.22 48.85 M8.03 177.91 C44.38 132.63, 83.84 89.79, 120.22 48.85 M11.05 180.53 C34.28 153.46, 54.76 128.72, 119.96 55.25 M11.05 180.53 C33.97 153.02, 56.96 128.1, 119.96 55.25 M14.07 183.16 C51.44 139.24, 92.99 93.14, 119.7 61.65 M14.07 183.16 C47.99 143.68, 82.81 104.22, 119.7 61.65 M18.4 184.27 C47.86 149.22, 78.7 114.37, 120.09 67.29 M18.4 184.27 C58.11 141.95, 96.57 96.19, 120.09 67.29 M23.39 184.63 C53.12 150.07, 83.1 115.02, 119.83 73.69 M23.39 184.63 C51.47 152.89, 78.3 119.46, 119.83 73.69 M28.38 184.99 C48.58 161.48, 66.31 143.08, 120.22 79.33 M28.38 184.99 C56.72 151.25, 84.53 118.51, 120.22 79.33 M34.02 184.6 C62.15 150.78, 89.02 119.15, 119.96 85.73 M34.02 184.6 C56.59 157.41, 81.37 130.9, 119.96 85.73 M39.01 184.96 C68.33 153.64, 92.57 121.28, 119.7 92.13 M39.01 184.96 C64.39 156.32, 89.86 127.13, 119.7 92.13 M43.99 185.32 C59.39 167.43, 78.64 147.89, 120.1 97.77 M43.99 185.32 C73.7 152.59, 101.69 118.79, 120.1 97.77 M49.64 184.92 C68.34 160.73, 88.06 140.7, 119.83 104.17 M49.64 184.92 C68.86 162.06, 89.45 138.66, 119.83 104.17 M54.62 185.28 C80.64 156.58, 105.57 127.87, 119.57 110.57 M54.62 185.28 C72.42 166.73, 89.35 146.81, 119.57 110.57 M60.27 184.89 C78.66 161.69, 99.11 136.98, 119.97 116.21 M60.27 184.89 C83.34 159.49, 106.65 132.43, 119.97 116.21 M65.25 185.25 C78.02 165.45, 96.48 150.17, 119.71 122.61 M65.25 185.25 C82 165.09, 98.5 146.88, 119.71 122.61 M70.9 184.85 C87.76 167.56, 104.54 149.09, 119.44 129.01 M70.9 184.85 C87 166.51, 105.39 145.69, 119.44 129.01 M75.88 185.22 C92.55 165.96, 109.08 150.11, 119.84 134.65 M75.88 185.22 C93.49 166.51, 110.49 146.79, 119.84 134.65 M80.87 185.58 C89.52 177.67, 99.66 167.33, 119.58 141.05 M80.87 185.58 C94.53 168, 109.52 152.16, 119.58 141.05 M86.51 185.18 C98.12 172.81, 106.67 159.91, 119.97 146.69 M86.51 185.18 C98.01 171.93, 109.74 159.04, 119.97 146.69 M90.84 186.3 C101.21 177.09, 107.11 166.24, 119.71 153.09 M90.84 186.3 C96.72 177.69, 104.54 169.79, 119.71 153.09 M97.14 185.15 C104.85 176.7, 109.18 168.03, 119.45 159.49 M97.14 185.15 C103.23 177.09, 111.17 170.8, 119.45 159.49 M103.44 184 C110.36 175.33, 113.41 170.31, 120.5 164.37 M103.44 184 C109.17 176.21, 117.06 168.17, 120.5 164.37" stroke="#ced4da" stroke-width="0.5" fill="none"></path><path d="M29.75 0 M29.75 0 C45.12 1.81, 57.25 1.23, 89.25 0 M29.75 0 C48.52 0.8, 67.32 0.74, 89.25 0 M89.25 0 C110.01 0.29, 118.5 9.27, 119 29.75 M89.25 0 C107.81 -2.26, 120.89 9.34, 119 29.75 M119 29.75 C116.8 67.62, 118.02 106.39, 119 155.25 M119 29.75 C118.91 72.25, 119.81 116.68, 119 155.25 M119 155.25 C118.69 176.06, 107.68 183.14, 89.25 185 M119 155.25 C117.72 177.02, 110.07 183.48, 89.25 185 M89.25 185 C77.48 183.71, 64.98 186.85, 29.75 185 M89.25 185 C75.88 184.61, 61.39 185.86, 29.75 185 M29.75 185 C9.9 185.04, 0.42 176.55, 0 155.25 M29.75 185 C11.72 187.09, 1.55 173.08, 0 155.25 M0 155.25 C-0.73 126.21, -1.25 94.02, 0 29.75 M0 155.25 C-0.34 127.74, -1.38 100.76, 0 29.75 M0 29.75 C1.87 9.2, 10.39 -0.12, 29.75 0 M0 29.75 C0.54 11.26, 11.42 0.53, 29.75 0" stroke="#000000" stroke-width="1" fill="none"></path></g><g transform="translate(385.205147153319 241.54523679238707) rotate(0 23.4375 12)"><text x="23.4375" y="0" font-family="Cascadia, Segoe UI Emoji" font-size="20px" fill="#000000" text-anchor="middle" style="white-space: pre;" direction="ltr" dominant-baseline="text-before-edge">CHRE</text></g><g stroke-linecap="round" transform="translate(360.14956701415883 282.55216428262145) rotate(0 35 65)"><path d="M2.16 7.18 C2.16 7.18, 2.16 7.18, 2.16 7.18 M2.16 7.18 C2.16 7.18, 2.16 7.18, 2.16 7.18 M1.24 14.33 C3.79 11.73, 5.47 8.33, 9.77 4.52 M1.24 14.33 C4 11.1, 6.67 7.91, 9.77 4.52 M0.98 20.73 C5.98 16.76, 11.22 11.61, 18.04 1.11 M0.98 20.73 C6.22 14.72, 11.48 8.48, 18.04 1.11 M1.38 26.37 C5.69 20.92, 14.24 11.38, 23.68 0.71 M1.38 26.37 C5.85 20.79, 11.44 12.97, 23.68 0.71 M1.12 32.77 C8.29 24.72, 15.28 16.86, 28.67 1.07 M1.12 32.77 C8.56 24.7, 15.27 16.2, 28.67 1.07 M1.51 38.41 C8.59 27.03, 19.02 19.42, 34.31 0.68 M1.51 38.41 C9.53 29.62, 17.33 20.85, 34.31 0.68 M1.25 44.81 C14.17 31.88, 28.18 16.02, 39.3 1.04 M1.25 44.81 C10.71 35.03, 19 25.9, 39.3 1.04 M0.99 51.21 C8.62 40.53, 22.34 28.12, 44.94 0.64 M0.99 51.21 C10.84 41.38, 18.85 30.37, 44.94 0.64 M1.38 56.85 C13.76 39.95, 26.56 26.03, 49.93 1 M1.38 56.85 C15.6 40.23, 31.63 20.98, 49.93 1 M1.12 63.25 C12.59 45.88, 28.12 33.1, 54.92 1.36 M1.12 63.25 C21.43 38.43, 43.14 14.42, 54.92 1.36 M0.86 69.65 C23 42.41, 45.26 19.79, 59.25 2.48 M0.86 69.65 C15.59 52.13, 29.83 36.7, 59.25 2.48 M1.25 75.29 C25.84 50.58, 48.54 22.68, 64.24 2.84 M1.25 75.29 C24.05 50.19, 45.65 24.82, 64.24 2.84 M0.99 81.69 C21.75 55.3, 43.69 33.15, 66.6 6.22 M0.99 81.69 C23.5 55.2, 46.11 28.99, 66.6 6.22 M1.39 87.33 C20.6 65.52, 38.86 44.33, 68.96 9.6 M1.39 87.33 C25 60.87, 48.19 32.29, 68.96 9.6 M1.13 93.73 C22.9 70.62, 40.99 46.89, 71.98 12.22 M1.13 93.73 C28.55 62.94, 55.2 31.7, 71.98 12.22 M0.86 100.13 C22.19 76.65, 42.96 50.78, 71.72 18.62 M0.86 100.13 C26.68 69.56, 53.32 39.31, 71.72 18.62 M1.26 105.77 C29.11 74.69, 53.46 45.14, 71.46 25.02 M1.26 105.77 C24.62 80.67, 47.16 54.38, 71.46 25.02 M0.34 112.92 C16.42 94.18, 28.47 77.58, 71.2 31.41 M0.34 112.92 C22.55 86.24, 45.73 59.43, 71.2 31.41 M1.39 117.81 C17.6 100.49, 31.49 83.71, 71.59 37.06 M1.39 117.81 C25.63 89.35, 51.75 59.41, 71.59 37.06 M3.1 121.95 C27.86 95.34, 48.22 70.19, 71.33 43.46 M3.1 121.95 C21.12 101.04, 37.85 80.15, 71.33 43.46 M4.81 126.08 C32.31 93.98, 55.78 66.56, 71.72 49.1 M4.81 126.08 C27.87 100.53, 49.84 73.63, 71.72 49.1 M8.48 127.95 C30.38 105.5, 47.73 83, 71.46 55.5 M8.48 127.95 C28 102.93, 49.86 80.03, 71.46 55.5 M12.16 129.82 C36.6 102.74, 58.24 78.61, 71.2 61.89 M12.16 129.82 C27.49 110.42, 44.35 91.72, 71.2 61.89 M15.83 131.69 C35.24 109.07, 59.48 85.37, 71.6 67.54 M15.83 131.69 C26.59 118.64, 38.01 105.72, 71.6 67.54 M20.82 132.05 C30.56 120.14, 43.71 104.07, 71.33 73.93 M20.82 132.05 C34.17 118.79, 45.01 104.31, 71.33 73.93 M26.46 131.65 C44.15 113.09, 59.43 91.95, 71.07 80.33 M26.46 131.65 C39.13 116.78, 51.44 101.26, 71.07 80.33 M32.1 131.26 C43.43 118.61, 52.26 110.27, 71.47 85.98 M32.1 131.26 C44.05 117.33, 57.6 100.87, 71.47 85.98 M37.09 131.62 C43.96 124.79, 51.67 117.28, 71.21 92.37 M37.09 131.62 C48.94 118.78, 59.58 107.91, 71.21 92.37 M42.73 131.22 C52.96 120.79, 63.54 107.75, 71.6 98.02 M42.73 131.22 C50.49 122.41, 56.62 114.13, 71.6 98.02 M47.72 131.58 C55.32 120.2, 65.78 110.38, 71.34 104.41 M47.72 131.58 C55.02 123.56, 62.44 114.94, 71.34 104.41 M53.36 131.19 C57.4 125.97, 66.17 118.86, 71.08 110.81 M53.36 131.19 C59.93 123.79, 65.06 117.33, 71.08 110.81 M60.32 129.29 C61.43 126.47, 65.88 124.31, 70.82 117.21 M60.32 129.29 C63.53 125.3, 65 123.46, 70.82 117.21" stroke="#868e96" stroke-width="0.5" fill="none"></path><path d="M17.5 0 M17.5 0 C30.39 -0.12, 38.59 -0.18, 52.5 0 M17.5 0 C28.91 0.41, 40.2 0.77, 52.5 0 M52.5 0 C65.56 0.95, 70.71 4.54, 70 17.5 M52.5 0 C62.84 1.74, 72.15 4.36, 70 17.5 M70 17.5 C71.69 51.15, 72.3 88.04, 70 112.5 M70 17.5 C71.81 55.52, 71.58 92.87, 70 112.5 M70 112.5 C68.41 125.29, 63.58 130.36, 52.5 130 M70 112.5 C72.07 126.42, 65.64 131.52, 52.5 130 M52.5 130 C42.69 129.67, 35.62 130.27, 17.5 130 M52.5 130 C44.1 129.08, 35.3 130.52, 17.5 130 M17.5 130 C7.25 130.21, 0.47 124.26, 0 112.5 M17.5 130 C6.83 130.98, -0.23 121.93, 0 112.5 M0 112.5 C-1.59 87.13, -1.98 64.18, 0 17.5 M0 112.5 C0.82 81.49, 0.93 50.88, 0 17.5 M0 17.5 C1.7 6.68, 5.31 -1.54, 17.5 0 M0 17.5 C-1.68 5.83, 7.53 -0.76, 17.5 0" stroke="#000000" stroke-width="1" fill="none"></path></g><g transform="translate(371.71206701415883 287.55216428262145) rotate(0 23.4375 19.19999999999999)"><text x="23.4375" y="0" font-family="Cascadia, Segoe UI Emoji" font-size="16px" fill="#000000" text-anchor="middle" style="white-space: pre;" direction="ltr" dominant-baseline="text-before-edge">event</text><text x="23.4375" y="19.2" font-family="Cascadia, Segoe UI Emoji" font-size="16px" fill="#000000" text-anchor="middle" style="white-space: pre;" direction="ltr" dominant-baseline="text-before-edge">queue</text></g><g stroke-linecap="round" transform="translate(893.5244748595053 326.5327710562802) rotate(0 73 32)"><path d="M4.26 3.7 C4.26 3.7, 4.26 3.7, 4.26 3.7 M4.26 3.7 C4.26 3.7, 4.26 3.7, 4.26 3.7 M1.37 13.12 C3.59 9.52, 6.14 7.29, 10.56 2.55 M1.37 13.12 C5.43 9.49, 8.36 5.33, 10.56 2.55 M1.11 19.52 C3.27 13.91, 7.72 13.16, 16.86 1.4 M1.11 19.52 C6.62 14.22, 9.48 8.21, 16.86 1.4 M1.51 25.16 C11.08 16.72, 19.42 5.2, 22.5 1.01 M1.51 25.16 C7.87 16.98, 14.39 9.76, 22.5 1.01 M1.24 31.56 C9.44 22.69, 19.6 12.25, 27.49 1.37 M1.24 31.56 C7.25 24.63, 14.48 17.89, 27.49 1.37 M1.64 37.2 C12.26 26.33, 20.57 14.49, 33.13 0.97 M1.64 37.2 C8.4 29.88, 14.63 22.79, 33.13 0.97 M1.38 43.6 C14.89 26.04, 31.64 10.33, 38.12 1.33 M1.38 43.6 C9.87 33.85, 17.15 26, 38.12 1.33 M1.12 50 C18.2 33.13, 32.41 13.88, 43.76 0.94 M1.12 50 C17.35 31.62, 34.2 12.5, 43.76 0.94 M2.82 54.13 C19.72 37.19, 34.9 18.5, 48.75 1.3 M2.82 54.13 C14.88 40.69, 25.39 29.55, 48.75 1.3 M3.87 59.02 C22.02 41.61, 38.96 22.6, 53.73 1.66 M3.87 59.02 C15.03 46.84, 24.61 33.85, 53.73 1.66 M6.89 61.64 C22.94 46.12, 36.51 27.08, 59.38 1.27 M6.89 61.64 C28.05 37.9, 49.03 14.02, 59.38 1.27 M9.91 64.27 C28.87 40.14, 52.84 17.02, 64.36 1.63 M9.91 64.27 C27.1 45.22, 43.48 24.37, 64.36 1.63 M15.55 63.87 C28.25 46.75, 41.88 32.13, 70.01 1.23 M15.55 63.87 C33.57 43.56, 51.19 23.37, 70.01 1.23 M20.54 64.23 C39.69 38.81, 62.18 17.64, 74.99 1.59 M20.54 64.23 C36.17 48.72, 50.38 31.7, 74.99 1.59 M26.18 63.84 C35.53 51.01, 50.9 38.6, 80.64 1.2 M26.18 63.84 C47.1 40.46, 66.29 18.52, 80.64 1.2 M31.17 64.2 C48.34 44.45, 66.91 21.5, 85.62 1.56 M31.17 64.2 C48.82 44.11, 67.3 22.88, 85.62 1.56 M36.16 64.56 C49.38 49.28, 65.81 30.5, 90.61 1.92 M36.16 64.56 C47.58 51.83, 59.21 39.09, 90.61 1.92 M41.8 64.16 C59.68 43.11, 81.4 20.57, 96.25 1.52 M41.8 64.16 C60.67 43.67, 80.64 20.33, 96.25 1.52 M46.79 64.52 C58.6 49.35, 70.27 39.2, 101.24 1.88 M46.79 64.52 C60.77 48.95, 73.18 35.41, 101.24 1.88 M52.43 64.13 C70.17 46.84, 86.81 27.89, 106.88 1.49 M52.43 64.13 C64.75 50.42, 76.4 36.81, 106.88 1.49 M57.42 64.49 C68.66 51.45, 81.92 35.64, 111.87 1.85 M57.42 64.49 C77.02 41.67, 96.97 19.36, 111.87 1.85 M63.06 64.09 C84.07 43.26, 103.76 17.74, 116.86 2.21 M63.06 64.09 C73.67 50.13, 85.99 36.6, 116.86 2.21 M68.05 64.45 C84.35 45.67, 102.36 25.4, 122.5 1.81 M68.05 64.45 C80.33 48.36, 94.86 33.71, 122.5 1.81 M73.04 64.81 C89.2 48.34, 101.63 31.27, 127.49 2.17 M73.04 64.81 C88.57 45.87, 106.33 27.28, 127.49 2.17 M78.68 64.42 C100.43 39.62, 119.78 16.38, 133.13 1.78 M78.68 64.42 C90.06 50.53, 102.83 38.19, 133.13 1.78 M83.67 64.78 C95.81 51.86, 109.61 37.97, 138.12 2.14 M83.67 64.78 C104.64 40.58, 125.73 14.93, 138.12 2.14 M89.31 64.39 C100.49 51.94, 114.32 36.24, 141.79 4.01 M89.31 64.39 C109.33 40.88, 127.69 18.96, 141.79 4.01 M94.3 64.75 C106.16 50.33, 116.15 37.01, 144.81 6.63 M94.3 64.75 C108.09 48.86, 122.33 34.02, 144.81 6.63 M99.28 65.11 C110.6 51.66, 121.98 38.07, 146.52 10.77 M99.28 65.11 C114.31 49.25, 128.94 31.54, 146.52 10.77 M104.93 64.71 C119.75 46.59, 135.18 28.7, 148.23 14.9 M104.93 64.71 C118.57 49.55, 133.14 32.64, 148.23 14.9 M109.91 65.07 C121.06 49.77, 132.03 39.13, 148.62 20.54 M109.91 65.07 C124.55 47.48, 138.63 32.57, 148.62 20.54 M115.56 64.68 C123.42 55.63, 133.53 47.05, 148.36 26.94 M115.56 64.68 C126.58 51.96, 137.74 38.34, 148.36 26.94 M120.54 65.04 C124.97 58.17, 134.42 52.25, 148.1 33.34 M120.54 65.04 C131.88 51.95, 142.26 39.6, 148.1 33.34 M126.19 64.64 C133.84 56.15, 138.41 50.29, 147.84 39.74 M126.19 64.64 C131.26 60.37, 135.27 55.48, 147.84 39.74 M131.17 65 C135.59 56.8, 142.82 51.52, 148.23 45.38 M131.17 65 C136.08 58.39, 143.42 52, 148.23 45.38 M137.47 63.85 C139.78 60.62, 141.73 59.99, 145.35 54.8 M137.47 63.85 C140.23 61.28, 142.97 57.58, 145.35 54.8" stroke="#82c91e" stroke-width="0.5" fill="none"></path><path d="M16 0 M16 0 C51.83 -0.64, 90.19 -0.72, 130 0 M16 0 C51.16 -0.85, 87.23 0.29, 130 0 M130 0 C140.12 -0.85, 146.24 5.08, 146 16 M130 0 C139.57 -1.49, 147.01 7.63, 146 16 M146 16 C147.68 23.44, 145.17 30.59, 146 48 M146 16 C145.93 28.57, 146.52 40.72, 146 48 M146 48 C146.56 57.35, 142.02 62.03, 130 64 M146 48 C143.94 57.24, 138.83 62.01, 130 64 M130 64 C94.37 64.04, 61.01 63.49, 16 64 M130 64 C102.08 64.41, 72.39 64.7, 16 64 M16 64 C5.07 63.84, 1.56 58.17, 0 48 M16 64 C7.35 63.87, 1.98 58.6, 0 48 M0 48 C-1.58 37.66, 0.04 24.68, 0 16 M0 48 C0.06 34.69, 0.4 23.29, 0 16 M0 16 C1.65 4.88, 6.8 1.38, 16 0 M0 16 C0.95 4.12, 4.35 -1.29, 16 0" stroke="#000000" stroke-width="1" fill="none"></path></g><g transform="translate(900.8994748595053 348.93277105628016) rotate(0 65.625 9.599999999999994)"><text x="65.625" y="0" font-family="Cascadia, Segoe UI Emoji" font-size="16px" fill="#000000" text-anchor="middle" style="white-space: pre;" direction="ltr" dominant-baseline="text-before-edge">wasm nanoapp 1</text></g><g stroke-linecap="round" transform="translate(581.2450131965982 572.987652635493) rotate(0 73 32)"><path d="M4.26 3.7 C4.26 3.7, 4.26 3.7, 4.26 3.7 M4.26 3.7 C4.26 3.7, 4.26 3.7, 4.26 3.7 M1.37 13.12 C3.59 9.52, 6.14 7.29, 10.56 2.55 M1.37 13.12 C5.43 9.49, 8.36 5.33, 10.56 2.55 M1.11 19.52 C3.27 13.91, 7.72 13.16, 16.86 1.4 M1.11 19.52 C6.62 14.22, 9.48 8.21, 16.86 1.4 M1.51 25.16 C11.08 16.72, 19.42 5.2, 22.5 1.01 M1.51 25.16 C7.87 16.98, 14.39 9.76, 22.5 1.01 M1.24 31.56 C9.44 22.69, 19.6 12.25, 27.49 1.37 M1.24 31.56 C7.25 24.63, 14.48 17.89, 27.49 1.37 M1.64 37.2 C12.26 26.33, 20.57 14.49, 33.13 0.97 M1.64 37.2 C8.4 29.88, 14.63 22.79, 33.13 0.97 M1.38 43.6 C14.89 26.04, 31.64 10.33, 38.12 1.33 M1.38 43.6 C9.87 33.85, 17.15 26, 38.12 1.33 M1.12 50 C18.2 33.13, 32.41 13.88, 43.76 0.94 M1.12 50 C17.35 31.62, 34.2 12.5, 43.76 0.94 M2.82 54.13 C19.72 37.19, 34.9 18.5, 48.75 1.3 M2.82 54.13 C14.88 40.69, 25.39 29.55, 48.75 1.3 M3.87 59.02 C22.02 41.61, 38.96 22.6, 53.73 1.66 M3.87 59.02 C15.03 46.84, 24.61 33.85, 53.73 1.66 M6.89 61.64 C22.94 46.12, 36.51 27.08, 59.38 1.27 M6.89 61.64 C28.05 37.9, 49.03 14.02, 59.38 1.27 M9.91 64.27 C28.87 40.14, 52.84 17.02, 64.36 1.63 M9.91 64.27 C27.1 45.22, 43.48 24.37, 64.36 1.63 M15.55 63.87 C28.25 46.75, 41.88 32.13, 70.01 1.23 M15.55 63.87 C33.57 43.56, 51.19 23.37, 70.01 1.23 M20.54 64.23 C39.69 38.81, 62.18 17.64, 74.99 1.59 M20.54 64.23 C36.17 48.72, 50.38 31.7, 74.99 1.59 M26.18 63.84 C35.53 51.01, 50.9 38.6, 80.64 1.2 M26.18 63.84 C47.1 40.46, 66.29 18.52, 80.64 1.2 M31.17 64.2 C48.34 44.45, 66.91 21.5, 85.62 1.56 M31.17 64.2 C48.82 44.11, 67.3 22.88, 85.62 1.56 M36.16 64.56 C49.38 49.28, 65.81 30.5, 90.61 1.92 M36.16 64.56 C47.58 51.83, 59.21 39.09, 90.61 1.92 M41.8 64.16 C59.68 43.11, 81.4 20.57, 96.25 1.52 M41.8 64.16 C60.67 43.67, 80.64 20.33, 96.25 1.52 M46.79 64.52 C58.6 49.35, 70.27 39.2, 101.24 1.88 M46.79 64.52 C60.77 48.95, 73.18 35.41, 101.24 1.88 M52.43 64.13 C70.17 46.84, 86.81 27.89, 106.88 1.49 M52.43 64.13 C64.75 50.42, 76.4 36.81, 106.88 1.49 M57.42 64.49 C68.66 51.45, 81.92 35.64, 111.87 1.85 M57.42 64.49 C77.02 41.67, 96.97 19.36, 111.87 1.85 M63.06 64.09 C84.07 43.26, 103.76 17.74, 116.86 2.21 M63.06 64.09 C73.67 50.13, 85.99 36.6, 116.86 2.21 M68.05 64.45 C84.35 45.67, 102.36 25.4, 122.5 1.81 M68.05 64.45 C80.33 48.36, 94.86 33.71, 122.5 1.81 M73.04 64.81 C89.2 48.34, 101.63 31.27, 127.49 2.17 M73.04 64.81 C88.57 45.87, 106.33 27.28, 127.49 2.17 M78.68 64.42 C100.43 39.62, 119.78 16.38, 133.13 1.78 M78.68 64.42 C90.06 50.53, 102.83 38.19, 133.13 1.78 M83.67 64.78 C95.81 51.86, 109.61 37.97, 138.12 2.14 M83.67 64.78 C104.64 40.58, 125.73 14.93, 138.12 2.14 M89.31 64.39 C100.49 51.94, 114.32 36.24, 141.79 4.01 M89.31 64.39 C109.33 40.88, 127.69 18.96, 141.79 4.01 M94.3 64.75 C106.16 50.33, 116.15 37.01, 144.81 6.63 M94.3 64.75 C108.09 48.86, 122.33 34.02, 144.81 6.63 M99.28 65.11 C110.6 51.66, 121.98 38.07, 146.52 10.77 M99.28 65.11 C114.31 49.25, 128.94 31.54, 146.52 10.77 M104.93 64.71 C119.75 46.59, 135.18 28.7, 148.23 14.9 M104.93 64.71 C118.57 49.55, 133.14 32.64, 148.23 14.9 M109.91 65.07 C121.06 49.77, 132.03 39.13, 148.62 20.54 M109.91 65.07 C124.55 47.48, 138.63 32.57, 148.62 20.54 M115.56 64.68 C123.42 55.63, 133.53 47.05, 148.36 26.94 M115.56 64.68 C126.58 51.96, 137.74 38.34, 148.36 26.94 M120.54 65.04 C124.97 58.17, 134.42 52.25, 148.1 33.34 M120.54 65.04 C131.88 51.95, 142.26 39.6, 148.1 33.34 M126.19 64.64 C133.84 56.15, 138.41 50.29, 147.84 39.74 M126.19 64.64 C131.26 60.37, 135.27 55.48, 147.84 39.74 M131.17 65 C135.59 56.8, 142.82 51.52, 148.23 45.38 M131.17 65 C136.08 58.39, 143.42 52, 148.23 45.38 M137.47 63.85 C139.78 60.62, 141.73 59.99, 145.35 54.8 M137.47 63.85 C140.23 61.28, 142.97 57.58, 145.35 54.8" stroke="#fab005" stroke-width="0.5" fill="none"></path><path d="M16 0 M16 0 C51.83 -0.64, 90.19 -0.72, 130 0 M16 0 C51.16 -0.85, 87.23 0.29, 130 0 M130 0 C140.12 -0.85, 146.24 5.08, 146 16 M130 0 C139.57 -1.49, 147.01 7.63, 146 16 M146 16 C147.68 23.44, 145.17 30.59, 146 48 M146 16 C145.93 28.57, 146.52 40.72, 146 48 M146 48 C146.56 57.35, 142.02 62.03, 130 64 M146 48 C143.94 57.24, 138.83 62.01, 130 64 M130 64 C94.37 64.04, 61.01 63.49, 16 64 M130 64 C102.08 64.41, 72.39 64.7, 16 64 M16 64 C5.07 63.84, 1.56 58.17, 0 48 M16 64 C7.35 63.87, 1.98 58.6, 0 48 M0 48 C-1.58 37.66, 0.04 24.68, 0 16 M0 48 C0.06 34.69, 0.4 23.29, 0 16 M0 16 C1.65 4.88, 6.8 1.38, 16 0 M0 16 C0.95 4.12, 4.35 -1.29, 16 0" stroke="#000000" stroke-width="1" fill="none"></path></g><g transform="translate(588.6200131965982 595.3876526354929) rotate(0 65.625 9.600000000000023)"><text x="65.625" y="0" font-family="Cascadia, Segoe UI Emoji" font-size="16px" fill="#000000" text-anchor="middle" style="white-space: pre;" direction="ltr" dominant-baseline="text-before-edge">wasm nanoapp 2</text></g><g stroke-linecap="round" transform="translate(392.62263224313114 69.31505520428595) rotate(0 73 32)"><path d="M4.26 3.7 C4.26 3.7, 4.26 3.7, 4.26 3.7 M4.26 3.7 C4.26 3.7, 4.26 3.7, 4.26 3.7 M1.37 13.12 C3.59 9.52, 6.14 7.29, 10.56 2.55 M1.37 13.12 C5.43 9.49, 8.36 5.33, 10.56 2.55 M1.11 19.52 C3.27 13.91, 7.72 13.16, 16.86 1.4 M1.11 19.52 C6.62 14.22, 9.48 8.21, 16.86 1.4 M1.51 25.16 C11.08 16.72, 19.42 5.2, 22.5 1.01 M1.51 25.16 C7.87 16.98, 14.39 9.76, 22.5 1.01 M1.24 31.56 C9.44 22.69, 19.6 12.25, 27.49 1.37 M1.24 31.56 C7.25 24.63, 14.48 17.89, 27.49 1.37 M1.64 37.2 C12.26 26.33, 20.57 14.49, 33.13 0.97 M1.64 37.2 C8.4 29.88, 14.63 22.79, 33.13 0.97 M1.38 43.6 C14.89 26.04, 31.64 10.33, 38.12 1.33 M1.38 43.6 C9.87 33.85, 17.15 26, 38.12 1.33 M1.12 50 C18.2 33.13, 32.41 13.88, 43.76 0.94 M1.12 50 C17.35 31.62, 34.2 12.5, 43.76 0.94 M2.82 54.13 C19.72 37.19, 34.9 18.5, 48.75 1.3 M2.82 54.13 C14.88 40.69, 25.39 29.55, 48.75 1.3 M3.87 59.02 C22.02 41.61, 38.96 22.6, 53.73 1.66 M3.87 59.02 C15.03 46.84, 24.61 33.85, 53.73 1.66 M6.89 61.64 C22.94 46.12, 36.51 27.08, 59.38 1.27 M6.89 61.64 C28.05 37.9, 49.03 14.02, 59.38 1.27 M9.91 64.27 C28.87 40.14, 52.84 17.02, 64.36 1.63 M9.91 64.27 C27.1 45.22, 43.48 24.37, 64.36 1.63 M15.55 63.87 C28.25 46.75, 41.88 32.13, 70.01 1.23 M15.55 63.87 C33.57 43.56, 51.19 23.37, 70.01 1.23 M20.54 64.23 C39.69 38.81, 62.18 17.64, 74.99 1.59 M20.54 64.23 C36.17 48.72, 50.38 31.7, 74.99 1.59 M26.18 63.84 C35.53 51.01, 50.9 38.6, 80.64 1.2 M26.18 63.84 C47.1 40.46, 66.29 18.52, 80.64 1.2 M31.17 64.2 C48.34 44.45, 66.91 21.5, 85.62 1.56 M31.17 64.2 C48.82 44.11, 67.3 22.88, 85.62 1.56 M36.16 64.56 C49.38 49.28, 65.81 30.5, 90.61 1.92 M36.16 64.56 C47.58 51.83, 59.21 39.09, 90.61 1.92 M41.8 64.16 C59.68 43.11, 81.4 20.57, 96.25 1.52 M41.8 64.16 C60.67 43.67, 80.64 20.33, 96.25 1.52 M46.79 64.52 C58.6 49.35, 70.27 39.2, 101.24 1.88 M46.79 64.52 C60.77 48.95, 73.18 35.41, 101.24 1.88 M52.43 64.13 C70.17 46.84, 86.81 27.89, 106.88 1.49 M52.43 64.13 C64.75 50.42, 76.4 36.81, 106.88 1.49 M57.42 64.49 C68.66 51.45, 81.92 35.64, 111.87 1.85 M57.42 64.49 C77.02 41.67, 96.97 19.36, 111.87 1.85 M63.06 64.09 C84.07 43.26, 103.76 17.74, 116.86 2.21 M63.06 64.09 C73.67 50.13, 85.99 36.6, 116.86 2.21 M68.05 64.45 C84.35 45.67, 102.36 25.4, 122.5 1.81 M68.05 64.45 C80.33 48.36, 94.86 33.71, 122.5 1.81 M73.04 64.81 C89.2 48.34, 101.63 31.27, 127.49 2.17 M73.04 64.81 C88.57 45.87, 106.33 27.28, 127.49 2.17 M78.68 64.42 C100.43 39.62, 119.78 16.38, 133.13 1.78 M78.68 64.42 C90.06 50.53, 102.83 38.19, 133.13 1.78 M83.67 64.78 C95.81 51.86, 109.61 37.97, 138.12 2.14 M83.67 64.78 C104.64 40.58, 125.73 14.93, 138.12 2.14 M89.31 64.39 C100.49 51.94, 114.32 36.24, 141.79 4.01 M89.31 64.39 C109.33 40.88, 127.69 18.96, 141.79 4.01 M94.3 64.75 C106.16 50.33, 116.15 37.01, 144.81 6.63 M94.3 64.75 C108.09 48.86, 122.33 34.02, 144.81 6.63 M99.28 65.11 C110.6 51.66, 121.98 38.07, 146.52 10.77 M99.28 65.11 C114.31 49.25, 128.94 31.54, 146.52 10.77 M104.93 64.71 C119.75 46.59, 135.18 28.7, 148.23 14.9 M104.93 64.71 C118.57 49.55, 133.14 32.64, 148.23 14.9 M109.91 65.07 C121.06 49.77, 132.03 39.13, 148.62 20.54 M109.91 65.07 C124.55 47.48, 138.63 32.57, 148.62 20.54 M115.56 64.68 C123.42 55.63, 133.53 47.05, 148.36 26.94 M115.56 64.68 C126.58 51.96, 137.74 38.34, 148.36 26.94 M120.54 65.04 C124.97 58.17, 134.42 52.25, 148.1 33.34 M120.54 65.04 C131.88 51.95, 142.26 39.6, 148.1 33.34 M126.19 64.64 C133.84 56.15, 138.41 50.29, 147.84 39.74 M126.19 64.64 C131.26 60.37, 135.27 55.48, 147.84 39.74 M131.17 65 C135.59 56.8, 142.82 51.52, 148.23 45.38 M131.17 65 C136.08 58.39, 143.42 52, 148.23 45.38 M137.47 63.85 C139.78 60.62, 141.73 59.99, 145.35 54.8 M137.47 63.85 C140.23 61.28, 142.97 57.58, 145.35 54.8" stroke="#4c6ef5" stroke-width="0.5" fill="none"></path><path d="M16 0 M16 0 C51.83 -0.64, 90.19 -0.72, 130 0 M16 0 C51.16 -0.85, 87.23 0.29, 130 0 M130 0 C140.12 -0.85, 146.24 5.08, 146 16 M130 0 C139.57 -1.49, 147.01 7.63, 146 16 M146 16 C147.68 23.44, 145.17 30.59, 146 48 M146 16 C145.93 28.57, 146.52 40.72, 146 48 M146 48 C146.56 57.35, 142.02 62.03, 130 64 M146 48 C143.94 57.24, 138.83 62.01, 130 64 M130 64 C94.37 64.04, 61.01 63.49, 16 64 M130 64 C102.08 64.41, 72.39 64.7, 16 64 M16 64 C5.07 63.84, 1.56 58.17, 0 48 M16 64 C7.35 63.87, 1.98 58.6, 0 48 M0 48 C-1.58 37.66, 0.04 24.68, 0 16 M0 48 C0.06 34.69, 0.4 23.29, 0 16 M0 16 C1.65 4.88, 6.8 1.38, 16 0 M0 16 C0.95 4.12, 4.35 -1.29, 16 0" stroke="#000000" stroke-width="1" fill="none"></path></g><g transform="translate(399.99763224313114 91.71505520428596) rotate(0 65.625 9.599999999999994)"><text x="65.625" y="0" font-family="Cascadia, Segoe UI Emoji" font-size="16px" fill="#000000" text-anchor="middle" style="white-space: pre;" direction="ltr" dominant-baseline="text-before-edge">native nanoapp</text></g><g stroke-linecap="round" transform="translate(373.5147285946547 345.83954280391526) rotate(0 14.197280718771538 13.148055610417543)"><path d="M2.85 5.12 C2.85 5.12, 2.85 5.12, 2.85 5.12 M2.85 5.12 C2.85 5.12, 2.85 5.12, 2.85 5.12 M-0.11 13.68 C2.91 11.26, 6.5 8.63, 9.87 2.86 M-0.25 15.29 C3.12 11.51, 6.34 7.69, 11.6 0.9 M2.65 19.73 C6.96 12.3, 9.42 8.66, 18.02 1.93 M3.01 18.33 C7.35 11.04, 12.84 4.11, 17.11 1.31 M2.23 21.9 C8.22 15.67, 15.58 7.8, 21.17 2.56 M3.31 21.94 C8.01 18.06, 11.76 13.3, 22.48 0.56 M5.42 23.92 C13.58 17.39, 19.07 9.68, 26.04 4.09 M7.09 25.6 C12.11 20.14, 16.63 12.8, 24.92 4.2 M11.63 25.56 C16.74 21.11, 22.42 13.61, 27.97 6.3 M11.44 25.89 C16.76 20.55, 21.45 13.74, 27.05 7.94 M13.1 27.79 C17.82 24.1, 20.45 19.86, 28.51 11.61 M14.84 28.48 C16.52 25.14, 19.5 23.15, 27.34 13.86" stroke="#228be6" stroke-width="0.5" fill="none"></path><path d="M21.42 0.6 C23.9 1.78, 25.52 5.03, 26.59 7.83 C27.67 10.62, 28.55 14.61, 27.88 17.36 C27.2 20.1, 25.23 22.82, 22.54 24.32 C19.85 25.81, 14.71 26.61, 11.72 26.31 C8.72 26.02, 6.58 24.63, 4.58 22.56 C2.57 20.49, 0.03 16.75, -0.31 13.89 C-0.65 11.04, 0.8 7.69, 2.56 5.45 C4.33 3.2, 6.7 0.78, 10.25 0.4 C13.8 0.01, 21.37 2.3, 23.85 3.12 C26.32 3.95, 25.31 5.09, 25.09 5.33 M19.75 -0.23 C22.62 0.25, 24.32 2.92, 25.91 5.31 C27.5 7.69, 29.64 11.09, 29.28 14.06 C28.92 17.04, 26.1 21.22, 23.75 23.15 C21.4 25.08, 18.35 25.59, 15.19 25.65 C12.04 25.71, 7.09 25.22, 4.8 23.49 C2.52 21.77, 2.09 18.07, 1.47 15.32 C0.86 12.57, -0.13 9.54, 1.1 7.02 C2.33 4.49, 6.06 1.13, 8.84 0.18 C11.62 -0.76, 15.89 1.47, 17.77 1.35 C19.66 1.23, 19.89 -0.76, 20.15 -0.55" stroke="#000000" stroke-width="1" fill="none"></path></g><g stroke-linecap="round" transform="translate(624.8688810991265 249.4751323789901) rotate(0 38.49999999999997 62.5)"><path d="M5.12 4.45 C5.12 4.45, 5.12 4.45, 5.12 4.45 M5.12 4.45 C5.12 4.45, 5.12 4.45, 5.12 4.45 M0.93 15.38 C4.34 10.53, 6.87 6.66, 12.08 2.55 M0.93 15.38 C2.81 11.82, 6.86 8.68, 12.08 2.55 M0.66 21.78 C5.74 15.71, 12.12 9.17, 19.69 -0.11 M0.66 21.78 C8.02 13.76, 13.16 5.7, 19.69 -0.11 M1.06 27.42 C6.06 20.27, 14.75 12.94, 24.68 0.25 M1.06 27.42 C7.3 21.18, 14.09 13.71, 24.68 0.25 M0.8 33.82 C9.92 23.27, 17.88 14.58, 29.66 0.61 M0.8 33.82 C11.04 23.17, 20.03 11.13, 29.66 0.61 M1.19 39.46 C9.29 32.08, 15.56 22.63, 35.31 0.22 M1.19 39.46 C12.07 27.34, 22.56 15.06, 35.31 0.22 M0.93 45.86 C15.45 29.4, 28.81 12.83, 40.29 0.58 M0.93 45.86 C14.66 30.57, 29.28 14.64, 40.29 0.58 M0.67 52.26 C13.37 39.67, 23.35 25.79, 45.94 0.18 M0.67 52.26 C8.56 40.86, 19.04 31.44, 45.94 0.18 M1.06 57.9 C16.5 38.31, 35.44 19.78, 50.92 0.54 M1.06 57.9 C14.15 42.89, 28.45 25.75, 50.92 0.54 M0.8 64.3 C18.67 43.65, 35.34 25.37, 56.57 0.15 M0.8 64.3 C23.26 38.8, 44.83 14.37, 56.57 0.15 M0.54 70.7 C16.84 49.21, 36.8 30.7, 61.55 0.51 M0.54 70.7 C23.9 43.41, 48.07 15.9, 61.55 0.51 M0.94 76.34 C15.58 58.2, 33.68 36.7, 65.23 2.38 M0.94 76.34 C23.78 50.12, 46.1 24.26, 65.23 2.38 M0.67 82.74 C14.7 64.17, 32.04 46.71, 70.22 2.74 M0.67 82.74 C17.27 63.19, 36.06 43.71, 70.22 2.74 M0.41 89.13 C27.18 60.13, 53.02 26.02, 72.58 6.12 M0.41 89.13 C15.29 69.82, 31.83 52.1, 72.58 6.12 M0.81 94.78 C30.61 61.29, 61.22 26.65, 74.94 9.5 M0.81 94.78 C27.66 65.39, 53.32 34.23, 74.94 9.5 M0.55 101.18 C26.73 71.69, 49.32 43.74, 77.96 12.12 M0.55 101.18 C25.96 71.97, 50.31 42.42, 77.96 12.12 M0.94 106.82 C19.97 84.88, 38.02 62.26, 77.04 19.27 M0.94 106.82 C26.58 76.86, 52.72 46.98, 77.04 19.27 M1.99 111.71 C18.75 92.17, 35.13 71.83, 76.78 25.67 M1.99 111.71 C20.89 90.94, 38.66 68.75, 76.78 25.67 M3.7 115.84 C26.52 88.06, 51.58 58.89, 77.18 31.31 M3.7 115.84 C31.31 84.24, 59.45 51.33, 77.18 31.31 M4.75 120.73 C18.62 103.64, 35.36 88.47, 76.92 37.71 M4.75 120.73 C32.15 89.35, 58.76 59.34, 76.92 37.71 M9.08 121.84 C29.58 100.51, 48.45 78.19, 76.65 44.11 M9.08 121.84 C32.63 95.06, 56.71 67.77, 76.65 44.11 M12.75 123.71 C37.4 93.7, 63.73 64.92, 77.05 49.75 M12.75 123.71 C34.21 99.58, 54.5 73.82, 77.05 49.75 M16.43 125.58 C35.92 102.13, 55.28 81.6, 76.79 56.15 M16.43 125.58 C32.5 106.96, 48.72 89.54, 76.79 56.15 M21.42 125.94 C41.9 101.26, 63.52 75.42, 77.18 61.79 M21.42 125.94 C43.19 100.67, 65.06 77.49, 77.18 61.79 M26.4 126.3 C42.67 109.66, 58.32 89.23, 76.92 68.19 M26.4 126.3 C39.21 111.66, 52.64 96.42, 76.92 68.19 M32.05 125.91 C49.38 107.36, 64.51 89.95, 76.66 74.59 M32.05 125.91 C41.4 115.9, 49.94 105.35, 76.66 74.59 M37.03 126.27 C51.44 112.13, 63.65 96.79, 77.05 80.23 M37.03 126.27 C45.81 115.68, 55.66 106.12, 77.05 80.23 M42.68 125.87 C55.87 113.99, 65.93 98.46, 76.79 86.63 M42.68 125.87 C53.4 113.32, 63.24 102.29, 76.79 86.63 M47.66 126.23 C56.9 118.09, 64.36 106.17, 76.53 93.03 M47.66 126.23 C58.15 114.45, 68.91 101.97, 76.53 93.03 M53.31 125.84 C62.86 116.46, 68.8 108.14, 76.92 98.67 M53.31 125.84 C59.56 120.43, 64.02 112.37, 76.92 98.67 M58.95 125.45 C62.47 118.61, 68.86 114.46, 76.66 105.07 M58.95 125.45 C66.19 117.62, 71.55 110.2, 76.66 105.07 M64.59 125.05 C69.08 123.08, 69.77 117.61, 77.06 110.71 M64.59 125.05 C68.15 120.48, 72.49 113.75, 77.06 110.71" stroke="#4c6ef5" stroke-width="0.5" fill="none"></path><path d="M19.25 0 M19.25 0 C29.78 -0.99, 43.06 1.79, 57.75 0 M19.25 0 C32.64 -0.6, 45.54 0.95, 57.75 0 M57.75 0 C71.75 1.24, 77.24 8.05, 77 19.25 M57.75 0 C70.38 -2.26, 78.18 5.59, 77 19.25 M77 19.25 C77.68 39.13, 78.21 55.51, 77 105.75 M77 19.25 C75.76 48.2, 77.24 75.52, 77 105.75 M77 105.75 C76.72 119.45, 70.36 125.38, 57.75 125 M77 105.75 C78.42 119.6, 71.18 124.14, 57.75 125 M57.75 125 C43.33 125.77, 29.28 126.8, 19.25 125 M57.75 125 C49.18 124.22, 42.41 125.58, 19.25 125 M19.25 125 C5.56 124.52, -0.46 118.41, 0 105.75 M19.25 125 C7.78 126.88, 2.2 120.51, 0 105.75 M0 105.75 C0.99 72.34, 0.36 40.28, 0 19.25 M0 105.75 C-1.42 81.66, -1.36 57.24, 0 19.25 M0 19.25 C0.46 6.19, 8.13 -1.78, 19.25 0 M0 19.25 C-1.87 7.33, 6.19 -0.01, 19.25 0" stroke="#000000" stroke-width="1" fill="none"></path></g><g transform="translate(630.5563810991265 273.5751323789901) rotate(0 32.81249999999997 38.400000000000006)"><text x="32.8125" y="0" font-family="Cascadia, Segoe UI Emoji" font-size="16px" fill="#000000" text-anchor="middle" style="white-space: pre;" direction="ltr" dominant-baseline="text-before-edge">CHRE</text><text x="32.8125" y="19.2" font-family="Cascadia, Segoe UI Emoji" font-size="16px" fill="#000000" text-anchor="middle" style="white-space: pre;" direction="ltr" dominant-baseline="text-before-edge">API</text><text x="32.8125" y="38.4" font-family="Cascadia, Segoe UI Emoji" font-size="16px" fill="#000000" text-anchor="middle" style="white-space: pre;" direction="ltr" dominant-baseline="text-before-edge">native</text><text x="32.8125" y="57.599999999999994" font-family="Cascadia, Segoe UI Emoji" font-size="16px" fill="#000000" text-anchor="middle" style="white-space: pre;" direction="ltr" dominant-baseline="text-before-edge">wrapper</text></g><g stroke-linecap="round"><g transform="translate(597.621957353228 343.1017421998322) rotate(0 0.07900899233985115 0.27218624941710345)"><path d="M0.37 -0.64 C0.33 -0.91, -0.94 -1.29, -1.01 -0.99 M-0.9 1.64 C-0.5 1.44, 1.17 0.39, 1.17 0.03" stroke="#000000" stroke-width="1" fill="none"></path></g><g transform="translate(597.621957353228 343.1017421998322) rotate(0 0.07900899233985115 0.27218624941710345)"><path d="M1.17 0.03 C1.17 0.03, 1.17 0.03, 1.17 0.03 M1.17 0.03 C1.17 0.03, 1.17 0.03, 1.17 0.03" stroke="#000000" stroke-width="1" fill="none"></path></g><g transform="translate(597.621957353228 343.1017421998322) rotate(0 0.07900899233985115 0.27218624941710345)"><path d="M1.17 0.03 C1.17 0.03, 1.17 0.03, 1.17 0.03 M1.17 0.03 C1.17 0.03, 1.17 0.03, 1.17 0.03" stroke="#000000" stroke-width="1" fill="none"></path></g></g><mask></mask><g stroke-linecap="round"><g transform="translate(891.2457356611012 350.3198477099592) rotate(0 -91.99392135044428 -18.457902849988898)"><path d="M-1.09 0.93 C-31.88 -5.58, -153.33 -31.63, -184.06 -37.84 M0.53 0.37 C-30.38 -5.51, -153.35 -30.35, -184.52 -36.8" stroke="#2b8a3e" stroke-width="1" fill="none"></path></g><g transform="translate(891.2457356611012 350.3198477099592) rotate(0 -91.99392135044428 -18.457902849988898)"><path d="M-153.3 -39.68 C-166.86 -40.73, -174.8 -39.65, -182.64 -38.49 M-155.55 -40.66 C-165.01 -39.43, -175.54 -37.92, -185.32 -36.74" stroke="#2b8a3e" stroke-width="1" fill="none"></path></g><g transform="translate(891.2457356611012 350.3198477099592) rotate(0 -91.99392135044428 -18.457902849988898)"><path d="M-157.4 -19.57 C-169.71 -27.68, -176.21 -33.7, -182.64 -38.49 M-159.65 -20.55 C-167.83 -26.64, -176.86 -32.43, -185.32 -36.74" stroke="#2b8a3e" stroke-width="1" fill="none"></path></g></g><mask></mask><g stroke-linecap="round"><g transform="translate(620.628292971342 314.5024976041432) rotate(0 -73.83721905334482 13.923123227028157)"><path d="M0.58 0.54 C-23.77 5.4, -122.78 23.87, -147.28 28.07 M-0.58 -0.22 C-24.99 4.44, -123.88 22.13, -148.25 26.57" stroke="#2b8a3e" stroke-width="1" fill="none"></path></g><g transform="translate(620.628292971342 314.5024976041432) rotate(0 -73.83721905334482 13.923123227028157)"><path d="M-121.43 11.39 C-125.73 15.95, -134.87 18.3, -149.6 28.2 M-122.27 10.7 C-131.95 16.87, -140.52 21.15, -149.07 26.32" stroke="#2b8a3e" stroke-width="1" fill="none"></path></g><g transform="translate(620.628292971342 314.5024976041432) rotate(0 -73.83721905334482 13.923123227028157)"><path d="M-117.79 31.59 C-122.63 32.08, -132.51 30.36, -149.6 28.2 M-118.62 30.89 C-129.52 30.11, -139.35 27.43, -149.07 26.32" stroke="#2b8a3e" stroke-width="1" fill="none"></path></g></g><mask></mask><g stroke-linecap="round" transform="translate(353.22977707453856 507.10496995438564) rotate(0 70.85528767822807 26.78795320127898)"><path d="M3.57 3.1 C3.57 3.1, 3.57 3.1, 3.57 3.1 M3.57 3.1 C3.57 3.1, 3.57 3.1, 3.57 3.1 M1.34 11.76 C2.24 10.49, 4.95 7.4, 9.21 2.7 M1.34 11.76 C4.39 8.25, 7.12 4.91, 9.21 2.7 M1.73 17.4 C5.44 13.42, 8.68 8.52, 15.51 1.56 M1.73 17.4 C3.98 14.5, 8.6 10.88, 15.51 1.56 M1.47 23.8 C4.15 19.53, 11.11 12.72, 20.49 1.92 M1.47 23.8 C6.95 17.08, 13.47 10.44, 20.49 1.92 M1.86 29.45 C13.11 18.08, 20.28 7.46, 26.14 1.52 M1.86 29.45 C6.41 22.35, 12.32 16.59, 26.14 1.52 M1.6 35.84 C11.72 21.61, 24.27 12.4, 31.12 1.88 M1.6 35.84 C11.96 22.67, 23.99 11.28, 31.12 1.88 M0.03 43.75 C6.38 33.31, 16.74 24.2, 36.77 1.49 M0.03 43.75 C11.27 29.67, 23.56 17.41, 36.77 1.49 M1.74 47.88 C16.93 28.7, 33.25 10.77, 41.75 1.85 M1.74 47.88 C16.73 31.67, 30.18 15.9, 41.75 1.85 M4.75 50.51 C17.4 37.07, 26.8 22.52, 46.74 2.21 M4.75 50.51 C16.93 36.67, 31.13 20.07, 46.74 2.21 M7.77 53.13 C22.88 36.8, 35.11 23.21, 52.38 1.81 M7.77 53.13 C19.99 39.24, 32.13 26.55, 52.38 1.81 M13.42 52.74 C28 37.33, 43.82 20.69, 57.37 2.17 M13.42 52.74 C24.52 39.99, 37.62 25.21, 57.37 2.17 M18.4 53.1 C32.78 38.33, 48.57 21.63, 63.01 1.78 M18.4 53.1 C36.17 32.78, 52.86 13.76, 63.01 1.78 M23.39 53.46 C35.95 37.72, 52.51 19.86, 68 2.14 M23.39 53.46 C34.94 40.12, 46.45 25.94, 68 2.14 M29.03 53.06 C42.83 40.15, 52.41 23.56, 73.64 1.74 M29.03 53.06 C44.29 35.2, 59.74 18.17, 73.64 1.74 M34.02 53.42 C45.75 41.59, 55.23 30.41, 78.63 2.1 M34.02 53.42 C52.38 32.45, 69.99 12.49, 78.63 2.1 M39.66 53.03 C50.41 38.46, 64.78 24.43, 83.62 2.46 M39.66 53.03 C49.48 41.64, 60.76 28.96, 83.62 2.46 M44.65 53.39 C57.43 37.77, 70.62 25.26, 89.26 2.07 M44.65 53.39 C62.67 32.4, 80.31 11.68, 89.26 2.07 M50.29 52.99 C58.1 44.23, 67.95 32.63, 94.25 2.43 M50.29 52.99 C67.98 34.54, 83.84 14.85, 94.25 2.43 M55.28 53.35 C69.3 38.15, 84.29 22.84, 99.89 2.03 M55.28 53.35 C64.74 42.75, 73.25 33.48, 99.89 2.03 M60.27 53.71 C67.8 44.37, 79.14 31.34, 104.88 2.39 M60.27 53.71 C74.17 38.11, 85.8 22.14, 104.88 2.39 M65.91 53.32 C77.16 41.55, 87.12 31.98, 110.52 2 M65.91 53.32 C82.81 33.56, 100.73 14.21, 110.52 2 M70.9 53.68 C79.97 41.28, 92.37 30.22, 115.51 2.36 M70.9 53.68 C85 37.97, 100.44 21.46, 115.51 2.36 M76.54 53.29 C87.13 38.42, 100.73 26.43, 120.5 2.72 M76.54 53.29 C89.01 37.69, 102.8 22.73, 120.5 2.72 M81.53 53.65 C96.04 39.58, 106.24 25.25, 126.14 2.33 M81.53 53.65 C94.03 39.19, 104.6 27.45, 126.14 2.33 M87.17 53.25 C98.68 43.41, 105.61 29.77, 131.13 2.69 M87.17 53.25 C104.29 33.76, 121.44 13.56, 131.13 2.69 M92.16 53.61 C108.24 37.19, 125.08 18.71, 136.11 3.05 M92.16 53.61 C104.56 39.83, 115.88 26.73, 136.11 3.05 M97.14 53.97 C111.75 37.57, 131.03 16.28, 139.79 4.91 M97.14 53.97 C109.1 40.46, 121.74 25.04, 139.79 4.91 M102.79 53.58 C115.65 39.78, 125.4 24.52, 141.49 9.05 M102.79 53.58 C111.18 45, 119.17 34.83, 141.49 9.05 M107.77 53.94 C123.54 37.22, 135.03 20.61, 143.86 12.43 M107.77 53.94 C115.75 44.43, 124.97 35.06, 143.86 12.43 M113.42 53.54 C118.5 46.74, 127.82 37.44, 143.6 18.83 M113.42 53.54 C121.89 44.47, 128.22 36.36, 143.6 18.83 M118.4 53.9 C124.74 48.93, 130.88 38.95, 143.99 24.47 M118.4 53.9 C125.29 44.72, 131.92 38.3, 143.99 24.47 M124.05 53.51 C127.88 49.03, 133.16 42.61, 143.73 30.87 M124.05 53.51 C131.51 46.28, 138.05 37.64, 143.73 30.87 M129.03 53.87 C134.98 47.58, 139.27 43.41, 143.47 37.26 M129.03 53.87 C134.24 47.99, 139.1 41.87, 143.47 37.26 M135.33 52.72 C137.96 49.95, 139.14 48.43, 141.24 45.93 M135.33 52.72 C137.4 50.51, 139.05 49.19, 141.24 45.93" stroke="#4c6ef5" stroke-width="0.5" fill="none"></path><path d="M13.39 0 M13.39 0 C40.52 -2.36, 64.11 0.87, 128.32 0 M13.39 0 C53.93 1.62, 96.69 1.58, 128.32 0 M128.32 0 C136.26 1.99, 143.21 2.66, 141.71 13.39 M128.32 0 C137.46 -0.01, 143.42 3.31, 141.71 13.39 M141.71 13.39 C140.41 22.91, 141.39 35.77, 141.71 40.18 M141.71 13.39 C142.46 22.58, 141.85 30.68, 141.71 40.18 M141.71 40.18 C141.97 47.47, 135.94 52.83, 128.32 53.58 M141.71 40.18 C142.87 47.75, 136.69 51.81, 128.32 53.58 M128.32 53.58 C91.4 51.59, 56.11 52.62, 13.39 53.58 M128.32 53.58 C100.85 53.79, 74.45 54.32, 13.39 53.58 M13.39 53.58 C3.54 51.97, -0.14 47.85, 0 40.18 M13.39 53.58 C4.86 55.03, -1.62 48.31, 0 40.18 M0 40.18 C-1.27 33.6, -0.45 29.34, 0 13.39 M0 40.18 C0.1 30.15, 0.53 21.19, 0 13.39 M0 13.39 C0.42 5.39, 4.98 -0.87, 13.39 0 M0 13.39 C-1.29 5.41, 3.55 1.61, 13.39 0" stroke="#000000" stroke-width="1" fill="none"></path></g><g transform="translate(372.5225647527666 514.6929231556646) rotate(0 51.562500000000014 19.19999999999999)"><text x="51.5625" y="0" font-family="Cascadia, Segoe UI Emoji" font-size="16px" fill="#000000" text-anchor="middle" style="white-space: pre;" direction="ltr" dominant-baseline="text-before-edge">Conversion </text><text x="51.5625" y="19.2" font-family="Cascadia, Segoe UI Emoji" font-size="16px" fill="#000000" text-anchor="middle" style="white-space: pre;" direction="ltr" dominant-baseline="text-before-edge">layer</text></g><g stroke-linecap="round"><g transform="translate(400.2439879701199 426.74231844800977) rotate(0 7.019520456231916 40.342574288007285)"><path d="M0.39 -1.15 C3 12.34, 12.68 68.32, 14.9 81.83 M-0.86 0.87 C1.71 13.96, 12.04 66.95, 14.29 80.26" stroke="#000000" stroke-width="1" fill="none"></path></g><g transform="translate(400.2439879701199 426.74231844800977) rotate(0 7.019520456231916 40.342574288007285)"><path d="M-2.81 55.47 C4.69 59.59, 5.09 68.61, 12.36 80.56 M-1.76 54.89 C4.2 63.83, 9.66 72, 14.17 79.86" stroke="#000000" stroke-width="1" fill="none"></path></g><g transform="translate(400.2439879701199 426.74231844800977) rotate(0 7.019520456231916 40.342574288007285)"><path d="M17.37 51.75 C20.07 56.83, 15.66 66.74, 12.36 80.56 M18.42 51.17 C17.77 61.29, 16.62 70.67, 14.17 79.86" stroke="#000000" stroke-width="1" fill="none"></path></g></g><mask></mask><g stroke-linecap="round"><g transform="translate(438.5664931943325 563.0634887053161) rotate(0 70.7135416208223 31.174899846309984)"><path d="M1.11 1.12 C11.06 10.48, 36.33 48.19, 59.68 57.09 C83.03 66, 127.7 54.7, 141.19 54.54 M0.24 0.66 C10.05 10.06, 35.53 49, 58.85 58.12 C82.17 67.25, 126.59 56.07, 140.17 55.38" stroke="#000000" stroke-width="1" fill="none"></path></g><g transform="translate(438.5664931943325 563.0634887053161) rotate(0 70.7135416208223 31.174899846309984)"><path d="M115.49 69.75 C119.87 64.12, 127.92 58.95, 141.36 56.15 M114.38 68.54 C121.32 64.61, 128.98 61.56, 139.47 54.75" stroke="#000000" stroke-width="1" fill="none"></path></g><g transform="translate(438.5664931943325 563.0634887053161) rotate(0 70.7135416208223 31.174899846309984)"><path d="M112.71 49.41 C118.07 49.85, 126.96 50.78, 141.36 56.15 M111.6 48.21 C119.45 50.39, 127.95 53.47, 139.47 54.75" stroke="#000000" stroke-width="1" fill="none"></path></g></g><mask></mask><g stroke-linecap="round"><g transform="translate(427.3747779170503 234.97175922814858) rotate(0 16.470328614623483 -49.85086035077012)"><path d="M-0.86 1.19 C4.58 -5.71, 29.23 -23.31, 33.08 -40.32 C36.92 -57.34, 24.31 -90.8, 22.2 -100.89 M0.89 0.77 C6.12 -5.49, 28.52 -22.49, 32.02 -39.24 C35.51 -55.98, 23.81 -89.58, 21.84 -99.7" stroke="#000000" stroke-width="1" fill="none"></path></g><g transform="translate(427.3747779170503 234.97175922814858) rotate(0 16.470328614623483 -49.85086035077012)"><path d="M40.84 -75.35 C31.48 -82.11, 26.83 -93.32, 21.41 -101.3 M38.63 -74.07 C34.76 -80.87, 32.04 -85.68, 20.93 -99.1" stroke="#000000" stroke-width="1" fill="none"></path></g><g transform="translate(427.3747779170503 234.97175922814858) rotate(0 16.470328614623483 -49.85086035077012)"><path d="M20.98 -70.19 C18.23 -78.54, 20.23 -91.47, 21.41 -101.3 M18.77 -68.91 C19.02 -76.72, 20.44 -82.6, 20.93 -99.1" stroke="#000000" stroke-width="1" fill="none"></path></g></g><mask></mask><g stroke-linecap="round" transform="translate(778.0006858229149 296.0725539905459) rotate(0 13.1480556104176 12.448601022588605)"><path d="M1.24 7.7 C1.24 7.7, 1.24 7.7, 1.24 7.7 M1.24 7.7 C1.24 7.7, 1.24 7.7, 1.24 7.7 M0.41 16.02 C2.69 10.43, 7.74 6.43, 11.28 2.11 M0.33 16.25 C2.38 11.46, 6.65 7.79, 10.93 3.93 M1.19 19.63 C9.12 12, 11.13 7.9, 18.86 1.12 M3.06 17.24 C7.1 13.95, 11.65 7.75, 16.12 1.59 M6.8 19.71 C7.81 17.46, 14 12.13, 19.56 1.59 M5.31 22.31 C11.88 14.42, 18.05 7.81, 21.23 3.87 M7.86 22.91 C12.26 20.49, 16.54 14.7, 24.57 7.47 M7.2 25.03 C11.63 21.12, 14.09 17.01, 23.02 6.74 M12.94 26.65 C16.15 17.57, 21.57 14.13, 25.71 9.28 M13.26 24.37 C15.58 20.82, 20.32 15.78, 27.3 8.07 M16.07 26.33 C20.69 23.96, 21.59 20.15, 27.42 14.62 M16.23 26.51 C19.5 23.23, 23.14 18.95, 27.32 15.03" stroke="#40c057" stroke-width="0.5" fill="none"></path><path d="M16.89 1.39 C19.47 2.22, 23.44 4.19, 24.87 6.2 C26.3 8.21, 25.81 10.73, 25.46 13.45 C25.11 16.16, 24.61 20.66, 22.77 22.49 C20.93 24.31, 17.18 24.31, 14.4 24.4 C11.61 24.49, 8.57 24.56, 6.07 23.02 C3.57 21.48, 0.15 17.77, -0.61 15.16 C-1.37 12.55, 0.14 9.58, 1.52 7.37 C2.9 5.16, 5 3.06, 7.69 1.9 C10.39 0.75, 16.02 0.64, 17.7 0.44 C19.37 0.24, 17.81 0.37, 17.73 0.71 M16.51 0.55 C19.25 0.55, 21.75 1.75, 23.41 3.52 C25.08 5.28, 26.68 8.41, 26.49 11.13 C26.31 13.84, 24 17.71, 22.3 19.82 C20.6 21.94, 18.95 23.42, 16.29 23.81 C13.62 24.19, 8.84 23.43, 6.29 22.12 C3.75 20.82, 2.2 18.37, 1.04 15.96 C-0.12 13.55, -1.49 10.05, -0.69 7.67 C0.11 5.3, 3.14 3.15, 5.83 1.72 C8.52 0.3, 13.98 -0.65, 15.45 -0.86 C16.92 -1.07, 14.92 0.06, 14.64 0.48" stroke="#000000" stroke-width="1" fill="none"></path></g><g stroke-linecap="round" transform="translate(531.1581811119471 292.512861825806) rotate(0 13.148055610417572 12.448601022588605)"><path d="M1.24 7.7 C1.24 7.7, 1.24 7.7, 1.24 7.7 M1.24 7.7 C1.24 7.7, 1.24 7.7, 1.24 7.7 M0.41 16.02 C2.69 10.43, 7.74 6.43, 11.28 2.11 M0.33 16.25 C2.38 11.46, 6.65 7.79, 10.93 3.93 M1.19 19.63 C9.12 12, 11.13 7.9, 18.86 1.12 M3.06 17.24 C7.1 13.95, 11.65 7.75, 16.12 1.59 M6.8 19.71 C7.81 17.46, 14 12.13, 19.56 1.59 M5.31 22.31 C11.88 14.42, 18.05 7.81, 21.23 3.87 M7.86 22.91 C12.26 20.49, 16.54 14.7, 24.57 7.47 M7.2 25.03 C11.63 21.12, 14.09 17.01, 23.02 6.74 M12.94 26.65 C16.15 17.57, 21.57 14.13, 25.71 9.28 M13.26 24.37 C15.58 20.82, 20.32 15.78, 27.3 8.07 M16.07 26.33 C20.69 23.96, 21.59 20.15, 27.42 14.62 M16.23 26.51 C19.5 23.23, 23.14 18.95, 27.32 15.03" stroke="#228be6" stroke-width="0.5" fill="none"></path><path d="M16.89 1.39 C19.47 2.22, 23.44 4.19, 24.87 6.2 C26.3 8.21, 25.81 10.73, 25.46 13.45 C25.11 16.16, 24.61 20.66, 22.77 22.49 C20.93 24.31, 17.18 24.31, 14.4 24.4 C11.61 24.49, 8.57 24.56, 6.07 23.02 C3.57 21.48, 0.15 17.77, -0.61 15.16 C-1.37 12.55, 0.14 9.58, 1.52 7.37 C2.9 5.16, 5 3.06, 7.69 1.9 C10.39 0.75, 16.02 0.64, 17.7 0.44 C19.37 0.24, 17.81 0.37, 17.73 0.71 M16.51 0.55 C19.25 0.55, 21.75 1.75, 23.41 3.52 C25.08 5.28, 26.68 8.41, 26.49 11.13 C26.31 13.84, 24 17.71, 22.3 19.82 C20.6 21.94, 18.95 23.42, 16.29 23.81 C13.62 24.19, 8.84 23.43, 6.29 22.12 C3.75 20.82, 2.2 18.37, 1.04 15.96 C-0.12 13.55, -1.49 10.05, -0.69 7.67 C0.11 5.3, 3.14 3.15, 5.83 1.72 C8.52 0.3, 13.98 -0.65, 15.45 -0.86 C16.92 -1.07, 14.92 0.06, 14.64 0.48" stroke="#000000" stroke-width="1" fill="none"></path></g><g stroke-linecap="round" transform="translate(420.9330523577821 465.6191718844791) rotate(0 13.148055610417558 12.448601022588605)"><path d="M1.24 7.7 C1.24 7.7, 1.24 7.7, 1.24 7.7 M1.24 7.7 C1.24 7.7, 1.24 7.7, 1.24 7.7 M0.41 16.02 C2.69 10.43, 7.74 6.43, 11.28 2.11 M0.33 16.25 C2.38 11.46, 6.65 7.79, 10.93 3.93 M1.19 19.63 C9.12 12, 11.13 7.9, 18.86 1.12 M3.06 17.24 C7.1 13.95, 11.65 7.75, 16.12 1.59 M6.8 19.71 C7.81 17.46, 14 12.13, 19.56 1.59 M5.31 22.31 C11.88 14.42, 18.05 7.81, 21.23 3.87 M7.86 22.91 C12.26 20.49, 16.54 14.7, 24.57 7.47 M7.2 25.03 C11.63 21.12, 14.09 17.01, 23.02 6.74 M12.94 26.65 C16.15 17.57, 21.57 14.13, 25.71 9.28 M13.26 24.37 C15.58 20.82, 20.32 15.78, 27.3 8.07 M16.07 26.33 C20.69 23.96, 21.59 20.15, 27.42 14.62 M16.23 26.51 C19.5 23.23, 23.14 18.95, 27.32 15.03" stroke="#228be6" stroke-width="0.5" fill="none"></path><path d="M16.89 1.39 C19.47 2.22, 23.44 4.19, 24.87 6.2 C26.3 8.21, 25.81 10.73, 25.46 13.45 C25.11 16.16, 24.61 20.66, 22.77 22.49 C20.93 24.31, 17.18 24.31, 14.4 24.4 C11.61 24.49, 8.57 24.56, 6.07 23.02 C3.57 21.48, 0.15 17.77, -0.61 15.16 C-1.37 12.55, 0.14 9.58, 1.52 7.37 C2.9 5.16, 5 3.06, 7.69 1.9 C10.39 0.75, 16.02 0.64, 17.7 0.44 C19.37 0.24, 17.81 0.37, 17.73 0.71 M16.51 0.55 C19.25 0.55, 21.75 1.75, 23.41 3.52 C25.08 5.28, 26.68 8.41, 26.49 11.13 C26.31 13.84, 24 17.71, 22.3 19.82 C20.6 21.94, 18.95 23.42, 16.29 23.81 C13.62 24.19, 8.84 23.43, 6.29 22.12 C3.75 20.82, 2.2 18.37, 1.04 15.96 C-0.12 13.55, -1.49 10.05, -0.69 7.67 C0.11 5.3, 3.14 3.15, 5.83 1.72 C8.52 0.3, 13.98 -0.65, 15.45 -0.86 C16.92 -1.07, 14.92 0.06, 14.64 0.48" stroke="#000000" stroke-width="1" fill="none"></path></g><g stroke-linecap="round" transform="translate(492.41999128375556 585.2305268476026) rotate(0 13.148055610417572 12.448601022588605)"><path d="M1.24 7.7 C1.24 7.7, 1.24 7.7, 1.24 7.7 M1.24 7.7 C1.24 7.7, 1.24 7.7, 1.24 7.7 M0.41 16.02 C2.69 10.43, 7.74 6.43, 11.28 2.11 M0.33 16.25 C2.38 11.46, 6.65 7.79, 10.93 3.93 M1.19 19.63 C9.12 12, 11.13 7.9, 18.86 1.12 M3.06 17.24 C7.1 13.95, 11.65 7.75, 16.12 1.59 M6.8 19.71 C7.81 17.46, 14 12.13, 19.56 1.59 M5.31 22.31 C11.88 14.42, 18.05 7.81, 21.23 3.87 M7.86 22.91 C12.26 20.49, 16.54 14.7, 24.57 7.47 M7.2 25.03 C11.63 21.12, 14.09 17.01, 23.02 6.74 M12.94 26.65 C16.15 17.57, 21.57 14.13, 25.71 9.28 M13.26 24.37 C15.58 20.82, 20.32 15.78, 27.3 8.07 M16.07 26.33 C20.69 23.96, 21.59 20.15, 27.42 14.62 M16.23 26.51 C19.5 23.23, 23.14 18.95, 27.32 15.03" stroke="#fab005" stroke-width="0.5" fill="none"></path><path d="M16.89 1.39 C19.47 2.22, 23.44 4.19, 24.87 6.2 C26.3 8.21, 25.81 10.73, 25.46 13.45 C25.11 16.16, 24.61 20.66, 22.77 22.49 C20.93 24.31, 17.18 24.31, 14.4 24.4 C11.61 24.49, 8.57 24.56, 6.07 23.02 C3.57 21.48, 0.15 17.77, -0.61 15.16 C-1.37 12.55, 0.14 9.58, 1.52 7.37 C2.9 5.16, 5 3.06, 7.69 1.9 C10.39 0.75, 16.02 0.64, 17.7 0.44 C19.37 0.24, 17.81 0.37, 17.73 0.71 M16.51 0.55 C19.25 0.55, 21.75 1.75, 23.41 3.52 C25.08 5.28, 26.68 8.41, 26.49 11.13 C26.31 13.84, 24 17.71, 22.3 19.82 C20.6 21.94, 18.95 23.42, 16.29 23.81 C13.62 24.19, 8.84 23.43, 6.29 22.12 C3.75 20.82, 2.2 18.37, 1.04 15.96 C-0.12 13.55, -1.49 10.05, -0.69 7.67 C0.11 5.3, 3.14 3.15, 5.83 1.72 C8.52 0.3, 13.98 -0.65, 15.45 -0.86 C16.92 -1.07, 14.92 0.06, 14.64 0.48" stroke="#000000" stroke-width="1" fill="none"></path></g><g stroke-linecap="round" transform="translate(407.12470999958373 199.5118936122062) rotate(0 13.148055610417586 12.44860102258859)"><path d="M1.24 7.7 C1.24 7.7, 1.24 7.7, 1.24 7.7 M1.24 7.7 C1.24 7.7, 1.24 7.7, 1.24 7.7 M0.41 16.02 C2.69 10.43, 7.74 6.43, 11.28 2.11 M0.33 16.25 C2.38 11.46, 6.65 7.79, 10.93 3.93 M1.19 19.63 C9.12 12, 11.13 7.9, 18.86 1.12 M3.06 17.24 C7.1 13.95, 11.65 7.75, 16.12 1.59 M6.8 19.71 C7.81 17.46, 14 12.13, 19.56 1.59 M5.31 22.31 C11.88 14.42, 18.05 7.81, 21.23 3.87 M7.86 22.91 C12.26 20.49, 16.54 14.7, 24.57 7.47 M7.2 25.03 C11.63 21.12, 14.09 17.01, 23.02 6.74 M12.94 26.65 C16.15 17.57, 21.57 14.13, 25.71 9.28 M13.26 24.37 C15.58 20.82, 20.32 15.78, 27.3 8.07 M16.07 26.33 C20.69 23.96, 21.59 20.15, 27.42 14.62 M16.23 26.51 C19.5 23.23, 23.14 18.95, 27.32 15.03" stroke="#228be6" stroke-width="0.5" fill="none"></path><path d="M16.89 1.39 C19.47 2.22, 23.44 4.19, 24.87 6.2 C26.3 8.21, 25.81 10.73, 25.46 13.45 C25.11 16.16, 24.61 20.66, 22.77 22.49 C20.93 24.31, 17.18 24.31, 14.4 24.4 C11.61 24.49, 8.57 24.56, 6.07 23.02 C3.57 21.48, 0.15 17.77, -0.61 15.16 C-1.37 12.55, 0.14 9.58, 1.52 7.37 C2.9 5.16, 5 3.06, 7.69 1.9 C10.39 0.75, 16.02 0.64, 17.7 0.44 C19.37 0.24, 17.81 0.37, 17.73 0.71 M16.51 0.55 C19.25 0.55, 21.75 1.75, 23.41 3.52 C25.08 5.28, 26.68 8.41, 26.49 11.13 C26.31 13.84, 24 17.71, 22.3 19.82 C20.6 21.94, 18.95 23.42, 16.29 23.81 C13.62 24.19, 8.84 23.43, 6.29 22.12 C3.75 20.82, 2.2 18.37, 1.04 15.96 C-0.12 13.55, -1.49 10.05, -0.69 7.67 C0.11 5.3, 3.14 3.15, 5.83 1.72 C8.52 0.3, 13.98 -0.65, 15.45 -0.86 C16.92 -1.07, 14.92 0.06, 14.64 0.48" stroke="#000000" stroke-width="1" fill="none"></path></g><g transform="translate(715.591665169715 351.09659764421343) rotate(10.732620480332734 85.400390625 7.954744959926273)"><text x="0" y="0" font-family="Cascadia, Segoe UI Emoji" font-size="13.257908266543797px" fill="#000000" text-anchor="start" style="white-space: pre;" direction="ltr" dominant-baseline="text-before-edge">pass an original event</text></g><g transform="translate(471.4699946188814 342.54128766237966) rotate(349.31031000997837 74.9794921875 8.086945154719956)"><text x="0" y="0" font-family="Cascadia, Segoe UI Emoji" font-size="13.478241924533284px" fill="#000000" text-anchor="start" style="white-space: pre;" direction="ltr" dominant-baseline="text-before-edge">pass a copied event</text></g><g transform="translate(258.6521547882051 153.51537898722717) rotate(0 89.0625 19.200000000000003)"><text x="0" y="0" font-family="Cascadia, Segoe UI Emoji" font-size="16px" fill="#000000" text-anchor="start" style="white-space: pre;" direction="ltr" dominant-baseline="text-before-edge">directly pass event</text><text x="0" y="19.2" font-family="Cascadia, Segoe UI Emoji" font-size="16px" fill="#000000" text-anchor="start" style="white-space: pre;" direction="ltr" dominant-baseline="text-before-edge">to native nanoapp</text></g><g transform="translate(383.61263387740007 628.8555653741399) rotate(26.797193444286577 82.87207031249999 24.260835464159925)"><text x="0" y="0" font-family="Cascadia, Segoe UI Emoji" font-size="13.478241924533284px" fill="#000000" text-anchor="start" style="white-space: pre;" direction="ltr" dominant-baseline="text-before-edge">Pass a copied event</text><text x="0" y="16.17389030943994" font-family="Cascadia, Segoe UI Emoji" font-size="13.478241924533284px" fill="#000000" text-anchor="start" style="white-space: pre;" direction="ltr" dominant-baseline="text-before-edge">located in</text><text x="0" y="32.34778061887988" font-family="Cascadia, Segoe UI Emoji" font-size="13.478241924533284px" fill="#000000" text-anchor="start" style="white-space: pre;" direction="ltr" dominant-baseline="text-before-edge">the new linear memory</text></g><g stroke-linecap="round" transform="translate(929.2580886552928 402.92268347786535) rotate(0 39 42.5)"><path d="M5.19 4.51 C5.19 4.51, 5.19 4.51, 5.19 4.51 M5.19 4.51 C5.19 4.51, 5.19 4.51, 5.19 4.51 M0.99 15.44 C3.48 12.82, 7.7 6.03, 12.15 2.61 M0.99 15.44 C5.42 11.21, 8.76 6.76, 12.15 2.61 M0.73 21.84 C3.95 16.7, 9.42 10.06, 19.76 -0.05 M0.73 21.84 C8.46 14.01, 15.55 6.2, 19.76 -0.05 M1.13 27.48 C10.64 16.78, 16.64 5.91, 24.74 0.31 M1.13 27.48 C8.72 17.97, 16.98 10.31, 24.74 0.31 M0.86 33.88 C9.39 22.89, 23.82 7.91, 30.39 -0.09 M0.86 33.88 C12.17 20.5, 22.12 7.78, 30.39 -0.09 M0.6 40.27 C15.34 25.67, 27.28 7.58, 35.37 0.27 M0.6 40.27 C8.48 31.47, 14.7 24.06, 35.37 0.27 M1 45.92 C8.98 37.11, 19.98 26.32, 41.02 -0.12 M1 45.92 C14.89 28.11, 29.89 10.81, 41.02 -0.12 M0.74 52.32 C9.13 43.43, 21.89 29.76, 46 0.24 M0.74 52.32 C16.4 32.99, 33.05 15.17, 46 0.24 M0.47 58.71 C18.33 41.47, 30.89 23.99, 50.99 0.6 M0.47 58.71 C15.31 42.84, 31.12 26.03, 50.99 0.6 M0.87 64.36 C17.71 49.43, 30.53 29.13, 56.63 0.21 M0.87 64.36 C21.02 41.07, 42.54 16.23, 56.63 0.21 M3.23 67.74 C17.47 49.11, 31.61 33.88, 61.62 0.57 M3.23 67.74 C19.65 47.99, 36.26 29.44, 61.62 0.57 M4.28 72.62 C18.19 57.44, 34.93 37.57, 65.3 2.44 M4.28 72.62 C24.27 49.92, 46.17 26.25, 65.3 2.44 M4.02 79.02 C21.27 61.07, 37.97 43.28, 69.63 3.55 M4.02 79.02 C25.36 54.62, 44.47 32.05, 69.63 3.55 M7.04 81.65 C22.52 59.97, 39.58 42.5, 73.3 5.42 M7.04 81.65 C22.47 63.73, 36.42 46.86, 73.3 5.42 M10.06 84.27 C34.13 58.05, 58.57 28.37, 76.32 8.04 M10.06 84.27 C34.02 56.9, 55.73 29.72, 76.32 8.04 M15.05 84.63 C29.78 69.18, 44.84 52.24, 77.37 12.93 M15.05 84.63 C40.75 55.75, 65.13 27.5, 77.37 12.93 M20.03 84.99 C33.28 67.21, 46.06 53.13, 78.42 17.82 M20.03 84.99 C33.87 70.15, 48.98 52.76, 78.42 17.82 M25.68 84.6 C42.72 65.51, 61.93 41.62, 80.13 21.95 M25.68 84.6 C40.8 68.63, 55.63 51.97, 80.13 21.95 M30.66 84.96 C39.61 72.42, 53.39 62.06, 80.52 27.6 M30.66 84.96 C40.4 73.41, 50.28 62.63, 80.52 27.6 M36.31 84.56 C51.23 67.41, 67.59 48.64, 80.26 34 M36.31 84.56 C46.87 72.81, 56.42 62.56, 80.26 34 M41.29 84.92 C57.84 67.76, 69.82 49.17, 80.66 39.64 M41.29 84.92 C53.18 72.16, 64.83 58.94, 80.66 39.64 M46.28 85.28 C56.57 72.13, 68.6 60.94, 80.4 46.04 M46.28 85.28 C58.89 69.96, 72.1 55.73, 80.4 46.04 M51.92 84.89 C60.84 73.42, 73.69 60.26, 80.13 52.43 M51.92 84.89 C62.49 72.71, 72.11 61.65, 80.13 52.43 M56.91 85.25 C64.62 78.36, 68.83 67.34, 80.53 58.08 M56.91 85.25 C64.38 77.23, 71.29 69.58, 80.53 58.08 M60.59 87.12 C65.8 81.73, 72.24 76.68, 78.95 65.98 M60.59 87.12 C67.81 80.31, 73.85 71.66, 78.95 65.98 M67.54 85.21 C72.21 82.7, 75.18 78.91, 77.38 73.89 M67.54 85.21 C70.68 81.63, 74.31 78.12, 77.38 73.89" stroke="#82c91e" stroke-width="0.5" fill="none"></path><path d="M19.5 0 M19.5 0 C34.3 -1.49, 48.95 1.89, 58.5 0 M19.5 0 C35.3 -0.97, 49.93 0.07, 58.5 0 M58.5 0 C71.91 -0.79, 78.15 7.43, 78 19.5 M58.5 0 C69.37 0.63, 79.75 7.78, 78 19.5 M78 19.5 C78.36 34.99, 79.23 52.92, 78 65.5 M78 19.5 C77.2 36.59, 78.49 56.16, 78 65.5 M78 65.5 C78.82 80.34, 69.62 84.59, 58.5 85 M78 65.5 C79.45 80.56, 69.76 82.75, 58.5 85 M58.5 85 C45.6 84.52, 29.74 86.33, 19.5 85 M58.5 85 C48.76 84.28, 40.49 85.03, 19.5 85 M19.5 85 C5.69 86.88, -1.91 78.42, 0 65.5 M19.5 85 C4.54 84.58, 1.22 77.73, 0 65.5 M0 65.5 C-1.92 56.35, -2.02 45.16, 0 19.5 M0 65.5 C1.14 49.13, 0.86 30.28, 0 19.5 M0 19.5 C0.71 6.83, 7.55 1.3, 19.5 0 M0 19.5 C0.76 5.64, 8.43 -0.85, 19.5 0" stroke="#000000" stroke-width="1" fill="none"></path></g><g transform="translate(935.4455886552928 416.62268347786534) rotate(0 32.8125 28.799999999999983)"><text x="32.8125" y="0" font-family="Cascadia, Segoe UI Emoji" font-size="16px" fill="#000000" text-anchor="middle" style="white-space: pre;" direction="ltr" dominant-baseline="text-before-edge">linear </text><text x="32.8125" y="19.2" font-family="Cascadia, Segoe UI Emoji" font-size="16px" fill="#000000" text-anchor="middle" style="white-space: pre;" direction="ltr" dominant-baseline="text-before-edge">memory</text><text x="32.8125" y="38.4" font-family="Cascadia, Segoe UI Emoji" font-size="16px" fill="#000000" text-anchor="middle" style="white-space: pre;" direction="ltr" dominant-baseline="text-before-edge">1</text></g><g stroke-linecap="round" transform="translate(619.1325647932849 644.926908263759) rotate(0 39 42.5)"><path d="M5.19 4.51 C5.19 4.51, 5.19 4.51, 5.19 4.51 M5.19 4.51 C5.19 4.51, 5.19 4.51, 5.19 4.51 M0.99 15.44 C3.48 12.82, 7.7 6.03, 12.15 2.61 M0.99 15.44 C5.42 11.21, 8.76 6.76, 12.15 2.61 M0.73 21.84 C3.95 16.7, 9.42 10.06, 19.76 -0.05 M0.73 21.84 C8.46 14.01, 15.55 6.2, 19.76 -0.05 M1.13 27.48 C10.64 16.78, 16.64 5.91, 24.74 0.31 M1.13 27.48 C8.72 17.97, 16.98 10.31, 24.74 0.31 M0.86 33.88 C9.39 22.89, 23.82 7.91, 30.39 -0.09 M0.86 33.88 C12.17 20.5, 22.12 7.78, 30.39 -0.09 M0.6 40.27 C15.34 25.67, 27.28 7.58, 35.37 0.27 M0.6 40.27 C8.48 31.47, 14.7 24.06, 35.37 0.27 M1 45.92 C8.98 37.11, 19.98 26.32, 41.02 -0.12 M1 45.92 C14.89 28.11, 29.89 10.81, 41.02 -0.12 M0.74 52.32 C9.13 43.43, 21.89 29.76, 46 0.24 M0.74 52.32 C16.4 32.99, 33.05 15.17, 46 0.24 M0.47 58.71 C18.33 41.47, 30.89 23.99, 50.99 0.6 M0.47 58.71 C15.31 42.84, 31.12 26.03, 50.99 0.6 M0.87 64.36 C17.71 49.43, 30.53 29.13, 56.63 0.21 M0.87 64.36 C21.02 41.07, 42.54 16.23, 56.63 0.21 M3.23 67.74 C17.47 49.11, 31.61 33.88, 61.62 0.57 M3.23 67.74 C19.65 47.99, 36.26 29.44, 61.62 0.57 M4.28 72.62 C18.19 57.44, 34.93 37.57, 65.3 2.44 M4.28 72.62 C24.27 49.92, 46.17 26.25, 65.3 2.44 M4.02 79.02 C21.27 61.07, 37.97 43.28, 69.63 3.55 M4.02 79.02 C25.36 54.62, 44.47 32.05, 69.63 3.55 M7.04 81.65 C22.52 59.97, 39.58 42.5, 73.3 5.42 M7.04 81.65 C22.47 63.73, 36.42 46.86, 73.3 5.42 M10.06 84.27 C34.13 58.05, 58.57 28.37, 76.32 8.04 M10.06 84.27 C34.02 56.9, 55.73 29.72, 76.32 8.04 M15.05 84.63 C29.78 69.18, 44.84 52.24, 77.37 12.93 M15.05 84.63 C40.75 55.75, 65.13 27.5, 77.37 12.93 M20.03 84.99 C33.28 67.21, 46.06 53.13, 78.42 17.82 M20.03 84.99 C33.87 70.15, 48.98 52.76, 78.42 17.82 M25.68 84.6 C42.72 65.51, 61.93 41.62, 80.13 21.95 M25.68 84.6 C40.8 68.63, 55.63 51.97, 80.13 21.95 M30.66 84.96 C39.61 72.42, 53.39 62.06, 80.52 27.6 M30.66 84.96 C40.4 73.41, 50.28 62.63, 80.52 27.6 M36.31 84.56 C51.23 67.41, 67.59 48.64, 80.26 34 M36.31 84.56 C46.87 72.81, 56.42 62.56, 80.26 34 M41.29 84.92 C57.84 67.76, 69.82 49.17, 80.66 39.64 M41.29 84.92 C53.18 72.16, 64.83 58.94, 80.66 39.64 M46.28 85.28 C56.57 72.13, 68.6 60.94, 80.4 46.04 M46.28 85.28 C58.89 69.96, 72.1 55.73, 80.4 46.04 M51.92 84.89 C60.84 73.42, 73.69 60.26, 80.13 52.43 M51.92 84.89 C62.49 72.71, 72.11 61.65, 80.13 52.43 M56.91 85.25 C64.62 78.36, 68.83 67.34, 80.53 58.08 M56.91 85.25 C64.38 77.23, 71.29 69.58, 80.53 58.08 M60.59 87.12 C65.8 81.73, 72.24 76.68, 78.95 65.98 M60.59 87.12 C67.81 80.31, 73.85 71.66, 78.95 65.98 M67.54 85.21 C72.21 82.7, 75.18 78.91, 77.38 73.89 M67.54 85.21 C70.68 81.63, 74.31 78.12, 77.38 73.89" stroke="#fab005" stroke-width="0.5" fill="none"></path><path d="M19.5 0 M19.5 0 C34.3 -1.49, 48.95 1.89, 58.5 0 M19.5 0 C35.3 -0.97, 49.93 0.07, 58.5 0 M58.5 0 C71.91 -0.79, 78.15 7.43, 78 19.5 M58.5 0 C69.37 0.63, 79.75 7.78, 78 19.5 M78 19.5 C78.36 34.99, 79.23 52.92, 78 65.5 M78 19.5 C77.2 36.59, 78.49 56.16, 78 65.5 M78 65.5 C78.82 80.34, 69.62 84.59, 58.5 85 M78 65.5 C79.45 80.56, 69.76 82.75, 58.5 85 M58.5 85 C45.6 84.52, 29.74 86.33, 19.5 85 M58.5 85 C48.76 84.28, 40.49 85.03, 19.5 85 M19.5 85 C5.69 86.88, -1.91 78.42, 0 65.5 M19.5 85 C4.54 84.58, 1.22 77.73, 0 65.5 M0 65.5 C-1.92 56.35, -2.02 45.16, 0 19.5 M0 65.5 C1.14 49.13, 0.86 30.28, 0 19.5 M0 19.5 C0.71 6.83, 7.55 1.3, 19.5 0 M0 19.5 C0.76 5.64, 8.43 -0.85, 19.5 0" stroke="#000000" stroke-width="1" fill="none"></path></g><g transform="translate(625.3200647932849 658.626908263759) rotate(0 32.8125 28.80000000000001)"><text x="32.8125" y="0" font-family="Cascadia, Segoe UI Emoji" font-size="16px" fill="#000000" text-anchor="middle" style="white-space: pre;" direction="ltr" dominant-baseline="text-before-edge">linear </text><text x="32.8125" y="19.2" font-family="Cascadia, Segoe UI Emoji" font-size="16px" fill="#000000" text-anchor="middle" style="white-space: pre;" direction="ltr" dominant-baseline="text-before-edge">memory</text><text x="32.8125" y="38.4" font-family="Cascadia, Segoe UI Emoji" font-size="16px" fill="#000000" text-anchor="middle" style="white-space: pre;" direction="ltr" dominant-baseline="text-before-edge">2</text></g><g stroke-linecap="round"><g transform="translate(806.9253207764311 307.0336504977314) rotate(0 144.5752870660744 61.283161914450346)"><path d="M-0.94 1.16 C19.32 -4.76, 74.42 -38.21, 120.45 -36.67 C166.48 -35.12, 249.37 -20.33, 275.24 10.42 C301.1 41.16, 287.81 124.25, 275.65 147.8 C263.5 171.35, 214.57 151.31, 202.31 151.73" stroke="#000000" stroke-width="1.5" fill="none" stroke-dasharray="8 9"></path></g><g transform="translate(806.9253207764311 307.0336504977314) rotate(0 144.5752870660744 61.283161914450346)"><path d="M233.81 146.29 C225.81 148.03, 217.73 148.02, 200.33 153.17" stroke="#000000" stroke-width="1.5" fill="none"></path></g><g transform="translate(806.9253207764311 307.0336504977314) rotate(0 144.5752870660744 61.283161914450346)"><path d="M230.17 166.48 C223.12 164.08, 215.79 159.89, 200.33 153.17" stroke="#000000" stroke-width="1.5" fill="none"></path></g></g><mask></mask><g stroke-linecap="round"><g transform="translate(517.3400746147697 587.3508113055815) rotate(0 133.29602772827036 19.311659628156008)"><path d="M1.02 -0.88 C15.08 -13.65, 44.94 -67.15, 84.48 -76.59 C124.01 -86.04, 208.93 -88.04, 238.23 -57.53 C267.53 -27.02, 270.41 77.76, 260.28 106.49 C250.15 135.21, 191.09 113.28, 177.46 114.83" stroke="#000000" stroke-width="1.5" fill="none" stroke-dasharray="8 9"></path></g><g transform="translate(517.3400746147697 587.3508113055815) rotate(0 133.29602772827036 19.311659628156008)"><path d="M205.3 109.3 C197.72 112.47, 188.97 114.48, 176.57 113.32" stroke="#000000" stroke-width="1.5" fill="none"></path></g><g transform="translate(517.3400746147697 587.3508113055815) rotate(0 133.29602772827036 19.311659628156008)"><path d="M202.58 129.64 C195.84 126.51, 187.93 122.25, 176.57 113.32" stroke="#000000" stroke-width="1.5" fill="none"></path></g></g><mask></mask><g transform="translate(674.7168285510486 484.7270724059682) rotate(10.488159909864974 18.75 9.600000000000023)"><text x="0" y="0" font-family="Cascadia, Segoe UI Emoji" font-size="16px" fill="#000000" text-anchor="start" style="white-space: pre;" direction="ltr" dominant-baseline="text-before-edge">from</text></g><g transform="translate(1003.7462607557898 265.25495852083463) rotate(18.818923060240103 18.75 9.599999999999994)"><text x="0" y="0" font-family="Cascadia, Segoe UI Emoji" font-size="16px" fill="#000000" text-anchor="start" style="white-space: pre;" direction="ltr" dominant-baseline="text-before-edge">from</text></g><g transform="translate(194.72863231907115 462.6639414294657) rotate(358.5086771769582 98.4375 19.19999999999999)"><text x="0" y="0" font-family="Cascadia, Segoe UI Emoji" font-size="16px" fill="#000000" text-anchor="start" style="white-space: pre;" direction="ltr" dominant-baseline="text-before-edge">delivers an event</text><text x="0" y="19.2" font-family="Cascadia, Segoe UI Emoji" font-size="16px" fill="#000000" text-anchor="start" style="white-space: pre;" direction="ltr" dominant-baseline="text-before-edge">popped from the queue</text></g><g stroke-linecap="round" transform="translate(953.6957454778569 122.5426146577392) rotate(0 101.03680357409382 43.5)"><path d="M21.75 0 M21.75 0 C74.68 0.65, 124.67 0.41, 180.32 0 M180.32 0 C193.62 1.89, 201.1 6.88, 202.07 21.75 M202.07 21.75 C200.6 36.46, 200.32 49.5, 202.07 65.25 M202.07 65.25 C200.72 78.37, 194.22 88.09, 180.32 87 M180.32 87 C137.37 88.82, 91.54 86.8, 21.75 87 M21.75 87 C8.7 85.95, -1.65 78.31, 0 65.25 M0 65.25 C0.82 54.06, -1.22 41.22, 0 21.75 M0 21.75 C-1.73 6.86, 9.06 1.94, 21.75 0" stroke="#343a40" stroke-width="1.5" fill="none" stroke-dasharray="8 9"></path></g><g transform="translate(970.3575490519506 127.5426146577392) rotate(0 84.375 38.400000000000006)"><text x="84.375" y="0" font-family="Cascadia, Segoe UI Emoji" font-size="16px" fill="#343a40" text-anchor="middle" style="white-space: pre;" direction="ltr" dominant-baseline="text-before-edge">Annotation</text><text x="84.375" y="19.2" font-family="Cascadia, Segoe UI Emoji" font-size="16px" fill="#343a40" text-anchor="middle" style="white-space: pre;" direction="ltr" dominant-baseline="text-before-edge">CHRE API native </text><text x="84.375" y="38.4" font-family="Cascadia, Segoe UI Emoji" font-size="16px" fill="#343a40" text-anchor="middle" style="white-space: pre;" direction="ltr" dominant-baseline="text-before-edge">wrapper will copy </text><text x="84.375" y="57.599999999999994" font-family="Cascadia, Segoe UI Emoji" font-size="16px" fill="#343a40" text-anchor="middle" style="white-space: pre;" direction="ltr" dominant-baseline="text-before-edge">the original event</text></g><g stroke-linecap="round" transform="translate(98.9727079196997 638.434944795714) rotate(0 106 55.5)"><path d="M27.75 0 M27.75 0 C79.99 0.67, 129.31 0.43, 184.25 0 M184.25 0 C201.55 1.89, 211.03 8.88, 212 27.75 M212 27.75 C210.47 46.11, 210.19 62.8, 212 83.25 M212 83.25 C210.65 100.37, 202.15 112.09, 184.25 111 M184.25 111 C141.87 112.82, 96.61 110.8, 27.75 111 M27.75 111 C10.7 109.95, -1.65 100.31, 0 83.25 M0 83.25 C0.82 68.73, -1.22 52.56, 0 27.75 M0 27.75 C-1.73 8.86, 11.06 1.94, 27.75 0" stroke="#343a40" stroke-width="1.5" fill="none" stroke-dasharray="8 9"></path></g><g transform="translate(106.5352079196997 643.434944795714) rotate(0 98.4375 48)"><text x="98.4375" y="0" font-family="Cascadia, Segoe UI Emoji" font-size="16px" fill="#343a40" text-anchor="middle" style="white-space: pre;" direction="ltr" dominant-baseline="text-before-edge">Annotation</text><text x="98.4375" y="19.2" font-family="Cascadia, Segoe UI Emoji" font-size="16px" fill="#343a40" text-anchor="middle" style="white-space: pre;" direction="ltr" dominant-baseline="text-before-edge">Conversion layer will</text><text x="98.4375" y="38.4" font-family="Cascadia, Segoe UI Emoji" font-size="16px" fill="#343a40" text-anchor="middle" style="white-space: pre;" direction="ltr" dominant-baseline="text-before-edge">copy the event from </text><text x="98.4375" y="57.599999999999994" font-family="Cascadia, Segoe UI Emoji" font-size="16px" fill="#343a40" text-anchor="middle" style="white-space: pre;" direction="ltr" dominant-baseline="text-before-edge">natie to the target </text><text x="98.4375" y="76.8" font-family="Cascadia, Segoe UI Emoji" font-size="16px" fill="#343a40" text-anchor="middle" style="white-space: pre;" direction="ltr" dominant-baseline="text-before-edge">linear memory.</text></g><g stroke-linecap="round" transform="translate(26.23064737395552 28.14806625103057) rotate(0 101.03680357409382 81.8)"><path d="M32 0 M32 0 C78.17 0.81, 121.41 0.57, 170.07 0 M170.07 0 C190.21 1.89, 201.1 10.3, 202.07 32 M202.07 32 C200.34 63.76, 200.06 93.85, 202.07 131.6 M202.07 131.6 C200.72 151.55, 190.81 164.69, 170.07 163.6 M170.07 163.6 C132.8 165.44, 92.64 163.42, 32 163.6 M32 163.6 C12.11 162.55, -1.65 151.49, 0 131.6 M0 131.6 C0.84 104.84, -1.2 76.42, 0 32 M0 32 C-1.73 10.28, 12.47 1.94, 32 0" stroke="#343a40" stroke-width="1.5" fill="none" stroke-dasharray="8 9"></path></g><g transform="translate(33.517450948049344 33.14806625103057) rotate(0 93.75 76.8)"><text x="93.75" y="0" font-family="Cascadia, Segoe UI Emoji" font-size="16px" fill="#343a40" text-anchor="middle" style="white-space: pre;" direction="ltr" dominant-baseline="text-before-edge">Annotation</text><text x="93.75" y="19.2" font-family="Cascadia, Segoe UI Emoji" font-size="16px" fill="#343a40" text-anchor="middle" style="white-space: pre;" direction="ltr" dominant-baseline="text-before-edge">CHRE will receive </text><text x="93.75" y="38.4" font-family="Cascadia, Segoe UI Emoji" font-size="16px" fill="#343a40" text-anchor="middle" style="white-space: pre;" direction="ltr" dominant-baseline="text-before-edge">events, push events </text><text x="93.75" y="57.599999999999994" font-family="Cascadia, Segoe UI Emoji" font-size="16px" fill="#343a40" text-anchor="middle" style="white-space: pre;" direction="ltr" dominant-baseline="text-before-edge">into the queue, and </text><text x="93.75" y="76.8" font-family="Cascadia, Segoe UI Emoji" font-size="16px" fill="#343a40" text-anchor="middle" style="white-space: pre;" direction="ltr" dominant-baseline="text-before-edge">then pop events from</text><text x="93.75" y="96" font-family="Cascadia, Segoe UI Emoji" font-size="16px" fill="#343a40" text-anchor="middle" style="white-space: pre;" direction="ltr" dominant-baseline="text-before-edge">the queue to deliver</text><text x="93.75" y="115.19999999999999" font-family="Cascadia, Segoe UI Emoji" font-size="16px" fill="#343a40" text-anchor="middle" style="white-space: pre;" direction="ltr" dominant-baseline="text-before-edge">them to some </text><text x="93.75" y="134.4" font-family="Cascadia, Segoe UI Emoji" font-size="16px" fill="#343a40" text-anchor="middle" style="white-space: pre;" direction="ltr" dominant-baseline="text-before-edge">nanoapp.</text></g><g stroke-linecap="round"><g transform="translate(352.61226092843435 252.47410816385297) rotate(0 -99.93313901168689 -27.603318219560663)"><path d="M0.39 0.63 C-17.81 -2, -76.57 -5.19, -110.01 -14.6 C-143.45 -24.01, -184.94 -48.97, -200.25 -55.83" stroke="#343a40" stroke-width="1.5" fill="none" stroke-dasharray="8 9"></path></g><g transform="translate(352.61226092843435 252.47410816385297) rotate(0 -99.93313901168689 -27.603318219560663)"><path d="M-169.43 -52.01 C-178.81 -51.75, -184.59 -55.32, -200.59 -55.39" stroke="#343a40" stroke-width="1.5" fill="none"></path></g><g transform="translate(352.61226092843435 252.47410816385297) rotate(0 -99.93313901168689 -27.603318219560663)"><path d="M-178.75 -33.72 C-186.16 -37.69, -189.81 -45.45, -200.59 -55.39" stroke="#343a40" stroke-width="1.5" fill="none"></path></g></g><mask></mask><g stroke-linecap="round"><g transform="translate(706.2000177636794 274.50776819789246) rotate(0 120.2589156794329 -45.93205772332699)"><path d="M0.77 0.33 C40.74 -14.92, 199.98 -76.66, 239.75 -92.19" stroke="#343a40" stroke-width="1.5" fill="none" stroke-dasharray="8 9"></path></g><g transform="translate(706.2000177636794 274.50776819789246) rotate(0 120.2589156794329 -45.93205772332699)"><path d="M217.74 -72.87 C224.96 -79.37, 230.42 -83.82, 239.14 -92.64" stroke="#343a40" stroke-width="1.5" fill="none"></path></g><g transform="translate(706.2000177636794 274.50776819789246) rotate(0 120.2589156794329 -45.93205772332699)"><path d="M210.3 -91.99 C219.58 -92.96, 227.22 -91.82, 239.14 -92.64" stroke="#343a40" stroke-width="1.5" fill="none"></path></g></g><mask></mask><g stroke-linecap="round"><g transform="translate(364.20365168539337 561.4133613574942) rotate(0 -33.18254162225989 36.23609832362695)"><path d="M0.42 -1.02 C-4.24 9.07, -16.88 48, -28.09 60.42 C-39.29 72.84, -60.32 71.43, -66.79 73.49" stroke="#343a40" stroke-width="1.5" fill="none" stroke-dasharray="8 9"></path></g><g transform="translate(364.20365168539337 561.4133613574942) rotate(0 -33.18254162225989 36.23609832362695)"><path d="M-50.49 63.43 C-53.07 66.35, -59.14 69.02, -67.79 74.58" stroke="#343a40" stroke-width="1.5" fill="none"></path></g><g transform="translate(364.20365168539337 561.4133613574942) rotate(0 -33.18254162225989 36.23609832362695)"><path d="M-48.38 77.3 C-51.56 76.2, -58.24 74.82, -67.79 74.58" stroke="#343a40" stroke-width="1.5" fill="none"></path></g></g><mask></mask><g stroke-linecap="round" transform="translate(10 10) rotate(0 293.125 111.25)"><path d="M32 0 M32 0 C172.36 0.42, 311.36 1.05, 554.25 0 M554.25 0 C576.87 1.34, 585.99 12.44, 586.25 32 M586.25 32 C585.99 87.89, 588.59 142.29, 586.25 190.5 M586.25 190.5 C585.5 211.61, 575.73 222.68, 554.25 222.5 M554.25 222.5 C392.48 222.16, 230.31 222.22, 32 222.5 M32 222.5 C12.54 223.98, 1.13 211.58, 0 190.5 M0 190.5 C2.07 156.11, 1.62 124.65, 0 32 M0 32 C-1.3 12.47, 10.64 -0.89, 32 0" stroke="#a61e4d" stroke-width="1.5" fill="none" stroke-dasharray="8 9"></path></g><g transform="translate(341.97021484375 15) rotate(0 124.639892578125 12.5)"><text x="249.27978515625" y="0" font-family="Virgil, Segoe UI Emoji" font-size="20px" fill="#a61e4d" text-anchor="end" style="white-space: pre;" direction="ltr" dominant-baseline="text-before-edge">path 1 of delivering event</text></g><g stroke-linecap="round" transform="translate(50.625 443.75) rotate(0 375.625 158.125)"><path d="M32 0 M32 0 C216.62 0.67, 399.88 1.29, 719.25 0 M719.25 0 C741.87 1.34, 750.99 12.44, 751.25 32 M751.25 32 C751.61 120.48, 753.72 207.75, 751.25 284.25 M751.25 284.25 C750.5 305.36, 740.73 316.43, 719.25 316.25 M719.25 316.25 C506.22 316.05, 292.79 316.11, 32 316.25 M32 316.25 C12.54 317.73, 1.13 305.33, 0 284.25 M0 284.25 C1.88 230.31, 1.51 178.75, 0 32 M0 32 C-1.3 12.47, 10.64 -0.89, 32 0" stroke="#a61e4d" stroke-width="1.5" fill="none" stroke-dasharray="8 9"></path></g><g transform="translate(538.7752075195312 448.75) rotate(0 129.0498962402344 12.5)"><text x="258.09979248046875" y="0" font-family="Virgil, Segoe UI Emoji" font-size="20px" fill="#a61e4d" text-anchor="end" style="white-space: pre;" direction="ltr" dominant-baseline="text-before-edge">path 2 of delivering event</text></g><g stroke-linecap="round"><g transform="translate(473.75 317.5) rotate(0 384.1557608783032 -2.4409337653401337)"><path d="M1.08 -0.72 C22.97 -10.84, 92.98 -37.55, 131.86 -60.82 C170.74 -84.08, 153.91 -109.74, 234.37 -140.31 C314.84 -170.87, 524.82 -243.06, 614.67 -244.21 C704.51 -245.36, 758.01 -225.09, 773.46 -147.22 C788.91 -69.34, 764.96 171.07, 707.38 223.06 C649.8 275.04, 505.91 188.26, 427.99 164.7 C350.07 141.14, 309.26 96.54, 239.85 81.68 C170.45 66.82, 51.71 89.1, 11.56 75.54 C-28.6 61.98, 0.7 12.89, -1.08 0.33" stroke="#a61e4d" stroke-width="1.5" fill="none" stroke-dasharray="8 9"></path></g></g><mask></mask><g transform="translate(695.9101715087891 156.25) rotate(341.82505193099337 96.41991424560547 12.5)"><text x="192.83982849121094" y="0" font-family="Virgil, Segoe UI Emoji" font-size="20px" fill="#a61e4d" text-anchor="end" style="white-space: pre;" direction="ltr" dominant-baseline="text-before-edge">path to post event</text></g></svg>